<svg width="150" height="150" viewBox="0 0 150 150" fill="none" xmlns="http://www.w3.org/2000/svg">
<g clip-path="url(#clip0_1533_19929)">
<path d="M75 150C116.421 150 150 116.421 150 75C150 33.5786 116.421 0 75 0C33.5786 0 0 33.5786 0 75C0 116.421 33.5786 150 75 150Z" fill="#F0F0F0"/>
<path d="M58.6956 65.2175H149.365C144.571 28.4186 113.105 0 74.9996 0C69.3995 0 63.9453 0.619043 58.6953 1.78271L58.6956 65.2175Z" fill="#D80027"/>
<path d="M39.1303 65.2171V9.11914C18.5366 20.3557 3.79385 40.9663 0.634766 65.2174L39.1303 65.2171Z" fill="#D80027"/>
<path d="M39.13 84.7822H0.634766C3.79385 109.033 18.5366 129.644 39.1303 140.88L39.13 84.7822Z" fill="#D80027"/>
<path d="M58.6953 84.7825V148.217C63.9453 149.381 69.3995 150 74.9996 150C113.105 150 144.571 121.581 149.365 84.7822H58.6953V84.7825Z" fill="#D80027"/>
</g>
<defs>
<clipPath id="clip0_1533_19929">
<rect width="150" height="150" fill="white"/>
</clipPath>
</defs>
</svg>
