<svg width="150" height="150" viewBox="0 0 150 150" fill="none" xmlns="http://www.w3.org/2000/svg">
<g clip-path="url(#clip0_1533_19951)">
<path d="M75 150C116.42 150 150 116.417 150 75C150 33.583 116.42 0 75 0C33.5801 0 0 33.583 0 75C0 116.417 33.5771 150 75 150Z" fill="#F0F0F0"/>
<path fill-rule="evenodd" clip-rule="evenodd" d="M147.417 55.415C138.812 23.499 109.653 0 75.001 0C72.8271 0 70.6475 0.0820312 68.4795 0.292969V55.415H147.417ZM29.3506 134.499C16.3014 124.481 6.89797 110.46 2.58203 94.585V94.541H29.3447L29.3506 134.499ZM75.001 150L68.4795 149.707V94.585H147.417C138.807 126.498 109.65 150 75.001 150ZM29.3447 15.501C16.2865 25.5093 6.88242 39.5346 2.58203 55.415H29.3447V15.501Z" fill="#D80027"/>
<path d="M149.364 65.209H58.6992V1.79297C51.8625 3.29444 45.2741 5.76054 39.1318 9.11719V65.209H0.632815C-0.210938 71.7091 -0.210938 78.2909 0.632815 84.791H39.1318V140.874C45.2813 144.215 51.8674 146.68 58.6992 148.198V84.791H149.364C150.211 78.2911 150.211 71.7089 149.364 65.209Z" fill="#0052B4"/>
</g>
<defs>
<clipPath id="clip0_1533_19951">
<rect width="150" height="150" fill="white"/>
</clipPath>
</defs>
</svg>
