<svg width="150" height="150" viewBox="0 0 150 150" fill="none" xmlns="http://www.w3.org/2000/svg">
<g clip-path="url(#clip0_1531_19131)">
<path d="M75 150C116.42 150 150 116.417 150 75C150 33.583 116.42 0 75 0C33.5801 0 0 33.583 0 75C0 116.417 33.5801 150 75 150Z" fill="#D80027"/>
<path fill-rule="evenodd" clip-rule="evenodd" d="M33.938 75C33.9449 78.6676 34.9027 82.2707 36.7179 85.4576C38.5331 88.6445 41.1435 91.3062 44.2945 93.1831C47.4455 95.0599 51.0293 96.0876 54.696 96.166C58.3627 96.2443 61.9871 95.3705 65.2153 93.6299C61.5432 97.2107 56.8965 99.629 51.8568 100.582C46.8171 101.535 41.6082 100.981 36.8821 98.9881C32.1559 96.9955 28.1224 93.6532 25.2863 89.3797C22.4502 85.1061 20.9375 80.091 20.9375 74.9619C20.9375 69.8329 22.4502 64.8178 25.2863 60.5442C28.1224 56.2706 32.1559 52.9284 36.8821 50.9358C41.6082 48.9432 46.8171 48.3887 51.8568 49.3418C56.8965 50.2949 61.5432 52.7131 65.2153 56.294C62.1006 54.6707 58.6436 53.814 55.1314 53.7949C49.5099 53.7996 44.1202 56.0356 40.1464 60.0116C36.1725 63.9877 33.9395 69.3786 33.938 75ZM78.0825 69.75L71.9302 61.2539V71.7539L61.9692 75.0029L71.8687 78.2227V88.6787L78.0357 80.2207L88.0347 83.4697L81.8823 74.9736L88.0347 66.5156L78.0825 69.75Z" fill="#F0F0F0"/>
</g>
<defs>
<clipPath id="clip0_1531_19131">
<rect width="150" height="150" fill="white"/>
</clipPath>
</defs>
</svg>
