<svg width="150" height="150" viewBox="0 0 150 150" fill="none" xmlns="http://www.w3.org/2000/svg">
<g clip-path="url(#clip0_1532_19891)">
<path d="M75 150C116.421 150 150 116.421 150 75C150 33.5786 116.421 0 75 0C33.5786 0 0 33.5786 0 75C0 116.421 33.5786 150 75 150Z" fill="#7CC8FB"/>
<path d="M149.121 63.5039H0.878906C2.46653 53.2099 6.18873 43.3616 11.8066 34.5908C18.59 23.9844 27.9343 15.2563 38.9782 9.21117C50.022 3.166 62.4099 -0.00172931 75 7.08241e-07C109.57 7.08241e-07 138.668 23.3789 147.363 55.1895C148.109 57.9248 148.695 60.7009 149.121 63.5039Z" fill="#DB1B1B"/>
<path d="M149.414 84.3545C149.353 84.873 149.282 85.3916 149.206 85.9072C148.846 88.4093 148.357 90.8912 147.741 93.3428C139.559 125.897 110.095 150 75 150C56.6214 150.003 38.8818 143.256 25.1514 131.039C19.896 126.359 15.3214 120.967 11.5605 115.02C5.68854 105.731 1.94105 95.2597 0.585938 84.3545H149.414Z" fill="#225DB2"/>
<path d="M149.999 75C149.998 78.1273 149.802 81.2515 149.413 84.3545C149.351 84.873 149.281 85.3916 149.205 85.9072C148.845 88.4093 148.356 90.8912 147.74 93.3428H83.8726L31.4311 136.043C21.6775 129.075 13.7354 119.871 8.27034 109.203C2.80523 98.5342 -0.0238609 86.7113 0.0200343 74.7245C0.0639296 62.7376 2.97953 50.9358 8.52263 40.3076C14.0657 29.6793 22.0749 20.534 31.8794 13.6377L83.8608 55.1895H147.362C148.107 57.9248 148.694 60.7009 149.12 63.5039C149.705 67.3079 149.999 71.1512 149.999 75Z" fill="white"/>
<path d="M149.999 75C149.999 78.1273 149.803 81.2515 149.413 84.3545C149.352 84.873 149.282 85.3916 149.205 85.9072H81.1664L25.1507 131.024C19.8964 126.349 15.3219 120.962 11.5599 115.02C5.68791 105.731 1.94042 95.2597 0.585303 84.3545C-0.27804 77.424 -0.179451 70.4074 0.878272 63.5039C2.46589 53.2099 6.1881 43.3616 11.806 34.5908C15.5999 28.6655 20.2052 23.3008 25.4876 18.6533L81.1517 63.5039H149.12C149.706 67.3079 150 71.1512 149.999 75Z" fill="#00B564"/>
<path d="M82.6172 0.383759C67.0905 1.962 52.4441 8.34906 40.7227 18.6533C40.3125 19.0136 39.9082 19.3769 39.5068 19.749C37.544 21.5472 35.68 23.4504 33.9229 25.4502C29.7353 30.1991 26.1668 35.4598 23.3027 41.1064C22.9727 41.7588 22.6494 42.417 22.333 43.081C19.2913 49.5552 17.1966 56.4332 16.1133 63.5039H0.878906C2.46653 53.2099 6.18873 43.3615 11.8066 34.5908C19.2922 22.8988 29.8734 13.5117 42.3742 7.47285C54.8749 1.43401 68.8054 -1.01994 82.6172 0.383759Z" fill="#C11616"/>
<path d="M82.6172 149.619C80.0861 149.873 77.5438 150.001 75 150C56.6214 150.003 38.8818 143.256 25.1514 131.039C19.896 126.359 15.3214 120.967 11.5605 115.02C5.68854 105.731 1.94105 95.2597 0.585938 84.3545H15.8203C16.7676 92.0162 18.9026 99.4837 22.1484 106.488C22.457 107.156 22.7754 107.818 23.1035 108.475C24.2226 110.717 25.4547 112.902 26.7949 115.02C28.836 118.256 31.122 121.331 33.6328 124.219C35.341 126.186 37.1522 128.062 39.0586 129.838C39.4961 130.252 39.9385 130.657 40.3857 131.054C52.1628 141.525 66.9391 148.021 82.6172 149.619Z" fill="#225DB2"/>
<path d="M39.0571 129.823L31.4194 136.043C21.6657 129.075 13.7237 119.871 8.25862 109.203C2.79351 98.5342 -0.0355796 86.7113 0.0083156 74.7245C0.0522108 62.7376 2.96781 50.9358 8.51091 40.3076C14.054 29.6793 22.0632 20.534 31.8677 13.6377L39.5171 19.749C37.5543 21.5473 35.6902 23.4505 33.9331 25.4502C29.7456 30.1991 26.1771 35.4598 23.313 41.1064C22.9829 41.7588 22.6597 42.417 22.3433 43.0811C17.6772 52.993 15.2414 63.8076 15.2075 74.7629C15.1736 85.7182 17.5424 96.5476 22.147 106.488C22.4556 107.156 22.7739 107.818 23.102 108.475C24.2211 110.717 25.4532 112.902 26.7935 115.02C28.8345 118.256 31.1205 121.331 33.6313 124.219C35.34 126.181 37.1511 128.052 39.0571 129.823Z" fill="#DBDBDB"/>
<path d="M26.7943 115.02C28.8354 118.256 31.1213 121.331 33.6322 124.219L25.1507 131.039C19.8954 126.359 15.3207 120.967 11.5599 115.02C5.68791 105.731 1.94042 95.2597 0.585303 84.3545C-0.27804 77.424 -0.179451 70.4074 0.878272 63.5039C2.46589 53.2099 6.1881 43.3616 11.806 34.5908C15.5999 28.6655 20.2052 23.3008 25.4876 18.6533L33.9222 25.4502C29.7347 30.1991 26.1662 35.4598 23.3021 41.1064C22.972 41.7588 22.6488 42.417 22.3324 43.0811C17.6663 52.993 15.2305 63.8076 15.1966 74.7629C15.1627 85.7182 17.5315 96.5476 22.1361 106.488C22.4447 107.156 22.763 107.818 23.0912 108.475C24.2141 110.717 25.45 112.902 26.7943 115.02Z" fill="#009E52"/>
<path d="M61.596 74.707L49.6224 84.3545L11.5599 115.02C5.68791 105.731 1.94042 95.2597 0.585303 84.3545C-0.27804 77.424 -0.179451 70.4074 0.878272 63.5039C2.46589 53.2099 6.1881 43.3616 11.806 34.5908L47.6917 63.5039L61.596 74.707Z" fill="#F7BB38"/>
<path d="M19.2591 99.2988C20.0967 101.744 21.0609 104.144 22.1478 106.488L11.5599 115.02C5.68791 105.731 1.94042 95.2597 0.585303 84.3545C-0.27804 77.424 -0.179451 70.4074 0.878272 63.5039C2.46589 53.2099 6.1881 43.3616 11.806 34.5908L22.3529 43.0869C14.0862 60.7178 12.9772 80.8672 19.2591 99.2988Z" fill="#DBA12C"/>
<path d="M49.7806 74.707L37.807 84.3545L7.86851 108.475C4.08691 100.907 1.62386 92.7502 0.585303 84.3545C-0.27804 77.424 -0.179451 70.4074 0.878272 63.5039C2.07635 55.7032 4.50813 48.1429 8.08237 41.1064L35.8792 63.5039L49.7806 74.707Z" fill="#27273D"/>
<path d="M15.8197 84.3545C16.4506 89.4403 17.6051 94.4473 19.265 99.2959L7.86851 108.475C4.08691 100.907 1.62386 92.7502 0.585303 84.3545C-0.27804 77.424 -0.179451 70.4074 0.878272 63.5039C2.07635 55.7032 4.50813 48.1429 8.08237 41.1064L19.4203 50.2412C17.914 54.5515 16.8068 58.9911 16.1126 63.5039C15.0549 70.4074 14.9563 77.424 15.8197 84.3545Z" fill="#1C1C2B"/>
<path d="M125.629 35.8447C128.263 35.8447 130.398 33.7093 130.398 31.0752C130.398 28.4411 128.263 26.3057 125.629 26.3057C122.995 26.3057 120.859 28.4411 120.859 31.0752C120.859 33.7093 122.995 35.8447 125.629 35.8447Z" fill="#EA3D3D"/>
<path d="M118.603 27.4277C120.468 27.4277 121.98 25.9154 121.98 24.0498C121.98 22.1842 120.468 20.6719 118.603 20.6719C116.737 20.6719 115.225 22.1842 115.225 24.0498C115.225 25.9154 116.737 27.4277 118.603 27.4277Z" fill="#EA3D3D"/>
</g>
<defs>
<clipPath id="clip0_1532_19891">
<rect width="150" height="150" fill="white"/>
</clipPath>
</defs>
</svg>
