<?xml version="1.0" standalone="no"?>
<!DOCTYPE svg PUBLIC "-//W3C//DTD SVG 20010904//EN"
 "http://www.w3.org/TR/2001/REC-SVG-20010904/DTD/svg10.dtd">
<svg version="1.0" xmlns="http://www.w3.org/2000/svg"
 width="454.000000pt" height="454.000000pt" viewBox="0 0 454.000000 454.000000"
 preserveAspectRatio="xMidYMid meet">
<metadata>
Created by potrace 1.14, written by Peter Selinger 2001-2017
</metadata>
<g transform="translate(0.000000,454.000000) scale(0.100000,-0.100000)"
fill="#000000" stroke="none">
<path d="M1753 4511 c-26 -15 -167 -95 -313 -178 -146 -82 -272 -153 -280
-157 -8 -3 -112 -62 -230 -130 l-215 -123 -2 -437 c-2 -377 0 -437 12 -432 16
6 700 393 850 481 50 29 106 61 125 72 87 49 367 209 385 220 11 7 27 16 35
20 8 4 64 35 124 70 60 35 110 63 111 63 5 0 181 103 193 112 9 8 -8 23 -69
59 -45 27 -84 49 -85 49 -2 0 -49 27 -105 60 -55 33 -103 60 -106 60 -3 0 -17
8 -31 19 -15 10 -52 32 -82 49 -30 16 -90 50 -133 76 -43 25 -82 46 -87 46 -6
0 -10 4 -10 9 0 21 -42 17 -87 -8z"/>
<path d="M3375 4099 c-38 -23 -95 -56 -125 -74 -30 -18 -75 -43 -100 -57 -25
-14 -143 -82 -262 -151 -120 -70 -220 -127 -223 -127 -3 0 -18 -8 -33 -19 -24
-17 -182 -108 -822 -476 -113 -65 -268 -155 -345 -200 -77 -45 -160 -93 -185
-107 -51 -28 -287 -165 -310 -179 -8 -5 -69 -40 -135 -78 l-120 -69 -2 -1044
-1 -1044 90 -64 c132 -95 212 -151 260 -185 24 -16 55 -39 69 -50 14 -11 36
-27 48 -35 13 -8 61 -43 109 -77 47 -35 87 -63 87 -63 1 0 2 464 3 1031 0 567
4 1035 9 1039 7 6 306 180 443 258 25 14 113 64 195 112 208 120 542 313 590
340 22 12 45 26 50 30 6 4 32 20 59 34 27 15 210 120 405 234 196 113 369 213
384 221 16 9 36 21 45 26 37 22 209 121 237 136 l30 16 2 221 1 222 -91 53
c-51 30 -135 79 -188 111 -53 31 -98 56 -100 56 -2 0 -35 -19 -74 -41z"/>
<path d="M3595 2862 c-225 -134 -443 -263 -540 -320 -33 -19 -73 -43 -90 -53
-16 -10 -48 -29 -70 -41 -22 -12 -48 -27 -57 -33 -223 -132 -296 -176 -363
-215 -44 -26 -222 -131 -395 -233 -173 -103 -319 -188 -325 -190 -9 -3 -16
-847 -7 -874 3 -10 11 -8 31 6 14 10 80 49 146 88 66 38 183 107 260 153 77
45 154 91 170 100 17 10 104 62 195 115 91 54 179 106 195 115 17 10 116 68
220 130 105 62 278 165 385 228 273 161 399 236 442 261 l36 22 0 434 c0 324
-3 435 -11 434 -7 -1 -106 -57 -222 -127z"/>
</g>
</svg>
