<svg width="32" height="32" viewBox="0 0 32 32" fill="none" xmlns="http://www.w3.org/2000/svg">
<g clip-path="url(#clip0_235_1032)">
<path fill-rule="evenodd" clip-rule="evenodd" d="M25.4368 0H6.5632C2.944 0 0 2.944 0 6.5632V25.4368C0 29.056 2.944 32 6.5632 32H25.4368C29.056 32 32 29.056 32 25.4368V6.5632C32 2.944 29.056 0 25.4368 0ZM19.104 7.72161C18.9952 7.31841 18.736 6.98241 18.3744 6.77441C17.6288 6.34241 16.672 6.60161 16.24 7.34721L16 7.76321L15.76 7.34721C15.328 6.60161 14.3712 6.34561 13.6256 6.77441C12.88 7.20641 12.624 8.16321 13.0528 8.90881L14.1952 10.8864L9.98079 18.1888H6.9056C6.0448 18.1888 5.34399 18.8896 5.34399 19.7504C5.34399 20.6112 6.0448 21.312 6.9056 21.312H18.7712L16.9664 18.1856H13.5872L18.9472 8.90561C19.1552 8.54721 19.2096 8.12481 19.104 7.72161ZM22.0192 18.1888H25.0944C25.9552 18.1888 26.656 18.8896 26.6496 19.7536C26.6496 20.6144 25.9488 21.3152 25.088 21.3152H23.8176L24.848 23.0976C25.2768 23.8432 25.0208 24.8 24.2752 25.232C24.0352 25.3728 23.7696 25.4432 23.4976 25.4432C23.3632 25.4432 23.2256 25.424 23.0912 25.3888C22.688 25.28 22.352 25.0208 22.144 24.6592L16.72 15.264L18.5248 12.1376L22.0192 18.1888Z" fill="white"/>
<path d="M7.45283 22.5632L7.14564 23.0944C6.71364 23.84 6.97283 24.7968 7.71843 25.2288C7.96483 25.3696 8.23363 25.4368 8.49603 25.4368C9.03683 25.4368 9.56163 25.1552 9.85283 24.656L11.0624 22.56H7.45283V22.5632Z" fill="white"/>
</g>
<defs>
<clipPath id="clip0_235_1032">
<rect width="32" height="32" fill="white"/>
</clipPath>
</defs>
</svg>
