<svg width="32" height="32" viewBox="0 0 32 32" fill="none" xmlns="http://www.w3.org/2000/svg">
<path d="M21.1182 4.47289L22.7705 1.49104C22.7963 1.45232 22.8092 1.41359 22.8092 1.36196C22.8092 1.32323 22.8092 1.2716 22.7963 1.23287C22.7834 1.19415 22.7705 1.15542 22.7317 1.1167C22.7059 1.07797 22.6672 1.05216 22.6285 1.03925C22.5898 1.01343 22.551 1.00052 22.4994 1.00052C22.4607 1.00052 22.409 1.00052 22.3703 1.01343C22.3316 1.02634 22.2929 1.05216 22.2541 1.07797C22.2154 1.10379 22.1896 1.14252 22.1767 1.18124L20.5244 4.18891C19.1045 3.5693 17.5555 3.24659 16.0065 3.24659C14.4574 3.24659 12.9084 3.55639 11.4756 4.18891L9.81041 1.16833C9.77168 1.09088 9.69423 1.03925 9.61678 1.01343C9.52642 0.987615 9.43606 1.00052 9.35861 1.03925C9.28116 1.07797 9.22953 1.15542 9.20371 1.23287C9.17789 1.32323 9.1908 1.41359 9.22953 1.49104L10.8818 4.47289C9.30698 5.2474 7.97741 6.44788 7.048 7.91944C6.10569 9.40391 5.58935 11.1207 5.55063 12.8634H26.4365C26.4106 11.1078 25.8943 9.40391 24.952 7.91944C24.0226 6.44788 22.693 5.2474 21.1182 4.47289ZM2.33643 13.2893C1.71682 13.2893 1.12303 13.5346 0.684147 13.9735C0.24526 14.4124 0 15.0062 0 15.6387V25.3975C0 25.7073 0.0645421 26.0042 0.180718 26.2881C0.296894 26.5721 0.464703 26.8303 0.684147 27.0497C0.90359 27.2692 1.16176 27.437 1.44574 27.5532C1.72973 27.6693 2.03953 27.7339 2.33643 27.7339C2.64623 27.7339 2.94312 27.6693 3.22711 27.5532C3.51109 27.437 3.76926 27.2692 3.9887 27.0497C4.20815 26.8303 4.37596 26.5721 4.49213 26.2881C4.60831 26.0042 4.67285 25.6943 4.67285 25.3975V15.6387C4.67285 15.0191 4.42759 14.4253 3.9887 13.9864C3.54982 13.5475 2.95603 13.2893 2.33643 13.2893ZM29.6636 13.2893C29.044 13.2893 28.4502 13.5346 28.0113 13.9735C27.5724 14.4124 27.3271 15.0062 27.3271 15.6258V25.3845C27.3271 25.6943 27.3917 25.9912 27.5079 26.2752C27.624 26.5592 27.7919 26.8174 28.0113 27.0368C28.2307 27.2563 28.4889 27.4241 28.7729 27.5403C29.0569 27.6564 29.3667 27.721 29.6636 27.721C29.9605 27.721 30.2703 27.6564 30.5543 27.5403C30.8382 27.4241 31.0964 27.2563 31.3159 27.0368C31.5353 26.8174 31.7031 26.5592 31.8193 26.2752C31.9355 25.9912 32 25.6814 32 25.3845V15.6258C32 15.0062 31.7547 14.4124 31.3159 13.9735C30.877 13.5475 30.2832 13.2893 29.6636 13.2893Z" fill="white"/>
<path d="M10.6754 9.04241C11.153 9.04241 11.5532 8.65516 11.5532 8.16464C11.5532 7.68703 11.1659 7.28687 10.6754 7.28687C10.1978 7.28687 9.79761 7.67412 9.79761 8.16464C9.79761 8.65516 10.1849 9.04241 10.6754 9.04241Z" fill="white"/>
<path d="M20.3048 9.04241C20.7824 9.04241 21.1825 8.65516 21.1825 8.16464C21.1825 7.68703 20.7953 7.28687 20.3048 7.28687C19.8272 7.28687 19.427 7.67412 19.427 8.16464C19.4399 8.65516 19.8272 9.04241 20.3048 9.04241Z" fill="white"/>
<path d="M5.75735 29.5926C5.62826 29.2828 5.56372 28.9601 5.56372 28.6245V13.4829H26.4625V28.6245C26.4625 28.9601 26.3979 29.2828 26.2688 29.5926C26.1398 29.9024 25.959 30.1735 25.7267 30.4188C25.4943 30.664 25.2104 30.8447 24.9006 30.9609C24.5907 31.09 24.268 31.1546 23.9324 31.1546H22.2543H17.5686H14.4447H9.75896H8.08086C7.74525 31.1546 7.42253 31.09 7.11273 30.9609C6.80293 30.8318 6.53185 30.6511 6.28659 30.4188C6.06715 30.1735 5.87352 29.9024 5.75735 29.5926Z" fill="white"/>
</svg>
