<svg width="32" height="32" viewBox="0 0 32 32" fill="none" xmlns="http://www.w3.org/2000/svg">
<path d="M28.0227 1.06812C27.3101 0.355909 26.4548 0 25.4545 0H6.54515C5.54509 0 4.68903 0.355909 3.97681 1.06812C3.26476 1.7805 2.90869 2.63632 2.90869 3.63646V28.364C2.90869 29.3643 3.26476 30.2195 3.97681 30.9321C4.68903 31.6445 5.54509 32 6.54515 32H25.4544C26.4547 32 27.3101 31.6445 28.0227 30.9321C28.7349 30.2195 29.0912 29.3638 29.0912 28.364V3.63654C29.0912 2.63632 28.7341 1.78026 28.0227 1.06812ZM17.0226 30.114C16.735 30.4017 16.3939 30.5456 15.9998 30.5456C15.6056 30.5456 15.2648 30.4017 14.9769 30.114C14.6889 29.8259 14.5451 29.4848 14.5451 29.0914C14.5451 28.6975 14.6889 28.3559 14.9769 28.0687C15.2651 27.7805 15.6059 27.6361 15.9998 27.6361C16.3938 27.6361 16.7349 27.7804 17.0226 28.0687C17.3103 28.3558 17.4547 28.6974 17.4547 29.0914C17.4547 29.4848 17.3103 29.8256 17.0226 30.114ZM26.1817 25.4547C26.1817 25.6519 26.1093 25.8219 25.966 25.9663C25.8217 26.1107 25.6516 26.1821 25.4544 26.1821H6.54515C6.34821 26.1821 6.17778 26.1101 6.03386 25.9663C5.88993 25.8224 5.81797 25.6519 5.81797 25.4547V3.63654C5.81797 3.43952 5.88985 3.26901 6.03386 3.12516C6.17786 2.98116 6.34821 2.90928 6.54515 2.90928H25.4544C25.6516 2.90928 25.8216 2.98092 25.966 3.12516C26.1098 3.26901 26.1817 3.43952 26.1817 3.63654V25.4547Z" fill="white"/>
</svg>
