<svg width="73" height="72" viewBox="0 0 73 72" fill="none" xmlns="http://www.w3.org/2000/svg">
<g clip-path="url(#clip0_797_8405)">
<path d="M40.7833 10.0937C31.9688 7.73202 22.8736 12.982 20.5113 21.7977C19.3669 26.0682 19.9543 30.5289 22.165 34.3577C24.3756 38.1865 27.9449 40.9254 32.2154 42.0697C33.6415 42.4518 35.0887 42.6409 36.5264 42.6409C39.3945 42.6409 42.225 41.8886 44.7753 40.4162C48.6043 38.2056 51.3431 34.6363 52.4874 30.3658C54.8494 21.5501 49.5991 12.456 40.7833 10.0937ZM50.3139 29.7836C49.3253 33.4736 46.9587 36.5578 43.6502 38.4677C40.3417 40.378 36.4873 40.8852 32.7975 39.8965C29.1075 38.9079 26.0233 36.5413 24.1133 33.2328C22.2032 29.9245 21.6958 26.0701 22.6846 22.3801C24.3947 15.9975 30.188 11.7781 36.5027 11.7781C37.7244 11.7781 38.9661 11.9361 40.201 12.267C47.8183 14.3082 52.355 22.166 50.3139 29.7836ZM59.7163 20.5093C59.4638 20.1287 59.3636 19.7555 59.392 19.2994L59.6341 15.4176C59.7414 13.6948 58.8478 12.1471 57.3022 11.3787L53.8196 9.64747C53.4104 9.44398 53.137 9.17061 52.9336 8.76139L51.2025 5.27909C50.4341 3.73348 48.8889 2.83925 47.1634 2.94711L43.2819 3.18912C42.8257 3.21809 42.4526 3.11755 42.0717 2.8647L38.8311 0.714404C37.3927 -0.240018 35.6056 -0.240158 34.1676 0.714404L30.9269 2.86484C30.5462 3.11755 30.174 3.21809 29.7167 3.18912L25.8351 2.94725C24.114 2.84023 22.5645 3.73334 21.7961 5.27895L20.0649 8.76153C19.8614 9.17075 19.588 9.44413 19.1788 9.64761L15.6962 11.3788C14.1506 12.1472 13.2571 13.6949 13.3644 15.4179L13.6064 19.2994C13.6348 19.7556 13.5348 20.1288 13.2821 20.5096L11.1319 23.7499C10.1774 25.1884 10.1774 26.9756 11.1319 28.4137L13.2822 31.6543C13.5349 32.0351 13.6349 32.4083 13.6065 32.8645L13.3646 36.746C13.2571 38.469 14.1507 40.0166 15.6963 40.7851L19.1789 42.5163C19.5881 42.7198 19.8615 42.9932 20.065 43.4024L21.7962 46.885C22.0349 47.3648 22.3486 47.7816 22.719 48.1254L15.2333 64.1788C15.0292 64.6162 15.1271 65.1353 15.4764 65.4684C15.826 65.8017 16.349 65.8744 16.7763 65.65L26.2268 60.6803L28.4943 71.1141C28.5969 71.5858 28.9891 71.9396 29.4689 71.9931C29.5109 71.9978 29.5527 72.0002 29.5942 72.0002C30.0273 72.0002 30.4272 71.75 30.6133 71.3506L36.4993 58.7277L42.3853 71.3505C42.5715 71.7499 42.9713 72 43.4044 72C43.4459 72 43.4876 71.9978 43.5297 71.993C44.0095 71.9394 44.4016 71.5858 44.5042 71.114L46.7719 60.6801L56.2222 65.6498C56.6497 65.8748 57.1727 65.8016 57.5222 65.4683C57.8715 65.1351 57.9695 64.6161 57.7653 64.1786L50.2791 48.1243C50.6498 47.7809 50.9638 47.3645 51.2023 46.8847L52.9336 43.4021C53.137 42.9929 53.4104 42.7195 53.8196 42.516L57.3022 40.7848C58.8478 40.0164 59.7414 38.4687 59.6341 36.7458L59.392 32.8642C59.3636 32.408 59.4638 32.0348 59.7165 31.654L61.8666 28.4136C62.8212 26.9751 62.8212 25.1879 61.8666 23.7498L59.7163 20.5093ZM29.9844 67.3753L28.1114 58.7571C28.0369 58.4138 27.806 58.125 27.4875 57.9765C27.169 57.8279 26.7995 57.8368 26.4885 58.0003L18.6825 62.1051L24.7269 49.1427C25.0836 49.2126 25.4545 49.2403 25.8351 49.2164L29.7167 48.9744C30.1738 48.9463 30.5461 49.0461 30.9269 49.2988L34.1674 51.4491C34.8867 51.9264 35.6929 52.165 36.4993 52.1649C36.6991 52.1649 36.8991 52.15 37.0976 52.1207L29.9844 67.3753ZM54.316 62.1052L46.5102 58.0004C46.199 57.837 45.8296 57.828 45.5112 57.9766C45.1927 58.1251 44.962 58.4138 44.8873 58.7572L43.0143 67.3754L37.7406 56.066L40.3693 50.4287L42.0718 49.2989C42.4525 49.0464 42.8247 48.9451 43.2818 48.9747L47.1636 49.2167C47.5437 49.2399 47.9144 49.2118 48.271 49.1414L54.316 62.1052ZM59.9918 27.1698L57.8418 30.4102C57.3146 31.2043 57.0872 32.053 57.1465 33.0044L57.3886 36.886C57.4393 37.702 57.0328 38.4064 56.3007 38.7702L52.8181 40.5016C51.9647 40.926 51.3435 41.5471 50.919 42.4006L49.1876 45.8832C48.8238 46.6151 48.1198 47.0229 47.3036 46.971L43.4218 46.729C42.4698 46.6688 41.6217 46.8971 40.8279 47.4241L37.5873 49.5744C36.906 50.0262 36.0929 50.0265 35.4115 49.5744L32.171 47.4243C31.4587 46.9515 30.7027 46.7197 29.8678 46.7197C29.7718 46.7197 29.6749 46.7227 29.5767 46.7289L25.6952 46.9709C24.8792 47.0226 24.1748 46.6151 23.811 45.883L22.0796 42.4004C21.6552 41.547 21.034 40.9258 20.1806 40.5013L16.698 38.7699C15.9659 38.4061 15.5592 37.7017 15.6103 36.8858L15.8522 33.0042C15.9114 32.0528 15.6841 31.2043 15.1572 30.4102L13.0069 27.1695C12.5548 26.4883 12.5548 25.6751 13.0069 24.9937L15.1572 21.7532C15.6841 20.9591 15.9114 20.1104 15.8522 19.1591L15.6101 15.2775C15.5594 14.4615 15.9659 13.7571 16.698 13.3933L20.1806 11.6619C21.034 11.2375 21.6552 10.6164 22.0797 9.76292L23.8111 6.2802C24.175 5.54839 24.8787 5.14283 25.6952 5.19261L29.5769 5.43448C30.5282 5.49383 31.3766 5.26644 32.1708 4.73951L35.4117 2.58908C36.0927 2.13697 36.9063 2.13697 37.5873 2.58908L40.8279 4.73937C41.6221 5.26629 42.4701 5.49481 43.422 5.43448L47.3035 5.19247C48.1205 5.14086 48.8238 5.54839 49.1877 6.28034L50.9191 9.76292C51.3435 10.6164 51.9647 11.2375 52.8181 11.6621L56.3007 13.3934C57.0328 13.7572 57.4395 14.4616 57.3886 15.2774L57.1465 19.1592C57.0872 20.1107 57.3146 20.9592 57.8417 21.7532L59.9918 24.9939C60.4438 25.6752 60.4438 26.4884 59.9918 27.1698ZM37.5174 15.0203C37.3321 14.6256 36.9352 14.3736 36.4993 14.3736C36.0633 14.3736 35.6665 14.6256 35.4812 15.0203L32.4915 21.3836L25.5159 22.2604C25.0833 22.3148 24.7211 22.6144 24.5864 23.0291C24.4517 23.4436 24.5687 23.899 24.8868 24.1972L30.0146 29.0069L28.693 35.9121C28.6111 36.3405 28.7839 36.7774 29.1367 37.0338C29.4893 37.29 29.9584 37.3195 30.3406 37.1091L36.4993 33.7181L42.6582 37.1089C42.8278 37.2022 43.0146 37.2484 43.2006 37.2484C43.4338 37.2484 43.666 37.1759 43.862 37.0335C44.2148 36.7773 44.3876 36.3402 44.3057 35.9119L42.9841 29.0066L48.112 24.197C48.43 23.8987 48.547 23.4435 48.4123 23.0288C48.2776 22.6141 47.9154 22.3145 47.4828 22.2601L40.5072 21.3833L37.5174 15.0203ZM40.9931 27.7894C40.7118 28.0532 40.5853 28.4427 40.6577 28.8214L41.6456 33.983L37.0418 31.4486C36.8729 31.3556 36.686 31.3091 36.4993 31.3091C36.3125 31.3091 36.1256 31.3556 35.9568 31.4486L31.353 33.983L32.3409 28.8214C32.4134 28.4427 32.2867 28.0532 32.0055 27.7894L28.1723 24.1941L33.3867 23.5387C33.7693 23.4906 34.1005 23.2498 34.2645 22.9008L36.4993 18.1442L38.7341 22.9007C38.8981 23.2497 39.2292 23.4905 39.6119 23.5385L44.8263 24.194L40.9931 27.7894Z" fill="white"/>
</g>
<defs>
<clipPath id="clip0_797_8405">
<rect width="72" height="72" fill="white" transform="translate(0.5)"/>
</clipPath>
</defs>
</svg>
