<svg width="50" height="51" viewBox="0 0 50 51" fill="none" xmlns="http://www.w3.org/2000/svg">
<g clip-path="url(#clip0_192_2105)">
<path d="M46.6672 0.5H3.33277C1.49213 0.5 0 1.99213 0 3.83277V47.1672C0 49.0079 1.49213 50.5 3.33277 50.5H46.6672C48.5079 50.5 50 49.0079 50 47.1672V3.83277C50 1.99213 48.5079 0.5 46.6672 0.5Z" fill="#1E1F1F"/>
<path d="M3.33278 2.16724H46.6655C47.5862 2.16724 48.3328 2.91386 48.3328 3.83447V7.16724H1.66724V3.83447C1.66724 2.91386 2.41386 2.16724 3.33447 2.16724H3.33278Z" fill="white"/>
<path d="M46.6672 48.8328H3.33277C2.41216 48.8328 1.66554 48.0862 1.66554 47.1655V8.83276H48.3328V47.1655C48.3328 48.0862 47.5861 48.8328 46.6655 48.8328H46.6672Z" fill="white"/>
<path d="M4.16723 5.50001H5C5.45946 5.50001 5.83277 5.1267 5.83277 4.66724C5.83277 4.20778 5.45946 3.83447 5 3.83447H4.16723C3.70777 3.83447 3.33446 4.20778 3.33446 4.66724C3.33446 5.1267 3.70777 5.50001 4.16723 5.50001Z" fill="#1E1F1F"/>
<path d="M8.33277 5.50001H9.16554C9.625 5.50001 9.99831 5.1267 9.99831 4.66724C9.99831 4.20778 9.625 3.83447 9.16554 3.83447H8.33277C7.87331 3.83447 7.5 4.20778 7.5 4.66724C7.5 5.1267 7.87331 5.50001 8.33277 5.50001Z" fill="#1E1F1F"/>
<path d="M12.5 5.50001H13.3328C13.7922 5.50001 14.1655 5.1267 14.1655 4.66724C14.1655 4.20778 13.7922 3.83447 13.3328 3.83447H12.5C12.0405 3.83447 11.6672 4.20778 11.6672 4.66724C11.6672 5.1267 12.0405 5.50001 12.5 5.50001Z" fill="#1E1F1F"/>
<path d="M40.8328 5.50001H45.8328C46.2922 5.50001 46.6656 5.1267 46.6656 4.66724C46.6656 4.20778 46.2922 3.83447 45.8328 3.83447H40.8328C40.3733 3.83447 40 4.20778 40 4.66724C40 5.1267 40.3733 5.50001 40.8328 5.50001Z" fill="#1E1F1F"/>
<path d="M40.8328 38H9.16724C7.78717 38 6.66724 39.1199 6.66724 40.5C6.66724 41.8801 7.78717 43 9.16724 43H40.8345C42.2145 43 43.3345 41.8801 43.3345 40.5C43.3345 39.1199 42.2145 38 40.8345 38H40.8328Z" fill="#1E1F1F"/>
<path d="M40.8328 41.3328H9.16723C8.70777 41.3328 8.33446 40.9595 8.33446 40.5C8.33446 40.0405 8.70777 39.6672 9.16723 39.6672H40.8344C41.2939 39.6672 41.6672 40.0405 41.6672 40.5C41.6672 40.9595 41.2939 41.3328 40.8344 41.3328H40.8328Z" fill="#2EEECE"/>
<path d="M9.46271 32.9015C9.2546 32.9015 9.04936 32.8685 8.8513 32.801C8.64175 32.7321 8.45087 32.6245 8.28438 32.4838C8.10784 32.3346 7.96576 32.148 7.86242 31.9284C7.75908 31.7074 7.70598 31.4577 7.70598 31.1864V21.4268C7.70598 21.1842 7.75334 20.9532 7.8452 20.7364C7.93705 20.5226 8.06479 20.336 8.2241 20.1796C8.38054 20.0274 8.56281 19.9069 8.76518 19.8208C8.97473 19.7318 9.19862 19.6859 9.42826 19.6859H15.1505C15.3816 19.6859 15.594 19.7289 15.7806 19.815C15.9629 19.8997 16.1208 20.0145 16.2499 20.158C16.3762 20.3001 16.4724 20.4623 16.5327 20.6403C16.5886 20.8053 16.6174 20.9776 16.6174 21.1527C16.6174 21.3278 16.5901 21.4899 16.5341 21.655C16.4724 21.8387 16.3777 22.0038 16.2499 22.1473C16.1222 22.2908 15.9643 22.4071 15.7806 22.4903C15.594 22.5764 15.3816 22.6195 15.1505 22.6195H11.228V24.6274H14.9195C15.1491 24.6274 15.3615 24.6704 15.5481 24.7565C15.7318 24.8412 15.8897 24.956 16.0174 25.0996C16.1452 25.2431 16.2413 25.4081 16.3016 25.5904C16.3561 25.7555 16.3848 25.9248 16.3848 26.0927C16.3848 26.2607 16.3576 26.4386 16.3016 26.6037C16.2399 26.7874 16.1452 26.9524 16.0174 27.0945C15.8883 27.2381 15.7304 27.3543 15.5481 27.4376C15.3615 27.5237 15.1505 27.5667 14.918 27.5667H11.2266V31.1835C11.2266 31.4548 11.1735 31.7045 11.0702 31.9255C10.9668 32.1466 10.8247 32.3331 10.6482 32.481C10.4789 32.6231 10.2851 32.7307 10.0712 32.7996C9.87318 32.8642 9.66651 32.8972 9.45984 32.8972L9.46271 32.9015Z" fill="#2EEECE"/>
<path d="M15.152 20.3305C15.2898 20.3305 15.4103 20.3534 15.5122 20.4008C15.6141 20.4482 15.7003 20.5099 15.7691 20.5874C15.838 20.6649 15.8897 20.7524 15.9227 20.8486C15.9557 20.9447 15.9729 21.0467 15.9729 21.1514C15.9729 21.2505 15.9557 21.3509 15.9227 21.45C15.8897 21.549 15.838 21.638 15.7691 21.7155C15.7003 21.793 15.6141 21.8547 15.5122 21.9021C15.4103 21.9494 15.2898 21.9724 15.152 21.9724H10.5836V25.272H14.9209C15.0587 25.272 15.1793 25.2949 15.2812 25.3423C15.3831 25.3897 15.4692 25.4514 15.5381 25.5289C15.607 25.6064 15.6586 25.6954 15.6916 25.7944C15.7247 25.8934 15.7419 25.9939 15.7419 26.0929C15.7419 26.1977 15.7247 26.2996 15.6916 26.4001C15.6586 26.4991 15.607 26.5881 15.5381 26.6656C15.4692 26.7431 15.3831 26.8048 15.2812 26.8522C15.1793 26.8995 15.0587 26.9225 14.9209 26.9225H10.5836V31.1852C10.5836 31.3617 10.5521 31.5181 10.4889 31.653C10.4258 31.7879 10.3411 31.8999 10.2363 31.9889C10.1315 32.0779 10.011 32.1439 9.87606 32.1884C9.74115 32.2329 9.60337 32.2544 9.46559 32.2544C9.3278 32.2544 9.19146 32.2329 9.05942 32.1884C8.92737 32.1439 8.80825 32.0779 8.70348 31.9889C8.5987 31.8999 8.51403 31.7879 8.45087 31.653C8.38772 31.5181 8.35615 31.3617 8.35615 31.1852V21.4256C8.35615 21.2705 8.38485 21.1256 8.4437 20.9907C8.50111 20.8558 8.58005 20.7395 8.68051 20.6419C8.77954 20.5458 8.89436 20.4697 9.02497 20.4137C9.15414 20.3592 9.29192 20.3305 9.43545 20.3305H15.1577M15.1577 19.0388H9.43545C9.11826 19.0388 8.80968 19.1019 8.51977 19.2253C8.24277 19.343 7.99447 19.5081 7.78062 19.7162C7.55816 19.9329 7.38306 20.1898 7.25676 20.4812C7.12902 20.7783 7.06587 21.0954 7.06587 21.4256V31.1852C7.06587 31.5526 7.13907 31.8956 7.28403 32.2027C7.42612 32.507 7.62561 32.7682 7.87535 32.9778C8.10355 33.1701 8.3662 33.3179 8.65468 33.4126C8.91733 33.5002 9.19146 33.5447 9.46989 33.5447C9.74833 33.5447 10.0182 33.5002 10.2822 33.4141C10.575 33.3179 10.8405 33.1715 11.0731 32.9763C11.3213 32.7668 11.5208 32.507 11.6629 32.2013C11.8079 31.8927 11.8811 31.5511 11.8811 31.1837V28.2128H14.9267C15.251 28.2128 15.5539 28.1496 15.8266 28.0248C16.0906 27.9042 16.3203 27.7348 16.5083 27.5239C16.6949 27.3143 16.8341 27.0732 16.9231 26.8062C17.0006 26.5752 17.0393 26.3341 17.0393 26.0915C17.0393 25.8489 17.0006 25.615 16.9231 25.3839C16.8341 25.117 16.6949 24.8759 16.5083 24.6677C16.3188 24.4568 16.0906 24.2888 15.8266 24.1669C15.5524 24.042 15.251 23.9788 14.9267 23.9788H11.8811V23.2627H15.1577C15.4821 23.2627 15.7849 23.1995 16.0576 23.0746C16.3217 22.9541 16.5499 22.7862 16.7379 22.5752C16.9245 22.3656 17.0652 22.1245 17.1541 21.8576C17.2316 21.6265 17.2704 21.3882 17.2704 21.15C17.2704 20.9117 17.2302 20.6606 17.1513 20.4281C17.0623 20.1683 16.9231 19.9315 16.7394 19.7262C16.5499 19.5153 16.3217 19.3473 16.0576 19.2268C15.7835 19.1019 15.4807 19.0388 15.1577 19.0388Z" fill="#1E1F1F"/>
<path d="M20.6891 32.8846C20.481 32.8846 20.2758 32.8516 20.0777 32.7841C19.8667 32.7138 19.6744 32.6047 19.5079 32.4612C19.3386 32.3148 19.2008 32.1325 19.0989 31.9201C18.9941 31.7005 18.941 31.4508 18.941 31.1767V21.3841C18.941 21.1128 18.9941 20.8631 19.0974 20.6406C19.2008 20.421 19.3414 20.2344 19.518 20.0852C19.6859 19.9445 19.8768 19.8369 20.0863 19.768C20.2858 19.702 20.491 19.6689 20.6977 19.6689C20.9044 19.6689 21.1096 19.702 21.3077 19.768C21.5172 19.8383 21.7096 19.9445 21.876 20.0852C22.0526 20.2344 22.1947 20.421 22.298 20.6406C22.4013 20.8631 22.4544 21.1128 22.4544 21.3841V31.1767C22.4544 31.4494 22.4013 31.6991 22.2966 31.9201C22.1932 32.1354 22.0526 32.3191 21.8775 32.4669C21.7096 32.609 21.5144 32.7167 21.3005 32.7856C21.1025 32.8501 20.8972 32.8832 20.6905 32.8832L20.6891 32.8846Z" fill="#2EEECE"/>
<path d="M20.6977 20.3145C20.8355 20.3145 20.9719 20.3361 21.1039 20.3806C21.2359 20.4251 21.3551 20.4911 21.4598 20.5801C21.5646 20.669 21.6493 20.781 21.7124 20.9159C21.7756 21.0508 21.8072 21.2073 21.8072 21.3838V31.1764C21.8072 31.3529 21.7756 31.5079 21.7124 31.6414C21.6493 31.7735 21.5646 31.8854 21.4598 31.973C21.3551 32.0619 21.2345 32.128 21.0996 32.1724C20.9647 32.2169 20.8269 32.2385 20.6891 32.2385C20.5513 32.2385 20.415 32.2169 20.2829 32.1724C20.1509 32.128 20.0332 32.0619 19.9299 31.973C19.828 31.884 19.7447 31.7735 19.6816 31.6414C19.6184 31.5094 19.5868 31.3544 19.5868 31.1764V21.3838C19.5868 21.2073 19.6184 21.0508 19.6816 20.9159C19.7447 20.781 19.8294 20.669 19.9342 20.5801C20.0389 20.4911 20.1581 20.4251 20.2901 20.3806C20.4222 20.3361 20.5585 20.3145 20.6963 20.3145M20.6963 19.0228C20.4207 19.0228 20.1466 19.0673 19.8825 19.1549C19.594 19.251 19.3314 19.3974 19.1017 19.5912C18.8534 19.8007 18.6539 20.0619 18.5119 20.3662C18.3683 20.6733 18.2937 21.0164 18.2937 21.3824V31.175C18.2937 31.5453 18.3683 31.8897 18.5162 32.1969C18.6568 32.4896 18.8477 32.7437 19.086 32.9489C19.3156 33.147 19.5797 33.2977 19.8739 33.3953C20.1365 33.4828 20.4107 33.5273 20.6891 33.5273C20.9675 33.5273 21.2374 33.4828 21.5015 33.3967C21.7942 33.3005 22.0598 33.1542 22.2923 32.9575C22.5377 32.7508 22.7343 32.4939 22.8778 32.1954C23.0257 31.8868 23.1003 31.5424 23.1003 31.1735V21.3809C23.1003 21.0149 23.0271 20.6719 22.8836 20.3648C22.7401 20.0591 22.542 19.7993 22.2937 19.5897C22.0626 19.396 21.8 19.2482 21.5129 19.1534C21.2474 19.0659 20.9733 19.02 20.6977 19.02L20.6963 19.0228Z" fill="#1E1F1F"/>
<path d="M26.1947 32.9086C25.9909 32.9086 25.7899 32.8684 25.5991 32.7924C25.4096 32.7177 25.2359 32.6101 25.0867 32.4752C24.9345 32.3374 24.8126 32.1752 24.725 31.9944C24.6288 31.7992 24.5815 31.5882 24.5815 31.3672C24.5815 31.0529 24.6863 30.7472 24.8944 30.4601L28.0591 26.1286L25.1312 22.1573C24.9331 21.8932 24.8312 21.599 24.8312 21.2846C24.8312 21.0521 24.8872 20.8282 24.9963 20.6201C25.0982 20.4264 25.2359 20.2585 25.4082 20.1164C25.5646 19.9886 25.7412 19.8853 25.9349 19.8092C26.1445 19.726 26.364 19.6844 26.5879 19.6844C26.8678 19.6844 27.1405 19.7518 27.3988 19.8853C27.6644 20.0231 27.894 20.2369 28.082 20.5225L30.3023 23.7532L32.5901 20.5139C32.7767 20.2326 33.002 20.0216 33.2575 19.8896C33.5101 19.759 33.7713 19.693 34.0354 19.693C34.2449 19.693 34.4487 19.7332 34.6425 19.8107C34.8262 19.8853 34.9927 19.9872 35.1376 20.1149C35.2912 20.2498 35.4146 20.4092 35.5051 20.5886C35.6027 20.7837 35.6529 20.9947 35.6529 21.2172C35.6529 21.3708 35.6256 21.5272 35.5725 21.6836C35.5194 21.8358 35.439 21.985 35.3328 22.1271L32.3432 26.1314L35.4476 30.407C35.6471 30.6912 35.7447 30.984 35.7447 31.2839C35.7447 31.525 35.6859 31.7547 35.5696 31.9671C35.4677 32.1537 35.3314 32.3187 35.1663 32.458C35.0085 32.5914 34.8248 32.6991 34.6238 32.778C34.4143 32.8598 34.1976 32.9 33.9794 32.9C33.711 32.9 33.4498 32.8354 33.2015 32.7091C32.9446 32.5785 32.7221 32.3704 32.5384 32.0905L30.1114 28.5699L27.6428 32.1092C27.4606 32.3776 27.2381 32.5843 26.9869 32.7177C26.7458 32.844 26.4946 32.9086 26.2377 32.9086C26.2248 32.9086 26.2119 32.9086 26.1976 32.9086H26.1947Z" fill="#2EEECE"/>
<path d="M26.5865 20.3303C26.763 20.3303 26.9353 20.3734 27.1003 20.4595C27.2668 20.5456 27.4132 20.6848 27.5395 20.8786L30.2923 24.8843L33.1197 20.8786C33.2474 20.6848 33.391 20.547 33.5503 20.4638C33.711 20.3805 33.8703 20.3389 34.0311 20.3389C34.1588 20.3389 34.2794 20.3619 34.3956 20.4093C34.5119 20.4566 34.6152 20.5198 34.7071 20.6001C34.7989 20.6805 34.8707 20.7724 34.9223 20.8786C34.9754 20.9833 35.0013 21.0967 35.0013 21.2187C35.0013 21.302 34.9855 21.3881 34.9554 21.4756C34.9252 21.5646 34.8764 21.6522 34.8104 21.7412L31.5352 26.1272L34.918 30.7874C35.0343 30.9539 35.0917 31.119 35.0917 31.2855C35.0917 31.4175 35.0601 31.5424 34.997 31.6586C34.9338 31.7749 34.8491 31.8768 34.7444 31.9658C34.6396 32.0548 34.519 32.1251 34.3841 32.1767C34.2492 32.2299 34.1114 32.2557 33.9737 32.2557C33.8072 32.2557 33.6464 32.2155 33.4885 32.1351C33.3307 32.0548 33.1915 31.9213 33.0695 31.7333L30.1086 27.4376L27.1075 31.7419C26.9798 31.9299 26.8377 32.0648 26.6798 32.148C26.532 32.2255 26.3827 32.2643 26.232 32.2643C26.222 32.2643 26.2119 32.2643 26.2019 32.2643C26.0741 32.2643 25.9521 32.2413 25.833 32.194C25.7139 32.1466 25.6091 32.082 25.5173 31.9988C25.4254 31.9155 25.3536 31.8208 25.302 31.7132C25.2489 31.6055 25.223 31.4907 25.223 31.3687C25.223 31.1922 25.2862 31.0156 25.4139 30.8377L28.8556 26.1272L25.6464 21.7742C25.5302 21.6192 25.4728 21.457 25.4728 21.2847C25.4728 21.157 25.5029 21.0365 25.5646 20.9202C25.6249 20.8039 25.7081 20.7035 25.8129 20.6174C25.9177 20.5312 26.0368 20.4624 26.1689 20.4107C26.3009 20.3576 26.4401 20.3318 26.5836 20.3318M26.5836 19.04C26.2779 19.04 25.978 19.0974 25.6938 19.2094C25.4369 19.3113 25.2029 19.4476 24.9948 19.617C24.7537 19.8136 24.56 20.0504 24.4193 20.3217C24.2614 20.6231 24.181 20.9475 24.181 21.2862C24.181 21.734 24.3289 22.1689 24.6102 22.5449L27.2539 26.1315L24.3719 30.0756C24.3719 30.0756 24.3676 30.0813 24.3662 30.0842C24.0791 30.4846 23.9328 30.9166 23.9328 31.3687C23.9328 31.6888 24.0031 31.9945 24.1423 32.2801C24.2657 32.5341 24.4365 32.7623 24.6504 32.9546C24.857 33.1427 25.0967 33.2919 25.3608 33.3953C25.6235 33.4986 25.899 33.5531 26.1818 33.556C26.199 33.556 26.2162 33.556 26.232 33.556C26.5937 33.556 26.9467 33.467 27.2812 33.2905C27.6256 33.1097 27.9241 32.8341 28.171 32.4738L30.1028 29.7053L31.9973 32.4537C32.2413 32.8255 32.547 33.1068 32.9044 33.2876C33.2431 33.4598 33.6034 33.5474 33.9751 33.5474C34.2736 33.5474 34.5693 33.4914 34.8535 33.3809C35.1204 33.2776 35.3644 33.134 35.5782 32.9532C35.805 32.7623 35.9916 32.5356 36.1322 32.2786C36.3016 31.9701 36.3863 31.6357 36.3863 31.2855C36.3863 30.8563 36.2456 30.4286 35.9787 30.0469C35.9744 30.0411 35.9701 30.0354 35.9658 30.0282L33.1412 26.1373L35.8481 22.5133C35.993 22.3196 36.105 22.11 36.1796 21.8947C36.2571 21.6708 36.2959 21.4426 36.2959 21.2187C36.2959 20.8958 36.2241 20.5872 36.0806 20.3016C35.9528 20.0461 35.7777 19.8208 35.5625 19.6314C35.3615 19.4548 35.1333 19.3142 34.8836 19.2137C34.6123 19.1046 34.3267 19.0487 34.0339 19.0487C33.6665 19.0487 33.3048 19.1391 32.9589 19.317C32.6073 19.4993 32.303 19.7792 32.0547 20.1495L30.3066 22.6253L28.6102 20.1581C28.3619 19.7849 28.0533 19.5007 27.6931 19.3142C27.3429 19.1333 26.9697 19.0415 26.5851 19.0415L26.5836 19.04Z" fill="#1E1F1F"/>
<path d="M39.7763 32.8844C39.5682 32.8844 39.363 32.8514 39.1649 32.7854C38.9539 32.7151 38.7616 32.606 38.5951 32.4625C38.4258 32.3175 38.288 32.1352 38.1861 31.9214C38.0813 31.7018 38.0268 31.4521 38.0268 31.1779V21.3853C38.0268 21.1141 38.0799 20.8629 38.1832 20.6419C38.2866 20.4223 38.4272 20.2357 38.6037 20.0864C38.7717 19.9458 38.9626 19.8381 39.1721 19.7693C39.3716 19.7032 39.5768 19.6702 39.7835 19.6702C39.9902 19.6702 40.1954 19.7032 40.3935 19.7693C40.603 19.8396 40.7954 19.9458 40.9618 20.0864C41.1384 20.2357 41.2805 20.4223 41.3838 20.6419C41.4886 20.8643 41.5402 21.1141 41.5402 21.3853V31.1779C41.5402 31.4506 41.4871 31.7004 41.3824 31.92C41.279 32.1367 41.1369 32.3204 40.9618 32.4682C40.7939 32.6103 40.6002 32.718 40.3863 32.7868C40.1882 32.8514 39.9816 32.8844 39.7749 32.8844H39.7763Z" fill="#2EEECE"/>
<path d="M39.7849 20.3145C39.9227 20.3145 40.0591 20.3361 40.1911 20.3806C40.3232 20.4251 40.4423 20.4911 40.547 20.5801C40.6518 20.669 40.7365 20.781 40.7997 20.9159C40.8628 21.0508 40.8944 21.2073 40.8944 21.3838V31.1764C40.8944 31.3529 40.8628 31.5079 40.7997 31.6414C40.7365 31.7735 40.6518 31.8854 40.547 31.973C40.4423 32.0619 40.3217 32.128 40.1868 32.1724C40.0519 32.2169 39.9141 32.2385 39.7763 32.2385C39.6385 32.2385 39.5022 32.2169 39.3702 32.1724C39.2381 32.128 39.1204 32.0619 39.0171 31.973C38.9152 31.884 38.8319 31.7735 38.7688 31.6414C38.7056 31.5094 38.6741 31.3544 38.6741 31.1764V21.3838C38.6741 21.2073 38.7056 21.0508 38.7688 20.9159C38.8319 20.781 38.9166 20.669 39.0214 20.5801C39.1262 20.4911 39.2453 20.4251 39.3773 20.3806C39.5094 20.3361 39.6457 20.3145 39.7835 20.3145M39.7835 19.0228C39.5079 19.0228 39.2338 19.0673 38.9697 19.1549C38.6812 19.251 38.4186 19.3974 38.189 19.5912C37.9407 19.8007 37.7412 20.0619 37.5991 20.3662C37.4556 20.6733 37.3809 21.0164 37.3809 21.3824V31.175C37.3809 31.5453 37.4556 31.8897 37.6034 32.1969C37.744 32.4896 37.9349 32.7437 38.1732 32.9489C38.4028 33.147 38.6669 33.2977 38.9611 33.3953C39.2238 33.4828 39.4979 33.5273 39.7763 33.5273C40.0548 33.5273 40.3246 33.4828 40.5887 33.3967C40.8815 33.3005 41.1484 33.1542 41.3795 32.9575C41.6249 32.7508 41.8215 32.4939 41.9651 32.1954C42.1129 31.8868 42.1875 31.5438 42.1875 31.1735V21.3809C42.1875 21.0149 42.1143 20.6719 41.9708 20.3648C41.8273 20.0591 41.6292 19.7993 41.3809 19.5897C41.1498 19.396 40.8872 19.2482 40.6002 19.1534C40.3346 19.0659 40.0605 19.02 39.7849 19.02L39.7835 19.0228Z" fill="#1E1F1F"/>
</g>
<defs>
<clipPath id="clip0_192_2105">
<rect width="50" height="50" fill="white" transform="translate(0 0.5)"/>
</clipPath>
</defs>
</svg>
