<svg width="50" height="51" viewBox="0 0 50 51" fill="none" xmlns="http://www.w3.org/2000/svg">
<g clip-path="url(#clip0_192_2085)">
<path d="M44.9764 10.5158C47.7414 10.5242 49.9906 8.28906 49.999 5.52353C50.0083 2.758 47.7736 0.508344 45.0086 0.500023C42.2436 0.491703 39.9944 2.7268 39.9861 5.49233C39.9819 6.70712 40.4197 7.88239 41.2183 8.79765L33.9964 14.5762C31.6869 12.675 28.8303 11.559 25.8438 11.3905V7.90215C27.6231 7.44244 28.6931 5.62753 28.2335 3.84799C27.7738 2.06844 25.9593 0.998213 24.1801 1.45792C22.4008 1.91763 21.3308 3.73254 21.7904 5.51209C22.093 6.68424 23.0081 7.59949 24.1801 7.90215V11.3905C21.1936 11.559 18.337 12.675 16.0275 14.5762L8.80455 8.79765C10.6118 6.71648 10.3904 3.56301 8.30958 1.75434C6.22776 -0.0532904 3.07488 0.169283 1.26759 2.25045C-0.539705 4.33162 -0.318213 7.48509 1.76256 9.29376C3.35564 10.6781 5.64647 10.91 7.486 9.87411L14.8067 15.7297C12.4867 18.1478 11.1058 21.3158 10.9113 24.6617H7.42361C6.96399 22.8822 5.14942 21.812 3.3702 22.2717C1.59099 22.7314 0.520961 24.5463 0.980583 26.3258C1.4402 28.1054 3.25478 29.1756 5.03399 28.7159C6.20592 28.4132 7.12101 27.498 7.42361 26.3258H10.9113C11.1047 29.6717 12.4846 32.8387 14.8036 35.2579L7.48288 41.1134C5.07039 39.751 2.01005 40.6038 0.648865 43.0168C-0.713363 45.4297 0.139329 48.4906 2.55182 49.8521C4.96432 51.2135 8.02465 50.3617 9.38584 47.9487C10.4299 46.0985 10.1959 43.7916 8.80143 42.1889L16.0264 36.4103C18.336 38.3115 21.1925 39.4275 24.179 39.596V43.0844C22.3998 43.5441 21.3298 45.359 21.7894 47.1385C22.249 48.9181 24.0636 49.9883 25.8428 49.5286C27.622 49.0689 28.692 47.254 28.2324 45.4744C27.9298 44.3023 27.0147 43.387 25.8428 43.0844V39.596C28.8293 39.4275 31.6858 38.3115 33.9954 36.4103L41.2183 42.1889C39.411 44.27 39.6325 47.4235 41.7133 49.2322C43.7941 51.0398 46.9469 50.8183 48.7553 48.7371C50.5626 46.6559 50.3411 43.5025 48.2603 41.6938C46.6672 40.3095 44.3764 40.0775 42.5369 41.1134L35.2162 35.2579C37.5361 32.8397 38.9171 29.6717 39.1115 26.3258H42.5992C43.0589 28.1054 44.8734 29.1756 46.6527 28.7159C48.4319 28.2562 49.5019 26.4413 49.0423 24.6617C48.5826 22.8822 46.7681 21.812 44.9889 22.2717C43.8169 22.5743 42.9018 23.4896 42.5992 24.6617H39.1115C38.9181 21.3158 37.5382 18.1489 35.2193 15.7297L42.54 9.87411C43.2835 10.2953 44.1227 10.5158 44.9774 10.5169L44.9764 10.5158Z" fill="#1E1F1F"/>
<path d="M19.1877 27.1568H18.3558C17.8961 27.1568 17.5239 26.7845 17.5239 26.3248V24.6607C17.5239 24.201 17.8961 23.8286 18.3558 23.8286H19.1877V27.1568Z" fill="#1E1F1F"/>
<path d="M5.04544 8.85172C6.88321 8.85172 8.37302 7.36163 8.37302 5.52351C8.37302 3.6854 6.88321 2.19531 5.04544 2.19531C3.20767 2.19531 1.71786 3.6854 1.71786 5.52351C1.71786 7.36163 3.20767 8.85172 5.04544 8.85172Z" fill="white"/>
<path d="M4.21353 27.1568C5.13242 27.1568 5.87732 26.4118 5.87732 25.4927C5.87732 24.5737 5.13242 23.8286 4.21353 23.8286C3.29465 23.8286 2.54974 24.5737 2.54974 25.4927C2.54974 26.4118 3.29465 27.1568 4.21353 27.1568Z" fill="#2EEECE"/>
<path d="M5.04544 48.7901C6.88321 48.7901 8.37302 47.3 8.37302 45.4619C8.37302 43.6238 6.88321 42.1337 5.04544 42.1337C3.20767 42.1337 1.71786 43.6238 1.71786 45.4619C1.71786 47.3 3.20767 48.7901 5.04544 48.7901Z" fill="white"/>
<path d="M44.9764 48.7901C46.8142 48.7901 48.304 47.3 48.304 45.4619C48.304 43.6238 46.8142 42.1337 44.9764 42.1337C43.1386 42.1337 41.6488 43.6238 41.6488 45.4619C41.6488 47.3 43.1386 48.7901 44.9764 48.7901Z" fill="white"/>
<path d="M45.8083 27.1568C46.7272 27.1568 47.4721 26.4118 47.4721 25.4927C47.4721 24.5737 46.7272 23.8286 45.8083 23.8286C44.8894 23.8286 44.1445 24.5737 44.1445 25.4927C44.1445 26.4118 44.8894 27.1568 45.8083 27.1568Z" fill="#2EEECE"/>
<path d="M25.0109 6.35555C25.9298 6.35555 26.6747 5.6105 26.6747 4.69144C26.6747 3.77239 25.9298 3.02734 25.0109 3.02734C24.092 3.02734 23.3471 3.77239 23.3471 4.69144C23.3471 5.6105 24.092 6.35555 25.0109 6.35555Z" fill="white"/>
<path d="M25.0109 47.9581C25.9298 47.9581 26.6747 47.213 26.6747 46.294C26.6747 45.3749 25.9298 44.6299 25.0109 44.6299C24.092 44.6299 23.3471 45.3749 23.3471 46.294C23.3471 47.213 24.092 47.9581 25.0109 47.9581Z" fill="white"/>
<path d="M37.4893 25.4927C37.4893 32.3852 31.9021 37.9735 25.0109 37.9735C18.1197 37.9735 12.5325 32.3852 12.5325 25.4927C12.5325 18.6002 18.1197 13.012 25.0109 13.012C31.899 13.0192 37.4821 18.6033 37.4893 25.4927Z" fill="white"/>
<path d="M44.9764 8.85172C46.8142 8.85172 48.304 7.36163 48.304 5.52351C48.304 3.6854 46.8142 2.19531 44.9764 2.19531C43.1386 2.19531 41.6488 3.6854 41.6488 5.52351C41.6488 7.36163 43.1386 8.85172 44.9764 8.85172Z" fill="white"/>
<path d="M30.8342 21.4157V18.8363C30.8342 18.3766 30.4619 18.0043 30.0023 18.0043C29.838 18.0043 29.6768 18.0532 29.5406 18.1447L24.7614 21.3335H20.0196C19.5599 21.3335 19.1877 21.7059 19.1877 22.1656H18.3558C16.9779 22.1656 15.8601 23.2836 15.8601 24.6617V26.3258C15.8601 27.7039 16.9779 28.822 18.3558 28.822H19.1877C19.1877 29.2817 19.5599 29.654 20.0196 29.654H21.6833V31.4845C21.6833 31.8246 21.8903 32.1315 22.2064 32.2573L23.8702 32.9229L24.4879 31.3774L23.3471 30.9219V29.6551H24.7614L29.5427 32.8439C29.9253 33.0977 30.4422 32.9926 30.6959 32.6099C30.7853 32.4736 30.8342 32.3145 30.8342 32.1523V29.5729C33.0855 29.1153 34.5403 26.9197 34.0827 24.668C33.75 23.0309 32.4709 21.7516 30.8342 21.4188V21.4157Z" fill="#1E1F1F"/>
<path d="M29.1704 22.1645V30.5943L25.4726 28.1293C25.3354 28.0388 25.1752 27.9899 25.0109 27.9899H20.8514V22.9976H25.0109C25.1752 22.9976 25.3354 22.9487 25.4726 22.8583L29.1704 20.3933V22.1666V22.1645Z" fill="#2EEECE"/>
<path d="M30.8342 27.8474V23.1401C32.134 23.5987 32.8162 25.0247 32.3565 26.3247C32.1049 27.0372 31.5454 27.5967 30.8342 27.8474Z" fill="#2EEECE"/>
</g>
<defs>
<clipPath id="clip0_192_2085">
<rect width="50" height="50" fill="white" transform="translate(0 0.5)"/>
</clipPath>
</defs>
</svg>
