<svg width="54" height="54" viewBox="0 0 54 54" fill="none" xmlns="http://www.w3.org/2000/svg">
<path d="M45.5625 33.75H8.4375C7.09485 33.75 5.80718 34.2834 4.85776 35.2327C3.90837 36.1821 3.375 37.4698 3.375 38.8125V45.5625C3.375 46.9052 3.90837 48.1929 4.85776 49.1423C5.80718 50.0916 7.09485 50.625 8.4375 50.625H45.5625C46.9052 50.625 48.1929 50.0916 49.1423 49.1423C50.0916 48.1929 50.625 46.9052 50.625 45.5625V38.8125C50.625 37.4698 50.0916 36.1821 49.1423 35.2327C48.1929 34.2834 46.9052 33.75 45.5625 33.75ZM47.25 45.5625C47.25 46.0101 47.0722 46.4392 46.7557 46.7557C46.4392 47.0722 46.0101 47.25 45.5625 47.25H8.4375C7.98996 47.25 7.56073 47.0722 7.24425 46.7557C6.92779 46.4392 6.75 46.0101 6.75 45.5625V38.8125C6.75 38.3649 6.92779 37.9358 7.24425 37.6193C7.56073 37.3028 7.98996 37.125 8.4375 37.125H45.5625C46.0101 37.125 46.4392 37.3028 46.7557 37.6193C47.0722 37.9358 47.25 38.3649 47.25 38.8125V45.5625Z" fill="#1E1F1F"/>
<path d="M40.5 40.5H13.5C13.0525 40.5 12.6232 40.6778 12.3068 40.9943C11.9903 41.3108 11.8125 41.7399 11.8125 42.1875C11.8125 42.6351 11.9903 43.0642 12.3068 43.3807C12.6232 43.6972 13.0525 43.875 13.5 43.875H40.5C40.9476 43.875 41.3767 43.6972 41.6932 43.3807C42.0097 43.0642 42.1875 42.6351 42.1875 42.1875C42.1875 41.7399 42.0097 41.3108 41.6932 40.9943C41.3767 40.6778 40.9476 40.5 40.5 40.5ZM27 30.375C29.6701 30.375 32.28 29.5833 34.5002 28.0999C36.7202 26.6164 38.4505 24.5081 39.4725 22.0413C40.4942 19.5744 40.7615 16.86 40.2406 14.2413C39.7197 11.6225 38.4339 9.21707 36.5458 7.32907C34.658 5.44106 32.2525 4.1553 29.6337 3.63441C27.015 3.1135 24.3006 3.38084 21.8337 4.40264C19.3669 5.42441 17.2586 7.15475 15.7752 9.3748C14.2918 11.5949 13.5 14.2049 13.5 16.875C13.504 20.4542 14.9276 23.8855 17.4585 26.4164C19.9895 28.9475 23.4208 30.3709 27 30.375ZM27 6.75C29.0026 6.75 30.9601 7.34383 32.6251 8.45638C34.2902 9.56893 35.5879 11.1502 36.3543 13.0003C37.1206 14.8504 37.3211 16.8862 36.9304 18.8503C36.5399 20.8143 35.5754 22.6185 34.1594 24.0344C32.7435 25.4504 30.9393 26.4149 28.9752 26.8054C27.0112 27.1961 24.9754 26.9956 23.1253 26.2293C21.2752 25.4629 19.694 24.1652 18.5814 22.5001C17.4688 20.8351 16.875 18.8775 16.875 16.875C16.8777 14.1905 17.9453 11.6167 19.8435 9.71851C21.7417 7.82028 24.3154 6.75268 27 6.75Z" fill="#2EEECE"/>
<path d="M25.3125 18.1406H25.7345V20.672H23.625C23.2894 20.672 22.9674 20.8052 22.7301 21.0426C22.4927 21.2799 22.3595 21.6019 22.3595 21.9375C22.3595 22.2731 22.4927 22.5951 22.7301 22.8324C22.9674 23.0698 23.2894 23.203 23.625 23.203H25.7345V23.625C25.7345 23.9606 25.8677 24.2826 26.1051 24.5199C26.3424 24.7573 26.6644 24.8905 27 24.8905C27.3356 24.8905 27.6576 24.7573 27.8949 24.5199C28.1323 24.2826 28.2655 23.9606 28.2655 23.625V23.203H28.6875C29.6944 23.203 30.6602 22.803 31.3723 22.091C32.0843 21.379 32.4845 20.4132 32.4845 19.4062C32.4845 18.3993 32.0843 17.4335 31.3723 16.7214C30.6602 16.0094 29.6944 15.6094 28.6875 15.6094H28.2655V13.0781H30.375C30.7106 13.0781 31.0326 12.9448 31.2699 12.7074C31.5073 12.4701 31.6405 12.1482 31.6405 11.8125C31.6405 11.4768 31.5073 11.1549 31.2699 10.9176C31.0326 10.6802 30.7106 10.5469 30.375 10.5469H28.2655V10.125C28.2655 9.78933 28.1323 9.46742 27.8949 9.23007C27.6576 8.99272 27.3356 8.85938 27 8.85938C26.6644 8.85938 26.3424 8.99272 26.1051 9.23007C25.8677 9.46742 25.7345 9.78933 25.7345 10.125V10.5469H25.3125C24.3056 10.5469 23.3398 10.9469 22.6277 11.6589C21.9157 12.371 21.5155 13.3367 21.5155 14.3438C21.5155 15.3508 21.9157 16.3165 22.6277 17.0286C23.3398 17.7406 24.3056 18.1406 25.3125 18.1406ZM28.6875 18.1406C29.0231 18.1406 29.3451 18.274 29.5824 18.5113C29.8198 18.7487 29.953 19.0706 29.953 19.4062C29.953 19.7418 29.8198 20.0639 29.5824 20.3011C29.3451 20.5385 29.0231 20.672 28.6875 20.672H28.2655V18.1406H28.6875ZM25.3125 13.0781H25.7345V15.6094H25.3125C24.9769 15.6094 24.6549 15.476 24.4176 15.2387C24.1802 15.0013 24.047 14.6794 24.047 14.3438C24.047 14.0081 24.1802 13.6862 24.4176 13.4488C24.6549 13.2115 24.9769 13.0781 25.3125 13.0781Z" fill="#2EEECE"/>
</svg>
