<svg width="53" height="53" viewBox="0 0 53 53" fill="none" xmlns="http://www.w3.org/2000/svg">
<path d="M23.0199 41.4389V50.5945C23.0199 51.1602 22.5615 51.6186 21.9958 51.6186H17.4478C16.8822 51.6186 16.4237 51.1602 16.4237 50.5945V41.4389C16.4237 40.8733 16.8822 40.4148 17.4478 40.4148H21.9958C22.5614 40.4148 23.0199 40.8734 23.0199 41.4389Z" fill="white"/>
<path opacity="0.1" d="M23.0212 41.4389V50.5945C23.0212 51.1611 22.5604 51.6186 21.9971 51.6186H17.4467C16.8835 51.6186 16.4226 51.1612 16.4226 50.5945V50.4921C19.0716 50.0654 21.0959 47.7647 21.0959 44.9963V40.4148H21.9971C22.5604 40.4148 23.0212 40.8722 23.0212 41.4389Z" fill="#1E1F1F"/>
<path d="M32.5513 31.9954V50.5946C32.5513 51.1602 32.0929 51.6187 31.5272 51.6187H26.9792C26.4136 51.6187 25.9551 51.1602 25.9551 50.5946V31.9954C25.9551 31.4297 26.4136 30.9713 26.9792 30.9713H31.5272C32.0929 30.9714 32.5513 31.4298 32.5513 31.9954Z" fill="#EFF3FF"/>
<path opacity="0.1" d="M32.5527 31.9953V50.5945C32.5527 51.1611 32.0919 51.6186 31.5286 51.6186H26.9783C26.4151 51.6186 25.9542 51.1612 25.9542 50.5945V50.4921C28.6031 50.0654 30.6274 47.7647 30.6274 44.9962V30.9713H31.5286C32.0918 30.9713 32.5527 31.4286 32.5527 31.9953Z" fill="#1E1F1F"/>
<path d="M51.6144 29.2621V50.5947C51.6144 51.1603 51.1559 51.6188 50.5903 51.6188H46.0423C45.4767 51.6188 45.0182 51.1603 45.0182 50.5947V29.2621C45.0182 28.6965 45.4767 28.238 46.0423 28.238H50.5903C51.1559 28.238 51.6144 28.6965 51.6144 29.2621Z" fill="white"/>
<path opacity="0.1" d="M51.6157 29.2621V50.5947C51.6157 51.1612 51.1549 51.6188 50.5916 51.6188H46.0412C45.478 51.6188 45.0171 51.1614 45.0171 50.5947V50.4923C47.6661 50.0655 49.6903 47.7648 49.6903 44.9964V28.238H50.5916C51.1549 28.238 51.6157 28.6955 51.6157 29.2621Z" fill="#1E1F1F"/>
<path d="M42.0829 38.2911V50.5945C42.0829 51.1602 41.6244 51.6186 41.0588 51.6186H36.5107C35.9451 51.6186 35.4866 51.1602 35.4866 50.5945V38.2911C35.4866 37.7254 35.9451 37.267 36.5107 37.267H41.0588C41.6244 37.267 42.0829 37.7254 42.0829 38.2911Z" fill="white"/>
<path opacity="0.1" d="M42.0842 38.2911V50.5945C42.0842 51.1611 41.6234 51.6186 41.0601 51.6186H36.5098C35.9466 51.6186 35.4857 51.1612 35.4857 50.5945V50.4921C38.1346 50.0654 40.1589 47.7647 40.1589 44.9962V37.267H41.0601C41.6233 37.267 42.0842 37.7244 42.0842 38.2911Z" fill="#1E1F1F"/>
<path d="M20.6631 7.10967C17.708 8.57125 13.9691 7.04828 13.9691 7.04828C13.9691 7.04828 15.0279 3.15258 17.983 1.691C20.9382 0.229413 24.6769 1.75238 24.6769 1.75238C24.6769 1.75238 23.6182 5.64808 20.6631 7.10967Z" fill="white"/>
<path d="M7.26848 7.10967C10.2236 8.57125 13.9625 7.04828 13.9625 7.04828C13.9625 7.04828 12.9037 3.15258 9.94854 1.691C6.99341 0.229413 3.25455 1.75238 3.25455 1.75238C3.25455 1.75238 4.31335 5.64808 7.26848 7.10967Z" fill="white"/>
<path d="M22.4932 18.6775C22.4932 23.3911 18.6748 27.2095 13.9636 27.2095C9.25246 27.2095 5.43164 23.3911 5.43164 18.6775C5.43164 13.9664 9.25246 10.148 13.9636 10.148C18.6748 10.148 22.4932 13.9664 22.4932 18.6775Z" fill="white"/>
<path d="M19.9276 18.6779C19.9276 21.9739 17.2576 24.6439 13.9633 24.6439C10.669 24.6439 7.99738 21.9739 7.99738 18.6779C7.99738 15.3837 10.6691 12.7136 13.9633 12.7136C17.2575 12.7136 19.9276 15.3837 19.9276 18.6779Z" fill="white"/>
<path opacity="0.1" d="M19.926 18.6764C19.926 21.9739 17.2568 24.6431 13.9632 24.6431C11.6647 24.6431 9.66673 23.3397 8.67163 21.4315C9.49503 21.8646 10.4316 22.1066 11.4228 22.1066C14.7203 22.1066 17.3895 19.4335 17.3895 16.1399C17.3895 15.1487 17.1475 14.2121 16.7144 13.3887C18.6226 14.376 19.926 16.374 19.926 18.6764Z" fill="#1E1F1F"/>
<path d="M29.4122 23.6328C29.1994 23.4672 28.8979 23.4834 28.7051 23.6714L19.1733 32.9601C18.9605 33.1675 18.9563 33.508 19.1638 33.7207C19.3704 33.9335 19.7117 33.9381 19.9244 33.7307L29.1195 24.7699L38.2804 31.9311C38.5 32.1019 38.8151 32.0785 39.0053 31.8739L47.6052 22.6395V23.6019C47.6052 23.8989 47.8458 24.1398 48.1431 24.1398C48.4404 24.1398 48.681 23.8989 48.681 23.6019V21.2729C48.6689 21.2017 48.657 21.024 48.5154 20.8871C48.4616 20.849 48.333 20.735 48.1431 20.735H45.8146C45.5172 20.735 45.2767 20.9759 45.2767 21.2729C45.2767 21.5699 45.5172 21.8108 45.8146 21.8108H46.9073L38.5546 30.7797L29.4122 23.6328Z" fill="#1E1F1F"/>
<path d="M14.3339 20.391H12.4654C12.1681 20.391 11.9276 20.6319 11.9276 20.9289C11.9276 21.2259 12.1681 21.4668 12.4654 21.4668H13.424V21.8639C13.424 22.1609 13.6646 22.4018 13.9619 22.4018C14.2593 22.4018 14.4998 22.1609 14.4998 21.8639V21.45C15.3382 21.3653 15.9969 20.6637 15.9969 19.8037C15.9969 18.8869 15.251 18.1409 14.3338 18.1409H13.5906C13.267 18.1409 13.0033 17.8774 13.0033 17.5536C13.0033 17.23 13.267 16.9666 13.5906 16.9666H15.4591C15.7564 16.9666 15.997 16.7257 15.997 16.4287C15.997 16.1317 15.7564 15.8908 15.4591 15.8908H14.4999V15.4934C14.4999 15.1964 14.2594 14.9555 13.962 14.9555C13.6647 14.9555 13.4242 15.1964 13.4242 15.4934V15.9076C12.5861 15.9926 11.9277 16.6936 11.9277 17.5535C11.9277 18.4704 12.6735 19.2165 13.5907 19.2165H14.3339C14.6575 19.2165 14.9212 19.48 14.9212 19.8036C14.9212 20.1276 14.6575 20.391 14.3339 20.391Z" fill="#1E1F1F"/>
<path d="M1.05416 19.2168H3.12588C3.4232 19.2168 3.66377 18.9759 3.66377 18.6789C3.66377 18.3819 3.4232 18.141 3.12588 18.141H1.05416C0.75684 18.141 0.516266 18.3819 0.516266 18.6789C0.516266 18.976 0.756945 19.2168 1.05416 19.2168Z" fill="#1E1F1F"/>
<path d="M1.94401 15.3318C1.73391 15.5417 1.73391 15.8823 1.94401 16.0924L2.68936 16.8381C2.89945 17.0482 3.2399 17.0482 3.45 16.8381C3.66009 16.6282 3.66009 16.2875 3.45 16.0774L2.70465 15.3318C2.49456 15.1216 2.15421 15.1216 1.94401 15.3318Z" fill="#1E1F1F"/>
<path d="M3.45103 20.5192C3.24094 20.3096 2.90049 20.3093 2.69039 20.5194L1.94505 21.2653C1.73495 21.4754 1.73495 21.8161 1.94505 22.0261C2.15525 22.2358 2.49559 22.236 2.70569 22.0259L3.45103 21.2801C3.66123 21.07 3.66123 20.7293 3.45103 20.5192Z" fill="#1E1F1F"/>
<path d="M26.8709 18.141H24.7992C24.5019 18.141 24.2613 18.3819 24.2613 18.6789C24.2613 18.9759 24.5019 19.2168 24.7992 19.2168H26.8709C27.1682 19.2168 27.4088 18.9759 27.4088 18.6789C27.4088 18.3819 27.1681 18.141 26.8709 18.141Z" fill="#1E1F1F"/>
<path d="M25.2204 15.3318L24.4746 16.0775C24.2645 16.2874 24.2645 16.628 24.4746 16.8381C24.6847 17.0482 25.0251 17.0482 25.2352 16.8381L25.9811 16.0924C26.1912 15.8826 26.1912 15.5419 25.9811 15.3318C25.771 15.1217 25.4305 15.1216 25.2204 15.3318Z" fill="#1E1F1F"/>
<path d="M25.98 22.0262C26.1901 21.8161 26.1901 21.4755 25.98 21.2654L25.2346 20.5195C25.0246 20.3094 24.6841 20.3096 24.474 20.5193C24.2639 20.7294 24.2639 21.0701 24.474 21.2802L25.2194 22.026C25.4293 22.236 25.7696 22.2361 25.98 22.0262Z" fill="#1E1F1F"/>
<path d="M52.1523 50.5946V29.262C52.1523 28.4009 51.4516 27.7001 50.5906 27.7001H46.0422C45.1812 27.7001 44.4805 28.4009 44.4805 29.262V50.5946C44.4805 51.4557 45.1812 52.1564 46.0422 52.1564H50.5906C51.4516 52.1565 52.1523 51.4558 52.1523 50.5946ZM45.5563 50.5946V29.262C45.5563 28.9938 45.7743 28.7759 46.0422 28.7759H50.5906C50.8585 28.7759 51.0765 28.9939 51.0765 29.262V50.5946C51.0765 50.8628 50.8585 51.0807 50.5906 51.0807H46.0422C45.7743 51.0808 45.5563 50.8628 45.5563 50.5946Z" fill="#1E1F1F"/>
<path d="M13.963 25.1818C17.5486 25.1818 20.4655 22.2641 20.4655 18.6778C20.4655 15.0925 17.5485 12.1758 13.963 12.1758C10.3768 12.1758 7.45947 15.0925 7.45947 18.6778C7.45947 22.2641 10.3769 25.1818 13.963 25.1818ZM13.963 13.2516C16.9556 13.2516 19.3897 15.6857 19.3897 18.6778C19.3897 21.6709 16.9556 24.106 13.963 24.106C10.9699 24.106 8.53525 21.6709 8.53525 18.6778C8.53525 15.6857 10.97 13.2516 13.963 13.2516Z" fill="#1E1F1F"/>
<path d="M36.5108 36.7292C35.6494 36.7292 34.9486 37.4299 34.9486 38.2911V50.5945C34.9486 51.4557 35.6494 52.1564 36.5108 52.1564H41.0588C41.9202 52.1564 42.621 51.4557 42.621 50.5945V38.2911C42.621 37.4299 41.9202 36.7292 41.0588 36.7292H36.5108ZM41.5452 38.2911V50.5945C41.5452 50.8627 41.3272 51.0806 41.0588 51.0806H36.5108C36.2424 51.0806 36.0244 50.8626 36.0244 50.5945V38.2911C36.0244 38.0229 36.2424 37.805 36.5108 37.805H41.0588C41.3272 37.805 41.5452 38.023 41.5452 38.2911Z" fill="#1E1F1F"/>
<path d="M7.02982 7.59198C8.95272 8.54278 11.3501 8.41664 13.4225 7.79965V9.63754C8.67408 9.91978 4.89397 13.8602 4.89397 18.6776C4.89397 23.6788 8.96285 27.7474 13.9635 27.7474C18.9632 27.7474 23.031 23.6788 23.031 18.6776C23.031 13.8582 19.2487 9.9164 14.4983 9.63723V7.79627C16.5726 8.41632 18.9756 8.54426 20.9015 7.59198C24.0379 6.04085 25.1505 2.06204 25.1962 1.8934C25.2676 1.63099 25.1321 1.35677 24.88 1.25415C24.7182 1.18823 20.8794 -0.342753 17.7445 1.20869C16.0092 2.06689 14.896 3.66664 14.2377 4.95463C14.1556 4.90368 14.0642 4.86656 13.9603 4.86656C13.86 4.86656 13.7712 4.90147 13.6908 4.94925C13.0322 3.66221 11.9196 2.06573 10.1866 1.20869C7.05123 -0.342226 3.21343 1.18844 3.05164 1.25415C2.79947 1.35688 2.66394 1.63099 2.73545 1.8934C2.78133 2.06204 3.89392 6.04074 7.02982 7.59198ZM18.2215 2.1731C20.3327 1.12906 22.947 1.75808 24.0012 2.08746C23.6251 3.12485 22.542 5.58037 20.4246 6.62747C18.3144 7.67013 15.6997 7.04249 14.6454 6.71311C15.0215 5.67572 16.1041 3.2203 18.2215 2.1731ZM13.959 10.6861C13.9595 10.6861 13.96 10.6863 13.9605 10.6863C13.9612 10.6863 13.9621 10.6858 13.9628 10.6858H13.9635C18.3701 10.6858 21.9552 14.2709 21.9552 18.6775C21.9552 23.0854 18.3701 26.6715 13.9635 26.6715C9.5559 26.6715 5.96975 23.0853 5.96975 18.6775C5.96986 14.2725 9.55348 10.6886 13.959 10.6861ZM9.70989 2.1731C11.82 3.21661 12.9073 5.67466 13.2855 6.71342C12.2302 7.04301 9.61581 7.67023 7.50685 6.62757C5.39674 5.58385 4.30946 3.12474 3.93125 2.08619C4.98436 1.75555 7.59344 1.126 9.70989 2.1731Z" fill="#1E1F1F"/>
<path d="M31.5275 52.1566C32.3884 52.1566 33.0891 51.4558 33.0891 50.5947V31.9954C33.0891 31.1342 32.3884 30.4335 31.5275 30.4335H26.979C26.1181 30.4335 25.4173 31.1342 25.4173 31.9954V50.5946C25.4173 51.4557 26.1181 52.1564 26.979 52.1564L31.5275 52.1566ZM26.4932 50.5946V31.9954C26.4932 31.7272 26.7112 31.5093 26.9791 31.5093H31.5276C31.7954 31.5093 32.0134 31.7273 32.0134 31.9954V50.5946C32.0134 50.8628 31.7954 51.0807 31.5276 51.0807H26.9791C26.7111 51.0808 26.4932 50.8628 26.4932 50.5946Z" fill="#1E1F1F"/>
<path d="M23.5579 50.5945V41.4388C23.5579 40.5776 22.8572 39.8769 21.9957 39.8769H17.4478C16.5863 39.8769 15.8856 40.5776 15.8856 41.4388V50.5945C15.8856 51.4557 16.5863 52.1564 17.4478 52.1564H21.9957C22.8572 52.1565 23.5579 51.4558 23.5579 50.5945ZM22.4821 50.5945C22.4821 50.8627 22.2641 51.0806 21.9957 51.0806H17.4478C17.1794 51.0806 16.9614 50.8626 16.9614 50.5945V41.4388C16.9614 41.1706 17.1794 40.9527 17.4478 40.9527H21.9957C22.2641 40.9527 22.4821 41.1707 22.4821 41.4388V50.5945Z" fill="#1E1F1F"/>
<path d="M22.9536 41.741V51.0797C22.9536 51.6566 22.4859 52.1243 21.909 52.1243H17.2701C16.6932 52.1243 16.2255 51.6566 16.2255 51.0797V41.741C16.2255 41.1641 16.6932 40.6964 17.2701 40.6964H21.909C22.4859 40.6964 22.9536 41.1641 22.9536 41.741Z" fill="#2EEECE"/>
<path d="M32.6757 32.1085V51.0797C32.6757 51.6566 32.208 52.1243 31.6311 52.1243H26.9922C26.4153 52.1243 25.9476 51.6566 25.9476 51.0797V32.1085C25.9476 31.5316 26.4153 31.064 26.9922 31.064H31.6311C32.208 31.064 32.6757 31.5317 32.6757 32.1085Z" fill="white"/>
<path d="M52.12 29.3207V51.0798C52.12 51.6568 51.6524 52.1244 51.0755 52.1244H46.4365C45.8596 52.1244 45.392 51.6568 45.392 51.0798V29.3207C45.392 28.7438 45.8596 28.2761 46.4365 28.2761H51.0755C51.6524 28.2761 52.12 28.7438 52.12 29.3207Z" fill="#2EEECE"/>
<path d="M42.3979 38.5302V51.0798C42.3979 51.6568 41.9303 52.1244 41.3534 52.1244H36.7144C36.1375 52.1244 35.6699 51.6568 35.6699 51.0798V38.5302C35.6699 37.9533 36.1375 37.4857 36.7144 37.4857H41.3534C41.9302 37.4857 42.3979 37.9533 42.3979 38.5302Z" fill="#2EEECE"/>
<path d="M20.5497 6.72516C17.5355 8.21596 13.7219 6.66251 13.7219 6.66251C13.7219 6.66251 14.8019 2.68887 17.8161 1.19807C20.8303 -0.292727 24.6439 1.26062 24.6439 1.26062C24.6439 1.26062 23.5639 5.23436 20.5497 6.72516Z" fill="#2EEECE"/>
<path d="M6.88722 6.72516C9.90141 8.21596 13.7151 6.66251 13.7151 6.66251C13.7151 6.66251 12.6351 2.68887 9.62087 1.19807C6.60667 -0.292727 2.79303 1.26062 2.79303 1.26062C2.79303 1.26062 3.87292 5.23436 6.88722 6.72516Z" fill="#2EEECE"/>
<path d="M22.4163 18.5243C22.4163 23.3322 18.5216 27.227 13.7162 27.227C8.91083 27.227 5.01355 23.3322 5.01355 18.5243C5.01355 13.719 8.91073 9.82422 13.7162 9.82422C18.5217 9.82422 22.4163 13.719 22.4163 18.5243Z" fill="white"/>
<path d="M19.7994 18.5248C19.7994 21.8867 17.076 24.6101 13.7159 24.6101C10.3558 24.6101 7.63055 21.8867 7.63055 18.5248C7.63055 15.1646 10.3557 12.4412 13.7159 12.4412C17.0761 12.4412 19.7994 15.1646 19.7994 18.5248Z" fill="white"/>
<path d="M29.4738 23.5787C29.2568 23.4097 28.9493 23.4263 28.7526 23.6181L19.0301 33.0924C18.8132 33.3041 18.8089 33.6513 19.0205 33.8683C19.2313 34.0852 19.5794 34.09 19.7964 33.8785L29.1754 24.7385L38.5196 32.0429C38.7435 32.217 39.0651 32.1932 39.2589 31.9845L48.0309 22.5655V23.5472C48.0309 23.8502 48.2763 24.0958 48.5795 24.0958C48.8828 24.0958 49.1282 23.8502 49.1282 23.5472V21.1715C49.1158 21.099 49.1038 20.9176 48.9592 20.778C48.9043 20.7392 48.7732 20.6229 48.5795 20.6229H46.2044C45.9012 20.6229 45.6557 20.8685 45.6557 21.1715C45.6557 21.4745 45.9012 21.7202 46.2044 21.7202H47.319L38.7992 30.8685L29.4738 23.5787Z" fill="#1E1F1F"/>
<path d="M14.0939 20.2721H12.1881C11.8849 20.2721 11.6394 20.5177 11.6394 20.8207C11.6394 21.1238 11.8849 21.3694 12.1881 21.3694H13.1659V21.7745C13.1659 22.0775 13.4113 22.3231 13.7145 22.3231C14.0178 22.3231 14.2632 22.0775 14.2632 21.7745V21.3523C15.1183 21.2659 15.7902 20.5503 15.7902 19.6731C15.7902 18.738 15.0293 17.9771 14.0938 17.9771H13.3357C13.0057 17.9771 12.7366 17.7084 12.7366 17.378C12.7366 17.048 13.0056 16.7793 13.3357 16.7793H15.2415C15.5447 16.7793 15.7902 16.5337 15.7902 16.2306C15.7902 15.9276 15.5447 15.682 15.2415 15.682H14.2632V15.2767C14.2632 14.9737 14.0178 14.728 13.7145 14.728C13.4113 14.728 13.1659 14.9737 13.1659 15.2767V15.6992C12.3111 15.7859 11.6394 16.501 11.6394 17.378C11.6394 18.3132 12.4003 19.0744 13.3358 19.0744H14.0939C14.4239 19.0744 14.693 19.3431 14.693 19.6731C14.693 20.0035 14.4239 20.2721 14.0939 20.2721Z" fill="#1E1F1F"/>
<path d="M0.548648 19.0744H2.66182C2.96504 19.0744 3.21047 18.8288 3.21047 18.5258C3.21047 18.2227 2.96504 17.9771 2.66182 17.9771H0.548648C0.245426 17.9771 0 18.2227 0 18.5258C0 18.8288 0.24532 19.0744 0.548648 19.0744Z" fill="#1E1F1F"/>
<path d="M1.45621 15.1117C1.24189 15.3257 1.24189 15.6732 1.45621 15.8876L2.21653 16.6481C2.43084 16.8624 2.77805 16.8624 2.99236 16.6481C3.20667 16.4341 3.20667 16.0866 2.99236 15.8723L2.23203 15.1117C2.01772 14.8974 1.67052 14.8974 1.45621 15.1117Z" fill="#1E1F1F"/>
<path d="M2.99343 20.4029C2.77911 20.1891 2.43191 20.1889 2.2176 20.4032L1.45727 21.164C1.24296 21.3784 1.24296 21.7258 1.45727 21.9401C1.67169 22.154 2.01879 22.1541 2.2331 21.9398L2.99343 21.1789C3.20774 20.9646 3.20774 20.6172 2.99343 20.4029Z" fill="#1E1F1F"/>
<path d="M26.8815 17.9771H24.7684C24.4652 17.9771 24.2197 18.2227 24.2197 18.5258C24.2197 18.8288 24.4652 19.0744 24.7684 19.0744H26.8815C27.1848 19.0744 27.4302 18.8288 27.4302 18.5258C27.4302 18.2227 27.1849 17.9771 26.8815 17.9771Z" fill="#1E1F1F"/>
<path d="M25.1982 15.1117L24.4373 15.8723C24.223 16.0863 24.223 16.4338 24.4373 16.6481C24.6516 16.8624 24.9988 16.8624 25.2131 16.6481L25.974 15.8876C26.1883 15.6736 26.1883 15.326 25.974 15.1117C25.7597 14.8974 25.4125 14.8974 25.1982 15.1117Z" fill="#1E1F1F"/>
<path d="M25.9728 21.9401C26.1871 21.7258 26.1871 21.3784 25.9728 21.1641L25.2125 20.4032C24.9982 20.1889 24.651 20.1892 24.4367 20.4029C24.2224 20.6172 24.2224 20.9646 24.4367 21.1789L25.197 21.9398C25.4112 22.154 25.7583 22.1541 25.9728 21.9401Z" fill="#1E1F1F"/>
<path d="M52.6686 51.0797V29.3204C52.6686 28.442 51.9538 27.7272 51.0757 27.7272H46.4363C45.5582 27.7272 44.8434 28.442 44.8434 29.3204V51.0797C44.8434 51.9582 45.5582 52.6729 46.4363 52.6729H51.0757C51.9539 52.6729 52.6686 51.9582 52.6686 51.0797ZM45.9407 51.0797V29.3204C45.9407 29.047 46.163 28.8245 46.4363 28.8245H51.0757C51.3489 28.8245 51.5713 29.0469 51.5713 29.3204V51.0797C51.5713 51.3532 51.3489 51.5756 51.0757 51.5756H46.4363C46.163 51.5756 45.9407 51.3533 45.9407 51.0797Z" fill="#1E1F1F"/>
<path d="M13.7157 25.1588C17.373 25.1588 20.3482 22.1827 20.3482 18.5246C20.3482 14.8675 17.3729 11.8926 13.7157 11.8926C10.0578 11.8926 7.08212 14.8675 7.08212 18.5246C7.08202 22.1827 10.0578 25.1588 13.7157 25.1588ZM13.7157 12.99C16.7681 12.99 19.2509 15.4728 19.2509 18.5247C19.2509 21.5776 16.7681 24.0616 13.7157 24.0616C10.6628 24.0616 8.17942 21.5777 8.17942 18.5247C8.17931 15.4728 10.6627 12.99 13.7157 12.99Z" fill="#1E1F1F"/>
<path d="M36.7144 36.9371C35.8357 36.9371 35.121 37.6519 35.121 38.5303V51.0798C35.121 51.9583 35.8357 52.6731 36.7144 52.6731H41.3532C42.2319 52.6731 42.9466 51.9583 42.9466 51.0798V38.5302C42.9466 37.6518 42.2319 36.937 41.3532 36.937H36.7144V36.9371ZM41.8493 38.5302V51.0797C41.8493 51.3532 41.627 51.5757 41.3532 51.5757H36.7144C36.4406 51.5757 36.2183 51.3533 36.2183 51.0797V38.5302C36.2183 38.2567 36.4406 38.0343 36.7144 38.0343H41.3532C41.627 38.0344 41.8493 38.2567 41.8493 38.5302Z" fill="#1E1F1F"/>
<path d="M6.6438 7.21706C8.6052 8.18695 11.0505 8.05828 13.1644 7.42895V9.30365C8.32096 9.59148 4.46534 13.6108 4.46534 18.5245C4.46534 23.6257 8.61554 27.7757 13.7163 27.7757C18.8159 27.7757 22.9651 23.6257 22.9651 18.5245C22.9651 13.6087 19.1071 9.588 14.2617 9.30323V7.42547C16.3775 8.05796 18.8286 8.18832 20.793 7.21706C23.9921 5.63492 25.127 1.57649 25.1736 1.40457C25.2465 1.137 25.1082 0.857295 24.8511 0.752564C24.686 0.685275 20.7705 -0.87619 17.5729 0.706263C15.8029 1.58165 14.6674 3.21336 13.9959 4.52708C13.9122 4.47508 13.8189 4.43722 13.7131 4.43722C13.6107 4.43722 13.5201 4.47287 13.4382 4.5216C12.7664 3.20883 11.6315 1.58039 9.86397 0.706263C6.66584 -0.875662 2.75137 0.685591 2.58631 0.752564C2.32918 0.857295 2.19091 1.137 2.26378 1.40457C2.3103 1.57659 3.44514 5.63492 6.6438 7.21706ZM18.0593 1.68986C20.2127 0.624947 22.8792 1.26662 23.9546 1.60254C23.571 2.6607 22.4662 5.16527 20.3064 6.23335C18.1541 7.2969 15.487 6.6566 14.4117 6.32068C14.7953 5.26251 15.8995 2.75795 18.0593 1.68986ZM13.7115 10.3731C13.712 10.3731 13.7124 10.3734 13.7129 10.3734C13.7138 10.3734 13.7145 10.3729 13.7154 10.3729H13.7162C18.211 10.3729 21.8677 14.0297 21.8677 18.5244C21.8677 23.0204 18.2109 26.6783 13.7162 26.6783C9.2204 26.6783 5.56253 23.0204 5.56253 18.5244C5.56253 14.0313 9.21787 10.3757 13.7115 10.3731ZM9.37734 1.68986C11.5296 2.75426 12.6386 5.26146 13.0244 6.321C11.948 6.65723 9.28146 7.2969 7.13022 6.23335C4.97792 5.16875 3.86891 2.66039 3.48311 1.60117C4.55741 1.26398 7.21871 0.621783 9.37734 1.68986Z" fill="#1E1F1F"/>
<path d="M31.6313 52.6729C32.5095 52.6729 33.2242 51.9582 33.2242 51.0797V32.1085C33.2242 31.2301 32.5095 30.5153 31.6313 30.5153H26.992C26.1138 30.5153 25.3991 31.2301 25.3991 32.1085V51.0797C25.3991 51.9582 26.1138 52.6729 26.992 52.6729H31.6313ZM26.4964 51.0797V32.1085C26.4964 31.835 26.7187 31.6126 26.992 31.6126H31.6313C31.9046 31.6126 32.1269 31.8349 32.1269 32.1085V51.0797C32.1269 51.3532 31.9046 51.5756 31.6313 51.5756H26.992C26.7187 51.5756 26.4964 51.3533 26.4964 51.0797Z" fill="#1E1F1F"/>
<path d="M23.5023 51.0798V41.7409C23.5023 40.8625 22.7876 40.1477 21.9089 40.1477H17.2701C16.3914 40.1477 15.6767 40.8625 15.6767 41.7409V51.0798C15.6767 51.9582 16.3914 52.673 17.2701 52.673H21.9089C22.7876 52.673 23.5023 51.9582 23.5023 51.0798ZM22.405 51.0798C22.405 51.3532 22.1827 51.5757 21.9089 51.5757H17.2701C16.9963 51.5757 16.774 51.3533 16.774 51.0798V41.7409C16.774 41.4674 16.9963 41.245 17.2701 41.245H21.9089C22.1827 41.245 22.405 41.4673 22.405 41.7409V51.0798Z" fill="#1E1F1F"/>
</svg>
