<svg width="137" height="183" viewBox="0 0 137 183" fill="none" xmlns="http://www.w3.org/2000/svg">
<g filter="url(#filter0_d_749_3016)">
<path d="M94.9844 156.344L68.2358 143.91L41.4805 156.344V72.3238H94.9844V156.344Z" fill="url(#paint0_linear_749_3016)"/>
</g>
<g filter="url(#filter1_d_749_3016)">
<path d="M112.316 65.5738L120.205 40.1817C121.161 37.1077 119.297 33.8751 116.161 33.1652L90.2721 27.3134L72.2724 7.7731C70.0921 5.40897 66.3642 5.40897 64.1839 7.7731L46.1842 27.3134L20.2955 33.1652C17.1591 33.8751 15.2952 37.1077 16.2512 40.1817L24.1403 65.5738L16.2512 90.9659C15.2952 94.0399 17.1591 97.2725 20.2955 97.9825L46.1842 103.834L64.1839 123.375C66.3642 125.739 70.0921 125.739 72.2724 123.375L90.2721 103.834L116.161 97.9825C119.297 97.2725 121.161 94.0399 120.205 90.9659L112.316 65.5738Z" fill="url(#paint1_linear_749_3016)"/>
</g>
<g style="mix-blend-mode:screen" opacity="0.4">
<path d="M68.2344 123.767C69.3968 123.767 70.4766 123.292 71.2676 122.437L89.5562 102.58L68.2344 65.567V123.761V123.767Z" fill="white"/>
<path d="M118.526 94.6672C119.111 93.654 119.242 92.4823 118.891 91.3726L110.878 65.5739H68.2344L118.526 94.6741V94.6672Z" fill="white"/>
<path d="M17.9355 94.6672C18.5202 95.6804 19.4625 96.3765 20.6042 96.6316L46.9056 102.58L68.2274 65.567L17.9355 94.6672Z" fill="white"/>
<path d="M68.2358 7.37335C67.0735 7.37335 65.9936 7.84894 65.2026 8.70361L46.9141 28.561L68.2358 65.5738V7.37335Z" fill="white"/>
<path d="M17.5719 39.7682L25.5848 65.5669H68.2283L17.9365 36.4736C17.3518 37.4868 17.2212 38.6585 17.5719 39.7682Z" fill="white"/>
<path d="M118.526 36.4736C117.942 35.4604 116.999 34.7642 115.858 34.5092L89.5562 28.561L68.2344 65.5738L118.526 36.4736Z" fill="white"/>
</g>
<g filter="url(#filter2_d_749_3016)">
<path d="M92.9063 51.2994V25.1423C92.9063 24.0808 91.7576 23.4191 90.8429 23.9499L68.2349 37.0319L45.627 23.9499C44.7122 23.4191 43.5636 24.0808 43.5636 25.1423V51.2994L20.9556 64.3814C20.0408 64.9121 20.0408 66.2355 20.9556 66.7662L43.5636 79.8482V106.005C43.5636 107.067 44.7122 107.728 45.627 107.198L68.2349 94.1158L90.8429 107.198C91.7576 107.728 92.9063 107.067 92.9063 106.005V79.8482L115.514 66.7662C116.429 66.2355 116.429 64.9121 115.514 64.3814L92.9063 51.2994Z" fill="url(#paint2_radial_749_3016)"/>
</g>
<g filter="url(#filter3_d_749_3016)">
<path d="M105.308 65.5738L86.7717 33.3926H49.6924L31.1562 65.5738L49.6924 97.7481H86.7717L105.308 65.5738Z" fill="url(#paint3_linear_749_3016)"/>
</g>
<path d="M99.455 65.5738L83.8489 38.4724H52.6228L37.0098 65.5738L52.6228 92.6683H83.8489L99.455 65.5738Z" fill="url(#paint4_linear_749_3016)"/>
<path d="M96.0629 65.5738L82.1488 41.4224H54.3204L40.4062 65.5738L54.3204 89.7252H82.1488L96.0629 65.5738Z" fill="url(#paint5_linear_749_3016)"/>
<path d="M77.5608 49.3764H58.9008L49.5742 65.5738L58.9008 81.7644H77.5608L86.8873 65.5738L77.5608 49.3764Z" fill="url(#paint6_linear_749_3016)"/>
<path d="M84.1088 65.5738L76.1716 51.7888L68.2344 65.5738H84.1088Z" fill="url(#paint7_linear_749_3016)"/>
<path d="M68.2344 65.5738L76.1716 79.3519L84.1088 65.5738H68.2344Z" fill="url(#paint8_linear_749_3016)"/>
<path d="M68.2351 65.5738L60.291 79.3519H76.1723L68.2351 65.5738Z" fill="url(#paint9_linear_749_3016)"/>
<path d="M68.2348 65.5738H52.3535L60.2907 79.3519L68.2348 65.5738Z" fill="url(#paint10_linear_749_3016)"/>
<path d="M60.2907 51.7888L52.3535 65.5738H68.2348L60.2907 51.7888Z" fill="url(#paint11_linear_749_3016)"/>
<path d="M68.2351 65.5738L76.1723 51.7888H60.291L68.2351 65.5738Z" fill="url(#paint12_linear_749_3016)"/>
<path style="mix-blend-mode:screen" d="M78.6835 65.5738L73.4562 56.5032H63.0085L57.7812 65.5738L63.0085 74.6444H73.4562L78.6835 65.5738Z" fill="url(#paint13_linear_749_3016)"/>
<defs>
<filter id="filter0_d_749_3016" x="25.4805" y="66.3238" width="85.5039" height="116.02" filterUnits="userSpaceOnUse" color-interpolation-filters="sRGB">
<feFlood flood-opacity="0" result="BackgroundImageFix"/>
<feColorMatrix in="SourceAlpha" type="matrix" values="0 0 0 0 0 0 0 0 0 0 0 0 0 0 0 0 0 0 127 0" result="hardAlpha"/>
<feOffset dy="10"/>
<feGaussianBlur stdDeviation="8"/>
<feColorMatrix type="matrix" values="0 0 0 0 0 0 0 0 0 0 0 0 0 0 0 0 0 0 0.75 0"/>
<feBlend mode="normal" in2="BackgroundImageFix" result="effect1_dropShadow_749_3016"/>
<feBlend mode="normal" in="SourceGraphic" in2="effect1_dropShadow_749_3016" result="shape"/>
</filter>
<filter id="filter1_d_749_3016" x="0" y="0" width="136.457" height="151.148" filterUnits="userSpaceOnUse" color-interpolation-filters="sRGB">
<feFlood flood-opacity="0" result="BackgroundImageFix"/>
<feColorMatrix in="SourceAlpha" type="matrix" values="0 0 0 0 0 0 0 0 0 0 0 0 0 0 0 0 0 0 127 0" result="hardAlpha"/>
<feOffset dy="10"/>
<feGaussianBlur stdDeviation="8"/>
<feColorMatrix type="matrix" values="0 0 0 0 0 0 0 0 0 0 0 0 0 0 0 0 0 0 0.75 0"/>
<feBlend mode="normal" in2="BackgroundImageFix" result="effect1_dropShadow_749_3016"/>
<feBlend mode="normal" in="SourceGraphic" in2="effect1_dropShadow_749_3016" result="shape"/>
</filter>
<filter id="filter2_d_749_3016" x="4.26953" y="17.7628" width="127.932" height="115.622" filterUnits="userSpaceOnUse" color-interpolation-filters="sRGB">
<feFlood flood-opacity="0" result="BackgroundImageFix"/>
<feColorMatrix in="SourceAlpha" type="matrix" values="0 0 0 0 0 0 0 0 0 0 0 0 0 0 0 0 0 0 127 0" result="hardAlpha"/>
<feOffset dy="10"/>
<feGaussianBlur stdDeviation="8"/>
<feColorMatrix type="matrix" values="0 0 0 0 0 0 0 0 0 0 0 0 0 0 0 0 0 0 0.75 0"/>
<feBlend mode="normal" in2="BackgroundImageFix" result="effect1_dropShadow_749_3016"/>
<feBlend mode="normal" in="SourceGraphic" in2="effect1_dropShadow_749_3016" result="shape"/>
</filter>
<filter id="filter3_d_749_3016" x="15.1562" y="27.3926" width="106.152" height="96.3555" filterUnits="userSpaceOnUse" color-interpolation-filters="sRGB">
<feFlood flood-opacity="0" result="BackgroundImageFix"/>
<feColorMatrix in="SourceAlpha" type="matrix" values="0 0 0 0 0 0 0 0 0 0 0 0 0 0 0 0 0 0 127 0" result="hardAlpha"/>
<feOffset dy="10"/>
<feGaussianBlur stdDeviation="8"/>
<feColorMatrix type="matrix" values="0 0 0 0 0 0 0 0 0 0 0 0 0 0 0 0 0 0 0.75 0"/>
<feBlend mode="normal" in2="BackgroundImageFix" result="effect1_dropShadow_749_3016"/>
<feBlend mode="normal" in="SourceGraphic" in2="effect1_dropShadow_749_3016" result="shape"/>
</filter>
<linearGradient id="paint0_linear_749_3016" x1="68.2359" y1="156.351" x2="68.2359" y2="72.3238" gradientUnits="userSpaceOnUse">
<stop stop-color="#F03C3C"/>
<stop offset="1" stop-color="#B31212"/>
</linearGradient>
<linearGradient id="paint1_linear_749_3016" x1="68.2351" y1="5.99483" x2="68.2351" y2="125.146" gradientUnits="userSpaceOnUse">
<stop stop-color="white"/>
<stop offset="1" stop-color="#78AAFF"/>
</linearGradient>
<radialGradient id="paint2_radial_749_3016" cx="0" cy="0" r="1" gradientUnits="userSpaceOnUse" gradientTransform="translate(68.2349 65.5738) scale(44.9545 45.0495)">
<stop stop-color="#040D1F"/>
<stop offset="1" stop-color="#293650"/>
</radialGradient>
<linearGradient id="paint3_linear_749_3016" x1="68.2355" y1="33.3926" x2="68.2355" y2="97.7481" gradientUnits="userSpaceOnUse">
<stop stop-color="white"/>
<stop offset="1" stop-color="#95AFDB"/>
</linearGradient>
<linearGradient id="paint4_linear_749_3016" x1="68.2358" y1="92.6683" x2="68.2358" y2="38.4724" gradientUnits="userSpaceOnUse">
<stop stop-color="white"/>
<stop offset="1" stop-color="#95AFDB"/>
</linearGradient>
<linearGradient id="paint5_linear_749_3016" x1="68.2346" y1="41.4224" x2="68.2346" y2="89.7252" gradientUnits="userSpaceOnUse">
<stop stop-color="#293650"/>
<stop offset="1" stop-color="#040D1F"/>
</linearGradient>
<linearGradient id="paint6_linear_749_3016" x1="68.2342" y1="81.7644" x2="68.2342" y2="49.3764" gradientUnits="userSpaceOnUse">
<stop stop-color="#293650"/>
<stop offset="1" stop-color="#040D1F"/>
</linearGradient>
<linearGradient id="paint7_linear_749_3016" x1="84.1157" y1="58.6813" x2="68.2344" y2="58.6813" gradientUnits="userSpaceOnUse">
<stop stop-color="white"/>
<stop offset="1" stop-color="#78AAFF"/>
</linearGradient>
<linearGradient id="paint8_linear_749_3016" x1="68.2344" y1="72.4594" x2="84.1157" y2="72.4594" gradientUnits="userSpaceOnUse">
<stop stop-color="white"/>
<stop offset="1" stop-color="#78AAFF"/>
</linearGradient>
<linearGradient id="paint9_linear_749_3016" x1="60.291" y1="72.4594" x2="76.1723" y2="72.4594" gradientUnits="userSpaceOnUse">
<stop stop-color="white"/>
<stop offset="1" stop-color="#78AAFF"/>
</linearGradient>
<linearGradient id="paint10_linear_749_3016" x1="52.3535" y1="72.4594" x2="68.2348" y2="72.4594" gradientUnits="userSpaceOnUse">
<stop stop-color="white"/>
<stop offset="1" stop-color="#78AAFF"/>
</linearGradient>
<linearGradient id="paint11_linear_749_3016" x1="68.2348" y1="58.6813" x2="52.3535" y2="58.6813" gradientUnits="userSpaceOnUse">
<stop stop-color="white"/>
<stop offset="1" stop-color="#78AAFF"/>
</linearGradient>
<linearGradient id="paint12_linear_749_3016" x1="60.291" y1="58.6813" x2="76.1723" y2="58.6813" gradientUnits="userSpaceOnUse">
<stop stop-color="white"/>
<stop offset="1" stop-color="#78AAFF"/>
</linearGradient>
<linearGradient id="paint13_linear_749_3016" x1="68.2358" y1="56.5032" x2="68.2358" y2="74.6375" gradientUnits="userSpaceOnUse">
<stop stop-color="white"/>
<stop offset="1" stop-color="#78AAFF"/>
</linearGradient>
</defs>
</svg>
