<svg width="234" height="148" viewBox="0 0 234 148" fill="none" xmlns="http://www.w3.org/2000/svg">
<path d="M140.088 75.9844V113.481C140.088 126.132 122.886 134.306 116.835 136.785C110.783 134.306 93.5815 126.124 93.5815 113.481V75.9844H86.959V113.481C86.959 134.083 116.835 143.89 116.835 143.89C116.835 143.89 146.711 134.091 146.711 113.481V75.9844H140.088Z" fill="url(#paint0_linear_749_3323)"/>
<g filter="url(#filter0_d_749_3323)">
<path d="M184.856 101.253L170.286 106.6L164.947 121.191L121.271 77.4435L141.172 57.5137L184.856 101.253Z" fill="url(#paint1_linear_749_3323)"/>
<path d="M139.159 59.5282L136.361 62.3303L177.81 103.84L181.899 102.339L139.159 59.5282Z" fill="url(#paint2_linear_749_3323)"/>
<path d="M166.031 118.232L167.529 114.136L126.081 72.6268L123.291 75.4207L166.031 118.232Z" fill="url(#paint3_linear_749_3323)"/>
<path d="M68.9285 121.191L63.5891 106.6L49.0195 101.253L92.7033 57.5137L112.604 77.4435L68.9285 121.191Z" fill="url(#paint4_linear_749_3323)"/>
<path d="M110.584 75.4207L107.794 72.6268L66.3457 114.136L67.844 118.232L110.584 75.4207Z" fill="url(#paint5_linear_749_3323)"/>
<path d="M51.9746 102.339L56.064 103.84L97.5127 62.3303L94.7147 59.5282L51.9746 102.339Z" fill="url(#paint6_linear_749_3323)"/>
</g>
<g filter="url(#filter1_d_749_3323)">
<path d="M116.934 127.765C125.096 123.985 133.564 117.925 133.564 111.691V74.1937H100.303V111.691C100.303 117.925 108.771 123.985 116.934 127.765Z" fill="url(#paint7_linear_749_3323)"/>
</g>
<g filter="url(#filter2_d_749_3323)">
<path d="M54.2524 60.5728L59.2276 69.2112C62.3071 74.5584 68.0024 77.8497 74.1614 77.8497H116.935V60.581H54.2441L54.2524 60.5728Z" fill="url(#paint8_linear_749_3323)"/>
</g>
<path d="M116.935 60.5728H54.2441C57.3236 65.92 63.019 69.2112 69.1779 69.2112H116.935V60.5728Z" fill="url(#paint9_linear_749_3323)"/>
<g filter="url(#filter3_d_749_3323)">
<path d="M179.624 60.5728L174.648 69.2112C171.569 74.5584 165.874 77.8497 159.715 77.8497H116.941V60.581H179.632L179.624 60.5728Z" fill="url(#paint10_linear_749_3323)"/>
</g>
<path d="M116.934 60.5728H179.624C176.545 65.92 170.849 69.2112 164.69 69.2112H116.934V60.5728Z" fill="url(#paint11_linear_749_3323)"/>
<path d="M54.2509 60.5728C57.0407 65.3148 62.1731 68.548 67.6036 68.9211C68.9446 69.0289 70.3271 68.9708 71.693 68.9708L75.8072 68.946L84.0357 68.8879L116.941 68.7884L149.847 68.8796L158.075 68.9377L162.19 68.9625C163.564 68.9625 164.938 69.0206 166.279 68.9128C171.71 68.5315 176.842 65.3065 179.632 60.5645C176.958 65.3729 171.867 68.7884 166.312 69.319C164.921 69.46 163.556 69.4102 162.181 69.4351L158.067 69.46L149.839 69.518L116.933 69.6092L84.0274 69.5097L75.7989 69.4517L71.6847 69.4268C70.3188 69.4019 68.9446 69.4517 67.5539 69.3107C62.0076 68.7884 56.9082 65.3646 54.2344 60.5562L54.2509 60.5728Z" fill="#FFFF93"/>
<g filter="url(#filter4_d_749_3323)">
<path d="M33.125 41.1901L38.1002 49.8286C41.1796 55.1758 46.875 58.467 53.0339 58.467H116.933V41.1984H33.125V41.1901Z" fill="url(#paint12_linear_749_3323)"/>
</g>
<path d="M116.933 41.1901H33.125C36.2045 46.5373 41.8998 49.8286 48.0588 49.8286H116.933V41.1901Z" fill="url(#paint13_linear_749_3323)"/>
<g filter="url(#filter5_d_749_3323)">
<path d="M200.749 41.1901L195.774 49.8286C192.695 55.1758 186.999 58.467 180.84 58.467H116.941V41.1984H200.758L200.749 41.1901Z" fill="url(#paint14_linear_749_3323)"/>
</g>
<path d="M116.934 41.1901H200.75C197.67 46.5373 191.975 49.8286 185.816 49.8286H116.942V41.1901H116.934Z" fill="url(#paint15_linear_749_3323)"/>
<path d="M33.1255 41.1901C34.9715 44.3073 37.8026 46.8275 41.1222 48.2451C42.7695 48.9747 44.541 49.4141 46.3291 49.5716C48.1089 49.7208 49.9384 49.613 51.743 49.6213L73.4731 49.5053L116.942 49.4058L160.41 49.497L182.14 49.613C183.945 49.6047 185.774 49.7125 187.554 49.5633C189.342 49.3975 191.106 48.9581 192.753 48.2368C196.072 46.8192 198.895 44.299 200.75 41.1818C198.962 44.3321 196.164 46.927 192.836 48.4192C191.18 49.1819 189.4 49.6711 187.579 49.87C185.75 50.0524 183.945 49.9778 182.132 50.0193L160.402 50.1353L116.933 50.2265L73.4649 50.127L51.7347 50.011C49.9218 49.9695 48.1172 50.0441 46.2877 49.8617C44.4748 49.6628 42.6867 49.1819 41.0311 48.4192C37.7033 46.927 34.9053 44.3321 33.1172 41.1818L33.1255 41.1901Z" fill="#FFFF93"/>
<g filter="url(#filter6_d_749_3323)">
<path d="M12 21.7992L16.9752 30.4377C20.0546 35.7849 25.75 39.0761 31.9089 39.0761H116.934V21.8075H12V21.7992Z" fill="url(#paint16_linear_749_3323)"/>
</g>
<path d="M116.934 21.7992H12C15.0795 27.1464 20.7748 30.4377 26.9338 30.4377H116.934V21.7992Z" fill="url(#paint17_linear_749_3323)"/>
<g filter="url(#filter7_d_749_3323)">
<path d="M221.875 21.7992L216.9 30.4377C213.821 35.7849 208.125 39.0761 201.966 39.0761H116.941V21.8075H221.875V21.7992Z" fill="url(#paint18_linear_749_3323)"/>
</g>
<path d="M116.934 21.7992H221.867C218.788 27.1464 213.093 30.4377 206.934 30.4377H116.934V21.7992Z" fill="url(#paint19_linear_749_3323)"/>
<path d="M12 21.7992C14.2682 25.7039 18.1258 28.6221 22.4636 29.7413C23.548 30.0148 24.6573 30.1889 25.7748 30.2718C26.8841 30.3216 28.0182 30.2884 29.144 30.2884L35.899 30.2387L62.9106 30.1641L116.942 30.0231L170.974 30.1641L197.985 30.2387L204.74 30.2884C205.866 30.2884 206.992 30.3216 208.109 30.2718C209.227 30.1972 210.328 30.0148 211.421 29.7413C215.758 28.6221 219.616 25.7039 221.884 21.7992C219.674 25.7371 215.849 28.7381 211.47 29.9319C210.377 30.2221 209.26 30.4211 208.126 30.5206C206.992 30.5869 205.866 30.5786 204.74 30.5869L197.985 30.6366L170.974 30.7112L116.942 30.8522L62.9106 30.7112L35.899 30.6366L29.144 30.5869C28.0182 30.5786 26.8924 30.5869 25.7583 30.5206C24.6242 30.4211 23.5066 30.2304 22.4139 29.9319C18.0348 28.7299 14.2103 25.7288 12 21.7992Z" fill="#FFFF93"/>
<g filter="url(#filter8_d_749_3323)">
<path d="M116.934 4.00829L72.0254 10.8312V67.205C72.0254 98.1774 116.934 112.909 116.934 112.909C116.934 112.909 161.843 98.1774 161.843 67.205V10.8229L116.934 4V4.00829ZM152.886 67.205C152.886 76.7968 146.769 85.8167 134.699 94.024C127.779 98.7246 120.717 101.842 116.934 103.351C113.151 101.85 106.09 98.7329 99.1694 94.024C87.0999 85.8167 80.9823 76.7968 80.9823 67.205V18.5411L116.943 13.0778L152.903 18.5411V67.205H152.886Z" fill="#1D2840"/>
</g>
<path d="M116.943 108.142C109.674 105.423 76.5039 91.6613 76.5039 67.1967V14.6779L116.934 8.53479L157.365 14.6779V67.1967C157.365 78.4549 150.477 88.8012 136.893 97.9453C128.557 103.558 120.179 106.94 116.943 108.142Z" fill="url(#paint20_radial_749_3323)"/>
<path opacity="0.4" d="M116.934 8.54308V108.151C120.179 106.949 128.556 103.558 136.892 97.9536C150.477 88.8094 157.364 78.4632 157.364 67.205V14.6779L116.934 8.53479V8.54308Z" fill="black"/>
<g filter="url(#filter9_d_749_3323)">
<path d="M76.5039 14.6779V67.1967C76.5039 91.6613 109.674 105.423 116.943 108.142C120.179 106.94 128.557 103.55 136.893 97.9453C150.477 88.8012 157.365 78.4549 157.365 67.1967V14.6779L116.934 8.53479L76.5039 14.6779ZM152.895 67.1967C152.895 76.7886 146.777 85.8084 134.708 94.0157C127.787 98.7163 120.726 101.833 116.943 103.342C113.16 101.842 106.098 98.7246 99.1777 94.0157C87.1082 85.8084 80.9907 76.7886 80.9907 67.1967V18.5411L116.951 13.0779L152.911 18.5411V67.205L152.895 67.1967Z" fill="black"/>
</g>
<path d="M116.934 4.00829L72.0254 10.8312V67.205C72.0254 98.1774 116.934 112.909 116.934 112.909C116.934 112.909 161.843 98.1774 161.843 67.205V10.8229L116.934 4V4.00829ZM157.365 67.205C157.365 78.4632 150.477 88.8094 136.893 97.9536C128.557 103.566 120.179 106.949 116.943 108.151C109.674 105.431 76.5039 91.6696 76.5039 67.205V14.6779L116.934 8.53478L157.365 14.6779V67.1967V67.205Z" fill="url(#paint21_linear_749_3323)"/>
<path d="M76.5039 14.6779V67.1967C76.5039 91.6613 109.674 105.423 116.943 108.142C120.179 106.94 128.557 103.55 136.893 97.9453C150.477 88.8012 157.365 78.4549 157.365 67.1967V14.6779L116.934 8.53479L76.5039 14.6779ZM152.895 67.1967C152.895 76.7886 146.777 85.8084 134.708 94.0157C127.787 98.7163 120.726 101.833 116.943 103.342C113.16 101.842 106.098 98.7246 99.1777 94.0157C87.1082 85.8084 80.9907 76.7886 80.9907 67.1967V18.5411L116.951 13.0779L152.911 18.5411V67.205L152.895 67.1967Z" fill="url(#paint22_linear_749_3323)"/>
<path d="M116.934 111.127C111.984 109.361 73.6973 94.8282 73.6973 67.1967V12.2737L116.934 5.70782L160.171 12.2737V67.1967C160.171 94.8448 121.893 109.361 116.934 111.127ZM79.3016 17.0904V67.1967C79.3016 77.3772 85.6675 86.8695 98.2254 95.4085C105.336 100.242 112.613 103.434 116.313 104.901L116.934 105.15L117.555 104.901C121.263 103.425 128.54 100.242 135.643 95.4085C148.201 86.8695 154.566 77.3772 154.566 67.1967V17.0904L116.934 11.3784L79.3016 17.0904Z" fill="url(#paint23_linear_749_3323)"/>
<g opacity="0.3">
<path d="M151.214 35.6522V19.9836L116.934 14.7773L82.6543 19.9836V66.2765C99.5252 47.4824 123.987 35.6605 151.206 35.6605L151.214 35.6522Z" fill="white"/>
<path d="M79.302 67.1967V17.0904L116.934 11.3784L154.567 17.0904V35.7186C156.446 35.7849 158.317 35.9093 160.163 36.0834V12.2654L116.926 5.69952L73.6895 12.2654V67.1884C73.6895 70.2807 74.1696 73.2072 75.0305 75.9761C76.4212 73.9284 77.903 71.9471 79.451 70.0237C79.3434 69.0869 79.2855 68.1418 79.2855 67.1967H79.302Z" fill="white"/>
</g>
<path d="M103.258 59.4619L89.5742 46.1063L108.482 43.3539L116.933 26.1931L125.394 43.3539L144.301 46.1063L130.617 59.4619L133.846 78.3223L116.933 69.4185L100.03 78.3223L103.258 59.4619Z" fill="#040D1F"/>
<path d="M128.582 58.7987L140.221 47.4327L124.136 45.0949L116.934 30.4957L109.741 45.0949L93.6562 47.4327L105.295 58.7987L102.547 74.8487L116.934 67.2714L131.33 74.8487L128.582 58.7987Z" fill="url(#paint24_linear_749_3323)"/>
<path d="M116.934 55.01L124.136 45.0949L116.934 30.4957V55.01Z" fill="url(#paint25_linear_749_3323)"/>
<path d="M116.934 55.0101L109.741 45.0949L93.6562 47.4328L116.934 55.0101Z" fill="url(#paint26_linear_749_3323)"/>
<path d="M116.934 55.0101L105.295 58.7987L102.547 74.8487L116.934 55.0101Z" fill="url(#paint27_linear_749_3323)"/>
<path d="M116.934 55.0101V67.2714L131.329 74.8487L116.934 55.0101Z" fill="url(#paint28_linear_749_3323)"/>
<path d="M116.934 55.01L128.581 58.7987L140.22 47.4327L116.934 55.01Z" fill="url(#paint29_linear_749_3323)"/>
<path d="M116.935 55.01C116.844 50.9229 116.869 46.8358 116.836 42.7487C116.869 38.6616 116.852 34.5745 116.935 30.4874C117.026 34.5745 117.002 38.6616 117.035 42.7487C117.002 46.8358 117.018 50.9229 116.935 55.01Z" fill="#FFFF93"/>
<path d="M116.934 55.01C113.027 53.8328 109.153 52.5478 105.262 51.3209C101.396 50.0193 97.5056 48.7841 93.6562 47.4327C97.5635 48.61 101.438 49.895 105.328 51.1219C109.194 52.4235 113.085 53.6587 116.934 55.01Z" fill="#FFFF93"/>
<path d="M116.934 55.01C114.608 58.3676 112.191 61.6588 109.823 64.9915C107.398 68.2744 105.014 71.5988 102.547 74.8486C104.873 71.4911 107.29 68.1998 109.658 64.8671C112.083 61.5842 114.467 58.2681 116.934 55.01Z" fill="#FFFF93"/>
<path d="M116.934 55.01C119.4 58.2598 121.785 61.5842 124.21 64.8671C126.578 68.1915 128.995 71.4911 131.321 74.8486C128.854 71.5988 126.47 68.2744 124.045 64.9915C121.677 61.6671 119.26 58.3676 116.934 55.01Z" fill="#FFFF93"/>
<path d="M116.934 55.01C120.783 53.6587 124.674 52.4235 128.54 51.1219C132.43 49.895 136.304 48.61 140.212 47.4327C136.362 48.7841 132.472 50.0193 128.606 51.3209C124.715 52.5478 120.841 53.8328 116.934 55.01Z" fill="#FFFF93"/>
<defs>
<filter id="filter0_d_749_3323" x="37.0195" y="53.5137" width="159.836" height="87.6776" filterUnits="userSpaceOnUse" color-interpolation-filters="sRGB">
<feFlood flood-opacity="0" result="BackgroundImageFix"/>
<feColorMatrix in="SourceAlpha" type="matrix" values="0 0 0 0 0 0 0 0 0 0 0 0 0 0 0 0 0 0 127 0" result="hardAlpha"/>
<feOffset dy="8"/>
<feGaussianBlur stdDeviation="6"/>
<feColorMatrix type="matrix" values="0 0 0 0 0 0 0 0 0 0 0 0 0 0 0 0 0 0 0.75 0"/>
<feBlend mode="normal" in2="BackgroundImageFix" result="effect1_dropShadow_749_3323"/>
<feBlend mode="normal" in="SourceGraphic" in2="effect1_dropShadow_749_3323" result="shape"/>
</filter>
<filter id="filter1_d_749_3323" x="88.3027" y="70.1937" width="57.2617" height="77.5717" filterUnits="userSpaceOnUse" color-interpolation-filters="sRGB">
<feFlood flood-opacity="0" result="BackgroundImageFix"/>
<feColorMatrix in="SourceAlpha" type="matrix" values="0 0 0 0 0 0 0 0 0 0 0 0 0 0 0 0 0 0 127 0" result="hardAlpha"/>
<feOffset dy="8"/>
<feGaussianBlur stdDeviation="6"/>
<feColorMatrix type="matrix" values="0 0 0 0 0 0 0 0 0 0 0 0 0 0 0 0 0 0 0.75 0"/>
<feBlend mode="normal" in2="BackgroundImageFix" result="effect1_dropShadow_749_3323"/>
<feBlend mode="normal" in="SourceGraphic" in2="effect1_dropShadow_749_3323" result="shape"/>
</filter>
<filter id="filter2_d_749_3323" x="42.2441" y="56.5728" width="86.6895" height="41.2769" filterUnits="userSpaceOnUse" color-interpolation-filters="sRGB">
<feFlood flood-opacity="0" result="BackgroundImageFix"/>
<feColorMatrix in="SourceAlpha" type="matrix" values="0 0 0 0 0 0 0 0 0 0 0 0 0 0 0 0 0 0 127 0" result="hardAlpha"/>
<feOffset dy="8"/>
<feGaussianBlur stdDeviation="6"/>
<feColorMatrix type="matrix" values="0 0 0 0 0 0 0 0 0 0 0 0 0 0 0 0 0 0 0.75 0"/>
<feBlend mode="normal" in2="BackgroundImageFix" result="effect1_dropShadow_749_3323"/>
<feBlend mode="normal" in="SourceGraphic" in2="effect1_dropShadow_749_3323" result="shape"/>
</filter>
<filter id="filter3_d_749_3323" x="104.941" y="56.5728" width="86.6895" height="41.2769" filterUnits="userSpaceOnUse" color-interpolation-filters="sRGB">
<feFlood flood-opacity="0" result="BackgroundImageFix"/>
<feColorMatrix in="SourceAlpha" type="matrix" values="0 0 0 0 0 0 0 0 0 0 0 0 0 0 0 0 0 0 127 0" result="hardAlpha"/>
<feOffset dy="8"/>
<feGaussianBlur stdDeviation="6"/>
<feColorMatrix type="matrix" values="0 0 0 0 0 0 0 0 0 0 0 0 0 0 0 0 0 0 0.75 0"/>
<feBlend mode="normal" in2="BackgroundImageFix" result="effect1_dropShadow_749_3323"/>
<feBlend mode="normal" in="SourceGraphic" in2="effect1_dropShadow_749_3323" result="shape"/>
</filter>
<filter id="filter4_d_749_3323" x="21.125" y="37.1901" width="107.809" height="41.2769" filterUnits="userSpaceOnUse" color-interpolation-filters="sRGB">
<feFlood flood-opacity="0" result="BackgroundImageFix"/>
<feColorMatrix in="SourceAlpha" type="matrix" values="0 0 0 0 0 0 0 0 0 0 0 0 0 0 0 0 0 0 127 0" result="hardAlpha"/>
<feOffset dy="8"/>
<feGaussianBlur stdDeviation="6"/>
<feColorMatrix type="matrix" values="0 0 0 0 0 0 0 0 0 0 0 0 0 0 0 0 0 0 0.75 0"/>
<feBlend mode="normal" in2="BackgroundImageFix" result="effect1_dropShadow_749_3323"/>
<feBlend mode="normal" in="SourceGraphic" in2="effect1_dropShadow_749_3323" result="shape"/>
</filter>
<filter id="filter5_d_749_3323" x="104.941" y="37.1901" width="107.816" height="41.2769" filterUnits="userSpaceOnUse" color-interpolation-filters="sRGB">
<feFlood flood-opacity="0" result="BackgroundImageFix"/>
<feColorMatrix in="SourceAlpha" type="matrix" values="0 0 0 0 0 0 0 0 0 0 0 0 0 0 0 0 0 0 127 0" result="hardAlpha"/>
<feOffset dy="8"/>
<feGaussianBlur stdDeviation="6"/>
<feColorMatrix type="matrix" values="0 0 0 0 0 0 0 0 0 0 0 0 0 0 0 0 0 0 0.75 0"/>
<feBlend mode="normal" in2="BackgroundImageFix" result="effect1_dropShadow_749_3323"/>
<feBlend mode="normal" in="SourceGraphic" in2="effect1_dropShadow_749_3323" result="shape"/>
</filter>
<filter id="filter6_d_749_3323" x="0" y="17.7992" width="128.934" height="41.2769" filterUnits="userSpaceOnUse" color-interpolation-filters="sRGB">
<feFlood flood-opacity="0" result="BackgroundImageFix"/>
<feColorMatrix in="SourceAlpha" type="matrix" values="0 0 0 0 0 0 0 0 0 0 0 0 0 0 0 0 0 0 127 0" result="hardAlpha"/>
<feOffset dy="8"/>
<feGaussianBlur stdDeviation="6"/>
<feColorMatrix type="matrix" values="0 0 0 0 0 0 0 0 0 0 0 0 0 0 0 0 0 0 0.75 0"/>
<feBlend mode="normal" in2="BackgroundImageFix" result="effect1_dropShadow_749_3323"/>
<feBlend mode="normal" in="SourceGraphic" in2="effect1_dropShadow_749_3323" result="shape"/>
</filter>
<filter id="filter7_d_749_3323" x="104.941" y="17.7992" width="128.934" height="41.2769" filterUnits="userSpaceOnUse" color-interpolation-filters="sRGB">
<feFlood flood-opacity="0" result="BackgroundImageFix"/>
<feColorMatrix in="SourceAlpha" type="matrix" values="0 0 0 0 0 0 0 0 0 0 0 0 0 0 0 0 0 0 127 0" result="hardAlpha"/>
<feOffset dy="8"/>
<feGaussianBlur stdDeviation="6"/>
<feColorMatrix type="matrix" values="0 0 0 0 0 0 0 0 0 0 0 0 0 0 0 0 0 0 0.75 0"/>
<feBlend mode="normal" in2="BackgroundImageFix" result="effect1_dropShadow_749_3323"/>
<feBlend mode="normal" in="SourceGraphic" in2="effect1_dropShadow_749_3323" result="shape"/>
</filter>
<filter id="filter8_d_749_3323" x="60.0254" y="0" width="113.818" height="132.909" filterUnits="userSpaceOnUse" color-interpolation-filters="sRGB">
<feFlood flood-opacity="0" result="BackgroundImageFix"/>
<feColorMatrix in="SourceAlpha" type="matrix" values="0 0 0 0 0 0 0 0 0 0 0 0 0 0 0 0 0 0 127 0" result="hardAlpha"/>
<feOffset dy="8"/>
<feGaussianBlur stdDeviation="6"/>
<feColorMatrix type="matrix" values="0 0 0 0 0 0 0 0 0 0 0 0 0 0 0 0 0 0 0.75 0"/>
<feBlend mode="normal" in2="BackgroundImageFix" result="effect1_dropShadow_749_3323"/>
<feBlend mode="normal" in="SourceGraphic" in2="effect1_dropShadow_749_3323" result="shape"/>
</filter>
<filter id="filter9_d_749_3323" x="70.5039" y="5.53479" width="92.8613" height="111.608" filterUnits="userSpaceOnUse" color-interpolation-filters="sRGB">
<feFlood flood-opacity="0" result="BackgroundImageFix"/>
<feColorMatrix in="SourceAlpha" type="matrix" values="0 0 0 0 0 0 0 0 0 0 0 0 0 0 0 0 0 0 127 0" result="hardAlpha"/>
<feOffset dy="3"/>
<feGaussianBlur stdDeviation="3"/>
<feColorMatrix type="matrix" values="0 0 0 0 0 0 0 0 0 0 0 0 0 0 0 0 0 0 0.75 0"/>
<feBlend mode="normal" in2="BackgroundImageFix" result="effect1_dropShadow_749_3323"/>
<feBlend mode="normal" in="SourceGraphic" in2="effect1_dropShadow_749_3323" result="shape"/>
</filter>
<linearGradient id="paint0_linear_749_3323" x1="86.959" y1="109.941" x2="146.711" y2="109.941" gradientUnits="userSpaceOnUse">
<stop stop-color="#B57E10"/>
<stop offset="0.2" stop-color="#F9DF7B"/>
<stop offset="0.35" stop-color="#FFF3A6"/>
<stop offset="0.75" stop-color="#B57E10"/>
<stop offset="1" stop-color="#B57E10"/>
</linearGradient>
<linearGradient id="paint1_linear_749_3323" x1="174.895" y1="111.225" x2="131.152" y2="67.5459" gradientUnits="userSpaceOnUse">
<stop stop-color="#F03C3C"/>
<stop offset="1" stop-color="#B31212"/>
</linearGradient>
<linearGradient id="paint2_linear_749_3323" x1="180.504" y1="103.737" x2="137.699" y2="60.9946" gradientUnits="userSpaceOnUse">
<stop stop-color="white"/>
<stop offset="1" stop-color="#95AFDB"/>
</linearGradient>
<linearGradient id="paint3_linear_749_3323" x1="167.428" y1="116.833" x2="124.623" y2="74.0906" gradientUnits="userSpaceOnUse">
<stop stop-color="white"/>
<stop offset="1" stop-color="#95AFDB"/>
</linearGradient>
<linearGradient id="paint4_linear_749_3323" x1="58.9695" y1="111.22" x2="102.712" y2="67.5405" gradientUnits="userSpaceOnUse">
<stop stop-color="#F03C3C"/>
<stop offset="1" stop-color="#B31212"/>
</linearGradient>
<linearGradient id="paint5_linear_749_3323" x1="66.4506" y1="116.837" x2="109.256" y2="74.0944" gradientUnits="userSpaceOnUse">
<stop stop-color="white"/>
<stop offset="1" stop-color="#95AFDB"/>
</linearGradient>
<linearGradient id="paint6_linear_749_3323" x1="53.3736" y1="103.741" x2="96.1786" y2="60.9984" gradientUnits="userSpaceOnUse">
<stop stop-color="white"/>
<stop offset="1" stop-color="#95AFDB"/>
</linearGradient>
<linearGradient id="paint7_linear_749_3323" x1="116.934" y1="127.765" x2="116.934" y2="74.1937" gradientUnits="userSpaceOnUse">
<stop stop-color="#B57E10"/>
<stop offset="0.2" stop-color="#F9DF7B"/>
<stop offset="0.35" stop-color="#FFF3A6"/>
<stop offset="0.75" stop-color="#B57E10"/>
<stop offset="1" stop-color="#B57E10"/>
</linearGradient>
<linearGradient id="paint8_linear_749_3323" x1="116.935" y1="69.2029" x2="54.2524" y2="69.2029" gradientUnits="userSpaceOnUse">
<stop stop-color="#B57E10"/>
<stop offset="0.2" stop-color="#F9DF7B"/>
<stop offset="0.35" stop-color="#FFF3A6"/>
<stop offset="0.75" stop-color="#B57E10"/>
<stop offset="1" stop-color="#B57E10"/>
</linearGradient>
<linearGradient id="paint9_linear_749_3323" x1="54.2524" y1="64.892" x2="116.935" y2="64.892" gradientUnits="userSpaceOnUse">
<stop stop-color="#B57E10"/>
<stop offset="0.2" stop-color="#F9DF7B"/>
<stop offset="0.35" stop-color="#FFF3A6"/>
<stop offset="0.75" stop-color="#B57E10"/>
<stop offset="1" stop-color="#B57E10"/>
</linearGradient>
<linearGradient id="paint10_linear_749_3323" x1="116.941" y1="69.2029" x2="179.624" y2="69.2029" gradientUnits="userSpaceOnUse">
<stop stop-color="#B57E10"/>
<stop offset="0.2" stop-color="#F9DF7B"/>
<stop offset="0.35" stop-color="#FFF3A6"/>
<stop offset="0.75" stop-color="#B57E10"/>
<stop offset="1" stop-color="#B57E10"/>
</linearGradient>
<linearGradient id="paint11_linear_749_3323" x1="179.624" y1="64.892" x2="116.942" y2="64.892" gradientUnits="userSpaceOnUse">
<stop stop-color="#B57E10"/>
<stop offset="0.2" stop-color="#F9DF7B"/>
<stop offset="0.35" stop-color="#FFF3A6"/>
<stop offset="0.75" stop-color="#B57E10"/>
<stop offset="1" stop-color="#B57E10"/>
</linearGradient>
<linearGradient id="paint12_linear_749_3323" x1="116.933" y1="49.8203" x2="33.125" y2="49.8203" gradientUnits="userSpaceOnUse">
<stop stop-color="#B57E10"/>
<stop offset="0.2" stop-color="#F9DF7B"/>
<stop offset="0.35" stop-color="#FFF3A6"/>
<stop offset="0.75" stop-color="#B57E10"/>
<stop offset="1" stop-color="#B57E10"/>
</linearGradient>
<linearGradient id="paint13_linear_749_3323" x1="33.125" y1="45.5011" x2="116.933" y2="45.5011" gradientUnits="userSpaceOnUse">
<stop stop-color="#B57E10"/>
<stop offset="0.2" stop-color="#F9DF7B"/>
<stop offset="0.35" stop-color="#FFF3A6"/>
<stop offset="0.75" stop-color="#B57E10"/>
<stop offset="1" stop-color="#B57E10"/>
</linearGradient>
<linearGradient id="paint14_linear_749_3323" x1="116.941" y1="49.8203" x2="200.749" y2="49.8203" gradientUnits="userSpaceOnUse">
<stop stop-color="#B57E10"/>
<stop offset="0.2" stop-color="#F9DF7B"/>
<stop offset="0.35" stop-color="#FFF3A6"/>
<stop offset="0.75" stop-color="#B57E10"/>
<stop offset="1" stop-color="#B57E10"/>
</linearGradient>
<linearGradient id="paint15_linear_749_3323" x1="200.75" y1="45.5011" x2="116.942" y2="45.5011" gradientUnits="userSpaceOnUse">
<stop stop-color="#B57E10"/>
<stop offset="0.2" stop-color="#F9DF7B"/>
<stop offset="0.35" stop-color="#FFF3A6"/>
<stop offset="0.75" stop-color="#B57E10"/>
<stop offset="1" stop-color="#B57E10"/>
</linearGradient>
<linearGradient id="paint16_linear_749_3323" x1="116.934" y1="30.4377" x2="12" y2="30.4377" gradientUnits="userSpaceOnUse">
<stop stop-color="#B57E10"/>
<stop offset="0.2" stop-color="#F9DF7B"/>
<stop offset="0.35" stop-color="#FFF3A6"/>
<stop offset="0.75" stop-color="#B57E10"/>
<stop offset="1" stop-color="#B57E10"/>
</linearGradient>
<linearGradient id="paint17_linear_749_3323" x1="12" y1="26.1184" x2="116.934" y2="26.1184" gradientUnits="userSpaceOnUse">
<stop stop-color="#B57E10"/>
<stop offset="0.2" stop-color="#F9DF7B"/>
<stop offset="0.35" stop-color="#FFF3A6"/>
<stop offset="0.75" stop-color="#B57E10"/>
<stop offset="1" stop-color="#B57E10"/>
</linearGradient>
<linearGradient id="paint18_linear_749_3323" x1="116.941" y1="30.4377" x2="221.875" y2="30.4377" gradientUnits="userSpaceOnUse">
<stop stop-color="#B57E10"/>
<stop offset="0.2" stop-color="#F9DF7B"/>
<stop offset="0.35" stop-color="#FFF3A6"/>
<stop offset="0.75" stop-color="#B57E10"/>
<stop offset="1" stop-color="#B57E10"/>
</linearGradient>
<linearGradient id="paint19_linear_749_3323" x1="221.876" y1="26.1184" x2="116.942" y2="26.1184" gradientUnits="userSpaceOnUse">
<stop stop-color="#B57E10"/>
<stop offset="0.2" stop-color="#F9DF7B"/>
<stop offset="0.35" stop-color="#FFF3A6"/>
<stop offset="0.75" stop-color="#B57E10"/>
<stop offset="1" stop-color="#B57E10"/>
</linearGradient>
<radialGradient id="paint20_radial_749_3323" cx="0" cy="0" r="1" gradientUnits="userSpaceOnUse" gradientTransform="translate(116.934 58.3427) scale(45.3228 45.3892)">
<stop stop-color="#293650"/>
<stop offset="1" stop-color="#040D1F"/>
</radialGradient>
<linearGradient id="paint21_linear_749_3323" x1="116.934" y1="4.00829" x2="116.934" y2="112.909" gradientUnits="userSpaceOnUse">
<stop stop-color="#E5E8FC"/>
<stop offset="0.35" stop-color="white"/>
<stop offset="0.6" stop-color="#93B4D9"/>
<stop offset="1" stop-color="#49678A"/>
</linearGradient>
<linearGradient id="paint22_linear_749_3323" x1="116.934" y1="108.142" x2="116.934" y2="8.54308" gradientUnits="userSpaceOnUse">
<stop stop-color="#E5E8FC"/>
<stop offset="0.35" stop-color="white"/>
<stop offset="0.75" stop-color="#93B4D9"/>
<stop offset="1" stop-color="#93B4D9"/>
</linearGradient>
<linearGradient id="paint23_linear_749_3323" x1="116.934" y1="5.70782" x2="116.934" y2="111.127" gradientUnits="userSpaceOnUse">
<stop stop-color="#C2D2ED"/>
<stop offset="0.2" stop-color="#E5E8FC"/>
<stop offset="0.35" stop-color="white"/>
<stop offset="0.75" stop-color="#93B4D9"/>
<stop offset="1" stop-color="#93B4D9"/>
</linearGradient>
<linearGradient id="paint24_linear_749_3323" x1="116.934" y1="30.4957" x2="116.934" y2="74.8487" gradientUnits="userSpaceOnUse">
<stop stop-color="#B57E10"/>
<stop offset="0.2" stop-color="#F9DF7B"/>
<stop offset="0.35" stop-color="#FFF3A6"/>
<stop offset="0.75" stop-color="#B57E10"/>
<stop offset="1" stop-color="#B57E10"/>
</linearGradient>
<linearGradient id="paint25_linear_749_3323" x1="120.535" y1="30.4957" x2="120.535" y2="55.01" gradientUnits="userSpaceOnUse">
<stop stop-color="#B57E10"/>
<stop offset="0.2" stop-color="#F9DF7B"/>
<stop offset="0.35" stop-color="#FFF3A6"/>
<stop offset="0.75" stop-color="#B57E10"/>
<stop offset="1" stop-color="#B57E10"/>
</linearGradient>
<linearGradient id="paint26_linear_749_3323" x1="94.7662" y1="44.0094" x2="118.053" y2="51.5647" gradientUnits="userSpaceOnUse">
<stop stop-color="#B57E10"/>
<stop offset="0.2" stop-color="#F9DF7B"/>
<stop offset="0.35" stop-color="#FFF3A6"/>
<stop offset="0.75" stop-color="#B57E10"/>
<stop offset="1" stop-color="#B57E10"/>
</linearGradient>
<linearGradient id="paint27_linear_749_3323" x1="99.6389" y1="72.7211" x2="114.055" y2="52.9086" gradientUnits="userSpaceOnUse">
<stop stop-color="#B57E10"/>
<stop offset="0.2" stop-color="#F9DF7B"/>
<stop offset="0.35" stop-color="#FFF3A6"/>
<stop offset="0.75" stop-color="#B57E10"/>
<stop offset="1" stop-color="#B57E10"/>
</linearGradient>
<linearGradient id="paint28_linear_749_3323" x1="128.413" y1="76.9631" x2="113.998" y2="57.1507" gradientUnits="userSpaceOnUse">
<stop stop-color="#B57E10"/>
<stop offset="0.2" stop-color="#F9DF7B"/>
<stop offset="0.35" stop-color="#FFF3A6"/>
<stop offset="0.75" stop-color="#B57E10"/>
<stop offset="1" stop-color="#B57E10"/>
</linearGradient>
<linearGradient id="paint29_linear_749_3323" x1="141.328" y1="50.8573" x2="118.041" y2="58.4126" gradientUnits="userSpaceOnUse">
<stop stop-color="#B57E10"/>
<stop offset="0.2" stop-color="#F9DF7B"/>
<stop offset="0.35" stop-color="#FFF3A6"/>
<stop offset="0.75" stop-color="#B57E10"/>
<stop offset="1" stop-color="#B57E10"/>
</linearGradient>
</defs>
</svg>
