<svg width="65" height="64" viewBox="0 0 65 64" fill="none" xmlns="http://www.w3.org/2000/svg">
<path d="M54.9568 49.1068C60.1047 45.5383 57.5552 37.2156 51.1929 37.2305C44.8248 37.222 42.2789 45.5396 47.4352 49.1111C45.7312 49.8669 44.2997 51.1197 43.3158 52.6845C42.3288 49.5456 39.7593 46.8185 36.6812 45.6407C43.3583 41.4928 40.4716 31.0408 32.5006 31C24.5239 31.0476 21.6406 41.4949 28.3283 45.6455C25.1976 46.8846 22.745 49.4675 21.6879 52.6844C20.7046 51.1189 19.2734 49.8652 17.5695 49.1087C19.2464 47.9239 20.3464 45.9746 20.3464 43.7695C20.025 35.1153 7.5979 35.102 7.27023 43.7696C7.27023 45.9746 8.37028 47.9239 10.0471 49.1087C6.21588 50.7819 4.14238 54.7234 4.50084 59C4.53427 60.3156 6.47116 60.3173 6.50071 59V57.6152C6.50071 53.5859 9.77903 50.3076 13.8083 50.3076C17.9856 50.2955 21.315 53.8411 21.1159 58C21.1159 58 10.5007 58 10.5007 58C9.20493 58.0125 9.17209 59.9794 10.5008 60C10.5007 60 54.5007 60 54.5007 60C55.8022 59.9784 55.8269 58.0253 54.5007 58H43.8855V57.6191C43.8855 53.5898 47.1638 50.3115 51.1931 50.3115C55.969 50.3539 58.9626 54.411 58.5006 59C58.5086 60.3049 60.4859 60.3189 60.5007 58.9999C60.8575 54.862 58.8722 50.7816 54.9568 49.1068ZM9.27024 43.7695C9.46111 37.7709 18.1564 37.7723 18.3464 43.7696C18.1553 49.7668 9.46049 49.7653 9.27024 43.7695ZM26.5779 38.9228C26.5779 35.6572 29.2351 33 32.5007 33C40.322 33.2766 40.3462 44.5317 32.5301 44.8442C29.2581 44.8623 26.5759 42.1991 26.5779 38.9228ZM23.1159 58C23.1224 57.7654 23.1113 56.4928 23.116 56.2275C23.1159 51.0625 27.3104 46.8601 32.4718 46.8442C38.3215 46.8259 42.4406 51.9189 41.8853 57.6192C41.8855 57.6191 41.8855 58 41.8855 58H23.1159ZM51.1931 39.2304C57.1899 39.4213 57.1895 48.1174 51.193 48.3076C45.1953 48.1165 45.1977 39.4204 51.1931 39.2304Z" fill="white"/>
<path d="M33.2073 4.29296C32.8166 3.90235 32.1838 3.90235 31.7932 4.29296L21.7932 14.293C21.5071 14.5791 21.4211 15.0088 21.5764 15.3828C21.7307 15.7568 22.0959 16 22.5002 16H27.3303V27.7598C27.352 29.0683 29.3069 29.0797 29.3303 27.7597V15C29.3303 14.4473 28.883 14 28.3303 14H24.9143L32.5002 6.41405L40.0862 14H36.6701C36.1174 14 35.6701 14.4473 35.6701 15V27.7598C35.6877 29.0666 37.6491 29.0799 37.6701 27.7597V16H42.5002C42.9045 16 43.2697 15.7568 43.424 15.3828C43.5793 15.0088 43.4934 14.5791 43.2073 14.293L33.2073 4.29296Z" fill="white"/>
<path d="M53.5297 28.0195V33.7695C53.5489 35.0803 55.5087 35.0866 55.5297 33.7695V29.0195H59.1899C60.052 29.0488 60.5303 27.9028 59.8969 27.3125C59.8969 27.3125 51.8969 19.3125 51.8969 19.3125C51.5063 18.9219 50.8735 18.9219 50.4829 19.3125L42.4829 27.3125C41.8533 27.9031 42.324 29.0487 43.1899 29.0195C43.1899 29.0195 46.8598 29.0195 46.8598 29.0195V33.7695C46.8821 35.0816 48.837 35.0864 48.8598 33.7695V28.0195C48.8598 27.4668 48.4125 27.0195 47.8598 27.0195H45.604L51.1899 21.4336L56.7758 27.0195H54.5297C53.977 27.0195 53.5297 27.4668 53.5297 28.0195Z" fill="white"/>
<path d="M13.1018 19.3125L5.10178 27.3125C4.81565 27.5986 4.72971 28.0283 4.88498 28.4023C5.03928 28.7764 5.40451 29.0195 5.80881 29.0195H9.46897V33.7695C9.49127 35.0816 11.4462 35.0864 11.469 33.7695V28.0195C11.469 27.4668 11.0217 27.0195 10.469 27.0195H8.22288L13.8088 21.4336L19.3948 27.0195H17.1389C16.5862 27.0195 16.1389 27.4668 16.1389 28.0195V33.7695C16.1389 34.3223 16.5862 34.7695 17.1389 34.7695C17.6916 34.7695 18.1389 34.3223 18.1389 33.7695V29.0195H21.8088C22.6709 29.0488 23.1493 27.9028 22.5158 27.3125C22.5159 27.3125 14.5159 19.3125 14.5159 19.3125C14.1252 18.9219 13.4924 18.9219 13.1018 19.3125Z" fill="white"/>
</svg>
