<svg width="32" height="32" viewBox="0 0 32 32" fill="none" xmlns="http://www.w3.org/2000/svg">
<g clip-path="url(#clip0_807_22098)">
<path d="M31.3372 16.6328H23.2565C22.9336 16.6328 22.6544 16.8597 22.602 17.1826C22.4275 18.1163 22.0697 18.9802 21.5374 19.7482C21.3541 20.01 21.389 20.3677 21.6159 20.6034L27.3318 26.3192C27.4539 26.4414 27.6285 26.5112 27.803 26.5112C27.8117 26.5112 27.8205 26.5112 27.8292 26.5112C28.0124 26.5112 28.1957 26.4152 28.3091 26.2756C30.4384 23.7449 31.7125 20.6644 31.9917 17.3658C32.0092 17.1826 31.9481 16.9906 31.8172 16.8597C31.6863 16.7201 31.5118 16.6415 31.3285 16.6415L31.3372 16.6328Z" fill="black"/>
<path d="M27.7419 24.8442L22.9336 20.0359C23.3176 19.3902 23.5968 18.7008 23.7888 17.9678H30.578C30.2377 20.4723 29.269 22.8284 27.7332 24.8355L27.7419 24.8442Z" fill="#2EEECE"/>
<path d="M20.673 21.5458C20.4461 21.3189 20.0884 21.284 19.8178 21.4673C18.7008 22.2352 17.3919 22.6454 16.0305 22.6454C12.348 22.6454 9.34606 19.6522 9.34606 15.9609C9.34606 12.7408 11.6411 9.97451 14.8088 9.39856C15.123 9.33747 15.3586 9.06695 15.3586 8.74407V0.672077C15.3586 0.488821 15.2801 0.305565 15.1404 0.183394C15.0008 0.0524972 14.8176 -0.0173146 14.6343 0.00886483C6.43142 0.71571 0 7.72307 0 15.9696C0 24.8095 7.19062 32.0001 16.0305 32.0001C19.7917 32.0001 23.448 30.665 26.3365 28.239C26.4761 28.1169 26.5634 27.9423 26.5721 27.7591C26.5721 27.5758 26.511 27.3926 26.3801 27.2617L20.6643 21.5458H20.673Z" fill="black"/>
<path d="M16.0313 30.6647C7.92443 30.6647 1.33594 24.0675 1.33594 15.9693C1.33594 8.65655 6.8598 2.39967 14.033 1.41357V8.20278C10.5162 9.1016 8.02042 12.2868 8.02042 15.9606C8.02042 20.3849 11.6157 23.9802 16.0401 23.9802C17.4799 23.9802 18.8762 23.5963 20.1066 22.872L24.9149 27.6803C22.3668 29.6088 19.2427 30.6647 16.0401 30.6647H16.0313Z" fill="white"/>
<path d="M17.2529 9.40714C19.9581 9.90455 22.1048 12.0513 22.6022 14.7565C22.6633 15.0706 22.9338 15.3062 23.2567 15.3062H31.3374C31.5207 15.3062 31.7039 15.2277 31.8261 15.0881C31.957 14.9485 32.0181 14.7652 32.0006 14.5819C31.3287 6.80664 25.2027 0.67193 17.4274 -8.77818e-06C17.2442 -0.0174617 17.0522 0.0436236 16.9213 0.174521C16.7817 0.305418 16.7031 0.479948 16.7031 0.663204V8.74393C16.7031 9.0668 16.93 9.34605 17.2529 9.39841V9.40714Z" fill="black"/>
<path d="M18.0371 1.41357C24.5732 2.30368 29.6957 7.42612 30.5858 13.9623H23.7879C23.0636 11.1611 20.8383 8.9358 18.0371 8.2115V1.41357Z" fill="white"/>
</g>
<defs>
<clipPath id="clip0_807_22098">
<rect width="32" height="32" fill="white"/>
</clipPath>
</defs>
</svg>
