<svg width="36" height="26" viewBox="0 0 36 26" fill="none" xmlns="http://www.w3.org/2000/svg">
<g clip-path="url(#clip0_242_2153)">
<path d="M18 16.0435C18.6078 16.0435 19.1006 15.5511 19.1006 14.9437C19.1006 14.3364 18.6078 13.844 18 13.844C17.3922 13.844 16.8994 14.3364 16.8994 14.9437C16.8994 15.5511 17.3922 16.0435 18 16.0435Z" fill="black"/>
<path d="M34.5088 0.647064H1.49169C1.18903 0.647064 0.941406 0.894507 0.941406 1.19694V23.1918C0.941406 23.4942 1.18903 23.7417 1.49169 23.7417H9.19568V25.3913C9.19568 25.6937 9.4433 25.9412 9.74596 25.9412H26.2545C26.5572 25.9412 26.8048 25.6937 26.8048 25.3913V23.7417H34.5088C34.8114 23.7417 35.0591 23.4942 35.0591 23.1918V1.19694C35.0591 0.894507 34.8114 0.647064 34.5088 0.647064Z" fill="black"/>
<path d="M25.9105 22.3842H10.0898V25.1507H25.9105V22.3842Z" fill="#2EEECE"/>
<path d="M15.249 21.5422V19.8926C15.249 18.9853 15.9919 18.243 16.8999 18.243H19.101C20.009 18.243 20.7519 18.9853 20.7519 19.8926V21.5422H15.249Z" fill="white"/>
<path d="M34.2166 22.7794H26.9472V22.2178C26.9472 21.9089 26.6956 21.6562 26.3881 21.6562H21.9146V19.9713C21.9146 18.4212 20.6621 17.1631 19.1187 17.1631H16.882C15.3387 17.1631 14.0861 18.4212 14.0861 19.9713V21.6562H9.61269C9.30514 21.6562 9.05351 21.9089 9.05351 22.2178V22.7794H1.78418V1.4375H34.2166V22.7794Z" fill="white"/>
<path d="M3.89357 19.947H4.42092V21.5937H5.47563V19.947H6.00299C6.29304 19.947 6.53035 19.7 6.53035 19.3981V13.9089C6.53035 13.607 6.29304 13.36 6.00299 13.36H5.47563V11.7132H4.42092V13.36H3.89357C3.60352 13.36 3.36621 13.607 3.36621 13.9089V19.3981C3.36621 19.7 3.60352 19.947 3.89357 19.947Z" fill="black"/>
<path d="M8.24415 17.5757H8.77151V19.2224H9.82622V17.5757H10.3536C10.6436 17.5757 10.8809 17.3287 10.8809 17.0268V11.5376C10.8809 11.2357 10.6436 10.9887 10.3536 10.9887H9.82622V9.34192H8.77151V10.9887H8.24415C7.95411 10.9887 7.7168 11.2357 7.7168 11.5376V17.0268C7.7168 17.3287 7.95411 17.5757 8.24415 17.5757Z" fill="black"/>
<path d="M12.9902 12.833H13.5176V14.4798H14.5723V12.833H15.0997C15.3897 12.833 15.627 12.586 15.627 12.2841V6.79494C15.627 6.49304 15.3897 6.24603 15.0997 6.24603H14.5723V4.59927H13.5176V6.24603H12.9902C12.7002 6.24603 12.4629 6.49304 12.4629 6.79494V12.2841C12.4629 12.586 12.7002 12.833 12.9902 12.833Z" fill="black"/>
<path d="M19.7139 10.4617H20.2412V12.1084H21.2959V10.4617H21.8233C22.1133 10.4617 22.3507 10.2147 22.3507 9.91278V4.42361C22.3507 4.1217 22.1133 3.87469 21.8233 3.87469H21.2959V2.22794H20.2412V3.87469H19.7139C19.4238 3.87469 19.1865 4.1217 19.1865 4.42361V9.91278C19.1865 10.2147 19.4238 10.4617 19.7139 10.4617Z" fill="black"/>
<path d="M21.5596 4.59927H19.9775V9.73714H21.5596V4.59927Z" fill="#2EEECE"/>
<path d="M14.836 6.97058H13.2539V12.1084H14.836V6.97058Z" fill="#2EEECE"/>
<path d="M10.0899 11.7132H8.50781V16.8511H10.0899V11.7132Z" fill="#2EEECE"/>
<path d="M5.73929 14.0846H4.15723V19.2224H5.73929V14.0846Z" fill="#2EEECE"/>
<path d="M25.251 13.2282H25.7783V14.875H26.8331V13.2282H27.3604C27.6505 13.2282 27.8878 12.9812 27.8878 12.6793V7.19015C27.8878 6.88824 27.6505 6.64123 27.3604 6.64123H26.8331V4.99448H25.7783V6.64123H25.251C24.9609 6.64123 24.7236 6.88824 24.7236 7.19015V12.6793C24.7236 12.9812 24.9609 13.2282 25.251 13.2282Z" fill="black"/>
<path d="M29.9971 11.2522H30.5244V12.8989H31.5791V11.2522H32.1065C32.3966 11.2522 32.6339 11.0052 32.6339 10.7032V5.21407C32.6339 4.91217 32.3966 4.66515 32.1065 4.66515H31.5791V3.0184H30.5244V4.66515H29.9971C29.707 4.66515 29.4697 4.91217 29.4697 5.21407V10.7032C29.4697 11.0052 29.707 11.2522 29.9971 11.2522Z" fill="black"/>
<path d="M18 17.1432C19.2156 17.1432 20.2011 16.1585 20.2011 14.9438C20.2011 13.729 19.2156 12.7443 18 12.7443C16.7843 12.7443 15.7988 13.729 15.7988 14.9438C15.7988 16.1585 16.7843 17.1432 18 17.1432Z" fill="black"/>
<path d="M17.9998 16.3205C18.7608 16.3205 19.3776 15.7041 19.3776 14.9437C19.3776 14.1834 18.7608 13.567 17.9998 13.567C17.2389 13.567 16.6221 14.1834 16.6221 14.9437C16.6221 15.7041 17.2389 16.3205 17.9998 16.3205Z" fill="white"/>
<path d="M27.0967 7.36581H25.5146V12.5037H27.0967V7.36581Z" fill="#2EEECE"/>
<path d="M31.8428 5.38971H30.2607V10.5276H31.8428V5.38971Z" fill="#2EEECE"/>
</g>
<defs>
<clipPath id="clip0_242_2153">
<rect width="34.1176" height="25.2941" fill="white" transform="translate(0.941406 0.647064)"/>
</clipPath>
</defs>
</svg>
