<svg width="40" height="40" viewBox="0 0 40 40" fill="none" xmlns="http://www.w3.org/2000/svg">
<g clip-path="url(#clip0_807_22105)" filter="url(#filter0_d_807_22105)">
<path d="M29.1094 30.8836V9.94594C29.1094 9.79562 29.1921 9.67432 29.2942 9.67432H34.4707C34.5729 9.67432 34.6556 9.79636 34.6556 9.94594V30.8836H29.1094Z" fill="white"/>
<path d="M5.46289 30.8839V21.8844C5.46289 21.8197 5.54558 21.7676 5.64776 21.7676H10.8242C10.9264 21.7676 11.0091 21.8197 11.0091 21.8844V30.8839H5.46289Z" fill="white"/>
<path d="M35.4958 30.8837H35.1597V14.0279C35.1597 13.7198 34.9338 13.4697 34.6555 13.4697C34.3771 13.4697 34.1513 13.7198 34.1513 14.0279V30.8837H29.1092V9.86043C29.1092 9.75773 29.1845 9.67438 29.2773 9.67438H33.9832C34.076 9.67438 34.1513 9.75773 34.1513 9.86043V11.7953C34.1513 12.1034 34.3771 12.3535 34.6555 12.3535C34.9338 12.3535 35.1597 12.1034 35.1597 11.7953V9.86043C35.159 9.14155 34.6326 8.55885 33.9832 8.55811H29.2773C28.6279 8.55885 28.1015 9.14155 28.1008 9.86043V30.8837H27.4064V16.5581C27.4057 15.8392 26.8793 15.2565 26.2299 15.2558H21.524C20.8746 15.2565 20.3482 15.8392 20.3476 16.5581V30.8837H19.6531V12.8372C19.6524 12.1183 19.1261 11.5356 18.4766 11.5348H13.7708C13.1213 11.5356 12.595 12.1183 12.5943 12.8372V30.8837H11.8998V22.5116C11.8992 21.7927 11.3728 21.21 10.7234 21.2093H6.01681C5.3674 21.21 4.84101 21.7927 4.84034 22.5116V29.7302C4.84034 30.0383 5.06622 30.2883 5.34454 30.2883C5.62286 30.2883 5.84874 30.0383 5.84874 29.7302V22.5116C5.84874 22.4089 5.92403 22.3255 6.01681 22.3255H10.7227C10.8155 22.3255 10.8908 22.4089 10.8908 22.5116V30.8837H4.5042C4.22588 30.8837 4 31.1337 4 31.4418C4 31.7499 4.22588 32 4.5042 32H35.4958C35.7741 32 36 31.7499 36 31.4418C36 31.1337 35.7741 30.8837 35.4958 30.8837Z" fill="#1E1F1F"/>
<path d="M13.6016 30.8839V12.8374C13.6016 12.7347 13.6769 12.6514 13.7696 12.6514H18.4755C18.5683 12.6514 18.6436 12.7347 18.6436 12.8374V30.8839H13.6016Z" fill="white"/>
<path d="M21.3555 30.8837V16.5581C21.3555 16.4554 21.4308 16.3721 21.5235 16.3721H26.2294C26.3222 16.3721 26.3975 16.4554 26.3975 16.5581V30.8837H21.3555Z" fill="#2EEECE"/>
<path d="M31.6294 0C30.6089 0 29.7806 0.915349 29.7806 2.04577C29.7806 2.3866 29.8573 2.72223 30.0045 3.0214L25.2152 7.3347C24.5141 6.51609 23.3463 6.48112 22.6068 7.2573C22.5544 7.31237 22.5047 7.37116 22.4583 7.43219L17.9709 5.0493C17.9709 5.04037 17.9709 5.03144 17.9709 5.02251C17.9716 3.89209 17.1447 2.97526 16.1242 2.97377C15.103 2.97302 14.2747 3.88837 14.2734 5.01805C14.2734 5.37526 14.3568 5.72577 14.5168 6.03535L9.05458 12.7963C8.10534 12.3751 7.02769 12.8848 6.64719 13.9356C6.26668 14.9864 6.72719 16.1794 7.67643 16.6006C8.62567 17.0218 9.70332 16.512 10.0838 15.4612C10.3225 14.8019 10.2358 14.0517 9.85458 13.4802L15.2374 6.81749C16.0872 7.33098 17.1514 7.03107 17.6751 6.12912L22.0462 8.45023C21.9003 9.56875 22.6008 10.6069 23.6112 10.7684C24.6216 10.9299 25.5594 10.1544 25.7053 9.03591C25.7356 8.80595 25.7295 8.57228 25.6892 8.34456L30.7124 3.82065C31.5984 4.38102 32.7278 4.04019 33.2341 3.05935C33.7403 2.07851 33.4324 0.828279 32.5463 0.267907C32.2673 0.0930233 31.9507 0 31.6294 0Z" fill="#1E1F1F"/>
<path d="M8.36963 15.628C7.90577 15.628 7.5293 15.2113 7.5293 14.6978C7.5293 14.1843 7.90577 13.7676 8.36963 13.7676C8.8335 13.7676 9.20997 14.1843 9.20997 14.6978C9.20997 15.2113 8.8335 15.6273 8.36963 15.628Z" fill="#2EEECE"/>
<path d="M16.1235 5.95373C15.6597 5.95373 15.2832 5.53698 15.2832 5.02349C15.2832 4.51001 15.6597 4.09326 16.1235 4.09326C16.5874 4.09326 16.9639 4.51001 16.9639 5.02349C16.9639 5.53698 16.5874 5.95298 16.1235 5.95373Z" fill="#2EEECE"/>
<path d="M23.8774 9.67443C23.4136 9.67443 23.0371 9.25769 23.0371 8.7442C23.0371 8.23071 23.4136 7.81396 23.8774 7.81396C24.3413 7.81396 24.7178 8.23071 24.7178 8.7442C24.7178 9.25769 24.3413 9.67369 23.8774 9.67443Z" fill="#2EEECE"/>
<path d="M31.6294 2.97668C31.1655 2.97668 30.7891 2.55993 30.7891 2.04644C30.7891 1.53296 31.1655 1.11621 31.6294 1.11621C32.0933 1.11621 32.4697 1.53296 32.4697 2.04644C32.4697 2.55993 32.0933 2.97593 31.6294 2.97668Z" fill="#2EEECE"/>
</g>
<defs>
<filter id="filter0_d_807_22105" x="0" y="0" width="40" height="40" filterUnits="userSpaceOnUse" color-interpolation-filters="sRGB">
<feFlood flood-opacity="0" result="BackgroundImageFix"/>
<feColorMatrix in="SourceAlpha" type="matrix" values="0 0 0 0 0 0 0 0 0 0 0 0 0 0 0 0 0 0 127 0" result="hardAlpha"/>
<feOffset dy="4"/>
<feGaussianBlur stdDeviation="2"/>
<feComposite in2="hardAlpha" operator="out"/>
<feColorMatrix type="matrix" values="0 0 0 0 0 0 0 0 0 0 0 0 0 0 0 0 0 0 0.25 0"/>
<feBlend mode="normal" in2="BackgroundImageFix" result="effect1_dropShadow_807_22105"/>
<feBlend mode="normal" in="SourceGraphic" in2="effect1_dropShadow_807_22105" result="shape"/>
</filter>
<clipPath id="clip0_807_22105">
<rect width="32" height="32" fill="white" transform="translate(4)"/>
</clipPath>
</defs>
</svg>
