<svg width="30" height="30" viewBox="0 0 30 30" fill="none" xmlns="http://www.w3.org/2000/svg">
<g clip-path="url(#clip0_804_22047)">
<path d="M20.4524 8.86024C19.7201 7.84289 18.6275 7.26324 17.4582 7.26324H16.2417L15.0015 9.24471L13.7672 7.25732H12.5506C11.3813 7.25732 10.2888 7.83698 9.55059 8.85433C8.88325 9.78295 8.58206 10.9896 8.73561 12.1725L8.90688 13.5389H21.0902L21.2674 12.1725C21.415 10.9955 21.1197 9.78887 20.4524 8.86024Z" fill="black"/>
<path d="M20.3103 12.0544L20.2453 12.5749H9.75691L9.69195 12.0544C9.57383 11.114 9.81006 10.1558 10.3357 9.42825C10.8908 8.66524 11.6999 8.22754 12.5562 8.22754H13.2294L15.0011 11.0785L16.7728 8.22754H17.4519C18.3083 8.22754 19.1173 8.66524 19.6666 9.42825C20.1922 10.1617 20.4284 11.1199 20.3103 12.0544Z" fill="white"/>
<path d="M15.0012 0C13.4008 0 12.1016 1.30126 12.1016 2.90418C12.1016 4.5071 13.3181 6.77839 15.0012 6.77839C16.6843 6.77839 17.9009 4.46569 17.9009 2.90418C17.9009 1.30126 16.6017 0 15.0012 0Z" fill="black"/>
<path d="M15.0015 5.80854C14.0684 5.80854 13.0703 4.10507 13.0703 2.90436C13.0703 1.83969 13.9384 0.970215 15.0015 0.970215C16.0645 0.970215 16.9326 1.83969 16.9326 2.90436C16.9326 4.10507 15.9345 5.80854 15.0015 5.80854Z" fill="#2EEECE"/>
<path d="M11.7536 25.3212C11.0213 24.2979 9.92873 23.7183 8.75942 23.7183H7.54285L6.30858 25.7056L5.0743 23.7183H3.85774C2.68843 23.7183 1.59589 24.2979 0.857683 25.3153C0.190347 26.2439 -0.11084 27.4564 0.036801 28.6335L0.208064 29.9998H12.3914L12.5685 28.6335C12.7162 27.4564 12.4209 26.2498 11.7536 25.3212Z" fill="black"/>
<path d="M11.6114 28.5095L11.5465 29.03H1.06397L0.999013 28.5095C0.8809 27.575 1.11122 26.6168 1.64273 25.8833C2.19786 25.1203 3.00693 24.6826 3.86324 24.6826H4.54239L6.31408 27.5336L8.08577 24.6826H8.76491C9.62123 24.6826 10.4303 25.1203 10.9795 25.8833C11.4933 26.6168 11.7295 27.575 11.6114 28.5095Z" fill="white"/>
<path d="M6.30884 16.4551C4.70842 16.4551 3.40918 17.7563 3.40918 19.3593C3.40918 20.9622 4.62574 23.2335 6.30884 23.2335C7.99195 23.2335 9.20851 20.9208 9.20851 19.3593C9.20851 17.7977 7.90927 16.4551 6.30884 16.4551Z" fill="black"/>
<path d="M6.30814 22.2636C5.37505 22.2636 4.37109 20.5601 4.37109 19.3594C4.37109 18.2948 5.23922 17.4253 6.30814 17.4253C7.37706 17.4253 8.23928 18.2948 8.23928 19.3594C8.23928 20.5601 7.24123 22.2636 6.30814 22.2636Z" fill="#2EEECE"/>
<path d="M29.1457 25.3153C28.4134 24.2979 27.3209 23.7183 26.1515 23.7183H24.935L23.7007 25.7056L22.4664 23.7183H21.2499C20.0806 23.7183 18.988 24.2979 18.2498 25.3153C17.5825 26.2439 17.2813 27.4505 17.4348 28.6335L17.6061 29.9998H29.7894L29.9607 28.6335C30.1142 27.4564 29.813 26.2439 29.1457 25.3153Z" fill="black"/>
<path d="M29.004 28.5095L28.939 29.03H18.4566L18.3916 28.5095C18.2735 27.575 18.5038 26.6168 19.0353 25.8833C19.5904 25.1203 20.3995 24.6826 21.2558 24.6826H21.935L23.7067 27.5336L25.4783 24.6826H26.1575C27.0138 24.6826 27.8229 25.1203 28.3721 25.8833C28.8918 26.6168 29.1221 27.575 29.004 28.5095Z" fill="white"/>
<path d="M23.7004 16.4551C22.1 16.4551 20.8008 17.7563 20.8008 19.3593C20.8008 20.9622 22.0173 23.2335 23.7004 23.2335C25.3835 23.2335 26.6001 20.9208 26.6001 19.3593C26.6001 17.7977 25.3009 16.4551 23.7004 16.4551Z" fill="black"/>
<path d="M23.7007 22.2636C22.7676 22.2636 21.7695 20.5601 21.7695 19.3594C21.7695 18.2948 22.6318 17.4253 23.7007 17.4253C24.7696 17.4253 25.6318 18.2948 25.6318 19.3594C25.6318 20.5601 24.6338 22.2636 23.7007 22.2636Z" fill="#2EEECE"/>
<path d="M16.6612 20.8144C16.8324 20.5246 16.9328 20.1934 16.9328 19.8385C16.9328 18.9394 16.3127 18.1882 15.4859 17.9694V14.5151H14.5174V17.9694C13.6847 18.1882 13.0705 18.9394 13.0705 19.8385C13.0705 20.1993 13.1768 20.5305 13.3422 20.8144L10.7969 23.3637L11.4819 24.0498L14.0273 21.5005C14.3166 21.6721 14.6473 21.7726 15.0017 21.7726C15.356 21.7785 15.6867 21.6721 15.9761 21.5005L18.5273 24.0558L19.2124 23.3696L16.6612 20.8144Z" fill="black"/>
<path d="M15.0017 20.8141C15.5366 20.8141 15.9702 20.3798 15.9702 19.8441C15.9702 19.3083 15.5366 18.874 15.0017 18.874C14.4668 18.874 14.0332 19.3083 14.0332 19.8441C14.0332 20.3798 14.4668 20.8141 15.0017 20.8141Z" fill="#2EEECE"/>
</g>
<defs>
<clipPath id="clip0_804_22047">
<rect width="30" height="30" fill="white"/>
</clipPath>
</defs>
</svg>
