<svg width="32" height="32" viewBox="0 0 32 32" fill="none" xmlns="http://www.w3.org/2000/svg">
<g clip-path="url(#clip0_807_22154)">
<path d="M31.4549 13.5771H0.545109C0.292714 13.5771 0.0878906 13.3723 0.0878906 13.1199V9.78527C0.0878906 9.62538 0.171802 9.47672 0.308571 9.39413L15.7608 0.0654186C15.9062 -0.0224572 16.0879 -0.0224572 16.2332 0.0654186L31.6915 9.39413C31.8282 9.47672 31.9121 9.62538 31.9121 9.78527V13.1199C31.9121 13.3723 31.708 13.5771 31.4556 13.5771H31.4549Z" fill="black"/>
<path d="M1.00293 12.6628H30.9976V10.0437L15.9973 0.991211L1.00293 10.0424V12.6628Z" fill="white"/>
<path d="M15.9997 10.2001C14.4899 10.2001 13.2656 8.97574 13.2656 7.46599C13.2656 5.95625 14.4899 4.73193 15.9997 4.73193C17.5094 4.73193 18.7337 5.95625 18.7337 7.46599C18.7318 8.97508 17.5088 10.1987 15.9997 10.2001Z" fill="black"/>
<path d="M16.0003 5.646C14.9953 5.646 14.1807 6.46066 14.1807 7.46562C14.1807 8.47058 14.9953 9.28524 16.0003 9.28524C17.0052 9.28524 17.8199 8.47058 17.8199 7.46562C17.8186 6.46133 17.0046 5.64666 16.0003 5.646Z" fill="#2EEECE"/>
<path d="M28.7879 16.4654H23.9236C23.3785 16.4647 22.9365 16.0227 22.9365 15.4776V13.1208C22.9365 12.8684 23.1413 12.6636 23.3937 12.6636H29.3191C29.5715 12.6636 29.7763 12.8684 29.7763 13.1208V15.4789C29.775 16.0233 29.3336 16.4647 28.7892 16.4654H28.7879Z" fill="black"/>
<path d="M23.8496 13.5757V15.4772C23.8496 15.5175 23.882 15.5506 23.9229 15.5506H28.7872C28.8275 15.5506 28.8605 15.5175 28.8605 15.4772V13.577L23.8503 13.5757H23.8496Z" fill="white"/>
<path d="M28.3724 15.5503H24.3381C24.0856 15.5503 23.8809 15.755 23.8809 16.0075V25.2417C23.8809 25.4943 24.0856 25.699 24.3381 25.699H28.3724C28.625 25.699 28.8297 25.4943 28.8297 25.2417V16.0075C28.8297 15.755 28.625 15.5503 28.3724 15.5503Z" fill="black"/>
<path d="M27.9155 16.4644H24.7949V24.7841H27.9155V16.4644Z" fill="#2EEECE"/>
<path d="M29.3171 28.5883H23.3918C23.1394 28.5883 22.9346 28.3834 22.9346 28.131V25.7729C22.9346 25.2278 23.3766 24.7858 23.9217 24.7852H28.7859C29.331 24.7858 29.773 25.2278 29.773 25.7729V28.131C29.773 28.3834 29.5682 28.5883 29.3158 28.5883H29.3171Z" fill="black"/>
<path d="M23.8496 27.6736H28.8605V25.7721C28.8605 25.7318 28.8281 25.6987 28.7872 25.6987H23.9229C23.8826 25.6987 23.8496 25.7318 23.8496 25.7721V27.6736Z" fill="white"/>
<path d="M18.4324 16.4654H13.5682C13.0231 16.4647 12.5811 16.0227 12.5811 15.4776V13.1208C12.5811 12.8684 12.7859 12.6636 13.0383 12.6636H18.963C19.2153 12.6636 19.4202 12.8684 19.4202 13.1208V15.4789C19.4188 16.0233 18.9775 16.4647 18.4331 16.4654H18.4324Z" fill="black"/>
<path d="M13.4951 13.5771V15.4787C13.4951 15.519 13.5275 15.552 13.5685 15.552H18.4327C18.473 15.552 18.506 15.519 18.506 15.4787V13.5771H13.4958H13.4951Z" fill="white"/>
<path d="M18.0109 15.5503H13.9885C13.736 15.5503 13.5312 15.755 13.5312 16.0075V25.2417C13.5312 25.4943 13.736 25.699 13.9885 25.699H18.0109C18.2634 25.699 18.4681 25.4943 18.4681 25.2417V16.0075C18.4681 15.755 18.2634 15.5503 18.0109 15.5503Z" fill="black"/>
<path d="M17.555 16.4644H14.4463V24.7841H17.555V16.4644Z" fill="#2EEECE"/>
<path d="M18.963 28.5883H13.0383C12.7859 28.5883 12.5811 28.3834 12.5811 28.131V25.7729C12.5811 25.2278 13.0231 24.7858 13.5682 24.7852H18.4324C18.9775 24.7858 19.4195 25.2278 19.4195 25.7729V28.131C19.4195 28.3834 19.2147 28.5883 18.9623 28.5883H18.963Z" fill="black"/>
<path d="M13.4941 27.6736H18.505V25.7721C18.505 25.7318 18.4727 25.6987 18.4317 25.6987H13.5675C13.5272 25.6987 13.4941 25.7318 13.4941 25.7721V27.6736Z" fill="white"/>
<path d="M8.53493 16.4654H3.67071C3.12562 16.4647 2.68359 16.0227 2.68359 15.4776V13.1208C2.68359 12.8684 2.88842 12.6636 3.14081 12.6636H9.06615C9.31855 12.6636 9.52337 12.8684 9.52337 13.1208V15.4789C9.52205 16.0233 9.08069 16.4647 8.53625 16.4654H8.53493Z" fill="black"/>
<path d="M3.59668 13.5771V15.4787C3.59668 15.519 3.62906 15.552 3.67002 15.552H8.53424C8.57455 15.552 8.60758 15.519 8.60758 15.4787V13.5771H3.59668Z" fill="white"/>
<path d="M8.13726 15.5503H4.06855C3.81603 15.5503 3.61133 15.755 3.61133 16.0075V25.2417C3.61133 25.4943 3.81603 25.699 4.06855 25.699H8.13726C8.38978 25.699 8.59448 25.4943 8.59448 25.2417V16.0075C8.59448 15.755 8.38978 15.5503 8.13726 15.5503Z" fill="black"/>
<path d="M7.68064 16.4644H4.52637V24.7841H7.68064V16.4644Z" fill="#2EEECE"/>
<path d="M9.06517 28.5883H3.13984C2.88744 28.5883 2.68262 28.3834 2.68262 28.131V25.7729C2.68262 25.2278 3.12464 24.7858 3.66973 24.7852H8.53396C9.07905 24.7858 9.52107 25.2278 9.52107 25.7729V28.131C9.52107 28.3834 9.31625 28.5883 9.06385 28.5883H9.06517Z" fill="black"/>
<path d="M3.59668 27.6736H8.60758V25.7721C8.60758 25.7318 8.57521 25.6987 8.53424 25.6987H3.67002C3.62972 25.6987 3.59668 25.7318 3.59668 25.7721V27.6736Z" fill="white"/>
<path d="M31.5428 27.6738H0.457218C0.204704 27.6738 0 27.8785 0 28.131V31.543C0 31.7955 0.204704 32.0002 0.457218 32.0002H31.5428C31.7953 32.0002 32 31.7955 32 31.543V28.131C32 27.8785 31.7953 27.6738 31.5428 27.6738Z" fill="black"/>
<path d="M31.0858 28.5879H0.914062V31.0854H31.0858V28.5879Z" fill="white"/>
</g>
<defs>
<clipPath id="clip0_807_22154">
<rect width="32" height="32" fill="white"/>
</clipPath>
</defs>
</svg>
