<svg width="54" height="54" viewBox="0 0 54 54" fill="none" xmlns="http://www.w3.org/2000/svg">
<path d="M35.0948 34.2524C35.2919 34.4495 35.435 34.6643 35.6142 34.8792C36.1459 34.7795 36.6851 34.7257 37.2259 34.7181C38.1859 34.727 39.1394 34.8778 40.0555 35.1658C39.5216 33.8266 38.7238 32.6085 37.7094 31.5842C36.7229 30.5947 35.5505 29.8101 34.2597 29.2753C32.9689 28.7405 31.5852 28.4663 30.1879 28.468H12.5842C11.1797 28.4657 9.78866 28.7415 8.49129 29.2794C7.19392 29.8175 6.01595 30.607 5.02532 31.6027C4.03471 32.5983 3.25105 33.7803 2.71958 35.0803C2.18812 36.3804 1.91935 37.7728 1.92882 39.1772V43.5647C1.92882 44.054 2.12315 44.523 2.46907 44.869C2.81498 45.215 3.28415 45.4092 3.77337 45.4092C4.26257 45.4092 4.73173 45.215 5.07764 44.869C5.42357 44.523 5.61791 44.054 5.61791 43.5647V39.1772C5.61791 37.3296 6.35185 35.5577 7.65828 34.2512C8.96471 32.9448 10.7366 32.211 12.5842 32.211H30.1879C31.1 32.2116 32.0029 32.3923 32.8449 32.7427C33.6869 33.0929 34.4514 33.6061 35.0948 34.2524Z" fill="#1E1F1F"/>
<path d="M21.3769 23.418C23.5095 23.4357 25.5993 22.8184 27.3799 21.6444C29.1606 20.4707 30.5515 18.7935 31.3759 16.8265C32.2002 14.8595 32.4204 12.6917 32.0089 10.599C31.5971 8.50642 30.5719 6.58368 29.0638 5.07559C27.5558 3.56752 25.633 2.54235 23.5403 2.1306C21.4478 1.71887 19.2799 1.93919 17.313 2.76352C15.3459 3.58787 13.6688 4.97891 12.4949 6.75956C11.3211 8.54021 10.7038 10.6299 10.7214 12.7626C10.7448 15.5813 11.875 18.278 13.8682 20.2711C15.8614 22.2645 18.5581 23.3946 21.3769 23.418ZM21.3769 5.79628C22.7554 5.79273 24.1041 6.19829 25.2519 6.9616C26.4 7.72491 27.2956 8.81164 27.8256 10.0842C28.3556 11.3569 28.4962 12.7581 28.2293 14.1106C27.9625 15.4631 27.3005 16.7061 26.3269 17.6821C25.3534 18.6582 24.1122 19.3234 22.7604 19.5936C21.4087 19.864 20.007 19.7271 18.733 19.2003C17.459 18.6735 16.37 17.7807 15.6037 16.6347C14.8375 15.4887 14.4285 14.1411 14.4285 12.7626C14.4261 11.8486 14.6041 10.9431 14.9522 10.098C15.3004 9.25295 15.8118 8.48486 16.4572 7.83775C17.1027 7.19062 17.8695 6.67721 18.7137 6.3269C19.5578 5.9766 20.4629 5.79628 21.3769 5.79628Z" fill="#1E1F1F"/>
<path d="M50.5315 42.4908C50.937 42.4818 51.3235 42.3165 51.6103 42.0297C51.8973 41.7427 52.0624 41.3562 52.0716 40.9507V35.5782C52.067 35.1711 51.9033 34.7821 51.6153 34.4944C51.3276 34.2064 50.9384 34.0427 50.5315 34.0381H45.2485C44.8401 34.0381 44.4484 34.2003 44.1595 34.4892C43.8708 34.7781 43.7084 35.1698 43.7084 35.5782C43.7084 35.9867 43.8708 36.3784 44.1595 36.6673C44.4484 36.956 44.8401 37.1184 45.2485 37.1184H46.7887L39.6254 44.2817L36.4377 39.5002C36.3127 39.3094 36.1463 39.1492 35.9511 39.0315C35.7557 38.9137 35.5364 38.8412 35.3094 38.8196H35.1662C34.9662 38.8171 34.7675 38.8555 34.5828 38.9324C34.398 39.0094 34.2308 39.1233 34.0918 39.2672L25.6749 47.7738C25.3883 48.0652 25.2278 48.4574 25.2278 48.8661C25.2278 49.2748 25.3883 49.667 25.6749 49.9584C25.8134 50.1033 25.9804 50.2178 26.1653 50.2948C26.3503 50.3719 26.5491 50.4099 26.7493 50.4063C26.9524 50.4101 27.1541 50.3725 27.3419 50.2956C27.5298 50.2184 27.6999 50.1039 27.8418 49.9584L35.0051 42.7951L38.1927 47.5587C38.3178 47.7495 38.4841 47.9097 38.6794 48.0274C38.8746 48.1452 39.0939 48.2177 39.3209 48.2393C39.5346 48.2511 39.7481 48.2154 39.9461 48.1348C40.1442 48.0544 40.3222 47.9309 40.467 47.7738L48.9556 39.2851V40.8791C48.9483 41.0897 48.9838 41.2995 49.06 41.4961C49.1361 41.6924 49.2513 41.8714 49.3986 42.0222C49.546 42.1728 49.7222 42.292 49.917 42.3726C50.1118 42.453 50.3207 42.4933 50.5315 42.4908Z" fill="#2EEECE"/>
</svg>
