<svg width="32" height="32" viewBox="0 0 32 32" fill="none" xmlns="http://www.w3.org/2000/svg">
<g clip-path="url(#clip0_182_1176)">
<path fill-rule="evenodd" clip-rule="evenodd" d="M21.0002 16V8.66663C21.0002 7.87063 20.6842 7.10796 20.1215 6.54529C19.5588 5.98263 18.7962 5.66663 18.0002 5.66663H6.66683C5.3775 5.66663 4.3335 6.71196 4.3335 7.99996V11.3333C4.3335 11.8853 4.7815 12.3333 5.3335 12.3333C5.8855 12.3333 6.3335 11.8853 6.3335 11.3333V7.99996C6.3335 7.81596 6.48283 7.66663 6.66683 7.66663H18.0002C18.2655 7.66663 18.5202 7.77196 18.7068 7.95996C18.8948 8.14663 19.0002 8.40129 19.0002 8.66663V16C19.0002 16.552 19.4482 17 20.0002 17C20.5522 17 21.0002 16.552 21.0002 16Z" fill="#64CEB8"/>
<path fill-rule="evenodd" clip-rule="evenodd" d="M27.6667 16V3.99996C27.6667 2.71063 26.6227 1.66663 25.3333 1.66663H14.6667C13.3773 1.66663 12.3333 2.71063 12.3333 3.99996V6.66663C12.3333 7.21863 12.7813 7.66663 13.3333 7.66663C13.8853 7.66663 14.3333 7.21863 14.3333 6.66663V3.99996C14.3333 3.81596 14.4827 3.66663 14.6667 3.66663H25.3333C25.5173 3.66663 25.6667 3.81596 25.6667 3.99996V16C25.6667 16.552 26.1147 17 26.6667 17C27.2187 17 27.6667 16.552 27.6667 16ZM8 21.6666H12C12.552 21.6666 13 21.2186 13 20.6666C13 20.1146 12.552 19.6666 12 19.6666H8C7.448 19.6666 7 20.1146 7 20.6666C7 21.2186 7.448 21.6666 8 21.6666ZM8 25H12C12.552 25 13 24.552 13 24C13 23.448 12.552 23 12 23H8C7.448 23 7 23.448 7 24C7 24.552 7.448 25 8 25Z" fill="#64CEB8"/>
<path fill-rule="evenodd" clip-rule="evenodd" d="M26.6665 30.3334C28.6905 30.3334 30.3332 28.6907 30.3332 26.6667V18.6667C30.3332 16.6427 28.6905 15 26.6665 15H20.0385C19.5012 15 18.9958 14.74 18.6825 14.3027L16.9452 11.8694C16.2558 10.9054 15.1452 10.3334 13.9612 10.3334C11.2212 10.3334 5.33317 10.3334 5.33317 10.3334C3.30917 10.3334 1.6665 11.976 1.6665 14V26.6667C1.6665 28.6907 3.30917 30.3334 5.33317 30.3334H26.6665ZM26.6665 28.3334H5.33317C4.41317 28.3334 3.6665 27.5867 3.6665 26.6667V14C3.6665 13.08 4.41317 12.3334 5.33317 12.3334H13.9612C14.4985 12.3334 15.0038 12.5934 15.3172 13.0307L17.0545 15.464C17.7438 16.428 18.8545 17 20.0385 17H26.6665C27.5865 17 28.3332 17.7467 28.3332 18.6667V26.6667C28.3332 27.5867 27.5865 28.3334 26.6665 28.3334Z" fill="#001E32"/>
</g>
<defs>
<clipPath id="clip0_182_1176">
<rect width="32" height="32" fill="white"/>
</clipPath>
</defs>
</svg>
