<svg width="32" height="32" viewBox="0 0 32 32" fill="none" xmlns="http://www.w3.org/2000/svg">
<g clip-path="url(#clip0_182_1178)">
<g clip-path="url(#clip1_182_1178)">
<path d="M12.1973 16.375C12.4128 16.375 12.6195 16.2894 12.7718 16.137C12.9242 15.9847 13.0098 15.778 13.0098 15.5625C13.0098 15.347 12.9242 15.1403 12.7718 14.988C12.6195 14.8356 12.4128 14.75 12.1973 14.75C11.1978 14.7499 10.2208 15.0461 9.38971 15.6013C8.55863 16.1565 7.91086 16.9457 7.52832 17.8691C7.14579 18.7925 7.04566 19.8085 7.24062 20.7888C7.43558 21.7691 7.91685 22.6695 8.62358 23.3762C9.33031 24.083 10.2308 24.5642 11.211 24.7592C12.1913 24.9541 13.2074 24.854 14.1307 24.4715C15.0541 24.0889 15.8433 23.4412 16.3985 22.6101C16.9537 21.779 17.2499 20.802 17.2498 19.8025C17.2498 19.587 17.1642 19.3803 17.0118 19.228C16.8595 19.0756 16.6528 18.99 16.4373 18.99C16.2218 18.99 16.0152 19.0756 15.8628 19.228C15.7104 19.3803 15.6248 19.587 15.6248 19.8025C15.6248 20.4804 15.4238 21.1431 15.0472 21.7067C14.6706 22.2704 14.1352 22.7097 13.509 22.9691C12.8827 23.2285 12.1935 23.2964 11.5286 23.1641C10.8638 23.0319 10.253 22.7055 9.7737 22.2261C9.29435 21.7468 8.96792 21.136 8.83567 20.4712C8.70341 19.8063 8.77129 19.1171 9.03071 18.4909C9.29013 17.8646 9.72944 17.3293 10.2931 16.9526C10.8567 16.576 11.5194 16.375 12.1973 16.375Z" fill="#001E32"/>
<path d="M1.75688 22.6188L2.9675 22.8313C3.12032 23.2968 3.30836 23.75 3.53 24.1869L2.82375 25.1938C2.537 25.6032 2.40375 26.1006 2.44741 26.5985C2.49108 27.0964 2.70887 27.563 3.0625 27.9163L4.08375 28.9375C4.43685 29.2915 4.90365 29.5094 5.40178 29.5528C5.8999 29.5961 6.39732 29.4621 6.80625 29.1744L7.8125 28.4694C8.24949 28.6909 8.70267 28.879 9.16813 29.0319L9.38063 30.2431C9.46651 30.7357 9.72362 31.1821 10.1066 31.5035C10.4896 31.825 10.9738 32.0008 11.4738 32H12.9206C13.4205 32.0007 13.9046 31.8248 14.2874 31.5033C14.6702 31.1819 14.9273 30.7356 15.0131 30.2431L15.2256 29.0325C15.6911 28.8797 16.1443 28.6916 16.5813 28.47L17.5888 29.1769C17.9983 29.4639 18.496 29.5972 18.9942 29.5535C19.4925 29.5097 19.9593 29.2916 20.3125 28.9375L21.3356 27.9144C21.6888 27.5609 21.9062 27.0944 21.9495 26.5966C21.9928 26.0988 21.8593 25.6017 21.5725 25.1925L20.8644 24.1875C21.0859 23.7505 21.274 23.2974 21.4269 22.8319L22.6381 22.6194C22.7432 22.601 22.8437 22.562 22.9337 22.5048C23.0238 22.4475 23.1017 22.3731 23.1629 22.2858C23.2242 22.1984 23.2677 22.0999 23.2909 21.9957C23.3141 21.8916 23.3166 21.7839 23.2981 21.6788C23.2797 21.5737 23.2408 21.4732 23.1835 21.3832C23.1263 21.2931 23.0518 21.2152 22.9645 21.154C22.8772 21.0927 22.7786 21.0492 22.6744 21.026C22.5703 21.0028 22.4626 21.0003 22.3575 21.0188L20.6519 21.3181C20.4995 21.3448 20.3579 21.4145 20.2438 21.5189C20.1296 21.6233 20.0477 21.7581 20.0075 21.9075C19.8256 22.5827 19.5565 23.2313 19.2069 23.8369C19.1291 23.9712 19.0914 24.125 19.0983 24.2801C19.1051 24.4351 19.1563 24.585 19.2456 24.7119L20.2406 26.125C20.308 26.2212 20.3394 26.3381 20.3292 26.4551C20.319 26.5722 20.268 26.6819 20.185 26.765L19.1619 27.7881C19.0787 27.8711 18.969 27.9222 18.852 27.9323C18.735 27.9425 18.6181 27.9112 18.5219 27.8438L17.1031 26.8488C16.9762 26.7594 16.8264 26.7083 16.6713 26.7014C16.5162 26.6945 16.3624 26.7322 16.2281 26.81C15.6226 27.1597 14.974 27.4289 14.2988 27.6106C14.1494 27.6508 14.0145 27.7328 13.9101 27.8469C13.8057 27.9611 13.7361 28.1026 13.7094 28.255L13.41 29.96C13.3896 30.0757 13.3291 30.1805 13.2392 30.256C13.1492 30.3316 13.0356 30.373 12.9181 30.3731H11.4738C11.3563 30.373 11.2426 30.3316 11.1527 30.256C11.0628 30.1805 11.0023 30.0757 10.9819 29.96L10.6831 28.255C10.6564 28.1026 10.5868 27.9611 10.4824 27.8469C10.378 27.7328 10.2431 27.6508 10.0938 27.6106C9.41849 27.4296 8.76969 27.1613 8.16375 26.8125C8.02944 26.7347 7.87565 26.697 7.72058 26.7039C7.56552 26.7108 7.41566 26.7619 7.28875 26.8513L5.875 27.8456C5.77878 27.913 5.66191 27.9444 5.54489 27.9342C5.42786 27.924 5.31815 27.873 5.235 27.79L4.21 26.7669C4.12655 26.6836 4.0752 26.5736 4.06502 26.4561C4.05484 26.3387 4.08649 26.2214 4.15438 26.125L5.14938 24.7063C5.23874 24.5794 5.28988 24.4295 5.29675 24.2744C5.30362 24.1194 5.26592 23.9656 5.18813 23.8313C4.83872 23.2273 4.56957 22.5804 4.3875 21.9069C4.34734 21.7575 4.26537 21.6227 4.15123 21.5183C4.03708 21.4139 3.8955 21.3442 3.74313 21.3175L2.03813 21.0181C1.92246 20.9977 1.81767 20.9373 1.74213 20.8473C1.66659 20.7574 1.62512 20.6437 1.625 20.5263V19.0794C1.6251 18.962 1.66648 18.8484 1.74189 18.7585C1.81731 18.6686 1.92195 18.6081 2.0375 18.5875L3.7425 18.2881C3.89487 18.2614 4.03645 18.1918 4.1506 18.0874C4.26475 17.983 4.34672 17.8482 4.38688 17.6988C4.56857 17.0235 4.83773 16.3749 5.1875 15.7694C5.2653 15.6351 5.30299 15.4813 5.29612 15.3262C5.28926 15.1712 5.23811 15.0213 5.14875 14.8944L4.15438 13.4788C4.08699 13.3825 4.05564 13.2657 4.06581 13.1487C4.07598 13.0316 4.12703 12.9219 4.21 12.8388L5.23313 11.8125C5.3167 11.7294 5.42693 11.6786 5.54437 11.6688C5.66181 11.6591 5.77891 11.6912 5.875 11.7594L7.29313 12.7544C7.42004 12.8438 7.56989 12.8949 7.72496 12.9018C7.88002 12.9086 8.03381 12.8709 8.16813 12.7931C8.77369 12.4435 9.42229 12.1743 10.0975 11.9925C10.2469 11.9524 10.3817 11.8704 10.4861 11.7562C10.5905 11.6421 10.6602 11.5005 10.6869 11.3481L10.9856 9.64314C11.0228 9.43089 10.9742 9.21254 10.8504 9.03614C10.7267 8.85974 10.5379 8.73973 10.3256 8.70252C10.1134 8.6653 9.89503 8.71393 9.71862 8.83771C9.54222 8.96148 9.42222 9.15026 9.385 9.36252L9.1725 10.5731C8.70702 10.726 8.25384 10.9141 7.81688 11.1356L6.80625 10.4288C6.39737 10.1412 5.90008 10.0073 5.4021 10.0506C4.90412 10.094 4.43744 10.3118 4.08438 10.6656L3.0625 11.6875C2.70931 12.041 2.49197 12.5076 2.44865 13.0053C2.40533 13.5031 2.5388 14.0003 2.82563 14.4094L3.53063 15.4188C3.30901 15.8557 3.12096 16.3089 2.96813 16.7744L1.7575 16.9869C1.26493 17.0726 0.81848 17.3296 0.496922 17.7124C0.175365 18.0953 -0.00062753 18.5794 1.82204e-06 19.0794V20.5263C-0.000653069 21.0262 0.175251 21.5102 0.496683 21.893C0.818116 22.2759 1.26442 22.5329 1.75688 22.6188Z" fill="#001E32"/>
<path d="M30.8124 9.17684L29.8974 8.74997C29.8116 8.05094 29.6288 7.36728 29.3543 6.71872L29.933 5.89309C30.211 5.49778 30.3403 5.01702 30.2984 4.53562C30.2564 4.05422 30.0458 3.6031 29.7037 3.26184L28.7362 2.29559C28.3949 1.95346 27.9438 1.74284 27.4624 1.70087C26.981 1.6589 26.5002 1.78829 26.1049 2.06622L25.2799 2.64497C24.6317 2.37078 23.9485 2.1882 23.2499 2.10247L22.823 1.18747C22.6197 0.748959 22.2681 0.396361 21.8301 0.191898C21.3921 -0.0125643 20.896 -0.0557485 20.4293 0.0699668L19.1074 0.424342C18.6404 0.548802 18.2324 0.834211 17.9553 1.23021C17.6782 1.6262 17.5499 2.10734 17.593 2.58872L17.6818 3.59184C17.1202 4.01776 16.6196 4.51844 16.1937 5.07997L15.1874 4.99122C14.7061 4.94826 14.2251 5.07663 13.8293 5.35369C13.4334 5.63075 13.1481 6.0387 13.0237 6.50559L12.6693 7.82809C12.5435 8.29473 12.5866 8.79079 12.791 9.22875C12.9953 9.66671 13.3478 10.0184 13.7862 10.2218L14.7012 10.6475C14.787 11.3465 14.9698 12.0301 15.2443 12.6787L14.668 13.5C14.3901 13.8953 14.2607 14.376 14.3027 14.8574C14.3446 15.3388 14.5553 15.79 14.8974 16.1312L15.8655 17.0993C16.2067 17.4427 16.6582 17.6542 17.1403 17.6967C17.6225 17.7391 18.104 17.6097 18.4999 17.3312L19.3249 16.7525C19.9735 17.027 20.6571 17.2098 21.3562 17.2956L21.7818 18.2106C21.9851 18.6489 22.3367 19.0014 22.7745 19.2057C23.2124 19.4101 23.7084 19.4532 24.1749 19.3275L25.4974 18.9731C25.9631 18.8481 26.3699 18.563 26.6463 18.1679C26.9227 17.7727 27.051 17.2928 27.0087 16.8125L26.9199 15.8093C27.2003 15.5966 27.466 15.365 27.7149 15.1162C27.9638 14.8673 28.1954 14.6017 28.408 14.3212L29.4118 14.41C29.8931 14.4529 30.374 14.3245 30.7699 14.0475C31.1658 13.7704 31.4511 13.3625 31.5755 12.8956L31.9299 11.5737C32.0564 11.1066 32.0137 10.6097 31.8092 10.1711C31.6046 9.73242 31.2516 9.38024 30.8124 9.17684ZM30.3599 11.15L30.0055 12.4725C29.9796 12.5699 29.9201 12.655 29.8375 12.7128C29.755 12.7707 29.6547 12.7976 29.5543 12.7887L28.0868 12.6587C27.9408 12.6457 27.794 12.6724 27.662 12.736C27.53 12.7996 27.4176 12.8977 27.3368 13.02C26.8857 13.7011 26.3022 14.2845 25.6212 14.7356C25.4989 14.8164 25.4008 14.9288 25.3372 15.0608C25.2736 15.1928 25.2469 15.3396 25.2599 15.4856L25.3899 16.9525C25.3989 17.053 25.3721 17.1534 25.3142 17.2361C25.2564 17.3188 25.1712 17.3784 25.0737 17.4043L23.7499 17.7581C23.6525 17.7844 23.5488 17.7755 23.4573 17.7328C23.3659 17.6901 23.2924 17.6165 23.2499 17.525L22.6249 16.1862C22.5631 16.0535 22.4666 15.9399 22.3456 15.8575C22.2246 15.7751 22.0835 15.7269 21.9374 15.7181C21.1232 15.6712 20.3271 15.4585 19.598 15.0931C19.4669 15.0277 19.3205 14.999 19.1744 15.01C19.0283 15.021 18.8879 15.0713 18.768 15.1556L17.5624 16C17.4798 16.058 17.3794 16.0849 17.2789 16.0761C17.1784 16.0673 17.0842 16.0233 17.013 15.9518L16.0449 14.9837C15.9747 14.9123 15.9318 14.8185 15.9235 14.7187C15.9153 14.6189 15.9423 14.5194 15.9999 14.4375L16.8468 13.23C16.9312 13.11 16.9816 12.9695 16.9926 12.8233C17.0036 12.677 16.9748 12.5305 16.9093 12.3993C16.5438 11.6702 16.3312 10.8742 16.2843 10.06C16.2754 9.91383 16.2273 9.77279 16.1449 9.65177C16.0625 9.53076 15.9489 9.43425 15.8162 9.37247L14.4774 8.74747C14.3858 8.70498 14.3122 8.63151 14.2696 8.54002C14.2269 8.44853 14.218 8.34492 14.2443 8.24747L14.5987 6.92497C14.6246 6.82757 14.6841 6.74244 14.7666 6.68459C14.8492 6.62674 14.9495 6.59987 15.0499 6.60872L16.5174 6.73872C16.6634 6.75174 16.8102 6.72504 16.9422 6.66144C17.0742 6.59785 17.1866 6.49972 17.2674 6.37747C17.7177 5.69692 18.3 5.11372 18.9799 4.66247C19.1022 4.58165 19.2003 4.46928 19.2639 4.33725C19.3275 4.20521 19.3542 4.05844 19.3412 3.91247L19.2118 2.44497C19.2028 2.34445 19.2296 2.244 19.2874 2.16132C19.3453 2.07864 19.4305 2.01906 19.528 1.99309L20.8505 1.63872C20.948 1.61227 21.0516 1.62116 21.1432 1.66383C21.2347 1.7065 21.3081 1.78019 21.3505 1.87184L21.9755 3.21059C22.0373 3.34332 22.1338 3.45689 22.2548 3.5393C22.3759 3.6217 22.5169 3.66987 22.663 3.67872C23.4772 3.7256 24.2733 3.93828 25.0024 4.30372C25.1336 4.36923 25.2801 4.39801 25.4263 4.38701C25.5726 4.376 25.7131 4.32563 25.833 4.24122L27.0405 3.39434C27.1231 3.33634 27.2235 3.30936 27.324 3.31817C27.4245 3.32697 27.5187 3.37099 27.5899 3.44247L28.558 4.41059C28.6295 4.48181 28.6735 4.57598 28.6823 4.6765C28.6911 4.77701 28.6642 4.87741 28.6062 4.95997L27.7562 6.16934C27.6717 6.28926 27.6214 6.4298 27.6104 6.57604C27.5994 6.72227 27.6281 6.86876 27.6937 6.99997C28.0591 7.72906 28.2718 8.52512 28.3187 9.33934C28.3275 9.48548 28.3757 9.62652 28.4581 9.74753C28.5405 9.86855 28.654 9.96505 28.7868 10.0268L30.1249 10.6518C30.2164 10.694 30.2902 10.767 30.3331 10.8581C30.3761 10.9492 30.3856 11.0526 30.3599 11.15Z" fill="#64CEB8"/>
<path d="M22.3013 6.19873C21.609 6.19873 20.9323 6.404 20.3568 6.78859C19.7812 7.17317 19.3326 7.7198 19.0677 8.35934C18.8028 8.99888 18.7335 9.70261 18.8685 10.3815C19.0036 11.0605 19.3369 11.6841 19.8264 12.1736C20.3159 12.6631 20.9395 12.9964 21.6185 13.1315C22.2974 13.2665 23.0011 13.1972 23.6407 12.9323C24.2802 12.6674 24.8268 12.2188 25.2114 11.6432C25.596 11.0677 25.8013 10.391 25.8013 9.69873C25.8001 8.77083 25.431 7.88126 24.7749 7.22514C24.1187 6.56901 23.2292 6.19989 22.3013 6.19873ZM22.3013 11.5737C21.9304 11.5737 21.5679 11.4638 21.2596 11.2577C20.9512 11.0517 20.7109 10.7589 20.569 10.4163C20.4271 10.0737 20.39 9.69665 20.4623 9.33294C20.5346 8.96922 20.7132 8.63513 20.9754 8.37291C21.2377 8.11068 21.5718 7.93211 21.9355 7.85976C22.2992 7.78741 22.6762 7.82454 23.0188 7.96646C23.3614 8.10837 23.6542 8.34869 23.8603 8.65704C24.0663 8.96538 24.1763 9.32789 24.1763 9.69873C24.1764 9.94501 24.1279 10.1889 24.0337 10.4165C23.9395 10.644 23.8014 10.8508 23.6273 11.025C23.4532 11.1991 23.2465 11.3373 23.0189 11.4316C22.7914 11.5258 22.5476 11.5744 22.3013 11.5744V11.5737Z" fill="#64CEB8"/>
</g>
</g>
<defs>
<clipPath id="clip0_182_1178">
<rect width="32" height="32" fill="white"/>
</clipPath>
<clipPath id="clip1_182_1178">
<rect width="32" height="32" fill="white"/>
</clipPath>
</defs>
</svg>
