<svg width="32" height="32" viewBox="0 0 32 32" fill="none" xmlns="http://www.w3.org/2000/svg">
<g clip-path="url(#clip0_182_1177)">
<path d="M7.4669 23.4H12.8002C13.0831 23.4 13.3544 23.2876 13.5545 23.0876C13.7545 22.8876 13.8669 22.6163 13.8669 22.3334C13.8669 22.0505 13.7545 21.7792 13.5545 21.5791C13.3544 21.3791 13.0831 21.2667 12.8002 21.2667H7.4669C5.11383 21.2667 3.20023 19.3531 3.20023 17C3.20023 14.647 5.11383 12.7334 7.4669 12.7334C7.74979 12.7334 8.0211 12.621 8.22114 12.4209C8.42118 12.2209 8.53356 11.9496 8.53356 11.6667C8.53356 10.4902 9.49036 9.53336 10.6669 9.53336C11.2269 9.53336 11.757 9.75096 12.1592 10.1467C12.2986 10.2841 12.4731 10.3804 12.6636 10.4253C12.8541 10.4701 13.0532 10.4616 13.2392 10.4009C13.4253 10.3401 13.591 10.2293 13.7182 10.0806C13.8455 9.9319 13.9294 9.75107 13.9608 9.5579C14.2012 8.05997 14.9686 6.69712 16.1247 5.71482C17.2809 4.73253 18.7498 4.19534 20.2669 4.20003C23.7965 4.20003 26.6669 7.07043 26.6669 10.6C26.6669 11.1472 26.5901 11.7104 26.4376 12.2715C26.3788 12.4879 26.3897 12.7174 26.4688 12.9273C26.5479 13.1371 26.6911 13.3168 26.8781 13.4406C27.4683 13.8282 27.9529 14.3564 28.2885 14.9777C28.624 15.599 28.7998 16.2939 28.8002 17C28.8002 19.3531 26.8866 21.2667 24.5336 21.2667H21.3336C21.0507 21.2667 20.7794 21.3791 20.5793 21.5791C20.3793 21.7792 20.2669 22.0505 20.2669 22.3334C20.2669 22.6163 20.3793 22.8876 20.5793 23.0876C20.7794 23.2876 21.0507 23.4 21.3336 23.4H24.5336C28.0632 23.4 30.9336 20.5296 30.9336 17C30.9336 15.1014 30.0952 13.3232 28.6594 12.1126C28.7525 11.6138 28.7996 11.1075 28.8002 10.6C28.8002 5.89496 24.972 2.0667 20.2669 2.0667C18.5111 2.06095 16.7967 2.59982 15.3599 3.60906C13.9231 4.6183 12.8347 6.04824 12.2445 7.7019C11.676 7.47708 11.0658 7.37683 10.4552 7.40789C9.84462 7.43896 9.2478 7.60062 8.70501 7.88197C8.16221 8.16333 7.68608 8.55783 7.30873 9.03886C6.93138 9.51989 6.66159 10.0763 6.51756 10.6704C5.00249 10.8999 3.61973 11.6645 2.61982 12.8256C1.61991 13.9868 1.06899 15.4677 1.06689 17C1.06689 20.5296 3.93729 23.4 7.4669 23.4Z" fill="#64CEB8"/>
<path d="M17.0668 29.9334C17.3497 29.9334 17.621 29.821 17.8211 29.6209C18.0211 29.4209 18.1335 29.1496 18.1335 28.8667V15.3083L21.646 18.8208C21.7449 18.9202 21.8624 18.9991 21.9918 19.0529C22.1212 19.1068 22.26 19.1345 22.4002 19.1345C22.5403 19.1345 22.6791 19.1068 22.8085 19.0529C22.938 18.9991 23.0555 18.9202 23.1543 18.8208C23.2534 18.7218 23.3321 18.6043 23.3858 18.4749C23.4394 18.3455 23.467 18.2068 23.467 18.0667C23.467 17.9266 23.4394 17.7879 23.3858 17.6585C23.3321 17.5291 23.2534 17.4115 23.1543 17.3126L17.822 11.9803C17.7229 11.8811 17.6051 11.8024 17.4756 11.7487C17.346 11.695 17.2071 11.6674 17.0668 11.6674C16.9266 11.6674 16.7877 11.695 16.6581 11.7487C16.5285 11.8024 16.4108 11.8811 16.3116 11.9803L10.9794 17.3126C10.7794 17.5126 10.667 17.7838 10.667 18.0667C10.667 18.3495 10.7794 18.6208 10.9794 18.8208C11.1794 19.0208 11.4506 19.1332 11.7335 19.1332C12.0164 19.1332 12.2876 19.0208 12.4876 18.8208L16.0002 15.3083V28.8667C16.0002 29.1496 16.1125 29.4209 16.3126 29.6209C16.5126 29.821 16.7839 29.9334 17.0668 29.9334Z" fill="#001E32"/>
</g>
<defs>
<clipPath id="clip0_182_1177">
<rect width="30" height="28" fill="white" transform="translate(1 2)"/>
</clipPath>
</defs>
</svg>
