<svg width="32" height="32" viewBox="0 0 32 32" fill="none" xmlns="http://www.w3.org/2000/svg">
<path d="M25 17H15V7C15 6.73478 14.8946 6.48043 14.7071 6.29289C14.5196 6.10536 14.2652 6 14 6C11.6266 6 9.30655 6.70379 7.33316 8.02236C5.35977 9.34094 3.8217 11.2151 2.91345 13.4078C2.0052 15.6005 1.76756 18.0133 2.23058 20.3411C2.6936 22.6689 3.83649 24.8071 5.51472 26.4853C7.19295 28.1635 9.33115 29.3064 11.6589 29.7694C13.9867 30.2324 16.3995 29.9948 18.5922 29.0866C20.7849 28.1783 22.6591 26.6402 23.9776 24.6668C25.2962 22.6935 26 20.3734 26 18C26 17.7348 25.8946 17.4804 25.7071 17.2929C25.5196 17.1054 25.2652 17 25 17ZM4.00001 18C4.00288 15.5218 4.92468 13.1327 6.58712 11.2947C8.24955 9.45684 10.5345 8.30072 13 8.05V27.95C10.5345 27.6993 8.24955 26.5432 6.58712 24.7053C4.92468 22.8673 4.00288 20.4782 4.00001 18ZM15 27.948V19H23.95C23.7162 21.2938 22.6981 23.4367 21.0675 25.0669C19.437 26.6971 17.2939 27.7147 15 27.948Z" fill="#001E32"/>
<path d="M18 2C17.7348 2 17.4804 2.10536 17.2929 2.29289C17.1054 2.48043 17 2.73478 17 3V14C17 14.2652 17.1054 14.5196 17.2929 14.7071C17.4804 14.8946 17.7348 15 18 15H29C29.2652 15 29.5196 14.8946 29.7071 14.7071C29.8946 14.5196 30 14.2652 30 14C29.9966 10.8185 28.7312 7.76821 26.4815 5.51852C24.2318 3.26883 21.1815 2.00344 18 2ZM19 13V4.05C21.2939 4.28411 23.4368 5.30227 25.0673 6.93272C26.6977 8.56317 27.7159 10.7061 27.95 13H19Z" fill="#64CEB8"/>
</svg>
