<svg width="24" height="24" viewBox="0 0 24 24" fill="none" xmlns="http://www.w3.org/2000/svg">
<path d="M22.0521 21.4944C21.8716 21.4944 21.6912 21.4944 21.5107 21.4944C21.0232 21.4944 20.5357 21.4944 20.0482 21.4944C19.3287 21.4944 18.6068 21.4944 17.8873 21.4944C17.0084 21.4944 16.1295 21.4944 15.2506 21.4944C14.2873 21.4944 13.3263 21.4944 12.3631 21.4944C11.3881 21.4944 10.4107 21.4944 9.43571 21.4944C8.52868 21.4944 7.62399 21.4944 6.71696 21.4944C5.95055 21.4944 5.18415 21.4944 4.42008 21.4944C3.86696 21.4944 3.31383 21.4944 2.76305 21.4944C2.5029 21.4944 2.24274 21.4921 1.98258 21.4944C1.97087 21.4944 1.96149 21.4944 1.94977 21.4944C1.5818 21.4944 1.23024 21.8179 1.24665 22.1976C1.26305 22.5796 1.55602 22.9007 1.94977 22.9007C2.13024 22.9007 2.31071 22.9007 2.49118 22.9007C2.97868 22.9007 3.46618 22.9007 3.95368 22.9007C4.67321 22.9007 5.39508 22.9007 6.11462 22.9007C6.99352 22.9007 7.87243 22.9007 8.75133 22.9007C9.71462 22.9007 10.6756 22.9007 11.6388 22.9007C12.6138 22.9007 13.5912 22.9007 14.5662 22.9007C15.4732 22.9007 16.3779 22.9007 17.2849 22.9007C18.0513 22.9007 18.8177 22.9007 19.5818 22.9007C20.1349 22.9007 20.6881 22.9007 21.2388 22.9007C21.499 22.9007 21.7591 22.903 22.0193 22.9007C22.031 22.9007 22.0404 22.9007 22.0521 22.9007C22.4201 22.9007 22.7716 22.5773 22.7552 22.1976C22.7388 21.8155 22.4459 21.4944 22.0521 21.4944Z" fill="#001E32"/>
<path d="M21.8507 8.62734C21.6749 8.62734 21.4968 8.62734 21.321 8.62734C20.8429 8.62734 20.3647 8.62734 19.8866 8.62734C19.1765 8.62734 18.4663 8.62734 17.7585 8.62734C16.896 8.62734 16.0335 8.62734 15.1733 8.62734C14.2265 8.62734 13.2772 8.62734 12.3304 8.62734C11.3741 8.62734 10.4179 8.62734 9.46162 8.62734C8.57334 8.62734 7.6874 8.62734 6.79912 8.62734C6.04677 8.62734 5.29677 8.62734 4.54443 8.62734C4.00771 8.62734 3.47099 8.62734 2.93427 8.62734C2.68115 8.62734 2.43037 8.62969 2.17724 8.62734C2.14912 8.62734 2.12334 8.62734 2.09287 8.62266C2.15615 8.63203 2.21709 8.63906 2.28037 8.64844C2.24521 8.64141 2.21474 8.63203 2.18193 8.62031C2.23818 8.64375 2.29443 8.66719 2.35068 8.69062C2.34131 8.68594 2.31787 8.66719 2.30849 8.66719C2.32256 8.66719 2.45849 8.80078 2.38818 8.72344C2.35537 8.68594 2.46787 8.85703 2.45615 8.81016C2.45146 8.79375 2.43506 8.77266 2.43037 8.75859C2.45381 8.81484 2.47724 8.87109 2.50068 8.92734C2.48896 8.89687 2.48193 8.86875 2.4749 8.83828C2.48427 8.90156 2.49131 8.9625 2.50068 9.02578C2.49599 8.99297 2.49599 8.96484 2.49834 8.93203C2.48896 8.99531 2.48193 9.05625 2.47256 9.11953C2.47724 9.08672 2.48427 9.05859 2.49599 9.02813C2.47256 9.08438 2.44912 9.14062 2.42568 9.19687C2.43506 9.17812 2.44677 9.16172 2.45381 9.14297C2.48193 9.07266 2.32256 9.29063 2.40224 9.21563C1.63349 9.94219 2.27334 9.31172 2.30381 9.29062C2.30615 9.28828 2.30849 9.28594 2.31318 9.28594C2.32724 9.27656 2.34131 9.26719 2.35537 9.25781C2.41631 9.21562 2.47724 9.17344 2.53818 9.13125C2.7749 8.96953 3.01396 8.80547 3.25068 8.64375C4.04521 8.1 4.84209 7.55625 5.63662 7.01016C6.60927 6.34453 7.58193 5.68125 8.55224 5.01562C9.40302 4.43438 10.2515 3.85313 11.1022 3.27188C11.5124 2.99063 11.9343 2.72109 12.3351 2.42813C12.3397 2.42344 12.3468 2.42109 12.3538 2.41641C12.1171 2.41641 11.8804 2.41641 11.6436 2.41641C11.9835 2.64844 12.3233 2.88281 12.6655 3.11484C13.4741 3.66797 14.2827 4.22109 15.0913 4.77422C16.064 5.43984 17.0366 6.10547 18.0093 6.77109C18.8483 7.33594 19.6874 7.91016 20.5241 8.48438C20.9108 8.74922 21.2929 9.02578 21.689 9.28125C21.6913 9.28359 21.6936 9.28359 21.696 9.28594C21.7288 9.30703 22.1718 9.78984 21.5976 9.21094C21.6632 9.27656 21.539 9.12656 21.539 9.12656C21.5413 9.14297 21.5671 9.17578 21.5741 9.19219C21.5507 9.13594 21.5272 9.07969 21.5038 9.02344C21.5155 9.05391 21.5226 9.08437 21.5272 9.11484C21.5179 9.05156 21.5108 8.99062 21.5015 8.92734C21.5038 8.96016 21.5038 8.98828 21.4991 9.02109C21.5085 8.95781 21.5155 8.89687 21.5249 8.83359C21.5202 8.86406 21.5108 8.89453 21.4991 8.92266C21.5226 8.86641 21.546 8.81016 21.5694 8.75391C21.5624 8.76797 21.5554 8.78203 21.5483 8.79609C21.5085 8.88281 21.6608 8.66719 21.6093 8.71875C21.5296 8.79844 21.7757 8.62031 21.6444 8.68594C21.7007 8.6625 21.7569 8.63906 21.8132 8.61563C21.7804 8.62969 21.7499 8.63906 21.7147 8.64375C21.778 8.63437 21.839 8.62734 21.9022 8.61797C21.8882 8.625 21.8694 8.62734 21.8507 8.62734C21.4827 8.63906 21.1311 8.94141 21.1476 9.33047C21.164 9.70078 21.4569 10.0477 21.8507 10.0336C22.2351 10.0195 22.6007 9.82734 22.7811 9.47812C22.9546 9.14531 22.964 8.70937 22.7366 8.39766C22.6288 8.24766 22.4976 8.1375 22.3499 8.03437C22.1718 7.9125 21.9937 7.79063 21.8155 7.66875C21.0515 7.14609 20.2851 6.62344 19.521 6.10078C18.5038 5.40469 17.4843 4.70859 16.4671 4.0125C15.553 3.38906 14.6413 2.76328 13.7272 2.13984C13.2772 1.83281 12.8319 1.51172 12.3749 1.21406C12.3679 1.20937 12.3608 1.20469 12.3561 1.2C12.164 1.06875 11.8382 1.06875 11.646 1.2C11.489 1.30781 11.3319 1.41563 11.1749 1.52109C10.7647 1.80234 10.3522 2.08359 9.94209 2.36484C9.36787 2.75859 8.79365 3.15 8.21709 3.54375C7.57256 3.98438 6.92568 4.42734 6.28115 4.86797C5.64834 5.30156 5.01552 5.73516 4.38037 6.16641C3.85302 6.52734 3.32568 6.88828 2.79599 7.24922C2.46318 7.47656 2.13037 7.70391 1.79756 7.93125C1.73193 7.97578 1.66631 8.02031 1.60302 8.06484C1.44365 8.17734 1.29365 8.30391 1.20927 8.48203C0.986618 8.94844 1.09209 9.49219 1.50693 9.81328C1.79756 10.0383 2.10459 10.0336 2.4374 10.0336C2.75381 10.0336 3.06787 10.0336 3.38427 10.0336C3.87646 10.0336 4.36865 10.0336 4.86084 10.0336C5.49365 10.0336 6.12412 10.0336 6.75693 10.0336C7.48349 10.0336 8.2124 10.0336 8.93896 10.0336C9.72177 10.0336 10.5022 10.0336 11.2851 10.0336C12.0796 10.0336 12.8741 10.0336 13.6686 10.0336C14.4327 10.0336 15.1991 10.0336 15.9632 10.0336C16.6569 10.0336 17.3507 10.0336 18.0444 10.0336C18.6233 10.0336 19.2022 10.0336 19.7811 10.0336C20.2101 10.0336 20.6366 10.0336 21.0655 10.0336C21.2976 10.0336 21.5296 10.0336 21.7616 10.0336C21.7921 10.0336 21.8202 10.0336 21.8507 10.0336C22.2187 10.0336 22.5702 9.71016 22.5538 9.33047C22.5374 8.94844 22.2444 8.62734 21.8507 8.62734ZM13.371 21.4945C12.5718 21.4945 11.7726 21.4945 10.9733 21.4945C10.8585 21.4945 10.7436 21.4945 10.6288 21.4945C10.8632 21.7289 11.0976 21.9633 11.3319 22.1977C11.3319 21.8484 11.3319 21.5016 11.3319 21.1523C11.3319 20.3156 11.3319 19.4789 11.3319 18.6422C11.3319 17.625 11.3319 16.6078 11.3319 15.593C11.3319 14.7211 11.3319 13.8492 11.3319 12.975C11.3319 12.5484 11.3436 12.1195 11.3319 11.693C11.3319 11.6883 11.3319 11.6813 11.3319 11.6766C11.0976 11.9109 10.8632 12.1453 10.6288 12.3797C11.428 12.3797 12.2272 12.3797 13.0265 12.3797C13.1413 12.3797 13.2562 12.3797 13.371 12.3797C13.1366 12.1453 12.9022 11.9109 12.6679 11.6766C12.6679 12.0258 12.6679 12.3727 12.6679 12.7219C12.6679 13.5586 12.6679 14.3953 12.6679 15.232C12.6679 16.2492 12.6679 17.2664 12.6679 18.2812C12.6679 19.1531 12.6679 20.025 12.6679 20.8992C12.6679 21.3258 12.6585 21.7547 12.6679 22.1813C12.6679 22.1859 12.6679 22.193 12.6679 22.1977C12.6679 22.5656 12.9913 22.9172 13.371 22.9008C13.753 22.8844 14.0741 22.5914 14.0741 22.1977C14.0741 21.8484 14.0741 21.5016 14.0741 21.1523C14.0741 20.3156 14.0741 19.4789 14.0741 18.6422C14.0741 17.625 14.0741 16.6078 14.0741 15.593C14.0741 14.7211 14.0741 13.8492 14.0741 12.975C14.0741 12.5484 14.0835 12.1195 14.0741 11.693C14.0741 11.6883 14.0741 11.6813 14.0741 11.6766C14.0741 11.2969 13.753 10.9734 13.371 10.9734C12.5718 10.9734 11.7726 10.9734 10.9733 10.9734C10.8585 10.9734 10.7436 10.9734 10.6288 10.9734C10.2491 10.9734 9.92568 11.2945 9.92568 11.6766C9.92568 12.0258 9.92568 12.3727 9.92568 12.7219C9.92568 13.5586 9.92568 14.3953 9.92568 15.232C9.92568 16.2492 9.92568 17.2664 9.92568 18.2812C9.92568 19.1531 9.92568 20.025 9.92568 20.8992C9.92568 21.3258 9.91631 21.7547 9.92568 22.1813C9.92568 22.1859 9.92568 22.193 9.92568 22.1977C9.92568 22.5773 10.2468 22.9008 10.6288 22.9008C11.428 22.9008 12.2272 22.9008 13.0265 22.9008C13.1413 22.9008 13.2562 22.9008 13.371 22.9008C13.739 22.9008 14.0905 22.5773 14.0741 22.1977C14.0577 21.8156 13.7647 21.4945 13.371 21.4945ZM6.67959 21.4945C5.88037 21.4945 5.08115 21.4945 4.28193 21.4945C4.16709 21.4945 4.05224 21.4945 3.9374 21.4945C4.17177 21.7289 4.40615 21.9633 4.64052 22.1977C4.64052 21.8484 4.64052 21.5016 4.64052 21.1523C4.64052 20.3156 4.64052 19.4789 4.64052 18.6422C4.64052 17.625 4.64052 16.6078 4.64052 15.593C4.64052 14.7211 4.64052 13.8492 4.64052 12.975C4.64052 12.5484 4.65224 12.1195 4.64052 11.693C4.64052 11.6883 4.64052 11.6813 4.64052 11.6766C4.40615 11.9109 4.17177 12.1453 3.9374 12.3797C4.73662 12.3797 5.53584 12.3797 6.33505 12.3797C6.4499 12.3797 6.56474 12.3797 6.67959 12.3797C6.44521 12.1453 6.21084 11.9109 5.97646 11.6766C5.97646 12.0258 5.97646 12.3727 5.97646 12.7219C5.97646 13.5586 5.97646 14.3953 5.97646 15.232C5.97646 16.2492 5.97646 17.2664 5.97646 18.2812C5.97646 19.1531 5.97646 20.025 5.97646 20.8992C5.97646 21.3258 5.96709 21.7547 5.97646 22.1813C5.97646 22.1859 5.97646 22.193 5.97646 22.1977C5.97646 22.5656 6.2999 22.9172 6.67959 22.9008C7.06162 22.8844 7.38271 22.5914 7.38271 22.1977C7.38271 21.8484 7.38271 21.5016 7.38271 21.1523C7.38271 20.3156 7.38271 19.4789 7.38271 18.6422C7.38271 17.625 7.38271 16.6078 7.38271 15.593C7.38271 14.7211 7.38271 13.8492 7.38271 12.975C7.38271 12.5484 7.39209 12.1195 7.38271 11.693C7.38271 11.6883 7.38271 11.6813 7.38271 11.6766C7.38271 11.2969 7.06162 10.9734 6.67959 10.9734C5.88037 10.9734 5.08115 10.9734 4.28193 10.9734C4.16709 10.9734 4.05224 10.9734 3.9374 10.9734C3.55771 10.9734 3.23427 11.2945 3.23427 11.6766C3.23427 12.0258 3.23427 12.3727 3.23427 12.7219C3.23427 13.5586 3.23427 14.3953 3.23427 15.232C3.23427 16.2492 3.23427 17.2664 3.23427 18.2812C3.23427 19.1531 3.23427 20.025 3.23427 20.8992C3.23427 21.3258 3.2249 21.7547 3.23427 22.1813C3.23427 22.1859 3.23427 22.193 3.23427 22.1977C3.23427 22.5773 3.55537 22.9008 3.9374 22.9008C4.73662 22.9008 5.53584 22.9008 6.33505 22.9008C6.4499 22.9008 6.56474 22.9008 6.67959 22.9008C7.04755 22.9008 7.39912 22.5773 7.38271 22.1977C7.36631 21.8156 7.07334 21.4945 6.67959 21.4945ZM20.0624 21.4945C19.2632 21.4945 18.464 21.4945 17.6647 21.4945C17.5499 21.4945 17.4351 21.4945 17.3202 21.4945C17.5546 21.7289 17.789 21.9633 18.0233 22.1977C18.0233 21.8484 18.0233 21.5016 18.0233 21.1523C18.0233 20.3156 18.0233 19.4789 18.0233 18.6422C18.0233 17.625 18.0233 16.6078 18.0233 15.593C18.0233 14.7211 18.0233 13.8492 18.0233 12.975C18.0233 12.5484 18.0351 12.1195 18.0233 11.693C18.0233 11.6883 18.0233 11.6813 18.0233 11.6766C17.789 11.9109 17.5546 12.1453 17.3202 12.3797C18.1194 12.3797 18.9186 12.3797 19.7179 12.3797C19.8327 12.3797 19.9476 12.3797 20.0624 12.3797C19.828 12.1453 19.5936 11.9109 19.3593 11.6766C19.3593 12.0258 19.3593 12.3727 19.3593 12.7219C19.3593 13.5586 19.3593 14.3953 19.3593 15.232C19.3593 16.2492 19.3593 17.2664 19.3593 18.2812C19.3593 19.1531 19.3593 20.025 19.3593 20.8992C19.3593 21.3258 19.3499 21.7547 19.3593 22.1813C19.3593 22.1859 19.3593 22.193 19.3593 22.1977C19.3593 22.5656 19.6827 22.9172 20.0624 22.9008C20.4444 22.8844 20.7655 22.5914 20.7655 22.1977C20.7655 21.8484 20.7655 21.5016 20.7655 21.1523C20.7655 20.3156 20.7655 19.4789 20.7655 18.6422C20.7655 17.625 20.7655 16.6078 20.7655 15.593C20.7655 14.7211 20.7655 13.8492 20.7655 12.975C20.7655 12.5484 20.7749 12.1195 20.7655 11.693C20.7655 11.6883 20.7655 11.6813 20.7655 11.6766C20.7655 11.2969 20.4444 10.9734 20.0624 10.9734C19.2632 10.9734 18.464 10.9734 17.6647 10.9734C17.5499 10.9734 17.4351 10.9734 17.3202 10.9734C16.9405 10.9734 16.6171 11.2945 16.6171 11.6766C16.6171 12.0258 16.6171 12.3727 16.6171 12.7219C16.6171 13.5586 16.6171 14.3953 16.6171 15.232C16.6171 16.2492 16.6171 17.2664 16.6171 18.2812C16.6171 19.1531 16.6171 20.025 16.6171 20.8992C16.6171 21.3258 16.6077 21.7547 16.6171 22.1813C16.6171 22.1859 16.6171 22.193 16.6171 22.1977C16.6171 22.5773 16.9382 22.9008 17.3202 22.9008C18.1194 22.9008 18.9186 22.9008 19.7179 22.9008C19.8327 22.9008 19.9476 22.9008 20.0624 22.9008C20.4304 22.9008 20.7819 22.5773 20.7655 22.1977C20.7491 21.8156 20.4585 21.4945 20.0624 21.4945Z" fill="#001E32"/>
<path d="M21.8507 8.62734C21.6749 8.62734 21.4968 8.62734 21.321 8.62734C20.8429 8.62734 20.3647 8.62734 19.8866 8.62734C19.1765 8.62734 18.4663 8.62734 17.7585 8.62734C16.896 8.62734 16.0335 8.62734 15.1733 8.62734C14.2265 8.62734 13.2772 8.62734 12.3304 8.62734C11.3741 8.62734 10.4179 8.62734 9.46162 8.62734C8.57334 8.62734 7.6874 8.62734 6.79912 8.62734C6.04677 8.62734 5.29677 8.62734 4.54443 8.62734C4.00771 8.62734 3.47099 8.62734 2.93427 8.62734C2.68115 8.62734 2.43037 8.62969 2.17724 8.62734C2.14912 8.62734 2.12334 8.62734 2.09287 8.62266C2.15615 8.63203 2.21709 8.63906 2.28037 8.64844C2.24521 8.64141 2.21474 8.63203 2.18193 8.62031C2.23818 8.64375 2.29443 8.66719 2.35068 8.69062C2.34131 8.68594 2.31787 8.66719 2.30849 8.66719C2.32256 8.66719 2.45849 8.80078 2.38818 8.72344C2.35537 8.68594 2.46787 8.85703 2.45615 8.81016C2.45146 8.79375 2.43506 8.77266 2.43037 8.75859C2.45381 8.81484 2.47724 8.87109 2.50068 8.92734C2.48896 8.89687 2.48193 8.86875 2.4749 8.83828C2.48427 8.90156 2.49131 8.9625 2.50068 9.02578C2.49599 8.99297 2.49599 8.96484 2.49834 8.93203C2.48896 8.99531 2.48193 9.05625 2.47256 9.11953C2.47724 9.08672 2.48427 9.05859 2.49599 9.02813C2.47256 9.08438 2.44912 9.14062 2.42568 9.19687C2.43506 9.17812 2.44677 9.16172 2.45381 9.14297C2.48193 9.07266 2.32256 9.29063 2.40224 9.21563C1.63349 9.94219 2.27334 9.31172 2.30381 9.29062C2.30615 9.28828 2.30849 9.28594 2.31318 9.28594C2.32724 9.27656 2.34131 9.26719 2.35537 9.25781C2.41631 9.21562 2.47724 9.17344 2.53818 9.13125C2.7749 8.96953 3.01396 8.80547 3.25068 8.64375C4.04521 8.1 4.84209 7.55625 5.63662 7.01016C6.60927 6.34453 7.58193 5.68125 8.55224 5.01562C9.40302 4.43438 10.2515 3.85313 11.1022 3.27188C11.5124 2.99063 11.9343 2.72109 12.3351 2.42813C12.3397 2.42344 12.3468 2.42109 12.3538 2.41641C12.1171 2.41641 11.8804 2.41641 11.6436 2.41641C11.9835 2.64844 12.3233 2.88281 12.6655 3.11484C13.4741 3.66797 14.2827 4.22109 15.0913 4.77422C16.064 5.43984 17.0366 6.10547 18.0093 6.77109C18.8483 7.33594 19.6874 7.91016 20.5241 8.48438C20.9108 8.74922 21.2929 9.02578 21.689 9.28125C21.6913 9.28359 21.6936 9.28359 21.696 9.28594C21.7288 9.30703 22.1718 9.78984 21.5976 9.21094C21.6632 9.27656 21.539 9.12656 21.539 9.12656C21.5413 9.14297 21.5671 9.17578 21.5741 9.19219C21.5507 9.13594 21.5272 9.07969 21.5038 9.02344C21.5155 9.05391 21.5226 9.08437 21.5272 9.11484C21.5179 9.05156 21.5108 8.99062 21.5015 8.92734C21.5038 8.96016 21.5038 8.98828 21.4991 9.02109C21.5085 8.95781 21.5155 8.89687 21.5249 8.83359C21.5202 8.86406 21.5108 8.89453 21.4991 8.92266C21.5226 8.86641 21.546 8.81016 21.5694 8.75391C21.5624 8.76797 21.5554 8.78203 21.5483 8.79609C21.5085 8.88281 21.6608 8.66719 21.6093 8.71875C21.5296 8.79844 21.7757 8.62031 21.6444 8.68594C21.7007 8.6625 21.7569 8.63906 21.8132 8.61563C21.7804 8.62969 21.7499 8.63906 21.7147 8.64375C21.778 8.63437 21.839 8.62734 21.9022 8.61797C21.8882 8.625 21.8694 8.62734 21.8507 8.62734C21.4827 8.63906 21.1311 8.94141 21.1476 9.33047C21.164 9.70078 21.4569 10.0477 21.8507 10.0336C22.2351 10.0195 22.6007 9.82734 22.7811 9.47812C22.9546 9.14531 22.964 8.70937 22.7366 8.39766C22.6288 8.24766 22.4976 8.1375 22.3499 8.03437C22.1718 7.9125 21.9937 7.79063 21.8155 7.66875C21.0515 7.14609 20.2851 6.62344 19.521 6.10078C18.5038 5.40469 17.4843 4.70859 16.4671 4.0125C15.553 3.38906 14.6413 2.76328 13.7272 2.13984C13.2772 1.83281 12.8319 1.51172 12.3749 1.21406C12.3679 1.20937 12.3608 1.20469 12.3561 1.2C12.164 1.06875 11.8382 1.06875 11.646 1.2C11.489 1.30781 11.3319 1.41563 11.1749 1.52109C10.7647 1.80234 10.3522 2.08359 9.94209 2.36484C9.36787 2.75859 8.79365 3.15 8.21709 3.54375C7.57256 3.98438 6.92568 4.42734 6.28115 4.86797C5.64834 5.30156 5.01552 5.73516 4.38037 6.16641C3.85302 6.52734 3.32568 6.88828 2.79599 7.24922C2.46318 7.47656 2.13037 7.70391 1.79756 7.93125C1.73193 7.97578 1.66631 8.02031 1.60302 8.06484C1.44365 8.17734 1.29365 8.30391 1.20927 8.48203C0.986618 8.94844 1.09209 9.49219 1.50693 9.81328C1.79756 10.0383 2.10459 10.0336 2.4374 10.0336C2.75381 10.0336 3.06787 10.0336 3.38427 10.0336C3.87646 10.0336 4.36865 10.0336 4.86084 10.0336C5.49365 10.0336 6.12412 10.0336 6.75693 10.0336C7.48349 10.0336 8.2124 10.0336 8.93896 10.0336C9.72177 10.0336 10.5022 10.0336 11.2851 10.0336C12.0796 10.0336 12.8741 10.0336 13.6686 10.0336C14.4327 10.0336 15.1991 10.0336 15.9632 10.0336C16.6569 10.0336 17.3507 10.0336 18.0444 10.0336C18.6233 10.0336 19.2022 10.0336 19.7811 10.0336C20.2101 10.0336 20.6366 10.0336 21.0655 10.0336C21.2976 10.0336 21.5296 10.0336 21.7616 10.0336C21.7921 10.0336 21.8202 10.0336 21.8507 10.0336C22.2187 10.0336 22.5702 9.71016 22.5538 9.33047C22.5374 8.94844 22.2444 8.62734 21.8507 8.62734Z" fill="#64CEB8"/>
</svg>
