<svg width="32" height="32" viewBox="0 0 32 32" fill="none" xmlns="http://www.w3.org/2000/svg">
<g clip-path="url(#clip0_141_1032)">
<path d="M15.9998 8.40503C13.4871 8.40503 11.4429 10.4492 11.4429 12.962C11.4429 15.4747 13.4871 17.5189 15.9998 17.5189C18.5125 17.5189 20.5567 15.4747 20.5567 12.962C20.5567 10.4493 18.5126 8.40503 15.9998 8.40503ZM15.9998 15.4937C14.6037 15.4937 13.4682 14.3578 13.4682 12.962C13.4682 11.5659 14.6037 10.4304 15.9998 10.4304C17.3959 10.4304 18.5314 11.5659 18.5314 12.962C18.5314 14.3582 17.3959 15.4937 15.9998 15.4937Z" fill="#64CEB8"/>
<path d="M16.0001 18.1265C12.259 18.1265 9.21533 21.1702 9.21533 24.9113V26.4303C9.21533 26.9896 9.66864 27.443 10.228 27.443C10.7873 27.443 11.2407 26.9897 11.2407 26.4303V24.9113C11.2407 22.2868 13.3757 20.1518 16.0002 20.1518C18.6247 20.1518 20.7597 22.2872 20.7597 24.9113V26.4303C20.7597 26.9896 21.213 27.443 21.7724 27.443C22.3317 27.443 22.7851 26.9897 22.7851 26.4303V24.9113C22.785 21.1702 19.7413 18.1265 16.0001 18.1265Z" fill="#001E32"/>
<path d="M25.2151 5.33325C22.7024 5.33325 20.6582 7.3775 20.6582 9.89019C20.6582 12.4029 22.7025 14.4471 25.2151 14.4471C27.7282 14.4471 29.7721 12.4029 29.7721 9.89019C29.7721 7.3775 27.7279 5.33325 25.2151 5.33325ZM25.2151 12.4218C23.819 12.4218 22.6835 11.2863 22.6835 9.89019C22.6835 8.49406 23.819 7.35856 25.2151 7.35856C26.6113 7.35856 27.7468 8.49406 27.7468 9.89019C27.7468 11.2863 26.6113 12.4218 25.2151 12.4218Z" fill="#64CEB8"/>
<path d="M25.2151 15.0547C22.112 15.0547 19.4042 17.158 18.6312 20.1699C18.4921 20.7114 18.8185 21.2633 19.3599 21.4024C19.9017 21.5428 20.4532 21.2154 20.5924 20.6736C21.1358 18.5575 23.0369 17.0801 25.2152 17.0801C27.8397 17.0801 29.9747 19.2154 29.9747 21.8396V23.3586C29.9747 23.9179 30.428 24.3713 30.9874 24.3713C31.5467 24.3713 32 23.9179 32 23.3586V21.8395C31.9999 18.0984 28.9562 15.0547 25.2151 15.0547Z" fill="#001E32"/>
<path d="M6.78496 5.33325C4.27221 5.33325 2.22803 7.3775 2.22803 9.89019C2.22803 12.4029 4.27228 14.4471 6.78496 14.4471C9.29771 14.4471 11.3419 12.4029 11.3419 9.89019C11.3419 7.3775 9.29771 5.33325 6.78496 5.33325ZM6.78496 12.4218C5.38884 12.4218 4.25334 11.2863 4.25334 9.89019C4.25334 8.49406 5.38884 7.35856 6.78496 7.35856C8.18109 7.35856 9.31659 8.49406 9.31659 9.89019C9.31659 11.2863 8.18109 12.4218 6.78496 12.4218Z" fill="#64CEB8"/>
<path d="M13.3354 20.1362C12.5671 17.1441 9.87344 15.0547 6.78481 15.0547C3.04369 15.0546 0 18.0984 0 21.8394V23.3584C0 23.9178 0.453312 24.3711 1.01269 24.3711C1.572 24.3711 2.02537 23.9178 2.02537 23.3584V21.8394C2.02537 19.2153 4.16037 17.0799 6.78487 17.0799C8.94856 17.0799 10.8355 18.5436 11.3736 20.6398C11.5126 21.1812 12.0625 21.5066 12.6063 21.3689C13.148 21.2298 13.4744 20.6776 13.3354 20.1362Z" fill="#001E32"/>
</g>
<defs>
<clipPath id="clip0_141_1032">
<rect width="32" height="32" fill="white"/>
</clipPath>
</defs>
</svg>
