<svg width="32" height="32" viewBox="0 0 32 32" fill="none" xmlns="http://www.w3.org/2000/svg">
<path d="M16 27.6663C14.6924 27.6089 13.4537 27.0637 12.5282 26.1382C11.6026 25.2127 11.0574 23.974 11 22.6663C11 19.6717 14.8533 15.733 15.2933 15.293C15.3861 15.2001 15.4962 15.1264 15.6175 15.0762C15.7388 15.0259 15.8687 15 16 15C16.1313 15 16.2612 15.0259 16.3825 15.0762C16.5038 15.1264 16.6139 15.2001 16.7067 15.293C17.1467 15.7317 21 19.6717 21 22.6663C20.9426 23.974 20.3974 25.2127 19.4718 26.1382C18.5463 27.0637 17.3076 27.6089 16 27.6663ZM16 17.4663C14.6307 19.005 13 21.2877 13 22.6663C13.0582 23.4427 13.3929 24.1724 13.9434 24.7229C14.4939 25.2734 15.2236 25.6082 16 25.6663C16.7764 25.6082 17.5061 25.2734 18.0566 24.7229C18.6071 24.1724 18.9418 23.4427 19 22.6663C19 21.281 17.3693 18.9983 16 17.4663Z" fill="#64CEB8"/>
<path d="M15.5892 30.4373C13.645 30.4599 11.7381 29.9029 10.1118 28.8373C8.1295 27.3306 6.7415 25.1736 6.19164 22.7452C5.64177 20.3168 5.96522 17.7723 7.10515 15.5586C7.84509 14.0292 8.26306 12.3642 8.33315 10.6666C8.33375 10.4965 8.3777 10.3293 8.46084 10.1808C8.54399 10.0324 8.6636 9.90757 8.80837 9.81817C8.95314 9.72877 9.11831 9.67774 9.28828 9.66989C9.45825 9.66204 9.62742 9.69763 9.77982 9.77331C10.5382 10.2208 11.1951 10.8213 11.7086 11.5366C12.2221 12.2519 12.581 13.0663 12.7625 13.928C13.3882 12.958 13.7035 11.8204 13.6665 10.6666C13.5226 7.49537 14.5795 4.38642 16.6265 1.95997C16.7543 1.83182 16.9145 1.74081 17.09 1.69666C17.2656 1.65252 17.4498 1.65691 17.623 1.70935C17.7962 1.7618 17.9519 1.86033 18.0735 1.99442C18.1951 2.12851 18.2779 2.29312 18.3132 2.47064C18.6378 5.00328 19.6702 7.393 21.2918 9.36531C22.1678 10.4571 22.9275 11.6372 23.5585 12.8866C26.4545 18.6773 26.3812 24.364 23.3705 27.3733C21.2638 29.3518 18.4792 30.4483 15.5892 30.4373ZM10.1078 12.7573C9.87706 14.0376 9.46868 15.2793 8.89449 16.4466C7.96532 18.2233 7.68927 20.2697 8.11447 22.229C8.53967 24.1884 9.63914 25.9363 11.2212 27.168C12.8958 28.1722 14.8543 28.598 16.7947 28.3797C18.7352 28.1614 20.5501 27.3112 21.9598 25.96C24.3132 23.6066 24.2372 18.712 21.7718 13.78C21.1974 12.6436 20.5047 11.571 19.7052 10.58C18.3769 8.98635 17.4155 7.12001 16.8892 5.11331C16.0533 6.84347 15.6346 8.74543 15.6665 10.6666C15.7521 11.9002 15.4971 13.1335 14.9292 14.2319C14.3613 15.3302 13.5025 16.2514 12.4465 16.8946C12.294 16.9708 12.1246 17.0066 11.9544 16.9989C11.7842 16.9912 11.6188 16.9401 11.4738 16.8504C11.3289 16.7608 11.2093 16.6356 11.1263 16.4868C11.0434 16.3379 10.9998 16.1704 10.9998 16C11.0362 14.8539 10.7253 13.7235 10.1078 12.7573Z" fill="#001E32"/>
</svg>
