<svg width="32" height="32" viewBox="0 0 32 32" fill="none" xmlns="http://www.w3.org/2000/svg">
<g clip-path="url(#clip0_141_1034)">
<path d="M5.57778 27.1765C6.23165 27.4112 6.94484 27.0677 7.17646 26.422L10.4718 17.2351C10.7915 16.3436 11.9463 16.1181 12.5783 16.8219L13.0273 17.3218C14.8684 19.3715 18.2217 18.8034 19.2803 16.2545L22.1281 9.39838C22.4811 8.54869 23.6025 8.35719 24.2163 9.04694L25.0661 10.0018C25.525 10.5174 26.3151 10.5635 26.8308 10.1046C27.3465 9.64563 27.3926 8.85551 26.9336 8.33982L26.0839 7.38501C24.2473 5.32126 20.881 5.88344 19.8194 8.43944L16.9716 15.2956C16.6183 16.1461 15.5032 16.3371 14.8873 15.6513L14.4383 15.1514C12.5428 13.0408 9.07784 13.7168 8.11859 16.3911L4.82328 25.5779C4.59015 26.2278 4.92796 26.9434 5.57778 27.1765Z" fill="#64CEB8"/>
<path d="M30.75 29.5H3.75C3.06075 29.5 2.5 28.9393 2.5 28.25V1.25C2.5 0.559625 1.94037 0 1.25 0C0.559625 0 0 0.559625 0 1.25V28.25C0 30.3177 1.68225 32 3.75 32H30.75C31.4404 32 32 31.4404 32 30.75C32 30.0596 31.4404 29.5 30.75 29.5Z" fill="#001E32"/>
</g>
<defs>
<clipPath id="clip0_141_1034">
<rect width="32" height="32" fill="white"/>
</clipPath>
</defs>
</svg>
