<svg width="32" height="32" viewBox="0 0 32 32" fill="none" xmlns="http://www.w3.org/2000/svg">
<path d="M25.5 1.5H6.5C5.96957 1.5 5.46086 1.71071 5.08579 2.08579C4.71071 2.46086 4.5 2.96957 4.5 3.5V28.5C4.5 29.0304 4.71071 29.5391 5.08579 29.9142C5.46086 30.2893 5.96957 30.5 6.5 30.5H25.5C26.0304 30.5 26.5391 30.2893 26.9142 29.9142C27.2893 29.5391 27.5 29.0304 27.5 28.5V3.5C27.5 2.96957 27.2893 2.46086 26.9142 2.08579C26.5391 1.71071 26.0304 1.5 25.5 1.5ZM9.5 25C9.20333 25 8.91332 24.912 8.66665 24.7472C8.41997 24.5824 8.22771 24.3481 8.11418 24.074C8.00065 23.7999 7.97094 23.4983 8.02882 23.2074C8.0867 22.9164 8.22956 22.6491 8.43934 22.4393C8.64912 22.2296 8.91639 22.0867 9.20736 22.0288C9.49834 21.9709 9.79994 22.0007 10.074 22.1142C10.3481 22.2277 10.5824 22.42 10.7472 22.6666C10.912 22.9133 11 23.2033 11 23.5C11 23.8978 10.842 24.2794 10.5607 24.5607C10.2794 24.842 9.89782 25 9.5 25ZM9.5 17.5C9.20333 17.5 8.91332 17.412 8.66665 17.2472C8.41997 17.0824 8.22771 16.8481 8.11418 16.574C8.00065 16.2999 7.97094 15.9983 8.02882 15.7074C8.0867 15.4164 8.22956 15.1491 8.43934 14.9393C8.64912 14.7296 8.91639 14.5867 9.20736 14.5288C9.49834 14.4709 9.79994 14.5006 10.074 14.6142C10.3481 14.7277 10.5824 14.92 10.7472 15.1666C10.912 15.4133 11 15.7033 11 16C11 16.3978 10.842 16.7794 10.5607 17.0607C10.2794 17.342 9.89782 17.5 9.5 17.5ZM9.5 10C9.20333 10 8.91332 9.91203 8.66665 9.7472C8.41997 9.58238 8.22771 9.34811 8.11418 9.07403C8.00065 8.79994 7.97094 8.49834 8.02882 8.20736C8.0867 7.91639 8.22956 7.64912 8.43934 7.43934C8.64912 7.22956 8.91639 7.0867 9.20736 7.02882C9.49834 6.97094 9.79994 7.00065 10.074 7.11418C10.3481 7.22771 10.5824 7.41997 10.7472 7.66664C10.912 7.91332 11 8.20333 11 8.5C11 8.89782 10.842 9.27936 10.5607 9.56066C10.2794 9.84196 9.89782 10 9.5 10ZM23 24.5H14C13.7348 24.5 13.4804 24.3946 13.2929 24.2071C13.1054 24.0196 13 23.7652 13 23.5C13 23.2348 13.1054 22.9804 13.2929 22.7929C13.4804 22.6054 13.7348 22.5 14 22.5H23C23.2652 22.5 23.5196 22.6054 23.7071 22.7929C23.8946 22.9804 24 23.2348 24 23.5C24 23.7652 23.8946 24.0196 23.7071 24.2071C23.5196 24.3946 23.2652 24.5 23 24.5ZM23 17H14C13.7348 17 13.4804 16.8946 13.2929 16.7071C13.1054 16.5196 13 16.2652 13 16C13 15.7348 13.1054 15.4804 13.2929 15.2929C13.4804 15.1054 13.7348 15 14 15H23C23.2652 15 23.5196 15.1054 23.7071 15.2929C23.8946 15.4804 24 15.7348 24 16C24 16.2652 23.8946 16.5196 23.7071 16.7071C23.5196 16.8946 23.2652 17 23 17ZM23 9.5H14C13.7348 9.5 13.4804 9.39464 13.2929 9.20711C13.1054 9.01957 13 8.76522 13 8.5C13 8.23478 13.1054 7.98043 13.2929 7.79289C13.4804 7.60536 13.7348 7.5 14 7.5H23C23.2652 7.5 23.5196 7.60536 23.7071 7.79289C23.8946 7.98043 24 8.23478 24 8.5C24 8.76522 23.8946 9.01957 23.7071 9.20711C23.5196 9.39464 23.2652 9.5 23 9.5Z" fill="white"/>
</svg>
