<svg width="32" height="32" viewBox="0 0 32 32" fill="none" xmlns="http://www.w3.org/2000/svg">
<g clip-path="url(#clip0_174_1229)">
<path fill-rule="evenodd" clip-rule="evenodd" d="M31.0588 5.64697H30.1177V4.07837C30.1177 3.55859 29.6963 3.13721 29.1765 3.13721C28.6567 3.13721 28.2354 3.55859 28.2354 4.07837V5.64697H26.3528V4.07837C26.3528 3.55859 25.9314 3.13721 25.4116 3.13721C24.8918 3.13721 24.4705 3.55859 24.4705 4.07837V5.64697H23.5293C23.0095 5.64697 22.5881 6.06836 22.5881 6.58813V8.4707C22.5881 10.7432 24.2075 12.6445 26.3528 13.0818V26.6667C26.3528 27.5317 25.6492 28.2354 24.7842 28.2354H24.157C23.292 28.2354 22.5881 27.5317 22.5881 26.6667V20.3921C22.5881 18.4893 21.04 16.9412 19.1372 16.9412H18.8235V3.45093C18.8235 1.5481 17.2754 0 15.3726 0H3.45093C1.5481 0 0 1.5481 0 3.45093V31.0588C0 31.5786 0.421387 32 0.941162 32H17.8823C18.4021 32 18.8235 31.5786 18.8235 31.0588V18.8235H19.1372C20.0022 18.8235 20.7061 19.5271 20.7061 20.3921V26.6665C20.7061 28.5696 22.2542 30.1177 24.157 30.1177H24.7844C26.6873 30.1177 28.2354 28.5696 28.2354 26.6665V13.0818C30.3806 12.6445 32 10.7432 32 8.47046V6.58813C32 6.06836 31.5786 5.64697 31.0588 5.64697ZM30.1177 8.47046C30.1177 10.0276 28.8511 11.2939 27.2942 11.2939C25.7373 11.2939 24.4707 10.0273 24.4707 8.47046V7.5293H30.1177V8.47046ZM11.3882 21.6469H9.70753L11.8655 19.489C12.2332 19.1215 12.2332 18.5256 11.8655 18.1579C11.4981 17.7905 10.9021 17.7905 10.5344 18.1579L6.76979 21.9228C6.17921 22.5134 6.59743 23.5295 7.43532 23.5295H9.11598L6.95802 25.6874C6.59059 26.0549 6.59059 26.6508 6.95802 27.0185C7.3257 27.3859 7.92165 27.3859 8.28908 27.0185L12.0537 23.2536C12.323 22.9846 12.4033 22.5798 12.2578 22.228C12.1121 21.8764 11.7691 21.6469 11.3882 21.6469ZM17 10H2V11.4H17V10Z" fill="white"/>
</g>
<defs>
<clipPath id="clip0_174_1229">
<rect width="32" height="32" fill="white"/>
</clipPath>
</defs>
</svg>
