<svg width="32" height="32" viewBox="0 0 32 32" fill="none" xmlns="http://www.w3.org/2000/svg">
<path d="M23 17.5C27.2925 17.5 30.5 16.18 30.5 15C30.5 14.412 29.6645 13.7705 28.3095 13.2915C26.9505 14.6545 25.0725 15.5 23 15.5C20.9275 15.5 19.0495 14.6545 17.6905 13.2915C16.3355 13.7705 15.5 14.412 15.5 15C15.5 16.18 18.7075 17.5 23 17.5Z" fill="white"/>
<path d="M23 14.5C26.584 14.5 29.5 11.584 29.5 8C29.5 4.416 26.584 1.5 23 1.5C19.416 1.5 16.5 4.416 16.5 8C16.5 11.584 19.416 14.5 23 14.5ZM23 3C25.7615 3 28 5.2385 28 8C28 10.7615 25.7615 13 23 13C20.2385 13 18 10.7615 18 8C18 5.2385 20.2385 3 23 3Z" fill="white"/>
<path d="M14.5 17.582L9.3545 9.69196C9.198 9.45196 8.8025 9.45196 8.6455 9.69196L2.718 18.7815C1.921 20.003 1.5 21.4195 1.5 22.878V23C1.5 27.1355 4.8645 30.5 9 30.5C11.2285 30.5 13.2875 29.528 14.7175 27.836C14.5785 27.575 14.5 27.297 14.5 27V17.582ZM2.826 20.8435L3.7755 21.157C3.6775 21.4535 3.6045 21.762 3.5585 22.0735L2.569 21.927C2.624 21.559 2.7105 21.1945 2.826 20.8435ZM9 29.5C5.416 29.5 2.5 26.584 2.5 23H3.5C3.5 26.0325 5.9675 28.5 9 28.5V29.5Z" fill="white"/>
<path d="M15.5 24.7065V27C15.5 28.18 18.7075 29.5 23 29.5C27.2925 29.5 30.5 28.18 30.5 27V24.7065C28.9735 25.8785 25.9255 26.5 23 26.5C20.0745 26.5 17.0265 25.8785 15.5 24.7065Z" fill="white"/>
<path d="M15.5 16.7065V19C15.5 20.18 18.7075 21.5 23 21.5C27.2925 21.5 30.5 20.18 30.5 19V16.7065C28.9735 17.8785 25.9255 18.5 23 18.5C20.0745 18.5 17.0265 17.8785 15.5 16.7065Z" fill="white"/>
<path d="M15.5 20.7065V23C15.5 24.18 18.7075 25.5 23 25.5C27.2925 25.5 30.5 24.18 30.5 23V20.7065C28.9735 21.8785 25.9255 22.5 23 22.5C20.0745 22.5 17.0265 21.8785 15.5 20.7065Z" fill="white"/>
<path d="M23 9.5C22.7245 9.5 22.5 9.2755 22.5 9H21.5C21.5 9.651 21.9195 10.201 22.5 10.408V11.5H23.5V10.408C24.0805 10.201 24.5 9.651 24.5 9C24.5 8.173 23.827 7.5 23 7.5C22.7245 7.5 22.5 7.2755 22.5 7C22.5 6.7245 22.7245 6.5 23 6.5C23.2755 6.5 23.5 6.7245 23.5 7H24.5C24.5 6.349 24.0805 5.799 23.5 5.592V4.5H22.5V5.592C21.9195 5.799 21.5 6.349 21.5 7C21.5 7.827 22.173 8.5 23 8.5C23.2755 8.5 23.5 8.7245 23.5 9C23.5 9.2755 23.2755 9.5 23 9.5Z" fill="white"/>
</svg>
