<svg width="32" height="32" viewBox="0 0 32 32" fill="none" xmlns="http://www.w3.org/2000/svg">
<path d="M25.306 9.36743L26.7109 10.7731L29.7 7.78234C29.8893 7.59293 29.9889 7.3437 29.9889 7.07453C29.9889 6.80536 29.8793 6.55613 29.7 6.36672L26.7109 3.37598L25.306 4.78163L26.5913 6.06765H21.0217V8.06148H26.5913L25.306 9.36743Z" fill="white"/>
<path d="M6.79418 22.7362L5.38933 21.3306L2.40027 24.3213C2.21096 24.5107 2.11133 24.76 2.11133 25.0291C2.11133 25.2983 2.22093 25.5475 2.40027 25.7369L5.38933 28.7277L6.79418 27.322L5.50889 26.036H11.0785V24.0422H5.49892L6.79418 22.7362Z" fill="white"/>
<path fill-rule="evenodd" clip-rule="evenodd" d="M29.4113 17.8414C28.7636 16.1367 27.6178 14.6712 26.1233 13.6444C24.6288 12.6076 22.8453 12.0593 21.0319 12.0593C20.6733 12.0593 20.3146 12.0792 19.9659 12.1191C19.9708 12.0892 19.9708 12.0568 19.9708 12.0244C19.9708 11.992 19.9708 11.9596 19.9758 11.9297C19.9808 11.8699 19.9833 11.8075 19.9858 11.7452C19.9883 11.6829 19.9908 11.6206 19.9957 11.5608C20.0157 11.2119 20.0256 10.863 20.0057 10.524C20.0057 10.5151 20.0037 10.5061 20.0015 10.4962C19.9988 10.4841 19.9957 10.4707 19.9957 10.4542C19.916 9.15825 19.5673 7.8822 18.9496 6.72578C18.0529 5.0709 16.6679 3.73504 14.9741 2.9076C13.4298 2.15991 11.6961 1.86084 9.99237 2.06022C9.87733 2.06022 9.75639 2.07794 9.63863 2.09519L9.63862 2.0952C9.6034 2.10036 9.56846 2.10547 9.53405 2.11007C8.9761 2.19979 8.4281 2.34933 7.90004 2.54871C6.68449 2.98735 5.56857 3.69516 4.632 4.62229C3.7054 5.55939 2.99799 6.67594 2.55959 7.90214C2.36032 8.43051 2.21087 8.96884 2.1212 9.52711C2.09131 9.68662 2.07138 9.83616 2.06142 9.99566C1.86215 11.7004 2.15109 13.425 2.90831 14.9703C3.73529 16.665 5.0704 18.0507 6.72434 18.948C8.37828 19.8352 10.2614 20.1941 12.1246 19.9648C11.9153 21.7692 12.2541 23.6036 13.101 25.2086C13.9479 26.8236 15.2631 28.1395 16.8772 28.9769C18.4913 29.8243 20.3146 30.1533 22.1279 29.934C23.9313 29.7146 25.6251 28.947 26.9901 27.7407C28.3452 26.5345 29.3116 24.9394 29.7401 23.1649C30.1785 21.4004 30.0589 19.5461 29.4113 17.8414ZM22.0281 21.0313H24.0208V23.0252H22.0281V27.0128H20.0354V23.0252H18.0427V21.0313H20.0354V20.3634L17.6243 17.1533C18.1922 16.5452 18.6704 15.8573 19.0491 15.1196C18.9893 15.2393 18.9295 15.3589 18.8597 15.4785L21.0318 18.3696L23.2238 15.4486L24.8179 16.6449L22.0281 20.3634V21.0313ZM11.7759 8.36091C11.5866 8.18146 11.3375 8.0718 11.0685 8.0718C10.7994 8.0718 10.5503 8.18146 10.361 8.36091C10.1817 8.55032 10.0721 8.79955 10.0721 9.06872C10.0721 9.33788 10.1717 9.58711 10.361 9.77652C10.5503 9.96594 10.7994 10.0656 11.0784 10.0557C11.7759 10.0557 12.4633 10.3049 13.0014 10.7535C13.5394 11.2021 13.8981 11.8302 14.0176 12.528C14.1372 13.2159 14.0077 13.9337 13.649 14.5418C13.2903 15.1499 12.7324 15.6184 12.0648 15.8477V17.0241H10.0721V15.8477C9.48425 15.6484 8.98608 15.2596 8.62739 14.7611C8.27867 14.2626 8.0794 13.6645 8.0794 13.0464H10.0721C10.0721 13.2458 10.1319 13.4452 10.2415 13.6047C10.3511 13.7742 10.5105 13.8938 10.6898 13.9735C10.8692 14.0533 11.0784 14.0633 11.2677 14.0334C11.457 14.0034 11.6364 13.9038 11.7759 13.7642C11.9153 13.6246 12.005 13.4551 12.0449 13.2558C12.0847 13.0564 12.0648 12.857 11.9851 12.6775C11.9054 12.4981 11.7759 12.3386 11.6164 12.2289C11.4471 12.1193 11.2578 12.0595 11.0585 12.0595C10.361 12.0595 9.67356 11.8102 9.13553 11.3616C8.5975 10.913 8.23881 10.285 8.11925 9.58711C7.99969 8.88927 8.12921 8.17149 8.4879 7.56337C8.84659 6.95525 9.40454 6.49667 10.0721 6.25741V5.08105H12.0648V6.26738C12.6526 6.46677 13.1608 6.85556 13.5095 7.35402C13.8582 7.85248 14.0575 8.45063 14.0575 9.06872H12.0648C12.0648 8.79955 11.9652 8.55032 11.7759 8.36091Z" fill="white"/>
</svg>
