<svg width="32" height="32" viewBox="0 0 32 32" fill="none" xmlns="http://www.w3.org/2000/svg">
<g clip-path="url(#clip0_174_1228)">
<path d="M1.97093 19.4787C2.07983 19.0676 2.45186 18.7812 2.87717 18.7812H13.1272C13.5525 18.7812 13.9245 19.0676 14.0334 19.4787L15.9095 26.561C16.3823 28.3455 15.0368 30.0938 13.1909 30.0938H2.81354C0.96761 30.0938 -0.377891 28.3455 0.0947994 26.5611L1.97093 19.4787Z" fill="white"/>
<path fill-rule="evenodd" clip-rule="evenodd" d="M17.9666 19.4787C18.0755 19.0676 18.4475 18.7812 18.8728 18.7812H29.1228C29.5481 18.7812 29.9202 19.0676 30.0291 19.4787L31.9052 26.5611C32.3779 28.3455 31.0324 30.0938 29.1865 30.0938H18.8091C16.9632 30.0938 15.6177 28.3455 16.0904 26.5611L17.9666 19.4787Z" fill="white"/>
<path fill-rule="evenodd" clip-rule="evenodd" d="M9.90666 10.1022C10.0161 9.6918 10.3878 9.40625 10.8125 9.40625H21.1875C21.6122 9.40625 21.9839 9.6918 22.0933 10.1022L23.9645 17.1191C24.4406 18.9045 23.095 20.6562 21.247 20.6562H10.753C8.90511 20.6562 7.55932 18.9046 8.03547 17.1191L9.90666 10.1022Z" fill="white"/>
<path fill-rule="evenodd" clip-rule="evenodd" d="M16 1.90625C16.5178 1.90625 16.9375 2.32598 16.9375 2.84375V4.71875C16.9375 5.23652 16.5178 5.65625 16 5.65625C15.4822 5.65625 15.0625 5.23652 15.0625 4.71875V2.84375C15.0625 2.32598 15.4822 1.90625 16 1.90625Z" fill="white"/>
<path fill-rule="evenodd" clip-rule="evenodd" d="M24.0293 2.0618C24.4777 2.32068 24.6313 2.89405 24.3724 3.34245L22.4371 6.69457C22.1782 7.14297 21.6048 7.2966 21.1564 7.03771C20.708 6.77883 20.5544 6.20546 20.8133 5.75706L22.7486 2.40494C23.0075 1.95654 23.5809 1.80291 24.0293 2.0618Z" fill="white"/>
<path fill-rule="evenodd" clip-rule="evenodd" d="M28.1785 8.9374C28.4374 9.3858 28.2837 9.95917 27.8353 10.2181L26.2116 11.1556C25.7632 11.4144 25.1898 11.2608 24.9309 10.8124C24.6721 10.364 24.8257 9.79066 25.2741 9.53177L26.8978 8.59427C27.3462 8.33538 27.9196 8.48901 28.1785 8.9374Z" fill="white"/>
<path fill-rule="evenodd" clip-rule="evenodd" d="M7.97086 2.0618C8.41925 1.80291 8.99262 1.95654 9.25151 2.40494L11.1869 5.75706C11.4458 6.20546 11.2921 6.77883 10.8437 7.03771C10.3953 7.2966 9.82197 7.14297 9.56309 6.69457L7.62771 3.34245C7.36883 2.89405 7.52246 2.32068 7.97086 2.0618Z" fill="white"/>
<path fill-rule="evenodd" clip-rule="evenodd" d="M3.82156 8.9374C4.08045 8.48901 4.65382 8.33538 5.10222 8.59427L6.72597 9.53177C7.17436 9.79066 7.32799 10.364 7.0691 10.8124C6.81021 11.2608 6.23684 11.4144 5.78845 11.1556L4.1647 10.2181C3.7163 9.95917 3.56268 9.3858 3.82156 8.9374Z" fill="white"/>
</g>
<defs>
<clipPath id="clip0_174_1228">
<rect width="32" height="32" fill="white"/>
</clipPath>
</defs>
</svg>
