<svg width="32" height="32" viewBox="0 0 32 32" fill="none" xmlns="http://www.w3.org/2000/svg">
<path fill-rule="evenodd" clip-rule="evenodd" d="M16 3C8.8203 3 3 8.8203 3 16C3 23.1797 8.8203 29 16 29C23.1797 29 29 23.1797 29 16C29 8.8203 23.1797 3 16 3ZM21.379 13.0965C21.5625 14.2117 21.0301 15.3233 20.0449 15.8786C21.3014 16.1796 22.1964 17.2901 22.2227 18.5808C22.2227 20.77 21.1281 22.3776 17.8444 22.3776H17.5023V24.219C17.5023 24.6503 17.1527 25 16.7213 25C16.29 25 15.9403 24.6503 15.9403 24.219V22.3776H14.8685V24.1962C14.8685 24.6401 14.5087 25 14.0647 25C13.6208 25 13.2609 24.6401 13.2609 24.1962V22.3776H11.0033C10.5374 22.3776 10.1596 21.9998 10.1596 21.5339C10.1596 21.0679 10.5374 20.6901 11.0033 20.6901H11.3796C11.6988 20.6901 11.9953 20.5077 11.9953 19.9148V12.8115C11.9953 12.3783 11.7331 12.2187 11.1972 12.2187H10.8266C10.3701 12.2187 10 11.8486 10 11.392C10 10.9355 10.3701 10.5654 10.8266 10.5654H13.2153V8.79812C13.2153 8.35733 13.5727 8 14.0135 8C14.4542 8 14.8116 8.35733 14.8116 8.79812V10.5654H15.8833V8.79812C15.8833 8.35733 16.2406 8 16.6814 8C17.1222 8 17.4796 8.35733 17.4796 8.79812V10.5882C19.0986 10.725 21.1509 11.3749 21.379 13.0965ZM15.9517 12.3213H14.8115V15.4567H16.9208C17.7634 15.3496 18.378 14.6062 18.3233 13.7579C18.3233 12.4581 16.7498 12.3213 15.9517 12.3213ZM16.5788 20.5191V20.5305C18.2891 20.5305 19.1442 19.8121 19.1442 18.5352C19.1442 17.2582 17.3427 17.0985 16.8638 17.0985H14.8115V20.5191H16.5788Z" fill="white"/>
</svg>
