<svg width="32" height="32" viewBox="0 0 32 32" fill="none" xmlns="http://www.w3.org/2000/svg">
<g clip-path="url(#clip0_194_1040)">
<path d="M25.7332 6.93359H12.5999V31.6669H31.6665V12.7336L25.7332 6.93359ZM15.9332 9.73359H21.3999V16.4003H15.9332V9.73359ZM27.3332 27.8669H16.9332C16.3332 27.8669 15.8665 27.4003 15.8665 26.8003C15.8665 26.2003 16.3332 25.7336 16.9332 25.7336H27.3332C27.9332 25.7336 28.3999 26.2003 28.3999 26.8003C28.3999 27.4003 27.9332 27.8669 27.3332 27.8669ZM27.3332 23.3336H16.9332C16.3332 23.3336 15.8665 22.8669 15.8665 22.2669C15.8665 21.6669 16.3332 21.2003 16.9332 21.2003H27.3332C27.9332 21.2003 28.3999 21.6669 28.3999 22.2669C28.3999 22.8669 27.9332 23.3336 27.3332 23.3336ZM24.3332 14.1336V8.40026L30.2665 14.1336H24.3332Z" fill="white"/>
<path d="M8.53325 17.7335C8.33325 17.8668 8.13325 17.9335 7.93325 17.9335C7.59992 17.9335 7.26659 17.8002 7.06659 17.4668C6.73325 17.0002 6.86659 16.3335 7.33325 16.0002L9.79992 14.2668C9.99992 14.1335 10.2666 14.0668 10.5333 14.0668V11.3335L6.26659 14.2668C6.06659 14.4002 5.86659 14.4668 5.66659 14.4668C5.33325 14.4668 4.99992 14.3335 4.79992 14.0002C4.46659 13.5335 4.59992 12.8668 5.06659 12.5335L9.53325 9.46683C9.79992 9.26683 10.1999 9.20016 10.5333 9.3335V4.86683H19.3333L16.2666 0.333496L0.333252 10.4668L10.5333 25.4668V16.3335L8.53325 17.7335Z" fill="white"/>
</g>
<defs>
<clipPath id="clip0_194_1040">
<rect width="32" height="32" fill="white"/>
</clipPath>
</defs>
</svg>
