<svg width="32" height="32" viewBox="0 0 32 32" fill="none" xmlns="http://www.w3.org/2000/svg">
<g clip-path="url(#clip0_194_1046)">
<path d="M5.8916 23.7199L8.03323 22.8632V20.5312L5.8916 21.3879V23.7199Z" fill="white"/>
<path d="M17.0709 8.73511L14.9292 7.87842V14.5617L17.0709 15.4184V8.73511Z" fill="white"/>
<path d="M31.5881 0.16118C31.3304 -0.0132573 31.0031 -0.0484448 30.7144 0.0670552L21.0208 3.94443L11.3274 0.0670552C11.1038 -0.0223823 10.8545 -0.0223198 10.6309 0.0670552L0.589375 4.08368C0.233375 4.22606 0 4.57081 0 4.95418V31.0625C0 31.3736 0.154312 31.6644 0.411938 31.8388C0.669563 32.0132 0.996875 32.0484 1.28562 31.9329L10.9792 28.0555L20.6726 31.9329C20.8962 32.0224 21.1455 32.0223 21.3691 31.9329L31.4107 27.9162C31.7666 27.7739 32.0001 27.4292 32.0001 27.0458V0.937493C32 0.62643 31.8457 0.335618 31.5881 0.16118ZM9.90831 23.4977C9.90831 23.8811 9.67494 24.2258 9.319 24.3682L5.30231 25.9749C5.23844 26.0004 4.836 26.1566 4.42856 25.8807C4.17094 25.7063 4.01662 25.4156 4.01662 25.1044V20.7531C4.01662 20.3697 4.25 20.025 4.60594 19.8826L8.62263 18.2759C8.91156 18.1604 9.23881 18.1956 9.49638 18.3701C9.754 18.5445 9.90831 18.8352 9.90831 19.1464V23.4977ZM9.31906 15.6655L5.30237 17.2722C4.69619 17.5146 4.22031 17.0914 4.08375 16.7499C3.89144 16.2692 4.12525 15.7236 4.60594 15.5313L8.62263 13.9246C9.10363 13.7323 9.649 13.9662 9.84125 14.4469C10.0336 14.9276 9.79975 15.4732 9.31906 15.6655ZM9.31906 11.3141L5.30237 12.9207C4.69619 13.1631 4.22031 12.74 4.08375 12.3985C3.89144 11.9177 4.12525 11.3722 4.60594 11.1799L8.62263 9.57318C9.10363 9.38087 9.649 9.6148 9.84125 10.0954C10.0336 10.5762 9.79975 11.1217 9.31906 11.3141ZM9.31906 6.96268L5.30237 8.56937C4.69619 8.81174 4.22031 8.38862 4.08375 8.04712C3.89144 7.56643 4.12525 7.02081 4.60594 6.82849L8.62263 5.22181C9.10363 5.02949 9.649 5.26343 9.84125 5.74406C10.0336 6.22474 9.79975 6.77037 9.31906 6.96268ZM13.0541 6.49387C13.0541 6.18274 13.2084 5.89199 13.4661 5.71756C13.7237 5.54312 14.0509 5.50793 14.3398 5.62343L18.3566 7.23012C18.7124 7.37249 18.9459 7.71718 18.9459 8.10055V16.8033C18.9459 17.1144 18.7916 17.4052 18.5339 17.5796C18.1267 17.8553 17.7244 17.6994 17.6602 17.6737L13.6434 16.0671C13.2876 15.9247 13.0541 15.58 13.0541 15.1966V6.49387ZM18.8788 25.8543C18.7432 26.1933 18.2652 26.6186 17.6602 26.3766L13.6434 24.7699C13.1628 24.5776 12.9289 24.032 13.1213 23.5512C13.3135 23.0705 13.8591 22.8366 14.3399 23.029L18.3566 24.6357C18.8373 24.8279 19.0711 25.3736 18.8788 25.8543ZM18.8788 21.5029C18.7432 21.8419 18.2652 22.2672 17.6602 22.0251L13.6435 20.4184C13.1628 20.2261 12.9289 19.6806 13.1213 19.1998C13.3135 18.7191 13.8589 18.4852 14.3398 18.6776L18.3566 20.2842C18.8373 20.4766 19.0711 21.0222 18.8788 21.5029ZM27.3941 25.1716L23.3774 26.7782C22.7712 27.0206 22.2953 26.5975 22.1588 26.256C21.9664 25.7753 22.2002 25.2297 22.6809 25.0374L26.6976 23.4307C27.1786 23.2384 27.724 23.4722 27.9163 23.9529C28.1086 24.4336 27.8748 24.9792 27.3941 25.1716ZM27.3941 20.8202L23.3774 22.4269C22.7712 22.6692 22.2953 22.2461 22.1588 21.9046C21.9664 21.4239 22.2002 20.8783 22.6809 20.686L26.6976 19.0793C27.1786 18.887 27.724 19.1209 27.9163 19.6016C28.1086 20.0823 27.8748 20.6279 27.3941 20.8202ZM27.3941 16.4688L23.3774 18.0755C22.7712 18.3179 22.2953 17.8947 22.1588 17.5532C21.9664 17.0725 22.2002 16.5269 22.6809 16.3346L26.6976 14.7279C27.1786 14.5356 27.724 14.7696 27.9163 15.2502C28.1086 15.7309 27.8748 16.2765 27.3941 16.4688ZM27.3941 12.1174L23.3774 13.7241C22.7712 13.9664 22.2953 13.5433 22.1588 13.2018C21.9664 12.7211 22.2002 12.1755 22.6809 11.9832L26.6976 10.3765C27.1786 10.1842 27.724 10.4181 27.9163 10.8987C28.1086 11.3794 27.8748 11.9251 27.3941 12.1174ZM27.3941 7.76599L23.3774 9.37268C22.7712 9.61506 22.2953 9.19193 22.1588 8.85043C21.9664 8.36968 22.2002 7.82412 22.6809 7.63181L26.6976 6.02512C27.1786 5.83281 27.724 6.06674 27.9163 6.54737C28.1086 7.02812 27.8748 7.57374 27.3941 7.76599Z" fill="white"/>
</g>
<defs>
<clipPath id="clip0_194_1046">
<rect width="32" height="32" fill="white"/>
</clipPath>
</defs>
</svg>
