<svg width="32" height="32" viewBox="0 0 32 32" fill="none" xmlns="http://www.w3.org/2000/svg">
<path d="M18.6657 5.08701C18.0191 4.13613 17.4486 3.26132 16.9161 2.46259C16.84 2.34848 16.7259 2.23438 16.6118 2.1583C16.1554 1.85402 15.5468 2.00616 15.2425 2.46259C14.7481 3.26132 14.1775 4.0981 13.4929 5.08701C10.4881 9.49908 6 16.1552 6 19.9587C6 22.7353 7.14105 25.2456 8.96674 27.0713C10.7924 28.8589 13.3027 30 16.0793 30C18.8559 30 21.3662 28.8589 23.1919 27.0333C25.0176 25.2076 26.1586 22.6973 26.1586 19.9207C26.1586 16.1172 21.6705 9.49908 18.6657 5.08701ZM21.8226 25.664C20.3392 27.1474 18.3234 28.0222 16.0793 28.0222C13.8352 28.0222 11.8194 27.1093 10.336 25.664C8.85263 24.1806 7.97783 22.1648 7.97783 19.9207C7.97783 16.7257 12.2758 10.3739 15.1284 6.15199C15.4707 5.65753 15.775 5.16308 16.0793 4.74469C16.3836 5.16308 16.6879 5.65753 17.0302 6.15199C19.8828 10.4119 24.1808 16.7257 24.1808 19.9207C24.1808 22.1648 23.2679 24.1806 21.8226 25.664Z" fill="white"/>
<path d="M21.9749 19.236C21.4424 19.198 20.986 19.6164 20.948 20.1489C20.9099 20.9857 20.6437 21.7844 20.2253 22.469C19.8069 23.1537 19.1983 23.7622 18.4757 24.1426C18.0193 24.4088 17.8291 25.0174 18.0953 25.4738C18.3996 26.0063 19.0082 26.1584 19.4646 25.8922C20.4915 25.3217 21.3283 24.4849 21.8988 23.534C22.5074 22.5831 22.8497 21.4421 22.8877 20.263C22.9258 19.7305 22.5074 19.2741 21.9749 19.236Z" fill="white"/>
</svg>
