<svg width="32" height="32" viewBox="0 0 32 32" fill="none" xmlns="http://www.w3.org/2000/svg">
<g clip-path="url(#clip0_189_1176)">
<path d="M29.9629 26.0726L23.0607 20.2326L25.8891 17.4042C26.0766 17.5917 26.331 17.6971 26.5962 17.6971C26.8614 17.6971 27.1158 17.5917 27.3033 17.4042L28.7175 15.99C28.905 15.8025 29.0104 15.5481 29.0104 15.2829C29.0104 15.0177 28.905 14.7633 28.7175 14.5758L21.6464 7.50431C21.4589 7.31678 21.2045 7.21143 20.9393 7.21143C20.6741 7.21143 20.4197 7.31678 20.2322 7.50431L18.818 8.91851C18.7251 9.01137 18.6515 9.12162 18.6012 9.24295C18.5509 9.36428 18.5251 9.49433 18.5251 9.62566C18.5251 9.75699 18.5509 9.88704 18.6012 10.0084C18.6515 10.1297 18.7251 10.24 18.818 10.3328L10.3328 18.818C10.24 18.7251 10.1297 18.6515 10.0084 18.6012C9.88704 18.5509 9.75699 18.5251 9.62566 18.5251C9.49433 18.5251 9.36428 18.5509 9.24295 18.6012C9.12162 18.6515 9.01137 18.7251 8.91851 18.818L7.50431 20.2322C7.31678 20.4197 7.21143 20.6741 7.21143 20.9393C7.21143 21.2045 7.31678 21.4589 7.50431 21.6464L14.5754 28.7175C14.7629 28.905 15.0173 29.0104 15.2825 29.0104C15.5477 29.0104 15.8021 28.905 15.9896 28.7175L17.4038 27.3033C17.5913 27.1158 17.6967 26.8614 17.6967 26.5962C17.6967 26.331 17.5913 26.0766 17.4038 25.8891L20.2322 23.0607L26.0722 29.9629C26.3189 30.254 26.6233 30.4908 26.9662 30.6583C27.309 30.8258 27.6829 30.9204 28.0641 30.9361C28.4454 30.9518 28.8258 30.8883 29.1812 30.7496C29.5367 30.6108 29.8596 30.3999 30.1294 30.1301C30.3992 29.8603 30.6101 29.5374 30.7489 29.1819C30.8876 28.8265 30.9511 28.4461 30.9354 28.0648C30.9197 27.6836 30.8251 27.3097 30.6576 26.9669C30.4901 26.624 30.2533 26.3196 29.9622 26.0729L29.9629 26.0726Z" fill="white"/>
<path d="M19 0H3C2.20506 0.00232161 1.44335 0.319138 0.881244 0.881244C0.319138 1.44335 0.00232161 2.20506 0 3L0 25C0.00232161 25.7949 0.319138 26.5566 0.881244 27.1188C1.44335 27.6809 2.20506 27.9977 3 28H11.03L6.09 23.06C5.81106 22.7819 5.58974 22.4515 5.43873 22.0877C5.28772 21.7239 5.20998 21.3339 5.20998 20.94C5.20998 20.5461 5.28772 20.1561 5.43873 19.7923C5.58974 19.4285 5.81106 19.0981 6.09 18.82L6.9042 18H5C4.73478 18 4.48043 17.8946 4.29289 17.7071C4.10536 17.5196 4 17.2652 4 17C4 16.7348 4.10536 16.4804 4.29289 16.2929C4.48043 16.1054 4.73478 16 5 16H7C7.26522 16 7.51957 16.1054 7.70711 16.2929C7.89464 16.4804 8 16.7348 8 17L7.9993 17.0035C8.53312 16.6649 9.15856 16.4995 9.79 16.53L12.4176 13.9024C12.2873 13.9652 12.1447 13.9985 12 14H5C4.73478 14 4.48043 13.8946 4.29289 13.7071C4.10536 13.5196 4 13.2652 4 13C4 12.7348 4.10536 12.4804 4.29289 12.2929C4.48043 12.1054 4.73478 12 5 12H12C12.2652 12 12.5196 12.1054 12.7071 12.2929C12.8946 12.4804 13 12.7348 13 13C12.9985 13.1447 12.9652 13.2873 12.9023 13.4177L16.53 9.79C16.5089 9.36889 16.5752 8.94797 16.725 8.55382C16.8747 8.15966 17.1046 7.80084 17.4 7.5L18.82 6.09C19.2279 5.68182 19.7446 5.3997 20.3085 5.27734C20.8724 5.15498 21.4596 5.19757 22 5.4V3C21.9977 2.20506 21.6809 1.44335 21.1188 0.881244C20.5566 0.319138 19.7949 0.00232161 19 0V0ZM15 10H5C4.73478 10 4.48043 9.89464 4.29289 9.70711C4.10536 9.51957 4 9.26522 4 9C4 8.73478 4.10536 8.48043 4.29289 8.29289C4.48043 8.10536 4.73478 8 5 8H15C15.2652 8 15.5196 8.10536 15.7071 8.29289C15.8946 8.48043 16 8.73478 16 9C16 9.26522 15.8946 9.51957 15.7071 9.70711C15.5196 9.89464 15.2652 10 15 10ZM17 6H5C4.73478 6 4.48043 5.89464 4.29289 5.70711C4.10536 5.51957 4 5.26522 4 5C4 4.73478 4.10536 4.48043 4.29289 4.29289C4.48043 4.10536 4.73478 4 5 4H17C17.2652 4 17.5196 4.10536 17.7071 4.29289C17.8946 4.48043 18 4.73478 18 5C18 5.26522 17.8946 5.51957 17.7071 5.70711C17.5196 5.89464 17.2652 6 17 6Z" fill="white"/>
</g>
<defs>
<clipPath id="clip0_189_1176">
<rect width="32" height="32" fill="white"/>
</clipPath>
</defs>
</svg>
