<svg width="32" height="32" viewBox="0 0 32 32" fill="none" xmlns="http://www.w3.org/2000/svg">
<g clip-path="url(#clip0_194_1061)">
<path fill-rule="evenodd" clip-rule="evenodd" d="M13.7826 32H18.2172C19.2999 32 20.2212 31.26 20.4572 30.2014L21.0199 27.7027C21.9346 27.3147 22.8079 26.808 23.6252 26.1907L26.0586 26.9587C27.0972 27.2827 28.2292 26.8373 28.7479 25.9173L30.9719 22.0707C31.4959 21.136 31.3159 19.9707 30.5359 19.2373L30.5279 19.2293L28.6532 17.5067C28.7106 17 28.7386 16.4947 28.7386 16C28.7386 15.5053 28.7106 15 28.6532 14.4933L30.5359 12.7627C31.3159 12.0293 31.4946 10.8627 30.9652 9.916L28.7546 6.092C28.2306 5.16133 27.0959 4.716 26.0559 5.04133L23.6266 5.808C22.8092 5.19067 21.9372 4.684 21.0212 4.296L20.4586 1.79867C20.2212 0.740001 19.2999 0 18.2172 0H13.7826C12.6999 0 11.7786 0.739999 11.5412 1.79733L10.9786 4.296C10.0639 4.684 9.19056 5.19067 8.37322 5.808L5.94122 5.04133C4.90122 4.71733 3.76922 5.16267 3.25189 6.08267L1.02789 9.92933C0.503889 10.864 0.683889 12.0293 1.47189 12.7707L3.34522 14.4933C3.28789 15 3.25989 15.5053 3.25989 16C3.25989 16.4947 3.28922 17 3.34656 17.5067L1.46389 19.2373C0.683889 19.9707 0.505222 21.1373 1.03456 22.084L3.24522 25.908C3.76789 26.8387 4.90122 27.28 5.94389 26.9587L8.37322 26.192C9.19056 26.8093 10.0626 27.316 10.9786 27.704L11.5412 30.2014C11.7786 31.26 12.6999 32 13.7826 32ZM14.7746 21.308C14.8506 21.3253 14.9252 21.3333 15.0012 21.3333C15.4559 21.3333 15.8666 21.0213 15.9732 20.5573L17.9732 11.8907C18.0972 11.3533 17.7612 10.816 17.2239 10.692C16.6932 10.5707 16.1492 10.9027 16.0252 11.4427L14.0252 20.1093C13.9012 20.6467 14.2372 21.184 14.7746 21.308ZM20.3332 20C20.0599 20 19.7879 19.8893 19.5892 19.6693C19.2199 19.2587 19.2532 18.6267 19.6639 18.256L22.1719 16L19.6639 13.744C19.2532 13.3747 19.2199 12.7427 19.5892 12.3307C19.9599 11.9213 20.5919 11.888 21.0026 12.256L24.3359 15.256C24.5466 15.4467 24.6666 15.7173 24.6666 16C24.6666 16.2827 24.5466 16.5533 24.3359 16.744L21.0026 19.744C20.8106 19.916 20.5719 20 20.3332 20ZM10.9972 19.744C11.1892 19.916 11.4279 20 11.6666 20C11.9399 20 12.2119 19.8893 12.4106 19.6693C12.7799 19.2573 12.7466 18.6253 12.3359 18.256L9.82789 16L12.3359 13.744C12.7466 13.3733 12.7799 12.7413 12.4106 12.3307C12.0386 11.92 11.4079 11.8867 10.9972 12.256L7.66389 15.256C7.45322 15.4467 7.33322 15.7173 7.33322 16C7.33322 16.2827 7.45322 16.5533 7.66389 16.744L10.9972 19.744Z" fill="white"/>
</g>
<defs>
<clipPath id="clip0_194_1061">
<rect width="32" height="32" fill="white"/>
</clipPath>
</defs>
</svg>
