<svg width="32" height="32" viewBox="0 0 32 32" fill="none" xmlns="http://www.w3.org/2000/svg">
<g clip-path="url(#clip0_191_1191)">
<path d="M5.69745 23.0773V0H4.16057C1.89632 0 0.0541992 1.84213 0.0541992 4.10638V24.3813C0.994887 23.5697 2.2182 23.0772 3.55514 23.0772H5.69745V23.0773Z" fill="white"/>
<path d="M24.8735 15.9344C25.0753 15.9344 25.2755 15.9417 25.474 15.955V0H7.56909V23.0773H16.1157C16.9495 19.0061 20.5595 15.9344 24.8735 15.9344ZM13.2491 5.51069H19.5128V7.38225H13.2491V5.51069ZM11.1333 9.57381H21.6287V11.4454H11.1333V9.57381Z" fill="white"/>
<path d="M17.1566 29.3805H4.79694V27.509H16.3311C16.0749 26.6804 15.9362 25.8008 15.9346 24.8896H3.55512C1.59481 24.8896 0 26.4845 0 28.4447C0 30.405 1.59481 31.9998 3.55512 31.9998H19.4837C18.5468 31.2895 17.7539 30.3991 17.1566 29.3805Z" fill="white"/>
<path d="M24.8735 17.7471C20.9438 17.7471 17.7468 20.944 17.7468 24.8736C17.7468 28.8033 20.9438 32.0002 24.8735 32.0002C28.803 32.0002 32 28.8032 32 24.8736C32 20.944 28.803 17.7471 24.8735 17.7471ZM24.8728 20.6072C25.3983 20.6072 25.7875 21.0368 25.8103 21.5447C25.833 22.051 25.3631 22.4822 24.8728 22.4822C24.3472 22.4822 23.958 22.0526 23.9353 21.5447C23.9126 21.0384 24.3824 20.6072 24.8728 20.6072ZM25.8124 28.5274H23.9374V23.7274H25.8124V28.5274Z" fill="white"/>
</g>
<defs>
<clipPath id="clip0_191_1191">
<rect width="32" height="32" fill="white"/>
</clipPath>
</defs>
</svg>
