<svg width="32" height="32" viewBox="0 0 32 32" fill="none" xmlns="http://www.w3.org/2000/svg">
<path d="M1 4.86954C1 4.6346 1.17621 4.43489 1.40724 4.40356L12.2149 2.96254C12.4968 2.92339 12.7474 3.14267 12.7474 3.42853V14.9528C12.7474 15.2112 12.536 15.4227 12.2775 15.4227H1.4699C1.21145 15.4227 1 15.2112 1 14.9528V4.86954Z" fill="white"/>
<path d="M1 27.9857C1 28.2207 1.17621 28.4204 1.40724 28.4517L12.2149 29.8927C12.4968 29.9319 12.7474 29.7126 12.7474 29.4267V17.9025C12.7474 17.6441 12.536 17.4326 12.2775 17.4326H1.4699C1.21145 17.4326 1 17.6441 1 17.9025V27.9857Z" fill="white"/>
<path d="M14.7476 3.17239C14.7476 2.93353 14.9277 2.73382 15.1666 2.70641L30.2816 1.00303C30.5596 0.971705 30.8024 1.18707 30.8024 1.46901V14.9629C30.8024 15.2213 30.5909 15.4328 30.3325 15.4328H15.2175C14.959 15.4328 14.7476 15.2213 14.7476 14.9629V3.17239Z" fill="white"/>
<path d="M14.7476 17.9025C14.7476 17.6441 14.959 17.4326 15.2175 17.4326H30.3325C30.5909 17.4326 30.8024 17.6441 30.8024 17.9025V31.3964C30.8024 31.6744 30.5596 31.8937 30.2816 31.8624L15.1666 30.2021C14.9277 30.1786 14.7476 29.975 14.7476 29.7361V17.9025Z" fill="white"/>
</svg>
