<svg width="32" height="32" viewBox="0 0 32 32" fill="none" xmlns="http://www.w3.org/2000/svg">
<path d="M15.9041 7.6512H15.2065V6.9568C15.2065 2.4096 17.6161 0 22.1633 0H22.8577V0.6944C22.8609 5.2448 20.4513 7.6512 15.9041 7.6512Z" fill="white"/>
<path d="M18.2528 31.2096C19.2448 31.728 20.3488 32 21.4688 32C24.5216 32 27.3312 29.1136 28.7744 24.4704L29.0176 23.7056L28.2272 23.5744C25.6576 23.1616 23.7184 21.024 23.5584 18.4256C23.3984 15.8304 25.0656 13.4688 27.5648 12.7488L28.5376 12.4704L27.9296 11.6608C26.3296 9.55835 23.9808 8.34875 21.4688 8.34875C20.6112 8.34875 19.7568 8.49275 18.9472 8.77435L16.3744 9.67035C16.08 9.77275 15.7568 9.77275 15.4624 9.67035L12.88 8.77435C12.064 8.49275 11.2096 8.34875 10.3488 8.34875C5.7472 8.34875 2 12.4096 2 17.392C2 25.584 5.6704 32 10.3488 32C11.4688 32 12.5728 31.728 13.5648 31.2096C15.0304 30.4256 16.7872 30.4256 18.2528 31.2096Z" fill="white"/>
</svg>
