<svg width="32" height="32" viewBox="0 0 32 32" fill="none" xmlns="http://www.w3.org/2000/svg">
<g clip-path="url(#clip0_421_1102)">
<path d="M15.9429 13.0743C17.2353 13.0743 18.4988 12.6912 19.5736 11.9734C20.6483 11.2556 21.4862 10.2353 21.9813 9.04143C22.4765 7.84759 22.6066 6.53378 22.3553 5.26601C22.104 3.99824 21.4825 2.83342 20.5694 1.91873C19.6563 1.00404 18.4926 0.380535 17.2252 0.127009C15.9579 -0.126517 14.6439 0.00131038 13.4492 0.494339C12.2545 0.987368 11.2327 1.82347 10.513 2.89699C9.79334 3.97052 9.40802 5.23328 9.40576 6.52572C9.40576 8.26053 10.0941 9.92445 11.3198 11.1522C12.5454 12.38 14.2081 13.0713 15.9429 13.0743Z" fill="white"/>
<path fill-rule="evenodd" clip-rule="evenodd" d="M4.00001 26.8115C3.99851 27.4923 4.13131 28.1668 4.39081 28.7962C4.65032 29.4256 5.03142 29.9977 5.51232 30.4797C5.99321 30.9616 6.56444 31.344 7.19331 31.6049C7.82217 31.8658 8.49632 32 9.17716 32H22.6972C24.0732 32 25.393 31.4534 26.366 30.4804C27.3391 29.5073 27.8857 28.1876 27.8857 26.8115V20.0572C27.8887 19.3744 27.7567 18.6978 27.4971 18.0663C27.2376 17.4348 26.8557 16.8609 26.3735 16.3776C25.8912 15.8942 25.3181 15.5111 24.6872 15.2502C24.0562 14.9892 23.3799 14.8557 22.6972 14.8572H9.17716C7.80409 14.8572 6.48727 15.4026 5.51636 16.3735C4.54546 17.3444 4.00001 18.6613 4.00001 20.0343V26.8115ZM23.3476 17.6868C23.2919 17.5506 23.2104 17.4264 23.1076 17.3211C22.8945 17.1151 22.6097 17 22.3134 17C22.017 17 21.7322 17.1151 21.5191 17.3211L16.2276 22.6126L10.9362 17.3211C10.8114 17.2155 10.668 17.1341 10.5134 17.0811C10.383 17.0271 10.2431 16.9999 10.1019 17.0011C9.81561 17.0081 9.54234 17.1223 9.33621 17.3211C9.173 17.4837 9.06275 17.6919 9.01992 17.9183C8.97709 18.1447 9.00369 18.3787 9.09621 18.5897C9.15443 18.7246 9.23564 18.8483 9.33621 18.9554L15.1304 24.7496V28.2697C15.1304 28.7268 15.9304 29.2068 16.2732 29.4126C16.3135 29.3838 16.361 29.3513 16.4132 29.3154C16.7764 29.0665 17.3704 28.6594 17.3704 28.2697V24.7002L23.0848 18.9211C23.1854 18.814 23.2666 18.6903 23.3248 18.5554C23.3852 18.4186 23.4165 18.2707 23.4165 18.1211C23.4165 17.9716 23.3852 17.8236 23.3248 17.6868H23.3476Z" fill="white"/>
</g>
<defs>
<clipPath id="clip0_421_1102">
<rect width="32" height="32" fill="white"/>
</clipPath>
</defs>
</svg>
