<svg width="32" height="32" viewBox="0 0 32 32" fill="none" xmlns="http://www.w3.org/2000/svg">
<g clip-path="url(#clip0_421_1104)">
<path d="M26.3968 5.85781C26.8525 6.11662 27.3785 6.26531 27.9389 6.26531C29.6663 6.26531 31.0716 4.86 31.0716 3.13269C31.0716 1.40531 29.6663 0 27.9389 0C26.2116 0 24.8063 1.40531 24.8063 3.13269C24.8063 3.61381 24.9156 4.06981 25.1102 4.47756L21.7287 7.0385C21.2288 6.70087 20.6268 6.50356 19.9796 6.50356C19.3479 6.50356 18.7597 6.69212 18.2672 7.015L14.9518 4.30231C15.0814 3.959 15.1528 3.58744 15.1528 3.19931C15.1528 1.472 13.7475 0.0666875 12.0202 0.0666875C10.2929 0.0666875 8.8876 1.472 8.8876 3.19931C8.8876 3.63713 8.97822 4.05413 9.14116 4.43294L4.81016 8.98913C4.56991 8.92994 4.3191 8.89787 4.06085 8.89787C2.33354 8.89787 0.928223 10.3032 0.928223 12.0305C0.928223 13.7578 2.33354 15.1631 4.06085 15.1631C5.78816 15.1631 7.19347 13.7578 7.19347 12.0305C7.19347 11.2552 6.90972 10.5453 6.44141 9.99769L10.3726 5.86212C10.8516 6.15963 11.416 6.332 12.0202 6.332C12.678 6.332 13.2888 6.12775 13.7933 5.78L17.0749 8.465C16.9284 8.82706 16.8469 9.22219 16.8469 9.63619C16.8469 11.3635 18.2522 12.7688 19.9795 12.7688C21.7068 12.7688 23.1122 11.3635 23.1122 9.63619C23.1122 9.23769 23.0366 8.85675 22.9003 8.50587L26.3968 5.85781Z" fill="white"/>
<path d="M27.8847 12.1021C26.1964 12.1021 24.8228 13.4757 24.8228 15.164V31.9999H30.9467V15.164C30.9467 13.4757 29.5731 12.1021 27.8847 12.1021Z" fill="white"/>
<path d="M19.9794 19.7715C18.2911 19.7715 16.9175 21.145 16.9175 22.8335V32H23.0414V22.8334C23.0414 21.145 21.6678 19.7715 19.9794 19.7715Z" fill="white"/>
<path d="M11.9712 14.6052C10.2828 14.6052 8.90918 15.9788 8.90918 17.6672V32.0001H15.0332V17.6672C15.0332 15.9788 13.6596 14.6052 11.9712 14.6052Z" fill="white"/>
<path d="M4.06639 22.583C2.37802 22.583 1.00439 23.9566 1.00439 25.6449V32.0001H7.12833V25.6449C7.12833 23.9566 5.75471 22.583 4.06639 22.583Z" fill="white"/>
</g>
<defs>
<clipPath id="clip0_421_1104">
<rect width="32" height="32" fill="white"/>
</clipPath>
</defs>
</svg>
