<svg width="32" height="32" viewBox="0 0 32 32" fill="none" xmlns="http://www.w3.org/2000/svg">
<path d="M29.0399 17.1709C28.4473 17.1709 27.9507 16.7224 27.8867 16.1297C27.6974 14.39 27.136 12.7114 26.2405 11.2079C25.3451 9.70439 24.1365 8.4112 22.697 7.41616C22.5714 7.3292 22.4643 7.21827 22.3818 7.08974C22.2992 6.96121 22.243 6.81763 22.2162 6.66726C22.1894 6.5169 22.1926 6.36271 22.2256 6.21359C22.2586 6.06447 22.3209 5.92336 22.4086 5.79838C22.7771 5.2698 23.4978 5.14166 24.0264 5.51006C25.738 6.6987 27.1754 8.23996 28.2418 10.0302C29.3082 11.8205 29.9791 13.8184 30.2092 15.8895C30.2733 16.5302 29.8088 17.1068 29.1681 17.1709H29.0399ZM2.41866 17.2494H2.30654C1.99874 17.2171 1.71632 17.064 1.52116 16.8238C1.326 16.5836 1.23402 16.2759 1.26539 15.968C1.47875 13.9011 2.13238 11.9038 3.18229 10.1107C4.2322 8.31756 5.65403 6.77012 7.35209 5.57253C7.86465 5.20412 8.60146 5.33226 8.96987 5.84483C9.33827 6.37341 9.21013 7.0942 8.69757 7.46261C7.27226 8.4688 6.07885 9.76843 5.19752 11.2741C4.31619 12.7799 3.76737 14.4568 3.58795 16.1922C3.52388 16.8009 3.01131 17.2494 2.41866 17.2494ZM22.0402 30.5744C20.0701 31.5195 17.9558 32 15.7453 32C13.4388 32 11.2444 31.4874 9.19411 30.4463C9.05735 30.3791 8.93538 30.2853 8.83532 30.1704C8.73526 30.0555 8.65913 29.9218 8.6114 29.7771C8.56366 29.6324 8.54528 29.4797 8.55733 29.3278C8.56937 29.1759 8.61161 29.0279 8.68155 28.8926C8.95385 28.3159 9.65862 28.0917 10.2353 28.364C11.2444 28.8766 12.3176 29.2289 13.4067 29.4372C14.8804 29.7255 16.386 29.7415 17.8596 29.4852C18.9488 29.293 20.022 28.9567 21.0151 28.4761C21.6078 28.2038 22.3125 28.4281 22.5688 29.0207C22.8571 29.5974 22.6329 30.3021 22.0402 30.5744ZM15.7293 0C13.2466 0 11.2123 2.01822 11.2123 4.51697C11.2123 7.01572 13.2306 9.03394 15.7293 9.03394C18.2281 9.03394 20.2463 7.01572 20.2463 4.51697C20.2463 2.01822 18.2281 0 15.7293 0ZM4.51697 18.9953C2.03424 18.9953 0 21.0135 0 23.5123C0 26.011 2.01822 28.0292 4.51697 28.0292C7.01572 28.0292 9.03394 26.011 9.03394 23.5123C9.03394 21.0135 6.9997 18.9953 4.51697 18.9953ZM26.7815 18.9953C24.2987 18.9953 22.2645 21.0135 22.2645 23.5123C22.2645 26.011 24.2827 28.0292 26.7815 28.0292C29.2802 28.0292 31.2984 26.011 31.2984 23.5123C31.2984 21.0135 29.2802 18.9953 26.7815 18.9953Z" fill="white"/>
</svg>
