<svg width="27" height="32" viewBox="0 0 27 32" fill="none" xmlns="http://www.w3.org/2000/svg">
<g clip-path="url(#clip0_182_1325)">
<path d="M13.5 32C13.338 32 13.1775 31.9686 13.0275 31.9074C9.17361 30.3391 5.87646 27.6546 3.55939 24.1987C1.23512 20.7475 -0.00440652 16.6802 1.17707e-05 12.5193V6.3362C0.000175548 6.08896 0.0736579 5.84731 0.211163 5.64184C0.348668 5.43636 0.544018 5.27627 0.772511 5.18182L13.0225 0.0955744C13.1745 0.0324793 13.3374 0 13.5019 0C13.6664 0 13.8293 0.0324793 13.9813 0.0955744L26.2313 5.18182C26.4594 5.27656 26.6544 5.43677 26.7915 5.64223C26.9287 5.84768 27.0019 6.08917 27.0019 6.3362V12.5193C27.0063 16.6802 25.7668 20.7475 23.4425 24.1987C21.1249 27.6549 17.8271 30.3394 13.9725 31.9074C13.8225 31.9686 13.662 32 13.5 32ZM2.50001 7.17057V12.5193C2.49046 16.0979 3.5264 19.6013 5.48057 22.5991C7.43474 25.597 10.222 27.9588 13.5 29.3943C16.778 27.9588 19.5653 25.597 21.5195 22.5991C23.4736 19.6013 24.5096 16.0979 24.5 12.5193V7.17057L13.5 2.6037L2.50001 7.17057Z" fill="#001E32"/>
<path d="M12.119 19.7499C11.9548 19.7501 11.7922 19.7178 11.6404 19.6551C11.4887 19.5924 11.3508 19.5004 11.2346 19.3843L7.74147 15.8906C7.50713 15.6562 7.37549 15.3383 7.37549 15.0068C7.37549 14.6754 7.50713 14.3575 7.74147 14.1231C7.97588 13.8887 8.29377 13.7571 8.62522 13.7571C8.95668 13.7571 9.27456 13.8887 9.50897 14.1231L12.119 16.7324L17.494 11.3574C17.7284 11.1231 18.0463 10.9915 18.3777 10.9915C18.7092 10.9915 19.0271 11.1231 19.2615 11.3574C19.4958 11.5918 19.6275 11.9097 19.6275 12.2412C19.6275 12.5726 19.4958 12.8905 19.2615 13.1249L13.0052 19.3818C12.889 19.4985 12.7509 19.5911 12.5988 19.6543C12.4467 19.7175 12.2837 19.75 12.119 19.7499Z" fill="#64CEB8"/>
</g>
<defs>
<clipPath id="clip0_182_1325">
<rect width="27" height="32" fill="white"/>
</clipPath>
</defs>
</svg>
