<svg width="32" height="32" viewBox="0 0 32 32" fill="none" xmlns="http://www.w3.org/2000/svg">
<g clip-path="url(#clip0_182_1323)">
<path fill-rule="evenodd" clip-rule="evenodd" d="M9.26912 26.1672H22.7308L24.6729 31.9286H7.32715L9.26912 26.1672ZM10.6098 28.0339L9.92614 30.062H22.0738L21.3902 28.0339H10.6098Z" fill="#001E32"/>
<path fill-rule="evenodd" clip-rule="evenodd" d="M3.92757 4.05901C2.78933 4.05901 1.86663 4.98175 1.86663 6.11995V8.69384C1.86663 11.1669 3.64245 13.2251 5.98851 13.663V6.11995C5.98851 4.98171 5.06577 4.05901 3.92757 4.05901ZM0 6.11995C0 3.95086 1.75839 2.19238 3.92757 2.19238C6.09665 2.19238 7.85513 3.95078 7.85513 6.11995V15.6156H6.92182C3.09902 15.6156 0 12.5166 0 8.69384V6.11995Z" fill="#001E32"/>
<path fill-rule="evenodd" clip-rule="evenodd" d="M24.145 6.11995C24.145 3.95078 25.9035 2.19238 28.0726 2.19238C30.2418 2.19238 32.0002 3.95087 32.0002 6.11995V8.69384C32.0002 12.5166 28.9012 15.6156 25.0784 15.6156H24.145V6.11995ZM28.0726 4.05901C26.9344 4.05901 26.0116 4.98171 26.0116 6.11995V13.663C28.3577 13.2251 30.1335 11.1669 30.1335 8.69384V6.11995C30.1335 4.98175 29.2108 4.05901 28.0726 4.05901Z" fill="#001E32"/>
<path fill-rule="evenodd" clip-rule="evenodd" d="M5.98828 0.0715332H26.0114V11.7358C26.0114 17.265 21.5291 21.7474 15.9999 21.7474C10.4707 21.7474 5.98828 17.265 5.98828 11.7358V0.0715332ZM7.85491 1.93816V11.7358C7.85491 16.2341 11.5016 19.8807 15.9999 19.8807C20.4982 19.8807 24.1448 16.2341 24.1448 11.7358V1.93816H7.85491Z" fill="#001E32"/>
<path fill-rule="evenodd" clip-rule="evenodd" d="M14.9677 26.1672V20.6167H13.1011V28.0338H18.8986V20.6167H17.032V26.1672H14.9677Z" fill="#001E32"/>
<path fill-rule="evenodd" clip-rule="evenodd" d="M12.7837 8.72679C12.7837 7.23254 13.995 6.02124 15.4892 6.02124H16.5112C18.0054 6.02124 19.2167 7.23254 19.2167 8.72679V8.78403H17.3501V8.72679C17.3501 8.26345 16.9745 7.88787 16.5112 7.88787H15.4892C15.0259 7.88787 14.6503 8.26345 14.6503 8.72679V8.75186C14.6503 9.21521 15.0259 9.59079 15.4892 9.59079H16.5112C18.0054 9.59079 19.2167 10.8021 19.2167 12.2963C19.2167 13.7906 18.0054 15.0019 16.5112 15.0019H15.4892C13.995 15.0019 12.7837 13.7906 12.7837 12.2963V12.2213H14.6503V12.2963C14.6503 12.7597 15.0259 13.1353 15.4892 13.1353H16.5112C16.9745 13.1353 17.3501 12.7597 17.3501 12.2963C17.3501 11.833 16.9745 11.4574 16.5112 11.4574H15.4892C13.995 11.4574 12.7837 10.2461 12.7837 8.75186V8.72679Z" fill="#64CEB8"/>
<path fill-rule="evenodd" clip-rule="evenodd" d="M16.9335 4.51172V6.95457H15.0669V4.51172H16.9335Z" fill="#64CEB8"/>
<path fill-rule="evenodd" clip-rule="evenodd" d="M16.9335 14.0685V16.5113H15.0669V14.0685H16.9335Z" fill="#64CEB8"/>
</g>
<defs>
<clipPath id="clip0_182_1323">
<rect width="32" height="32" fill="white"/>
</clipPath>
</defs>
</svg>
