<svg width="32" height="32" viewBox="0 0 32 32" fill="none" xmlns="http://www.w3.org/2000/svg">
<g clip-path="url(#clip0_182_1179)">
<path d="M25.5659 0.00320687H6.76387C6.76337 0.00320687 6.76293 0.00326937 6.76243 0.00326937C4.40993 -0.0893556 2.47412 1.79827 2.47412 4.12314V15.9975C2.47412 17.5482 3.73581 18.8098 5.28662 18.8098H8.84906V29.1878C8.84906 30.7385 10.1107 32.0001 11.6616 32.0001H26.7136C28.2644 32.0001 29.5261 30.7385 29.5261 29.1878V4.12296C29.5261 1.72914 27.5158 0.00320687 25.5659 0.00320687ZM8.84793 16.935H5.28662C4.76968 16.935 4.34912 16.5145 4.34912 15.9975V4.12314C4.34912 2.88296 5.35818 1.87396 6.5985 1.87396C7.83881 1.87396 8.84793 2.88296 8.84793 4.12314V16.935ZM27.6511 29.1878C27.6511 29.7046 27.2306 30.1252 26.7136 30.1252H11.6616C11.1446 30.1252 10.7241 29.7047 10.7241 29.1878V4.12296C10.7241 3.29639 10.4812 2.52489 10.0614 1.87802H25.5402C26.7257 1.94902 27.6511 2.93096 27.6511 4.12296V29.1878Z" fill="#001E32"/>
<path d="M24.4848 8.97998H13.8896C13.3719 8.97998 12.9521 9.39967 12.9521 9.91742C12.9521 10.4352 13.3719 10.8549 13.8896 10.8549H24.4848C25.0025 10.8549 25.4223 10.4352 25.4223 9.91742C25.4223 9.39967 25.0026 8.97998 24.4848 8.97998Z" fill="#64CEB8"/>
<path d="M24.4848 5.16785H13.8896C13.3719 5.16785 12.9521 5.58753 12.9521 6.10528C12.9521 6.62303 13.3719 7.04266 13.8896 7.04266H24.4848C25.0025 7.04266 25.4223 6.62297 25.4223 6.10528C25.4223 5.5876 25.0026 5.16785 24.4848 5.16785Z" fill="#64CEB8"/>
<path d="M24.4848 12.7921H13.8896C13.3719 12.7921 12.9521 13.2118 12.9521 13.7295C12.9521 14.2472 13.3719 14.6669 13.8896 14.6669H24.4848C25.0025 14.6669 25.4223 14.2472 25.4223 13.7295C25.4223 13.2118 25.0026 12.7921 24.4848 12.7921Z" fill="#64CEB8"/>
<path d="M24.4848 16.6042H13.8896C13.3719 16.6042 12.9521 17.0239 12.9521 17.5417C12.9521 18.0594 13.3719 18.4791 13.8896 18.4791H24.4848C25.0025 18.4791 25.4223 18.0594 25.4223 17.5417C25.4223 17.0239 25.0026 16.6042 24.4848 16.6042Z" fill="#64CEB8"/>
<path d="M25.0877 20.9694C24.6912 20.6366 24.0998 20.6883 23.7669 21.0848L21.8651 23.3508C21.4231 22.3705 20.2181 21.9916 19.292 22.5539L18.4359 23.0737C17.9934 23.3424 17.8524 23.919 18.1211 24.3616C18.3898 24.8041 18.9664 24.9451 19.409 24.6764L20.1882 24.2033C20.7098 25.4301 22.3534 25.6857 23.2205 24.6526L25.2031 22.2903C25.536 21.8936 25.4843 21.3023 25.0877 20.9694Z" fill="#64CEB8"/>
</g>
<defs>
<clipPath id="clip0_182_1179">
<rect width="32" height="32" fill="white"/>
</clipPath>
</defs>
</svg>
