<svg width="32" height="32" viewBox="0 0 32 32" fill="none" xmlns="http://www.w3.org/2000/svg">
<g clip-path="url(#clip0_182_1180)">
<path d="M3 30H29C29.6 30 30 29.6 30 29C30 28.4 29.6 28 29 28H4V3C4 2.4 3.6 2 3 2C2.4 2 2 2.4 2 3V29C2 29.6 2.4 30 3 30Z" fill="#001E32"/>
<path d="M28.3 11.3L24 15.6L21.7 13.3C21.3 12.9 20.7 12.9 20.3 13.3L15 18.6L12.7 16.3C12.3 15.9 11.7 15.9 11.3 16.3L6.3 21.3C5.9 21.7 5.9 22.3 6.3 22.7C6.5 22.9 6.7 23 7 23C7.3 23 7.5 22.9 7.7 22.7L12 18.4L14.3 20.7C14.5 20.9 14.8 21 15 21C15.2 21 15.5 20.9 15.7 20.7L21 15.4L23.3 17.7C23.7 18.1 24.3 18.1 24.7 17.7L29.7 12.7C30.1 12.3 30.1 11.7 29.7 11.3C29.3 10.9 28.7 10.9 28.3 11.3Z" fill="#64CEB8"/>
</g>
<defs>
<clipPath id="clip0_182_1180">
<rect width="32" height="32" fill="white"/>
</clipPath>
</defs>
</svg>
