<svg width="28" height="28" viewBox="0 0 28 28" fill="none" xmlns="http://www.w3.org/2000/svg">
<path d="M23.1261 5.96772C23.0344 5.87612 22.9414 5.78654 22.8475 5.69805L23.7536 4.61141L25.2386 5.8497L26.6395 4.1697L21.9897 0.292086L20.5888 1.97209L22.0736 3.21037L21.1357 4.33508C19.3376 3.13704 17.2711 2.41538 15.0938 2.23382V0H12.9062V2.23382C9.87142 2.48686 7.0519 3.78968 4.87391 5.96766C2.43622 8.4053 1.09375 11.6464 1.09375 15.0938C1.09375 18.5411 2.43622 21.7822 4.87391 24.2198C7.31155 26.6575 10.5526 28 14 28C17.4474 28 20.6884 26.6575 23.1261 24.2198C25.5638 21.7822 26.9062 18.5411 26.9062 15.0938C26.9062 11.6464 25.5638 8.4053 23.1261 5.96772ZM14 25.8125C8.08965 25.8125 3.28125 21.0041 3.28125 15.0938C3.28125 9.1834 8.08965 4.375 14 4.375C19.9104 4.375 24.7188 9.1834 24.7188 15.0938C24.7188 21.0041 19.9104 25.8125 14 25.8125Z" fill="#001E32"/>
<path d="M18.4782 7.82141L14.3415 12.9332C14.2302 12.9156 14.1162 12.9063 14 12.9063C12.7938 12.9063 11.8125 13.8876 11.8125 15.0938C11.8125 16.3 12.7938 17.2813 14 17.2813C15.2062 17.2813 16.1875 16.3 16.1875 15.0938C16.1875 14.8175 16.1355 14.5533 16.0416 14.3097L20.1786 9.19751L18.4782 7.82141Z" fill="#64CEB8"/>
</svg>
