<svg width="32" height="32" viewBox="0 0 32 32" fill="none" xmlns="http://www.w3.org/2000/svg">
<g clip-path="url(#clip0_182_1181)">
<g clip-path="url(#clip1_182_1181)">
<path d="M15.816 17.2794C14.8253 16.8761 14.6582 16.6724 14.6582 16.3682C14.6582 16.0094 14.961 15.7953 15.468 15.7953C16.053 15.7953 16.5994 16.03 17.0842 16.3407L17.6411 14.8963C17.1677 14.6307 16.6684 14.4261 16.1253 14.3615L16.087 13.2217H14.6235V14.4137C13.5722 14.699 12.9242 15.4905 12.9242 16.5011C12.9242 17.7823 13.9324 18.3479 15.0204 18.7677C15.7534 19.0599 16.0524 19.3397 16.0524 19.7333C16.0524 20.1554 15.6682 20.439 15.0963 20.439C14.4177 20.439 13.8216 20.1399 13.2808 19.7594L12.7471 21.2261C13.2645 21.6243 13.8981 21.8529 14.5446 21.9252V23.0678H16.0196V21.8419C17.1036 21.5444 17.7977 20.6966 17.7977 19.6557C17.7977 18.5474 17.2051 17.8367 15.816 17.2794C17.2051 17.8367 14.8253 16.8761 15.816 17.2794C17.2051 17.8367 14.8253 16.8761 15.816 17.2794C17.2051 17.8367 14.8253 16.8761 15.816 17.2794C17.2051 17.8367 14.8253 16.8761 15.816 17.2794Z" fill="#64CEB8"/>
<path d="M27.4296 26.2294H29.6176V28.6085H27.4296V26.2294ZM30.5729 7.94468V2.46154C30.5729 1.10421 29.4687 0 28.1114 0H2.46154C1.10421 0 0 1.10421 0 2.46154V7.94468C0 9.30202 1.10421 10.4062 2.46154 10.4062H6.41429V29.5385C6.41429 30.8958 7.5185 32 8.87583 32H21.6976C23.0549 32 24.1591 30.8958 24.1591 29.5385V10.4062H28.1115C29.4687 10.4062 30.5729 9.30202 30.5729 7.94468ZM21.971 29.5385C21.971 29.6893 21.8483 29.812 21.6975 29.812H8.87583C8.72499 29.812 8.60233 29.6893 8.60233 29.5385V6.38653H21.9711V29.5385H21.971ZM4.52362 4.17757V6.36561H6.41422V8.21819H2.46154C2.3107 8.21819 2.18803 8.09552 2.18803 7.94468V2.46154C2.18803 2.3107 2.3107 2.18803 2.46154 2.18803H28.1114C28.2622 2.18803 28.3849 2.3107 28.3849 2.46154V7.94468C28.3849 8.09552 28.2622 8.21819 28.1114 8.21819H24.159V6.36561H26.0493V4.17757H4.52362Z" fill="#001E32"/>
<path d="M31.9998 16.0938L29.3118 13.2997C28.887 12.8583 28.1597 12.8583 27.7349 13.2997L25.0469 16.0938L26.6237 17.6107L27.4293 16.7733V23.8177H29.6173V16.7733L30.4229 17.6107L31.9998 16.0938Z" fill="#001E32"/>
</g>
</g>
<defs>
<clipPath id="clip0_182_1181">
<rect width="32" height="32" fill="white"/>
</clipPath>
<clipPath id="clip1_182_1181">
<rect width="32" height="32" fill="white"/>
</clipPath>
</defs>
</svg>
