<svg width="32" height="32" viewBox="0 0 32 32" fill="none" xmlns="http://www.w3.org/2000/svg">
<g clip-path="url(#clip0_174_1003)">
<path d="M15.772 15.4146C17.8896 15.4146 19.7234 14.655 21.2217 13.1565C22.72 11.6582 23.4795 9.82495 23.4795 7.70703C23.4795 5.58984 22.72 3.75635 21.2214 2.25757C19.7229 0.759521 17.8894 0 15.772 0C13.6541 0 11.8208 0.759521 10.3225 2.25781C8.82422 3.7561 8.06445 5.5896 8.06445 7.70703C8.06445 9.82495 8.82422 11.6584 10.3228 13.1567C11.8213 14.6548 13.6548 15.4146 15.772 15.4146Z" fill="white"/>
<path d="M29.258 24.6064C29.2147 23.9829 29.1273 23.3027 28.9987 22.5844C28.8688 21.8608 28.7016 21.1767 28.5014 20.5515C28.2946 19.9053 28.0133 19.2671 27.6657 18.6555C27.3048 18.0207 26.881 17.468 26.4054 17.0132C25.9081 16.5373 25.2992 16.1548 24.5951 15.8757C23.8935 15.5981 23.1159 15.4575 22.2841 15.4575C21.9574 15.4575 21.6415 15.5916 21.0314 15.9888C20.6559 16.2336 20.2167 16.5168 19.7265 16.8301C19.3073 17.0972 18.7394 17.3474 18.038 17.574C17.3537 17.7954 16.6589 17.9077 15.9731 17.9077C15.2873 17.9077 14.5927 17.7954 13.9077 17.574C13.207 17.3476 12.6391 17.0974 12.2204 16.8303C11.7348 16.52 11.2954 16.2368 10.9143 15.9885C10.3049 15.5913 9.98874 15.4573 9.66208 15.4573C8.83005 15.4573 8.05271 15.5981 7.3513 15.876C6.64769 16.1545 6.03856 16.5371 5.54076 17.0134C5.06542 17.4685 4.64135 18.021 4.281 18.6555C3.93359 19.2671 3.65234 19.905 3.44531 20.5517C3.24536 21.177 3.07812 21.8608 2.94824 22.5844C2.81958 23.3017 2.73218 23.9821 2.68896 24.6071C2.64648 25.2194 2.625 25.8549 2.625 26.4968C2.625 28.1672 3.156 29.5195 4.20312 30.5168C5.23729 31.5009 6.6057 32.0002 8.26975 32.0002H23.6779C25.342 32.0002 26.7099 31.5012 27.7443 30.5168C28.7916 29.5202 29.3226 28.1677 29.3226 26.4965C29.3224 25.8518 29.3007 25.2158 29.258 24.6064Z" fill="white"/>
</g>
<defs>
<clipPath id="clip0_174_1003">
<rect width="32" height="32" fill="white"/>
</clipPath>
</defs>
</svg>
