<svg width="32" height="32" viewBox="0 0 32 32" fill="none" xmlns="http://www.w3.org/2000/svg">
<path d="M29.0561 8.53461C29.0428 9.08661 28.5855 9.52394 28.0335 9.51194C27.4815 9.49861 27.0441 9.04128 27.0561 8.48928L27.1108 6.08127L24.7041 6.02661C24.1521 6.01328 23.7148 5.55594 23.7268 5.00394C23.7401 4.45194 24.1975 4.01461 24.7495 4.02661L28.1575 4.10528C28.7095 4.11728 29.1468 4.57461 29.1335 5.12661L29.0561 8.53461Z" fill="white"/>
<path d="M7.76941 12.4613V28.6493C7.76941 29.58 7.01608 30.3333 6.08541 30.3333H3.35075C2.42008 30.3333 1.66675 29.58 1.66675 28.6493V12.4613C1.66675 11.532 2.42008 10.7773 3.35075 10.7773H6.08541C7.01608 10.7773 7.76941 11.532 7.76941 12.4613Z" fill="white"/>
<path d="M22.8121 20.6667V28.6493C22.8121 29.096 22.6348 29.524 22.3188 29.84C22.0028 30.156 21.5748 30.3333 21.1281 30.3333H18.3935C17.9468 30.3333 17.5188 30.156 17.2028 29.84C16.8868 29.524 16.7095 29.096 16.7095 28.6493V20.6667C16.7095 20.22 16.8868 19.792 17.2028 19.476C17.5188 19.16 17.9468 18.9827 18.3935 18.9827H21.1281C21.5748 18.9827 22.0028 19.16 22.3188 19.476C22.6348 19.792 22.8121 20.22 22.8121 20.6667Z" fill="white"/>
<path d="M15.2907 16.5639V28.6492C15.2907 29.5799 14.5373 30.3332 13.6067 30.3332H10.872C9.94132 30.3332 9.18799 29.5799 9.18799 28.6492V16.5639C9.18799 16.1172 9.36532 15.6892 9.68132 15.3732C9.99732 15.0572 10.4253 14.8799 10.872 14.8799H13.6067C14.5373 14.8799 15.2907 15.6346 15.2907 16.5639Z" fill="white"/>
<path d="M30.3334 16.5639V28.6492C30.3334 29.5799 29.58 30.3332 28.6494 30.3332H25.9147C24.984 30.3332 24.2307 29.5799 24.2307 28.6492V16.5639C24.2307 16.1172 24.408 15.6892 24.724 15.3732C25.04 15.0572 25.468 14.8799 25.9147 14.8799H28.6494C29.58 14.8799 30.3334 15.6346 30.3334 16.5639Z" fill="white"/>
<path d="M3.26679 3.4666C2.82412 3.13594 2.73479 2.50794 3.06679 2.0666C3.39745 1.62527 4.02412 1.53594 4.46679 1.8666L12.4041 7.81994H16.1735C16.4815 7.81994 16.7708 7.96127 16.9601 8.2026L20.0095 12.0839L27.0761 4.70927C27.4575 4.3106 28.0908 4.29727 28.4895 4.67994C28.8881 5.06127 28.9015 5.6946 28.5201 6.09327L20.6561 14.2986C20.4561 14.5079 20.1748 14.6199 19.8855 14.6053C19.5961 14.5919 19.3268 14.4519 19.1481 14.2239L15.6881 9.81994H12.0708C11.8548 9.81994 11.6441 9.7506 11.4708 9.61994L3.26679 3.4666Z" fill="white"/>
</svg>
