<svg width="32" height="32" viewBox="0 0 32 32" fill="none" xmlns="http://www.w3.org/2000/svg">
<g clip-path="url(#clip0_174_1036)">
<path d="M0 19.6894C0 10.5423 7.41519 3.12715 16.5623 3.12715H20V0.939338C20 0.12765 20.9614 -0.300475 21.5646 0.242525L27.8146 5.86753C28.2284 6.23996 28.2284 6.88878 27.8146 7.26121L21.5646 12.8862C20.9614 13.4292 20 13.001 20 12.1894V10.0022H16.8027C10.2299 10.0022 4.307 13.9687 1.80438 20.0463C1.41338 20.9959 0 20.7163 0 19.6894H0Z" fill="white"/>
<path d="M32 12.3107C32 21.4578 24.5848 28.873 15.4377 28.873H12V31.0607C12 31.8724 11.0386 32.3005 10.4354 31.7575L4.18536 26.1325C3.77155 25.7601 3.77155 25.1113 4.18536 24.7388L10.4354 19.1138C11.0387 18.5708 12 18.999 12 19.8106V21.9979H15.1973C21.77 21.9979 27.693 18.0313 30.1956 11.9537C30.5866 11.0042 32 11.2838 32 12.3107Z" fill="white"/>
</g>
<defs>
<clipPath id="clip0_174_1036">
<rect width="32" height="32" fill="white"/>
</clipPath>
</defs>
</svg>
