<svg width="32" height="32" viewBox="0 0 32 32" fill="none" xmlns="http://www.w3.org/2000/svg">
<path fill-rule="evenodd" clip-rule="evenodd" d="M1.40724 4.40356C1.17621 4.43489 1 4.6346 1 4.86954V14.9528C1 15.2112 1.21145 15.4227 1.4699 15.4227H12.2775C12.536 15.4227 12.7474 15.2112 12.7474 14.9528V3.42853C12.7474 3.14267 12.4968 2.92339 12.2149 2.96254L1.40724 4.40356ZM3.48403 6.36909C3.34363 6.3897 3.24 6.51336 3.24 6.65763V12.8716C3.24 13.0296 3.36368 13.1601 3.5208 13.1601H9.9992C10.153 13.1601 10.28 13.033 10.28 12.8716V5.7714C10.28 5.59621 10.1329 5.45881 9.96243 5.48286L3.48403 6.36909Z" fill="#001E32"/>
<path fill-rule="evenodd" clip-rule="evenodd" d="M1.40724 28.4517C1.17621 28.4204 1 28.2207 1 27.9857V17.9025C1 17.6441 1.21145 17.4326 1.4699 17.4326H12.2775C12.536 17.4326 12.7474 17.6441 12.7474 17.9025V29.4267C12.7474 29.7126 12.4968 29.9319 12.2149 29.8927L1.40724 28.4517ZM2.8773 26.7251C2.71776 26.7036 2.6 26.5747 2.6 26.4244V19.9522C2.6 19.7875 2.74055 19.6515 2.91909 19.6515H10.2809C10.4557 19.6515 10.6 19.7839 10.6 19.9522V27.3479C10.6 27.5305 10.4329 27.6737 10.2391 27.6486L2.8773 26.7251Z" fill="#001E32"/>
<path fill-rule="evenodd" clip-rule="evenodd" d="M15.1666 2.70641C14.9277 2.73382 14.7476 2.93353 14.7476 3.17239V14.9629C14.7476 15.2213 14.959 15.4328 15.2175 15.4328H30.3325C30.5909 15.4328 30.8024 15.2213 30.8024 14.9629V1.46901C30.8024 1.18707 30.5596 0.971705 30.2816 1.00303L15.1666 2.70641ZM17.2792 4.97922C17.112 4.99714 16.9876 5.1262 16.9876 5.28035H16.9914V12.8589C16.9914 13.0238 17.1353 13.16 17.3181 13.16H27.8609C28.0398 13.16 28.1876 13.0274 28.1876 12.8589V4.18336C28.1876 4.00053 28.0164 3.86072 27.822 3.88223L17.2792 4.97922Z" fill="#001E32"/>
<path fill-rule="evenodd" clip-rule="evenodd" d="M15.2175 17.4326C14.959 17.4326 14.7476 17.6441 14.7476 17.9025V29.7361C14.7476 29.975 14.9277 30.1786 15.1666 30.2021L30.2816 31.8624C30.5596 31.8937 30.8024 31.6744 30.8024 31.3964V17.9025C30.8024 17.6441 30.5909 17.4326 30.3325 17.4326H15.2175ZM17.3143 19.9715C17.1354 19.9715 16.9876 20.1087 16.9876 20.283V28.1531C16.9876 28.3126 17.112 28.4461 17.2793 28.4647L27.8258 29.5699C28.0164 29.5884 28.1876 29.4438 28.1876 29.2583V20.283C28.1876 20.1124 28.0436 19.9715 27.8608 19.9715H17.3143Z" fill="#001E32"/>
</svg>
