<svg width="32" height="32" viewBox="0 0 32 32" fill="none" xmlns="http://www.w3.org/2000/svg">
<g clip-path="url(#clip0_141_989)">
<path d="M15.9041 7.6512H15.2065V6.9568C15.2065 2.4096 17.6161 0 22.1633 0H22.8577V0.6944C22.8609 5.2448 20.4513 7.6512 15.9041 7.6512ZM21.2321 1.6288C18.4705 1.8208 17.0273 3.264 16.8257 6.0352C19.6385 5.8432 21.0497 4.4288 21.2321 1.6288Z" fill="#001E32" stroke="#001E32" stroke-width="0.4"/>
<path d="M21.4688 32.0001C20.3488 32.0001 19.2448 31.7281 18.2528 31.2097C16.7872 30.4257 15.0304 30.4257 13.5648 31.2097C12.5728 31.7281 11.4688 32.0001 10.3488 32.0001C5.6704 32.0001 2 25.5841 2 17.3921C2 12.4097 5.7472 8.34888 10.3488 8.34888C11.2096 8.34888 12.064 8.49288 12.88 8.77448L15.4624 9.67048C15.7568 9.77288 16.08 9.77288 16.3744 9.67048L18.9472 8.77448C19.7568 8.49288 20.6112 8.34888 21.4688 8.34888C23.9808 8.34888 26.3296 9.55848 27.9296 11.6609L28.5376 12.4705L27.5648 12.7489C25.0656 13.4689 23.3984 15.8305 23.5584 18.4257C23.7184 21.0241 25.6576 23.1617 28.2272 23.5745L29.0176 23.7057L28.7744 24.4705C27.3312 29.1137 24.5216 32.0001 21.4688 32.0001ZM15.872 28.7041C16.8544 28.7105 17.824 28.9569 18.6944 29.4177C19.44 29.8113 20.272 30.0161 21.12 30.0161C23.2672 30.0161 25.312 27.9233 26.5408 24.5121C23.7152 23.7185 21.7664 21.1393 21.776 18.2049C21.7856 15.6545 23.2704 13.3377 25.5808 12.2593C24.3744 11.0305 22.7936 10.3329 21.12 10.3329C20.4544 10.3329 19.7952 10.4449 19.168 10.6625L16.7328 11.5073C16.176 11.6993 15.5744 11.6993 15.0176 11.5073L12.5728 10.6625C11.9456 10.4449 11.2864 10.3329 10.6208 10.3329C7.0048 10.3329 4.0608 13.5713 4.0608 17.5489C4.0608 24.3073 7.0624 30.0161 10.6208 30.0161C11.4656 30.0193 12.3008 29.8113 13.0496 29.4177C13.92 28.9569 14.8864 28.7105 15.872 28.7041Z" fill="#071F30" stroke="#071F30" stroke-width="0.4"/>
</g>
<defs>
<clipPath id="clip0_141_989">
<rect width="32" height="32" fill="white"/>
</clipPath>
</defs>
</svg>
