<svg width="32" height="32" viewBox="0 0 32 32" fill="none" xmlns="http://www.w3.org/2000/svg">
<path d="M27.92 17.44H4.88V28.96H27.92V17.44ZM27.98 14.59C27.98 8.19 22.8 3.01 16.4 3.01C10 3.01 4.82 8.19 4.82 14.59H27.98ZM7.41 3.15C9.97 1.1 13.14 0 16.4 0C19.79 0 22.93 1.18 25.39 3.15L26.58 1.96C27.2041 1.33592 28.2159 1.33592 28.84 1.96C29.4641 2.58408 29.4641 3.59592 28.84 4.22L27.65 5.41C29.7 7.97 30.8 11.14 30.8 14.4V30.4C30.8 31.28 30.08 32 29.2 32H3.6C2.72 32 2 31.28 2 30.4V14.4C2 11.01 3.18 7.87 5.15 5.41L3.96 4.22C3.33592 3.59592 3.33592 2.58408 3.96 1.96C4.58408 1.33592 5.59592 1.33592 6.22 1.96L7.41 3.15Z" fill="#071F30"/>
<path d="M11.6 11.2C10.72 11.2 10 10.48 10 9.6C10 8.72 10.72 8 11.6 8C12.48 8 13.2 8.72 13.2 9.6C13.2 10.48 12.48 11.2 11.6 11.2ZM21.2 11.2C20.32 11.2 19.6 10.48 19.6 9.6C19.6 8.72 20.32 8 21.2 8C22.08 8 22.8 8.72 22.8 9.6C22.8 10.48 22.08 11.2 21.2 11.2Z" fill="#001E32"/>
</svg>
