<svg width="11" height="18" viewBox="0 0 11 18" fill="none" xmlns="http://www.w3.org/2000/svg">
<path d="M9.01349 3.21754H10.7748V0.00195714H7.57401C7.307 -0.00915279 4.05216 -0.0713683 3.20855 3.1457C3.19633 3.1794 2.92673 3.9445 2.92673 5.73172L0 5.74061V9.11322L2.93043 9.1047V18.0004H7.40662V9.11248H10.3693V5.73098H7.40662V4.66702C7.40662 4.00561 7.68548 3.21754 9.01349 3.21754ZM9.62861 6.47127V8.37144H6.66596V17.2594H3.67109V8.36181L0.740662 8.37033V6.47905L3.67887 6.47053L3.67109 6.0939C3.63258 4.20077 3.90255 3.40456 3.91477 3.36642C4.64284 0.595598 7.42292 0.734843 7.54217 0.742249L10.0341 0.74299V2.47725H9.01349C7.28293 2.47725 6.66633 3.60824 6.66633 4.66665V6.47127H9.62861Z" fill="#1E1F1F"/>
</svg>
