<svg width="51" height="50" viewBox="0 0 51 50" fill="none" xmlns="http://www.w3.org/2000/svg">
<g clip-path="url(#clip0_146_574)">
<path d="M45.491 10.0158C48.256 10.0242 50.5053 7.78906 50.5136 5.02353C50.5229 2.258 48.2882 0.00834366 45.5232 2.31556e-05C42.7582 -0.00829735 40.509 2.2268 40.5007 4.99233C40.4965 6.20712 40.9343 7.38239 41.7329 8.29765L34.511 14.0762C32.2015 12.175 29.345 11.059 26.3585 10.8905V7.40215C28.1377 6.94244 29.2077 5.12753 28.7481 3.34799C28.2885 1.56844 26.4739 0.498213 24.6947 0.957921C22.9155 1.41763 21.8454 3.23254 22.3051 5.01209C22.6077 6.18424 23.5227 7.09949 24.6947 7.40215V10.8905C21.7082 11.059 18.8516 12.175 16.5421 14.0762L9.31917 8.29765C11.1265 6.21648 10.905 3.06301 8.82419 1.25434C6.74238 -0.55329 3.5895 -0.330717 1.7822 1.75045C-0.0250874 3.83162 0.196405 6.98509 2.27718 8.79376C3.87026 10.1781 6.16109 10.41 8.00062 9.37411L15.3213 15.2297C13.0013 17.6478 11.6204 20.8158 11.4259 24.1617H7.93823C7.4786 22.3822 5.66403 21.312 3.88482 21.7717C2.1056 22.2314 1.03558 24.0463 1.4952 25.8258C1.95482 27.6054 3.76939 28.6756 5.54861 28.2159C6.72054 27.9132 7.63562 26.998 7.93823 25.8258H11.4259C11.6194 29.1717 12.9993 32.3387 15.3182 34.7579L7.9975 40.6134C5.585 39.251 2.52467 40.1038 1.16348 42.5168C-0.198746 44.9297 0.653947 47.9906 3.06644 49.3521C5.47894 50.7135 8.53927 49.8617 9.90046 47.4487C10.9445 45.5985 10.7105 43.2916 9.31605 41.6889L16.5411 35.9103C18.8506 37.8115 21.7071 38.9275 24.6936 39.096V42.5844C22.9144 43.0441 21.8444 44.859 22.304 46.6385C22.7636 48.4181 24.5782 49.4883 26.3574 49.0286C28.1366 48.5689 29.2067 46.754 28.747 44.9744C28.4444 43.8023 27.5294 42.887 26.3574 42.5844V39.096C29.3439 38.9275 32.2004 37.8115 34.51 35.9103L41.7329 41.6889C39.9256 43.77 40.1471 46.9235 42.2279 48.7322C44.3087 50.5398 47.4616 50.3183 49.2699 48.2371C51.0772 46.1559 50.8557 43.0025 48.7749 41.1938C47.1818 39.8095 44.891 39.5775 43.0515 40.6134L35.7308 34.7579C38.0507 32.3397 39.4317 29.1717 39.6261 25.8258H43.1139C43.5735 27.6054 45.3881 28.6756 47.1673 28.2159C48.9465 27.7562 50.0165 25.9413 49.5569 24.1617C49.0973 22.3822 47.2827 21.312 45.5035 21.7717C44.3316 22.0743 43.4165 22.9896 43.1139 24.1617H39.6261C39.4327 20.8158 38.0528 17.6489 35.7339 15.2297L43.0546 9.37411C43.7981 9.79534 44.6373 10.0158 45.492 10.0169L45.491 10.0158Z" fill="#1E1F1F"/>
<path d="M19.7024 26.6568H18.8705C18.4108 26.6568 18.0386 26.2845 18.0386 25.8248V24.1607C18.0386 23.701 18.4108 23.3286 18.8705 23.3286H19.7024V26.6568Z" fill="#1E1F1F"/>
<path d="M5.56 8.35172C7.39777 8.35172 8.88758 6.86163 8.88758 5.02351C8.88758 3.1854 7.39777 1.69531 5.56 1.69531C3.72223 1.69531 2.23242 3.1854 2.23242 5.02351C2.23242 6.86163 3.72223 8.35172 5.56 8.35172Z" fill="white"/>
<path d="M4.72824 26.6568C5.64713 26.6568 6.39203 25.9118 6.39203 24.9927C6.39203 24.0737 5.64713 23.3286 4.72824 23.3286C3.80936 23.3286 3.06445 24.0737 3.06445 24.9927C3.06445 25.9118 3.80936 26.6568 4.72824 26.6568Z" fill="#2EEECE"/>
<path d="M5.56 48.2902C7.39777 48.2902 8.88758 46.8001 8.88758 44.962C8.88758 43.1239 7.39777 41.6338 5.56 41.6338C3.72223 41.6338 2.23242 43.1239 2.23242 44.962C2.23242 46.8001 3.72223 48.2902 5.56 48.2902Z" fill="white"/>
<path d="M45.4912 48.2902C47.3289 48.2902 48.8187 46.8001 48.8187 44.962C48.8187 43.1239 47.3289 41.6338 45.4912 41.6338C43.6534 41.6338 42.1636 43.1239 42.1636 44.962C42.1636 46.8001 43.6534 48.2902 45.4912 48.2902Z" fill="white"/>
<path d="M46.323 26.6568C47.2419 26.6568 47.9868 25.9118 47.9868 24.9927C47.9868 24.0737 47.2419 23.3286 46.323 23.3286C45.4041 23.3286 44.6592 24.0737 44.6592 24.9927C44.6592 25.9118 45.4041 26.6568 46.323 26.6568Z" fill="#2EEECE"/>
<path d="M25.5256 5.85555C26.4445 5.85555 27.1894 5.1105 27.1894 4.19144C27.1894 3.27239 26.4445 2.52734 25.5256 2.52734C24.6067 2.52734 23.8618 3.27239 23.8618 4.19144C23.8618 5.1105 24.6067 5.85555 25.5256 5.85555Z" fill="white"/>
<path d="M25.5256 47.4581C26.4445 47.4581 27.1894 46.713 27.1894 45.794C27.1894 44.8749 26.4445 44.1299 25.5256 44.1299C24.6067 44.1299 23.8618 44.8749 23.8618 45.794C23.8618 46.713 24.6067 47.4581 25.5256 47.4581Z" fill="white"/>
<path d="M38.0042 24.9927C38.0042 31.8852 32.417 37.4735 25.5258 37.4735C18.6346 37.4735 13.0474 31.8852 13.0474 24.9927C13.0474 18.1002 18.6346 12.512 25.5258 12.512C32.4139 12.5192 37.9969 18.1033 38.0042 24.9927Z" fill="white"/>
<path d="M45.4912 8.35172C47.3289 8.35172 48.8187 6.86163 48.8187 5.02351C48.8187 3.1854 47.3289 1.69531 45.4912 1.69531C43.6534 1.69531 42.1636 3.1854 42.1636 5.02351C42.1636 6.86163 43.6534 8.35172 45.4912 8.35172Z" fill="white"/>
<path d="M31.3486 20.9156V18.3362C31.3486 17.8765 30.9763 17.5042 30.5167 17.5042C30.3524 17.5042 30.1912 17.553 30.055 17.6446L25.2758 20.8334H20.534C20.0744 20.8334 19.7021 21.2057 19.7021 21.6654H18.8702C17.4924 21.6654 16.3745 22.7835 16.3745 24.1616V25.8257C16.3745 27.2038 17.4924 28.3218 18.8702 28.3218H19.7021C19.7021 28.7816 20.0744 29.1539 20.534 29.1539H22.1978V30.9844C22.1978 31.3245 22.4047 31.6313 22.7208 31.7572L24.3846 32.4228L25.0023 30.8773L23.8616 30.4217V29.1549H25.2758L30.0571 32.3438C30.4398 32.5976 30.9566 32.4925 31.2103 32.1098C31.2997 31.9735 31.3486 31.8144 31.3486 31.6521V29.0728C33.5999 28.6151 35.0547 26.4196 34.5972 24.1678C34.2644 22.5308 32.9854 21.2515 31.3486 20.9187V20.9156Z" fill="#1E1F1F"/>
<path d="M29.6852 21.6645V30.0943L25.9874 27.6293C25.8501 27.5388 25.69 27.4899 25.5257 27.4899H21.3662V22.4976H25.5257C25.69 22.4976 25.8501 22.4487 25.9874 22.3583L29.6852 19.8933V21.6666V21.6645Z" fill="#2EEECE"/>
<path d="M31.3486 27.3475V22.6401C32.6485 23.0988 33.3306 24.5247 32.871 25.8248C32.6194 26.5373 32.0599 27.0968 31.3486 27.3475Z" fill="#2EEECE"/>
</g>
<defs>
<clipPath id="clip0_146_574">
<rect width="50" height="50" fill="white" transform="translate(0.514648)"/>
</clipPath>
</defs>
</svg>
