<svg width="59" height="43" viewBox="0 0 59 43" fill="none" xmlns="http://www.w3.org/2000/svg">
<g clip-path="url(#clip0_146_651)">
<path d="M29.5004 26.1739C30.5337 26.1739 31.3713 25.3369 31.3713 24.3044C31.3713 23.2718 30.5337 22.4348 29.5004 22.4348C28.4671 22.4348 27.6294 23.2718 27.6294 24.3044C27.6294 25.3369 28.4671 26.1739 29.5004 26.1739Z" fill="black"/>
<path d="M57.565 0H1.43597C0.921456 0 0.500488 0.420652 0.500488 0.934783V38.3261C0.500488 38.8402 0.921456 39.2609 1.43597 39.2609H14.5327V42.0652C14.5327 42.5793 14.9537 43 15.4682 43H43.5327C44.0473 43 44.4682 42.5793 44.4682 42.0652V39.2609H57.565C58.0795 39.2609 58.5005 38.8402 58.5005 38.3261V0.934783C58.5005 0.420652 58.0795 0 57.565 0Z" fill="black"/>
<path d="M42.9479 36.9531H16.0527V41.6562H42.9479V36.9531Z" fill="#2EEECE"/>
<path d="M24.8232 35.5218V32.7174C24.8232 31.175 26.0861 29.9131 27.6297 29.9131H31.3716C32.9152 29.9131 34.1781 31.175 34.1781 32.7174V35.5218H24.8232Z" fill="white"/>
<path d="M57.0682 37.625H44.7103V36.6702C44.7103 36.1451 44.2825 35.7155 43.7597 35.7155H36.1549V32.8512C36.1549 30.216 34.0255 28.0773 31.4018 28.0773H27.5994C24.9758 28.0773 22.8464 30.216 22.8464 32.8512V35.7155H15.2416C14.7187 35.7155 14.291 36.1451 14.291 36.6702V37.625H1.93311V1.34375H57.0682V37.625Z" fill="white"/>
<path d="M5.51906 32.8099H6.41557V35.6094H8.20858V32.8099H9.10508C9.59816 32.8099 10.0016 32.39 10.0016 31.8767V22.5451C10.0016 22.0319 9.59816 21.612 9.10508 21.612H8.20858V18.8125H6.41557V21.612H5.51906C5.02599 21.612 4.62256 22.0319 4.62256 22.5451V31.8767C4.62256 32.39 5.02599 32.8099 5.51906 32.8099Z" fill="black"/>
<path d="M12.9151 28.7786H13.8116V31.5781H15.6046V28.7786H16.5011C16.9942 28.7786 17.3976 28.3587 17.3976 27.8455V18.5139C17.3976 18.0007 16.9942 17.5807 16.5011 17.5807H15.6046V14.7812H13.8116V17.5807H12.9151C12.422 17.5807 12.0186 18.0007 12.0186 18.5139V27.8455C12.0186 28.3587 12.422 28.7786 12.9151 28.7786Z" fill="black"/>
<path d="M20.9834 20.7161H21.8799V23.5156H23.6729V20.7161H24.5694C25.0625 20.7161 25.4659 20.2962 25.4659 19.783V10.4514C25.4659 9.93815 25.0625 9.51823 24.5694 9.51823H23.6729V6.71875H21.8799V9.51823H20.9834C20.4903 9.51823 20.0869 9.93815 20.0869 10.4514V19.783C20.0869 20.2962 20.4903 20.7161 20.9834 20.7161Z" fill="black"/>
<path d="M32.4141 16.6849H33.3106V19.4844H35.1036V16.6849H36.0001C36.4932 16.6849 36.8966 16.265 36.8966 15.7517V6.42014C36.8966 5.9069 36.4932 5.48698 36.0001 5.48698H35.1036V2.6875H33.3106V5.48698H32.4141C31.921 5.48698 31.5176 5.9069 31.5176 6.42014V15.7517C31.5176 16.265 31.921 16.6849 32.4141 16.6849Z" fill="black"/>
<path d="M35.5518 6.71875H32.8623V15.4531H35.5518V6.71875Z" fill="#2EEECE"/>
<path d="M24.1216 10.75H21.4321V19.4844H24.1216V10.75Z" fill="#2EEECE"/>
<path d="M16.0528 18.8125H13.3633V27.5469H16.0528V18.8125Z" fill="#2EEECE"/>
<path d="M8.6568 22.8438H5.96729V31.5781H8.6568V22.8438Z" fill="#2EEECE"/>
<path d="M41.8272 21.388H42.7237V24.1875H44.5167V21.388H45.4132C45.9063 21.388 46.3097 20.9681 46.3097 20.4549V11.1233C46.3097 10.61 45.9063 10.1901 45.4132 10.1901H44.5167V7.39062H42.7237V10.1901H41.8272C41.3341 10.1901 40.9307 10.61 40.9307 11.1233V20.4549C40.9307 20.9681 41.3341 21.388 41.8272 21.388Z" fill="black"/>
<path d="M49.896 18.0286H50.7925V20.8281H52.5855V18.0286H53.482C53.9751 18.0286 54.3785 17.6087 54.3785 17.0955V7.76389C54.3785 7.25065 53.9751 6.83073 53.482 6.83073H52.5855V4.03125H50.7925V6.83073H49.896C49.4029 6.83073 48.9995 7.25065 48.9995 7.76389V17.0955C48.9995 17.6087 49.4029 18.0286 49.896 18.0286Z" fill="black"/>
<path d="M29.5007 28.0434C31.5673 28.0434 33.2427 26.3694 33.2427 24.3043C33.2427 22.2393 31.5673 20.5652 29.5007 20.5652C27.4341 20.5652 25.7588 22.2393 25.7588 24.3043C25.7588 26.3694 27.4341 28.0434 29.5007 28.0434Z" fill="black"/>
<path d="M29.5004 26.6448C30.794 26.6448 31.8426 25.5969 31.8426 24.3043C31.8426 23.0117 30.794 21.9639 29.5004 21.9639C28.2068 21.9639 27.1582 23.0117 27.1582 24.3043C27.1582 25.5969 28.2068 26.6448 29.5004 26.6448Z" fill="white"/>
<path d="M44.9649 11.4219H42.2754V20.1562H44.9649V11.4219Z" fill="#2EEECE"/>
<path d="M53.0338 8.0625H50.3442V16.7969H53.0338V8.0625Z" fill="#2EEECE"/>
</g>
<defs>
<clipPath id="clip0_146_651">
<rect width="58" height="43" fill="white" transform="translate(0.500488)"/>
</clipPath>
</defs>
</svg>
