<svg width="16" height="16" viewBox="0 0 16 16" fill="none" xmlns="http://www.w3.org/2000/svg">
<g clip-path="url(#clip0_101_534)">
<path d="M11.6138 0H4.38616C1.96762 0 0 1.96763 0 4.38619V11.6138C0 14.0324 1.96762 16 4.38616 16H11.6138C14.0324 16 16 14.0324 16 11.6138V4.38619C16 1.96763 14.0324 0 11.6138 0ZM15.0551 11.6138C15.0551 13.5114 13.5114 15.0551 11.6138 15.0551H4.38616C2.48862 15.0551 0.944875 13.5114 0.944875 11.6138V4.38619C0.944875 2.48863 2.48862 0.944875 4.38616 0.944875H11.6138C13.5114 0.944875 15.0551 2.48863 15.0551 4.38619V11.6138Z" fill="#1E1F1F"/>
<path d="M8.00001 3.61157C5.5802 3.61157 3.61154 5.58023 3.61154 8.00004C3.61154 10.4199 5.58017 12.3885 8.00001 12.3885C10.4198 12.3885 12.3885 10.4198 12.3885 8.00001C12.3885 5.5802 10.4198 3.61157 8.00001 3.61157ZM8.00001 11.4437C6.1012 11.4437 4.55639 9.89882 4.55639 8.00001C4.55639 6.1012 6.1012 4.55638 8.00001 4.55638C9.89885 4.55638 11.4437 6.10123 11.4437 8.00004C11.4437 9.89885 9.89885 11.4437 8.00001 11.4437Z" fill="#1E1F1F"/>
<path d="M12.651 2.01562C11.9158 2.01562 11.3177 2.61378 11.3177 3.34897C11.3177 4.08416 11.9158 4.68228 12.651 4.68228C13.3862 4.68228 13.9843 4.08413 13.9843 3.34894C13.9843 2.61375 13.3862 2.01562 12.651 2.01562ZM12.651 3.73738C12.4368 3.73738 12.2625 3.56313 12.2625 3.34894C12.2625 3.13475 12.4368 2.9605 12.651 2.9605C12.8652 2.9605 13.0394 3.13478 13.0394 3.34894C13.0394 3.56309 12.8652 3.73738 12.651 3.73738Z" fill="#1E1F1F"/>
</g>
<defs>
<clipPath id="clip0_101_534">
<rect width="16" height="16" fill="white"/>
</clipPath>
</defs>
</svg>
