<svg width="33" height="24" viewBox="0 0 33 24" fill="none" xmlns="http://www.w3.org/2000/svg">
<path fill-rule="evenodd" clip-rule="evenodd" d="M32.303 7.03826C32.6889 7.93884 32.4977 8.983 31.8176 9.68827C29.4251 12.1695 23.7373 18.0678 20.0064 21.937C19.0883 22.889 17.8225 23.4269 16.5 23.4269C15.1774 23.4269 13.9116 22.889 12.9936 21.937C9.26259 18.0678 3.57493 12.1695 1.18237 9.68827C0.502304 8.983 0.311052 7.93884 0.696952 7.03826C1.36628 5.47647 2.41295 3.03426 3.08074 1.4762C3.46456 0.580659 4.34508 0 5.31931 0H27.6806C28.6549 0 29.5354 0.580659 29.9193 1.4762C30.5869 3.03426 31.6336 5.47647 32.303 7.03826Z" fill="url(#paint0_linear_146_1022)"/>
<path fill-rule="evenodd" clip-rule="evenodd" d="M32.4985 7.91553C32.5202 8.56216 32.2837 9.20486 31.8176 9.6883C29.425 12.1695 23.7373 18.0678 20.0064 21.937C19.0883 22.889 17.8225 23.4269 16.5 23.4269C15.1773 23.4269 13.9115 22.889 12.9935 21.937C9.26255 18.0678 3.57488 12.1695 1.18233 9.6883C0.716089 9.20486 0.479573 8.56216 0.501383 7.91553H32.4985Z" fill="url(#paint1_linear_146_1022)"/>
<path fill-rule="evenodd" clip-rule="evenodd" d="M24.7694 7.63218C24.9336 8.20681 24.8807 8.82189 24.6209 9.36013C23.528 11.624 20.4557 17.9879 18.4191 22.2067C18.0635 22.9432 17.3178 23.4113 16.4999 23.4113C15.682 23.4113 14.9363 22.9432 14.5807 22.2067C12.544 17.9879 9.47186 11.624 8.37893 9.36013C8.11907 8.82189 8.06625 8.20681 8.23043 7.63218C8.85503 5.44611 10.411 0 10.411 0H22.5887C22.5887 0 24.1448 5.44611 24.7694 7.63218Z" fill="url(#paint2_linear_146_1022)"/>
<defs>
<linearGradient id="paint0_linear_146_1022" x1="17.1088" y1="0" x2="17.1088" y2="12.1777" gradientUnits="userSpaceOnUse">
<stop stop-color="#FFBD56"/>
<stop offset="1" stop-color="#FF781B"/>
</linearGradient>
<linearGradient id="paint1_linear_146_1022" x1="19.5444" y1="6.08894" x2="18.3267" y2="21.9199" gradientUnits="userSpaceOnUse">
<stop stop-color="#FFBD56"/>
<stop offset="1" stop-color="#FF781B"/>
</linearGradient>
<linearGradient id="paint2_linear_146_1022" x1="16.4999" y1="3.04446" x2="16.4999" y2="22.5288" gradientUnits="userSpaceOnUse">
<stop stop-color="#F8E759"/>
<stop offset="1" stop-color="#FBAC05"/>
</linearGradient>
</defs>
</svg>
