<svg width="18" height="15" viewBox="0 0 18 15" fill="none" xmlns="http://www.w3.org/2000/svg">
<path d="M17.8506 1.74172C17.73 1.65998 17.5703 1.66441 17.4538 1.75228C17.3009 1.86808 17.0523 1.96004 16.7846 2.03088C17.4818 1.24959 17.4967 0.727819 17.4893 0.607935C17.4814 0.483964 17.4068 0.373956 17.2944 0.321167C17.1817 0.268036 17.0496 0.280978 16.9491 0.353862C16.1647 0.923992 15.3835 1.04422 14.9189 1.05648C14.2057 0.373956 13.2797 0 12.2941 0C10.1838 0 8.4673 1.73968 8.4673 3.87784C8.4673 4.06175 8.48024 4.24532 8.50579 4.42719C4.84864 4.38598 1.87879 0.881761 1.84814 0.845319C1.77662 0.760174 1.66831 0.714536 1.55728 0.724413C1.44625 0.733949 1.34714 0.796956 1.29163 0.893681C0.23924 2.71919 0.943558 4.32264 1.58725 5.24084C1.4735 5.18022 1.3812 5.12027 1.32603 5.07974C1.22386 5.00345 1.08728 4.99085 0.972167 5.04739C0.857391 5.10393 0.784167 5.21972 0.781783 5.34744C0.753515 7.08712 1.59066 8.08366 2.37808 8.63471C2.27318 8.62484 2.16658 8.66366 2.0937 8.74302C2.01196 8.83191 1.98301 8.95758 2.01843 9.07304C2.56233 10.8532 3.89775 11.4581 4.74749 11.6635C3.00032 13.0238 0.428942 12.5858 0.400674 12.581C0.24537 12.5534 0.0921091 12.6352 0.0287612 12.7792C-0.034246 12.923 0.00866705 13.0915 0.134 13.1869C1.97824 14.5945 4.18417 14.9061 5.7774 14.9061C6.98272 14.9061 7.83791 14.7277 7.91965 14.7096C15.9907 12.7969 16.2179 5.40398 16.1991 4.19253C17.7144 2.78356 17.9511 2.2468 17.9875 2.11398C18.0267 1.97332 17.9715 1.82346 17.8506 1.74172ZM15.6239 3.79712C15.548 3.86694 15.5081 3.96741 15.5149 4.07061C15.5364 4.39756 15.9492 12.1073 7.76945 14.0455C7.73233 14.0533 4.48082 14.7318 1.66218 13.3354C2.85319 13.3024 4.56085 12.9904 5.7505 11.6546C5.84041 11.5542 5.86221 11.4098 5.80635 11.2871C5.75118 11.1656 5.62959 11.0876 5.49643 11.0876C5.4954 11.0876 5.49404 11.0876 5.49302 11.0876C5.47599 11.0985 3.68761 11.0855 2.86885 9.38433C3.19854 9.40306 3.60519 9.38263 3.92908 9.23345C4.06259 9.17181 4.14126 9.03183 4.12491 8.88572C4.10856 8.73995 4.00026 8.62109 3.85654 8.59078C3.76492 8.57137 1.77389 8.12623 1.4953 5.95435C1.79739 6.0865 2.18395 6.19446 2.56608 6.13622C2.69754 6.11647 2.80517 6.02213 2.84229 5.89441C2.87941 5.76669 2.83888 5.6291 2.73841 5.54191C2.65327 5.46766 0.783486 3.80598 1.67001 1.66271C2.63249 2.67253 5.48314 5.29669 8.93696 5.09848C9.03811 5.09269 9.13177 5.0416 9.19206 4.95986C9.252 4.87812 9.27243 4.7739 9.24791 4.67548C9.18252 4.41493 9.14914 4.14656 9.14914 3.87818C9.14914 2.11534 10.5605 0.6815 12.2951 0.6815C13.1435 0.6815 13.9394 1.02004 14.5357 1.63512C14.5984 1.69983 14.6846 1.73696 14.7745 1.73866C15.1355 1.74377 15.7288 1.7012 16.3991 1.43248C16.2056 1.67327 15.9216 1.96174 15.5037 2.29006C15.3855 2.38304 15.3422 2.54209 15.3971 2.68206C15.4519 2.82238 15.5936 2.91059 15.7414 2.89731C15.8208 2.89084 16.2254 2.85542 16.6828 2.75631C16.4328 3.02469 16.0912 3.36731 15.6239 3.79712Z" fill="#1E1F1F"/>
</svg>
