<svg width="19" height="14" viewBox="0 0 19 14" fill="none" xmlns="http://www.w3.org/2000/svg">
<path d="M14.9992 0H3.72306C1.67011 0 0 1.67545 0 3.73453V10.0202C0 12.0797 1.67011 13.7548 3.72306 13.7548H14.9992C17.0522 13.7548 18.7223 12.0793 18.7223 10.0202V3.73453C18.7223 1.67545 17.0522 0 14.9992 0ZM17.9581 10.0206C17.9581 11.6586 16.6307 12.991 14.9992 12.991H3.72306C2.09155 12.991 0.764175 11.6583 0.764175 10.0206V3.73453C0.764175 2.0969 2.09155 0.764175 3.72306 0.764175H14.9992C16.6307 0.764175 17.9581 2.0969 17.9581 3.73453V10.0206Z" fill="#1E1F1F"/>
<path d="M12.7462 6.73884L7.45242 3.63819C7.33474 3.56942 7.1884 3.56827 7.06957 3.63628C6.95074 3.7043 6.87738 3.83077 6.87738 3.96794V10.1688C6.87738 10.3056 6.95074 10.4325 7.06919 10.5005C7.12803 10.5341 7.19375 10.5509 7.25947 10.5509C7.32633 10.5509 7.39282 10.5333 7.45242 10.4986L12.7462 7.3987C12.8632 7.33031 12.9354 7.2046 12.9354 7.06896C12.9354 6.93332 12.8635 6.80723 12.7462 6.73884ZM7.64156 9.50209V4.6343L11.7971 7.06858L7.64156 9.50209Z" fill="#1E1F1F"/>
</svg>
