<svg width="32" height="32" viewBox="0 0 32 32" fill="none" xmlns="http://www.w3.org/2000/svg">
<g clip-path="url(#clip0_189_1137)">
<g clip-path="url(#clip1_189_1137)">
<path d="M19.2288 29.0767C19.2288 27.9707 18.3321 27.074 17.2261 27.074H14.7739C14.2428 27.074 13.7334 27.285 13.3578 27.6606C12.9823 28.0362 12.7712 28.5455 12.7712 29.0767C12.7712 30.1827 13.6679 31.0793 14.7739 31.0793H17.2261C18.3321 31.0793 19.2288 30.1827 19.2288 29.0767ZM4.21006 23.9127C4.54456 23.9383 4.94925 23.953 5.35575 23.9292C5.57231 25.0274 6.11031 26.046 6.91337 26.8492C7.9795 27.9152 9.42544 28.5142 10.9331 28.5142H11.6973C11.6636 28.6985 11.6462 28.8867 11.6462 29.0767C11.6462 29.2687 11.6636 29.4568 11.6967 29.6392H10.9331C9.12706 29.6392 7.39494 28.9217 6.11788 27.6447C5.09906 26.6258 4.43638 25.3173 4.21006 23.9127ZM3.63781 22.7157C2.74963 22.5659 1.92313 22.1437 1.27794 21.4984C0.459688 20.6802 0 19.5703 0 18.4132V15.7542C0 14.597 0.459688 13.4872 1.27794 12.669C2.09619 11.8507 3.206 11.391 4.36319 11.391H4.65363C5.11788 5.53122 10.0205 0.92041 16 0.92041C21.9795 0.92041 26.8821 5.53122 27.3464 11.391H27.6368C28.794 11.391 29.9038 11.8507 30.7221 12.669C31.5403 13.4872 32 14.597 32 15.7542V18.4132C32 19.5703 31.5403 20.6802 30.7221 21.4984C29.9038 22.3167 28.794 22.7764 27.6368 22.7764H26.3493C25.8153 22.7764 25.3824 22.3435 25.3824 21.8095V12.3028C25.3824 7.12104 21.1817 2.92041 16 2.92041C10.8183 2.92041 6.61763 7.12104 6.61763 12.3028V21.8095C6.61763 22.1865 6.40181 22.5132 6.08694 22.6727C5.22019 22.9734 3.876 22.7558 3.63781 22.7157Z" fill="white"/>
</g>
</g>
<defs>
<clipPath id="clip0_189_1137">
<rect width="32" height="32" fill="white"/>
</clipPath>
<clipPath id="clip1_189_1137">
<rect width="32" height="32" fill="white"/>
</clipPath>
</defs>
</svg>
