<svg width="32" height="32" viewBox="0 0 32 32" fill="none" xmlns="http://www.w3.org/2000/svg">
<path d="M29.411 17.8414C28.7634 16.1367 27.6176 14.6712 26.1231 13.6444C24.6285 12.6076 22.8451 12.0593 21.0317 12.0593C20.673 12.0593 20.3143 12.0792 19.9656 12.1191C19.9756 12.0593 19.9656 11.9895 19.9756 11.9297C19.9855 11.81 19.9855 11.6804 19.9955 11.5608C20.0154 11.2119 20.0254 10.863 20.0055 10.524C20.0055 10.5041 19.9955 10.4842 19.9955 10.4542C19.9158 9.15825 19.5671 7.8822 18.9493 6.72578C18.0526 5.0709 16.6677 3.73504 14.9739 2.9076C13.4295 2.15991 11.6959 1.86084 9.99213 2.06022C9.84268 2.06022 9.68326 2.09013 9.53381 2.11007C8.97585 2.19979 8.42786 2.34933 7.89979 2.54871C6.68424 2.98735 5.56833 3.69516 4.63176 4.62229C3.70515 5.55939 2.99774 6.67594 2.55935 7.90214C2.36008 8.43051 2.21062 8.96884 2.12095 9.52711C2.09106 9.68662 2.07114 9.83616 2.06117 9.99566C1.8619 11.7004 2.15084 13.425 2.90807 14.9703C3.73504 16.665 5.07015 18.0507 6.7241 18.948C8.37804 19.8352 10.2611 20.1941 12.1243 19.9648C11.9151 21.7692 12.2538 23.6036 13.1007 25.2086C13.9476 26.8236 15.2628 28.1395 16.8769 28.9769C18.491 29.8243 20.3143 30.1533 22.1277 29.934C23.9311 29.7146 25.6249 28.947 26.9899 27.7407C28.3449 26.5345 29.3114 24.9394 29.7398 23.1649C30.1782 21.4004 30.0587 19.5461 29.411 17.8414ZM8.39797 4.61232C8.74669 4.47275 9.09541 4.36309 9.4541 4.28334C9.54377 4.25343 9.62348 4.23349 9.71315 4.21356C9.94231 4.17368 10.1615 4.14377 10.3907 4.11386C11.0682 4.04408 11.7557 4.08396 12.4232 4.21356C12.5926 4.24346 12.762 4.28334 12.9214 4.33319C13.0908 4.38303 13.2602 4.43288 13.4196 4.49269C14.0572 4.72198 14.665 5.041 15.223 5.44973C15.5219 5.66905 15.7909 5.92825 16.0499 6.18745C16.2293 6.36689 16.3887 6.56627 16.5382 6.75569C16.6179 6.85538 16.6876 6.95507 16.7574 7.05476C17.3054 7.84233 17.7039 8.73955 17.8932 9.68662C18.1622 11.0424 18.0227 12.4481 17.4947 13.7241C17.3651 14.0431 17.2057 14.3522 17.0363 14.6413C16.857 14.9603 16.6378 15.2693 16.3887 15.5485L16.1795 15.7877C16.0101 15.9772 15.8208 16.1566 15.6215 16.3261C15.482 16.4457 15.3326 16.5653 15.1831 16.675C15.1034 16.7348 15.0237 16.7946 14.934 16.8544C14.8344 16.9242 14.7348 16.984 14.6252 17.0438C14.5853 17.0638 14.5355 17.0937 14.4956 17.1236C14.3063 17.2333 14.1071 17.333 13.9078 17.4127C13.6886 17.5224 13.4594 17.6121 13.2203 17.6819C12.9911 17.7616 12.752 17.8314 12.5029 17.8713C12.0347 17.981 11.5464 18.0308 11.0582 18.0308C10.9187 18.0308 10.7792 18.0308 10.6497 18.0109C10.5102 18.0109 10.3807 18.0009 10.2512 17.981C9.80282 17.9211 9.36443 17.8314 8.936 17.7018C8.69687 17.632 8.46771 17.5224 8.23855 17.4227C8.07913 17.3529 7.92968 17.2831 7.77027 17.2034C7.571 17.0937 7.37173 16.984 7.18242 16.8544C6.95326 16.7049 6.75399 16.5354 6.54475 16.356C6.40526 16.2364 6.26578 16.1068 6.12629 15.9772C6.12629 15.9772 6.12629 15.9772 6.11632 15.9672C4.8111 14.6612 4.0738 12.8867 4.0738 11.0424C4.0738 10.4941 4.13358 9.95579 4.26311 9.42742C4.47234 8.63986 4.80114 7.8822 5.26942 7.18436C6.03661 6.03791 7.12264 5.14069 8.39797 4.61232ZM27.7073 23.145C27.4084 24.0821 26.9201 24.9494 26.2626 25.6871C25.595 26.4149 24.7979 27.003 23.8912 27.4018C22.9945 27.8105 22.0181 28.0099 21.0317 28.0099C19.9756 28.0099 18.9394 27.7707 17.9928 27.322C17.0363 26.8635 16.2094 26.1955 15.5518 25.3681C14.9041 24.5407 14.4458 23.5836 14.2167 22.5568C13.9875 21.52 13.9975 20.4533 14.2466 19.4364C14.5654 19.3168 14.8842 19.1772 15.1831 19.0078C15.3326 18.928 15.482 18.8483 15.6315 18.7585C15.751 18.6987 15.8606 18.6289 15.9702 18.5492C16.1496 18.4395 16.319 18.3199 16.4784 18.1903C16.6577 18.0607 16.8371 17.9112 17.0064 17.7616C17.2256 17.5722 17.4349 17.3629 17.6242 17.1535C18.1921 16.5454 18.6704 15.8575 19.049 15.1198C19.0589 15.1098 19.0589 15.0999 19.0589 15.0899C19.1685 14.8905 19.2582 14.6812 19.3379 14.4818C19.3778 14.402 19.4077 14.3223 19.4375 14.2425C20.394 14.0132 21.4004 13.9933 22.3668 14.1727C23.3333 14.3622 24.2499 14.741 25.057 15.3092C25.864 15.8775 26.5515 16.6052 27.0497 17.4526C27.5578 18.3 27.8766 19.247 27.9862 20.224C28.1058 21.211 28.0062 22.1979 27.7073 23.145Z" fill="#001E32"/>
<path d="M22.0279 21.0315H24.0206V23.0253H22.0279V27.0129H20.0352V23.0253H18.0425V21.0315H20.0352V20.3635L17.624 17.1535C18.1919 16.5453 18.6702 15.8575 19.0488 15.1198C18.989 15.2394 18.9292 15.359 18.8595 15.4786L21.0315 18.3697L23.2235 15.4487L24.8177 16.645L22.0279 20.3635V21.0315Z" fill="#64CEB8"/>
<path d="M25.3058 9.36756L26.7107 10.7732L29.6997 7.78246C29.889 7.59305 29.9886 7.34382 29.9886 7.07465C29.9886 6.80549 29.879 6.55626 29.6997 6.36684L26.7107 3.3761L25.3058 4.78175L26.5911 6.06777H21.0215V8.0616H26.5911L25.3058 9.36756Z" fill="#001E32"/>
<path d="M6.79369 22.7362L5.38884 21.3306L2.39978 24.3213C2.21048 24.5107 2.11084 24.76 2.11084 25.0291C2.11084 25.2983 2.22044 25.5475 2.39978 25.7369L5.38884 28.7277L6.79369 27.322L5.5084 26.036H11.078V24.0422H5.49844L6.79369 22.7362Z" fill="#001E32"/>
<path d="M11.0682 8.07168C11.3372 8.07168 11.5863 8.18134 11.7756 8.36078C11.9649 8.5502 12.0646 8.79943 12.0646 9.06859H14.0573C14.0573 8.45051 13.858 7.85236 13.5093 7.3539C13.1605 6.85544 12.6524 6.46664 12.0646 6.26726V5.08093H10.0719V6.25729C9.4043 6.49655 8.84634 6.95513 8.48766 7.56325C8.12897 8.17137 7.99944 8.88915 8.11901 9.58699C8.23857 10.2848 8.59725 10.9129 9.13528 11.3615C9.67331 11.8101 10.3608 12.0593 11.0582 12.0593C11.2575 12.0593 11.4468 12.1192 11.6162 12.2288C11.7756 12.3385 11.9051 12.498 11.9848 12.6774C12.0646 12.8569 12.0845 13.0563 12.0446 13.2556C12.0048 13.455 11.9151 13.6245 11.7756 13.7641C11.6361 13.9036 11.4568 14.0033 11.2675 14.0332C11.0782 14.0631 10.8689 14.0532 10.6896 13.9734C10.5102 13.8937 10.3508 13.774 10.2412 13.6046C10.1316 13.445 10.0719 13.2457 10.0719 13.0463H8.07915C8.07915 13.6644 8.27842 14.2625 8.62714 14.761C8.98583 15.2594 9.48401 15.6482 10.0719 15.8476V17.024H12.0646V15.8476C12.7321 15.6183 13.2901 15.1498 13.6488 14.5417C14.0074 13.9335 14.137 13.2158 14.0174 12.5279C13.8978 11.83 13.5392 11.202 13.0011 10.7534C12.4631 10.3048 11.7756 10.0555 11.0782 10.0555C10.7992 10.0655 10.5501 9.96582 10.3608 9.7764C10.1715 9.58699 10.0719 9.33776 10.0719 9.06859C10.0719 8.79943 10.1815 8.5502 10.3608 8.36078C10.5501 8.18134 10.7992 8.07168 11.0682 8.07168Z" fill="#64CEB8"/>
</svg>
