<svg width="32" height="32" viewBox="0 0 32 32" fill="none" xmlns="http://www.w3.org/2000/svg">
<path d="M25.2865 12.6666V10.4373C25.2865 9.46529 24.8998 8.53329 24.2118 7.84529C22.9292 6.56263 20.3905 4.02396 19.1078 2.73996C18.4198 2.05329 17.4878 1.66663 16.5145 1.66663H5.33317C4.36117 1.66663 3.42784 2.05329 2.73984 2.73996C2.05317 3.42796 1.6665 4.36129 1.6665 5.33329V26.6666C1.6665 27.6386 2.05317 28.572 2.73984 29.26C3.42784 29.9466 4.36117 30.3333 5.33317 30.3333H11.9998C12.5518 30.3333 12.9998 29.8853 12.9998 29.3333C12.9998 28.7813 12.5518 28.3333 11.9998 28.3333H5.33317C4.8905 28.3333 4.46784 28.1573 4.1545 27.8453C3.8425 27.532 3.6665 27.1093 3.6665 26.6666V5.33329C3.6665 4.89063 3.8425 4.46796 4.1545 4.15463C4.46784 3.84263 4.8905 3.66663 5.33317 3.66663H16.5145C16.9572 3.66663 17.3812 3.84263 17.6932 4.15463L22.7985 9.25996C23.1105 9.57196 23.2865 9.99596 23.2865 10.4373V12.6666C23.2865 13.2186 23.7345 13.6666 24.2865 13.6666C24.8385 13.6666 25.2865 13.2186 25.2865 12.6666Z" fill="#001E32"/>
<path d="M16.6196 3.33325V7.99992C16.6196 9.28925 17.6636 10.3333 18.953 10.3333H23.6196C24.1716 10.3333 24.6196 9.88525 24.6196 9.33325C24.6196 8.78125 24.1716 8.33325 23.6196 8.33325H18.953C18.769 8.33325 18.6196 8.18392 18.6196 7.99992V3.33325C18.6196 2.78125 18.1716 2.33325 17.6196 2.33325C17.0676 2.33325 16.6196 2.78125 16.6196 3.33325Z" fill="#001E32"/>
<path d="M7.33301 10.3333H11.333C11.885 10.3333 12.333 9.88525 12.333 9.33325C12.333 8.78125 11.885 8.33325 11.333 8.33325H7.33301C6.78101 8.33325 6.33301 8.78125 6.33301 9.33325C6.33301 9.88525 6.78101 10.3333 7.33301 10.3333Z" fill="#64CEB8"/>
<path d="M7.33301 18.3333H11.333C11.885 18.3333 12.333 17.8853 12.333 17.3333C12.333 16.7813 11.885 16.3333 11.333 16.3333H7.33301C6.78101 16.3333 6.33301 16.7813 6.33301 17.3333C6.33301 17.8853 6.78101 18.3333 7.33301 18.3333Z" fill="#64CEB8"/>
<path d="M7.33301 14.3333H15.333C15.885 14.3333 16.333 13.8853 16.333 13.3333C16.333 12.7813 15.885 12.3333 15.333 12.3333H7.33301C6.78101 12.3333 6.33301 12.7813 6.33301 13.3333C6.33301 13.8853 6.78101 14.3333 7.33301 14.3333Z" fill="#64CEB8"/>
<path d="M30.3332 24C30.3332 23.3813 30.0878 22.788 29.6492 22.3506C29.2118 21.912 28.6185 21.6666 27.9998 21.6666H24.6665C24.1145 21.6666 23.6665 22.1146 23.6665 22.6666V29.3333C23.6665 29.8853 24.1145 30.3333 24.6665 30.3333H27.9998C28.6185 30.3333 29.2118 30.088 29.6492 29.6493C30.0878 29.212 30.3332 28.6186 30.3332 28V24ZM28.3332 24V28C28.3332 28.088 28.2985 28.1733 28.2358 28.236C28.1732 28.2986 28.0878 28.3333 27.9998 28.3333H25.6665V23.6666H27.9998C28.0878 23.6666 28.1732 23.7013 28.2358 23.764C28.2985 23.8266 28.3332 23.912 28.3332 24Z" fill="#001E32"/>
<path d="M25.6667 29.3333V17.3333C25.6667 16.044 24.6213 15 23.3333 15H21.3333C20.0453 15 19 16.044 19 17.3333V29.3333C19 29.8853 19.448 30.3333 20 30.3333H24.6667C25.2187 30.3333 25.6667 29.8853 25.6667 29.3333ZM23.6667 17.3333V28.3333H21V17.3333C21 17.1493 21.1493 17 21.3333 17H23.3333C23.5173 17 23.6667 17.1493 23.6667 17.3333Z" fill="#001E32"/>
<path d="M20.9997 20C20.9997 19.448 20.5517 19 19.9997 19H16.6663C16.0477 19 15.4543 19.2453 15.017 19.684C14.5783 20.1213 14.333 20.7147 14.333 21.3333V28C14.333 28.6187 14.5783 29.212 15.017 29.6493C15.4543 30.088 16.0477 30.3333 16.6663 30.3333H19.9997C20.5517 30.3333 20.9997 29.8853 20.9997 29.3333V20ZM18.9997 21V28.3333H16.6663C16.5783 28.3333 16.493 28.2987 16.4303 28.236C16.3677 28.1733 16.333 28.088 16.333 28V21.3333C16.333 21.2453 16.3677 21.16 16.4303 21.0973C16.493 21.0347 16.5783 21 16.6663 21H18.9997Z" fill="#001E32"/>
</svg>
