<svg width="32" height="32" viewBox="0 0 32 32" fill="none" xmlns="http://www.w3.org/2000/svg">
<path fill-rule="evenodd" clip-rule="evenodd" d="M3.2825 13.6154H9.8045C10.1645 13.6154 10.4565 13.9074 10.4565 14.2674V20.5449C10.4565 20.9049 10.1645 21.1969 9.8045 21.1969H3.2825C2.9225 21.1969 2.6305 20.9049 2.6305 20.5449V14.2674C2.6305 13.9074 2.9225 13.6154 3.2825 13.6154ZM24.3545 14.5124H25.0065C25.1865 14.5124 25.3325 14.6589 25.3325 14.8384V16.1429C25.3325 16.3229 25.1865 16.4689 25.0065 16.4689H24.3545H13.322H12.67C12.49 16.4689 12.344 16.3229 12.344 16.1429V14.8384C12.344 14.6589 12.49 14.5124 12.67 14.5124H13.322H24.3545ZM24.6585 19.2404H25.1305C25.3105 19.2404 25.4565 19.3864 25.4565 19.5664V20.8709C25.4565 21.0509 25.3105 21.1969 25.1305 21.1969H24.6585H16.146H15.674C15.494 21.1969 15.348 21.0509 15.348 20.8709V19.5664C15.348 19.3864 15.494 19.2404 15.674 19.2404H16.146H24.6585ZM2.9565 5.56494H25.1305C26.2105 5.56494 27.087 6.44194 27.087 7.52144V23.1739C27.087 23.5339 27.379 23.8259 27.739 23.8259C28.099 23.8259 28.3915 23.5339 28.3915 23.1739V9.47844C28.3915 8.75844 28.976 8.17394 29.6955 8.17394C30.4155 8.17394 31 8.75844 31 9.47844V24.4784C31 25.5579 30.1235 26.4349 29.0435 26.4349H2.9565C1.8765 26.4349 1 25.5579 1 24.4784V7.52144C1 6.44194 1.8765 5.56494 2.9565 5.56494ZM24.4785 9.78494H25.1305C25.3105 9.78494 25.4565 9.93094 25.4565 10.1109V11.4149C25.4565 11.5949 25.3105 11.7414 25.1305 11.7414H24.4785H3.6085H2.9565C2.7765 11.7414 2.6305 11.5949 2.6305 11.4149V10.1109C2.6305 9.93094 2.7765 9.78494 2.9565 9.78494H3.6085H24.4785Z" fill="white"/>
</svg>
