<svg width="32" height="32" viewBox="0 0 32 32" fill="none" xmlns="http://www.w3.org/2000/svg">
<g clip-path="url(#clip0_189_1057)">
<path d="M15.9238 11.1748H12.419C11.7587 11.1748 11.2 11.6573 11.2 12.3177C11.2 12.978 11.7587 13.4605 12.419 13.4605H15.9238C16.5841 13.4605 17.1428 12.978 17.1428 12.3177C17.1428 11.6573 16.6095 11.1748 15.9238 11.1748Z" fill="white"/>
<path d="M19.5555 18.2856H12.419C11.7587 18.2856 11.2 18.8952 11.2 19.5555C11.2 20.2158 11.7333 20.8253 12.419 20.8253H19.5555C20.2158 20.8253 20.7492 20.2158 20.7492 19.5555C20.7492 18.8952 20.2158 18.2856 19.5555 18.2856Z" fill="white"/>
<path d="M23.9746 0H8C3.60635 0 0 3.60635 0 8.0254V24C0 28.3937 3.60635 32 8 32H23.9746C28.3937 32 32 28.3937 32 23.9746V8.0254C32 3.60635 28.3937 0 23.9746 0ZM25.9556 19.6571C25.9302 23.1111 23.0857 25.9048 19.6063 25.9048H12.3429C8.86349 25.9048 6.09524 23.1365 6.09524 19.6825V12.3175C6.09524 8.86349 8.86349 6.09524 12.3429 6.09524H16.7619C18.3873 6.09524 20.7746 7.64445 21.6381 9.49841C21.8667 10.0064 22.019 10.0825 22.1968 11.6317C22.2984 12.419 22.3492 13.0032 22.7048 13.3333C23.2127 13.7905 25.0667 13.4857 25.4476 13.7651L25.727 13.9937L25.9048 14.3492L25.9556 14.6032V19.6571Z" fill="white"/>
</g>
<defs>
<clipPath id="clip0_189_1057">
<rect width="32" height="32" fill="white"/>
</clipPath>
</defs>
</svg>
