<svg width="32" height="32" viewBox="0 0 32 32" fill="none" xmlns="http://www.w3.org/2000/svg">
<g clip-path="url(#clip0_141_1040)">
<path fill-rule="evenodd" clip-rule="evenodd" d="M2.3125 0C2.83027 0 3.25 0.401875 3.25 0.897614V29.7274C3.25 30.2231 2.83027 30.625 2.3125 30.625C1.79473 30.625 1.375 30.2231 1.375 29.7274V0.897614C1.375 0.401875 1.79473 0 2.3125 0Z" fill="#001E32"/>
<path fill-rule="evenodd" clip-rule="evenodd" d="M1.375 29.6875C1.375 29.1697 1.7767 28.75 2.27221 28.75H31.1028C31.5983 28.75 32 29.1697 32 29.6875C32 30.2053 31.5983 30.625 31.1028 30.625H2.27221C1.7767 30.625 1.375 30.2053 1.375 29.6875Z" fill="#001E32"/>
<path fill-rule="evenodd" clip-rule="evenodd" d="M30.8821 13.5226C31.2072 13.6786 31.414 14.0072 31.414 14.3678V29.6177C31.414 30.1355 30.9942 30.5552 30.4765 30.5552C29.9587 30.5552 29.539 30.1355 29.539 29.6177V16.3212L25.8408 19.2866C25.5212 19.543 25.0721 19.562 24.7319 19.3337L21.9003 17.4331L16.9412 20.7401C16.6558 20.9304 16.2892 20.9497 15.9855 20.7903L10.1372 17.7219L3.00805 20.9111C2.53542 21.1225 1.98088 20.9108 1.76946 20.4381C1.55803 19.9655 1.76978 19.411 2.24241 19.1995L9.78697 15.8245C10.0493 15.7072 10.3509 15.7166 10.6054 15.8501L16.3639 18.8714L21.3819 15.5252C21.6977 15.3146 22.1093 15.3152 22.4244 15.5268L25.2051 17.3931L29.89 13.6364C30.1713 13.4108 30.557 13.3666 30.8821 13.5226Z" fill="#001E32"/>
<path fill-rule="evenodd" clip-rule="evenodd" d="M31.7761 5.04043C31.956 5.2517 32.033 5.53182 31.9865 5.80537L31.5458 8.39694C31.4589 8.90737 30.9748 9.25079 30.4643 9.16398C29.9539 9.07717 29.6105 8.593 29.6973 8.08257L29.9503 6.59497L28.4414 6.60753C27.9236 6.61184 27.5004 6.19561 27.4961 5.67787C27.4918 5.16012 27.908 4.73691 28.4258 4.7326L31.0545 4.71073C31.332 4.70842 31.5962 4.82915 31.7761 5.04043Z" fill="#64CEB8"/>
<path fill-rule="evenodd" clip-rule="evenodd" d="M30.3476 6.39528C30.6776 6.79425 30.6217 7.3852 30.2228 7.71521L25.1603 11.9027C24.8366 12.1704 24.3744 12.1902 24.0291 11.9511L21.3111 10.0693L16.5307 13.3576C16.2405 13.5572 15.8629 13.5773 15.5532 13.4097L9.90835 10.3546L6.4598 11.9671C5.99077 12.1864 5.43277 11.9839 5.21347 11.5149C4.99417 11.0459 5.19661 10.4879 5.66564 10.2686L9.54207 8.45607C9.81122 8.33023 10.1241 8.33941 10.3854 8.48083L15.9409 11.4875L20.7815 8.15786C21.1023 7.93714 21.5262 7.93778 21.8464 8.15947L24.5124 10.0053L29.0277 6.27043C29.4267 5.94042 30.0176 5.99632 30.3476 6.39528Z" fill="#64CEB8"/>
</g>
<defs>
<clipPath id="clip0_141_1040">
<rect width="32" height="32" fill="white"/>
</clipPath>
</defs>
</svg>
