<svg width="32" height="32" viewBox="0 0 32 32" fill="none" xmlns="http://www.w3.org/2000/svg">
<g clip-path="url(#clip0_141_1039)">
<path d="M7.39831 2.46453C7.39831 2.00569 7.38332 1.61436 7.39831 1.22554C7.4262 0.914539 7.56939 0.625237 7.79972 0.414541C8.03004 0.203844 8.33084 0.0870041 8.64292 0.0870041C8.95501 0.0870041 9.2558 0.203844 9.48613 0.414541C9.71646 0.625237 9.85965 0.914539 9.88754 1.22554C9.90878 1.61436 9.88754 2.00569 9.88754 2.43077H22.1337C22.1337 2.0557 22.125 1.69188 22.1337 1.32681C22.1574 0.537901 22.6923 -0.0147047 23.4083 0.000298185C24.1043 0.0153011 24.6067 0.550403 24.6292 1.3143C24.6404 1.66687 24.6292 2.01944 24.6292 2.46703C25.0291 2.46703 25.3964 2.46703 25.7626 2.46703C29.3302 2.51204 31.9931 5.17881 31.9981 8.73701C32.0065 14.3831 32.0065 20.0288 31.9981 25.6741C31.9981 29.2935 29.294 31.9915 25.6751 31.994C19.2213 31.9999 12.765 31.9999 6.30615 31.994C2.72727 31.994 0.0118713 29.2848 0.00687285 25.7141C-0.00229095 20.068 -0.00229095 14.4223 0.00687285 8.77701C0.00687285 5.17381 2.66354 2.50704 6.26742 2.46578C6.63605 2.46078 6.98344 2.46453 7.39831 2.46453ZM2.52484 12.3727V13.0266C2.52484 17.2124 2.52484 21.3982 2.52484 25.584C2.52983 27.9345 4.0881 29.4911 6.44486 29.4923C12.8337 29.4923 19.2234 29.4923 25.6139 29.4923C27.9681 29.4923 29.5152 27.9308 29.5164 25.569C29.5164 21.3832 29.5164 17.1974 29.5164 13.0116V12.3727H2.52484ZM29.4677 9.80596C29.9475 6.3978 27.562 4.49618 24.6979 5.04753C24.6789 5.08234 24.6654 5.11987 24.6579 5.1588C24.6579 5.82518 24.6517 6.49156 24.6467 7.15919C24.6392 8.08938 24.1843 8.62823 23.4046 8.63198C22.6248 8.63573 22.155 8.09188 22.1475 7.1717C22.1475 6.45031 22.1475 5.72892 22.1475 5.00002H9.97751C9.94502 5.06754 9.91253 5.10255 9.91253 5.1388C9.90503 5.82644 9.90503 6.51407 9.89628 7.20171C9.88628 8.07688 9.42393 8.61823 8.67166 8.63198C7.88816 8.64573 7.40456 8.10438 7.39831 7.1917C7.39831 6.46906 7.39831 5.74642 7.39831 5.03503C4.13933 4.58369 2.08872 6.63784 2.59606 9.80596H29.4677Z" fill="#001E32"/>
<path d="M16.0406 23.3711C16.4555 23.3711 16.8716 23.3523 17.2902 23.3711C17.6144 23.383 17.9214 23.5197 18.1472 23.7526C18.3731 23.9856 18.5003 24.2968 18.5023 24.6213C18.4993 24.9368 18.3763 25.2394 18.1584 25.4674C17.9404 25.6955 17.6439 25.8319 17.329 25.8491C16.4542 25.8841 15.587 25.8828 14.7173 25.8491C14.395 25.8363 14.0903 25.6985 13.8678 25.4648C13.6453 25.2312 13.5225 24.92 13.5254 24.5973C13.5284 24.2746 13.6568 23.9657 13.8835 23.7361C14.1101 23.5065 14.4173 23.3742 14.7398 23.3673C15.1696 23.3511 15.6057 23.3711 16.0406 23.3711Z" fill="#64CEB8"/>
<path d="M8.62047 18.4939C8.20684 18.4939 7.79072 18.5127 7.37086 18.4939C7.06275 18.461 6.77786 18.3147 6.57146 18.0835C6.36507 17.8523 6.25191 17.5526 6.25393 17.2426C6.25596 16.9326 6.37303 16.6344 6.58242 16.4058C6.79181 16.1773 7.07859 16.0348 7.3871 16.0059C8.22017 15.9818 9.0495 15.9818 9.87507 16.0059C10.2014 16.0058 10.5147 16.1334 10.7482 16.3614C10.9817 16.5895 11.1169 16.8998 11.1247 17.2262C11.1384 17.9075 10.5948 18.4639 9.86133 18.4964C9.45146 18.5089 9.03534 18.4939 8.62047 18.4939Z" fill="#64CEB8"/>
<path d="M16.0359 15.9958C16.4508 15.9958 16.8669 15.977 17.2855 15.9958C17.6084 16.0075 17.9139 16.1445 18.1376 16.3777C18.3612 16.6109 18.4854 16.922 18.4837 17.2452C18.4821 17.5684 18.3548 17.8782 18.1289 18.1092C17.9029 18.3401 17.596 18.474 17.273 18.4825C16.4446 18.5088 15.6136 18.5075 14.7851 18.4825C14.4588 18.4826 14.1454 18.355 13.9119 18.127C13.6784 17.899 13.5433 17.5886 13.5355 17.2623C13.5205 16.5759 14.0566 16.0233 14.7938 15.992C15.2099 15.9808 15.6211 15.9945 16.0359 15.9958Z" fill="#64CEB8"/>
<path d="M23.3682 18.4927C22.9533 18.4927 22.5372 18.5127 22.1248 18.4927C21.8017 18.4795 21.4965 18.3409 21.2738 18.1062C21.0512 17.8716 20.9286 17.5594 20.9322 17.2359C20.9358 16.9124 21.0652 16.603 21.293 16.3734C21.5208 16.1438 21.829 16.012 22.1523 16.0059C22.9854 15.9818 23.8147 15.9818 24.6403 16.0059C24.9659 16.0085 25.2776 16.1381 25.5092 16.3672C25.7407 16.5962 25.8737 16.9067 25.8799 17.2324C25.8899 17.9163 25.3501 18.4652 24.6128 18.4964C24.1979 18.5139 23.783 18.4964 23.3632 18.4964L23.3682 18.4927Z" fill="#64CEB8"/>
<path d="M8.7121 23.3699C9.10698 23.3699 9.50186 23.3536 9.89424 23.3699C10.2173 23.3774 10.5247 23.5105 10.7514 23.7409C10.9781 23.9712 11.1062 24.2809 11.1087 24.6042C11.1111 24.9275 10.9876 25.239 10.7645 25.4728C10.5413 25.7066 10.2359 25.8442 9.91298 25.8566C9.06325 25.8854 8.21226 25.8866 7.36253 25.8566C7.0331 25.8508 6.71947 25.7143 6.49063 25.4772C6.26179 25.24 6.13648 24.9216 6.14228 24.592C6.14808 24.2624 6.28451 23.9486 6.52155 23.7197C6.75859 23.4907 7.07683 23.3653 7.40626 23.3711C7.83738 23.3536 8.27849 23.3699 8.7121 23.3699Z" fill="#64CEB8"/>
<path d="M23.4037 23.3699C23.8185 23.3699 24.2334 23.3536 24.6533 23.3699C24.9764 23.377 25.284 23.5097 25.511 23.7399C25.738 23.9701 25.8665 24.2796 25.8693 24.603C25.872 24.9263 25.7488 25.238 25.5258 25.472C25.3028 25.7061 24.9975 25.844 24.6745 25.8566C23.826 25.8854 22.9738 25.8866 22.1253 25.8566C21.8 25.8446 21.4923 25.706 21.2675 25.4704C21.0428 25.2348 20.9188 24.9208 20.9219 24.5951C20.9319 24.2691 21.0676 23.9597 21.3005 23.7315C21.5335 23.5034 21.8456 23.3742 22.1715 23.3711C22.5727 23.3536 22.9888 23.3699 23.4037 23.3699Z" fill="#64CEB8"/>
</g>
<defs>
<clipPath id="clip0_141_1039">
<rect width="32" height="32" fill="white"/>
</clipPath>
</defs>
</svg>
