<svg width="32" height="32" viewBox="0 0 32 32" fill="none" xmlns="http://www.w3.org/2000/svg">
<path d="M16.8179 2C12.9549 2 9.81787 5.137 9.81787 9C9.81787 12.863 12.9549 16 16.8179 16C20.6819 16 23.8179 12.863 23.8179 9C23.8179 5.137 20.6819 2 16.8179 2ZM16.8179 4C19.5779 4 21.8179 6.24 21.8179 9C21.8179 11.76 19.5779 14 16.8179 14C14.0589 14 11.8179 11.76 11.8179 9C11.8179 6.24 14.0589 4 16.8179 4Z" fill="#001E32"/>
<path d="M4.81787 28H15.9999C16.5519 28 16.9999 28.448 16.9999 29C16.9999 29.552 16.5519 30 15.9999 30H3.81787C3.26587 30 2.81787 29.552 2.81787 29C2.81787 29 2.81787 28.175 2.81787 27C2.81787 22.029 6.84787 18 11.8179 18H15.9999C16.5519 18 16.9999 18.448 16.9999 19C16.9999 19.552 16.5519 20 15.9999 20H11.8179C7.95187 20 4.81787 23.134 4.81787 27V28Z" fill="#001E32"/>
<path d="M25.0487 28.612L22.6557 30.233C22.3487 30.44 21.9527 30.462 21.6267 30.288C21.2997 30.115 21.0947 29.775 21.0947 29.405V22.67C21.0947 22.255 21.3517 21.882 21.7397 21.735C22.1287 21.588 22.5677 21.695 22.8427 22.006C23.3837 22.615 24.1727 23 25.0497 23C25.9277 23 26.7167 22.615 27.2567 22.006C27.5327 21.695 27.9717 21.588 28.3597 21.735C28.7487 21.882 29.0047 22.255 29.0047 22.67V29.405C29.0047 29.775 28.8007 30.115 28.4737 30.288C28.1467 30.462 27.7507 30.44 27.4447 30.233L25.0487 28.612ZM23.0947 24.598V27.52L24.4887 26.577C24.8267 26.348 25.2707 26.347 25.6097 26.576L27.0047 27.521V24.598C26.4057 24.857 25.7437 25 25.0497 25C24.3557 25 23.6947 24.857 23.0947 24.598Z" fill="#64CEB8"/>
<path d="M25.0501 15.1011C22.3191 15.1011 20.1011 17.3191 20.1011 20.0501C20.1011 22.7821 22.3191 25.0001 25.0501 25.0001C27.7821 25.0001 30.0001 22.7821 30.0001 20.0501C30.0001 17.3191 27.7821 15.1011 25.0501 15.1011ZM25.0501 17.1011C26.6781 17.1011 28.0001 18.4221 28.0001 20.0501C28.0001 21.6781 26.6781 23.0001 25.0501 23.0001C23.4221 23.0001 22.1011 21.6781 22.1011 20.0501C22.1011 18.4221 23.4221 17.1011 25.0501 17.1011Z" fill="#64CEB8"/>
</svg>
