<svg width="32" height="32" viewBox="0 0 32 32" fill="none" xmlns="http://www.w3.org/2000/svg">
<g clip-path="url(#clip0_181_1544)">
<path d="M21.6875 11.375C16.0012 11.375 11.375 16.0012 11.375 21.6875C11.375 27.3738 16.0012 32 21.6875 32C27.3738 32 32 27.3738 32 21.6875C32 16.0012 27.3738 11.375 21.6875 11.375ZM21.6875 20.75C23.2384 20.75 24.5 22.0116 24.5 23.5625C24.5 24.7831 23.7139 25.814 22.625 26.2023V28.25H20.75V26.2023C19.6611 25.814 18.875 24.7831 18.875 23.5625H20.75C20.75 24.0798 21.1702 24.5 21.6875 24.5C22.2048 24.5 22.625 24.0798 22.625 23.5625C22.625 23.0452 22.2048 22.625 21.6875 22.625C20.1366 22.625 18.875 21.3634 18.875 19.8125C18.875 18.5919 19.6611 17.561 20.75 17.1727V15.125H22.625V17.1727C23.7139 17.561 24.5 18.5919 24.5 19.8125H22.625C22.625 19.2952 22.2048 18.875 21.6875 18.875C21.1702 18.875 20.75 19.2952 20.75 19.8125C20.75 20.3298 21.1702 20.75 21.6875 20.75Z" fill="white"/>
<path d="M10.4375 11.375C16.22 11.375 20.75 8.904 20.75 5.75C20.75 2.596 16.22 0 10.4375 0C4.655 0 0 2.596 0 5.75C0 8.904 4.655 11.375 10.4375 11.375Z" fill="white"/>
<path d="M0 21.0977V22.6252C0 25.7792 4.655 28.2502 10.4375 28.2502C10.7655 28.2502 11.0833 28.22 11.4062 28.2042C10.6871 27.0735 10.1508 25.8189 9.835 24.4777C5.65344 24.3622 2.02262 23.0773 0 21.0977Z" fill="white"/>
<path d="M9.54506 22.5775C9.52356 22.2826 9.5 21.988 9.5 21.6877C9.5 20.7104 9.62806 19.7645 9.84644 18.8532C5.65969 18.7397 2.02444 17.4541 0 15.4727V17.0002C0 19.9869 4.20387 22.3341 9.54506 22.5775Z" fill="white"/>
<path d="M10.4375 17.0002C10.4385 17.0002 10.4393 17.0001 10.4404 17.0001C11.0587 15.5223 11.9575 14.1902 13.0737 13.0741C12.227 13.1811 11.352 13.2502 10.4375 13.2502C5.98644 13.2502 2.12037 11.9229 0 9.84766V11.3752C0 14.5292 4.655 17.0002 10.4375 17.0002Z" fill="white"/>
</g>
<defs>
<clipPath id="clip0_181_1544">
<rect width="32" height="32" fill="white"/>
</clipPath>
</defs>
</svg>
