<svg width="80" height="80" viewBox="0 0 80 80" fill="none" xmlns="http://www.w3.org/2000/svg">
<g clip-path="url(#clip0_227_76)">
<rect x="5.30078" y="8.25006" width="69.3128" height="52.0871" fill="#9EF4E5"/>
<path d="M73.3333 3.33325H6.66672C2.99156 3.33325 0 6.32325 0 9.99997V56.6667C0 60.3434 2.99156 63.3334 6.66672 63.3334H30.0075C29.9375 65.9925 29.4297 70.2459 27.5228 72.2543C26.823 72.99 26.0222 73.3334 25 73.3334C24.0788 73.3334 23.3333 74.0789 23.3333 75.0001C23.3333 75.9214 24.0788 76.6668 25 76.6668H55C55.9212 76.6668 56.6667 75.9214 56.6667 75.0001C56.6667 74.0789 55.9212 73.3334 55 73.3334C53.9778 73.3334 53.177 72.9915 52.4805 72.2559C50.5783 70.2575 50.0672 65.9979 49.9945 63.3334H73.3334C77.0086 63.3334 80.0002 60.3436 80.0002 56.6667V9.99997C80 6.32325 77.0084 3.33325 73.3333 3.33325ZM40 60.0097C38.1575 60.0097 36.6569 58.509 36.6569 56.6665C36.6569 54.824 38.1575 53.3234 40 53.3234C41.8425 53.3234 43.3431 54.824 43.3431 56.6665C43.3431 58.509 41.8425 60.0097 40 60.0097ZM6.66672 50V9.99997H73.3334L73.3362 50H6.66672Z" fill="#2B9595"/>
<path d="M23.0601 26.959C23.0601 24.732 21.2411 22.76 18.5381 22.76C15.8861 22.76 14.0671 24.732 14.0671 26.959C14.0671 29.084 15.7671 31.005 18.2661 31.141L15.6481 35H18.6061L22.1931 29.458C22.7541 28.744 23.0601 27.877 23.0601 26.959ZM16.6341 26.959C16.6341 26.058 17.3651 25.174 18.5381 25.174C19.7451 25.174 20.4761 26.058 20.4761 26.959C20.4761 27.843 19.7451 28.727 18.5381 28.727C17.3651 28.727 16.6341 27.843 16.6341 26.959Z" fill="#2B9595"/>
<path d="M45.254 22.93L42.636 31.583L40.001 22.93H37.366L34.748 31.583L32.113 22.93H29.478L33.201 35H36.295L38.692 27.214L41.089 35H44.183L47.889 22.93H45.254Z" fill="#2B9595"/>
<path d="M47.0173 30.699C47.0173 33.164 48.7683 35.17 51.2333 35.17C52.5933 35.17 53.6133 34.49 54.0213 33.674L54.1743 35H56.5883V26.398H54.1743L54.0213 27.724C53.6133 26.908 52.5933 26.228 51.2333 26.228C48.7683 26.228 47.0173 28.234 47.0173 30.699ZM49.5843 30.699C49.5843 29.594 50.4173 28.642 51.6753 28.642C52.9163 28.642 53.7153 29.594 53.7153 30.699C53.7153 31.804 52.9163 32.739 51.6753 32.739C50.4173 32.739 49.5843 31.804 49.5843 30.699Z" fill="#2B9595"/>
<path d="M57.5885 26.398L61.1925 35L59.5265 38.91H62.2295L67.5335 26.398H64.7795L62.5695 31.804L60.3425 26.398H57.5885Z" fill="#2B9595"/>
</g>
<defs>
<clipPath id="clip0_227_76">
<rect width="80" height="80" fill="white"/>
</clipPath>
</defs>
</svg>
