<svg width="18" height="20" viewBox="0 0 18 20" fill="none" xmlns="http://www.w3.org/2000/svg">
<g clip-path="url(#clip0_99_1463)">
<path fill-rule="evenodd" clip-rule="evenodd" d="M1.57776 13.5776C2.48544 12.6699 3.71651 12.16 5.00016 12.16H13.0002C14.2838 12.16 15.5149 12.6699 16.4226 13.5776C17.3302 14.4853 17.8402 15.7164 17.8402 17V19C17.8402 19.4639 17.4641 19.84 17.0002 19.84C16.5362 19.84 16.1602 19.4639 16.1602 19V17C16.1602 16.1619 15.8272 15.3582 15.2346 14.7655C14.642 14.1729 13.8382 13.84 13.0002 13.84H5.00016C4.16207 13.84 3.35831 14.1729 2.7657 14.7655C2.17308 15.3582 1.84016 16.1619 1.84016 17V19C1.84016 19.4639 1.46408 19.84 1.00016 19.84C0.536237 19.84 0.160156 19.4639 0.160156 19V17C0.160156 15.7164 0.670083 14.4853 1.57776 13.5776Z" fill="#001E32"/>
<path fill-rule="evenodd" clip-rule="evenodd" d="M9.00016 1.84C7.25494 1.84 5.84016 3.25478 5.84016 5C5.84016 6.74522 7.25494 8.16 9.00016 8.16C10.7454 8.16 12.1602 6.74522 12.1602 5C12.1602 3.25478 10.7454 1.84 9.00016 1.84ZM4.16016 5C4.16016 2.32695 6.3271 0.160004 9.00016 0.160004C11.6732 0.160004 13.8402 2.32695 13.8402 5C13.8402 7.67306 11.6732 9.84 9.00016 9.84C6.3271 9.84 4.16016 7.67306 4.16016 5Z" fill="#64CEB8"/>
</g>
<defs>
<clipPath id="clip0_99_1463">
<rect width="18" height="20" fill="white"/>
</clipPath>
</defs>
</svg>
