<svg width="70" height="70" viewBox="0 0 70 70" fill="none" xmlns="http://www.w3.org/2000/svg">
<path d="M35.1654 18.8082C30.2976 18.8082 27.6036 21.2564 27.6528 25.9741C27.724 32.4351 30.5528 36.3546 35.1654 36.2863C35.1654 36.2863 42.6743 36.5818 42.6743 25.9741C42.6741 21.2564 40.1377 18.8082 35.1654 18.8082Z" fill="#004040"/>
<path d="M61.2666 53.0986C60.2912 53.0986 59.3557 53.2625 58.4862 53.5602L54.8505 50.0315C58.2133 45.8911 60.2226 40.6692 60.2226 34.9997C60.2226 29.3303 58.2138 24.1084 54.8505 19.9678L58.4862 16.439C59.3561 16.737 60.2915 16.9008 61.2666 16.9008C65.88 16.9008 69.6194 13.2711 69.6194 8.7932C69.6194 4.31596 65.88 0.686264 61.2666 0.686264C56.6535 0.686264 52.9133 4.31596 52.9133 8.79338C52.9133 9.74009 53.0821 10.6479 53.3891 11.4923L49.6242 15.1465C45.5354 12.3333 40.5452 10.6777 35.1629 10.6777C29.7808 10.6777 24.7903 12.3332 20.7017 15.1465L16.9371 11.4923C17.2441 10.6479 17.4129 9.74009 17.4129 8.79338C17.4129 4.31596 13.6727 0.686264 9.05964 0.686264C4.44654 0.686264 0.707031 4.31596 0.707031 8.79338C0.707031 13.2715 4.44672 16.901 9.05981 16.901C10.0352 16.901 10.9707 16.7372 11.8405 16.4391L15.4763 19.968C12.1135 24.1086 10.1042 29.3304 10.1042 34.9999C10.1042 40.6694 12.1133 45.8911 15.4763 50.0318L11.8405 53.5607C10.9707 53.2627 10.0352 53.099 9.05981 53.099C4.44654 53.099 0.707031 56.7285 0.707031 61.2068C0.707031 65.6842 4.44672 69.3139 9.05981 69.3139C13.6729 69.3139 17.4131 65.6842 17.4131 61.2068C17.4131 60.2595 17.2443 59.352 16.9373 58.508L20.7021 54.8536C24.7907 57.6668 29.7812 59.3224 35.1632 59.3224C40.5452 59.3224 45.5359 57.6673 49.6245 54.8536L53.3895 58.508C53.0825 59.3526 52.9136 60.2604 52.9136 61.2068C52.9136 65.6842 56.6539 69.3139 61.267 69.3139C65.8804 69.3139 69.6197 65.6842 69.6197 61.2068C69.6194 56.7283 65.8799 53.0986 61.2666 53.0986ZM50.7466 47.535C50.4665 44.9035 49.8833 41.7446 48.4469 41.1904L40.944 38.287L39.1871 36.8499C38.7231 36.4694 38.0378 36.497 37.6072 36.9127L35.1646 39.2702L32.7148 36.9119C32.2838 36.497 31.5996 36.4704 31.1361 36.8499L29.379 38.287L21.876 41.1908C20.4403 41.7458 19.8583 44.9035 19.5791 47.5343C16.6714 44.1333 14.9232 39.765 14.9232 35.0001C14.9232 24.1508 23.985 15.3555 35.163 15.3555C46.3411 15.3555 55.4029 24.1508 55.4029 35.0001C55.4029 39.7649 53.6543 44.1335 50.7466 47.535Z" fill="#004040"/>
<path d="M70 8.5C70 13.1944 65.9706 17 61 17C56.0294 17 52 13.1944 52 8.5C52 3.80558 56.0294 0 61 0C65.9706 0 70 3.80558 70 8.5Z" fill="#2aa79f"/>
<path d="M18 8.5C18 13.1944 13.9706 17 9 17C4.02944 17 0 13.1944 0 8.5C0 3.80558 4.02944 0 9 0C13.9706 0 18 3.80558 18 8.5Z" fill="#2aa79f"/>
<path d="M70 61.5C70 66.1944 65.9706 70 61 70C56.0294 70 52 66.1944 52 61.5C52 56.8056 56.0294 53 61 53C65.9706 53 70 56.8056 70 61.5Z" fill="#2aa79f"/>
<path d="M18 61.5C18 66.1944 13.9706 70 9 70C4.02944 70 0 66.1944 0 61.5C0 56.8056 4.02944 53 9 53C13.9706 53 18 56.8056 18 61.5Z" fill="#2aa79f"/>
</svg>
