<svg width="160" height="105" viewBox="0 0 160 105" fill="none" xmlns="http://www.w3.org/2000/svg">
<rect y="0.946533" width="160" height="104" rx="5" fill="white"/>
<path fill-rule="evenodd" clip-rule="evenodd" d="M155.881 0.946533H4.11898C1.84136 0.946533 0 2.79072 0 5.06551V100.516C0 102.791 1.84136 104.638 4.11898 104.638H155.881C158.159 104.638 160 102.794 160 100.519V5.06551C160 2.79356 158.159 0.946533 155.881 0.946533ZM24.8062 37.663H45.1979C47.8529 37.663 50.0023 39.8326 50.0023 42.5105L50.0023 58.2002C50.0023 58.2002 49.0223 58.1214 44.7019 56.6624C43.9222 56.399 42.9695 56.0451 41.9058 55.65C41.3316 55.4368 40.7252 55.2115 40.0962 54.982C41.1737 53.0928 42.0344 50.9414 42.6001 48.6032H36.6861V46.4549H43.9308V45.2558H36.6861V41.6746H33.7295C33.2109 41.6746 33.2109 42.191 33.2109 42.191V45.2558H25.8838V46.4549H33.2109V48.6032H27.1614V49.8021H38.8942C38.4648 51.2939 37.8884 52.6946 37.2042 53.9671C33.3971 52.7003 29.3346 51.6734 26.7825 52.3055C25.1503 52.711 24.0991 53.4349 23.4816 54.1933C20.6471 57.6713 22.6801 62.9542 28.6661 62.9542C32.2053 62.9542 35.6148 60.964 38.2574 57.6844C42.1988 59.5952 50.0023 62.876 50.0023 62.876L50.0023 63.0748C50.0023 65.7511 47.8529 67.9215 45.1979 67.9215H24.8062C22.1507 67.9215 20.0001 65.7511 20.0001 63.0748V42.5105C20.0001 39.8326 22.1507 37.663 24.8062 37.663ZM24.3661 55.1951C22.0594 57.2238 23.4393 60.9317 28.1069 60.9317C30.8197 60.9317 33.5314 59.1822 35.6604 56.3812C32.6316 54.8902 30.065 53.8234 27.2924 54.0998C26.5424 54.1749 25.1359 54.5096 24.3661 55.1951ZM87.8867 44.7114C86.2911 44.7114 85.1473 43.6577 85.1473 42.0924C85.1473 40.5571 86.2911 39.4731 87.8867 39.4731C89.4824 39.4731 90.6262 40.5571 90.6262 42.0924C90.6262 43.6577 89.4824 44.7114 87.8867 44.7114ZM77.5006 62.1121H82.2572V40.1355H77.5006V62.1121ZM65.0669 44.7116L62.2373 54.4956H67.8671L65.1877 44.7116H65.0669ZM62.7792 40.8883H69.1617L75.574 62.1124H69.9439L68.8003 57.9578H61.244L60.0397 62.1124H55.6443L62.7792 40.8883ZM85.5085 62.1121H90.2651V45.9759H85.5085V62.1121ZM140 45.9759L139.97 46.0059L131.872 67.23H127.687V67.1095L130.367 62.1724L123.954 45.9759H129.283L132.534 55.79H132.685L135.514 45.9759H140ZM99.0867 59.3426C98.5451 59.3426 98.033 59.2825 97.4613 59.1017V50.3714C98.4547 49.679 99.2675 49.3477 100.291 49.3477C102.067 49.3477 103.482 50.7628 103.482 53.7732C103.482 57.6265 101.405 59.3426 99.0867 59.3426ZM102.097 45.6449C100.351 45.6449 98.9966 46.3072 97.4613 47.5715V45.9759H92.7042V67.23H97.4613V61.9616C98.3643 62.2025 99.2072 62.3229 100.231 62.3229C104.476 62.3229 108.299 59.1921 108.299 53.6227C108.299 48.6252 105.529 45.6449 102.097 45.6449ZM115.435 59.1618C116.277 59.1618 117 58.8908 118.264 58.1985V54.3452C115.706 54.9471 114.592 55.3686 114.019 55.9408C113.658 56.3018 113.568 56.7533 113.568 57.2051C113.568 58.4093 114.291 59.1618 115.435 59.1618ZM123.021 51.3347V58.078L123.593 62.1121H118.837L118.505 60.4261C116.669 61.8111 115.314 62.4434 113.628 62.4434C111.371 62.4434 108.962 60.7874 108.962 57.6866C108.962 56.3923 109.293 55.2784 110.076 54.4957C111.129 53.4419 112.815 52.87 118.264 51.8463V51.7258C118.264 50.0098 117.572 48.896 116.007 48.896C114.712 48.896 113.477 49.4378 110.678 50.7024L109.835 46.9993C112.906 46.0661 114.592 45.6449 117.03 45.6449C120.854 45.6449 123.021 47.6617 123.021 51.3347Z" fill="url(#paint0_linear_332_69)"/>
<defs>
<linearGradient id="paint0_linear_332_69" x1="160" y1="1" x2="-7.65153e-07" y2="100" gradientUnits="userSpaceOnUse">
<stop stop-color="#2FF8CC"/>
<stop offset="1" stop-color="#319793"/>
</linearGradient>
</defs>
</svg>
