<svg width="80" height="81" viewBox="0 0 80 81" fill="none" xmlns="http://www.w3.org/2000/svg">
<path d="M18.4839 22.9347C18.4839 22.9347 18.9639 4.56983 40.0008 4.63543C60.8393 4.69943 61.5177 22.9347 61.5177 22.9347H18.4839Z" fill="#1E1E1E"/>
<path d="M32.3872 15.393C33.3988 14.3813 33.3988 12.7412 32.3872 11.7296C31.3756 10.7179 29.7354 10.7179 28.7238 11.7296C27.7122 12.7412 27.7122 14.3814 28.7238 15.393C29.7354 16.4046 31.3756 16.4046 32.3872 15.393Z" fill="white"/>
<path d="M52.0255 13.9814C52.2547 12.5693 51.2958 11.2386 49.8836 11.0094C48.4715 10.7802 47.1409 11.7392 46.9116 13.1513C46.6824 14.5635 47.6414 15.8941 49.0535 16.1233C50.4657 16.3525 51.7963 15.3936 52.0255 13.9814Z" fill="white"/>
<path d="M29.8442 7.10417C29.9194 7.21138 30.1546 7.17778 30.369 7.02578C30.5802 6.87538 30.689 6.66418 30.617 6.55698L26.5962 0.88335C26.5194 0.776149 26.2762 0.81135 26.073 0.961751C25.8586 1.12175 25.753 1.32335 25.825 1.43055L29.8442 7.10417Z" fill="#1E1E1E"/>
<path d="M50.1561 7.10417C50.0793 7.21138 49.8457 7.17778 49.6297 7.02578C49.4185 6.87538 49.3097 6.66418 49.3833 6.55698L53.4025 0.88335C53.4809 0.776149 53.7225 0.81135 53.9273 0.961751C54.1417 1.12175 54.2473 1.32335 54.1753 1.43055L50.1561 7.10417Z" fill="#1E1E1E"/>
<path d="M61.6971 25.49H18.3049V43.3509H18.3449V62.0854C18.3449 62.7732 18.6182 63.4329 19.1046 63.9193C19.591 64.4057 20.2507 64.679 20.9385 64.679H59.0619C59.7498 64.679 60.4095 64.4057 60.8959 63.9193C61.3823 63.4329 61.6555 62.7732 61.6555 62.0854V43.3509H61.6971V25.49Z" fill="#1E1E1E"/>
<path d="M73.2394 49.3667C73.2394 49.9732 73.1198 50.5738 72.8875 51.134C72.6553 51.6943 72.3148 52.2033 71.8856 52.6319C71.4564 53.0604 70.947 53.4002 70.3864 53.6317C69.8258 53.8632 69.2251 53.982 68.6186 53.9811V53.9811C67.3948 53.9811 66.2211 53.495 65.3557 52.6296C64.4903 51.7642 64.0042 50.5905 64.0042 49.3667V28.629C64.0063 27.4064 64.4933 26.2346 65.3584 25.3707C66.2235 24.5068 67.396 24.0214 68.6186 24.021V24.021C69.8426 24.0214 71.0162 24.5079 71.8816 25.3736C72.7469 26.2392 73.233 27.413 73.233 28.637L73.2394 49.3667Z" fill="#1E1E1E"/>
<path d="M15.9912 49.3667C15.9912 49.9728 15.8718 50.573 15.6398 51.1329C15.4078 51.6929 15.0678 52.2017 14.6391 52.6302C14.2104 53.0587 13.7016 53.3985 13.1416 53.6303C12.5815 53.8621 11.9813 53.9813 11.3752 53.9811V53.9811C10.1514 53.9811 8.97768 53.495 8.11231 52.6296C7.24694 51.7642 6.76074 50.5905 6.76074 49.3667V28.629C6.76286 27.4064 7.24991 26.2346 8.11501 25.3707C8.9801 24.5068 10.1526 24.0214 11.3752 24.021V24.021C12.5994 24.021 13.7735 24.5073 14.6392 25.373C15.5049 26.2387 15.9912 27.4128 15.9912 28.637V49.3667Z" fill="#1E1E1E"/>
<path d="M53.521 76.2067C53.521 76.8128 53.4016 77.413 53.1696 77.973C52.9376 78.5329 52.5976 79.0417 52.1689 79.4702C51.7403 79.8987 51.2314 80.2386 50.6713 80.4704C50.1113 80.7022 49.5111 80.8214 48.905 80.8212V80.8212C47.6826 80.819 46.5109 80.3319 45.6473 79.4668C44.7837 78.6016 44.2986 77.4292 44.2986 76.2067V55.4674C44.2986 54.8615 44.4179 54.2614 44.6498 53.7016C44.8817 53.1417 45.2216 52.633 45.6501 52.2046C46.0786 51.7761 46.5873 51.4362 47.1472 51.2043C47.707 50.9724 48.307 50.853 48.913 50.853C49.5191 50.8528 50.1193 50.972 50.6794 51.2038C51.2394 51.4356 51.7483 51.7755 52.1769 52.204C52.6056 52.6325 52.9456 53.1413 53.1776 53.7012C53.4096 54.2612 53.529 54.8613 53.529 55.4674L53.521 76.2067Z" fill="#1E1E1E"/>
<path d="M35.7096 76.2067C35.7096 76.8127 35.5902 77.4127 35.3583 77.9726C35.1264 78.5324 34.7865 79.0411 34.3581 79.4696C33.9296 79.8981 33.4209 80.238 32.861 80.4699C32.3012 80.7018 31.7011 80.8212 31.0951 80.8212V80.8212C29.8713 80.8212 28.6977 80.335 27.8323 79.4696C26.9669 78.6043 26.4807 77.4305 26.4807 76.2067V55.4674C26.4807 54.2436 26.9669 53.0699 27.8323 52.2046C28.6977 51.3392 29.8713 50.853 31.0951 50.853V50.853C31.7011 50.853 32.3012 50.9724 32.861 51.2043C33.4209 51.4362 33.9296 51.7761 34.3581 52.2046C34.7865 52.633 35.1264 53.1417 35.3583 53.7016C35.5902 54.2614 35.7096 54.8615 35.7096 55.4674V76.2067Z" fill="#1E1E1E"/>
</svg>
