<svg width="60" height="60" viewBox="0 0 60 60" fill="none" xmlns="http://www.w3.org/2000/svg">
<g clip-path="url(#clip0_201_3)">
<path d="M8.01393 22.0562C2.94147 30.8585 6.16612 44.2165 11.7754 52.3159C14.5754 56.3652 17.4101 60 21.2928 60C21.3659 60 21.4394 59.9986 21.5145 59.9957C23.3387 59.9229 24.6569 59.3612 25.9315 58.8185C27.3626 58.2087 28.8425 57.5782 31.1637 57.5782C33.3719 57.5782 34.7812 58.1883 36.1443 58.778C37.4875 59.3591 38.871 59.9603 40.9153 59.922C45.2889 59.8405 47.9742 55.9183 50.3433 52.4582C52.8153 48.8454 54.0556 45.3376 54.4741 43.9972L54.491 43.9439C54.5704 43.7057 54.4579 43.4456 54.2297 43.3408C54.2233 43.3378 54.2002 43.3282 54.1935 43.3254C53.4236 43.0104 46.6678 40.0135 46.5967 31.8448C46.5306 25.2082 51.6646 21.6938 52.6944 21.0567L52.7424 21.0269C52.8541 20.955 52.9319 20.8411 52.958 20.7109C52.9846 20.5808 52.9569 20.4455 52.8823 20.3362C49.3386 15.1501 43.9069 14.3686 41.7203 14.2746C41.403 14.243 41.0753 14.2271 40.7464 14.2271C38.1782 14.2271 35.7176 15.1971 33.7409 15.9765C32.3765 16.5145 31.1981 16.9792 30.385 16.9792C29.4717 16.9792 28.2864 16.5088 26.9139 15.9644C25.0785 15.2359 22.9982 14.4104 20.7959 14.4104C20.7434 14.4104 20.6916 14.411 20.6408 14.412C15.52 14.4872 10.6815 17.4168 8.01393 22.0562Z" fill="#D6D5D8"/>
<path d="M41.7247 0.000372781C38.6235 0.126701 34.904 2.03545 32.6804 4.63971C30.7908 6.82865 28.945 10.4782 29.4315 14.1569C29.4619 14.387 29.6492 14.5647 29.8807 14.5826C30.0898 14.5989 30.3039 14.6072 30.5164 14.6074C33.5486 14.6074 36.8195 12.93 39.0531 10.229C41.4041 7.37686 42.5929 3.71674 42.2334 0.438185C42.2055 0.181193 41.9791 -0.00958816 41.7247 0.000372781Z" fill="#D6D5D8"/>
</g>
<defs>
<clipPath id="clip0_201_3">
<rect width="60" height="60" fill="white"/>
</clipPath>
</defs>
</svg>
