<svg width="80" height="81" viewBox="0 0 80 81" fill="none" xmlns="http://www.w3.org/2000/svg">
<path d="M61.9953 43.3251C61.8993 33.1987 70.3152 28.3331 70.704 28.0979C65.9665 21.218 58.5937 20.2788 55.9649 20.1652C49.6881 19.5348 43.7186 23.834 40.5362 23.834C37.3538 23.834 32.4386 20.2596 27.237 20.3588C20.3923 20.4564 14.0883 24.3044 10.5603 30.3827C3.45636 42.6275 8.74593 60.7618 15.6707 70.6929C19.0563 75.5489 23.0899 81.0129 28.3922 80.8161C33.4978 80.6193 35.4322 77.5409 41.5954 77.5409C47.7586 77.5409 49.5009 80.8209 54.8913 80.7137C60.3857 80.6193 63.8641 75.7633 67.2257 70.8913C69.6267 67.3876 71.5081 63.5548 72.8112 59.5122C72.6912 59.4578 62.1009 55.429 61.9921 43.3251" fill="#1E1E1E"/>
<path d="M51.8514 13.5956C54.6674 10.2116 56.5618 5.50767 56.0418 0.821289C51.9906 0.981288 47.0818 3.50288 44.1698 6.88366C41.5635 9.87885 39.2803 14.6644 39.8979 19.258C44.4162 19.6052 49.0354 16.9764 51.8514 13.5956" fill="#1E1E1E"/>
</svg>
