<svg width="19" height="19" viewBox="0 0 19 19" fill="none" xmlns="http://www.w3.org/2000/svg">
<g clip-path="url(#clip0_111_1031)">
<path d="M13.8101 17.78C14.3406 18.3104 15.06 18.6084 15.8101 18.6084C16.5603 18.6084 17.2797 18.3104 17.8101 17.78C18.3406 17.2496 18.6385 16.5301 18.6385 15.78C18.6385 15.0299 18.3406 14.3104 17.8101 13.78L14.4301 10.41C14.2801 10.2604 14.077 10.1764 13.8651 10.1764C13.6533 10.1764 13.4501 10.2604 13.3001 10.41C13.1588 10.5602 13.0801 10.7587 13.0801 10.965C13.0801 11.1713 13.1588 11.3698 13.3001 11.52L16.6501 14.93C16.7638 15.04 16.8535 15.1723 16.9137 15.3185C16.974 15.4648 17.0034 15.6219 17.0001 15.78C17.0011 15.9378 16.9706 16.0942 16.9105 16.2402C16.8504 16.3861 16.7619 16.5186 16.6501 16.63C16.4227 16.8521 16.118 16.9776 15.8001 16.98C15.4848 16.9792 15.1827 16.8533 14.9601 16.63L11.5401 13.2C11.5214 13.4937 11.397 13.7707 11.1901 13.98L10.6201 14.55L13.8101 17.78Z" fill="#64CEB8"/>
<path d="M13.2705 10.44C13.1902 10.5127 13.1255 10.6011 13.0804 10.6996C13.0352 10.7981 13.0106 10.9048 13.0079 11.0131C13.0052 11.1215 13.0246 11.2292 13.0648 11.3298C13.1051 11.4305 13.1653 11.5219 13.242 11.5985C13.3186 11.6751 13.41 11.7354 13.5106 11.7756C13.6113 11.8159 13.719 11.8352 13.8273 11.8326C13.9357 11.8299 14.0424 11.8053 14.1409 11.7601C14.2394 11.715 14.3277 11.6503 14.4005 11.57L17.0105 8.92998C17.2808 8.65902 17.4792 8.32489 17.5877 7.95789C17.6963 7.59088 17.7115 7.20258 17.6321 6.8282C17.5526 6.45381 17.381 6.10517 17.1328 5.81387C16.8845 5.52257 16.5675 5.29781 16.2105 5.15997L3.1305 0.159975C2.711 -0.0117885 2.2501 -0.0557624 1.80568 0.0335776C1.36127 0.122918 0.953173 0.341588 0.63264 0.66212C0.312108 0.982653 0.0934376 1.39075 0.00409763 1.83516C-0.0852423 2.27958 -0.0412685 2.74048 0.130495 3.15997L5.1305 16.24C5.26833 16.597 5.49309 16.914 5.78439 17.1622C6.07569 17.4105 6.42433 17.5821 6.79872 17.6615C7.1731 17.741 7.5614 17.7257 7.9284 17.6172C8.29541 17.5087 8.62954 17.3103 8.9005 17.04L11.5105 14.43C11.6601 14.28 11.7441 14.0768 11.7441 13.865C11.7441 13.6531 11.6601 13.4499 11.5105 13.3C11.4369 13.2247 11.349 13.1649 11.252 13.124C11.155 13.0832 11.0508 13.0621 10.9455 13.0621C10.8402 13.0621 10.736 13.0832 10.639 13.124C10.542 13.1649 10.4541 13.2247 10.3805 13.3L7.8805 15.93C7.79761 16.0127 7.69531 16.0733 7.58295 16.1062C7.47058 16.1392 7.35175 16.1434 7.23734 16.1185C7.12292 16.0936 7.01657 16.0405 6.92802 15.9638C6.83947 15.8872 6.77156 15.7896 6.7305 15.68L1.7305 2.59998C1.68242 2.47327 1.67217 2.33533 1.70097 2.20291C1.72977 2.07048 1.79639 1.94927 1.89274 1.85397C1.9891 1.75868 2.11104 1.6934 2.24378 1.66606C2.37651 1.63873 2.51433 1.65051 2.6405 1.69998L15.7205 6.69998C15.8197 6.75128 15.9053 6.82558 15.9699 6.91669C16.0346 7.0078 16.0765 7.11306 16.0922 7.22368C16.1078 7.33429 16.0968 7.44705 16.06 7.55253C16.0231 7.65801 15.9616 7.75314 15.8805 7.82997L13.2705 10.44Z" fill="#001E32"/>
</g>
<defs>
<clipPath id="clip0_111_1031">
<rect width="18.6" height="18.6" fill="white"/>
</clipPath>
</defs>
</svg>
