<?xml version="1.0" encoding="UTF-8"?> <svg xmlns="http://www.w3.org/2000/svg" viewBox="0 0 1077.1 41.28"><defs><style>.cls-1{fill:#e93344;}.cls-2{fill:#2ec571;}</style></defs><g id="Layer_2" data-name="Layer 2"><g id="Layer_1-2" data-name="Layer 1"><rect class="cls-1" x="1064.01" y="27.36" width="13.08" height="13.92"></rect><rect class="cls-1" x="1046.57" y="27.36" width="13.08" height="13.92"></rect><rect class="cls-1" x="1029.13" y="21.35" width="13.08" height="19.92"></rect><rect class="cls-1" x="1011.68" y="16.01" width="13.08" height="25.26"></rect><rect class="cls-1" x="994.24" y="12.68" width="13.08" height="28.6"></rect><rect class="cls-1" x="976.8" y="9.34" width="13.08" height="31.94"></rect><rect class="cls-1" x="959.35" y="8.01" width="13.08" height="33.27"></rect><rect class="cls-1" x="941.91" y="6.01" width="13.08" height="35.27"></rect><rect class="cls-1" x="924.47" y="2" width="13.08" height="39.28"></rect><rect class="cls-1" x="907.02" width="13.08" height="41.28"></rect><rect class="cls-1" x="889.58" width="13.08" height="41.28"></rect><rect class="cls-1" x="872.13" width="13.08" height="41.28"></rect><rect class="cls-2" x="854.69" y="2.67" width="13.08" height="38.61"></rect><rect class="cls-2" x="837.25" y="6.01" width="13.08" height="35.27"></rect><rect class="cls-2" x="819.8" y="9.34" width="13.08" height="31.94"></rect><rect class="cls-2" x="802.36" y="12.68" width="13.08" height="28.6"></rect><rect class="cls-2" x="784.92" y="14.01" width="13.08" height="27.26"></rect><rect class="cls-2" x="767.47" y="16.01" width="13.08" height="25.26"></rect><rect class="cls-2" x="750.03" y="16.01" width="13.08" height="25.26"></rect><rect class="cls-2" x="732.59" y="16.01" width="13.08" height="25.26"></rect><rect class="cls-2" x="715.14" y="16.01" width="13.08" height="25.26"></rect><rect class="cls-1" x="697.7" y="16.01" width="13.08" height="25.26"></rect><rect class="cls-1" x="680.26" y="14.01" width="13.08" height="27.26"></rect><rect class="cls-1" x="662.81" y="12.68" width="13.08" height="28.6"></rect><rect class="cls-1" x="645.37" y="12.68" width="13.08" height="28.6"></rect><rect class="cls-1" x="627.93" y="9.34" width="13.08" height="31.94"></rect><rect class="cls-1" x="610.48" y="9.34" width="13.08" height="31.94"></rect><rect class="cls-2" x="593.04" y="12.68" width="13.08" height="28.6"></rect><rect class="cls-2" x="575.59" y="16.01" width="13.08" height="25.26"></rect><rect class="cls-2" x="558.15" y="21.35" width="13.08" height="19.92"></rect><rect class="cls-2" x="540.71" y="22.69" width="13.08" height="18.59"></rect><rect class="cls-2" x="523.26" y="27.36" width="13.08" height="13.92"></rect><rect class="cls-2" x="505.82" y="29.36" width="13.08" height="11.92"></rect><rect class="cls-2" x="488.38" y="31.36" width="13.08" height="9.92"></rect><rect class="cls-2" x="470.93" y="32.03" width="13.08" height="9.25"></rect><rect class="cls-2" x="453.49" y="32.7" width="13.08" height="8.58"></rect><rect class="cls-2" x="437.14" y="34.89" width="13.08" height="6.38"></rect><rect class="cls-2" x="419.69" y="35.48" width="13.08" height="5.79"></rect><rect class="cls-1" y="33.36" width="13.08" height="7.91"></rect><rect class="cls-1" x="17.44" y="26.36" width="13.08" height="14.92"></rect><rect class="cls-1" x="34.89" y="30.02" width="13.08" height="11.26"></rect><rect class="cls-1" x="52.33" y="33.7" width="13.08" height="7.58"></rect><rect class="cls-1" x="69.78" y="32.36" width="13.08" height="8.92"></rect><rect class="cls-1" x="87.22" y="27.36" width="13.08" height="13.92"></rect><rect class="cls-1" x="104.66" y="21.69" width="13.08" height="19.59"></rect><rect class="cls-1" x="122.11" y="16.66" width="13.08" height="24.61"></rect><rect class="cls-1" x="139.55" y="9.34" width="13.08" height="31.94"></rect><rect class="cls-2" x="156.99" y="2.67" width="13.08" height="38.61"></rect><rect class="cls-2" x="174.43" y="6.01" width="13.08" height="35.27"></rect><rect class="cls-2" x="191.88" y="9.34" width="13.08" height="31.94"></rect><rect class="cls-2" x="209.32" y="12.68" width="13.08" height="28.6"></rect><rect class="cls-2" x="226.77" y="14.01" width="13.08" height="27.26"></rect><rect class="cls-2" x="244.21" y="16.01" width="13.08" height="25.26"></rect><rect class="cls-2" x="261.65" y="16.01" width="13.08" height="25.26"></rect><rect class="cls-2" x="279.1" y="16.01" width="13.08" height="25.26"></rect><rect class="cls-2" x="296.54" y="16.01" width="13.08" height="25.26"></rect><rect class="cls-1" x="313.98" y="16.01" width="13.08" height="25.26"></rect><rect class="cls-1" x="331.43" y="16.66" width="13.08" height="24.61"></rect><rect class="cls-1" x="348.87" y="22.35" width="13.08" height="18.92"></rect><rect class="cls-1" x="366.32" y="26.41" width="13.08" height="14.86"></rect><rect class="cls-1" x="383.76" y="29.69" width="13.08" height="11.58"></rect><rect class="cls-1" x="401.2" y="33.36" width="13.08" height="7.91"></rect></g></g></svg> 