<svg width="160" height="105" viewBox="0 0 160 105" fill="none" xmlns="http://www.w3.org/2000/svg">
<rect y="0.946533" width="160" height="104" rx="5" fill="white"/>
<path fill-rule="evenodd" clip-rule="evenodd" d="M155.881 0.946533H4.11898C1.84136 0.946533 0 2.79072 0 5.06551V100.516C0 102.791 1.84136 104.638 4.11898 104.638H155.881C158.159 104.638 160 102.794 160 100.519V5.06551C160 2.79356 158.159 0.946533 155.881 0.946533ZM29.4955 64.9454C36.2079 66.6191 43.0056 62.5345 44.679 55.8229C46.3523 49.1108 42.268 42.3119 35.556 40.6386C28.8456 38.9653 22.0478 43.0503 20.3752 49.7627C18.7012 56.4739 22.7858 63.2721 29.4955 64.9454ZM35.2951 47.8462C37.0306 48.444 38.2999 49.3402 38.0505 51.0072C37.87 52.2276 37.1935 52.8183 36.2954 53.0255C37.5286 53.6675 38.1562 54.6522 37.5584 56.3591C36.8165 58.4792 35.0539 58.6581 32.71 58.2145L32.1411 60.4943L30.7665 60.1517L31.3279 57.9025C30.9717 57.814 30.6075 57.72 30.2325 57.6182L29.6691 59.878L28.2961 59.5355L28.8649 57.2514C28.7366 57.2185 28.6075 57.1849 28.4774 57.1509L28.4772 57.1509L28.4766 57.1507C28.2816 57.0999 28.0845 57.0485 27.885 56.9985L26.0962 56.5526L26.7786 54.9791C26.7786 54.9791 27.7914 55.2484 27.7777 55.2285C28.1669 55.3248 28.3395 55.0711 28.4077 54.902L29.3066 51.2981C29.3402 51.3062 29.3732 51.3145 29.4051 51.3225L29.4518 51.3341C29.397 51.3122 29.3473 51.2981 29.3089 51.2883L29.9502 48.7157C29.967 48.4237 29.8664 48.0552 29.3097 47.9163C29.3312 47.9018 28.3114 47.668 28.3114 47.668L28.677 46.1999L30.5727 46.6732L30.5711 46.6803C30.8562 46.7511 31.1498 46.8185 31.4489 46.8866L32.0123 44.6292L33.3861 44.9717L32.8341 47.1849C33.2029 47.2691 33.574 47.3541 33.9354 47.4441L34.4835 45.2454L35.8581 45.588L35.2951 47.8462ZM30.9472 56.0337C32.0688 56.3299 34.5201 56.9774 34.9098 55.4113C35.3092 53.81 32.9318 53.2766 31.7717 53.0163C31.6421 52.9872 31.5277 52.9615 31.434 52.9381L30.6792 55.9641C30.756 55.9832 30.8461 56.007 30.9469 56.0336L30.9472 56.0337ZM32.0048 51.612C32.9399 51.8616 34.9797 52.4059 35.335 50.9826C35.6978 49.5267 33.7154 49.0878 32.7472 48.8735C32.6382 48.8493 32.5422 48.8281 32.4637 48.8085L31.7793 51.553C31.844 51.5691 31.9198 51.5893 32.0048 51.612ZM59.3453 48.3834C58.6077 48.0259 57.73 47.8439 56.714 47.8439C56.2285 47.8439 55.7744 47.8987 55.3512 48.004C54.9283 48.1109 54.5047 48.2577 54.0842 48.4472L56.0484 40.2674L51.135 41.0289L45.6492 64.0794C46.2627 64.3761 46.9142 64.6099 47.6001 64.7766C48.2864 64.9466 48.9363 65.0734 49.551 65.1591C50.1617 65.2417 50.7071 65.2907 51.1816 65.3005C51.6561 65.3103 51.992 65.3158 52.1831 65.3158C53.6606 65.3158 55.0368 65.0354 56.3025 64.4748C57.5702 63.9145 58.6696 63.1562 59.6006 62.1942C60.5324 61.2311 61.2649 60.102 61.8048 58.8003C62.3447 57.5005 62.6121 56.1216 62.6121 54.662C62.6121 53.7118 62.4962 52.8243 62.2652 51.9986C62.0327 51.1752 61.6725 50.4568 61.1886 49.8421C60.698 49.2306 60.0865 48.7443 59.3453 48.3834ZM54.6848 60.8784C54.0298 61.2358 53.3325 61.4179 52.5926 61.4179C52.3604 61.4179 52.1729 61.4175 52.023 61.4175C51.873 61.4175 51.7489 61.4112 51.6404 61.3991C51.5379 61.3885 51.4349 61.3733 51.3417 61.3517C51.2466 61.3318 51.135 61.3106 51.0089 61.2883L53.1004 52.6015C53.4829 52.2652 53.9096 52.0416 54.3865 51.934C54.8618 51.8326 55.2451 51.7758 55.5426 51.7758C56.4505 51.7758 57.0758 52.0624 57.4136 52.632C57.7515 53.204 57.921 53.9953 57.921 55.0097C57.921 55.8354 57.7824 56.629 57.5084 57.3897C57.2343 58.1504 56.8585 58.8312 56.3836 59.4357C55.9087 60.0374 55.3418 60.5205 54.6848 60.8784ZM67.7076 64.8746H63.0146L66.9778 48.1975H71.7029L67.7076 64.8746ZM69.9913 46.1656C69.3363 46.1656 68.7423 45.9706 68.2154 45.5799C67.6841 45.1915 67.421 44.5936 67.421 43.7879C67.421 43.3447 67.511 42.9289 67.6896 42.5367C67.8708 42.1451 68.1077 41.8081 68.4045 41.5215C68.7008 41.2372 69.0442 41.0102 69.4341 40.8391C69.8264 40.6707 70.2438 40.5866 70.6885 40.5866C71.3431 40.5866 71.9339 40.7815 72.4628 41.1722C72.9898 41.5649 73.2549 42.1628 73.2549 42.9642C73.2549 43.4089 73.1652 43.8263 72.9851 44.2178C72.8062 44.6093 72.5693 44.9464 72.2726 45.233C71.9786 45.5176 71.6321 45.7439 71.2429 45.9134C70.8502 46.0845 70.4344 46.1656 69.9913 46.1656ZM80.7311 43.2809L75.8157 44.0423L72.7068 57.1685C72.4535 58.2467 72.3066 59.2705 72.2632 60.2445C72.2213 61.2163 72.3712 62.0788 72.7068 62.8269C73.047 63.5779 73.6155 64.171 74.4196 64.6052C75.2249 65.0362 76.3552 65.2527 77.8132 65.2527C78.8272 65.2527 79.7046 65.1705 80.4457 64.9998C81.1857 64.8315 81.8724 64.6314 82.5066 64.3988L82.1566 60.7829C81.6704 60.954 81.19 61.0847 80.7159 61.1787C80.239 61.2742 79.7457 61.3224 79.2395 61.3224C78.6248 61.3224 78.1562 61.2366 77.8289 61.0663C77.5 60.8988 77.2733 60.6619 77.1473 60.3546C77.0204 60.048 76.9668 59.6839 76.9899 59.2599C77.0102 58.8378 77.083 58.3837 77.2115 57.8975L78.6052 52.064H83.8378L84.7883 48.1966H79.5241L80.7311 43.2809ZM84.5816 58.215C84.5816 56.7785 84.8141 55.4239 85.2789 54.1558C85.7428 52.8866 86.4111 51.7766 87.2783 50.8241C88.1424 49.8762 89.1951 49.1253 90.4342 48.5741C91.6675 48.026 93.0484 47.7496 94.5702 47.7496C95.5227 47.7496 96.3734 47.8396 97.122 48.0201C97.8737 48.2021 98.5538 48.4374 99.1688 48.7326L97.5503 52.4128C97.1275 52.2413 96.6886 52.0902 96.2348 51.9532C95.7807 51.8134 95.2263 51.7461 94.5705 51.7461C93.0041 51.7461 91.7658 52.286 90.8442 53.3622C89.9261 54.4393 89.4637 55.889 89.4637 57.7076C89.4637 58.7854 89.6963 59.6569 90.1629 60.3237C90.6273 60.9904 91.4851 61.322 92.7304 61.322C93.3451 61.322 93.9383 61.2578 94.5063 61.1325C95.0787 61.0057 95.5842 60.8459 96.0293 60.6572L96.3797 64.4298C95.7862 64.66 95.1316 64.8679 94.4136 65.0499C93.694 65.2257 92.8373 65.317 91.8441 65.317C90.5329 65.317 89.423 65.1251 88.5151 64.7473C87.6068 64.3636 86.8562 63.8543 86.2651 63.2091C85.6708 62.5623 85.244 61.8071 84.9801 60.9403C84.7163 60.0743 84.5816 59.1644 84.5816 58.215ZM102.511 64.8084C103.336 65.1463 104.309 65.317 105.429 65.317C106.973 65.317 108.332 64.9936 109.504 64.3492C110.678 63.7047 111.655 62.8751 112.437 61.8615C113.22 60.8455 113.813 59.7023 114.213 58.4381C114.612 57.1677 114.813 55.8976 114.813 54.6311C114.813 53.6175 114.677 52.6908 114.401 51.8577C114.127 51.0214 113.719 50.2999 113.183 49.6852C112.641 49.0736 111.955 48.5956 111.122 48.2585C110.285 47.9206 109.318 47.7496 108.218 47.7496C106.719 47.7496 105.385 48.0729 104.225 48.7158C103.064 49.363 102.077 50.193 101.278 51.2082C100.472 52.2218 99.8634 53.3622 99.4531 54.6315C99.0408 55.898 98.8369 57.1681 98.8369 58.4385C98.8369 59.4514 98.97 60.3757 99.2468 61.2104C99.5236 62.0455 99.9276 62.7702 100.467 63.3817C101.007 63.9964 101.688 64.4705 102.511 64.8084ZM105.938 52.3474C106.464 51.9485 107.079 51.7465 107.775 51.7465C108.663 51.7465 109.276 52.0432 109.615 52.6332C109.953 53.2256 110.123 54.0517 110.123 55.1072C110.123 55.7618 110.033 56.4559 109.855 57.1838C109.674 57.9135 109.404 58.5857 109.044 59.1973C108.684 59.8104 108.239 60.3182 107.714 60.7187C107.184 61.1219 106.572 61.3224 105.874 61.3224C104.986 61.3224 104.375 61.0256 104.035 60.4356C103.699 59.8425 103.528 59.0184 103.528 57.9601C103.528 57.3043 103.616 56.6141 103.796 55.8839C103.977 55.1553 104.246 54.4851 104.607 53.8704C104.965 53.2585 105.409 52.7511 105.938 52.3474ZM119.927 64.8746H115.23L119.193 48.1975H123.921L119.927 64.8746ZM122.207 46.1656C121.552 46.1656 120.959 45.9706 120.433 45.5799C119.904 45.1915 119.639 44.5936 119.639 43.7879C119.639 43.3447 119.73 42.9289 119.909 42.5367C120.088 42.1451 120.326 41.8081 120.623 41.5215C120.918 41.2372 121.264 41.0102 121.653 40.8391C122.043 40.6707 122.461 40.5866 122.904 40.5866C123.56 40.5866 124.153 40.7815 124.681 41.1722C125.209 41.5649 125.475 42.1628 125.475 42.9642C125.475 43.4089 125.381 43.8263 125.203 44.2178C125.026 44.6093 124.787 44.9464 124.492 45.233C124.194 45.5176 123.852 45.7439 123.462 45.9134C123.069 46.0845 122.653 46.1656 122.207 46.1656ZM128.489 48.5904C128.056 48.7265 127.659 48.8517 127.303 48.9557L123.464 64.8725H128.19L131.266 51.9688C131.902 51.842 132.524 51.7762 133.136 51.7762C133.771 51.7762 134.239 51.8979 134.548 52.1403C134.853 52.3865 135.05 52.7045 135.133 53.0928C135.22 53.4859 135.225 53.94 135.15 54.4553C135.076 54.9752 134.976 55.5073 134.848 56.0577L132.756 64.8729H137.48L139.639 55.8682C140.249 53.3751 140.087 51.4082 139.145 49.9709C138.203 48.5337 136.497 47.8129 134.022 47.8129C133.18 47.8129 132.422 47.8497 131.757 47.9253C131.092 47.9993 130.487 48.0948 129.951 48.2127C129.409 48.327 128.924 48.4538 128.49 48.5901L128.489 48.5904Z" fill="url(#paint0_linear_332_118)"/>
<defs>
<linearGradient id="paint0_linear_332_118" x1="160" y1="1" x2="-7.65153e-07" y2="100" gradientUnits="userSpaceOnUse">
<stop stop-color="#2FF8CC"/>
<stop offset="1" stop-color="#319793"/>
</linearGradient>
</defs>
</svg>
