<svg width="160" height="105" viewBox="0 0 160 105" fill="none" xmlns="http://www.w3.org/2000/svg">
<rect y="0.946533" width="160" height="104" rx="5" fill="white"/>
<path fill-rule="evenodd" clip-rule="evenodd" d="M4.11898 0.946533H155.881C158.159 0.946533 160 2.79356 160 5.06551V100.519C160 102.794 158.159 104.638 155.881 104.638H4.11898C1.84136 104.638 0 102.791 0 100.516V5.06551C0 2.79072 1.84136 0.946533 4.11898 0.946533ZM60.3302 44.631C60.3302 47.5719 58.9105 50.0564 56.7302 51.7296C59.9246 53.555 62.3584 56.5972 62.3584 60.5522C62.3584 67.2451 57.2373 70.9465 49.5809 70.9465H37.6147V34.9465H48.719C56.2232 34.9465 60.3302 38.9522 60.3302 44.631ZM48.719 40.8282H43.8514V49.1437H48.719C52.0655 49.1437 54.0936 47.8761 54.0936 44.986C54.0936 42.2479 52.0655 40.8282 48.719 40.8282ZM43.8514 65.0648H49.5809C53.8401 65.0648 56.1218 63.2395 56.1218 60.1972C56.1218 57.155 53.8401 55.0254 49.7331 55.0254H43.8514V65.0648ZM116.757 51.7296C118.937 50.0564 120.357 47.5719 120.357 44.631C120.357 38.9522 116.25 34.9465 108.746 34.9465H97.6414V70.9465H109.608C117.264 70.9465 122.385 67.2451 122.385 60.5522C122.385 56.5972 119.951 53.555 116.757 51.7296ZM103.878 40.8282H108.746C112.092 40.8282 114.12 42.2479 114.12 44.986C114.12 47.8761 112.092 49.1437 108.746 49.1437H103.878V40.8282ZM109.608 65.0648H103.878V55.0254H109.76C113.867 55.0254 116.148 57.155 116.148 60.1972C116.148 63.2395 113.867 65.0648 109.608 65.0648ZM73.3749 48.0006H76.402V51.1357H73.3749V61.6763H70.0506V51.1357H67.9155V48.0006H70.0506V43.9465H73.3749V48.0006ZM92.0848 54.8384C92.0848 58.7573 89.0578 61.9465 84.7875 61.9465C80.4902 61.9465 77.4362 58.7573 77.4362 54.8384C77.4362 50.9195 80.4902 47.7303 84.7875 47.7303C89.0578 47.7303 92.0848 50.9195 92.0848 54.8384ZM80.7605 54.8384C80.7605 57.0006 82.4362 58.8114 84.7875 58.8114C87.1118 58.8114 88.7605 57.0006 88.7605 54.8384C88.7605 52.6763 87.1118 50.8655 84.7875 50.8655C82.4362 50.8655 80.7605 52.6763 80.7605 54.8384Z" fill="url(#paint0_linear_332_132)"/>
<defs>
<linearGradient id="paint0_linear_332_132" x1="160" y1="1" x2="-7.65153e-07" y2="100" gradientUnits="userSpaceOnUse">
<stop stop-color="#2FF8CC"/>
<stop offset="1" stop-color="#319793"/>
</linearGradient>
</defs>
</svg>
