<svg width="80" height="81" viewBox="0 0 80 81" fill="none" xmlns="http://www.w3.org/2000/svg">
<g clip-path="url(#clip0_231_472)">
<path d="M50.6667 1.89612H56C56.7072 1.89612 57.3855 2.17707 57.8856 2.67717C58.3857 3.17726 58.6667 3.85554 58.6667 4.56278V11.2295H48V4.56278C48 3.85554 48.2809 3.17726 48.781 2.67717C49.2811 2.17707 49.9594 1.89612 50.6667 1.89612Z" fill="#9EF4E5"/>
<path d="M16 12.5627H64V72.5627H16V12.5627Z" fill="white"/>
<path d="M16 15.2294H64C66.2091 15.2294 68 13.4385 68 11.2294C68 9.02023 66.2091 7.22937 64 7.22937H16C13.7909 7.22937 12 9.02023 12 11.2294C12 13.4385 13.7909 15.2294 16 15.2294Z" fill="#9EF4E5"/>
<path d="M16 47.2294H64C66.2091 47.2294 68 45.4385 68 43.2294C68 41.0202 66.2091 39.2294 64 39.2294H16C13.7909 39.2294 12 41.0202 12 43.2294C12 45.4385 13.7909 47.2294 16 47.2294Z" fill="#9EF4E5"/>
<path d="M16 79.2294H64C66.2091 79.2294 68 77.4385 68 75.2294C68 73.0202 66.2091 71.2294 64 71.2294H16C13.7909 71.2294 12 73.0202 12 75.2294C12 77.4385 13.7909 79.2294 16 79.2294Z" fill="#9EF4E5"/>
<path d="M1.33325 64.7214C1.33325 68.6112 2.87849 72.3418 5.62902 75.0923C8.37955 77.8428 12.1101 79.3881 15.9999 79.3881C19.8898 79.3881 23.6203 77.8428 26.3708 75.0923C29.1214 72.3418 30.6666 68.6112 30.6666 64.7214C30.6666 55.9107 20.4386 41.5814 17.0666 37.0947C16.9424 36.9291 16.7813 36.7947 16.5962 36.7022C16.4111 36.6096 16.2069 36.5614 15.9999 36.5614C15.7929 36.5614 15.5888 36.6096 15.4036 36.7022C15.2185 36.7947 15.0574 36.9291 14.9333 37.0947C11.5613 41.5814 1.33325 55.9107 1.33325 64.7214V64.7214Z" fill="#9EF4E5"/>
<path d="M61.3333 79.2294C70.9063 79.2294 78.6667 71.469 78.6667 61.8961C78.6667 52.3231 70.9063 44.5627 61.3333 44.5627C51.7604 44.5627 44 52.3231 44 61.8961C44 71.469 51.7604 79.2294 61.3333 79.2294Z" fill="#E3CB5B"/>
<path d="M61.3333 73.8961C67.9607 73.8961 73.3333 68.5235 73.3333 61.8961C73.3333 55.2687 67.9607 49.8961 61.3333 49.8961C54.7058 49.8961 49.3333 55.2687 49.3333 61.8961C49.3333 68.5235 54.7058 73.8961 61.3333 73.8961Z" fill="#FDE36E"/>
<path d="M61.3333 48.5627C58.6963 48.5627 56.1184 49.3447 53.9257 50.8098C51.7331 52.2749 50.0241 54.3573 49.0149 56.7936C48.0058 59.23 47.7417 61.9109 48.2562 64.4973C48.7707 67.0837 50.0406 69.4595 51.9053 71.3242C53.77 73.1889 56.1457 74.4587 58.7321 74.9732C61.3185 75.4877 63.9994 75.2236 66.4358 74.2145C68.8721 73.2053 70.9545 71.4963 72.4196 69.3037C73.8847 67.111 74.6667 64.5332 74.6667 61.8961C74.6628 58.361 73.2568 54.9719 70.7571 52.4723C68.2575 49.9726 64.8684 48.5666 61.3333 48.5627V48.5627ZM61.3333 72.5627C59.2237 72.5627 57.1614 71.9372 55.4073 70.7651C53.6531 69.593 52.286 67.9271 51.4786 65.978C50.6713 64.029 50.4601 61.8842 50.8716 59.8151C51.2832 57.746 52.2991 55.8454 53.7909 54.3536C55.2826 52.8618 57.1832 51.8459 59.2524 51.4344C61.3215 51.0228 63.4662 51.234 65.4153 52.0414C67.3644 52.8487 69.0303 54.2159 70.2024 55.97C71.3744 57.7241 72 59.7864 72 61.8961C71.9968 64.7241 70.872 67.4353 68.8723 69.435C66.8726 71.4347 64.1613 72.5596 61.3333 72.5627Z" fill="#2B9595"/>
<path d="M69.052 44.9201C69.2872 44.2279 69.3765 43.4945 69.3142 42.7662C69.2519 42.0378 69.0393 41.3302 68.6899 40.6881C68.3405 40.046 67.8619 39.4832 67.2842 39.0352C66.7065 38.5873 66.0422 38.2639 65.3333 38.0854V16.3734C66.5888 16.0503 67.6833 15.28 68.4111 14.2072C69.139 13.1344 69.4504 11.8329 69.2867 10.5468C69.1231 9.26075 68.4956 8.07864 67.5223 7.22235C66.5489 6.36606 65.2964 5.89446 64 5.89608H60V4.56274C60 3.50188 59.5786 2.48446 58.8284 1.73432C58.0783 0.984171 57.0609 0.562744 56 0.562744L50.6667 0.562744C49.6058 0.562744 48.5884 0.984171 47.8382 1.73432C47.0881 2.48446 46.6667 3.50188 46.6667 4.56274V5.89608H16C14.5855 5.89608 13.229 6.45798 12.2288 7.45817C11.2286 8.45837 10.6667 9.81492 10.6667 11.2294C10.6667 12.6439 11.2286 14.0005 12.2288 15.0006C13.229 16.0008 14.5855 16.5627 16 16.5627H62.6667V37.8961H19.3133C18.8893 37.3134 18.484 36.7627 18.1307 36.2961C17.915 36.019 17.6421 35.7916 17.3307 35.6294V20.5627C17.3307 20.2091 17.1902 19.87 16.9401 19.6199C16.6901 19.3699 16.351 19.2294 15.9973 19.2294C15.6437 19.2294 15.3046 19.3699 15.0545 19.6199C14.8045 19.87 14.664 20.2091 14.664 20.5627V35.6294C14.3526 35.7916 14.0797 36.019 13.864 36.2961C9.69867 41.8387 0 55.7107 0 64.7214C0.0257452 68.9424 1.72477 72.9807 4.72433 75.9506C7.72389 78.9204 11.779 80.5791 16 80.5627H61.3333C65.597 80.5653 69.7328 79.1073 73.0522 76.4314C76.3716 73.7556 78.6742 70.0234 79.5766 65.8564C80.479 61.6893 79.9268 57.3389 78.0118 53.5295C76.0968 49.7201 72.9347 46.6817 69.052 44.9201ZM49.3333 4.56274C49.3333 4.20912 49.4738 3.86998 49.7239 3.61994C49.9739 3.36989 50.313 3.22941 50.6667 3.22941H56C56.3536 3.22941 56.6928 3.36989 56.9428 3.61994C57.1929 3.86998 57.3333 4.20912 57.3333 4.56274V5.89608H49.3333V4.56274ZM13.3333 11.2294C13.3333 10.5222 13.6143 9.84389 14.1144 9.34379C14.6145 8.8437 15.2928 8.56274 16 8.56274H64C64.7072 8.56274 65.3855 8.8437 65.8856 9.34379C66.3857 9.84389 66.6667 10.5222 66.6667 11.2294C66.6667 11.9367 66.3857 12.6149 65.8856 13.115C65.3855 13.6151 64.7072 13.8961 64 13.8961H16C15.2928 13.8961 14.6145 13.6151 14.1144 13.115C13.6143 12.6149 13.3333 11.9367 13.3333 11.2294ZM64 40.5627C64.7072 40.5627 65.3855 40.8437 65.8856 41.3438C66.3857 41.8439 66.6667 42.5222 66.6667 43.2294C66.663 43.4855 66.6221 43.7397 66.5453 43.9841C64.0846 43.2578 61.4995 43.0527 58.9551 43.3819C56.4106 43.7111 53.9628 44.5674 51.768 45.8961H24.6827C23.5027 43.9707 22.312 42.1627 21.2053 40.5627H64ZM48.2947 48.5627C45.5046 51.2713 43.6365 54.7883 42.9544 58.6165C42.2722 62.4447 42.8106 66.3905 44.4933 69.8961H31.1053C31.6938 68.2341 31.9963 66.4845 32 64.7214C32 60.0294 29.3667 54.0294 26.2587 48.5627H48.2947ZM2.66667 64.7214C2.66667 56.2854 12.872 42.0561 16 37.8961C19.128 42.0561 29.3333 56.2854 29.3333 64.7214C29.3333 68.2576 27.9286 71.649 25.4281 74.1495C22.9276 76.65 19.5362 78.0547 16 78.0547C12.4638 78.0547 9.07239 76.65 6.57191 74.1495C4.07142 71.649 2.66667 68.2576 2.66667 64.7214V64.7214ZM24.8693 77.8961C26.9302 76.5292 28.6465 74.7038 29.884 72.5627H46.036C47.5513 74.7235 49.5048 76.5407 51.7693 77.8961H24.8693ZM61.3333 77.8961C58.1688 77.8961 55.0754 76.9577 52.4442 75.1996C49.813 73.4415 47.7623 70.9426 46.5513 68.019C45.3403 65.0954 45.0234 61.8783 45.6408 58.7746C46.2581 55.6709 47.782 52.82 50.0196 50.5824C52.2573 48.3447 55.1082 46.8209 58.2119 46.2035C61.3156 45.5861 64.5327 45.903 67.4563 47.114C70.3799 48.325 72.8787 50.3758 74.6368 53.007C76.395 55.6381 77.3333 58.7316 77.3333 61.8961C77.3287 66.1381 75.6416 70.2051 72.642 73.2047C69.6424 76.2043 65.5754 77.8915 61.3333 77.8961V77.8961Z" fill="#2B9595"/>
<path d="M61.3334 60.5628C61.0994 60.5626 60.8696 60.5008 60.6671 60.3836C60.4645 60.2664 60.2964 60.098 60.1796 59.8953C60.0627 59.6925 60.0013 59.4626 60.0014 59.2286C60.0016 58.9946 60.0633 58.7648 60.1804 58.5622C60.2975 58.3596 60.4658 58.1914 60.6685 58.0745C60.8712 57.9576 61.1011 57.8961 61.3351 57.8961C61.5691 57.8962 61.7989 57.9578 62.0015 58.0748C62.2042 58.1919 62.3724 58.3601 62.4894 58.5628C62.6718 58.8576 62.9619 59.0698 63.298 59.1543C63.6342 59.2389 63.9901 59.1892 64.2903 59.0158C64.5905 58.8424 64.8113 58.5589 64.906 58.2254C65.0006 57.892 64.9617 57.5347 64.7974 57.2295C64.3147 56.4178 63.5597 55.8036 62.6668 55.4961V55.2295C62.6668 54.8758 62.5263 54.5367 62.2763 54.2866C62.0262 54.0366 61.6871 53.8961 61.3334 53.8961C60.9798 53.8961 60.6407 54.0366 60.3906 54.2866C60.1406 54.5367 60.0001 54.8758 60.0001 55.2295V55.4748C59.1112 55.7879 58.3618 56.4055 57.8846 57.2182C57.4074 58.0309 57.2332 58.9862 57.3929 59.915C57.5526 60.8438 58.0359 61.6861 58.7571 62.2928C59.4783 62.8994 60.391 63.2312 61.3334 63.2295C61.5674 63.2297 61.7972 63.2915 61.9998 63.4087C62.2023 63.5258 62.3705 63.6942 62.4873 63.897C62.6042 64.0997 62.6656 64.3296 62.6655 64.5636C62.6653 64.7976 62.6036 65.0274 62.4865 65.23C62.3694 65.4326 62.2011 65.6008 61.9984 65.7177C61.7957 65.8347 61.5658 65.8962 61.3318 65.8961C61.0978 65.8961 60.868 65.8344 60.6653 65.7174C60.4627 65.6004 60.2944 65.4321 60.1774 65.2295C59.9951 64.9347 59.705 64.7225 59.3688 64.6379C59.0327 64.5533 58.6768 64.603 58.3766 64.7764C58.0764 64.9498 57.8556 65.2333 57.7609 65.5668C57.6662 65.9003 57.7052 66.2575 57.8694 66.5628C58.3529 67.375 59.1088 67.9892 60.0028 68.2961V68.5628C60.0028 68.9164 60.1432 69.2555 60.3933 69.5056C60.6433 69.7556 60.9825 69.8961 61.3361 69.8961C61.6897 69.8961 62.0289 69.7556 62.2789 69.5056C62.529 69.2555 62.6694 68.9164 62.6694 68.5628V68.3175C63.5586 68.0043 64.3081 67.3865 64.7853 66.5735C65.2625 65.7605 65.4365 64.8049 65.2764 63.8759C65.1164 62.9469 64.6326 62.1046 63.9109 61.4982C63.1892 60.8917 62.2761 60.5604 61.3334 60.5628Z" fill="#2B9595"/>
<path d="M58.6667 33.896V20.5627C58.6667 20.2091 58.5262 19.8699 58.2761 19.6199C58.0261 19.3698 57.687 19.2294 57.3333 19.2294C56.9797 19.2294 56.6406 19.3698 56.3905 19.6199C56.1405 19.8699 56 20.2091 56 20.5627V33.896C56 34.2497 56.1405 34.5888 56.3905 34.8388C56.6406 35.0889 56.9797 35.2294 57.3333 35.2294C57.687 35.2294 58.0261 35.0889 58.2761 34.8388C58.5262 34.5888 58.6667 34.2497 58.6667 33.896Z" fill="#2B9595"/>
<path d="M17.3333 73.8961C17.3333 73.5424 17.1928 73.2033 16.9427 72.9533C16.6927 72.7032 16.3535 72.5627 15.9999 72.5627C13.9 72.5812 11.8784 71.7661 10.3787 70.2961C8.87897 68.8261 8.02349 66.8213 7.99992 64.7214C7.99992 64.3678 7.85944 64.0286 7.60939 63.7786C7.35935 63.5285 7.02021 63.3881 6.66659 63.3881C6.31296 63.3881 5.97383 63.5285 5.72378 63.7786C5.47373 64.0286 5.33325 64.3678 5.33325 64.7214C5.35756 67.5283 6.49422 70.211 8.4939 72.1809C10.4936 74.1508 13.193 75.2472 15.9999 75.2294C16.3535 75.2294 16.6927 75.0889 16.9427 74.8389C17.1928 74.5888 17.3333 74.2497 17.3333 73.8961Z" fill="#2B9595"/>
</g>
<defs>
<clipPath id="clip0_231_472">
<rect width="80" height="80" fill="white" transform="translate(0 0.562744)"/>
</clipPath>
</defs>
</svg>
