<svg width="28" height="28" viewBox="0 0 28 28" fill="none" xmlns="http://www.w3.org/2000/svg">
<g clip-path="url(#clip0_631_1242)">
<path d="M19.7969 9.9908V4.78078C20.7517 4.44216 21.4375 3.53035 21.4375 2.46094C21.4375 1.10398 20.3335 0 18.9766 0H2.46094C1.10398 0 0 1.10398 0 2.46094C0 3.53035 0.685836 4.44216 1.64062 4.78078V11.7348C0.685836 12.0735 0 12.9853 0 14.0547C0 15.1241 0.685836 16.0359 1.64062 16.3745V23.2192C0.685836 23.5578 0 24.4696 0 25.5391C0 26.896 1.10398 28 2.46094 28H18.9766C23.9521 28 28 23.9521 28 18.9766C28 14.2775 24.3894 10.4066 19.7969 9.9908ZM2.46094 1.64062H18.9766C19.4289 1.64062 19.7969 2.00862 19.7969 2.46094C19.7969 2.91326 19.4289 3.28125 18.9766 3.28125H2.46094C2.00862 3.28125 1.64062 2.91326 1.64062 2.46094C1.64062 2.00862 2.00862 1.64062 2.46094 1.64062ZM18.1562 4.92188V9.99037C16.5315 10.1357 15.0288 10.708 13.7631 11.5938H3.28125V4.92188H18.1562ZM2.46094 13.2344H11.9789C11.5579 13.7401 11.1933 14.2902 10.8916 14.875H2.46094C2.00862 14.875 1.64062 14.507 1.64062 14.0547C1.64062 13.6024 2.00862 13.2344 2.46094 13.2344ZM10.8916 23.0781H3.28125V16.5156H10.2417C10.0134 17.316 9.89788 18.1443 9.89844 18.9766C9.89844 20.4525 10.2569 21.8468 10.8916 23.0781ZM2.46094 26.3594C2.00862 26.3594 1.64062 25.9914 1.64062 25.5391C1.64062 25.0867 2.00862 24.7188 2.46094 24.7188H11.9789C12.4981 25.3425 13.0981 25.8942 13.7631 26.3594H2.46094ZM18.9766 26.3594C16.6312 26.3594 14.5364 25.2759 13.1722 23.587C13.1174 23.4543 13.0288 23.3383 12.9152 23.2505C12.049 22.0435 11.5391 20.5681 11.5391 18.9766C11.5391 18.0095 11.7277 17.0855 12.0697 16.2383C12.1828 16.1113 12.2533 15.9521 12.2715 15.7831C12.7732 14.7493 13.5107 13.8488 14.414 13.1502C14.5041 13.106 14.5854 13.0457 14.6538 12.9722C15.8729 12.105 17.3656 11.5938 18.9766 11.5938C23.0474 11.5938 26.3594 14.9057 26.3594 18.9766C26.3594 23.0474 23.0474 26.3594 18.9766 26.3594Z" fill="#001E32"/>
<path d="M21.3268 16.2448C20.4997 14.8191 19.6858 13.638 19.6515 13.5885C19.5761 13.4792 19.4752 13.39 19.3577 13.3283C19.2401 13.2666 19.1093 13.2344 18.9766 13.2344C18.8438 13.2344 18.713 13.2666 18.5955 13.3283C18.4779 13.39 18.3771 13.4792 18.3016 13.5885C18.2674 13.638 17.4534 14.8191 16.6264 16.2448C15.4479 18.2763 14.875 19.7065 14.875 20.6172C14.875 22.8788 16.715 24.7188 18.9766 24.7188C21.2382 24.7188 23.0781 22.8788 23.0781 20.6172C23.0781 19.7065 22.5052 18.2763 21.3268 16.2448ZM18.9766 23.0781C17.6196 23.0781 16.5156 21.9741 16.5156 20.6172C16.5156 19.7212 17.7959 17.383 18.9766 15.538C20.1573 17.383 21.4375 19.7212 21.4375 20.6172C21.4375 21.9741 20.3335 23.0781 18.9766 23.0781Z" fill="#64CEB8"/>
</g>
<defs>
<clipPath id="clip0_631_1242">
<rect width="28" height="28" fill="white"/>
</clipPath>
</defs>
</svg>
