<svg width="20" height="20" viewBox="0 0 20 20" fill="none" xmlns="http://www.w3.org/2000/svg">
<g clip-path="url(#clip0_2457_7359)">
<path d="M6.59998 6.2L5.09998 7.6L9.99998 12.4L20 2.4L18.6 1L9.99998 9.6L6.59998 6.2Z" fill="url(#paint0_linear_2457_7359)"/>
<path d="M15.9 9.1C16 9.4 16 9.7 16 10C16 13.9 12.9 17 9 17C5.1 17 2 13.9 2 10C2 6.1 5.1 3 9 3C10.2 3 11.4 3.3 12.5 3.9L13.5 2.2C12.1 1.4 10.6 1 9 1C4 1 0 5 0 10C0 15 4 19 9 19C14 19 18 15 18 10C18 9.6 18 9.3 17.9 8.9L15.9 9.1Z" fill="url(#paint1_linear_2457_7359)"/>
</g>
<defs>
<linearGradient id="paint0_linear_2457_7359" x1="18.1375" y1="3.05833" x2="10.9816" y2="11.8012" gradientUnits="userSpaceOnUse">
<stop stop-color="#2EDDC2"/>
<stop offset="1" stop-color="#2DADA4"/>
</linearGradient>
<linearGradient id="paint1_linear_2457_7359" x1="15.75" y1="4.25" x2="4.25" y2="15" gradientUnits="userSpaceOnUse">
<stop stop-color="#2EDDC2"/>
<stop offset="1" stop-color="#2DADA4"/>
</linearGradient>
<clipPath id="clip0_2457_7359">
<rect width="20" height="20" fill="white"/>
</clipPath>
</defs>
</svg>
