<svg width="20" height="20" viewBox="0 0 20 20" fill="none" xmlns="http://www.w3.org/2000/svg">
<path d="M8.01994 17.8854C11.7695 17.8854 14.8092 14.8457 14.8092 11.0962C14.8092 7.34657 11.7695 4.30693 8.01994 4.30693C4.27035 4.30693 1.23071 7.34657 1.23071 11.0962C1.23071 14.8457 4.27035 17.8854 8.01994 17.8854Z" fill="white" fill-opacity="0.1"/>
<path d="M8.09671 16.3437L8.01059 16.197C6.69521 13.9558 3.19974 9.19977 3.16444 9.152L3.11401 9.0835L4.3049 7.90658L8.07459 10.5388C10.4481 7.45889 12.6624 5.34342 14.1068 4.10808C15.6868 2.75673 16.7153 2.13462 16.7257 2.12865L16.7491 2.11465H18.7692L18.5762 2.2865C13.6136 6.70673 8.23455 16.1015 8.18098 16.1959L8.09671 16.3437Z" fill="#2aa79f"/>
</svg>
