<svg width="28" height="28" viewBox="0 0 28 28" fill="none" xmlns="http://www.w3.org/2000/svg">
<g clip-path="url(#clip0_603_1171)">
<mask id="mask0_603_1171" style="mask-type:luminance" maskUnits="userSpaceOnUse" x="0" y="0" width="28" height="28">
<path d="M28 0H0V28H28V0Z" fill="white"/>
</mask>
<g mask="url(#mask0_603_1171)">
<path d="M2.13 2.02002C3.39617 2.11217 4.598 2.6137 5.55408 3.44891C6.51016 4.28413 7.1686 5.40771 7.43001 6.65002C6.16279 6.56109 4.95929 6.06067 4.00259 5.22491C3.0459 4.38916 2.38836 3.26381 2.13 2.02002ZM1.70001 0.0200195H0.820007C0.60253 0.0200195 0.393953 0.106413 0.240173 0.260193C0.0863935 0.413973 0 0.622519 0 0.839996C0.00264608 2.92113 0.830552 4.91629 2.30214 6.38788C3.77373 7.85947 5.76887 8.68736 7.85001 8.69H8.73001C8.94749 8.69 9.15605 8.60361 9.30983 8.44983C9.46361 8.29605 9.55 8.0875 9.55 7.87003C9.54736 5.78889 8.71945 3.79373 7.24786 2.32214C5.77628 0.850556 3.78115 0.0226656 1.70001 0.0200195Z" fill="#64CEB8"/>
<path d="M18.7903 4.64996C20.5304 4.74037 22.1868 5.4252 23.4827 6.59006C24.7786 7.75492 25.6355 9.32926 25.9102 11.05C24.1701 10.9596 22.5137 10.2747 21.2178 9.10983C19.9219 7.94497 19.065 6.37067 18.7903 4.64996ZM18.4003 2.64996H17.5202C17.4122 2.64862 17.305 2.66889 17.2049 2.70963C17.1048 2.75036 17.0138 2.81073 16.9374 2.88715C16.861 2.96356 16.8007 3.05448 16.7599 3.15457C16.7192 3.25467 16.6989 3.36189 16.7003 3.46994C16.7055 6.0144 17.7187 8.45315 19.5179 10.2524C21.3171 12.0516 23.7558 13.0647 26.3002 13.0699H27.1803C27.2883 13.0713 27.3955 13.051 27.4956 13.0103C27.5957 12.9695 27.6867 12.9092 27.7631 12.8328C27.8395 12.7564 27.8998 12.6654 27.9406 12.5653C27.9813 12.4652 28.0016 12.358 28.0002 12.2499C27.995 9.70549 26.9818 7.26677 25.1826 5.46756C23.3834 3.66836 20.9447 2.65525 18.4003 2.64996Z" fill="#64CEB8"/>
<path d="M14.0002 8.67014C13.7827 8.67014 13.5741 8.58374 13.4203 8.42996C13.2666 8.27618 13.1802 8.06761 13.1802 7.85013V5.21014C13.1802 4.99267 13.2666 4.78409 13.4203 4.63031C13.5741 4.47653 13.7827 4.39014 14.0002 4.39014C14.2176 4.39014 14.4262 4.47653 14.58 4.63031C14.7338 4.78409 14.8202 4.99267 14.8202 5.21014V7.85013C14.8202 8.06761 14.7338 8.27618 14.58 8.42996C14.4262 8.58374 14.2176 8.67014 14.0002 8.67014Z" fill="#001E32"/>
<path d="M4.47991 9.9701C4.43189 9.8736 4.40336 9.76859 4.39597 9.66105C4.38858 9.55351 4.40247 9.44556 4.43684 9.34339C4.4712 9.24122 4.52537 9.14683 4.59624 9.06562C4.66712 8.98441 4.75333 8.91799 4.84991 8.87012L22.4199 0.0900956C22.5164 0.0333576 22.6236 -0.00299881 22.7347 -0.0167464C22.8458 -0.0304941 22.9586 -0.0213323 23.0661 0.0101701C23.1735 0.0416725 23.2734 0.0948457 23.3595 0.16642C23.4456 0.237994 23.5162 0.326457 23.5668 0.426338C23.6174 0.52622 23.647 0.635429 23.6539 0.7472C23.6607 0.858972 23.6445 0.970951 23.6064 1.07624C23.5683 1.18153 23.509 1.27788 23.4322 1.35938C23.3554 1.44088 23.2627 1.5058 23.1599 1.55012L5.5799 10.3401C5.4834 10.3881 5.37837 10.4167 5.27083 10.424C5.1633 10.4314 5.05536 10.4176 4.95319 10.3832C4.85103 10.3488 4.75663 10.2946 4.67542 10.2238C4.59421 10.1529 4.52778 10.0667 4.47991 9.9701Z" fill="#001E32"/>
<path d="M13.9998 9.48007L16.9298 12.4801C17.5953 13.145 18.1232 13.9346 18.4834 14.8037C18.8436 15.6728 19.029 16.6043 19.029 17.5451C19.029 18.4858 18.8436 19.4174 18.4834 20.2865C18.1232 21.1556 17.5953 21.9451 16.9298 22.6101L13.9998 25.4801L11.0698 22.5501C9.74954 21.203 9.01504 19.3888 9.02628 17.5027C9.03751 15.6166 9.79358 13.8113 11.1298 12.4801L14.0498 9.55008M14.0498 7.06006C13.9421 7.06001 13.8354 7.0812 13.7359 7.12238C13.6364 7.16356 13.546 7.22395 13.4698 7.30008L9.70979 11.0601C8.85233 11.9115 8.1718 12.9241 7.7074 14.0397C7.243 15.1553 7.00391 16.3517 7.00391 17.5601C7.00391 18.7684 7.243 19.9649 7.7074 21.0804C8.1718 22.196 8.85233 23.2086 9.70979 24.0601L13.4698 27.8201C13.5459 27.8963 13.6364 27.9567 13.7359 27.998C13.8354 28.0392 13.9421 28.0604 14.0498 28.0604C14.1575 28.0604 14.2642 28.0392 14.3637 27.998C14.4632 27.9567 14.5536 27.8963 14.6298 27.8201L18.3898 24.0601C19.2473 23.2086 19.9278 22.196 20.3922 21.0804C20.8566 19.9649 21.0957 18.7684 21.0957 17.5601C21.0957 16.3517 20.8566 15.1553 20.3922 14.0397C19.9278 12.9241 19.2473 11.9115 18.3898 11.0601L14.6298 7.30008C14.5536 7.22395 14.4632 7.16356 14.3637 7.12238C14.2641 7.0812 14.1575 7.06001 14.0498 7.06006Z" fill="#001E32"/>
</g>
</g>
<defs>
<clipPath id="clip0_603_1171">
<rect width="28" height="28" fill="white"/>
</clipPath>
</defs>
</svg>
