<svg width="28" height="28" viewBox="0 0 28 28" fill="none" xmlns="http://www.w3.org/2000/svg">
<g clip-path="url(#clip0_603_1190)">
<path d="M22.0215 0.507991C21.6739 1.0072 21.3262 1.52424 21.0142 2.05018L20.7646 2.41568C19.8254 4.00562 19.3326 5.8196 19.3383 7.66625C19.3383 8.94991 19.4364 10.2068 19.3383 11.4637C19.3048 11.9952 19.2273 12.523 19.1065 13.0416C19.0346 13.3446 18.9423 13.6424 18.8302 13.933C18.5594 13.4703 18.2618 13.0238 17.9388 12.5959C17.7872 12.3909 17.6357 12.1947 17.4663 12.0075C17.4663 11.8203 17.5287 11.6242 17.5465 11.4281C17.5866 10.7809 17.5866 10.1319 17.5465 9.48476C17.4499 8.29814 17.4499 7.10563 17.5465 5.91901C17.7615 4.46787 18.242 3.06874 18.9639 1.79166C19.2864 1.17758 19.6436 0.582328 20.0336 0.00878906C20.7179 0.0725864 21.3883 0.240943 22.0215 0.507991Z" fill="#64CEB8"/>
<path d="M26.6039 6.8015C26.4497 5.52123 25.9893 4.29695 25.2615 3.23244C24.5337 2.16792 23.5601 1.29452 22.423 0.686234L22.0219 0.507936C21.4262 0.265064 20.7988 0.108966 20.1588 0.0443994C18.3765 -0.116841 16.5875 0.272054 15.033 1.15869C13.0349 2.26946 11.344 3.85927 10.1123 5.78525C9.73555 6.35543 9.39895 6.95116 9.10498 7.56812H9.34567C9.91025 7.57299 10.4725 7.64178 11.0216 7.77316C11.3204 7.21971 11.6601 6.68932 12.0378 6.18641C13.0492 4.77489 14.3615 3.60568 15.8799 2.76329C16.863 2.2076 17.9614 1.8872 19.0891 1.82727C19.7415 1.79035 20.395 1.87809 21.0146 2.0858C21.2285 2.14976 21.4371 2.23022 21.6386 2.32647C22.687 2.85644 23.5372 3.7097 24.0633 4.7601C24.446 5.5075 24.7077 6.31084 24.8388 7.14022C25.0479 8.38546 25.0479 9.65685 24.8388 10.9021C24.602 12.2411 24.1789 13.5403 23.5819 14.762C23.1629 15.6294 22.655 16.4509 22.0665 17.2135C21.6132 17.8141 21.1059 18.3721 20.551 18.8804C20.5967 19.2292 20.6205 19.5806 20.6223 19.9323C20.6323 20.3528 20.6055 20.7734 20.5421 21.1893C21.2053 20.7056 21.8257 20.1658 22.3963 19.5758L22.5478 19.3529C23.5966 18.2099 24.4707 16.9182 25.1419 15.5197C26.5212 12.8355 27.032 9.78886 26.6039 6.8015Z" fill="#001E32"/>
<path d="M18.3311 27.26C18.1561 27.4299 17.9241 27.5284 17.6804 27.5364C17.4803 27.557 17.2795 27.5041 17.1155 27.3877C16.9515 27.2712 16.8354 27.0991 16.7889 26.9035C16.7087 26.6004 16.6285 26.3062 16.5571 26.012C16.1382 24.1757 15.9064 22.2947 15.3359 20.503C14.8329 18.8154 13.7459 17.3618 12.2693 16.4023C10.7182 15.395 8.91754 14.8334 7.4021 13.728C6.21716 12.8632 5.20179 11.7874 4.40688 10.5545C4.02287 9.98056 3.67168 9.38532 3.35498 8.77165C3.71168 8.23675 4.14067 7.75376 4.62973 7.33643C4.91499 7.8802 5.20917 8.42399 5.52117 8.94103L5.76185 9.33326C6.73512 10.9402 8.13231 12.248 9.80006 13.1129C11.4489 13.8167 13.0081 14.7145 14.4444 15.7872C17.2168 18.1941 17.5021 21.8579 18.2509 25.2365C18.34 25.6465 18.4381 26.0477 18.545 26.4399C18.5917 26.5828 18.5963 26.736 18.5584 26.8813C18.5204 27.0267 18.4416 27.1582 18.3311 27.26Z" fill="#64CEB8"/>
<path d="M21.5939 15.6359C21.069 14.1784 20.3332 12.8059 19.4099 11.562C17.6726 9.09328 15.212 7.22447 12.3676 6.21343C11.1603 5.76002 9.86157 5.60429 8.58136 5.75947C7.30114 5.91465 6.0772 6.37615 5.01323 7.10486L4.66557 7.37228C4.17651 7.78962 3.74752 8.27261 3.39082 8.80751C2.43521 10.3181 1.96543 12.0852 2.04475 13.8709C2.20271 16.8703 3.23465 19.758 5.01342 22.1783C6.79219 24.5986 9.2401 26.4457 12.0556 27.492C13.0329 27.8196 14.0557 27.9911 15.0865 28.0001C15.9988 28.0118 16.9055 27.8547 17.7608 27.5366C17.9836 27.4563 18.2065 27.3583 18.4115 27.2602C18.7712 27.0833 19.1143 26.8745 19.4367 26.6362C20.4494 25.8384 21.2534 24.8067 21.7797 23.6298C22.3061 22.4529 22.539 21.1659 22.4586 19.8791C22.4053 18.4268 22.1131 16.9932 21.5939 15.6359ZM18.3045 25.1921H18.2511C17.7513 25.5513 17.189 25.8143 16.593 25.9677C15.2588 26.2958 13.8576 26.2245 12.5637 25.7626C10.1152 24.8297 7.98828 23.2094 6.43852 21.0967C4.88876 18.984 3.98214 16.4686 3.82762 13.853C3.79188 12.7233 4.01763 11.6006 4.48728 10.5725C4.76161 9.97944 5.1423 9.44165 5.61049 8.98578C5.76925 8.82827 5.93906 8.68231 6.11861 8.54899C7.07258 7.86947 8.2191 7.51332 9.39018 7.53274C10.2301 7.54227 11.0634 7.68365 11.8595 7.95171C13.0605 8.35396 14.1848 8.95678 15.1845 9.73458C16.2598 10.5669 17.2139 11.545 18.0193 12.6407C19.6244 14.7359 20.54 17.2773 20.6401 19.9148C20.7044 20.9175 20.5257 21.9209 20.119 22.8397C19.7124 23.7584 19.0899 24.5655 18.3045 25.1921Z" fill="#001E32"/>
</g>
<defs>
<clipPath id="clip0_603_1190">
<rect width="24.773" height="28" fill="white" transform="translate(2)"/>
</clipPath>
</defs>
</svg>
