<svg width="28" height="28" viewBox="0 0 28 28" fill="none" xmlns="http://www.w3.org/2000/svg">
<path d="M8.70191 9.98375H6.35254C6.17849 9.98375 6.01157 9.91461 5.8885 9.79154C5.76543 9.66847 5.69629 9.50155 5.69629 9.3275C5.69629 9.15345 5.76543 8.98653 5.8885 8.86346C6.01157 8.74039 6.17849 8.67125 6.35254 8.67125H8.50066C9.01691 8.33437 10.4957 7.51187 12.11 7.84C12.1946 7.85768 12.2748 7.89188 12.346 7.94062C12.4173 7.98936 12.4783 8.05169 12.5254 8.12403C12.5726 8.19638 12.605 8.27732 12.6208 8.36221C12.6366 8.4471 12.6355 8.53428 12.6175 8.61875C12.6004 8.70309 12.5666 8.7832 12.5183 8.85445C12.47 8.9257 12.4081 8.98667 12.3361 9.03385C12.2641 9.08104 12.1835 9.11349 12.0989 9.12935C12.0143 9.14521 11.9274 9.14416 11.8432 9.12625C10.4694 8.84625 9.11316 9.84375 9.09566 9.8525C8.98207 9.93769 8.84391 9.98375 8.70191 9.98375ZM11.375 21.9844C11.1985 21.9849 11.0224 21.9659 10.85 21.9275C10.6032 21.8688 10.3707 21.7611 10.1662 21.6108C9.96183 21.4604 9.78968 21.2706 9.66004 21.0525C9.03879 20.0244 8.03691 18.3837 7.62129 17.7056H6.35254C6.17849 17.7056 6.01157 17.6365 5.8885 17.5134C5.76543 17.3903 5.69629 17.2234 5.69629 17.0494C5.69629 16.8753 5.76543 16.7084 5.8885 16.5853C6.01157 16.4623 6.17849 16.3931 6.35254 16.3931H7.97129C8.08331 16.3932 8.19348 16.4217 8.29144 16.476C8.3894 16.5304 8.47194 16.6087 8.53129 16.7037C8.53129 16.7037 9.96191 19.0444 10.7669 20.37C10.8045 20.4421 10.8571 20.5052 10.9213 20.555C10.9855 20.6048 11.0597 20.6402 11.1388 20.6587C11.4346 20.7022 11.7367 20.666 12.0138 20.5537C11.55 19.6787 11.1388 18.9262 11.1388 18.9175C11.0994 18.8408 11.0756 18.7571 11.0686 18.6712C11.0616 18.5853 11.0715 18.4988 11.0979 18.4167C11.1244 18.3347 11.1667 18.2586 11.2225 18.1929C11.2783 18.1272 11.3465 18.0731 11.4232 18.0337C11.4999 17.9944 11.5836 17.9705 11.6695 17.9635C11.7554 17.9565 11.8419 17.9665 11.9239 17.9929C12.006 18.0193 12.0821 18.0616 12.1478 18.1174C12.2135 18.1732 12.2676 18.2414 12.3069 18.3181C12.3069 18.3181 12.9019 19.4731 13.4838 20.5362C13.5638 20.6842 13.5844 20.8571 13.5413 21.0197C13.4982 21.1823 13.3947 21.3223 13.2519 21.4112C12.6818 21.7513 12.0378 21.9479 11.375 21.9844Z" fill="#001E32"/>
<path d="M19.0223 20.7725H18.8692C18.5323 20.7496 18.2078 20.6369 17.9293 20.4461C17.6508 20.2552 17.4284 19.9933 17.2854 19.6875C16.8479 18.7644 15.7804 16.7213 15.7717 16.7038C15.7317 16.6273 15.7073 16.5438 15.6996 16.4579C15.692 16.3721 15.7013 16.2855 15.7271 16.2032C15.7529 16.121 15.7946 16.0446 15.85 15.9785C15.9053 15.9123 15.9731 15.8577 16.0495 15.8178C16.1259 15.7779 16.2094 15.7534 16.2953 15.7457C16.3812 15.7381 16.4677 15.7474 16.55 15.7732C16.6323 15.799 16.7086 15.8408 16.7748 15.8961C16.8409 15.9514 16.8955 16.0192 16.9354 16.0956C16.9792 16.1788 18.0248 18.1781 18.471 19.1275C18.5155 19.2219 18.5852 19.3021 18.6725 19.3593C18.7597 19.4164 18.8611 19.4482 18.9654 19.4513C19.0839 19.4645 19.2037 19.4468 19.3133 19.4001C19.4229 19.3533 19.5186 19.279 19.591 19.1844C19.6525 19.0496 19.6787 18.9014 19.6672 18.7537C19.6557 18.606 19.6069 18.4637 19.5254 18.34C18.8079 16.9006 16.546 12.1713 15.9248 10.8588C15.9152 10.8326 15.9003 10.8088 15.881 10.7888C15.7454 10.7275 15.2729 10.7888 13.6935 12.0575C13.5448 12.1756 13.4135 12.2806 13.3042 12.3594C12.1579 13.2344 10.3904 13.4313 9.36667 12.1406C9.26022 12.0049 9.18374 11.8482 9.14226 11.6808C9.10079 11.5134 9.09526 11.3391 9.12605 11.1694C9.38855 9.3275 13.501 6.40938 13.536 6.37875C14.1566 5.96123 14.8755 5.7133 15.6215 5.65957C16.3675 5.60585 17.1146 5.74821 17.7885 6.0725C18.7598 6.51 21.6867 8.55313 22.0192 8.785C22.1619 8.88537 22.2589 9.03832 22.2888 9.21021C22.3188 9.3821 22.2792 9.55884 22.1789 9.70156C22.0785 9.84428 21.9255 9.94129 21.7537 9.97123C21.5818 10.0012 21.405 9.96162 21.2623 9.86125C19.972 8.92943 18.6344 8.06495 17.2548 7.27125C16.7864 7.0477 16.2688 6.94688 15.7507 6.97826C15.2326 7.00964 14.731 7.17218 14.2929 7.45063C12.3592 8.81563 10.4385 10.7581 10.421 11.3531C10.9985 12.0356 12.0135 11.6944 12.521 11.3094C12.626 11.235 12.7442 11.1388 12.8798 11.0338C14.0523 10.1019 15.1854 9.28375 16.1654 9.51125C16.3724 9.55966 16.5651 9.6562 16.7277 9.79303C16.8904 9.92986 17.0185 10.1031 17.1017 10.2988C17.7229 11.6113 19.9804 16.3188 20.6935 17.7363C20.8941 18.061 21.0004 18.4352 21.0004 18.8169C21.0004 19.1986 20.8941 19.5728 20.6935 19.8975C20.5082 20.1693 20.2588 20.3914 19.9673 20.544C19.6759 20.6966 19.3513 20.7751 19.0223 20.7725Z" fill="#001E32"/>
<path d="M14.0003 21.8312C13.4905 21.8228 12.9932 21.6712 12.5653 21.3937C12.422 21.2945 12.324 21.1425 12.2928 20.971C12.2617 20.7995 12.2999 20.6227 12.3991 20.4794C12.4983 20.3361 12.6504 20.2381 12.8218 20.2069C12.9933 20.1757 13.1702 20.2139 13.3135 20.3131C13.5712 20.4839 13.882 20.5554 14.1885 20.5144C14.3599 20.4713 14.5131 20.3748 14.626 20.2387L13.3703 17.8062C13.2908 17.6513 13.2762 17.4712 13.3295 17.3055C13.3828 17.1397 13.4998 17.002 13.6547 16.9225C13.8096 16.843 13.9897 16.8283 14.1555 16.8817C14.3212 16.935 14.459 17.052 14.5385 17.2069L15.9735 19.9937C16.0271 20.0909 16.0552 20.2 16.0552 20.3109C16.0552 20.4219 16.0271 20.531 15.9735 20.6281C15.8158 20.9199 15.597 21.1742 15.332 21.3736C15.0669 21.5729 14.7619 21.7126 14.4378 21.7831C14.2942 21.815 14.1475 21.8311 14.0003 21.8312Z" fill="#001E32"/>
<path d="M16.3971 21.2581C15.8866 21.2633 15.3869 21.1105 14.9665 20.8206C14.8244 20.7168 14.7293 20.5607 14.7022 20.3868C14.6752 20.2128 14.7183 20.0353 14.8221 19.8931C14.926 19.751 15.082 19.6559 15.256 19.6288C15.4299 19.6018 15.6075 19.6449 15.7496 19.7488C15.9028 19.8538 16.6903 20.3219 17.609 19.3113C17.725 19.1813 17.888 19.1028 18.0619 19.0929C18.2358 19.0831 18.4066 19.1427 18.5365 19.2588C18.6665 19.3748 18.745 19.5377 18.7549 19.7116C18.7647 19.8856 18.705 20.0563 18.589 20.1863C18.3236 20.5136 17.99 20.7791 17.6115 20.9643C17.2329 21.1494 16.8185 21.2497 16.3971 21.2581ZM20.1465 18.1563H19.8271C19.6531 18.147 19.4899 18.0689 19.3734 17.9393C19.2568 17.8097 19.1966 17.6391 19.2059 17.465C19.2152 17.291 19.2932 17.1277 19.4229 17.0112C19.5525 16.8947 19.7231 16.8345 19.8971 16.8438C20.4256 16.8707 20.9552 16.8176 21.4678 16.6863C21.626 16.6605 21.7882 16.6936 21.9237 16.7792C22.0592 16.8648 22.1587 16.9971 22.2034 17.1511C22.2481 17.305 22.2349 17.47 22.1662 17.6149C22.0976 17.7598 21.9783 17.8745 21.8309 17.9375C21.2808 18.0807 20.7149 18.1542 20.1465 18.1563Z" fill="#001E32"/>
<path d="M6.35222 19.1406H1.91159C1.74841 19.1402 1.59122 19.0791 1.47069 18.9691C1.35017 18.8591 1.27495 18.7081 1.25972 18.5456L0.371594 8.75C0.363726 8.65895 0.374833 8.56726 0.404215 8.48072C0.433596 8.39419 0.480612 8.31469 0.54229 8.24726C0.603968 8.17982 0.678966 8.12592 0.762543 8.08895C0.84612 8.05198 0.936457 8.03276 1.02784 8.0325H6.35222C6.52627 8.0325 6.69319 8.10164 6.81626 8.22471C6.93933 8.34778 7.00847 8.5147 7.00847 8.68875V18.4844C7.00847 18.6584 6.93933 18.8253 6.81626 18.9484C6.69319 19.0715 6.52627 19.1406 6.35222 19.1406ZM2.51097 17.8281H5.68722V9.32312H1.74972L2.51097 17.8281ZM26.0878 19.1406H21.6472C21.4732 19.1406 21.3063 19.0715 21.1832 18.9484C21.0601 18.8253 20.991 18.6584 20.991 18.4844V8.66687C20.991 8.49282 21.0601 8.3259 21.1832 8.20283C21.3063 8.07976 21.4732 8.01062 21.6472 8.01062H26.9716C27.065 8.01057 27.1574 8.03034 27.2426 8.06863C27.3279 8.10691 27.404 8.16284 27.466 8.23271C27.528 8.30259 27.5745 8.38483 27.6024 8.47399C27.6303 8.56316 27.639 8.65723 27.6278 8.75L26.7528 18.5675C26.7324 18.7283 26.6531 18.8758 26.5303 18.9816C26.4075 19.0874 26.2499 19.1441 26.0878 19.1406ZM22.3035 17.8281H25.4885L26.2497 9.32312H22.3122L22.3035 17.8281Z" fill="#64CEB8"/>
</svg>
