<svg width="28" height="29" viewBox="0 0 28 29" fill="none" xmlns="http://www.w3.org/2000/svg">
<g clip-path="url(#clip0_610_1165)">
<path d="M26.82 12.5598C26.5548 12.5598 26.3004 12.6652 26.1129 12.8527C25.9254 13.0402 25.82 13.2946 25.82 13.5598V22.1398C25.82 23.3253 25.3491 24.4623 24.5108 25.3006C23.6725 26.1389 22.5355 26.6098 21.35 26.6098H6.47C5.28448 26.6098 4.14752 26.1389 3.30923 25.3006C2.47095 24.4623 2 23.3253 2 22.1398V7.26981C2 6.08429 2.47095 4.94733 3.30923 4.10904C4.14752 3.27075 5.28448 2.7998 6.47 2.7998H11.67C11.9352 2.7998 12.1896 2.69443 12.3771 2.5069C12.5646 2.31936 12.67 2.06502 12.67 1.7998C12.67 1.53459 12.5646 1.28022 12.3771 1.09268C12.1896 0.905146 11.9352 0.799805 11.67 0.799805H6.47C4.75486 0.802449 3.11074 1.48497 1.89795 2.69775C0.685162 3.91054 0.00264478 5.55467 0 7.26981V22.1398C0.00264478 23.8549 0.685162 25.4991 1.89795 26.7119C3.11074 27.9246 4.75486 28.6072 6.47 28.6098H21.35C23.0651 28.6072 24.7093 27.9246 25.9221 26.7119C27.1348 25.4991 27.8174 23.8549 27.82 22.1398V13.5598C27.82 13.2946 27.7147 13.0402 27.5271 12.8527C27.3396 12.6652 27.0852 12.5598 26.82 12.5598Z" fill="#001E32"/>
<path d="M24.8802 0.800021C24.4548 0.739401 24.0213 0.770879 23.6091 0.892337C23.1969 1.01379 22.8156 1.22239 22.491 1.504C22.1664 1.78562 21.9061 2.13368 21.7277 2.52463C21.5493 2.91558 21.457 3.3403 21.457 3.77002C21.457 4.19975 21.5493 4.62447 21.7277 5.01541C21.9061 5.40636 22.1664 5.7544 22.491 6.03601C22.8156 6.31763 23.1969 6.52625 23.6091 6.64771C24.0213 6.76917 24.4548 6.80064 24.8802 6.74002C25.221 6.74318 25.5596 6.6856 25.8802 6.57001V7.07001C25.8681 7.31805 25.7641 7.5527 25.5885 7.7283C25.4129 7.90391 25.1783 8.0079 24.9302 8.02002C24.479 7.98896 24.0394 7.86287 23.6402 7.65003C23.5247 7.58437 23.3973 7.54211 23.2654 7.52567C23.1335 7.50923 22.9997 7.51892 22.8715 7.5542C22.7434 7.58949 22.6234 7.64969 22.5186 7.73133C22.4137 7.81297 22.3259 7.91447 22.2602 8.03003C22.1946 8.1456 22.1523 8.27295 22.1359 8.40485C22.1194 8.53674 22.1291 8.67056 22.1644 8.79871C22.1997 8.92685 22.2599 9.04679 22.3415 9.15168C22.4232 9.25656 22.5247 9.34435 22.6402 9.41001C23.3345 9.78068 24.1038 9.98925 24.8902 10.02C25.6686 10.0072 26.4115 9.69222 26.962 9.14176C27.5124 8.59129 27.8274 7.84838 27.8402 7.07001V3.73001C27.8222 2.95343 27.5036 2.21414 26.9515 1.66767C26.3995 1.1212 25.657 0.810168 24.8802 0.800021ZM24.8802 4.74002C24.6825 4.74002 24.4891 4.68136 24.3247 4.57148C24.1602 4.46159 24.032 4.30544 23.9564 4.12271C23.8807 3.93999 23.8609 3.73891 23.8994 3.54492C23.938 3.35094 24.0333 3.17275 24.1731 3.0329C24.313 2.89305 24.4912 2.7978 24.6852 2.75922C24.8791 2.72063 25.0802 2.74045 25.2629 2.81613C25.4457 2.89182 25.6018 3.02 25.7117 3.18445C25.8216 3.3489 25.8802 3.54224 25.8802 3.74002C25.8802 4.00524 25.7749 4.25958 25.5873 4.44712C25.3998 4.63465 25.1455 4.74002 24.8802 4.74002Z" fill="#64CEB8"/>
<path d="M20.4301 9.01984C20.4301 9.28505 20.3247 9.53939 20.1372 9.72693C19.9496 9.91446 19.6953 10.0198 19.4301 10.0198H16.7501C16.3584 10.042 15.9689 9.94844 15.63 9.75089C15.2911 9.55333 15.0178 9.26047 14.844 8.90875C14.6703 8.55703 14.6038 8.16197 14.6529 7.77277C14.702 7.38356 14.8645 7.01739 15.1201 6.71982C15.7435 5.97154 16.508 5.35317 17.3701 4.89984C18.1001 4.45984 18.5401 4.16984 18.5401 3.89984C18.5457 3.62537 18.4446 3.3594 18.2581 3.15796C18.0716 2.95652 17.8142 2.83531 17.5401 2.81982C17.1851 2.82341 16.8384 2.92744 16.5401 3.11984C16.3261 3.27372 16.0601 3.33691 15.7998 3.29572C15.5395 3.25452 15.306 3.11227 15.1501 2.89984C14.9941 2.68835 14.9276 2.42394 14.965 2.16382C15.0025 1.9037 15.1408 1.66876 15.3501 1.50983C15.9842 1.06764 16.737 0.827153 17.5101 0.819824C17.9109 0.819682 18.3076 0.899861 18.6769 1.0556C19.0462 1.21135 19.3805 1.43949 19.6602 1.72659C19.9398 2.0137 20.1591 2.35394 20.3051 2.7272C20.4511 3.10046 20.5208 3.4992 20.5101 3.89984C20.5101 5.33984 19.3201 6.05982 18.3601 6.62982C17.723 6.9618 17.1533 7.40942 16.6801 7.94983C16.6709 7.97571 16.6709 8.00396 16.6801 8.02985H19.4401C19.7018 8.03245 19.9521 8.13756 20.1372 8.32266C20.3223 8.50776 20.4275 8.75808 20.4301 9.01984Z" fill="#64CEB8"/>
<path d="M18.2802 24.2396H17.8802C17.4736 24.2383 17.0712 24.1568 16.6961 23.9996C16.3211 23.8425 15.9807 23.6129 15.6946 23.324C15.4085 23.0351 15.1822 22.6925 15.0287 22.316C14.8752 21.9394 14.7976 21.5362 14.8002 21.1296V15.5796C14.8002 15.3144 14.9056 15.06 15.0931 14.8725C15.2806 14.685 15.535 14.5796 15.8002 14.5796C16.0654 14.5796 16.3198 14.685 16.5073 14.8725C16.6948 15.06 16.8002 15.3144 16.8002 15.5796V21.1396C16.8001 21.4279 16.9133 21.7047 17.1153 21.9105C17.3173 22.1162 17.5919 22.2344 17.8802 22.2396H18.3102C18.4542 22.2383 18.5965 22.2085 18.7289 22.1519C18.8613 22.0953 18.9812 22.013 19.0816 21.9098C19.182 21.8066 19.261 21.6845 19.314 21.5506C19.3669 21.4167 19.3928 21.2736 19.3902 21.1296V15.5796C19.3902 15.3144 19.4955 15.06 19.6831 14.8725C19.8706 14.685 20.125 14.5796 20.3902 14.5796C20.6554 14.5796 20.9098 14.685 21.0973 14.8725C21.2848 15.06 21.3902 15.3144 21.3902 15.5796V21.1396C21.3915 21.5479 21.3119 21.9525 21.156 22.3298C21 22.7072 20.7708 23.0499 20.4817 23.3382C20.1925 23.6264 19.849 23.8545 19.4712 24.0092C19.0933 24.164 18.6885 24.2423 18.2802 24.2396ZM8.69019 24.1296C7.59004 24.1458 6.52788 23.7275 5.73412 22.9656C4.94037 22.2037 4.47904 21.1595 4.4502 20.0596V15.2896C4.44792 14.185 4.88293 13.1245 5.6602 12.3396C6.06142 11.9375 6.53853 11.619 7.06382 11.4027C7.58911 11.1864 8.15212 11.0766 8.72019 11.0796C9.68209 11.0644 10.62 11.3799 11.3773 11.9732C12.1345 12.5666 12.665 13.402 12.8802 14.3396C12.9065 14.471 12.9066 14.6061 12.8806 14.7375C12.8546 14.8689 12.803 14.9939 12.7287 15.1053C12.6544 15.2168 12.5589 15.3124 12.4477 15.387C12.3364 15.4615 12.2115 15.5134 12.0802 15.5396C11.9489 15.5659 11.8137 15.566 11.6823 15.54C11.5509 15.5141 11.4259 15.4624 11.3145 15.3882C11.2031 15.3139 11.1074 15.2184 11.0329 15.1071C10.9583 14.9958 10.9065 14.871 10.8802 14.7396C10.7591 14.2528 10.4745 13.8223 10.0741 13.5202C9.67361 13.218 9.18156 13.0625 8.6802 13.0796C8.37444 13.076 8.07103 13.1334 7.78771 13.2485C7.5044 13.3635 7.24687 13.5339 7.03019 13.7496C6.82813 13.9516 6.66836 14.1918 6.56019 14.4562C6.45202 14.7206 6.39763 15.0039 6.4002 15.2896V20.0596C6.41304 20.346 6.48223 20.627 6.60381 20.8866C6.7254 21.1462 6.89699 21.3793 7.10877 21.5725C7.32055 21.7657 7.56836 21.9153 7.83801 22.0126C8.10765 22.1099 8.39385 22.1531 8.6802 22.1396C9.19551 22.1443 9.69785 21.978 10.1086 21.6668C10.5193 21.3556 10.8153 20.917 10.9502 20.4196C11.0032 20.1544 11.1595 19.9211 11.3845 19.7711C11.6096 19.6211 11.885 19.5666 12.1502 19.6196C12.4154 19.6727 12.6487 19.8289 12.7987 20.0539C12.9488 20.279 13.0032 20.5544 12.9502 20.8196C12.723 21.7747 12.1773 22.6239 11.403 23.2274C10.6286 23.8309 9.67184 24.1526 8.69019 24.1396V24.1296Z" fill="#64CEB8"/>
</g>
<defs>
<clipPath id="clip0_610_1165">
<rect width="27.82" height="27.81" fill="white" transform="translate(0 0.799805)"/>
</clipPath>
</defs>
</svg>
