<svg width="28" height="28" viewBox="0 0 28 28" fill="none" xmlns="http://www.w3.org/2000/svg">
<g clip-path="url(#clip0_603_1202)">
<path d="M22.21 14.8198C20.4401 14.8132 18.7052 15.3128 17.21 16.2598C17.21 16.0598 17.21 15.8498 17.21 15.6398C17.0999 13.0585 16.1719 10.579 14.56 8.55978L13.93 7.7998L13.3 8.55978C11.6923 10.5814 10.7648 13.0594 10.65 15.6398C10.65 15.8498 10.65 16.0598 10.65 16.2598C9.17331 15.3207 7.45992 14.8213 5.70996 14.8198H4.70996L5.00996 16.0398C5.32736 17.3206 5.91746 18.5179 6.73996 19.5498L6.80996 19.6398L6.87996 19.7198C7.40218 20.3527 8.01159 20.9082 8.68996 21.3698C9.22927 21.7417 9.80569 22.0567 10.41 22.3098L10.82 22.4698L11.28 22.6298C11.8901 22.8102 12.5164 22.9307 13.15 22.9898V27.9898H14.79V22.9898C16.1592 22.8693 17.4846 22.4457 18.67 21.7498C18.81 21.6698 19.02 21.5398 19.26 21.3698C19.9283 20.8993 20.5333 20.3448 21.06 19.7198L21.38 19.3198C21.5815 19.0466 21.7685 18.7628 21.94 18.4698C22.3913 17.7135 22.7283 16.8947 22.94 16.0398L23.25 14.8198H22.21ZM6.92996 16.5498C8.63693 16.8123 10.2051 17.644 11.38 18.9098L13.65 21.3798C12.1822 21.3126 10.7657 20.8203 9.57264 19.9628C8.37959 19.1053 7.46146 17.9195 6.92996 16.5498ZM13.78 21.3798L12.78 18.1098C12.522 17.3116 12.3871 16.4787 12.38 15.6398C12.4517 13.8128 13.0186 12.0396 14.02 10.5098C15.0213 12.0396 15.5882 13.8128 15.66 15.6398C15.6528 16.4787 15.5179 17.3116 15.26 18.1098L14.26 21.3798H13.78ZM14.35 21.3798L16.63 18.9098C17.8008 17.644 19.3658 16.8122 21.07 16.5498C20.5357 17.9256 19.6115 19.1155 18.4106 19.9734C17.2098 20.8314 15.7846 21.3202 14.31 21.3798H14.35Z" fill="#001E32"/>
<path d="M27.9998 14.0001C28.0004 14.9736 27.807 15.9375 27.431 16.8354C27.055 17.7334 26.5039 18.5475 25.8098 19.2301C24.4172 20.6142 22.5333 21.3908 20.5698 21.3901H19.2898C19.9582 20.9197 20.5631 20.3651 21.0898 19.7401C22.5241 19.6177 23.8606 18.9626 24.836 17.9039C25.8114 16.8452 26.3551 15.4597 26.3598 14.0201C26.3313 12.4981 25.7105 11.0471 24.6295 9.97537C23.5484 8.90361 22.0921 8.29547 20.5698 8.28012C19.7917 8.28445 19.0226 8.4478 18.3098 8.76013L17.6698 7.25012C18.5817 6.86729 19.5608 6.67013 20.5498 6.67014H20.9298C20.4416 5.21342 19.5079 3.94695 18.2608 3.04965C17.0137 2.15236 15.5162 1.66959 13.9798 1.66959C12.4435 1.66959 10.9459 2.15236 9.69883 3.04965C8.45172 3.94695 7.51808 5.21342 7.02983 6.67014H7.41983C8.40558 6.67038 9.38134 6.86756 10.2898 7.25012L9.65983 8.76013C8.9511 8.46076 8.18919 8.30768 7.41983 8.31012C5.89664 8.3254 4.43925 8.9332 3.35656 10.0047C2.27386 11.0762 1.65094 12.5272 1.61982 14.0501C1.62981 15.4904 2.17812 16.8749 3.15699 17.9315C4.13585 18.9881 5.47449 19.6403 6.90983 19.7601C7.43204 20.393 8.04146 20.9485 8.71983 21.4101H7.43982C5.6673 21.4199 3.95047 20.7914 2.60322 19.6396C1.25596 18.4877 0.368287 16.8893 0.102498 15.1368C-0.16329 13.3843 0.210562 11.5947 1.1557 10.0952C2.10083 8.59564 3.55411 7.48633 5.24983 6.97012C5.72277 5.00566 6.84301 3.25749 8.43021 2.00705C10.0174 0.756612 11.9792 0.0766602 13.9998 0.0766602C16.0204 0.0766602 17.9822 0.756612 19.5694 2.00705C21.1566 3.25749 22.2769 5.00566 22.7498 6.97012C24.2554 7.43697 25.5744 8.36874 26.5176 9.63171C27.4608 10.8947 27.9797 12.424 27.9998 14.0001Z" fill="#64CEB8"/>
</g>
<defs>
<clipPath id="clip0_603_1202">
<rect width="28" height="28" fill="white"/>
</clipPath>
</defs>
</svg>
