<svg width="219" height="51" viewBox="0 0 219 51" fill="none" xmlns="http://www.w3.org/2000/svg">
<g clip-path="url(#clip0_103_140)">
<path d="M17.8 42.2012C16.2 42.2012 13 41.8012 13 37.4012C13 35.3012 13.5 32.7012 14.1 31.0012C15.8 26.0012 19.2 25.0012 21.3 25.0012H31.1L32.6 17.2012H20.4C17.6 17.2012 11.7 17.7012 6.9 22.0012C2.8 25.7012 0.5 32.3012 0.5 37.4012C0.5 42.9012 2.8 50.5012 13.8 50.5012H25.9L27.6 42.2012H17.8Z" fill="#E22526"/>
<path d="M24.7 0.800797L22.7 10.9008H39.6L31.9 50.5008H46.1L53.7 10.9008H70.2L72.3 0.800797H24.7Z" fill="white"/>
<path fill-rule="evenodd" clip-rule="evenodd" d="M215.2 18.7012C213.1 17.5012 211.4 17.2012 207.3 17.2012H158.4L156.7 25.7012C156.4 24.5012 155.8 23.4012 155.1 22.3012C154.3 21.1012 153.3 20.1012 151.9 19.3012C150.8 18.7012 149.5 18.0012 148 17.7012C146.8 17.5012 145.5 17.2012 144 17.2012H125.8L120.4 44.8012L116.2 17.2012H99.4L83.2 46.7012L83.1 40.6012C83.1 38.7012 82.4 37.4012 81.5 36.5012C80.4 35.4012 79 34.9012 77.8 34.7012L77.9 34.6012C79.8 34.3012 81.6 33.7012 83 32.7012C85.6 31.0012 87.3 28.2012 87.3 25.0012C87.3 22.0012 85.7 19.7012 83.4 18.6012C81.9 17.8012 80 17.2012 78.2 17.2012H56.7L55.2 25.0012H70.1C70.9 25.0012 74.3 25.0012 74.3 27.8012C74.3 28.6012 74.1 29.9012 72.7 30.8012C71.8 31.4012 70.3 31.6012 68.3 31.6012H53.9L50.2 50.5012H62.2L64.5 38.8012H67.3C68.1 38.8012 69.2 38.9012 69.9 39.6012C70.3 40.1012 70.6 41.0012 70.6 42.1012L70.2 50.4012H93.8L96.7 44.1012H107.5L108 50.4012H137.4C140.2 50.4012 146.1 49.8012 150.9 45.5012C151.8 44.7012 152.6 43.8012 153.3 42.8012L151.8 50.4012H178.2L179.9 41.8012H165.8L166.7 37.3012H178.5L180 29.7012H168.2L169.1 24.9012H201.6C203.6 24.9012 205.9 25.3012 205.9 27.6012C205.9 30.1012 203.9 31.5012 201.5 31.5012H185L181.3 50.4012H193.8L196.1 38.7012H198.9C199.7 38.7012 200.8 38.8012 201.5 39.5012C201.9 40.0012 202.2 40.9012 202.1 42.0012L201.7 50.3012H214.7L214.6 40.6012C214.6 38.6012 213.9 37.0012 212.8 36.1012C211.8 35.1012 210.4 34.6012 209.3 34.5012V34.4012C211.6 34.1012 213.7 33.2012 215.3 31.8012C217.4 30.1012 218.7 27.5012 218.7 24.7012C218.8 22.0012 217.3 19.9012 215.2 18.7012ZM100.8 35.7012L105.9 24.9012H106.1L106.9 35.7012H100.8ZM143 36.4012C141.3 41.5012 138 42.0012 135.9 42.0012H133.6L136.9 25.0012H139.3C140.9 25.0012 144.1 25.3012 144.1 29.8012C144.1 31.9012 143.6 34.7012 143 36.4012Z" fill="white"/>
</g>
<defs>
<clipPath id="clip0_103_140">
<rect width="219" height="51" fill="white"/>
</clipPath>
</defs>
</svg>
