<?xml version="1.0" encoding="utf-8"?>
<!-- Generator: Adobe Illustrator 25.4.1, SVG Export Plug-In . SVG Version: 6.00 Build 0)  -->
<svg version="1.1" id="Layer_1" xmlns="http://www.w3.org/2000/svg" xmlns:xlink="http://www.w3.org/1999/xlink" x="0px" y="0px"
	 viewBox="0 0 199 199.4" style="enable-background:new 0 0 199 199.4;" xml:space="preserve">
<style type="text/css">
	.st0{fill:#D6DCE8;}
	.st1{fill:#F1F3F9;}
	.st2{fill:url(#SVGID_1_);}
	.st3{fill:url(#SVGID_00000026162197445996056320000006615147327934139316_);}
	.st4{fill:url(#SVGID_00000153700444188773476500000006808206576114677646_);}
	.st5{fill:url(#SVGID_00000004539824987999789680000001810668067573114293_);}
	.st6{fill:#FFFFFF;}
	.st7{fill:#989FB0;}
</style>
<path class="st0" d="M99,197.5c54.4,0,98.5-44.1,98.5-98.5c0-54.4-44.1-98.5-98.5-98.5C44.6,0.5,0.5,44.6,0.5,99
	C0.5,153.4,44.6,197.5,99,197.5z"/>
<path class="st0" d="M185.1,17.7c-1.1,2.4,0,5.2,2.4,6.2c2.4,1.1,5.2,0,6.2-2.3c1.1-2.4,0-5.2-2.3-6.3
	C189,14.2,186.1,15.3,185.1,17.7z M9.4,17.7c-1.1,2.4,0,5.2,2.4,6.2c2.4,1.1,5.2,0,6.2-2.3c1.1-2.4,0-5.2-2.3-6.3
	C13.4,14.2,10.5,15.3,9.4,17.7z M178.1,8.4c-0.7,1.5,0,3.3,1.5,4c1.5,0.7,3.3,0,4-1.5c0.7-1.5,0-3.3-1.5-4
	C180.6,6.2,178.8,6.9,178.1,8.4z M13.2,182c-1.1,2.4,0,5.2,2.4,6.2s5.2,0,6.2-2.3c1.1-2.4,0-5.2-2.3-6.3S14.3,179.7,13.2,182z
	 M6.3,172.8c-0.7,1.5,0,3.3,1.5,4c1.5,0.7,3.3,0,4-1.5c0.7-1.5,0-3.3-1.5-4C8.7,170.6,6.9,171.3,6.3,172.8z"/>
<path class="st1" d="M170.2,54.2v121.2c0,7.4-6,13.4-13.4,13.4H48.5c-7.4,0-13.4-6-13.4-13.4V23.3c0-7.4,6-13.4,13.4-13.4h74.6
	c0.7,0,1.4,0.1,2.1,0.2c2.6,0.4,5,1.6,7,3.4l33.7,30.9c2,1.8,3.4,4.2,4,6.9C170.1,52.2,170.2,53.2,170.2,54.2z"/>
<path class="st0" d="M108.4,27.9H53.8v4.4h54.5V27.9z"/>
<path class="st0" d="M82.1,38.6H53.8V43h28.3V38.6z"/>
<linearGradient id="SVGID_1_" gradientUnits="userSpaceOnUse" x1="125.18" y1="221.3581" x2="169.83" y2="221.3581" gradientTransform="matrix(1 0 0 -1 0 252)">
	<stop  offset="0" style="stop-color:#D6DCE8"/>
	<stop  offset="1" style="stop-color:#FFFFFF"/>
</linearGradient>
<path class="st2" d="M169.8,51.2h-38.2c-3.6,0-6.5-2.9-6.5-6.5V10.1c2.6,0.4,5,1.6,7,3.4l33.7,30.9
	C167.9,46.2,169.2,48.6,169.8,51.2z"/>
<linearGradient id="SVGID_00000105392363364555915660000014530585835467664566_" gradientUnits="userSpaceOnUse" x1="136.723" y1="83.6372" x2="194.8614" y2="83.6372" gradientTransform="matrix(1 0 0 -1 0 252)">
	<stop  offset="0" style="stop-color:#AAB2C5"/>
	<stop  offset="1" style="stop-color:#D6DCE8"/>
</linearGradient>
<path style="fill:url(#SVGID_00000105392363364555915660000014530585835467664566_);" d="M192.3,191.8c-3.7,4.2-10,4.6-14.2,0.9
	l-25-22.1c-0.7-0.6-1.1-1.5-1.2-2.4c-0.1-0.9,0.2-1.8,0.9-2.5l0,0l-16.1-14.3l1.3-1.2c3.6-3.4,5.8-6.5,7.3-8.5l16.1,14.3l0,0
	c1.3-1.4,3.5-1.6,4.9-0.3l25,22.2C195.6,181.2,196.1,187.6,192.3,191.8z"/>
<linearGradient id="SVGID_00000023248994324752375230000005975184294613596838_" gradientUnits="userSpaceOnUse" x1="53.8047" y1="137.0752" x2="156.746" y2="137.0752" gradientTransform="matrix(1 0 0 -1 0 252)">
	<stop  offset="0" style="stop-color:#AAB2C5"/>
	<stop  offset="1" style="stop-color:#D6DCE8"/>
</linearGradient>
<path style="fill:url(#SVGID_00000023248994324752375230000005975184294613596838_);" d="M139.2,76.3c-21.3-18.7-53.8-16.6-72.6,4.6
	c-18.8,21.4-16.7,53.8,4.6,72.6c20,17.6,49.6,17.2,69.1-1C163.7,130.2,161.1,95.5,139.2,76.3z M81.6,141.7
	c-14.8-13-16.2-35.6-3.2-50.4c13-14.8,35.6-16.3,50.4-3.2c14.8,13.1,16.2,35.7,3.2,50.4C118.9,153.4,96.3,154.6,81.6,141.7z"/>
<linearGradient id="SVGID_00000145778222455014916890000012153859778290508951_" gradientUnits="userSpaceOnUse" x1="83.168" y1="136.5077" x2="126.449" y2="136.5077" gradientTransform="matrix(1 0 0 -1 0 252)">
	<stop  offset="0" style="stop-color:#989FB0"/>
	<stop  offset="1" style="stop-color:#AAB2C5"/>
</linearGradient>
<path style="fill:url(#SVGID_00000145778222455014916890000012153859778290508951_);" d="M104.8,137.1c12,0,21.6-9.7,21.6-21.6
	s-9.7-21.6-21.6-21.6c-12,0-21.6,9.7-21.6,21.6S92.9,137.1,104.8,137.1z"/>
<path class="st6" d="M114,124.7c-1.1,1.1-2.9,1-3.9,0l-5.3-5.3l-5.3,5.3c-1.1,1.1-2.8,1.1-3.9,0c-1.1-1.1-1.1-2.8,0-3.9l5.3-5.3
	l-5.3-5.3c-1.1-1.1-1.1-2.8,0-3.9c1-1,2.8-1.1,3.9,0l5.3,5.3l5.3-5.3c1.1-1.1,2.8-1.1,3.9,0c1.1,1.1,1.1,2.8,0,3.9l-5.3,5.3l5.3,5.3
	C115.1,121.9,115.1,123.6,114,124.7z"/>
<path class="st7" d="M60.3,67.4l-7.8-9.2c-0.6-0.6-0.5-1.6,0.2-2.2c0.6-0.6,1.6-0.5,2.2,0.2l7.8,9.2c0.6,0.6,0.5,1.6-0.2,2.2
	C61.8,68.1,60.8,68,60.3,67.4z M69.6,65.2c-0.8-0.1-1.5-0.8-1.4-1.7l0.9-12c0.1-0.8,0.8-1.5,1.7-1.4c0.8,0.1,1.5,0.8,1.4,1.7
	l-0.9,12C71.2,64.6,70.5,65.3,69.6,65.2z M57.4,75.7l-12-0.9c-0.8-0.1-1.5-0.8-1.4-1.7c0.1-0.8,0.8-1.5,1.7-1.4l12,0.9
	c0.8,0.1,1.5,0.8,1.4,1.7C59,75.1,58.2,75.7,57.4,75.7z"/>
</svg>
