<svg width="60" height="60" viewBox="0 0 60 60" fill="none" xmlns="http://www.w3.org/2000/svg">
<g clip-path="url(#clip0_2_14)">
<path d="M38.8305 2.70868C30.1696 2.70868 23.1174 9.75214 23.1174 18.4217C23.1174 27.0826 30.1696 34.1348 38.8305 34.1348C47.5 34.1348 54.5522 27.0826 54.5522 18.4217C54.5522 9.75213 47.5 2.70868 38.8305 2.70868ZM38.834 29.5603C32.6919 29.5603 27.6944 24.5628 27.6944 18.4202C27.6944 12.2777 32.6919 7.28063 38.834 7.28063C44.9762 7.28063 49.9736 12.2777 49.9736 18.4202C49.9736 24.5628 44.9762 29.5603 38.834 29.5603Z" fill="#004040"/>
<path d="M38.8341 9.01978C33.6506 9.01978 29.4336 13.2368 29.4336 18.4203C29.4336 23.6041 33.6506 27.8212 38.8341 27.8212C44.0175 27.8212 48.2345 23.6041 48.2345 18.4203C48.2345 13.2368 44.0175 9.01978 38.8341 9.01978ZM39.7136 23.1735L39.7198 23.6296C39.7266 24.1098 39.3419 24.5042 38.8621 24.511C38.8578 24.511 38.8536 24.511 38.8502 24.511C38.3755 24.511 37.9874 24.1293 37.9806 23.6534L37.9742 23.1789C36.8047 22.8101 35.9485 21.7279 35.9485 20.4379C35.9485 19.9577 36.3375 19.5683 36.8181 19.5683C37.2987 19.5683 37.6877 19.9577 37.6877 20.4379C37.6877 21.0706 38.2023 21.5856 38.8349 21.5856C39.4676 21.5856 39.983 21.0706 39.983 20.4379C39.983 19.8048 39.4676 19.2898 38.8341 19.2898C37.2418 19.2898 35.946 17.9948 35.946 16.403C35.946 15.1198 36.7933 14.0422 37.9537 13.6677L37.9475 13.2114C37.9407 12.7311 38.3254 12.3367 38.8052 12.3299C38.8094 12.3299 38.8137 12.3299 38.8171 12.3299C39.2918 12.3299 39.6799 12.7116 39.6867 13.1876L39.6931 13.6618C40.863 14.0304 41.7196 15.1127 41.7196 16.403C41.7196 16.8832 41.3307 17.2726 40.85 17.2726C40.3694 17.2726 39.9805 16.8832 39.9805 16.403C39.9805 15.7704 39.4659 15.2554 38.8332 15.2554C38.2006 15.2554 37.6851 15.7704 37.6851 16.403C37.6851 17.0357 38.2006 17.5507 38.8341 17.5507C40.4263 17.5507 41.7221 18.8457 41.7221 20.4379C41.7221 21.7215 40.8745 22.7992 39.7136 23.1735Z" fill="#2aa79f"/>
</g>
<path fill-rule="evenodd" clip-rule="evenodd" d="M57.8527 44.3746L38.5604 56.3557C36.6906 57.5043 34.6463 57.7916 32.4712 57.209L15.5875 52.6841C15.3133 52.6118 15.0266 52.6499 14.7835 52.7901L6.52548 57.5585L0 46.2653L15.3506 37.3759C17.5071 36.1275 19.838 35.0811 22.2999 35.8788C23.0291 36.1157 23.8954 36.4148 24.8116 36.7319C27.8717 37.7877 31.6797 39.1022 35.5874 39.9598C36.1982 40.0931 36.7217 40.4764 37.0583 41.0361C37.4384 41.6531 37.5444 42.4036 37.3574 43.0946C37.0083 44.3891 35.7058 45.2057 34.3907 44.9531C34.3721 44.9488 21.1903 41.4231 21.1903 41.4231C20.6294 41.271 20.0498 41.607 19.894 42.1697C19.7445 42.7337 20.081 43.3133 20.6419 43.4641L33.6678 46.9531C36.5846 47.7365 38.9965 47.8724 41.9757 46.1353L51.7821 40.4252C55.9204 38.0133 58.7812 38.5431 59.6911 40.0556C60.3831 41.2134 59.9717 43.0676 57.8527 44.3746Z" fill="#004040"/>
<defs>
<clipPath id="clip0_2_14">
<rect width="32.4" height="32.4" fill="white" transform="translate(22.8 2)"/>
</clipPath>
</defs>
</svg>
