<svg width="160" height="105" viewBox="0 0 160 105" fill="none" xmlns="http://www.w3.org/2000/svg">
<rect y="0.946533" width="160" height="104" rx="5" fill="white"/>
<path fill-rule="evenodd" clip-rule="evenodd" d="M4.11898 0.946533H155.881C158.159 0.946533 160 2.79356 160 5.06551V100.519C160 102.794 158.159 104.638 155.881 104.638H4.11898C1.84136 104.638 0 102.791 0 100.516V5.06551C0 2.79072 1.84136 0.946533 4.11898 0.946533ZM139.341 47.4664L140 45.8111C139.589 45.8111 139.189 45.8185 138.798 45.8257C137.892 45.8425 137.034 45.8584 136.186 45.779C135.094 45.6826 134.598 46.0383 134.289 47.0956C133.81 48.7211 133.258 50.3246 132.706 51.9285L132.705 51.9309L132.704 51.9327L132.704 51.9346L132.703 51.936C132.473 52.606 132.242 53.276 132.017 53.9478C131.263 52.4725 130.758 51.0102 130.255 49.5527L130.254 49.5523L130.152 49.2545C130.039 48.9265 129.953 48.5734 129.867 48.2201L129.867 48.2198C129.662 47.3758 129.456 46.5309 128.892 46.026C128.358 45.5485 127.523 45.6406 126.677 45.7339C126.253 45.7806 125.827 45.8276 125.434 45.8037C125.213 45.7921 124.993 45.796 124.774 45.7998H124.774C124.664 45.8017 124.555 45.8037 124.445 45.8037C123.084 45.8061 123.077 45.8111 123.685 47.0832C124.503 48.804 125.325 50.5215 126.147 52.2383L126.148 52.2393L126.148 52.2404L126.149 52.2415L126.149 52.2425L126.15 52.2436C127.05 54.123 127.949 56.0015 128.842 57.8827C129.583 59.4463 128.842 60.7283 127.113 60.9506C126.827 60.9766 126.54 60.984 126.254 60.9729L99.3981 61.0667C97.1238 61.0716 97.1221 61.0788 96.614 63.2496L96.5797 63.3961C96.3673 64.3076 96.5599 64.4632 97.4566 64.4508C107.393 64.3455 117.329 64.2475 127.264 64.1569C128.832 64.1421 130.381 63.9988 131.839 63.3664C132.713 62.9786 133.449 62.4179 133.815 61.4793C134.697 59.2067 135.587 56.9375 136.483 54.6715C137.418 52.3013 138.36 49.9343 139.335 47.4834L139.341 47.4664ZM24.266 43.8201H31.1824C33.8675 43.8048 36.5392 43.779 39.2126 43.7532H39.2128H39.2131H39.2133H39.2136H39.214C39.9832 43.7458 40.7526 43.7384 41.5224 43.7312C41.7695 43.7312 42.0165 43.7312 42.2635 43.7065C42.5723 43.6744 42.8637 43.5188 42.8687 43.2125C42.8687 42.8739 42.6239 42.8887 42.4039 42.902C42.3365 42.9061 42.2715 42.9101 42.2166 42.9037C38.3845 42.4904 34.5533 42.0877 30.7229 41.6958C30.6858 41.6918 30.648 41.6896 30.61 41.6874C30.3624 41.673 30.1041 41.658 29.935 41.1548H36.76C37.729 41.1504 38.698 41.1436 39.667 41.1367C43.5814 41.1091 47.4955 41.0814 51.408 41.2141C51.4993 41.2176 51.5981 41.2107 51.6983 41.2038C52.0291 41.1809 52.3755 41.1569 52.5196 41.4982C52.6234 41.7429 52.4362 41.96 52.2512 42.1745C52.1766 42.261 52.1024 42.3471 52.0478 42.4344C51.9622 42.571 51.8712 42.6891 51.783 42.8036L51.783 42.8036C51.675 42.9437 51.5713 43.0784 51.487 43.2347C51.0498 44.0474 50.5459 44.4698 49.464 44.3364C47.8757 44.1511 47.2013 44.7859 46.4677 46.6163C46.622 46.8338 46.8378 46.8121 47.0457 46.7912C47.1141 46.7843 47.1816 46.7775 47.2458 46.7794L47.3606 46.7821C48.0378 46.7983 48.3655 46.8062 48.4567 46.957C48.5423 47.0984 48.42 47.3655 48.1833 47.8829C48.1541 47.9467 48.1231 48.0144 48.0906 48.0861C47.4977 49.3928 46.7345 50.3512 45.077 50.0276C44.4619 49.9093 44.2494 50.3434 44.0466 50.7576C44.0165 50.8192 43.9865 50.8803 43.9555 50.9391C42.5945 53.4883 41.2384 56.0424 39.8897 58.5966C39.8623 58.6477 39.8365 58.6999 39.8108 58.752L39.8108 58.752L39.8107 58.7521L39.8107 58.7521C39.6463 59.0852 39.4858 59.4103 38.9411 59.3697C35.9231 59.1508 32.9023 58.9464 29.8819 58.7421L29.8756 58.7417L29.8693 58.7412L29.8631 58.7408L29.8569 58.7404L29.8506 58.74C28.758 58.6661 27.6655 58.5921 26.5731 58.5175V58.1742C27.1796 58.1742 27.7863 58.1663 28.3928 58.1584C29.8243 58.1398 31.2548 58.1213 32.6793 58.2063C33.949 58.2829 34.6332 57.8358 35.1247 56.7242C35.5747 55.7659 36.0974 54.8434 36.6884 53.965C37.1824 53.224 36.8983 53.014 36.1326 52.935L35.3576 52.8541C31.7853 52.4812 28.2167 52.1088 24.6439 51.6826C24.234 51.6334 23.8207 51.6041 23.4027 51.5744L23.4026 51.5744L23.4025 51.5744L23.4024 51.5744L23.4023 51.5744L23.4022 51.5744C22.3088 51.4967 21.1828 51.4168 20 50.9737H36.4981C36.6206 50.9737 36.7437 50.9718 36.8668 50.9698H36.8671C37.1139 50.966 37.361 50.9621 37.6048 50.9737C38.0198 50.991 38.3458 50.8922 38.4273 50.4377C38.5188 49.9335 38.1977 49.9279 37.9063 49.9228C37.828 49.9214 37.7517 49.92 37.6863 49.909C34.8112 49.408 31.9341 48.9249 29.0568 48.4419L28.1145 48.2837C28.0806 48.2782 28.0463 48.2746 28.0115 48.2709C27.8432 48.2532 27.6665 48.2347 27.5068 47.9971H36.6661C37.3133 47.9971 37.8617 47.97 38.1828 47.2734C38.4661 46.653 39.0471 46.6074 39.6172 46.5626C39.7282 46.5539 39.8387 46.5452 39.9465 46.5323C40.027 46.5223 40.1184 46.5256 40.2107 46.5289C40.5033 46.5394 40.8055 46.5502 40.8036 46.1371C40.8036 45.78 40.5263 45.7999 40.2626 45.8189C40.1743 45.8252 40.0875 45.8315 40.0132 45.8234C35.0021 45.2619 29.9901 44.7069 24.9774 44.1585C24.9382 44.1554 24.8966 44.156 24.8536 44.1566C24.6579 44.1593 24.432 44.1624 24.266 43.8201ZM94.5064 46.1389C94.4902 46.14 94.4741 46.141 94.4579 46.1422C95.8264 47.229 95.9968 48.1726 95.0779 50.1117C94.005 52.3327 92.9193 54.5411 91.8337 56.7495L91.8286 56.76L91.3565 57.7203L91.0195 58.4065C90.9009 58.6486 90.778 58.8884 90.655 59.1283C90.5935 59.2483 90.532 59.3682 90.4711 59.4884C90.3737 59.8886 90.2778 60.2887 90.1818 60.6888C89.9663 61.5876 89.7509 62.4856 89.5201 63.3814C89.3423 64.1026 89.3892 64.5102 90.3303 64.4657C91.8025 64.3941 93.2846 64.3867 94.7544 64.4657C95.6411 64.5127 95.9721 64.2261 96.1352 63.3863C96.3785 62.1226 96.6776 60.8688 96.9798 59.6021C97.104 59.0811 97.2288 58.5579 97.3505 58.031C100.095 59.9701 101.859 60.1084 104.247 59.0611C108.787 57.0652 108.288 48.7803 104.919 46.7251C102.338 45.1516 99.5638 45.3937 96.8787 47.7774C96.8574 47.727 96.8316 47.6776 96.8064 47.6292C96.7524 47.5258 96.7008 47.427 96.7008 47.3328C96.7873 46.2138 96.187 45.9322 95.199 46.0853C95.0261 46.1113 94.8532 46.1203 94.6803 46.1293C94.6357 46.1316 94.5912 46.1339 94.5467 46.1365C94.5332 46.1373 94.5198 46.1381 94.5064 46.1389ZM97.1134 53.2389V52.4979C97.1109 50.255 98.0298 49.1286 99.7688 49.2447C100.908 49.3138 101.851 50.0722 102.007 51.1516C102.147 51.9961 102.133 52.859 101.965 53.6984C101.661 55.0841 100.517 55.9585 99.2327 55.8054C97.9483 55.6522 97.1603 54.6988 97.1134 53.2389ZM118.772 57.3959C116.504 58.9818 114.078 59.6611 111.41 59.0583C109.007 58.5149 107.804 57.0995 107.923 55.1654C108.034 53.3572 109.763 51.843 112.045 51.68C113.681 51.5641 115.26 51.1889 116.84 50.8137L117.09 50.7543L117.354 50.6919C117.415 50.6776 117.481 50.6648 117.548 50.6517C117.966 50.5702 118.442 50.4772 118.453 49.9237C118.461 49.6142 118.372 49.3098 118.2 49.0527C118.027 48.7956 117.779 48.5985 117.49 48.4886C116.254 47.9155 114.723 48.2416 113.987 49.3432C113.663 49.8373 113.369 49.9855 112.801 49.9015C111.628 49.7094 110.446 49.5799 109.259 49.5137C108.409 49.4766 108.382 49.1827 108.74 48.5726C109.783 46.7891 111.443 45.9097 113.399 45.4898C115.567 45.0007 117.819 45.0227 119.977 45.554C122.734 46.2432 123.984 47.7772 123.979 50.5808C123.979 51.776 123.969 52.9703 123.959 54.1642V54.1653V54.1663C123.954 54.8815 123.948 55.5965 123.944 56.3115C123.944 56.4107 123.937 56.5126 123.929 56.6149C123.907 56.9281 123.884 57.2458 124.07 57.5046C124.859 58.5948 124.16 58.6054 123.403 58.6168L123.292 58.6187C122.513 58.6115 121.733 58.6453 120.958 58.7199C119.841 58.8632 119.016 58.6063 118.772 57.3959ZM115.415 56.6376C117.485 56.6104 118.784 55.3087 118.571 53.4635C118.567 53.4211 118.565 53.3721 118.564 53.3213C118.556 53.0757 118.548 52.7853 118.171 52.9694C117.629 53.2216 117.046 53.2948 116.466 53.3675C115.869 53.4423 115.276 53.5167 114.733 53.7846C114.007 54.1427 113.399 54.6541 113.599 55.5804C113.794 56.5388 114.59 56.6252 115.415 56.6376ZM46.6232 59.7502C48.834 59.6785 50.8571 58.9153 53.1988 57.8531C52.6347 59.3477 53.4258 59.3151 54.2311 59.2821L54.3227 59.2784H56.2988C56.4492 59.2765 56.6052 59.2833 56.7612 59.2901C57.6301 59.3281 58.4969 59.366 58.3713 57.9C58.3588 57.7596 58.4705 57.5923 58.5773 57.4322L58.5774 57.4321L58.5777 57.4317C58.6192 57.3695 58.6599 57.3084 58.6924 57.2504C59.0924 56.4976 59.4957 55.7464 59.899 54.9953C60.786 53.3435 61.6729 51.6919 62.5236 50.0227C63.44 48.2195 62.7484 46.5694 60.9402 46.1866C59.7027 45.9247 58.4528 45.7074 57.1634 45.8136C56.1667 45.8957 55.1907 46.0722 54.216 46.2486L54.2159 46.2486L54.2158 46.2486C53.9295 46.3004 53.6434 46.3521 53.3569 46.4015C51.8024 46.6637 50.3341 47.2966 49.0761 48.2467L49.0365 48.2756L48.9581 48.3326C48.4259 48.7185 47.7265 49.2258 47.9423 49.8226C48.0725 50.1868 48.6099 50.1851 49.1379 50.1834H49.1379H49.1379C49.3512 50.1827 49.5628 50.182 49.7455 50.2055C49.8545 50.2161 49.9657 50.2168 50.0767 50.2174H50.0768H50.0768C50.172 50.2179 50.2671 50.2184 50.3606 50.2253C51.4376 50.3092 52.3713 50.3117 53.2877 49.457C54.2041 48.6024 55.496 48.7086 56.6965 48.8766C57.361 48.968 57.5858 49.3261 57.3388 49.9931C57.2435 50.2639 57.0764 50.5037 56.8554 50.6869C56.6344 50.8701 56.3677 50.9897 56.0839 51.033C55.7915 51.0971 55.5011 51.1687 55.2107 51.2404L55.2106 51.2404L55.2105 51.2404C54.5492 51.4036 53.8878 51.5669 53.2012 51.6407C51.6846 51.7987 50.1753 52.0754 48.6784 52.3817C46.48 52.8337 44.5211 53.7106 43.4145 55.8127C42.3425 57.8704 43.1675 59.3747 45.5092 59.7156C45.8789 59.7585 46.2516 59.77 46.6232 59.7502ZM54.0599 53.6481C54.527 53.5334 55.0009 53.417 55.4837 53.2957C54.5475 55.5509 52.27 57.0429 50.0049 56.9885C49.17 56.9638 49.002 56.4105 49.2144 55.7288C49.3997 55.0865 49.9555 54.7407 50.5434 54.5604C51.6935 54.2292 52.8539 53.9443 54.0597 53.6482L54.0598 53.6482L54.0599 53.6481ZM94.4576 46.1421C95.8261 47.229 95.9965 48.1726 95.0677 50.0943C94.082 52.1499 93.0746 54.1947 92.0676 56.2387L92.0667 56.2404L92.0639 56.2461C91.712 56.9604 91.3602 57.6746 91.0093 58.3891C90.8907 58.6312 90.7677 58.8712 90.6447 59.1111C90.5833 59.231 90.5218 59.3509 90.4609 59.471L80.8817 59.7477C79.8173 59.8056 78.7501 59.7167 77.71 59.4834C75.8673 59.019 75.3139 57.9692 75.9809 56.2302C76.0068 56.1634 76.0389 56.0977 76.0711 56.032C76.1716 55.8265 76.2726 55.6202 76.1858 55.3739C76.2091 55.3864 76.233 55.3976 76.2575 55.4076C78.4609 52.3101 81.7289 51.7765 85.2168 51.7024C86.4871 51.6732 87.7575 51.5749 89.0269 51.4768L89.0279 51.4767C89.4736 51.4422 89.9192 51.4078 90.3646 51.3763C91.2934 51.3097 92.5013 50.1981 92.6223 49.3088C92.7137 48.637 92.274 48.2985 91.7207 48.2071C89.4012 47.8243 87.0867 47.7897 84.8833 48.8123C84.4008 49.0467 84.0242 49.4541 83.8286 49.9535C83.3889 50.9861 81.6054 51.3294 80.7829 50.5637C80.4222 50.2277 80.5778 49.9264 80.7631 49.588C81.6524 47.9478 82.7837 46.9202 84.7993 46.3619C87.4962 45.6311 90.1187 45.7147 92.7946 45.8001L92.9064 45.8037C93.2608 45.8171 93.6085 45.9142 93.9571 46.0116L93.9571 46.0116L93.9572 46.0116C94.1235 46.0581 94.2901 46.1046 94.4576 46.1421ZM76.1599 55.3594C74.5646 57.1225 72.7741 58.5844 70.3837 59.187C67.9525 59.8122 65.4156 59.9099 62.9436 59.4735C61.0243 59.1277 60.0831 58.0235 60.1893 56.4698C60.1903 56.4551 60.1912 56.4404 60.1921 56.4258C60.2151 56.0521 60.2381 55.6793 60.7254 55.6793C61.1302 55.6793 61.5318 55.6192 61.933 55.5591C62.5793 55.4624 63.2243 55.3658 63.8797 55.5212C63.9719 55.5607 64.071 55.581 64.1712 55.581C64.2714 55.581 64.3706 55.5607 64.4627 55.5212C65.3767 54.9655 65.9448 55.1112 66.1918 56.2302C66.2434 56.3622 66.3249 56.4804 66.4299 56.5755C66.535 56.6707 66.6606 56.7402 66.797 56.7786C67.9901 57.0256 69.1881 57.0083 70.1786 56.1956C71.1198 55.4274 70.9493 54.7679 69.8106 54.3627C69.2206 54.1526 68.6172 54.1456 68.0107 54.1386C67.8401 54.1366 67.6693 54.1346 67.4985 54.1281L67.4674 54.1269C65.9401 54.068 64.3269 54.0059 63.6056 52.3767C62.8979 50.7656 64.0509 49.6772 65.0467 48.737C65.0937 48.6926 65.1404 48.6486 65.1865 48.6048C67.1626 46.725 69.4524 45.6752 72.3795 45.9371C72.8807 45.9822 73.3934 45.9627 73.9104 45.9432C74.7237 45.9123 75.5476 45.8811 76.354 46.1001C76.9583 46.227 77.5212 46.503 77.9917 46.9029C78.5278 47.4167 78.7995 48.0367 78.55 48.7777C78.3608 49.3151 77.9484 49.2945 77.5438 49.2743C77.4201 49.2681 77.2972 49.2619 77.1815 49.2718C76.2445 49.3673 75.305 49.4422 74.3631 49.4965C74.2956 49.5003 74.2287 49.5054 74.1627 49.5105C73.617 49.5522 73.1254 49.5899 72.7772 48.8098C72.4946 48.1811 71.7283 48.349 71.0933 48.488C71.0123 48.5058 70.9334 48.523 70.8579 48.5381C70.191 48.6715 69.5957 48.9655 69.3289 49.6349C69.1511 50.077 69.4672 50.3512 69.8229 50.4673C70.4093 50.643 71.0057 50.7833 71.6089 50.8872C71.9369 50.9237 72.267 50.9378 72.5969 50.9292C76.0289 51.0626 76.9387 52.1905 76.1574 55.3516L76.1711 55.336C76.1719 55.338 76.1728 55.34 76.1736 55.342L76.1811 55.336C76.1788 55.3385 76.1765 55.3411 76.1742 55.3436C76.1784 55.3538 76.1823 55.3639 76.1858 55.3739C76.1771 55.3692 76.1685 55.3644 76.1599 55.3594ZM84.6758 58.5299C85.7528 58.8535 85.9899 58.3027 86.0813 57.2158C86.1003 56.9886 86.0981 56.7525 86.0958 56.514C86.0888 55.7903 86.0816 55.0431 86.6668 54.4467C87.1954 53.9058 87.4449 53.3006 87.0892 52.5719C86.8743 52.1297 86.4642 52.0779 86.0393 52.1174C85.2168 52.1989 84.4659 52.7053 84.4461 53.4167C84.4152 54.5317 83.8824 55.3791 83.348 56.2289C83.1141 56.6009 82.8799 56.9733 82.6873 57.3689C82.6325 57.4808 82.5501 57.5945 82.4671 57.709C82.2624 57.9915 82.0543 58.2787 82.2477 58.5546C82.4998 58.9112 82.9029 58.776 83.2926 58.6452C83.3915 58.612 83.4895 58.5791 83.584 58.5546C83.9459 58.5056 84.3121 58.4974 84.6758 58.5299Z" fill="url(#paint0_linear_332_58)"/>
<defs>
<linearGradient id="paint0_linear_332_58" x1="160" y1="1" x2="-7.65153e-07" y2="100" gradientUnits="userSpaceOnUse">
<stop stop-color="#2FF8CC"/>
<stop offset="1" stop-color="#319793"/>
</linearGradient>
</defs>
</svg>
