<svg width="80" height="81" viewBox="0 0 80 81" fill="none" xmlns="http://www.w3.org/2000/svg">
<g clip-path="url(#clip0_227_152)">
<path d="M9.1609 51.2161H1.04251C1.01417 50.6053 1 49.9937 1 49.3822C1 44.2504 1.99766 39.1971 3.95458 34.4729L11.0514 38.5703C9.75939 42.0263 9.10479 45.6805 9.10621 49.382V49.3822C9.10656 49.9938 9.12479 50.6054 9.1609 51.2161ZM21.4231 24.6989C17.754 27.4645 14.7281 31.0226 12.5959 35.1046L5.57182 31.0493C8.40811 25.7338 12.4499 21.1363 17.3453 17.6361L21.4231 24.6989ZM38.111 18.5456C33.3387 18.8342 28.7182 20.2173 24.5719 22.6127L20.5181 15.5913C25.8972 12.4827 31.9092 10.724 38.111 10.4275V18.5456ZM41.889 10.4275C48.0909 10.724 54.1029 12.4826 59.4821 15.5914L55.4289 22.6116C51.2821 20.2161 46.6614 18.8339 41.889 18.5456V10.4275ZM62.6548 17.6361C67.5501 21.1364 71.5919 25.7339 74.4282 31.0494L67.4036 35.105C65.2722 31.0224 62.247 27.4637 58.5778 24.6978L62.6548 17.6361ZM76.0453 34.4729C78.002 39.1975 79 44.2505 79 49.3822C79 49.9937 78.9858 50.6053 78.9575 51.2161H70.84C70.8757 50.6056 70.8938 49.9941 70.8938 49.3822C70.8938 45.6809 70.2389 42.0271 68.9475 38.5709L76.0453 34.4729ZM13.2505 64.8224L13.6036 65.431L6.57111 69.4933L6.21986 68.8862L6.21985 68.8862C3.73752 64.5959 2.10695 59.8864 1.40132 54.994H9.61763C10.2545 58.4503 11.4801 61.7723 13.2505 64.8224ZM73.7802 68.886L73.7801 68.8861L73.4289 69.4931L66.4079 65.4392L66.7598 64.831L65.9937 64.3877L66.7598 64.831C68.5266 61.7772 69.7501 58.4526 70.3851 54.994H78.5987C77.893 59.8863 76.2625 64.5959 73.7802 68.886Z" fill="#9EF4E5" stroke="#2B9595" stroke-width="2"/>
<path d="M45.0003 53.1056C45.0003 55.8668 42.7619 58.1053 40.0006 58.1053C37.2394 58.1053 35.001 55.8668 35.001 53.1056C35.001 50.3444 37.2394 48.106 40.0006 48.106C42.7619 48.106 45.0003 50.3444 45.0003 53.1056Z" fill="#9EF4E5" stroke="#2B9595" stroke-width="2"/>
<path d="M45.2925 46.1022L61.0663 40.9423L48.7115 52.0218C48.4145 49.6082 47.1377 47.4988 45.2925 46.1022Z" fill="#9EF4E5" stroke="#2B9595" stroke-width="2"/>
</g>
<defs>
<clipPath id="clip0_227_152">
<rect width="80" height="80" fill="white" transform="translate(0 0.12561)"/>
</clipPath>
</defs>
</svg>
