<svg width="60" height="60" viewBox="0 0 60 60" fill="none" xmlns="http://www.w3.org/2000/svg">
<path d="M25.587 52.3608C25.587 52.8391 25.1957 53.2304 24.7174 53.2304H14.9957C10.7 53.2304 7.19565 49.7261 7.19565 45.4217V35.7087L4.78693 38.1087C4.44785 38.4478 3.90001 38.4478 3.56087 38.1087C3.22173 37.7696 3.22173 37.2217 3.56087 36.8826L7.4478 32.9957C7.78694 32.6565 8.34348 32.6565 8.68262 32.9957L12.5783 36.8826C12.9174 37.2217 12.9174 37.7783 12.5783 38.1174C12.2322 38.4461 11.7051 38.4609 11.3435 38.1174L8.93477 35.7087V45.4217C8.93477 48.7695 11.6565 51.4913 14.9957 51.4913H24.7174C25.1957 51.4913 25.587 51.8826 25.587 52.3608ZM57.6044 22.7522L53.7174 26.6478C53.5522 26.813 53.3348 26.9 53.1 26.9C52.8652 26.9 52.6478 26.813 52.4826 26.6478L48.5956 22.7522C48.2478 22.413 48.2478 21.8652 48.5956 21.5261C48.9348 21.187 49.4826 21.187 49.8217 21.5261L52.2304 23.9348V14.2565C52.2304 10.9087 49.5087 8.18694 46.1696 8.18694H37.3087C36.8304 8.18694 36.4391 7.80434 36.4391 7.31738C36.4391 6.83913 36.8304 6.44781 37.3087 6.44781H46.1696C50.4652 6.44781 53.9695 9.95219 53.9695 14.2565V23.9347L56.3783 21.5261C56.7174 21.1869 57.2652 21.1869 57.6044 21.5261C57.9435 21.8652 57.9435 22.413 57.6044 22.7522ZM17.5648 7.77609C12.3813 7.77609 8.16429 11.9931 8.16429 17.1766C8.16429 22.3604 12.3813 26.5775 17.5648 26.5775C22.7482 26.5775 26.9652 22.3604 26.9652 17.1766C26.9652 11.9931 22.7482 7.77609 17.5648 7.77609ZM19.168 14.7105C19.6487 14.7105 20.0376 15.0999 20.0376 15.5801C20.0376 16.0603 19.6487 16.4497 19.168 16.4497H16.0155C15.9704 16.6856 15.942 16.9276 15.942 17.1766C15.942 17.4255 15.9704 17.6675 16.0155 17.9035H19.168C19.6487 17.9035 20.0376 18.2928 20.0376 18.773C20.0376 19.2533 19.6487 19.6426 19.168 19.6426H16.8535C17.5645 20.4951 18.6208 21.0501 19.8151 21.0501C20.2957 21.0501 20.6847 21.4395 20.6847 21.9197C20.6847 22.3999 20.2957 22.7893 19.8151 22.7893C17.606 22.7893 15.6965 21.5028 14.7813 19.6426H13.4021C12.9214 19.6426 12.5325 19.2533 12.5325 18.773C12.5325 18.2928 12.9214 17.9035 13.4021 17.9035H14.2554C14.2244 17.6649 14.2028 17.4235 14.2028 17.1766C14.2028 16.9297 14.2244 16.6882 14.2554 16.4497H13.4021C12.9214 16.4497 12.5325 16.0603 12.5325 15.5801C12.5325 15.0999 12.9214 14.7105 13.4021 14.7105H14.7815C15.6966 12.8506 17.6061 11.5643 19.8151 11.5643C20.2957 11.5643 20.6847 11.9537 20.6847 12.4339C20.6847 12.9141 20.2957 13.3034 19.8151 13.3034C18.6209 13.3034 17.5647 13.8582 16.8536 14.7105H19.168Z" fill="#2aa79f"/>
<path d="M33.2828 16.9131C33.2828 8.24347 26.2306 1.20001 17.561 1.20001C8.90019 1.20002 1.84802 8.24347 1.84802 16.9131C1.84802 25.5739 8.90018 32.6261 17.561 32.6261C26.2306 32.6261 33.2828 25.5739 33.2828 16.9131ZM17.5649 28.0514C11.4228 28.0514 6.42533 23.054 6.42533 16.9114C6.42533 10.7688 11.4228 5.77176 17.5649 5.77176C23.7071 5.77176 28.7045 10.7688 28.7045 16.9114C28.7045 23.054 23.7071 28.0514 17.5649 28.0514ZM42.4306 26.8435C33.7697 26.8435 26.7176 33.887 26.7176 42.5565C26.7176 51.2174 33.7697 58.2696 42.4306 58.2696C51.1001 58.2696 58.1524 51.2174 58.1524 42.5565C58.1524 33.8869 51.1001 26.8435 42.4306 26.8435ZM42.4342 53.6951C36.292 53.6951 31.2946 48.6976 31.2946 42.555C31.2946 36.4125 36.292 31.4154 42.4342 31.4154C48.5763 31.4154 53.5738 36.4125 53.5738 42.555C53.5738 48.6976 48.5763 53.6951 42.4342 53.6951Z" fill="#004040"/>
<path d="M42.4339 33.4197C37.2505 33.4197 33.0334 37.6368 33.0334 42.8202C33.0334 48.0041 37.2505 52.2211 42.4339 52.2211C47.6173 52.2211 51.8344 48.0041 51.8344 42.8202C51.8344 37.6368 47.6173 33.4197 42.4339 33.4197ZM43.3134 47.5734L43.3196 48.0295C43.3264 48.5098 42.9417 48.9042 42.4619 48.911C42.4577 48.911 42.4535 48.911 42.4501 48.911C41.9754 48.911 41.5873 48.5293 41.5805 48.0533L41.574 47.5789C40.4045 47.21 39.5484 46.1278 39.5484 44.8379C39.5484 44.3577 39.9373 43.9683 40.418 43.9683C40.8986 43.9683 41.2875 44.3577 41.2875 44.8379C41.2875 45.4705 41.8021 45.9855 42.4348 45.9855C43.0674 45.9855 43.5829 45.4705 43.5829 44.8379C43.5829 44.2048 43.0674 43.6898 42.4339 43.6898C40.8417 43.6898 39.5458 42.3948 39.5458 40.803C39.5458 39.5198 40.3931 38.4422 41.5536 38.0677L41.5474 37.6113C41.5406 37.1311 41.9253 36.7367 42.4051 36.7299C42.4093 36.7299 42.4135 36.7299 42.4169 36.7299C42.8916 36.7299 43.2797 37.1116 43.2865 37.5875L43.293 38.0617C44.4629 38.4303 45.3195 39.5127 45.3195 40.803C45.3195 41.2832 44.9305 41.6726 44.4499 41.6726C43.9693 41.6726 43.5803 41.2832 43.5803 40.803C43.5803 40.1703 43.0657 39.6553 42.4331 39.6553C41.8004 39.6553 41.285 40.1704 41.285 40.803C41.285 41.4356 41.8004 41.9507 42.4339 41.9507C44.0261 41.9507 45.322 43.2457 45.322 44.8379C45.322 46.1214 44.4744 47.1991 43.3134 47.5734Z" fill="#2aa79f"/>
</svg>
