<svg width="80" height="80" viewBox="0 0 80 80" fill="none" xmlns="http://www.w3.org/2000/svg">
<g clip-path="url(#clip0_226_6)">
<path d="M26.3733 74.4311C32.1221 68.6824 32.1221 59.3618 26.3733 53.6131C20.6246 47.8643 11.304 47.8643 5.55527 53.6131C-0.193479 59.3618 -0.193481 68.6824 5.55527 74.4311C11.304 80.1799 20.6246 80.1799 26.3733 74.4311Z" fill="#9EF4E5"/>
<path d="M74.4278 26.3869C80.1765 20.6382 80.1765 11.3176 74.4278 5.56888C68.679 -0.179869 59.3585 -0.179868 53.6097 5.56888C47.861 11.3176 47.861 20.6382 53.6097 26.3869C59.3585 32.1357 68.679 32.1357 74.4278 26.3869Z" fill="#9EF4E5"/>
<path d="M74.4226 74.4363C80.1714 68.6875 80.1714 59.3669 74.4226 53.6182C68.6739 47.8694 59.3533 47.8694 53.6046 53.6182C47.8558 59.3669 47.8558 68.6875 53.6046 74.4362C59.3533 80.185 68.6739 80.185 74.4226 74.4363Z" fill="#9EF4E5"/>
<path d="M15.9728 75.9375C8.31609 75.9375 2.02531 70.0924 1.31719 62.621C1.27328 63.0839 1.25 63.5528 1.25 64.0272C1.25 72.1585 7.84172 78.75 15.9728 78.75C24.1041 78.75 30.6956 72.1585 30.6956 64.0272C30.6956 63.5528 30.6722 63.0839 30.6284 62.621C29.9203 70.0924 23.6295 75.9375 15.9728 75.9375V75.9375Z" fill="#2B9595"/>
<path d="M64.0273 75.9375C56.3705 75.9375 50.0798 70.0924 49.3716 62.621C49.3277 63.0839 49.3044 63.5528 49.3044 64.0272C49.3044 72.1583 55.8962 78.75 64.0273 78.75C72.1585 78.75 78.7501 72.1585 78.7501 64.0272C78.7501 63.5528 78.7268 63.0839 78.6829 62.621C77.9748 70.0924 71.684 75.9375 64.0273 75.9375Z" fill="#2B9595"/>
<path d="M26.3784 26.3819C32.1272 20.6331 32.1272 11.3126 26.3784 5.56381C20.6297 -0.184935 11.3091 -0.184935 5.56039 5.56381C-0.188352 11.3126 -0.188352 20.6331 5.56039 26.3819C11.3091 32.1306 20.6297 32.1306 26.3784 26.3819Z" fill="#9EF4E5"/>
<path d="M64.0273 27.8832C56.3705 27.8832 50.0798 22.038 49.3716 14.5666C49.3277 15.0296 49.3044 15.4985 49.3044 15.9728C49.3044 24.1041 55.8962 30.6957 64.0273 30.6957C72.1583 30.6957 78.7501 24.1041 78.7501 15.9728C78.7501 15.4985 78.7268 15.0296 78.6829 14.5666C77.9748 22.038 71.684 27.8832 64.0273 27.8832Z" fill="#2B9595"/>
<path d="M15.9728 27.8832C8.31609 27.8832 2.02531 22.038 1.31719 14.5666C1.27328 15.0296 1.25 15.4985 1.25 15.9728C1.25 24.1041 7.84172 30.6957 15.9728 30.6957C24.1041 30.6957 30.6956 24.1041 30.6956 15.9728C30.6956 15.4985 30.6722 15.0296 30.6284 14.5666C29.9203 22.038 23.6295 27.8832 15.9728 27.8832V27.8832Z" fill="#2B9595"/>
<path d="M30.6317 14.6047C33.6022 13.4318 36.8392 12.7871 40.2267 12.7871C43.4488 12.7871 46.5339 13.3716 49.3839 14.4378C49.6183 12.1761 50.365 10.0668 51.5055 8.22707C47.9897 6.93488 44.1908 6.22894 40.2267 6.22894C36.1241 6.22894 32.1989 6.98691 28.5808 8.3666C29.7005 10.2186 30.4228 12.3372 30.6317 14.6047V14.6047Z" fill="#9EF4E5"/>
<path d="M64.2163 49.3069C66.5338 49.3361 68.7222 49.9002 70.6637 50.8822C72.1202 47.178 72.9205 43.1439 72.9205 38.9227C72.9205 35.378 72.3541 31.9663 71.3108 28.77C69.4358 29.8396 67.3029 30.5081 65.0283 30.661C65.893 33.2578 66.3624 36.0353 66.3624 38.9227C66.3624 42.613 65.596 46.1238 64.2163 49.3069V49.3069Z" fill="#9EF4E5"/>
<path d="M15.9728 49.3044C16.0612 49.3044 16.1494 49.3063 16.2375 49.3079C14.8575 46.1244 14.0909 42.6133 14.0909 38.9229C14.0909 36.0441 14.5576 33.2746 15.4175 30.6843C13.1312 30.5994 10.9784 29.9936 9.0739 28.9814C8.07421 32.1166 7.53296 35.4563 7.53296 38.9229C7.53296 43.0736 8.30827 47.0428 9.71905 50.6961C11.6173 49.8039 13.7366 49.3044 15.9728 49.3044Z" fill="#9EF4E5"/>
<path d="M49.3044 64.0272C49.3044 63.828 49.3096 63.6301 49.3174 63.4329C46.486 64.4835 43.4236 65.0585 40.2267 65.0585C36.856 65.0585 33.6342 64.4199 30.6756 63.2579C30.6888 63.5127 30.6955 63.7691 30.6955 64.0272C30.6955 66.0833 30.2735 68.0407 29.5122 69.8182C32.8691 70.9822 36.4736 71.6165 40.2266 71.6165C43.833 71.6165 47.3022 71.031 50.5464 69.9526C49.7485 68.1394 49.3044 66.1354 49.3044 64.0272V64.0272Z" fill="#9EF4E5"/>
<path d="M7.56567 40.3721C7.72427 43.998 8.47349 47.4704 9.71911 50.696C9.99005 50.5686 10.2658 50.4503 10.5455 50.3393C9.05114 47.256 8.02708 43.9025 7.56567 40.3721V40.3721Z" fill="#2B9595"/>
<path d="M72.6966 35.0913C72.7066 35.4233 72.7132 35.7562 72.7132 36.0907C72.7132 41.1982 71.5419 46.0319 69.4546 50.3391C69.8668 50.5027 70.2704 50.6833 70.6633 50.8822C72.1199 47.178 72.9202 43.144 72.9202 38.9227C72.9204 37.6265 72.8438 36.348 72.6966 35.0913V35.0913Z" fill="#2B9595"/>
<path d="M40.0001 68.8039C36.6296 68.8039 33.3784 68.2936 30.319 67.3471C30.122 68.2014 29.8509 69.0275 29.5125 69.818C32.8693 70.982 36.4739 71.6163 40.2268 71.6163C43.8332 71.6163 47.3024 71.0308 50.5467 69.9524C50.1809 69.1213 49.8904 68.2497 49.6821 67.3467C46.6223 68.2936 43.3709 68.8039 40.0001 68.8039V68.8039Z" fill="#2B9595"/>
<path d="M49.8564 49.865C55.3047 44.4167 55.3047 35.5833 49.8564 30.135C44.4081 24.6868 35.5747 24.6868 30.1264 30.135C24.6782 35.5833 24.6782 44.4167 30.1264 49.865C35.5747 55.3132 44.4081 55.3132 49.8564 49.865Z" fill="#9EF4E5"/>
<path d="M19.0446 57.5322C19.6932 57.5322 20.2188 57.0066 20.2188 56.358C20.2188 55.7094 19.6932 55.1838 19.0446 55.1838C16.3926 55.1838 14.4815 55.6955 13.0299 56.7939C11.8732 57.6692 11.0697 58.9047 10.6232 60.4825H9.39053C8.74193 60.4825 8.21631 61.0082 8.21631 61.6567C8.21631 62.3053 8.74193 62.831 9.39053 62.831H10.239C10.2185 63.1486 10.2057 63.4735 10.2057 63.8102C10.2057 64.1469 10.2185 64.4719 10.239 64.7896H9.39053C8.74193 64.7896 8.21631 65.3152 8.21631 65.9638C8.21631 66.6124 8.74193 67.138 9.39053 67.138H10.6232C11.0697 68.7157 11.8733 69.951 13.0299 70.8264C14.4815 71.925 16.3926 72.4367 19.0446 72.4367C19.6932 72.4367 20.2188 71.9111 20.2188 71.2625C20.2188 70.6139 19.6932 70.0883 19.0446 70.0883C15.821 70.0883 13.9335 69.1974 13.0888 67.1378H17.2349C17.8835 67.1378 18.4091 66.6122 18.4091 65.9636C18.4091 65.315 17.8835 64.7894 17.2349 64.7894H12.5891C12.5665 64.4777 12.554 64.1525 12.554 63.81C12.554 63.4675 12.5665 63.1425 12.5891 62.8308H17.2351C17.8837 62.8308 18.4093 62.3052 18.4093 61.6566C18.4093 61.008 17.8837 60.4824 17.2351 60.4824H13.089C13.9335 58.4232 15.8212 57.5322 19.0446 57.5322V57.5322Z" fill="#2B9595"/>
<path d="M58.7937 16.8358H60.9926L61.0092 16.978C61.1806 18.512 61.0907 19.0841 59.8648 20.7305L58.6328 22.2794C58.0184 23.0023 58.5929 24.207 59.5413 24.1845L69.1734 24.2697H69.1839C69.8274 24.2697 70.3521 23.7508 70.3579 23.1059C70.3635 22.4575 69.8426 21.9272 69.1942 21.9214L61.9501 21.8573C63.2538 20.0423 63.5671 18.8892 63.3546 16.8359H65.5584C66.207 16.8359 66.7326 16.3103 66.7326 15.6617C66.7326 15.0131 66.207 14.4875 65.5584 14.4875H62.7853C62.3154 13.7859 61.4973 12.3111 61.5026 11.0964C61.5026 11.0948 61.5024 11.0933 61.5024 11.0917C61.5024 11.0901 61.5026 11.0886 61.5026 11.087C61.4996 10.2991 61.8432 9.72124 62.5526 9.32077C63.6262 8.71499 65.2948 8.70546 66.272 9.29952C67.0359 9.76405 67.6139 10.4169 67.7804 11.0034C67.9574 11.6272 68.6067 11.9897 69.2306 11.8123C69.8543 11.6353 70.2165 10.9861 70.0395 10.3622C69.7082 9.19436 68.7795 8.07561 67.4921 7.29296C65.7834 6.25374 63.2203 6.24702 61.3981 7.27577C59.9507 8.09311 59.1549 9.44249 59.1548 11.077C59.1548 11.0801 59.1543 11.0831 59.1543 11.0862C59.1543 11.0876 59.1545 11.0891 59.1545 11.0905C59.1545 11.0922 59.1543 11.0937 59.1543 11.0956C59.1543 11.1005 59.1549 11.105 59.1551 11.1098C59.1556 12.3395 59.6059 13.5559 60.0724 14.4873H58.7938C58.1453 14.4873 57.6196 15.013 57.6196 15.6616C57.6195 16.3101 58.1451 16.8358 58.7937 16.8358V16.8358Z" fill="#2B9595"/>
<path d="M72.1767 50.3689C73.4914 46.7033 74.1591 42.8575 74.1591 38.9206C74.1591 35.6355 73.6883 32.3927 72.7617 29.2667C77.1162 26.4214 80 21.5044 80 15.9258C80 7.14422 72.8558 0 64.0742 0C58.7038 0 53.9459 2.6725 51.0598 6.75687C47.5781 5.58406 43.9389 4.98859 40.2272 4.98859C36.3853 4.98859 32.6231 5.62688 29.0286 6.88438C26.1519 2.72828 21.3517 0 15.9258 0C7.14422 0 0 7.14422 0 15.9258C0 21.6664 3.05344 26.707 7.62125 29.5098C6.74203 32.5605 6.29531 35.7214 6.29531 38.9206C6.29531 42.7755 6.93781 46.548 8.20234 50.1509C3.31437 52.8731 0 58.0936 0 64.0742C0 72.8558 7.14422 80 15.9258 80C22.102 80 27.4683 76.4659 30.1089 71.3139C33.3761 72.3341 36.7745 72.8525 40.2272 72.8525C43.5403 72.8525 46.8072 72.3745 49.9544 71.4339C52.6164 76.5205 57.9463 80 64.0742 80C72.8558 80 80 72.8558 80 64.0742C80 58.2495 76.8561 53.1459 72.1767 50.3689V50.3689ZM64.0742 2.34828C71.5608 2.34828 77.6516 8.43906 77.6516 15.9256C77.6516 23.4123 71.5608 29.5031 64.0742 29.5031C56.5875 29.5031 50.4967 23.4123 50.4967 15.9256C50.4967 8.43922 56.5875 2.34828 64.0742 2.34828ZM66.6084 31.6492C68.0273 31.4214 69.3844 31.0059 70.6528 30.4283C71.4209 33.1845 71.8106 36.0348 71.8106 38.9206C71.8106 42.493 71.2203 45.9837 70.0581 49.3162C68.7639 48.7895 67.3858 48.4286 65.9494 48.2594C67.0362 45.2728 67.5881 42.1392 67.5881 38.9206C67.5881 36.4492 67.2581 34.0098 66.6084 31.6492V31.6492ZM40.2272 7.33703C43.5103 7.33703 46.732 7.83594 49.8238 8.82156C49.1984 10.0706 48.7327 11.4127 48.4531 12.8211C45.7995 11.9845 43.0392 11.5595 40.2272 11.5595C37.2583 11.5595 34.3544 12.0305 31.5731 12.9581C31.3064 11.5484 30.8536 10.2039 30.2408 8.95125C33.4533 7.88016 36.8061 7.33703 40.2272 7.33703ZM2.34828 15.9258C2.34828 8.43922 8.43906 2.34844 15.9256 2.34844C23.4123 2.34844 29.5031 8.43922 29.5031 15.9258C29.5031 23.4125 23.4123 29.5033 15.9256 29.5033C8.43922 29.5033 2.34828 23.4123 2.34828 15.9258ZM14.4886 48.2139C13.0431 48.3438 11.6527 48.6673 10.3436 49.1589C9.21625 45.8709 8.64359 42.433 8.64359 38.9205C8.64359 36.0972 9.01672 33.3067 9.75219 30.6059C11.0344 31.1472 12.4019 31.5247 13.8281 31.7131C13.19 34.0542 12.8661 36.4719 12.8661 38.9205C12.8661 42.123 13.4127 45.2409 14.4886 48.2139V48.2139ZM15.9258 77.6517C8.43922 77.6517 2.34844 71.5609 2.34844 64.0744C2.34844 56.5877 8.43922 50.4969 15.9258 50.4969C23.4125 50.4969 29.5033 56.5877 29.5033 64.0744C29.5033 71.5608 23.4123 77.6517 15.9258 77.6517V77.6517ZM40.2272 70.5042C37.0889 70.5042 33.9995 70.0452 31.0253 69.14C31.4703 67.817 31.7456 66.4169 31.8261 64.9655C34.5309 65.8384 37.3489 66.2816 40.227 66.2816C42.9436 66.2816 45.612 65.8852 48.1825 65.1044C48.2753 66.5512 48.5617 67.9461 49.017 69.2633C46.17 70.087 43.2191 70.5042 40.2272 70.5042V70.5042ZM48.2147 62.6284C45.6473 63.4937 42.9642 63.9333 40.2272 63.9333C37.3184 63.9333 34.4777 63.4392 31.7708 62.4662C30.997 54.7852 24.7423 48.6981 16.9884 48.1847C15.8116 45.2387 15.2144 42.1261 15.2144 38.9206C15.2144 36.5122 15.5566 34.1373 16.2305 31.8478C24.8717 31.6845 31.8514 24.6053 31.8514 15.9258C31.8514 15.733 31.8467 15.5414 31.8398 15.3503C34.5252 14.3939 37.3422 13.908 40.2269 13.908C42.9464 13.908 45.6125 14.3422 48.1655 15.1969C48.1545 15.4386 48.1481 15.6814 48.1481 15.9258C48.1481 24.7073 55.2925 31.8517 64.0741 31.8517C64.1242 31.8517 64.1741 31.8503 64.2242 31.8498C64.8977 34.1384 65.2395 36.5127 65.2395 38.9208C65.2395 42.1175 64.6455 45.2219 63.4747 48.1609C55.4533 48.4592 48.93 54.7183 48.2147 62.6284ZM64.0742 77.6517C56.5875 77.6517 50.4967 71.5609 50.4967 64.0744C50.4967 56.5877 56.5875 50.4969 64.0742 50.4969C71.5608 50.4969 77.6516 56.5877 77.6516 64.0744C77.6517 71.5608 71.5608 77.6517 64.0742 77.6517Z" fill="#2B9595"/>
<path d="M69.558 55.5499C69.017 55.1916 68.2886 55.3402 67.9308 55.8808L64.0992 61.6702L60.23 55.8411C59.8713 55.3006 59.1424 55.1536 58.6024 55.512C58.062 55.8708 57.9149 56.5995 58.2733 57.1397L62.3649 63.3035H59.2616C58.613 63.3035 58.0874 63.8291 58.0874 64.4777C58.0874 65.1263 58.613 65.6519 59.2616 65.6519H62.9214L62.9175 67.3003H59.2614C58.6128 67.3003 58.0872 67.826 58.0872 68.4745C58.0872 69.1231 58.6128 69.6488 59.2614 69.6488H62.9122L62.9075 71.6686C62.906 72.3172 63.4305 72.8439 64.0789 72.8455H64.0817C64.7289 72.8455 65.2544 72.3216 65.256 71.6741L65.2606 69.6488H68.9C69.5486 69.6488 70.0742 69.1231 70.0742 68.4745C70.0742 67.826 69.5486 67.3003 68.9 67.3003H65.266L65.2697 65.6519H68.8999C69.5485 65.6519 70.0741 65.1263 70.0741 64.4777C70.0741 63.8291 69.5485 63.3035 68.8999 63.3035H65.8342L69.8889 57.177C70.2469 56.6363 70.0988 55.9077 69.558 55.5499V55.5499Z" fill="#2B9595"/>
<path d="M17.0144 24.592V23.6547C19.0724 23.1549 20.3924 21.4069 20.6822 19.6835C21.0574 17.4516 19.8914 15.5116 17.7119 14.7413C17.4824 14.6602 17.2485 14.5758 17.0144 14.4886V10.4186C17.5107 10.5885 17.8008 10.8335 17.8235 10.8533C18.0349 11.0581 18.3227 11.1847 18.6405 11.1847C19.2894 11.1847 19.8157 10.6586 19.8157 10.0095C19.8157 9.65205 19.6558 9.33205 19.4039 9.11658C19.3494 9.06611 18.4653 8.27017 17.0146 7.99751V7.25955C17.0146 6.61095 16.4889 6.08533 15.8403 6.08533C15.1917 6.08533 14.6661 6.61095 14.6661 7.25955V8.07986C14.575 8.10283 14.483 8.12814 14.3899 8.15611C12.9453 8.59127 11.8663 9.82501 11.5741 11.3761C11.3063 12.7975 11.7664 14.1717 12.7749 14.9627C13.2635 15.3458 13.8613 15.697 14.6661 16.0635V21.4042C14.0622 21.3294 13.6207 21.1388 12.92 20.6805C12.3777 20.3256 11.6497 20.4775 11.2947 21.0203C10.9397 21.563 11.0919 22.2906 11.6346 22.6456C12.8196 23.4208 13.6502 23.6836 14.6661 23.7641V24.5917C14.6661 25.2403 15.1917 25.766 15.8403 25.766C16.4888 25.7661 17.0144 25.2405 17.0144 24.592V24.592ZM17.0144 16.9877C18.5275 17.572 18.4332 18.896 18.3663 19.2939C18.2455 20.0124 17.7867 20.77 17.0144 21.167V16.9877ZM14.6661 13.4178C14.5052 13.3191 14.3558 13.2185 14.2241 13.115C13.913 12.8708 13.7785 12.3591 13.8817 11.8113C13.9622 11.3847 14.2088 10.8874 14.6661 10.5913V13.4178Z" fill="#2B9595"/>
<path d="M39.9999 24.8453C31.6437 24.8453 24.8452 31.6438 24.8452 40C24.8452 48.3563 31.6437 55.1547 39.9999 55.1547C48.3562 55.1547 55.1546 48.3563 55.1546 40C55.1546 31.6438 48.3562 24.8453 39.9999 24.8453ZM51.3943 34.1658H47.0088C46.6751 32.4985 46.1979 30.9594 45.5882 29.6261C45.3396 29.0824 45.0727 28.5825 44.7902 28.1267C47.6476 29.2836 49.994 31.4422 51.3943 34.1658ZM45.2185 40C45.2185 41.2272 45.1447 42.3925 45.0124 43.486H34.9874C34.8551 42.3925 34.7812 41.2272 34.7812 40C34.7812 38.7728 34.8549 37.6075 34.9874 36.5141H45.0122C45.1447 37.6075 45.2185 38.7728 45.2185 40ZM39.9999 27.1936C41.7635 27.1936 43.6705 29.8797 44.616 34.1657H35.384C36.3293 29.8797 38.2363 27.1936 39.9999 27.1936ZM35.2097 28.1266C34.9272 28.5825 34.6604 29.0822 34.4118 29.626C33.8021 30.9592 33.3249 32.4982 32.9912 34.1657H28.6057C30.0058 31.4422 32.3522 29.2836 35.2097 28.1266V28.1266ZM27.1935 40C27.1935 38.7916 27.3654 37.6232 27.6797 36.5141H32.626C32.4991 37.6435 32.4329 38.8114 32.4329 40C32.4329 41.1886 32.499 42.3566 32.626 43.486H27.6797C27.3654 42.3769 27.1935 41.2085 27.1935 40ZM28.6055 45.8344H32.991C33.3247 47.5017 33.8019 49.0408 34.4116 50.3741C34.6602 50.9178 34.9271 51.4177 35.2096 51.8735C32.3522 50.7164 30.0058 48.5578 28.6055 45.8344V45.8344ZM39.9999 52.8064C38.2363 52.8064 36.3293 50.1203 35.3838 45.8344H44.6158C43.6705 50.1203 41.7635 52.8064 39.9999 52.8064V52.8064ZM44.7893 51.8738C45.0719 51.4177 45.3393 50.9182 45.588 50.3739C46.1977 49.0407 46.6749 47.5017 47.0087 45.8342H51.3941C49.9938 48.5581 47.6471 50.7169 44.7893 51.8738V51.8738ZM47.3738 43.486C47.5007 42.3566 47.5668 41.1885 47.5668 40C47.5668 38.8114 47.5007 37.6435 47.3738 36.5141H52.3201C52.6344 37.6233 52.8063 38.7916 52.8063 40C52.8063 41.2085 52.6344 42.3769 52.3201 43.486H47.3738Z" fill="#2B9595"/>
</g>
<defs>
<clipPath id="clip0_226_6">
<rect width="80" height="80" fill="white"/>
</clipPath>
</defs>
</svg>
