<svg width="80" height="80" viewBox="0 0 80 80" fill="none" xmlns="http://www.w3.org/2000/svg">
<path d="M2 58.3204H78V47.7827H2V58.3204ZM36.3608 51.495H43.7854C44.173 51.495 44.5448 51.649 44.8188 51.9231C45.0929 52.1972 45.2469 52.5689 45.2469 52.9566C45.2469 53.3442 45.0929 53.7159 44.8188 53.99C44.5448 54.2641 44.173 54.4181 43.7854 54.4181H36.3608C35.9731 54.4181 35.6014 54.2641 35.3273 53.99C35.0532 53.7159 34.8992 53.3442 34.8992 52.9566C34.8992 52.5689 35.0532 52.1972 35.3273 51.9231C35.6014 51.649 35.9731 51.495 36.3608 51.495V51.495Z" fill="#2B9595"/>
<path d="M2 7.75116V44.8596H78V7.75116H2Z" fill="#2B9595"/>
<path d="M47.0155 61.2435H32.4001L23.5286 69.735C23.3192 69.9369 23.1747 70.1966 23.1138 70.481C23.0528 70.7654 23.0781 71.0615 23.1864 71.3315C23.2947 71.6014 23.4811 71.8329 23.7217 71.9964C23.9623 72.1598 24.2462 72.2477 24.537 72.2489H54.8786C55.1713 72.2491 55.4574 72.1615 55.6997 71.9973C55.942 71.8332 56.1295 71.6 56.2378 71.3281C56.3443 71.0578 56.3678 70.7618 56.3054 70.4781C56.2429 70.1943 56.0972 69.9356 55.887 69.735L47.0155 61.2435Z" fill="#2B9595"/>
<path d="M27.0561 27.6654H25.3051V20.2704H22.7211L16.7031 27.6654V30.0794H22.7211V32.3404H25.3051V30.0794H27.0561V27.6654ZM19.9501 27.6654L22.7211 24.1804V27.6654H19.9501Z" fill="#9EF4E5"/>
<path d="M33.089 20.1004C30.675 20.1004 28.295 21.5794 28.295 24.5884V28.0224C28.295 31.0144 30.675 32.5104 33.089 32.5104C35.503 32.5104 37.883 31.0144 37.883 28.0224V24.5884C37.883 21.5794 35.503 20.1004 33.089 20.1004ZM33.089 30.0794C31.899 30.0794 30.862 29.3484 30.862 28.0224V24.5884C30.862 23.2624 31.899 22.5144 33.089 22.5144C34.262 22.5144 35.299 23.2624 35.299 24.5884V28.0224C35.299 29.3484 34.262 30.0794 33.089 30.0794Z" fill="#9EF4E5"/>
<path d="M44.2619 20.1004C41.8479 20.1004 39.4679 21.5794 39.4679 24.5884V28.0224C39.4679 31.0144 41.8479 32.5104 44.2619 32.5104C46.6759 32.5104 49.0559 31.0144 49.0559 28.0224V24.5884C49.0559 21.5794 46.6759 20.1004 44.2619 20.1004ZM44.2619 30.0794C43.0719 30.0794 42.0349 29.3484 42.0349 28.0224V24.5884C42.0349 23.2624 43.0719 22.5144 44.2619 22.5144C45.4349 22.5144 46.4719 23.2624 46.4719 24.5884V28.0224C46.4719 29.3484 45.4349 30.0794 44.2619 30.0794Z" fill="#9EF4E5"/>
<path d="M52.5086 26.6284C53.2056 26.6284 53.7496 26.0844 53.7496 25.3704C53.7496 24.6734 53.2056 24.1294 52.5086 24.1294C51.8116 24.1294 51.2676 24.6734 51.2676 25.3704C51.2676 26.0844 51.8116 26.6284 52.5086 26.6284ZM52.5086 32.5104C53.2056 32.5104 53.7496 31.9664 53.7496 31.2694C53.7496 30.5724 53.2056 30.0284 52.5086 30.0284C51.8116 30.0284 51.2676 30.5724 51.2676 31.2694C51.2676 31.9664 51.8116 32.5104 52.5086 32.5104Z" fill="#9EF4E5"/>
<path d="M60.8152 29.9094V20.2704L55.8682 21.2734V23.8064L58.2482 23.3304V29.9094H55.7662V32.3404H63.2972V29.9094H60.8152Z" fill="#9EF4E5"/>
</svg>
