<svg width="80" height="81" viewBox="0 0 80 81" fill="none" xmlns="http://www.w3.org/2000/svg">
<g clip-path="url(#clip0_230_269)">
<path d="M8.22827 14.6672L19.3567 3.88098L27.0612 9.01731L33.2247 3.88098H41.4428H62.5015L70.5483 9.01731L73.2877 15.5233V73.392L71.5756 76.9874L65.9257 78.3571H15.0765L11.1387 74.7617V33.6714L12.5084 20.8307L8.22827 14.6672Z" fill="#9EF4E5"/>
<path d="M58.841 0.562744H35.7579C33.2491 0.562744 30.8908 1.54024 29.1169 3.31509L26.1677 6.26618L21.1538 1.24931C20.2391 0.33415 18.756 0.33415 17.8413 1.24931L5.52988 13.5681C4.61504 14.4832 4.61504 15.9673 5.52988 16.8826L10.5663 21.922C9.11488 23.6207 8.32129 25.7567 8.32129 28.0157V73.6185C8.32129 77.4476 11.4346 80.5626 15.2613 80.5626H68.2163C72.043 80.5627 75.1563 77.4476 75.1563 73.6187V16.8877C75.1563 7.88618 67.8372 0.562744 58.841 0.562744V0.562744ZM19.4975 6.22103L22.8552 9.58071L13.8564 18.5849L10.4986 15.2252L19.4975 6.22103ZM70.4716 73.6187C70.4716 74.8631 69.4599 75.8752 68.2163 75.8752H15.2613C14.0177 75.8752 13.006 74.8629 13.006 73.6187V28.0157C13.006 26.7576 13.4957 25.5749 14.3846 24.6854L32.4296 6.62962C33.3186 5.74024 34.5005 5.25024 35.7579 5.25024H58.841C65.2541 5.25024 70.4716 10.4709 70.4716 16.8877V73.6187Z" fill="#2B9595"/>
<path d="M58.7598 9.93774H42.6757C38.8009 9.93774 35.6487 13.092 35.6487 16.969C35.6487 20.846 38.8009 24.0002 42.6757 24.0002H58.7598C62.6346 24.0002 65.7868 20.846 65.7868 16.969C65.7868 13.092 62.6346 9.93774 58.7598 9.93774ZM58.7598 19.3127H42.6757C41.384 19.3127 40.3334 18.2613 40.3334 16.969C40.3334 15.6767 41.384 14.6252 42.6757 14.6252H58.7598C60.0515 14.6252 61.1021 15.6767 61.1021 16.969C61.1021 18.2613 60.0513 19.3127 58.7598 19.3127Z" fill="#2B9595"/>
<path d="M59.1669 37.2199C60.0817 36.3047 60.0817 34.8207 59.1669 33.9054C58.2522 32.9902 56.7691 32.9902 55.8544 33.9054L47.7956 41.969H35.6819L27.6231 33.9055C26.7085 32.9904 25.2253 32.9904 24.3106 33.9055C23.3958 34.8207 23.3958 36.3047 24.3106 37.22L32.3694 45.2835V57.4044L24.3106 65.4679C23.3958 66.383 23.3958 67.8671 24.3106 68.7824C25.2253 69.6977 26.7085 69.6977 27.6231 68.7824L35.6819 60.719H47.7956L55.8544 68.7824C56.7691 69.6977 58.2522 69.6977 59.1669 68.7824C60.0817 67.8672 60.0817 66.3832 59.1669 65.4679L51.1081 57.4044V45.2835L59.1669 37.2199ZM37.0541 46.6565H46.4235V56.0315H37.0541V46.6565Z" fill="#2B9595"/>
</g>
<defs>
<clipPath id="clip0_230_269">
<rect width="80" height="80" fill="white" transform="translate(0 0.562744)"/>
</clipPath>
</defs>
</svg>
