<svg width="28" height="28" viewBox="0 0 28 28" fill="none" xmlns="http://www.w3.org/2000/svg">
<path fill-rule="evenodd" clip-rule="evenodd" d="M7.39353 0.696989L8.94803 2.25149L10.5338 0.665691H23.5019C23.815 0.660148 24.1261 0.717041 24.417 0.833049C24.7079 0.949056 24.9728 1.12185 25.1961 1.34135C25.4195 1.56085 25.597 1.82265 25.718 2.11147C25.8391 2.40029 25.9015 2.71034 25.9014 3.02352V25.6315C25.9015 25.9452 25.8392 26.2557 25.7182 26.5451C25.5972 26.8345 25.42 27.097 25.1968 27.3173C24.9735 27.5376 24.7087 27.7114 24.4178 27.8286C24.1268 27.9457 23.8155 28.0039 23.5019 27.9998H5.02527C4.71252 28.0025 4.40231 27.9433 4.11257 27.8255C3.82283 27.7078 3.55928 27.5338 3.33715 27.3136C3.11503 27.0934 2.93871 26.8314 2.81839 26.5427C2.69807 26.254 2.63613 25.9443 2.63615 25.6315V8.53207L4.25324 6.94627L2.68831 5.39178C2.24744 4.94809 2 4.348 2 3.72252C2 3.09704 2.24744 2.49695 2.68831 2.05326L4.05501 0.696989C4.27333 0.476184 4.53328 0.300885 4.81981 0.181244C5.10634 0.061604 5.41377 0 5.72427 0C6.03478 0 6.3422 0.061604 6.62874 0.181244C6.91527 0.300885 7.17522 0.476184 7.39353 0.696989ZM6.09986 5.09966L7.14314 4.05637C7.24253 3.95664 7.29833 3.82158 7.29833 3.68079C7.29833 3.53999 7.24253 3.40494 7.14314 3.3052L6.09986 2.26192C6.00013 2.16253 5.86507 2.10673 5.72427 2.10673C5.58348 2.10673 5.44842 2.16253 5.34869 2.26192L4.3054 3.3052C4.20602 3.40494 4.15021 3.53999 4.15021 3.68079C4.15021 3.82158 4.20602 3.95664 4.3054 4.05637L5.34869 5.09966C5.44842 5.19904 5.58348 5.25485 5.72427 5.25485C5.86507 5.25485 6.00013 5.19904 6.09986 5.09966ZM11.3998 2.75226L4.72272 9.398V25.9132H23.8149V2.75226H11.3998Z" fill="#001E32"/>
<path fill-rule="evenodd" clip-rule="evenodd" d="M18.755 13.79C18.7527 13.6393 18.8087 13.4935 18.9114 13.3831L20.4242 11.8808C20.5396 11.762 20.6041 11.603 20.6041 11.4374C20.6041 11.2718 20.5396 11.1128 20.4242 10.994L19.8295 10.4097C19.7721 10.3501 19.7032 10.3027 19.6271 10.2703C19.5509 10.2379 19.4689 10.2212 19.3861 10.2212C19.3033 10.2212 19.2214 10.2379 19.1452 10.2703C19.069 10.3027 19.0002 10.3501 18.9427 10.4097L17.4404 11.9121C17.3349 12.017 17.1928 12.0769 17.044 12.079H11.525C11.3762 12.0769 11.234 12.017 11.1285 11.9121L9.61576 10.4097C9.55925 10.3504 9.49127 10.3032 9.41594 10.2709C9.34062 10.2386 9.25953 10.222 9.17758 10.222C9.09563 10.222 9.01454 10.2386 8.93922 10.2709C8.8639 10.3032 8.79592 10.3504 8.7394 10.4097L8.14473 10.994C8.02937 11.1128 7.96484 11.2718 7.96484 11.4374C7.96484 11.603 8.02937 11.762 8.14473 11.8808L9.65749 13.3831C9.7602 13.4935 9.81627 13.6393 9.81399 13.79V19.2985C9.81627 19.4493 9.7602 19.5951 9.65749 19.7054L8.14473 21.2078C8.02937 21.3265 7.96484 21.4856 7.96484 21.6512C7.96484 21.8167 8.02937 21.9758 8.14473 22.0945L8.7394 22.6788C8.79592 22.7381 8.8639 22.7854 8.93922 22.8177C9.01454 22.8499 9.09563 22.8666 9.17758 22.8666C9.25953 22.8666 9.34062 22.8499 9.41594 22.8177C9.49127 22.7854 9.55925 22.7381 9.61576 22.6788L11.1285 21.1765C11.234 21.0715 11.3762 21.0117 11.525 21.0095H17.044C17.1928 21.0117 17.3349 21.0715 17.4404 21.1765L18.9427 22.6788C19.0002 22.7384 19.069 22.7859 19.1452 22.8183C19.2214 22.8507 19.3033 22.8674 19.3861 22.8674C19.4689 22.8674 19.5509 22.8507 19.6271 22.8183C19.7032 22.7859 19.7721 22.7384 19.8295 22.6788L20.4242 22.0945C20.5396 21.9758 20.6041 21.8167 20.6041 21.6512C20.6041 21.4856 20.5396 21.3265 20.4242 21.2078L18.9114 19.7054C18.8087 19.5951 18.7527 19.4493 18.755 19.2985V13.79ZM16.0946 18.923H12.4639C12.3145 18.923 12.1712 18.8636 12.0656 18.758C11.9599 18.6523 11.9006 18.509 11.9006 18.3596V14.7289C11.9006 14.5795 11.9599 14.4362 12.0656 14.3306C12.1712 14.2249 12.3145 14.1656 12.4639 14.1656H16.0946C16.245 14.1655 16.3894 14.2246 16.4967 14.3299C16.604 14.4353 16.6656 14.5786 16.6684 14.7289V18.3596C16.6656 18.51 16.604 18.6532 16.4967 18.7586C16.3894 18.864 16.245 18.923 16.0946 18.923ZM13.4446 5.22461H20.8728C21.0222 5.22461 21.1655 5.28396 21.2712 5.38962C21.3768 5.49527 21.4362 5.63857 21.4362 5.78798V6.74781C21.4362 6.89722 21.3768 7.04052 21.2712 7.14617C21.1655 7.25183 21.0222 7.31118 20.8728 7.31118H13.4446C13.2952 7.31118 13.1519 7.25183 13.0463 7.14617C12.9406 7.04052 12.8812 6.89722 12.8812 6.74781V5.78798C12.8812 5.63857 12.9406 5.49527 13.0463 5.38962C13.1519 5.28396 13.2952 5.22461 13.4446 5.22461Z" fill="#64CEB8"/>
</svg>
