<svg width="28" height="28" viewBox="0 0 28 28" fill="none" xmlns="http://www.w3.org/2000/svg">
<g clip-path="url(#clip0_606_1176)">
<path d="M13.7426 24.2501L12.6526 20.2501C12.4544 19.5907 12.0463 19.0141 11.4903 18.608C10.9344 18.2018 10.261 17.9884 9.57257 18.0001H4.25257C3.56378 17.9867 2.88959 18.1996 2.33329 18.6059C1.777 19.0123 1.36927 19.5899 1.17256 20.2501L0.0825608 24.2501C-0.0275203 24.6764 -0.0275203 25.1238 0.0825608 25.5501C0.160596 25.9868 0.342366 26.3983 0.612567 26.7501C0.920966 27.1415 1.31449 27.4575 1.76326 27.6741C2.21204 27.8907 2.70426 28.0022 3.20256 28.0001H10.6926C11.191 28.0029 11.6835 27.8918 12.1323 27.6751C12.5812 27.4585 12.9747 27.1421 13.2826 26.7501C13.5518 26.3966 13.7366 25.9861 13.8226 25.5501C13.9016 25.1167 13.8741 24.6706 13.7426 24.2501ZM11.8226 25.1801C11.7991 25.3102 11.7403 25.4313 11.6526 25.5301C11.5346 25.6816 11.3826 25.8031 11.2088 25.8848C11.0351 25.9665 10.8445 26.006 10.6526 26.0001H3.16256C2.97101 26.0036 2.78121 25.9631 2.60781 25.8816C2.43442 25.8001 2.28208 25.6798 2.16256 25.5301C2.08353 25.4257 2.02577 25.3068 1.99256 25.1801C1.96742 25.048 1.96742 24.9123 1.99256 24.7801L3.09256 20.7801C3.17293 20.5424 3.32881 20.3376 3.53643 20.1968C3.74406 20.056 3.99204 19.9869 4.24256 20.0001H9.56256C9.81309 19.9869 10.0611 20.056 10.2687 20.1968C10.4763 20.3376 10.6322 20.5424 10.7126 20.7801L11.8026 24.7801C11.8135 24.9163 11.793 25.0532 11.7426 25.1801H11.8226ZM27.7426 24.2501L26.6526 20.2501C26.4544 19.5907 26.0463 19.0141 25.4903 18.608C24.9344 18.2018 24.261 17.9884 23.5726 18.0001H18.2526C17.5638 17.9867 16.8896 18.1996 16.3333 18.6059C15.777 19.0123 15.3693 19.5899 15.1726 20.2501L14.0826 24.2501C13.9725 24.6764 13.9725 25.1238 14.0826 25.5501C14.1606 25.9868 14.3424 26.3983 14.6126 26.7501C14.921 27.1415 15.3145 27.4575 15.7633 27.6741C16.212 27.8907 16.7043 28.0022 17.2026 28.0001H24.6926C25.191 28.0029 25.6835 27.8918 26.1324 27.6751C26.5812 27.4585 26.9747 27.1421 27.2826 26.7501C27.5557 26.3989 27.7408 25.9875 27.8226 25.5501C27.9016 25.1167 27.8741 24.6706 27.7426 24.2501ZM25.8226 25.1801C25.7991 25.3102 25.7403 25.4313 25.6526 25.5301C25.5346 25.6816 25.3826 25.8031 25.2088 25.8848C25.0351 25.9665 24.8445 26.006 24.6526 26.0001H17.1626C16.971 26.0036 16.7812 25.9631 16.6078 25.8816C16.4344 25.8001 16.2821 25.6798 16.1626 25.5301C16.0835 25.4257 16.0258 25.3068 15.9926 25.1801C15.9674 25.048 15.9674 24.9123 15.9926 24.7801L17.0926 20.7801C17.1729 20.5424 17.3288 20.3376 17.5364 20.1968C17.7441 20.056 17.992 19.9869 18.2426 20.0001H23.5626C23.8131 19.9869 24.0611 20.056 24.2687 20.1968C24.4763 20.3376 24.6322 20.5424 24.7126 20.7801L25.8026 24.7801C25.8135 24.9163 25.793 25.0532 25.7426 25.1801H25.8226Z" fill="#001E32"/>
<path d="M25.3022 3.58008C25.3034 3.7133 25.2796 3.84555 25.2322 3.97006C25.1741 4.08643 25.1001 4.19414 25.0122 4.29007L22.1822 7.12006C22.0881 7.21014 21.98 7.28443 21.8622 7.34006C21.7402 7.39094 21.6094 7.41714 21.4772 7.41714C21.3451 7.41714 21.2142 7.39094 21.0922 7.34006C20.9744 7.28443 20.8663 7.21014 20.7722 7.12006C20.6786 7.02699 20.6069 6.91428 20.5622 6.79007C20.5062 6.67139 20.4788 6.54124 20.4822 6.41006C20.4788 6.27566 20.5061 6.14226 20.5622 6.02008C20.6093 5.90001 20.6808 5.79103 20.7722 5.70007L23.6022 2.88007C23.6928 2.78114 23.8061 2.70565 23.9322 2.66006C24.0493 2.61008 24.1749 2.58294 24.3022 2.58008C24.4329 2.58166 24.562 2.60882 24.6822 2.66006C24.8084 2.70565 24.9216 2.78114 25.0122 2.88007C25.1045 2.97242 25.179 3.08088 25.2322 3.20007C25.28 3.32098 25.3038 3.45007 25.3022 3.58008Z" fill="#64CEB8"/>
<path d="M14.8926 0.990037V4.99004C14.8934 5.12164 14.8681 5.25208 14.8184 5.37392C14.7686 5.49576 14.6953 5.60659 14.6026 5.70003C14.51 5.79452 14.3995 5.86969 14.2777 5.92119C14.1558 5.97269 14.0249 5.99947 13.8926 6.00002C13.7603 5.99947 13.6294 5.97269 13.5075 5.92119C13.3857 5.86969 13.2752 5.79452 13.1826 5.70003C13.0899 5.60659 13.0166 5.49576 12.9668 5.37392C12.9171 5.25208 12.8918 5.12164 12.8926 4.99004V0.990037C12.8937 0.727698 12.9979 0.476286 13.1826 0.290025C13.276 0.197344 13.3869 0.124031 13.5087 0.074266C13.6305 0.0245014 13.761 -0.000744192 13.8926 1.67012e-05C14.0242 -0.000744192 14.1547 0.0245014 14.2765 0.074266C14.3983 0.124031 14.5092 0.197344 14.6026 0.290025C14.7873 0.476286 14.8915 0.727698 14.8926 0.990037Z" fill="#64CEB8"/>
<path d="M7.3023 6.4101C7.30389 6.54011 7.28011 6.66919 7.2323 6.7901C7.1767 6.91094 7.10246 7.02229 7.0123 7.12009C6.91626 7.21247 6.80451 7.28697 6.6823 7.34009C6.44177 7.43739 6.17284 7.43739 5.9323 7.34009C5.81009 7.28697 5.69834 7.21247 5.6023 7.12009L2.7423 4.2901C2.65087 4.19915 2.57936 4.09017 2.5323 3.97009C2.47718 3.84759 2.44985 3.71442 2.4523 3.58011C2.45 3.44903 2.47734 3.31913 2.5323 3.2001C2.57464 3.07765 2.64681 2.96767 2.7423 2.8801C2.83103 2.78359 2.94042 2.70838 3.0623 2.6601C3.18428 2.60921 3.31514 2.58301 3.4473 2.58301C3.57947 2.58301 3.71032 2.60921 3.8323 2.6601C3.95418 2.70838 4.06358 2.78359 4.1523 2.8801L6.9823 5.7001C7.07014 5.79603 7.14419 5.90374 7.2023 6.02011C7.26173 6.14199 7.29575 6.27466 7.3023 6.4101Z" fill="#64CEB8"/>
<path d="M20.7422 14.25L19.6522 10.25C19.454 9.5906 19.0459 9.01399 18.4899 8.60785C17.934 8.20171 17.2606 7.98826 16.5722 7.99997H11.2522C10.5638 7.98826 9.89037 8.20171 9.33441 8.60785C8.77845 9.01399 8.37034 9.5906 8.17217 10.25L7.08217 14.25C6.98238 14.6776 6.98238 15.1224 7.08217 15.55C7.16724 15.9881 7.35582 16.3995 7.63217 16.75C7.93698 17.1429 8.32838 17.4601 8.77589 17.6769C9.2234 17.8937 9.71493 18.0043 10.2122 18H17.7122C18.2092 18.0028 18.7002 17.8915 19.1474 17.6748C19.5947 17.4581 19.9863 17.1417 20.2922 16.75C20.5685 16.3995 20.7571 15.9881 20.8422 15.55C20.9094 15.1147 20.8752 14.6698 20.7422 14.25ZM18.6522 15.53C18.5353 15.6827 18.3835 15.8051 18.2095 15.8869C18.0355 15.9687 17.8443 16.0075 17.6522 16H10.1522C9.96003 16.0075 9.76888 15.9687 9.59485 15.8869C9.42083 15.8051 9.26901 15.6827 9.15217 15.53C9.06446 15.4311 9.00564 15.31 8.98217 15.18C8.94693 15.049 8.94693 14.911 8.98217 14.78L10.0622 10.78C10.1458 10.5424 10.3039 10.3382 10.5129 10.1977C10.7219 10.0572 10.9706 9.98782 11.2222 9.99997H16.5422C16.7924 9.9884 17.0396 10.0581 17.2469 10.1987C17.4542 10.3393 17.6104 10.5432 17.6922 10.78L18.7822 14.78C18.8174 14.911 18.8174 15.049 18.7822 15.18C18.749 15.3067 18.6912 15.4256 18.6122 15.53H18.6522Z" fill="#64CEB8"/>
</g>
<defs>
<clipPath id="clip0_606_1176">
<rect width="28" height="28" fill="white"/>
</clipPath>
</defs>
</svg>
