<svg width="24" height="24" viewBox="0 0 24 24" fill="none" xmlns="http://www.w3.org/2000/svg">
<g clip-path="url(#clip0_110_992)">
<path d="M1.44041 14.352C1.00841 14.352 0.672407 14.064 0.528407 13.68C0.384407 13.152 0.672407 12.624 1.15241 12.48C1.29641 12.432 14.3524 8.352 21.8884 1.248C22.2724 0.864002 22.8964 0.912002 23.2324 1.296C23.6164 1.68 23.5684 2.304 23.1844 2.64C15.3124 10.032 2.25641 14.112 1.72841 14.304C1.63241 14.352 1.53641 14.352 1.44041 14.352Z" fill="#64CEB8"/>
<path d="M22.5603 6.09601C22.0323 6.09601 21.6003 5.66401 21.6003 5.13601V2.40001H18.8643C18.3363 2.40001 17.9043 1.96801 17.9043 1.44001C17.9043 0.912011 18.3363 0.480011 18.8643 0.480011H22.5603C23.0883 0.480011 23.5203 0.912011 23.5203 1.44001V5.13601C23.5203 5.66401 23.0883 6.09601 22.5603 6.09601Z" fill="#64CEB8"/>
<path d="M3 22.56C3 23.088 3.432 23.52 3.96 23.52C4.536 23.52 4.92 23.088 4.92 22.56V16.8C4.92 16.272 4.488 15.84 3.96 15.84C3.432 15.84 3 16.272 3 16.8V22.56Z" fill="#001E32"/>
<path d="M8.568 22.56C8.568 23.088 9 23.52 9.528 23.52C10.056 23.52 10.488 23.088 10.488 22.56V15.216C10.488 14.688 10.056 14.256 9.528 14.256C9 14.256 8.568 14.688 8.568 15.216V22.56Z" fill="#001E32"/>
<path d="M14.088 22.56C14.088 23.088 14.52 23.52 15.048 23.52C15.576 23.52 16.008 23.088 16.008 22.56V12.528C16.008 12 15.576 11.568 15.048 11.568C14.52 11.568 14.088 12 14.088 12.528V22.56Z" fill="#001E32"/>
<path d="M19.608 22.56C19.608 23.088 20.04 23.52 20.568 23.52C21.096 23.52 21.528 23.088 21.528 22.56V9.12C21.528 8.592 21.096 8.16 20.568 8.16C20.04 8.16 19.608 8.592 19.608 9.12V22.56Z" fill="#001E32"/>
</g>
<defs>
<clipPath id="clip0_110_992">
<rect width="24" height="24" fill="white"/>
</clipPath>
</defs>
</svg>
