<svg width="28" height="28" viewBox="0 0 28 28" fill="none" xmlns="http://www.w3.org/2000/svg">
<path d="M12.5296 18.0508C12.6176 18.1958 12.7416 18.3156 12.8896 18.3986C13.0376 18.4815 13.2046 18.5248 13.3742 18.5242C13.5507 18.5227 13.7236 18.4747 13.8755 18.3849C14.0976 18.2502 14.2574 18.033 14.32 17.7809C14.3826 17.5287 14.3429 17.2621 14.2096 17.039C13.9245 16.6307 13.7716 16.1447 13.7716 15.6467C13.7716 15.1487 13.9245 14.6627 14.2096 14.2544C14.6684 13.5434 14.9125 12.7151 14.9125 11.8689C14.9125 11.0227 14.6684 10.1945 14.2096 9.48344C14.1466 9.36956 14.0603 9.27021 13.9563 9.19186C13.8524 9.1135 13.7331 9.05788 13.6063 9.02861C13.3535 8.97193 13.0887 9.01165 12.8637 9.14C12.6434 9.2766 12.4839 9.49257 12.4182 9.74333C12.384 9.86804 12.3763 9.99851 12.3954 10.1264C12.4146 10.2543 12.4603 10.3767 12.5296 10.4859C12.8122 10.8952 12.9635 11.3808 12.9635 11.8782C12.9635 12.3756 12.8122 12.8612 12.5296 13.2705C12.0688 13.9826 11.8237 14.8126 11.8237 15.6607C11.8237 16.5087 12.0688 17.3388 12.5296 18.0508Z" fill="#64CEB8"/>
<path d="M16.2881 18.0505C16.3762 18.1955 16.5002 18.3153 16.6482 18.3982C16.7962 18.4812 16.9631 18.5245 17.1328 18.5238C17.3097 18.5262 17.4836 18.4778 17.634 18.3846C17.8558 18.2497 18.016 18.0332 18.0802 17.7817C18.1443 17.5301 18.1075 17.2634 17.9775 17.0387C17.6923 16.6304 17.5395 16.1444 17.5395 15.6464C17.5395 15.1484 17.6923 14.6624 17.9775 14.2541C18.4341 13.5422 18.6768 12.7143 18.6768 11.8686C18.6768 11.0229 18.4341 10.1949 17.9775 9.48309C17.9144 9.36922 17.8281 9.26987 17.7242 9.19152C17.6202 9.11316 17.501 9.05754 17.3741 9.02827C17.1218 8.96646 16.8554 9.00691 16.6328 9.1408C16.4102 9.27469 16.2496 9.49116 16.186 9.74299C16.1235 9.99551 16.1636 10.2625 16.2974 10.4856C16.58 10.8949 16.7314 11.3805 16.7314 11.8779C16.7314 12.3753 16.58 12.8609 16.2974 13.2702C15.8353 13.9813 15.5886 14.8109 15.5869 15.6589C15.5853 16.507 15.8288 17.3375 16.2881 18.0505Z" fill="#64CEB8"/>
<path d="M25.8767 22.3112L22.8972 16.3521C22.8137 16.1921 22.6885 16.0577 22.535 15.9629C22.3814 15.8682 22.2051 15.8166 22.0247 15.8137H19.7691C19.6325 15.8004 19.4946 15.8158 19.3643 15.859C19.2341 15.9021 19.1142 15.9721 19.0126 16.0643C18.9109 16.1565 18.8297 16.269 18.7741 16.3945C18.7185 16.52 18.6898 16.6557 18.6898 16.793C18.6898 16.9302 18.7185 17.066 18.7741 17.1915C18.8297 17.317 18.9109 17.4294 19.0126 17.5217C19.1142 17.6139 19.2341 17.6838 19.3643 17.727C19.4946 17.7701 19.6325 17.7856 19.7691 17.7722H21.4213L23.4448 21.8285H2.5416L4.56509 17.7722H6.2173C6.35391 17.7856 6.4918 17.7701 6.62209 17.727C6.75239 17.6838 6.87222 17.6139 6.97387 17.5217C7.07552 17.4294 7.15676 17.317 7.21235 17.1915C7.26794 17.066 7.29666 16.9302 7.29666 16.793C7.29666 16.6557 7.26794 16.52 7.21235 16.3945C7.15676 16.269 7.07552 16.1565 6.97387 16.0643C6.87222 15.9721 6.75239 15.9021 6.62209 15.859C6.4918 15.8158 6.35391 15.8004 6.2173 15.8137H3.96176C3.78133 15.8166 3.60504 15.8682 3.45147 15.9629C3.2979 16.0577 3.17276 16.1921 3.08924 16.3521L0.109695 22.3112C0.0303866 22.4665 -0.00704622 22.6398 0.00109287 22.8139C0.00923196 22.9881 0.0626614 23.1571 0.156105 23.3044C0.239631 23.4623 0.363507 23.5954 0.515133 23.6899C0.66676 23.7845 0.840726 23.8372 1.01934 23.8427H24.9671C25.1412 23.8419 25.312 23.7962 25.4633 23.71C25.6145 23.6238 25.7409 23.5001 25.8303 23.3508C25.9325 23.1983 25.9908 23.0208 25.999 22.8375C26.0072 22.6542 25.9649 22.4721 25.8767 22.3112Z" fill="#001E32"/>
<path d="M8.77006 18.0499C8.85292 18.1974 8.97455 18.3195 9.12179 18.403C9.26903 18.4864 9.43628 18.528 9.60545 18.5232C9.78502 18.5234 9.96133 18.4753 10.116 18.384C10.3381 18.2492 10.4979 18.0321 10.5605 17.7799C10.6231 17.5278 10.5834 17.2611 10.4501 17.0381C10.165 16.6298 10.0121 16.1438 10.0121 15.6458C10.0121 15.1478 10.165 14.6618 10.4501 14.2535C10.9089 13.5425 11.153 12.7142 11.153 11.868C11.153 11.0218 10.9089 10.1935 10.4501 9.4825C10.3867 9.36881 10.3001 9.26973 10.1959 9.19168C10.0918 9.11364 9.97234 9.05838 9.84541 9.02949C9.71849 9.0006 9.58691 8.99874 9.45921 9.02401C9.33152 9.04928 9.21057 9.10113 9.10422 9.17619C8.88389 9.3128 8.72441 9.52876 8.65868 9.77953C8.6245 9.90423 8.61675 10.0347 8.63593 10.1626C8.65511 10.2904 8.7008 10.4129 8.77006 10.5221C9.0478 10.9333 9.1962 11.4182 9.1962 11.9144C9.1962 12.4106 9.0478 12.8955 8.77006 13.3067C8.31697 14.0147 8.07617 14.8377 8.07617 15.6783C8.07617 16.5189 8.31697 17.3419 8.77006 18.0499Z" fill="#64CEB8"/>
<path d="M25.719 6.09703C25.1141 5.10389 24.5187 4.28118 24.4937 4.24667C24.4385 4.17057 24.3647 4.10838 24.2787 4.06541C24.1928 4.02245 24.0971 4 24 4C23.9029 4 23.8072 4.02245 23.7213 4.06541C23.6353 4.10838 23.5615 4.17057 23.5063 4.24667C23.4813 4.28118 22.8859 5.10389 22.281 6.09703C21.419 7.51219 21 8.5085 21 9.14286C21 10.7183 22.3458 12 24 12C25.6542 12 27 10.7183 27 9.14286C27 8.5085 26.581 7.51219 25.719 6.09703ZM24 10.8571C23.0075 10.8571 22.2 10.0881 22.2 9.14286C22.2 8.51874 23.1364 6.88991 24 5.60472C24.8636 6.88991 25.8 8.51874 25.8 9.14286C25.8 10.0881 24.9925 10.8571 24 10.8571Z" fill="#001E32"/>
<path fill-rule="evenodd" clip-rule="evenodd" d="M23.4978 3.61813C23.6539 3.54013 23.8261 3.5 24 3.5C24.1739 3.5 24.3461 3.54013 24.5022 3.61813C24.6584 3.69618 24.795 3.81044 24.8984 3.95311C24.8984 3.95309 24.8984 3.95313 24.8984 3.95311C24.9273 3.99284 25.5312 4.82761 26.146 5.83693C26.584 6.55599 26.9179 7.1822 27.1436 7.7189C27.3661 8.24785 27.5 8.72774 27.5 9.14286C27.5 11.0171 25.9071 12.5 24 12.5C22.0929 12.5 20.5 11.0171 20.5 9.14286C20.5 8.72774 20.6339 8.24785 20.8564 7.7189C21.0821 7.1822 21.416 6.55599 21.854 5.83693C22.4688 4.82761 23.0727 3.99284 23.1016 3.95311C23.205 3.81047 23.3416 3.69617 23.4978 3.61813ZM24 4.5C23.9796 4.5 23.9606 4.50476 23.9447 4.51269C23.929 4.52057 23.918 4.53071 23.9111 4.54022C23.8892 4.57033 23.3028 5.38069 22.708 6.35713C22.284 7.05323 21.9774 7.63275 21.7782 8.10659C21.5756 8.58817 21.5 8.92361 21.5 9.14286C21.5 10.4194 22.5987 11.5 24 11.5C25.4013 11.5 26.5 10.4194 26.5 9.14286C26.5 8.92361 26.4244 8.58817 26.2218 8.10659C26.0226 7.63275 25.716 7.05323 25.292 6.35713C24.6972 5.38069 24.1108 4.5704 24.089 4.54028C24.0821 4.53077 24.071 4.52057 24.0553 4.51269C24.0394 4.50476 24.0204 4.5 24 4.5ZM24 4.70825L24.415 5.32585C24.8533 5.97805 25.3131 6.72197 25.6657 7.38768C25.8417 7.72005 25.9953 8.04106 26.1062 8.3263C26.2113 8.59654 26.3 8.8885 26.3 9.14286C26.3 10.387 25.2454 11.3571 24 11.3571C22.7546 11.3571 21.7 10.387 21.7 9.14286C21.7 8.8885 21.7887 8.59654 21.8938 8.3263C22.0047 8.04106 22.1583 7.72005 22.3343 7.38768C22.6869 6.72197 23.1467 5.97805 23.585 5.32585L24 4.70825ZM22.8258 8.68861C22.7283 8.93947 22.7 9.08516 22.7 9.14286C22.7 9.78926 23.2604 10.3571 24 10.3571C24.7396 10.3571 25.3 9.78926 25.3 9.14286C25.3 9.08516 25.2717 8.93947 25.1742 8.68861C25.0825 8.45275 24.948 8.1692 24.782 7.8557C24.5582 7.43306 24.2848 6.97073 24 6.52016C23.7152 6.97073 23.4418 7.43306 23.218 7.8557C23.052 8.1692 22.9175 8.45275 22.8258 8.68861Z" fill="#001E32"/>
</svg>
