<svg width="80" height="81" viewBox="0 0 80 81" fill="none" xmlns="http://www.w3.org/2000/svg">
<path d="M60.8528 17.1199H18.9736C18.9736 25.5096 26.4281 28.7183 30.1553 29.2739H49.8795C59.2694 27.8293 61.1075 20.5693 60.8528 17.1199Z" fill="#9EF4E5"/>
<path d="M50 29.3127H30C25.1485 31.5518 21.0398 35.1337 18.16 39.6345C15.2802 44.1354 13.7499 49.3669 13.75 54.7102C13.7499 60.254 14.489 65.773 15.9475 71.1215L17.5 76.8127H62.5L64.0525 71.1215C65.511 65.773 66.2501 60.254 66.25 54.7102C66.2501 49.3669 64.7198 44.1354 61.84 39.6345C58.9602 35.1337 54.8515 31.5518 50 29.3127V29.3127Z" fill="#9EF4E5"/>
<path d="M40 49.3127C43.9782 49.3127 47.7936 50.8931 50.6066 53.7061C53.4196 56.5192 55 60.3345 55 64.3127V76.8127H25V64.3127C25 60.3345 26.5804 56.5192 29.3934 53.7061C32.2064 50.8931 36.0218 49.3127 40 49.3127V49.3127Z" fill="#9EF4E5"/>
<path d="M43.75 63.0627C43.75 64.0573 43.3549 65.0111 42.6516 65.7144C41.9484 66.4177 40.9946 66.8127 40 66.8127C39.0054 66.8127 38.0516 66.4177 37.3483 65.7144C36.6451 65.0111 36.25 64.0573 36.25 63.0627C36.25 60.9915 37.9288 56.8127 40 56.8127C42.0712 56.8127 43.75 60.9915 43.75 63.0627Z" fill="#FCBE42"/>
<path d="M30 71.8127H50V76.8127H30V71.8127Z" fill="#9EF4E5"/>
<path d="M53.4075 29.734C56.0666 28.7748 58.3659 27.02 59.9927 24.7081C61.6195 22.3963 62.4949 19.6396 62.5 16.8127C62.5 16.4812 62.3683 16.1633 62.1339 15.9289C61.8995 15.6944 61.5815 15.5627 61.25 15.5627H18.75C18.4185 15.5627 18.1005 15.6944 17.8661 15.9289C17.6317 16.1633 17.5 16.4812 17.5 16.8127C17.5051 19.6396 18.3805 22.3963 20.0073 24.7081C21.6341 27.02 23.9334 28.7748 26.5925 29.734C22.3006 32.3408 18.7505 36.0067 16.2828 40.3801C13.8151 44.7534 12.5125 49.6875 12.5 54.709C12.5002 60.3638 13.254 65.9933 14.7413 71.449L16.2937 77.1415C16.3659 77.4061 16.5231 77.6397 16.741 77.8062C16.959 77.9726 17.2257 78.0628 17.5 78.0627H62.5C62.7743 78.0628 63.041 77.9726 63.259 77.8062C63.4769 77.6397 63.6341 77.4061 63.7063 77.1415L65.2588 71.449C66.746 65.9933 67.4998 60.3638 67.5 54.709C67.4875 49.6875 66.1849 44.7534 63.7172 40.3801C61.2495 36.0067 57.6994 32.3408 53.4075 29.734V29.734ZM20.07 18.0627H59.93C59.6194 20.8115 58.3082 23.3499 56.2464 25.1941C54.1846 27.0383 51.5163 28.0594 48.75 28.0627H31.25C28.4837 28.0594 25.8154 27.0383 23.7536 25.1941C21.6918 23.3499 20.3806 20.8115 20.07 18.0627V18.0627ZM31.25 75.5627V73.0627H48.75V75.5627H31.25ZM40 65.5627C39.337 65.5627 38.7011 65.2994 38.2322 64.8305C37.7634 64.3617 37.5 63.7258 37.5 63.0627C37.5 61.194 39.065 58.0627 40 58.0627C40.935 58.0627 42.5 61.194 42.5 63.0627C42.5 63.7258 42.2366 64.3617 41.7678 64.8305C41.2989 65.2994 40.663 65.5627 40 65.5627ZM62.8463 70.7927L61.545 75.5627H51.25V71.8127C51.25 71.4812 51.1183 71.1633 50.8839 70.9289C50.6495 70.6944 50.3315 70.5627 50 70.5627H41.25V67.8852C42.3202 67.6089 43.2686 66.9858 43.9471 66.1133C44.6256 65.2408 44.9959 64.168 45 63.0627C45 60.4865 43.0525 55.5627 40 55.5627C36.9475 55.5627 35 60.4865 35 63.0627C35.0041 64.168 35.3744 65.2408 36.0529 66.1133C36.7314 66.9858 37.6798 67.6089 38.75 67.8852V70.5627H30C29.6685 70.5627 29.3505 70.6944 29.1161 70.9289C28.8817 71.1633 28.75 71.4812 28.75 71.8127V75.5627H18.455L17.1537 70.7927C15.7238 65.5511 14.9995 60.1422 15 54.709C15.0098 49.6528 16.4496 44.7026 19.1531 40.4299C21.8567 36.1572 25.7137 32.7365 30.2787 30.5627H49.7213C54.2863 32.7365 58.1433 36.1572 60.8469 40.4299C63.5504 44.7026 64.9902 49.6528 65 54.709C65.0005 60.1422 64.2762 65.5511 62.8463 70.7927V70.7927Z" fill="#2B9595"/>
<path d="M40 48.0627C35.6918 48.0677 31.5614 49.7813 28.515 52.8277C25.4686 55.8741 23.755 60.0045 23.75 64.3127V71.8127C23.75 72.1443 23.8817 72.4622 24.1161 72.6966C24.3505 72.931 24.6685 73.0627 25 73.0627C25.3315 73.0627 25.6495 72.931 25.8839 72.6966C26.1183 72.4622 26.25 72.1443 26.25 71.8127V64.3127C26.25 60.666 27.6987 57.1687 30.2773 54.59C32.8559 52.0114 36.3533 50.5627 40 50.5627C43.6467 50.5627 47.1441 52.0114 49.7227 54.59C52.3013 57.1687 53.75 60.666 53.75 64.3127V71.8127C53.75 72.1443 53.8817 72.4622 54.1161 72.6966C54.3505 72.931 54.6685 73.0627 55 73.0627C55.3315 73.0627 55.6495 72.931 55.8839 72.6966C56.1183 72.4622 56.25 72.1443 56.25 71.8127V64.3127C56.245 60.0045 54.5314 55.8741 51.485 52.8277C48.4386 49.7813 44.3082 48.0677 40 48.0627V48.0627Z" fill="#2B9595"/>
<path d="M38.75 13.0628C39.0815 13.0627 39.3994 12.9309 39.6337 12.6965L40.8837 11.4465C41.4495 10.88 41.7673 10.1121 41.7673 9.3115C41.7673 8.51088 41.4495 7.74299 40.8837 7.1765C40.7869 7.07948 40.7325 6.94798 40.7325 6.81088C40.7325 6.67378 40.7869 6.54228 40.8837 6.44525L42.1337 5.19525C42.2531 5.07994 42.3483 4.94201 42.4139 4.78951C42.4794 4.637 42.5138 4.47298 42.5153 4.307C42.5167 4.14103 42.4851 3.97643 42.4223 3.82281C42.3594 3.66919 42.2666 3.52962 42.1492 3.41226C42.0319 3.29489 41.8923 3.20208 41.7387 3.13923C41.585 3.07637 41.4204 3.04475 41.2545 3.04619C41.0885 3.04763 40.9245 3.08211 40.772 3.14763C40.6195 3.21314 40.4815 3.30837 40.3662 3.42775L39.1162 4.67775C38.5505 5.24424 38.2327 6.01213 38.2327 6.81275C38.2327 7.61338 38.5505 8.38127 39.1162 8.94775C39.2131 9.04478 39.2675 9.17628 39.2675 9.31338C39.2675 9.45048 39.2131 9.58198 39.1162 9.679L37.8662 10.929C37.6915 11.1038 37.5725 11.3265 37.5242 11.569C37.476 11.8114 37.5008 12.0627 37.5954 12.2911C37.69 12.5194 37.8501 12.7146 38.0557 12.852C38.2612 12.9894 38.5028 13.0627 38.75 13.0628Z" fill="#2B9595"/>
<path d="M46.25 13.0628C46.5815 13.0627 46.8994 12.9309 47.1337 12.6965L48.3837 11.4465C48.9495 10.88 49.2673 10.1121 49.2673 9.3115C49.2673 8.51088 48.9495 7.74299 48.3837 7.1765C48.2869 7.07948 48.2325 6.94798 48.2325 6.81088C48.2325 6.67378 48.2869 6.54228 48.3837 6.44525L49.6337 5.19525C49.7531 5.07994 49.8483 4.94201 49.9139 4.78951C49.9794 4.637 50.0138 4.47298 50.0153 4.307C50.0167 4.14103 49.9851 3.97643 49.9223 3.82281C49.8594 3.66919 49.7666 3.52962 49.6492 3.41226C49.5319 3.29489 49.3923 3.20208 49.2387 3.13923C49.085 3.07637 48.9204 3.04475 48.7545 3.04619C48.5885 3.04763 48.4245 3.08211 48.272 3.14763C48.1195 3.21314 47.9815 3.30837 47.8662 3.42775L46.6162 4.67775C46.0505 5.24424 45.7327 6.01213 45.7327 6.81275C45.7327 7.61338 46.0505 8.38127 46.6162 8.94775C46.7131 9.04478 46.7675 9.17628 46.7675 9.31338C46.7675 9.45048 46.7131 9.58198 46.6162 9.679L45.3662 10.929C45.1915 11.1038 45.0725 11.3265 45.0242 11.569C44.976 11.8114 45.0008 12.0627 45.0954 12.2911C45.19 12.5194 45.3501 12.7146 45.5557 12.852C45.7612 12.9894 46.0028 13.0627 46.25 13.0628Z" fill="#2B9595"/>
<path d="M31.25 13.0628C31.5815 13.0627 31.8994 12.9309 32.1337 12.6965L33.3837 11.4465C33.9495 10.88 34.2673 10.1121 34.2673 9.3115C34.2673 8.51088 33.9495 7.74299 33.3837 7.1765C33.2869 7.07948 33.2325 6.94798 33.2325 6.81088C33.2325 6.67378 33.2869 6.54228 33.3837 6.44525L34.6337 5.19525C34.7531 5.07994 34.8483 4.94201 34.9139 4.78951C34.9794 4.637 35.0138 4.47298 35.0153 4.307C35.0167 4.14103 34.9851 3.97643 34.9223 3.82281C34.8594 3.66919 34.7666 3.52962 34.6492 3.41226C34.5319 3.29489 34.3923 3.20208 34.2387 3.13923C34.085 3.07637 33.9205 3.04475 33.7545 3.04619C33.5885 3.04763 33.4245 3.08211 33.272 3.14763C33.1195 3.21314 32.9815 3.30837 32.8662 3.42775L31.6162 4.67775C31.0505 5.24424 30.7327 6.01213 30.7327 6.81275C30.7327 7.61338 31.0505 8.38127 31.6162 8.94775C31.7131 9.04478 31.7675 9.17628 31.7675 9.31338C31.7675 9.45048 31.7131 9.58198 31.6162 9.679L30.3662 10.929C30.1915 11.1038 30.0725 11.3265 30.0242 11.569C29.976 11.8114 30.0008 12.0627 30.0954 12.2911C30.19 12.5194 30.3501 12.7146 30.5557 12.852C30.7612 12.9894 31.0028 13.0627 31.25 13.0628Z" fill="#2B9595"/>
</svg>
