<svg width="28" height="28" viewBox="0 0 28 28" fill="none" xmlns="http://www.w3.org/2000/svg">
<g clip-path="url(#clip0_631_1217)">
<path d="M7.19644 16.7749L6.54921 17.6062C6.0631 18.2305 4.47705 20.3634 4.47705 21.5981C4.47705 23.0975 5.69697 24.3175 7.19644 24.3175C8.69592 24.3175 9.91589 23.0976 9.91589 21.5981C9.91589 20.3635 8.32984 18.2305 7.84372 17.6062L7.19644 16.7749ZM7.19644 22.6768C6.60161 22.6768 6.11768 22.1929 6.11768 21.598C6.11768 21.2907 6.57645 20.4221 7.19644 19.5064C7.81643 20.422 8.27526 21.2907 8.27526 21.598C8.27526 22.1929 7.79133 22.6768 7.19644 22.6768Z" fill="#64CEB8"/>
<path d="M28 20.4646H14.3844C14.3578 19.8905 14.2622 19.3217 14.0997 18.7706H25.988L24.3824 13.625H7.69398C7.65576 13.6223 7.61753 13.6196 7.57909 13.6176V12.039H20.7349L19.1292 6.89341H7.57909V5.1456H15.4219L13.8162 0H5.93846V13.7176C2.56802 14.3142 0 17.2646 0 20.8037C0 24.7717 3.22826 28 7.19627 28C10.72 28 13.6601 25.4541 14.2744 22.1052H28V20.4646ZM12.6096 1.64062L13.1914 3.50498H7.57909V1.64062H12.6096ZM17.9226 8.53404L18.5044 10.3984H7.57909V8.53404H17.9226ZM23.1756 15.2656L23.7574 17.1299H13.3818C12.9598 16.4223 12.4202 15.7918 11.7863 15.2656H23.1756ZM7.19627 26.3594C4.1329 26.3594 1.64062 23.8671 1.64062 20.8037C1.64062 17.8876 3.89911 15.4891 6.75877 15.2652V15.2656H7.63755C10.4955 15.4912 12.752 17.8888 12.752 20.8037C12.752 23.8671 10.2597 26.3594 7.19627 26.3594ZM24.1402 3.14054V6.74308H25.7808V3.14054L26.8399 4.19962L28 3.03959L24.9605 0L21.9209 3.03959L23.081 4.19962L24.1402 3.14054Z" fill="#001E32"/>
</g>
<defs>
<clipPath id="clip0_631_1217">
<rect width="28" height="28" fill="white"/>
</clipPath>
</defs>
</svg>
