<svg width="80" height="81" viewBox="0 0 80 81" fill="none" xmlns="http://www.w3.org/2000/svg">
<g clip-path="url(#clip0_227_126)">
<path d="M18.5156 36.4606H11.6406C11.0366 36.4606 10.5469 35.9709 10.5469 35.3669V14.4294C10.5469 13.8253 11.0366 13.3356 11.6406 13.3356H18.5156C19.1197 13.3356 19.6094 13.8253 19.6094 14.4294V35.3669C19.6094 35.9709 19.1197 36.4606 18.5156 36.4606Z" fill="#9EF4E5"/>
<path d="M18.5156 13.3356H13.8281C14.4322 13.3356 14.9219 13.8253 14.9219 14.4294V35.3669C14.9219 35.9709 14.4322 36.4606 13.8281 36.4606H18.5156C19.1197 36.4606 19.6094 35.9709 19.6094 35.3669V14.4294C19.6094 13.8253 19.1197 13.3356 18.5156 13.3356V13.3356Z" fill="#9EF4E5"/>
<path d="M48.125 36.4606H41.25C40.6459 36.4606 40.1562 35.9709 40.1562 35.3669V14.4294C40.1562 13.8253 40.6459 13.3356 41.25 13.3356H48.125C48.7291 13.3356 49.2188 13.8253 49.2188 14.4294V35.3669C49.2188 35.9709 48.7291 36.4606 48.125 36.4606Z" fill="#9EF4E5"/>
<path d="M48.125 13.3356H43.4375C44.0416 13.3356 44.5312 13.8253 44.5312 14.4294V35.3669C44.5312 35.9709 44.0416 36.4606 43.4375 36.4606H48.125C48.7291 36.4606 49.2188 35.9709 49.2188 35.3669V14.4294C49.2188 13.8253 48.7291 13.3356 48.125 13.3356V13.3356Z" fill="#9EF4E5"/>
<path d="M77.7344 31.7731H70.8594C70.2553 31.7731 69.7656 31.2834 69.7656 30.6794V16.7731C69.7656 16.1691 70.2553 15.6794 70.8594 15.6794H77.7344C78.3384 15.6794 78.8281 16.1691 78.8281 16.7731V30.6794C78.8281 31.2834 78.3384 31.7731 77.7344 31.7731Z" fill="#9EF4E5"/>
<path d="M77.7344 15.6794H73.0469C73.6509 15.6794 74.1406 16.1691 74.1406 16.7731V30.6794C74.1406 31.2834 73.6509 31.7731 73.0469 31.7731H77.7344C78.3384 31.7731 78.8281 31.2834 78.8281 30.6794V16.7731C78.8281 16.1691 78.3384 15.6794 77.7344 15.6794V15.6794Z" fill="#9EF4E5"/>
<path d="M33.3203 45.8356H26.4453C25.8413 45.8356 25.3516 45.3459 25.3516 44.7419V28.4919C25.3516 27.8878 25.8413 27.3981 26.4453 27.3981H33.3203C33.9244 27.3981 34.4141 27.8878 34.4141 28.4919V44.7419C34.4141 45.3459 33.9244 45.8356 33.3203 45.8356Z" fill="#9EF4E5"/>
<path d="M33.3203 27.3981H28.6328C29.2369 27.3981 29.7266 27.8878 29.7266 28.4919V44.7419C29.7266 45.3459 29.2369 45.8356 28.6328 45.8356H33.3203C33.9244 45.8356 34.4141 45.3459 34.4141 44.7419V28.4919C34.4141 27.8878 33.9244 27.3981 33.3203 27.3981V27.3981Z" fill="#9EF4E5"/>
<path d="M62.9297 43.4919H56.0547C55.4506 43.4919 54.9609 43.0022 54.9609 42.3981V30.8356C54.9609 30.2316 55.4506 29.7419 56.0547 29.7419H62.9297C63.5337 29.7419 64.0234 30.2316 64.0234 30.8356V42.3981C64.0234 43.0022 63.5337 43.4919 62.9297 43.4919Z" fill="#9EF4E5"/>
<path d="M62.9297 29.7419H58.2422C58.8462 29.7419 59.3359 30.2316 59.3359 30.8356V42.3981C59.3359 43.0022 58.8462 43.4919 58.2422 43.4919H62.9297C63.5337 43.4919 64.0234 43.0022 64.0234 42.3981V30.8356C64.0234 30.2316 63.5337 29.7419 62.9297 29.7419V29.7419Z" fill="#9EF4E5"/>
<path d="M22.6562 66.9225H11.6406C11.0366 66.9225 10.5469 66.4328 10.5469 65.8288V61.4558C10.5469 60.8517 11.0366 60.3621 11.6406 60.3621H22.6562C23.2603 60.3621 23.75 60.8517 23.75 61.4558V65.8288C23.75 66.4328 23.2603 66.9225 22.6562 66.9225Z" fill="#9EF4E5"/>
<path d="M22.6562 60.3622H17.9688C18.5728 60.3622 19.0625 60.8519 19.0625 61.4559V65.8287C19.0625 66.4328 18.5728 66.9225 17.9688 66.9225H22.6562C23.2603 66.9225 23.75 66.4328 23.75 65.8287V61.4559C23.75 60.8517 23.2603 60.3622 22.6562 60.3622Z" fill="#9EF4E5"/>
<path d="M60.4688 66.9225H49.4531C48.8491 66.9225 48.3594 66.4328 48.3594 65.8288V61.4558C48.3594 60.8517 48.8491 60.3621 49.4531 60.3621H60.4688C61.0728 60.3621 61.5625 60.8517 61.5625 61.4558V65.8288C61.5625 66.4328 61.0728 66.9225 60.4688 66.9225Z" fill="#9EF4E5"/>
<path d="M60.4688 60.3622H55.7812C56.3853 60.3622 56.875 60.8519 56.875 61.4559V65.8287C56.875 66.4328 56.3853 66.9225 55.7812 66.9225H60.4688C61.0728 66.9225 61.5625 66.4328 61.5625 65.8287V61.4559C61.5625 60.8517 61.0728 60.3622 60.4688 60.3622Z" fill="#9EF4E5"/>
<path d="M30.7812 61.534H37.4059C38.0531 61.534 38.5778 61.0094 38.5778 60.3622C38.5778 59.715 38.0531 59.1903 37.4059 59.1903H30.7812C30.1341 59.1903 29.6094 59.715 29.6094 60.3622C29.6094 61.0094 30.1341 61.534 30.7812 61.534ZM30.7812 68.0944H37.4059C38.0531 68.0944 38.5778 67.5697 38.5778 66.9225C38.5778 66.2753 38.0531 65.7506 37.4059 65.7506H30.7812C30.1341 65.7506 29.6094 66.2753 29.6094 66.9225C29.6094 67.5697 30.1341 68.0944 30.7812 68.0944ZM78.8281 77.7819H72.9688V75.4044C72.9688 74.7572 72.4442 74.2325 71.7969 74.2325C71.1495 74.2325 70.625 74.7572 70.625 75.4044V77.7819H61.25V75.4044C61.25 74.7572 60.7255 74.2325 60.0781 74.2325C59.4308 74.2325 58.9062 74.7572 58.9062 75.4044V77.7819H49.5312V75.4044C49.5312 74.7572 49.0067 74.2325 48.3594 74.2325C47.712 74.2325 47.1875 74.7572 47.1875 75.4044V77.7819H37.8125V75.4044C37.8125 74.7572 37.2878 74.2325 36.6406 74.2325C35.9934 74.2325 35.4688 74.7572 35.4688 75.4044V77.7819H26.0938V75.4044C26.0938 74.7572 25.5691 74.2325 24.9219 74.2325C24.2747 74.2325 23.75 74.7572 23.75 75.4044V77.7819H14.375V75.4044C14.375 74.7572 13.8503 74.2325 13.2031 74.2325C12.5559 74.2325 12.0312 74.7572 12.0312 75.4044V77.7819H5.85938C3.92078 77.7819 2.34375 76.2048 2.34375 74.2662V68.0944H4.72125C5.36844 68.0944 5.89313 67.5697 5.89313 66.9225C5.89313 66.2753 5.36844 65.7506 4.72125 65.7506H2.34375V56.3756H4.72125C5.36844 56.3756 5.89313 55.8509 5.89313 55.2037C5.89313 54.5565 5.36844 54.0319 4.72125 54.0319H2.34375V44.6569H4.72125C5.36844 44.6569 5.89313 44.1322 5.89313 43.485C5.89313 42.8378 5.36844 42.3131 4.72125 42.3131H2.34375V32.9381H4.72125C5.36844 32.9381 5.89313 32.4134 5.89313 31.7662C5.89313 31.119 5.36844 30.5944 4.72125 30.5944H2.34375V21.2194H4.72125C5.36844 21.2194 5.89313 20.6947 5.89313 20.0475C5.89313 19.4003 5.36844 18.8756 4.72125 18.8756H2.34375V9.50061H4.72125C5.36844 9.50061 5.89313 8.97592 5.89313 8.32874C5.89313 7.68155 5.36844 7.15686 4.72125 7.15686H2.34375V1.29749C2.34375 0.650298 1.81906 0.12561 1.17188 0.12561C0.524687 0.12561 0 0.650298 0 1.29749V74.2662C0 77.4972 2.62844 80.1256 5.85938 80.1256H78.8281C79.4755 80.1256 80 79.6009 80 78.9537C80 78.3065 79.4755 77.7819 78.8281 77.7819ZM11.6406 68.0944H22.6562C23.9055 68.0944 24.9219 67.078 24.9219 65.8287V61.4559C24.9219 60.2067 23.9055 59.1903 22.6562 59.1903H11.6406C10.3914 59.1903 9.375 60.2067 9.375 61.4559V65.8287C9.375 67.078 10.3914 68.0944 11.6406 68.0944ZM11.7188 61.534H22.5781V65.7506H11.7188V61.534ZM57.6659 61.534C58.3133 61.534 58.8378 61.0094 58.8378 60.3622C58.8378 59.715 58.3133 59.1903 57.6659 59.1903H49.4531C48.2039 59.1903 47.1875 60.2067 47.1875 61.4559V65.8287C47.1875 67.078 48.2039 68.0944 49.4531 68.0944H60.4688C61.718 68.0944 62.7344 67.078 62.7344 65.8287V61.4559C62.7344 60.2067 61.718 59.1903 60.4688 59.1903H57.1347C56.4873 59.1903 55.9628 59.715 55.9628 60.3622C55.9628 61.0094 56.4873 61.534 57.1347 61.534H60.3906V65.7506H49.5312V61.534H57.6659ZM77.7344 14.5075H75.4688V12.1709C75.4688 11.5237 74.9442 10.999 74.2969 10.999C73.6495 10.999 73.125 11.5237 73.125 12.1709V14.5076H70.8594C69.6102 14.5076 68.5938 15.524 68.5938 16.7733V27.1376L65.0981 30.1815C64.8166 29.2505 63.9514 28.5703 62.9297 28.5703H60.6641V26.2334C60.6641 25.5862 60.1395 25.0615 59.4922 25.0615C58.8448 25.0615 58.3203 25.5862 58.3203 26.2334V28.5701H56.0547C54.8794 28.5701 53.9106 29.47 53.8002 30.6169L50.3906 27.918V14.4294C50.3906 13.1801 49.3742 12.1637 48.125 12.1637H45.8594V9.82717C45.8594 9.17999 45.3348 8.6553 44.6875 8.6553C44.0402 8.6553 43.5156 9.17999 43.5156 9.82717V12.1639H41.25C40.0008 12.1639 38.9844 13.1803 38.9844 14.4295V27.9165L35.5859 30.6067V28.492C35.5859 27.2428 34.5695 26.2264 33.3203 26.2264H31.0547V23.8897C31.0547 23.2425 30.53 22.7178 29.8828 22.7178C29.2356 22.7178 28.7109 23.2425 28.7109 23.8897V26.2264H26.4453C25.1961 26.2264 24.1797 27.2428 24.1797 28.492V30.6081L20.7812 27.918V14.4294C20.7812 13.1801 19.7648 12.1637 18.5156 12.1637H16.25V9.82717C16.25 9.17999 15.7253 8.6553 15.0781 8.6553C14.4309 8.6553 13.9062 9.17999 13.9062 9.82717V12.1639H11.6406C10.3914 12.1639 9.375 13.1803 9.375 14.4295V28.3306C9.375 28.9778 9.89969 29.5025 10.5469 29.5025C11.1941 29.5025 11.7188 28.9778 11.7188 28.3306V14.5075H18.4375V35.2887H11.7188V26.7992C11.7188 26.152 11.1941 25.6273 10.5469 25.6273C9.89969 25.6273 9.375 26.152 9.375 26.7992V35.3669C9.375 36.6161 10.3914 37.6325 11.6406 37.6325H13.9062V39.9694C13.9062 40.6165 14.4309 41.1412 15.0781 41.1412C15.7253 41.1412 16.25 40.6165 16.25 39.9694V37.6325H18.5156C19.7648 37.6325 20.7812 36.6161 20.7812 35.3669V30.9072L24.1797 33.5973V44.742C24.1797 45.9912 25.1961 47.0076 26.4453 47.0076H28.7109V49.3444C28.7109 49.9915 29.2356 50.5162 29.8828 50.5162C30.53 50.5162 31.0547 49.9915 31.0547 49.3444V47.0075H33.3203C34.5695 47.0075 35.5859 45.9911 35.5859 44.7419V33.5958L38.9844 30.9058V35.367C38.9844 36.6162 40.0008 37.6326 41.25 37.6326H43.5156V39.9694C43.5156 40.6165 44.0402 41.1412 44.6875 41.1412C45.3348 41.1412 45.8594 40.6165 45.8594 39.9694V37.6325H48.125C49.3742 37.6325 50.3906 36.6161 50.3906 35.3669V30.9072L53.7891 33.5972V42.3981C53.7891 43.6473 54.8055 44.6637 56.0547 44.6637H58.3203V47.0006C58.3203 47.6478 58.8448 48.1725 59.4922 48.1725C60.1395 48.1725 60.6641 47.6478 60.6641 47.0006V44.6637H62.9297C64.1789 44.6637 65.1953 43.6473 65.1953 42.3981V33.2044L68.5938 30.2451V30.6794C68.5938 31.9286 69.6102 32.945 70.8594 32.945H73.125V35.2819C73.125 35.929 73.6495 36.4537 74.2969 36.4537C74.9442 36.4537 75.4688 35.929 75.4688 35.2819V32.945H77.7344C78.9836 32.945 80 31.9286 80 30.6794V16.7731C80 15.5239 78.9836 14.5075 77.7344 14.5075ZM33.2422 44.6637H26.5234V28.57H33.2422V44.6637ZM48.0469 35.2887H41.3281V14.5075H48.0469V35.2887ZM62.8516 42.32H56.1328V30.9137H62.8516V42.32ZM77.6562 30.6012H70.9375V16.8512H77.6562V30.6012ZM68.5938 61.534H75.2184C75.8658 61.534 76.3903 61.0094 76.3903 60.3622C76.3903 59.715 75.8658 59.1903 75.2184 59.1903H68.5938C67.9464 59.1903 67.4219 59.715 67.4219 60.3622C67.4219 61.0094 67.9464 61.534 68.5938 61.534ZM68.5938 68.0944H75.2184C75.8658 68.0944 76.3903 67.5697 76.3903 66.9225C76.3903 66.2753 75.8658 65.7506 75.2184 65.7506H68.5938C67.9464 65.7506 67.4219 66.2753 67.4219 66.9225C67.4219 67.5697 67.9464 68.0944 68.5938 68.0944Z" fill="#2B9595"/>
</g>
<defs>
<clipPath id="clip0_227_126">
<rect width="80" height="80" fill="white" transform="translate(0 0.12561)"/>
</clipPath>
</defs>
</svg>
