<svg width="70" height="70" viewBox="0 0 70 70" fill="none" xmlns="http://www.w3.org/2000/svg">
<g clip-path="url(#clip0_42_571)">
<path d="M31.3932 10.6671C31.474 10.3507 31.6247 10.0712 31.8233 9.83973C25.2233 5.03808 15.8961 8.06699 12.7932 17.8411C12.9768 17.8877 13.1562 17.963 13.3275 18.0658C20.2138 22.1996 29.3405 18.6089 31.3932 10.6671Z" fill="#004040"/>
<path d="M17.837 36.7712C26.5123 43.7 38.2192 36.1836 38.2192 23.4931C38.2192 19.6233 37.0205 15.9027 34.963 13.0356C31.6299 22.4996 20.6618 26.6138 11.9767 22.0192C11.5278 27.5466 13.5667 33.36 17.837 36.7712V36.7712Z" fill="#004040"/>
<path d="M20.6768 42.8507L25.0685 48.9986L29.4603 42.8493C26.6098 43.7084 23.5299 43.7077 20.6768 42.8507Z" fill="#004040"/>
<path d="M35.8904 53.174C35.8904 53.9045 36.2921 52.9071 27.9863 68.8274C27.7853 69.2121 27.4799 69.5056 27.1233 69.6933V61.5973L31.7808 52.6699V46.6726L27.1233 53.1931C26.6873 53.8042 26.2378 54.589 25.0685 54.589C23.8912 54.589 23.4197 53.7621 23.0137 53.1931L18.3562 46.6726V52.6699L23.0137 61.5973V69.6933C22.6571 69.5056 22.3516 69.2121 22.1507 68.8274C14.2385 53.6614 14.4685 54.1253 14.3986 53.9479C14.1845 53.427 14.2466 53.9616 14.2466 43.0219C6.2411 44.2964 0 51.2597 0 59.7562V67.8767C0 69.011 0.920548 69.9315 2.05479 69.9315H40.3384V43.5452C38.8973 43.1055 37.4041 42.8603 35.8904 42.8164V53.174Z" fill="#004040"/>
<path d="M48.2338 39.5205H46.8207C45.6859 39.5205 44.7659 40.4405 44.7659 41.5753V69.9315H50.2886V41.5753C50.2886 40.4405 49.3687 39.5205 48.2338 39.5205Z" fill="#2aa79f"/>
<path d="M58.1254 34.9767H56.7123C55.5775 34.9767 54.6575 35.8967 54.6575 37.0315V69.9315H60.1802V37.0315C60.1802 35.8966 59.2602 34.9767 58.1254 34.9767V34.9767Z" fill="#2aa79f"/>
<path d="M67.9452 30.6164H66.5321C65.3973 30.6164 64.4773 31.5364 64.4773 32.6712V69.9315H70V32.6712C70 31.5364 69.08 30.6164 67.9452 30.6164Z" fill="#2aa79f"/>
<path d="M56.8494 26.0959C64.0247 26.0959 69.8631 20.2575 69.8631 13.0822C69.8631 5.90685 64.0247 0.0684929 56.8494 0.0684929C49.674 0.0684929 43.8357 5.90685 43.8357 13.0822C43.8357 20.2575 49.674 26.0959 56.8494 26.0959ZM56.8494 8.9726C59.1151 8.9726 60.959 10.8164 60.959 13.0822C60.959 15.3479 59.1151 17.1918 56.8494 17.1918C54.5836 17.1918 52.7398 15.3479 52.7398 13.0822C52.7398 10.8164 54.5836 8.9726 56.8494 8.9726Z" fill="#2aa79f"/>
</g>
<defs>
<clipPath id="clip0_42_571">
<rect width="70" height="70" fill="white"/>
</clipPath>
</defs>
</svg>
