<svg width="28" height="28" viewBox="0 0 28 28" fill="none" xmlns="http://www.w3.org/2000/svg">
<path d="M22.4777 20.4143C22.8414 19.9084 23.0558 19.2894 23.0558 18.6205C23.0558 17.9517 22.8409 17.3326 22.4777 16.8268C23.8433 16.5107 24.8643 15.2857 24.8643 13.8261C24.8643 12.1275 23.4823 10.745 21.7832 10.745H15.5871V9.93178C15.5871 8.99607 15.9513 8.11615 16.613 7.45443L16.6387 7.42873C17.033 7.65623 17.4809 7.77818 17.9485 7.77818C18.6502 7.77818 19.3091 7.50529 19.8052 7.00928C20.5713 6.24256 21.1455 5.34514 21.4206 4.48107C21.7471 3.45787 21.6213 2.58888 21.0662 2.03381C20.5117 1.47928 19.6427 1.35349 18.619 1.67943C17.7555 1.95451 16.8575 2.52873 16.0913 3.2949C15.5953 3.79092 15.3224 4.45045 15.3224 5.15154C15.3224 5.61857 15.4444 6.06701 15.6719 6.46131L15.6462 6.48701C15.0966 7.03662 14.6957 7.69506 14.4611 8.4131C14.1718 8.08662 13.8683 7.83506 13.6063 7.64967C13.7824 7.2931 13.8765 6.89826 13.8765 6.48865C13.8765 5.78701 13.6036 5.12803 13.1076 4.63201C12.3409 3.86529 11.4434 3.29162 10.5799 3.01654C9.55672 2.69006 8.68773 2.81584 8.13266 3.37092C7.57812 3.92545 7.45234 4.79443 7.77828 5.81763C8.05391 6.68115 8.62758 7.57912 9.39375 8.34584C9.88976 8.84185 10.5493 9.11474 11.2504 9.11474C11.7721 9.11474 12.2703 8.96326 12.6958 8.68217C13.1508 8.97638 13.9186 9.62443 14.151 10.745H8.02437C6.32578 10.745 4.94328 12.1269 4.94328 13.8261C4.94328 14.4949 5.1582 15.114 5.52133 15.6198C4.15578 15.9359 3.13477 17.1609 3.13477 18.6205C3.13477 20.0801 4.15578 21.3057 5.52133 21.6212C5.15766 22.1271 4.94328 22.7462 4.94328 23.415C4.94328 25.1136 6.32523 26.4961 8.02437 26.4961H21.7837C23.4823 26.4961 24.8648 25.1141 24.8648 23.415C24.8648 21.9548 23.8433 20.7298 22.4777 20.4143ZM17.0587 4.26287C17.6647 3.65693 18.3849 3.19045 19.0352 2.98318C19.2703 2.90826 19.4863 2.87107 19.6662 2.87107C19.8609 2.87107 20.013 2.91482 20.0999 3.00178C20.2673 3.16912 20.2744 3.57709 20.1185 4.06654C19.9112 4.71678 19.4448 5.43701 18.8388 6.04295C18.6009 6.28084 18.2848 6.41154 17.9491 6.41154C17.6133 6.41154 17.2966 6.28084 17.0593 6.04295C16.8214 5.80506 16.6907 5.48896 16.6907 5.15318C16.6907 4.8174 16.8209 4.50076 17.0587 4.26287ZM10.3606 7.37951C9.06727 6.08615 8.74516 4.69217 9.09953 4.33834C9.26687 4.17099 9.67484 4.16388 10.1643 4.31974C10.8145 4.52701 11.5348 4.99349 12.1407 5.59943C12.3786 5.83732 12.5093 6.15342 12.5093 6.48974C12.5093 6.82607 12.383 7.12904 12.1538 7.36474C12.1456 7.3724 12.1374 7.38115 12.1292 7.38935C11.6376 7.86951 10.8479 7.86678 10.3606 7.37951ZM8.02383 12.1127H21.7832C22.7282 12.1127 23.4971 12.8816 23.4971 13.8266C23.4971 14.7716 22.7282 15.5405 21.7832 15.5405H8.02383C7.07883 15.5405 6.30992 14.7716 6.30992 13.8266C6.30992 12.8816 7.07883 12.1127 8.02383 12.1127ZM4.50195 18.6211C4.50195 17.6761 5.27086 16.9072 6.21586 16.9072H19.9752C20.9202 16.9072 21.6891 17.6761 21.6891 18.6211C21.6891 19.5661 20.9202 20.335 19.9752 20.335H6.21586C5.27086 20.335 4.50195 19.5661 4.50195 18.6211ZM21.7832 25.1294H8.02383C7.07883 25.1294 6.30992 24.3605 6.30992 23.4155C6.30992 22.4705 7.07883 21.7016 8.02383 21.7016H21.7832C22.7282 21.7016 23.4971 22.4705 23.4971 23.4155C23.4971 24.3605 22.7282 25.1294 21.7832 25.1294Z" fill="#001E32"/>
<path fill-rule="evenodd" clip-rule="evenodd" d="M15.5869 10.5001V9.93184C15.5869 8.99613 15.9511 8.11621 16.6128 7.45449L16.6385 7.42879C17.0328 7.65629 17.4807 7.77824 17.9483 7.77824C18.6499 7.77824 19.3089 7.50535 19.8049 7.00934C20.5711 6.24262 21.1453 5.3452 21.4204 4.48113C21.7469 3.45793 21.6211 2.58895 21.066 2.03387C20.5115 1.47934 19.6425 1.35356 18.6188 1.67949C17.7553 1.95457 16.8573 2.52879 16.0911 3.29496C15.5951 3.79098 15.3222 4.45051 15.3222 5.1516C15.3222 5.61863 15.4442 6.06707 15.6717 6.46137L15.646 6.48707C15.0963 7.03668 14.6955 7.69512 14.4609 8.41316C14.1716 8.08668 13.8681 7.83512 13.6061 7.64973C13.7822 7.29316 13.8763 6.89832 13.8763 6.48871C13.8763 5.78707 13.6034 5.12809 13.1074 4.63207C12.3406 3.86535 11.4432 3.29168 10.5797 3.0166C9.5565 2.69012 8.68752 2.8159 8.13244 3.37098C7.57791 3.92551 7.45213 4.79449 7.77806 5.8177C8.05369 6.68121 8.62736 7.57918 9.39353 8.3459C9.88955 8.84191 10.5491 9.11481 11.2502 9.11481C11.7719 9.11481 12.2701 8.96332 12.6956 8.68223C13.1163 8.95431 13.8046 9.52897 14.0896 10.5001H15.5869ZM19.0349 2.98324C18.3847 3.19051 17.6645 3.65699 17.0585 4.26293C16.8206 4.50082 16.6905 4.81746 16.6905 5.15324C16.6905 5.48902 16.8212 5.80512 17.0591 6.04301C17.2964 6.2809 17.6131 6.4116 17.9488 6.4116C18.2846 6.4116 18.6007 6.2809 18.8386 6.04301C19.4445 5.43707 19.911 4.71684 20.1183 4.0666C20.2742 3.57715 20.267 3.16918 20.0997 3.00184C20.0127 2.91488 19.8607 2.87113 19.666 2.87113C19.4861 2.87113 19.2701 2.90832 19.0349 2.98324ZM9.09931 4.3384C8.74494 4.69223 9.06705 6.08621 10.3604 7.37957C10.8477 7.86684 11.6374 7.86957 12.129 7.38941C12.1317 7.38668 12.1345 7.38388 12.1372 7.38108C12.1427 7.3755 12.1481 7.36991 12.1536 7.36481C12.3828 7.1291 12.5091 6.82613 12.5091 6.48981C12.5091 6.15348 12.3784 5.83738 12.1405 5.59949C11.5345 4.99356 10.8143 4.52707 10.1641 4.31981C9.67463 4.16395 9.26666 4.17106 9.09931 4.3384Z" fill="#64CEB8"/>
</svg>
