<svg width="81" height="81" viewBox="0 0 81 81" fill="none" xmlns="http://www.w3.org/2000/svg">
<path d="M40.5388 0.821289C62.63 0.821289 80.5388 18.7301 80.5388 40.8213C80.5388 62.9125 62.63 80.8213 40.5388 80.8213C18.4476 80.8213 0.538818 62.9125 0.538818 40.8213C0.538818 18.7301 18.4588 0.821289 40.5388 0.821289Z" fill="#1E1E1E"/>
<path d="M34.5981 25.7124C32.3581 25.7428 30.4269 26.1812 28.5293 27.1268C23.6861 29.5396 20.8893 34.6196 20.8893 41.0212C20.8893 47.4228 23.6413 52.3668 28.5005 54.6724C29.8141 55.2948 31.1293 55.6324 33.1277 55.8724C34.1389 55.9124 35.0845 55.9844 36.0701 55.8724C38.0669 55.634 39.3837 55.2948 40.6957 54.6724C45.5565 52.3668 48.3069 47.4372 48.3069 41.0212C48.3069 34.6052 45.5101 29.5396 40.6685 27.1268C38.7709 26.1812 36.8413 25.7428 34.5981 25.7124V25.7124ZM36.5261 30.2244C39.4349 31.0004 41.5437 33.6228 42.3533 37.45C42.9213 40.138 42.7661 43.2436 41.9533 45.69C40.6861 49.4996 37.9389 51.6516 34.5933 51.61C31.2541 51.6452 28.5133 49.4932 27.2333 45.69C26.4205 43.2436 26.2653 40.138 26.8333 37.45C27.6333 33.6228 29.7517 31.0004 32.6605 30.2244C33.9328 29.9707 35.2426 29.9707 36.5149 30.2244H36.5261ZM15.2893 25.7124C14.7143 25.7124 14.1522 25.8829 13.6741 26.2023C13.196 26.5218 12.8234 26.9758 12.6034 27.5071C12.3833 28.0383 12.3258 28.6228 12.4379 29.1868C12.5501 29.7507 12.827 30.2687 13.2336 30.6753C13.6402 31.0819 14.1582 31.3588 14.7221 31.4709C15.2861 31.5831 15.8706 31.5255 16.4018 31.3055C16.933 31.0854 17.3871 30.7128 17.7065 30.2347C18.026 29.7567 18.1965 29.1946 18.1965 28.6196V28.6196C18.1965 27.8485 17.8902 27.1091 17.345 26.5639C16.7998 26.0187 16.0603 25.7124 15.2893 25.7124V25.7124ZM12.5693 34.5828V55.9316H18.0093V34.5812L12.5693 34.5828ZM56.2029 55.8884C53.8765 55.4884 51.6365 55.1796 49.7373 54.1012C49.7117 54.0788 50.8573 49.7924 50.9101 49.7156C53.9645 50.7524 58.2701 52.2068 61.1629 50.874C62.7437 50.0836 63.5213 48.6228 63.2605 46.9348C62.9661 45.0388 61.6525 43.946 58.0493 42.5988C54.0285 41.0964 51.6733 39.25 50.7101 36.8484C50.2255 35.574 50.0815 34.1954 50.2925 32.8484C50.8845 29.1956 53.7293 26.6548 58.0973 25.8788C59.3613 25.6532 62.0669 25.6516 63.3981 25.8788C65.3181 26.1988 67.5165 26.9252 67.5165 27.2372C67.5165 27.3524 66.3965 31.3156 66.3357 31.3972C64.4381 30.6452 62.3117 30.1092 60.5117 30.098C57.9645 30.0644 55.2029 31.5764 55.6893 34.2484C56.0349 35.9204 57.1021 36.738 61.0333 38.3348C63.9293 39.5124 65.3181 40.3252 66.5085 41.5348C68.1629 43.1876 68.6861 45.1252 68.6989 47.0468C68.6989 48.6468 68.5533 49.394 67.9821 50.6308C66.5954 53.6313 63.7746 55.3711 59.5197 55.85C58.4175 55.9423 57.31 55.9546 56.2061 55.8868L56.2029 55.8884Z" fill="white"/>
</svg>
