<svg width="32" height="32" viewBox="0 0 32 32" fill="none" xmlns="http://www.w3.org/2000/svg">
<g clip-path="url(#clip0_141_990)">
<path d="M25.4368 0H6.5632C2.944 0 0 2.944 0 6.5632V25.4368C0 29.056 2.944 32 6.5632 32H25.4368C29.056 32 32 29.056 32 25.4368V6.5632C32 2.944 29.056 0 25.4368 0ZM29.8528 25.2576C29.8528 27.792 27.792 29.856 25.2544 29.856H6.7456C4.2112 29.856 2.1472 27.7952 2.1472 25.2576V6.7456C2.1472 4.2112 4.208 2.1472 6.7456 2.1472H25.2544C27.7888 2.1472 29.8528 4.208 29.8528 6.7456V25.2576Z" fill="#071F30"/>
<path d="M19.1042 7.72161C18.9954 7.31841 18.7362 6.98241 18.3746 6.77441C17.629 6.34241 16.6722 6.60161 16.2402 7.34721L16.0002 7.76321L15.7602 7.34721C15.3282 6.60161 14.3714 6.34561 13.6258 6.77441C12.8802 7.20641 12.6242 8.16321 13.053 8.90881L14.1954 10.8864L9.98104 18.1888H6.90584C6.04504 18.1888 5.34424 18.8896 5.34424 19.7504C5.34424 20.6112 6.04504 21.312 6.90584 21.312H18.7714L16.9666 18.1856H13.5874L18.9474 8.90561C19.1554 8.54721 19.2098 8.12481 19.1042 7.72161Z" fill="#001E32"/>
<path d="M25.0946 18.1889H22.0194L18.525 12.1377L16.7202 15.2641L22.1442 24.6593C22.3522 25.0209 22.6882 25.2801 23.0914 25.3889C23.2258 25.4241 23.3634 25.4433 23.4978 25.4433C23.7698 25.4433 24.0354 25.3729 24.2754 25.2321C25.021 24.8001 25.277 23.8433 24.8482 23.0977L23.8178 21.3153H25.0882C25.949 21.3153 26.6498 20.6145 26.6498 19.7537C26.6562 18.8897 25.9554 18.1889 25.0946 18.1889Z" fill="#071F30"/>
<path d="M7.45295 22.5633L7.14575 23.0945C6.71375 23.8401 6.97295 24.7969 7.71855 25.2289C7.96495 25.3697 8.23375 25.4369 8.49615 25.4369C9.03695 25.4369 9.56175 25.1553 9.85295 24.6561L11.0626 22.5601H7.45295V22.5633Z" fill="#071F30"/>
</g>
<defs>
<clipPath id="clip0_141_990">
<rect width="32" height="32" fill="white"/>
</clipPath>
</defs>
</svg>
