<svg width="20" height="20" viewBox="0 0 20 20" fill="none" xmlns="http://www.w3.org/2000/svg">
<path d="M16.6667 15.5C17.5833 15.5 18.325 14.75 18.325 13.8333L18.3333 3.66667C18.3333 2.75 17.5833 2 16.6667 2H3.33333C2.41667 2 1.66667 2.75 1.66667 3.66667V13.8333C1.66667 14.75 2.41667 15.5 3.33333 15.5H0C0 16.4167 0.75 17.1667 1.66667 17.1667H18.3333C19.25 17.1667 20 16.4167 20 15.5H16.6667ZM4.16667 3.66667H15.8333C16.2917 3.66667 16.6667 4.04167 16.6667 4.5V13C16.6667 13.4583 16.2917 13.8333 15.8333 13.8333H4.16667C3.70833 13.8333 3.33333 13.4583 3.33333 13V4.5C3.33333 4.04167 3.70833 3.66667 4.16667 3.66667ZM10 16.3333C9.54167 16.3333 9.16667 15.9583 9.16667 15.5C9.16667 15.0417 9.54167 14.6667 10 14.6667C10.4583 14.6667 10.8333 15.0417 10.8333 15.5C10.8333 15.9583 10.4583 16.3333 10 16.3333Z" fill="white"/>
</svg>
