<svg width="160" height="105" viewBox="0 0 160 105" fill="none" xmlns="http://www.w3.org/2000/svg">
<rect y="0.946533" width="160" height="104" rx="5" fill="white"/>
<path fill-rule="evenodd" clip-rule="evenodd" d="M155.881 0.946533H4.11898C1.84136 0.946533 0 2.79072 0 5.06551V100.516C0 102.791 1.84136 104.638 4.11898 104.638H155.881C158.159 104.638 160 102.794 160 100.519V5.06551C160 2.79356 158.159 0.946533 155.881 0.946533ZM42.0872 26.2505L44.6378 11.1893H48.7672L46.2167 26.2505H42.0872ZM57.2157 10.9466C58.8169 10.9466 60.099 11.2735 60.9174 11.5787L60.3563 14.8432L59.9868 14.6694C59.2241 14.3642 58.2456 14.0715 56.8952 14.0926C55.2788 14.0926 54.5299 14.762 54.5299 15.3878C54.5204 16.0941 55.4046 16.5588 56.8483 17.2547C59.231 18.3299 60.3315 19.6337 60.3158 21.3468C60.2841 24.4737 57.4651 26.4916 53.1246 26.4926C51.2725 26.4742 49.4884 26.1094 48.5236 25.6889L49.1035 22.3172L49.6356 22.5572C50.992 23.1193 51.8705 23.3471 53.5231 23.3477C54.7104 23.3477 55.9847 22.8862 55.9946 21.8766C56.0025 21.2182 55.462 20.7455 53.8546 20.0087C52.2872 19.2876 50.2125 18.0808 50.2351 15.9171C50.2599 12.9898 53.1346 10.9466 57.2157 10.9466ZM67.9579 11.1893C66.9685 11.1893 66.2536 11.4915 65.8188 12.472L59.6988 26.2511H64.071L64.921 23.9431H70.1447L70.63 26.2511H74.5169L71.1164 11.1898H67.958L67.9579 11.1893ZM66.081 20.9294C66.4221 20.0621 67.7258 16.7199 67.7258 16.7199C67.7148 16.7383 67.7877 16.5503 67.8898 16.2871C68.0069 15.9855 68.1623 15.5849 68.2737 15.283L68.5532 16.5809C68.5532 16.5809 69.3431 20.1762 69.509 20.9299H66.081V20.9294ZM34.1929 19.4488L34.5566 21.5136L38.687 11.1893H43.0592L36.5007 26.2505H32.1275L28.4942 13.1873C27.1711 12.436 25.6629 11.8349 23.9895 11.4324V11.1892L30.7917 11.1893C31.688 11.2224 32.4455 11.5215 32.6954 12.4746L34.1927 19.4482L34.1929 19.4488ZM72.0822 51.8121L71.725 54.2376C71.6852 54.2483 71.6353 54.263 71.576 54.2806C71.2088 54.3892 70.4828 54.6039 69.5858 54.6115C68.2556 54.6236 67.3121 53.8752 67.3121 52.195C67.3121 51.0601 68.9337 41.7393 68.9966 41.6764H71.8502L71.5604 43.3449H72.9838L72.6194 46.0278H71.1097L70.3073 50.9769C70.244 51.3674 70.3535 51.8955 71.3469 51.8955C71.4817 51.8955 71.6261 51.8719 71.7611 51.8497C71.8797 51.8303 71.991 51.8121 72.0822 51.8121ZM72.6293 49.6132C72.6293 53.6458 75.2911 54.604 77.5587 54.604C79.6518 54.604 80.5729 54.1361 80.5729 54.1361L81.0756 51.3839C81.0756 51.3839 79.4834 52.0853 78.0454 52.0853C74.9813 52.0853 75.5179 49.8007 75.5179 49.8007H81.317C81.317 49.8007 81.6914 47.9517 81.6914 47.1982C81.6914 45.318 80.7556 43.0271 77.6225 43.0271C74.7533 43.0277 72.6293 46.1193 72.6293 49.6132ZM77.6334 45.5827C79.1133 45.5827 78.9824 47.1109 78.9515 47.4723C78.9487 47.5041 78.9468 47.5269 78.9468 47.5388H75.7787C75.7787 47.3519 76.0781 45.5827 77.6334 45.5827ZM96.2136 51.1253L95.703 54.2362C95.703 54.2362 94.1695 54.6273 93.2067 54.627C89.8015 54.627 88.071 52.2765 88.071 48.7176C88.071 43.3505 91.2757 40.4927 94.57 40.4927C96.0533 40.4927 97.7838 41.1929 97.7838 41.1929L97.318 44.2155C97.318 44.2155 96.151 43.3992 94.697 43.3992C92.7582 43.3992 91.0165 45.2524 91.0165 48.6211C91.0165 50.2817 91.8284 51.8273 93.8525 51.8273C94.8135 51.8273 96.2136 51.1253 96.2136 51.1253ZM56.0304 43.0712C54.0737 43.0712 52.5737 43.7 52.5737 43.7L52.1596 46.1583C52.1596 46.1583 53.3977 45.6552 55.2691 45.6552C56.3317 45.6552 57.109 45.7747 57.109 46.6383C57.109 47.1628 57.0137 47.3564 57.0137 47.3564C57.0137 47.3564 56.1756 47.2862 55.7875 47.2862C53.3196 47.2862 50.7271 48.3394 50.7271 51.5148C50.7271 54.0168 52.4279 54.5909 53.482 54.5909C55.2392 54.5909 56.1238 53.5958 56.3512 53.34C56.3843 53.3027 56.4035 53.2811 56.4094 53.2806L56.3153 54.371H58.828L59.949 46.5125C59.949 43.1786 57.0407 43.0712 56.0304 43.0712ZM56.6417 49.4697C56.6961 49.9498 56.3407 52.1999 54.6227 52.1999C53.7364 52.1999 53.5059 51.5229 53.5059 51.1225C53.5059 50.3415 53.9303 49.4038 56.0213 49.4038C56.4044 49.4043 56.518 49.4367 56.5891 49.4569C56.6082 49.4623 56.6243 49.4669 56.6417 49.4697ZM62.6462 54.5333L62.6195 54.5333C60.378 54.5333 59.5873 54.2442 59.4391 54.19C59.429 54.1863 59.4219 54.1837 59.4175 54.1824L59.798 51.6882C59.7989 51.684 59.8444 51.6977 59.9269 51.7225L59.927 51.7225C60.2711 51.8261 61.2586 52.1231 62.3322 52.1231C63.1014 52.1231 64.0995 52.0484 64.0995 51.1298C64.0995 50.5881 63.5461 50.3104 62.8748 49.9737C61.8406 49.4548 60.5267 48.7956 60.5267 46.8144C60.5267 43.9312 62.6694 43.0885 64.7804 43.0885C66.3645 43.0885 67.355 43.3002 67.4107 43.3121L67.4131 43.3127L67.0532 45.8323C67.0532 45.8323 65.5054 45.7043 65.1031 45.7043C64.0899 45.7043 63.5354 45.9275 63.5354 46.6365C63.5354 47.189 64.0473 47.4217 64.6739 47.7067C65.6626 48.1562 66.9368 48.7355 66.9368 50.9051C66.9368 54.5657 63.5117 54.5398 62.6967 54.5337L62.6462 54.5333ZM119.34 40.8101L118.724 44.6294C118.724 44.6294 117.65 43.1458 115.969 43.1458C113.354 43.1458 111.175 46.2982 111.175 49.9203C111.175 52.2584 112.337 54.5494 114.713 54.5494C116.423 54.5494 117.37 53.3576 117.37 53.3576L117.245 54.3755H120.02L122.2 40.8055L119.34 40.8101ZM118.015 48.257C118.015 49.7642 117.268 51.7775 115.721 51.7775C114.694 51.7775 114.213 50.9155 114.213 49.5625C114.213 47.3502 115.207 45.8904 116.461 45.8904C117.488 45.8901 118.015 46.5958 118.015 48.257ZM42.3166 44.1425L40.5795 54.3873H37.8282L40.1104 40.7992H44.2745L44.4209 49.1364L47.2343 40.7992H51.7517L49.5019 54.3873H46.5806L48.2052 44.1425L44.5377 54.3873H42.5716L42.3166 44.1425ZM84.5451 54.406C84.6905 53.579 84.8152 52.7792 84.9326 52.0262C85.4857 48.4786 85.8767 45.9701 87.5118 46.5492C87.8587 44.7211 88.1936 44.0139 88.5723 43.2402C88.5723 43.2402 88.3947 43.203 88.0221 43.203C86.7441 43.203 85.7974 44.9488 85.7974 44.9488L86.0517 43.3454H83.3948L81.6147 54.406H84.5451ZM98.8303 43.7C98.8303 43.7 100.33 43.0712 102.287 43.0712C103.297 43.0712 106.206 43.1786 106.206 46.5125L105.085 54.371H102.572L102.666 53.2806C102.66 53.2811 102.641 53.3025 102.608 53.3394L102.608 53.3396L102.608 53.3397C102.381 53.5949 101.497 54.5909 99.7386 54.5909C98.6845 54.5909 96.984 54.0168 96.984 51.5148C96.984 48.3394 99.5765 47.2862 102.044 47.2862C102.432 47.2862 103.271 47.3564 103.271 47.3564C103.271 47.3564 103.365 47.1628 103.365 46.6383C103.365 45.7747 102.589 45.6552 101.526 45.6552C99.6546 45.6552 98.4165 46.1583 98.4165 46.1583L98.8303 43.7ZM100.879 52.1999C102.598 52.1999 102.954 49.9498 102.899 49.4697C102.889 49.468 102.879 49.4657 102.868 49.4629L102.846 49.4568C102.774 49.4365 102.661 49.4043 102.278 49.4038C100.188 49.4038 99.7632 50.3415 99.7632 51.1225C99.7632 51.5229 99.993 52.1999 100.879 52.1999ZM108.89 52.0251L108.891 52.0249C109.444 48.478 109.835 45.9702 111.469 46.5492C111.817 44.7211 112.152 44.0139 112.53 43.2402C112.53 43.2402 112.353 43.203 111.98 43.203C110.702 43.203 109.755 44.9488 109.755 44.9488L110.01 43.3454H107.353L105.573 54.406H108.503C108.648 53.5786 108.773 52.7784 108.89 52.0251ZM122.564 52.8125C122.426 52.7369 122.284 52.6997 122.139 52.6997C121.994 52.6997 121.851 52.7369 121.712 52.8125C121.573 52.8863 121.465 52.9934 121.387 53.1328C121.309 53.2714 121.271 53.4157 121.271 53.5666C121.271 53.7157 121.309 53.8597 121.386 53.9973C121.462 54.1349 121.569 54.2423 121.706 54.3188C121.844 54.3945 121.988 54.4326 122.139 54.4326C122.288 54.4326 122.432 54.3945 122.569 54.3188C122.707 54.2429 122.814 54.1349 122.89 53.9973C122.966 53.8597 123.004 53.7157 123.004 53.5666C123.004 53.4157 122.966 53.2714 122.888 53.1328C122.811 52.9934 122.703 52.8857 122.564 52.8125ZM121.783 52.9371C121.899 52.8739 122.018 52.8425 122.139 52.8425C122.26 52.8425 122.378 52.8742 122.493 52.9371C122.609 52.9988 122.699 53.0881 122.763 53.2048C122.828 53.3201 122.861 53.4408 122.861 53.566C122.861 53.6912 122.829 53.8101 122.766 53.9253C122.702 54.0394 122.612 54.1289 122.498 54.1933C122.384 54.2562 122.263 54.288 122.139 54.288C122.013 54.288 121.894 54.2562 121.779 54.1933C121.664 54.1289 121.574 54.0394 121.51 53.9253C121.447 53.811 121.415 53.6912 121.415 53.566C121.415 53.4408 121.448 53.3201 121.513 53.2048C121.578 53.0881 121.668 52.9988 121.783 52.9371ZM121.759 53.1126V54.0451L121.911 54.0454V53.6489H121.999C122.052 53.6489 122.092 53.6595 122.12 53.6809C122.16 53.7103 122.212 53.7823 122.277 53.8981L122.359 54.0448H122.544L122.43 53.8621C122.375 53.7759 122.329 53.7142 122.292 53.6773C122.271 53.6585 122.245 53.6419 122.213 53.628C122.293 53.6225 122.358 53.5935 122.405 53.5433C122.454 53.4931 122.479 53.4335 122.479 53.3654C122.479 53.317 122.464 53.272 122.435 53.229C122.405 53.1858 122.367 53.1558 122.318 53.1392C122.269 53.1213 122.189 53.1126 122.08 53.1126H121.759ZM122.093 53.5203H121.91V53.239H122.081C122.155 53.239 122.204 53.2445 122.232 53.255C122.259 53.2662 122.281 53.2823 122.296 53.3046C122.311 53.3255 122.319 53.3503 122.319 53.3778C122.319 53.4211 122.302 53.4559 122.27 53.4813C122.239 53.5073 122.18 53.5203 122.093 53.5203ZM98.6002 85.7574H98.9272C99.2298 85.7574 99.4322 85.6545 99.5272 85.4549L100.38 84.1785H102.664L102.187 85.0165H104.925L104.578 86.3028H101.32C100.945 86.8678 100.483 87.1335 99.9281 87.1025H98.2311L98.6002 85.7574ZM98.2244 87.5989H104.224L103.842 88.996H101.429L101.061 90.3455H103.409L103.027 91.7412H100.679L100.133 93.7341C99.9989 94.0677 100.175 94.2168 100.664 94.1824H102.576L102.222 95.4819H98.5491C97.853 95.4819 97.6135 95.083 97.8325 94.2846L98.5294 91.7417H97.0282L97.4093 90.346H98.9098L99.2777 88.9965H97.8438L98.2244 87.5989ZM107.799 84.1679L107.705 84.9855C107.705 84.9855 108.836 84.1369 109.864 84.1369H113.662L112.209 89.3935C112.088 89.9947 111.572 90.2933 110.66 90.2933H106.356L105.348 93.9854C105.29 94.1826 105.372 94.2841 105.589 94.2841H106.435L106.124 95.4299H103.97C103.144 95.4299 102.801 95.1813 102.937 94.6816L105.786 84.1678L107.799 84.1679ZM111.015 85.654H107.625L107.22 87.0728C107.22 87.0728 107.784 86.6647 108.728 86.6502C109.669 86.6363 110.743 86.6502 110.743 86.6502L111.015 85.654ZM109.787 88.9458C110.038 88.9794 110.178 88.8799 110.194 88.6457L110.402 87.8988H107.008L106.723 88.9458H109.787ZM107.497 90.6441H109.454L109.418 91.4901H109.939C110.202 91.4901 110.332 91.4064 110.332 91.2402L110.487 90.6917H112.113L111.896 91.4901C111.713 92.1573 111.225 92.5034 110.434 92.5383H109.392L109.387 93.9854C109.368 94.2175 109.578 94.3355 110.009 94.3355H110.989L110.672 95.4813H108.322C107.664 95.5124 107.341 95.1978 107.347 94.5327L107.497 90.6441ZM116.267 84.2177L115.814 85.8145H116.258L114.116 93.3464H113.677L113.249 94.843H117.633L117.447 95.4918H119.669L119.855 94.843H120.302L120.726 93.3464H120.28L122.42 85.8145H122.866L123.318 84.2177H120.48C119.635 84.2177 118.463 84.8037 118.463 84.8037L118.562 84.2177H116.267ZM117.705 87.8532L118.289 85.8147H120.004C120.004 85.8147 119.756 86.6494 119.565 87.3614C118.704 87.4694 117.705 87.8532 117.705 87.8532ZM116.849 90.9432L117.435 88.8083H119.155C119.155 88.8083 118.935 89.5269 118.716 90.3524C117.956 90.4 116.849 90.9432 116.849 90.9432ZM118.304 91.7963L117.865 93.3456H116.149L116.59 91.7963H118.304ZM125.571 84.1181H123.414L123.489 85.8611C123.517 86.3622 123.829 86.593 124.434 86.562H126.02L126.405 85.2125H126.024C125.768 85.2125 125.648 85.1163 125.662 84.9138L125.571 84.1181ZM129.769 87.0104H122.782L122.369 88.4568H124.784L124.4 89.8037H121.987L121.575 91.2482H123.8L122.075 93.7423C121.879 93.9763 121.663 94.0924 121.401 94.0924H120.767L120.371 95.4895H122.405C122.945 95.5231 123.346 95.3067 123.607 94.8407L124.709 93.1925L125.03 94.7419C125.059 95.2415 125.416 95.4736 126.106 95.4387H127.438L127.833 94.043H127.458C127.202 94.043 127.052 93.9606 127.018 93.7918L126.739 92.096H125.527L126.087 91.2489H128.563L128.975 89.8044H126.753L127.134 88.4575H129.358L129.769 87.0104ZM83.7865 77.1644C83.5208 78.4653 82.9057 79.4627 81.9517 80.1728C81.0057 80.8711 79.7859 81.2198 78.2926 81.2198C76.8871 81.2198 75.8572 80.8632 75.1998 80.1471C74.7441 79.6375 74.5168 78.9907 74.5168 78.2094C74.5168 77.8865 74.5558 77.5383 74.633 77.1651L76.2246 69.4929H78.6277L77.058 77.0773C77.0099 77.2883 76.9902 77.4828 76.9928 77.6595C76.9902 78.0486 77.0878 78.3677 77.2816 78.6161C77.567 78.9847 78.0285 79.1672 78.6714 79.1672C79.4111 79.1672 80.0204 78.9872 80.493 78.6226C80.9664 78.2593 81.275 77.7471 81.4133 77.0772L82.9876 69.4927H85.3783L83.7865 77.1644ZM87.6973 74.1436H86.0003L84.6295 80.9953H86.3772L87.1551 77.0599C87.2561 76.5654 87.4591 76.1778 87.7683 75.8969C88.0763 75.62 88.4534 75.4795 88.903 75.4795C89.2676 75.4795 89.5215 75.5844 89.654 75.794C89.7877 76.0044 89.8122 76.33 89.7252 76.7665L88.8814 80.9953H90.6259L91.5608 76.33C91.7106 75.5897 91.6243 75.0128 91.3064 74.5954C90.9827 74.1767 90.4677 73.9697 89.7537 73.9697C88.9652 73.9697 88.2966 74.2616 87.7461 74.8517L87.5028 75.1326L87.6973 74.1436ZM105.464 74.1436H107.162L106.969 75.1326L107.21 74.8517C107.76 74.2616 108.432 73.9697 109.218 73.9697C109.932 73.9697 110.448 74.1767 110.769 74.5954C111.085 75.0128 111.177 75.5897 111.023 76.33L110.092 80.9953H108.345L109.189 76.7665C109.276 76.33 109.252 76.0044 109.12 75.794C108.982 75.5844 108.734 75.4795 108.369 75.4795C107.92 75.4795 107.544 75.62 107.232 75.8969C106.924 76.1778 106.718 76.5654 106.622 77.0599L105.84 80.9953H104.095L105.464 74.1436ZM95.76 74.1462H93.8784L92.4075 80.993H94.2858L95.76 74.1462ZM96.3692 71.6521H94.4704L94.1158 73.3142H96.0145L96.3692 71.6521ZM97.4259 80.4729C96.9341 80.0015 96.6855 79.3679 96.6829 78.5622C96.6829 78.4244 96.6915 78.2674 96.7093 78.0961C96.7278 77.922 96.7509 77.7532 96.7831 77.5964C97.006 76.4848 97.4814 75.602 98.2139 74.9501C98.9444 74.296 99.8264 73.9678 100.859 73.9678C101.705 73.9678 102.376 74.2044 102.867 74.6771C103.358 75.1538 103.604 75.7946 103.604 76.6115C103.604 76.7507 103.592 76.9128 103.575 77.0854C103.553 77.2622 103.526 77.4303 103.496 77.5964C103.278 78.6922 102.804 79.5651 102.072 80.2052C101.34 80.8494 100.46 81.1711 99.4349 81.1711C98.5856 81.1711 97.9171 80.9377 97.4259 80.4729ZM101.012 79.1167C101.344 78.756 101.581 78.2115 101.727 77.4849C101.748 77.3714 101.767 77.2528 101.779 77.1348C101.791 77.0187 101.796 76.9119 101.796 76.8118C101.796 76.3905 101.689 76.0623 101.473 75.8307C101.258 75.5967 100.953 75.4806 100.558 75.4806C100.038 75.4806 99.6124 75.6632 99.28 76.0305C98.9444 76.3977 98.707 76.9522 98.5574 77.6907C98.537 77.8042 98.5199 77.9189 98.5048 78.0295C98.4915 78.143 98.4889 78.2484 98.4908 78.3453C98.4908 78.7651 98.599 79.0883 98.8145 79.3177C99.0288 79.5471 99.3327 79.6606 99.7323 79.6606C100.256 79.6594 100.681 79.4786 101.012 79.1167ZM118.791 69.8983H113.859L111.582 80.9953H113.872L114.69 76.9829H117.334C118.401 76.9829 119.327 76.6599 120.109 76.0184C120.888 75.3749 121.393 74.5251 121.609 73.469C121.65 73.2759 121.681 73.0886 121.705 72.906C121.72 72.7206 121.729 72.5494 121.729 72.3977V72.3734C121.729 71.5748 121.478 70.9618 120.977 70.5345C120.473 70.1118 119.739 69.8983 118.791 69.8983ZM117.286 75.0541H115.093L115.76 71.7984H117.623C118.231 71.7984 118.67 71.8848 118.951 72.0661C119.23 72.2454 119.37 72.5296 119.37 72.9226C119.37 72.985 119.364 73.0492 119.358 73.1138V73.1139V73.114L119.353 73.1592C119.351 73.174 119.348 73.1891 119.346 73.2045L119.337 73.2617C119.333 73.2883 119.329 73.3156 119.324 73.3436C119.319 73.3737 119.314 73.4046 119.308 73.4362C119.187 73.9859 118.97 74.3921 118.642 74.6585C118.311 74.9201 117.857 75.0541 117.286 75.0541ZM130.159 85.174C130.136 85.1975 130.112 85.2228 130.086 85.2495C129.659 85.6931 128.841 86.5425 127.015 86.4749L127.181 85.3007C128.613 84.8592 129.467 83.0591 129.993 81.9502C130.065 81.7975 130.132 81.6579 130.192 81.5367L129.594 74.1646L130.854 74.1468H131.911L132.025 78.7724L134.006 74.1468H136.011L131.978 82.3207C131.254 83.8594 130.564 84.7568 130.159 85.174ZM125.575 75.2513L126.372 74.704L128.248 74.54L126.827 80.9965L124.663 80.9412L124.349 80.5699C118.848 82.9096 120.518 75.8037 122.516 74.8781C123.983 74.1964 124.742 74.5999 125.575 75.2513ZM123.409 79.7442C124.017 79.9375 124.794 79.259 125.141 78.2338C125.496 77.2061 125.276 76.2171 124.668 76.0278C124.065 75.836 123.283 76.5104 122.936 77.5382C122.583 78.566 122.801 79.5564 123.409 79.7442Z" fill="url(#paint0_linear_332_11)"/>
<path fill-rule="evenodd" clip-rule="evenodd" d="M155.881 0.946533H4.11898C1.84136 0.946533 0 2.79072 0 5.06551V100.516C0 102.791 1.84136 104.638 4.11898 104.638H155.881C158.159 104.638 160 102.794 160 100.519V5.06551C160 2.79356 158.159 0.946533 155.881 0.946533ZM42.0872 26.2505L44.6378 11.1893H48.7672L46.2167 26.2505H42.0872ZM57.2157 10.9466C58.8169 10.9466 60.099 11.2735 60.9174 11.5787L60.3563 14.8432L59.9868 14.6694C59.2241 14.3642 58.2456 14.0715 56.8952 14.0926C55.2788 14.0926 54.5299 14.762 54.5299 15.3878C54.5204 16.0941 55.4046 16.5588 56.8483 17.2547C59.231 18.3299 60.3315 19.6337 60.3158 21.3468C60.2841 24.4737 57.4651 26.4916 53.1246 26.4926C51.2725 26.4742 49.4884 26.1094 48.5236 25.6889L49.1035 22.3172L49.6356 22.5572C50.992 23.1193 51.8705 23.3471 53.5231 23.3477C54.7104 23.3477 55.9847 22.8862 55.9946 21.8766C56.0025 21.2182 55.462 20.7455 53.8546 20.0087C52.2872 19.2876 50.2125 18.0808 50.2351 15.9171C50.2599 12.9898 53.1346 10.9466 57.2157 10.9466ZM67.9579 11.1893C66.9685 11.1893 66.2536 11.4915 65.8188 12.472L59.6988 26.2511H64.071L64.921 23.9431H70.1447L70.63 26.2511H74.5169L71.1164 11.1898H67.958L67.9579 11.1893ZM66.081 20.9294C66.4221 20.0621 67.7258 16.7199 67.7258 16.7199C67.7148 16.7383 67.7877 16.5503 67.8898 16.2871C68.0069 15.9855 68.1623 15.5849 68.2737 15.283L68.5532 16.5809C68.5532 16.5809 69.3431 20.1762 69.509 20.9299H66.081V20.9294ZM34.1929 19.4488L34.5566 21.5136L38.687 11.1893H43.0592L36.5007 26.2505H32.1275L28.4942 13.1873C27.1711 12.436 25.6629 11.8349 23.9895 11.4324V11.1892L30.7917 11.1893C31.688 11.2224 32.4455 11.5215 32.6954 12.4746L34.1927 19.4482L34.1929 19.4488ZM72.0822 51.8121L71.725 54.2376C71.6852 54.2483 71.6353 54.263 71.576 54.2806C71.2088 54.3892 70.4828 54.6039 69.5858 54.6115C68.2556 54.6236 67.3121 53.8752 67.3121 52.195C67.3121 51.0601 68.9337 41.7393 68.9966 41.6764H71.8502L71.5604 43.3449H72.9838L72.6194 46.0278H71.1097L70.3073 50.9769C70.244 51.3674 70.3535 51.8955 71.3469 51.8955C71.4817 51.8955 71.6261 51.8719 71.7611 51.8497C71.8797 51.8303 71.991 51.8121 72.0822 51.8121ZM72.6293 49.6132C72.6293 53.6458 75.2911 54.604 77.5587 54.604C79.6518 54.604 80.5729 54.1361 80.5729 54.1361L81.0756 51.3839C81.0756 51.3839 79.4834 52.0853 78.0454 52.0853C74.9813 52.0853 75.5179 49.8007 75.5179 49.8007H81.317C81.317 49.8007 81.6914 47.9517 81.6914 47.1982C81.6914 45.318 80.7556 43.0271 77.6225 43.0271C74.7533 43.0277 72.6293 46.1193 72.6293 49.6132ZM77.6334 45.5827C79.1133 45.5827 78.9824 47.1109 78.9515 47.4723C78.9487 47.5041 78.9468 47.5269 78.9468 47.5388H75.7787C75.7787 47.3519 76.0781 45.5827 77.6334 45.5827ZM96.2136 51.1253L95.703 54.2362C95.703 54.2362 94.1695 54.6273 93.2067 54.627C89.8015 54.627 88.071 52.2765 88.071 48.7176C88.071 43.3505 91.2757 40.4927 94.57 40.4927C96.0533 40.4927 97.7838 41.1929 97.7838 41.1929L97.318 44.2155C97.318 44.2155 96.151 43.3992 94.697 43.3992C92.7582 43.3992 91.0165 45.2524 91.0165 48.6211C91.0165 50.2817 91.8284 51.8273 93.8525 51.8273C94.8135 51.8273 96.2136 51.1253 96.2136 51.1253ZM56.0304 43.0712C54.0737 43.0712 52.5737 43.7 52.5737 43.7L52.1596 46.1583C52.1596 46.1583 53.3977 45.6552 55.2691 45.6552C56.3317 45.6552 57.109 45.7747 57.109 46.6383C57.109 47.1628 57.0137 47.3564 57.0137 47.3564C57.0137 47.3564 56.1756 47.2862 55.7875 47.2862C53.3196 47.2862 50.7271 48.3394 50.7271 51.5148C50.7271 54.0168 52.4279 54.5909 53.482 54.5909C55.2392 54.5909 56.1238 53.5958 56.3512 53.34C56.3843 53.3027 56.4035 53.2811 56.4094 53.2806L56.3153 54.371H58.828L59.949 46.5125C59.949 43.1786 57.0407 43.0712 56.0304 43.0712ZM56.6417 49.4697C56.6961 49.9498 56.3407 52.1999 54.6227 52.1999C53.7364 52.1999 53.5059 51.5229 53.5059 51.1225C53.5059 50.3415 53.9303 49.4038 56.0213 49.4038C56.4044 49.4043 56.518 49.4367 56.5891 49.4569C56.6082 49.4623 56.6243 49.4669 56.6417 49.4697ZM62.6462 54.5333L62.6195 54.5333C60.378 54.5333 59.5873 54.2442 59.4391 54.19C59.429 54.1863 59.4219 54.1837 59.4175 54.1824L59.798 51.6882C59.7989 51.684 59.8444 51.6977 59.9269 51.7225L59.927 51.7225C60.2711 51.8261 61.2586 52.1231 62.3322 52.1231C63.1014 52.1231 64.0995 52.0484 64.0995 51.1298C64.0995 50.5881 63.5461 50.3104 62.8748 49.9737C61.8406 49.4548 60.5267 48.7956 60.5267 46.8144C60.5267 43.9312 62.6694 43.0885 64.7804 43.0885C66.3645 43.0885 67.355 43.3002 67.4107 43.3121L67.4131 43.3127L67.0532 45.8323C67.0532 45.8323 65.5054 45.7043 65.1031 45.7043C64.0899 45.7043 63.5354 45.9275 63.5354 46.6365C63.5354 47.189 64.0473 47.4217 64.6739 47.7067C65.6626 48.1562 66.9368 48.7355 66.9368 50.9051C66.9368 54.5657 63.5117 54.5398 62.6967 54.5337L62.6462 54.5333ZM119.34 40.8101L118.724 44.6294C118.724 44.6294 117.65 43.1458 115.969 43.1458C113.354 43.1458 111.175 46.2982 111.175 49.9203C111.175 52.2584 112.337 54.5494 114.713 54.5494C116.423 54.5494 117.37 53.3576 117.37 53.3576L117.245 54.3755H120.02L122.2 40.8055L119.34 40.8101ZM118.015 48.257C118.015 49.7642 117.268 51.7775 115.721 51.7775C114.694 51.7775 114.213 50.9155 114.213 49.5625C114.213 47.3502 115.207 45.8904 116.461 45.8904C117.488 45.8901 118.015 46.5958 118.015 48.257ZM42.3166 44.1425L40.5795 54.3873H37.8282L40.1104 40.7992H44.2745L44.4209 49.1364L47.2343 40.7992H51.7517L49.5019 54.3873H46.5806L48.2052 44.1425L44.5377 54.3873H42.5716L42.3166 44.1425ZM84.5451 54.406C84.6905 53.579 84.8152 52.7792 84.9326 52.0262C85.4857 48.4786 85.8767 45.9701 87.5118 46.5492C87.8587 44.7211 88.1936 44.0139 88.5723 43.2402C88.5723 43.2402 88.3947 43.203 88.0221 43.203C86.7441 43.203 85.7974 44.9488 85.7974 44.9488L86.0517 43.3454H83.3948L81.6147 54.406H84.5451ZM98.8303 43.7C98.8303 43.7 100.33 43.0712 102.287 43.0712C103.297 43.0712 106.206 43.1786 106.206 46.5125L105.085 54.371H102.572L102.666 53.2806C102.66 53.2811 102.641 53.3025 102.608 53.3394L102.608 53.3396L102.608 53.3397C102.381 53.5949 101.497 54.5909 99.7386 54.5909C98.6845 54.5909 96.984 54.0168 96.984 51.5148C96.984 48.3394 99.5765 47.2862 102.044 47.2862C102.432 47.2862 103.271 47.3564 103.271 47.3564C103.271 47.3564 103.365 47.1628 103.365 46.6383C103.365 45.7747 102.589 45.6552 101.526 45.6552C99.6546 45.6552 98.4165 46.1583 98.4165 46.1583L98.8303 43.7ZM100.879 52.1999C102.598 52.1999 102.954 49.9498 102.899 49.4697C102.889 49.468 102.879 49.4657 102.868 49.4629L102.846 49.4568C102.774 49.4365 102.661 49.4043 102.278 49.4038C100.188 49.4038 99.7632 50.3415 99.7632 51.1225C99.7632 51.5229 99.993 52.1999 100.879 52.1999ZM108.89 52.0251L108.891 52.0249C109.444 48.478 109.835 45.9702 111.469 46.5492C111.817 44.7211 112.152 44.0139 112.53 43.2402C112.53 43.2402 112.353 43.203 111.98 43.203C110.702 43.203 109.755 44.9488 109.755 44.9488L110.01 43.3454H107.353L105.573 54.406H108.503C108.648 53.5786 108.773 52.7784 108.89 52.0251ZM122.564 52.8125C122.426 52.7369 122.284 52.6997 122.139 52.6997C121.994 52.6997 121.851 52.7369 121.712 52.8125C121.573 52.8863 121.465 52.9934 121.387 53.1328C121.309 53.2714 121.271 53.4157 121.271 53.5666C121.271 53.7157 121.309 53.8597 121.386 53.9973C121.462 54.1349 121.569 54.2423 121.706 54.3188C121.844 54.3945 121.988 54.4326 122.139 54.4326C122.288 54.4326 122.432 54.3945 122.569 54.3188C122.707 54.2429 122.814 54.1349 122.89 53.9973C122.966 53.8597 123.004 53.7157 123.004 53.5666C123.004 53.4157 122.966 53.2714 122.888 53.1328C122.811 52.9934 122.703 52.8857 122.564 52.8125ZM121.783 52.9371C121.899 52.8739 122.018 52.8425 122.139 52.8425C122.26 52.8425 122.378 52.8742 122.493 52.9371C122.609 52.9988 122.699 53.0881 122.763 53.2048C122.828 53.3201 122.861 53.4408 122.861 53.566C122.861 53.6912 122.829 53.8101 122.766 53.9253C122.702 54.0394 122.612 54.1289 122.498 54.1933C122.384 54.2562 122.263 54.288 122.139 54.288C122.013 54.288 121.894 54.2562 121.779 54.1933C121.664 54.1289 121.574 54.0394 121.51 53.9253C121.447 53.811 121.415 53.6912 121.415 53.566C121.415 53.4408 121.448 53.3201 121.513 53.2048C121.578 53.0881 121.668 52.9988 121.783 52.9371ZM121.759 53.1126V54.0451L121.911 54.0454V53.6489H121.999C122.052 53.6489 122.092 53.6595 122.12 53.6809C122.16 53.7103 122.212 53.7823 122.277 53.8981L122.359 54.0448H122.544L122.43 53.8621C122.375 53.7759 122.329 53.7142 122.292 53.6773C122.271 53.6585 122.245 53.6419 122.213 53.628C122.293 53.6225 122.358 53.5935 122.405 53.5433C122.454 53.4931 122.479 53.4335 122.479 53.3654C122.479 53.317 122.464 53.272 122.435 53.229C122.405 53.1858 122.367 53.1558 122.318 53.1392C122.269 53.1213 122.189 53.1126 122.08 53.1126H121.759ZM122.093 53.5203H121.91V53.239H122.081C122.155 53.239 122.204 53.2445 122.232 53.255C122.259 53.2662 122.281 53.2823 122.296 53.3046C122.311 53.3255 122.319 53.3503 122.319 53.3778C122.319 53.4211 122.302 53.4559 122.27 53.4813C122.239 53.5073 122.18 53.5203 122.093 53.5203ZM98.6002 85.7574H98.9272C99.2298 85.7574 99.4322 85.6545 99.5272 85.4549L100.38 84.1785H102.664L102.187 85.0165H104.925L104.578 86.3028H101.32C100.945 86.8678 100.483 87.1335 99.9281 87.1025H98.2311L98.6002 85.7574ZM98.2244 87.5989H104.224L103.842 88.996H101.429L101.061 90.3455H103.409L103.027 91.7412H100.679L100.133 93.7341C99.9989 94.0677 100.175 94.2168 100.664 94.1824H102.576L102.222 95.4819H98.5491C97.853 95.4819 97.6135 95.083 97.8325 94.2846L98.5294 91.7417H97.0282L97.4093 90.346H98.9098L99.2777 88.9965H97.8438L98.2244 87.5989ZM107.799 84.1679L107.705 84.9855C107.705 84.9855 108.836 84.1369 109.864 84.1369H113.662L112.209 89.3935C112.088 89.9947 111.572 90.2933 110.66 90.2933H106.356L105.348 93.9854C105.29 94.1826 105.372 94.2841 105.589 94.2841H106.435L106.124 95.4299H103.97C103.144 95.4299 102.801 95.1813 102.937 94.6816L105.786 84.1678L107.799 84.1679ZM111.015 85.654H107.625L107.22 87.0728C107.22 87.0728 107.784 86.6647 108.728 86.6502C109.669 86.6363 110.743 86.6502 110.743 86.6502L111.015 85.654ZM109.787 88.9458C110.038 88.9794 110.178 88.8799 110.194 88.6457L110.402 87.8988H107.008L106.723 88.9458H109.787ZM107.497 90.6441H109.454L109.418 91.4901H109.939C110.202 91.4901 110.332 91.4064 110.332 91.2402L110.487 90.6917H112.113L111.896 91.4901C111.713 92.1573 111.225 92.5034 110.434 92.5383H109.392L109.387 93.9854C109.368 94.2175 109.578 94.3355 110.009 94.3355H110.989L110.672 95.4813H108.322C107.664 95.5124 107.341 95.1978 107.347 94.5327L107.497 90.6441ZM116.267 84.2177L115.814 85.8145H116.258L114.116 93.3464H113.677L113.249 94.843H117.633L117.447 95.4918H119.669L119.855 94.843H120.302L120.726 93.3464H120.28L122.42 85.8145H122.866L123.318 84.2177H120.48C119.635 84.2177 118.463 84.8037 118.463 84.8037L118.562 84.2177H116.267ZM117.705 87.8532L118.289 85.8147H120.004C120.004 85.8147 119.756 86.6494 119.565 87.3614C118.704 87.4694 117.705 87.8532 117.705 87.8532ZM116.849 90.9432L117.435 88.8083H119.155C119.155 88.8083 118.935 89.5269 118.716 90.3524C117.956 90.4 116.849 90.9432 116.849 90.9432ZM118.304 91.7963L117.865 93.3456H116.149L116.59 91.7963H118.304ZM125.571 84.1181H123.414L123.489 85.8611C123.517 86.3622 123.829 86.593 124.434 86.562H126.02L126.405 85.2125H126.024C125.768 85.2125 125.648 85.1163 125.662 84.9138L125.571 84.1181ZM129.769 87.0104H122.782L122.369 88.4568H124.784L124.4 89.8037H121.987L121.575 91.2482H123.8L122.075 93.7423C121.879 93.9763 121.663 94.0924 121.401 94.0924H120.767L120.371 95.4895H122.405C122.945 95.5231 123.346 95.3067 123.607 94.8407L124.709 93.1925L125.03 94.7419C125.059 95.2415 125.416 95.4736 126.106 95.4387H127.438L127.833 94.043H127.458C127.202 94.043 127.052 93.9606 127.018 93.7918L126.739 92.096H125.527L126.087 91.2489H128.563L128.975 89.8044H126.753L127.134 88.4575H129.358L129.769 87.0104ZM83.7865 77.1644C83.5208 78.4653 82.9057 79.4627 81.9517 80.1728C81.0057 80.8711 79.7859 81.2198 78.2926 81.2198C76.8871 81.2198 75.8572 80.8632 75.1998 80.1471C74.7441 79.6375 74.5168 78.9907 74.5168 78.2094C74.5168 77.8865 74.5558 77.5383 74.633 77.1651L76.2246 69.4929H78.6277L77.058 77.0773C77.0099 77.2883 76.9902 77.4828 76.9928 77.6595C76.9902 78.0486 77.0878 78.3677 77.2816 78.6161C77.567 78.9847 78.0285 79.1672 78.6714 79.1672C79.4111 79.1672 80.0204 78.9872 80.493 78.6226C80.9664 78.2593 81.275 77.7471 81.4133 77.0772L82.9876 69.4927H85.3783L83.7865 77.1644ZM87.6973 74.1436H86.0003L84.6295 80.9953H86.3772L87.1551 77.0599C87.2561 76.5654 87.4591 76.1778 87.7683 75.8969C88.0763 75.62 88.4534 75.4795 88.903 75.4795C89.2676 75.4795 89.5215 75.5844 89.654 75.794C89.7877 76.0044 89.8122 76.33 89.7252 76.7665L88.8814 80.9953H90.6259L91.5608 76.33C91.7106 75.5897 91.6243 75.0128 91.3064 74.5954C90.9827 74.1767 90.4677 73.9697 89.7537 73.9697C88.9652 73.9697 88.2966 74.2616 87.7461 74.8517L87.5028 75.1326L87.6973 74.1436ZM105.464 74.1436H107.162L106.969 75.1326L107.21 74.8517C107.76 74.2616 108.432 73.9697 109.218 73.9697C109.932 73.9697 110.448 74.1767 110.769 74.5954C111.085 75.0128 111.177 75.5897 111.023 76.33L110.092 80.9953H108.345L109.189 76.7665C109.276 76.33 109.252 76.0044 109.12 75.794C108.982 75.5844 108.734 75.4795 108.369 75.4795C107.92 75.4795 107.544 75.62 107.232 75.8969C106.924 76.1778 106.718 76.5654 106.622 77.0599L105.84 80.9953H104.095L105.464 74.1436ZM95.76 74.1462H93.8784L92.4075 80.993H94.2858L95.76 74.1462ZM96.3692 71.6521H94.4704L94.1158 73.3142H96.0145L96.3692 71.6521ZM97.4259 80.4729C96.9341 80.0015 96.6855 79.3679 96.6829 78.5622C96.6829 78.4244 96.6915 78.2674 96.7093 78.0961C96.7278 77.922 96.7509 77.7532 96.7831 77.5964C97.006 76.4848 97.4814 75.602 98.2139 74.9501C98.9444 74.296 99.8264 73.9678 100.859 73.9678C101.705 73.9678 102.376 74.2044 102.867 74.6771C103.358 75.1538 103.604 75.7946 103.604 76.6115C103.604 76.7507 103.592 76.9128 103.575 77.0854C103.553 77.2622 103.526 77.4303 103.496 77.5964C103.278 78.6922 102.804 79.5651 102.072 80.2052C101.34 80.8494 100.46 81.1711 99.4349 81.1711C98.5856 81.1711 97.9171 80.9377 97.4259 80.4729ZM101.012 79.1167C101.344 78.756 101.581 78.2115 101.727 77.4849C101.748 77.3714 101.767 77.2528 101.779 77.1348C101.791 77.0187 101.796 76.9119 101.796 76.8118C101.796 76.3905 101.689 76.0623 101.473 75.8307C101.258 75.5967 100.953 75.4806 100.558 75.4806C100.038 75.4806 99.6124 75.6632 99.28 76.0305C98.9444 76.3977 98.707 76.9522 98.5574 77.6907C98.537 77.8042 98.5199 77.9189 98.5048 78.0295C98.4915 78.143 98.4889 78.2484 98.4908 78.3453C98.4908 78.7651 98.599 79.0883 98.8145 79.3177C99.0288 79.5471 99.3327 79.6606 99.7323 79.6606C100.256 79.6594 100.681 79.4786 101.012 79.1167ZM118.791 69.8983H113.859L111.582 80.9953H113.872L114.69 76.9829H117.334C118.401 76.9829 119.327 76.6599 120.109 76.0184C120.888 75.3749 121.393 74.5251 121.609 73.469C121.65 73.2759 121.681 73.0886 121.705 72.906C121.72 72.7206 121.729 72.5494 121.729 72.3977V72.3734C121.729 71.5748 121.478 70.9618 120.977 70.5345C120.473 70.1118 119.739 69.8983 118.791 69.8983ZM117.286 75.0541H115.093L115.76 71.7984H117.623C118.231 71.7984 118.67 71.8848 118.951 72.0661C119.23 72.2454 119.37 72.5296 119.37 72.9226C119.37 72.985 119.364 73.0492 119.358 73.1138V73.1139V73.114L119.353 73.1592C119.351 73.174 119.348 73.1891 119.346 73.2045L119.337 73.2617C119.333 73.2883 119.329 73.3156 119.324 73.3436C119.319 73.3737 119.314 73.4046 119.308 73.4362C119.187 73.9859 118.97 74.3921 118.642 74.6585C118.311 74.9201 117.857 75.0541 117.286 75.0541ZM130.159 85.174C130.136 85.1975 130.112 85.2228 130.086 85.2495C129.659 85.6931 128.841 86.5425 127.015 86.4749L127.181 85.3007C128.613 84.8592 129.467 83.0591 129.993 81.9502C130.065 81.7975 130.132 81.6579 130.192 81.5367L129.594 74.1646L130.854 74.1468H131.911L132.025 78.7724L134.006 74.1468H136.011L131.978 82.3207C131.254 83.8594 130.564 84.7568 130.159 85.174ZM125.575 75.2513L126.372 74.704L128.248 74.54L126.827 80.9965L124.663 80.9412L124.349 80.5699C118.848 82.9096 120.518 75.8037 122.516 74.8781C123.983 74.1964 124.742 74.5999 125.575 75.2513ZM123.409 79.7442C124.017 79.9375 124.794 79.259 125.141 78.2338C125.496 77.2061 125.276 76.2171 124.668 76.0278C124.065 75.836 123.283 76.5104 122.936 77.5382C122.583 78.566 122.801 79.5564 123.409 79.7442Z" fill="url(#paint1_linear_332_11)"/>
<defs>
<linearGradient id="paint0_linear_332_11" x1="160" y1="1" x2="-7.65153e-07" y2="100" gradientUnits="userSpaceOnUse">
<stop stop-color="#2FF8CC"/>
<stop offset="1" stop-color="#319793"/>
</linearGradient>
<linearGradient id="paint1_linear_332_11" x1="160" y1="1" x2="-7.65153e-07" y2="100" gradientUnits="userSpaceOnUse">
<stop stop-color="#2FF8CC"/>
<stop offset="1" stop-color="#319793"/>
</linearGradient>
</defs>
</svg>
