<svg width="80" height="81" viewBox="0 0 80 81" fill="none" xmlns="http://www.w3.org/2000/svg">
<g clip-path="url(#clip0_230_260)">
<path d="M20.2218 36.4174C18.6991 38.692 17.2599 41.0249 16.1472 43.5982C14.1607 48.1932 13.5921 53.5545 14.6254 58.6021C16.1341 65.9724 20.7933 71.7487 26.811 75.2848C28.6004 76.3363 30.4819 77.1915 32.4124 77.8551C47.1866 82.9348 79.026 72.1985 59.9777 22.8513C59.9777 22.8513 57.1757 42.7859 48.8858 47.3193C48.8858 47.3193 48.749 17.009 33.9996 2.13416C34.2324 2.369 33.6122 4.81837 33.5612 5.11822C32.3994 11.9429 30.4685 18.5368 27.5305 24.5918" fill="#9EF4E5"/>
<path d="M50.6196 57.9301C50.6196 57.9301 49.4424 65.3168 46.1602 67.0247C46.1602 67.0247 46.2179 55.8096 40.4627 50.3597C40.5535 50.4458 38.4743 58.0104 36.5659 60.8049C35.4445 62.4469 34.1298 63.9488 33.2779 65.7685C32.4784 67.4761 32.2348 69.4619 32.6232 71.326C33.1904 74.0477 35.0045 76.1679 37.3618 77.4541C38.0627 77.8366 38.8009 78.1461 39.5588 78.3846C45.3598 80.2097 57.9412 76.1199 50.6196 57.9301Z" fill="#9EF4E5"/>
<path d="M61.4437 22.2854C61.186 21.6177 60.5089 21.2091 59.7987 21.2902C59.0878 21.3718 58.5215 21.9235 58.4215 22.6321C57.7642 27.2922 55.1473 39.0243 50.3379 44.1719C50.1546 41.056 49.6906 35.9069 48.5148 29.998C47.4037 24.4144 45.8831 19.3202 43.9951 14.8574C41.6087 9.2163 38.6212 4.56333 35.1153 1.0277C34.6956 0.604264 34.0726 0.455358 33.5067 0.641921C32.9407 0.828796 32.5293 1.31973 32.4442 1.90973C32.2954 2.93989 32.0467 4.65005 32.0118 4.85458C30.8112 11.9085 28.8276 18.3183 26.1165 23.906C25.7376 24.6868 26.0635 25.6269 26.8443 26.0058C27.6248 26.3846 28.5653 26.0588 28.9442 25.278C31.7459 19.5032 33.8024 12.9122 35.0581 5.68442C40.9321 13.01 43.9223 23.0493 45.4204 30.5532C47.2553 39.7432 47.3137 47.2522 47.314 47.3266C47.3192 48.4941 48.6131 49.2597 49.6395 48.6983C53.4467 46.6165 56.6095 41.6224 59.0399 33.8549C59.6067 32.0436 60.0645 30.2988 60.4254 28.76C63.4918 38.0694 64.7531 46.3361 64.1771 53.3921C63.6076 60.3694 61.269 66.0349 57.2259 70.2313C56.0295 71.473 54.7207 72.5358 53.3417 73.4386C54.7956 70.0857 55.1513 64.9816 52.077 57.3435C51.8118 56.6847 51.1157 56.2797 50.4123 56.3729C49.7315 56.463 49.1756 57.0044 49.0674 57.6829C48.8604 58.9819 48.2913 61.2336 47.4453 63.0399C46.9331 59.0429 45.5071 52.9725 41.5431 49.219C40.6673 48.3894 39.1749 48.8569 38.9251 50.0341C38.9137 50.0883 37.7538 55.4938 35.7665 59.0736C35.369 59.7897 34.826 60.6007 34.2512 61.4596C33.3365 62.826 32.3907 64.2391 31.8143 65.5893C30.7045 68.1882 30.6259 70.768 31.5806 73.2572C32.0484 74.4771 32.7937 75.6254 33.7399 76.6247C33.4629 76.5444 33.1892 76.4605 32.9229 76.3689C31.0596 75.7283 29.271 74.9079 27.6068 73.9299C21.5663 70.3807 17.5029 64.8252 16.1645 58.2871C15.1996 53.5738 15.7056 48.5788 17.5892 44.2219C18.7162 41.6154 20.2123 39.2558 21.5271 37.2916C22.0099 36.5705 21.8167 35.5944 21.0954 35.1116C20.3746 34.6286 19.3982 34.8221 18.9154 35.5433C17.5217 37.6252 15.9315 40.1363 14.7043 42.9746C12.5674 47.9171 11.9924 53.579 13.0853 58.9174C14.6045 66.3393 19.1962 72.6332 26.0143 76.6397C27.8592 77.7236 29.8396 78.6326 31.901 79.3413C34.2584 80.1518 36.9581 80.5629 39.7406 80.5629C41.7138 80.5627 43.6928 80.3586 45.624 79.9527C51.0381 78.8146 55.8324 76.2071 59.489 72.4118C64.0484 67.6796 66.6795 61.3665 67.3095 53.6477C68.0326 44.7935 66.0589 34.2416 61.4437 22.2854ZM34.7049 66.8232C35.1662 65.7432 36.029 64.454 36.8634 63.2075C37.4756 62.2929 38.0537 61.4293 38.5146 60.5988C39.7148 58.4368 40.6232 55.776 41.2114 53.7541C44.5718 59.0547 44.5888 66.9264 44.5885 67.0164C44.5828 68.1766 45.854 68.9555 46.8854 68.4186C48.6701 67.4899 49.9042 65.4194 50.7292 63.375C51.8542 68.2049 51.2721 71.9869 48.9857 74.4586C47.6212 75.9338 45.7709 76.7654 43.964 77.0736C42.9526 77.2444 41.9082 77.2693 40.8957 77.0933C39.9234 76.9243 38.9778 76.5455 38.114 76.0743C36.4371 75.1593 35.1253 73.7221 34.5153 72.1313C33.8542 70.4074 33.916 68.671 34.7049 66.8232Z" fill="#2B9595"/>
</g>
<defs>
<clipPath id="clip0_230_260">
<rect width="80" height="80" fill="white" transform="translate(0 0.562744)"/>
</clipPath>
</defs>
</svg>
