<svg width="28" height="28" viewBox="0 0 28 28" fill="none" xmlns="http://www.w3.org/2000/svg">
<g clip-path="url(#clip0_631_1208)">
<path d="M20.9033 21.1351C20.9025 22.2207 20.641 23.2903 20.1409 24.2539C19.4608 24.568 18.7042 24.6781 17.9627 24.5707C18.8123 23.6283 19.2816 22.4039 19.2796 21.1351C19.2796 17.3133 15.4974 13.8678 14.1409 12.7588C12.7845 13.8678 9.00232 17.3232 9.00232 21.1351C9.00029 22.4039 9.46957 23.6283 10.3192 24.5707C9.66569 25.0757 7.84391 23.5806 7.84391 23.5806C7.52876 22.7935 7.36743 21.9532 7.36866 21.1054C7.36866 18.7885 8.43797 16.3826 10.5469 13.9569C11.6387 12.7653 12.8422 11.6811 14.1409 10.7192C14.3984 10.9074 20.9033 15.6895 20.9033 21.1351Z" fill="#64CEB8"/>
<path d="M24.0417 11.4124C22.7138 8.75184 20.7851 6.43669 18.4081 4.65005L17.319 3.87777C17.2359 4.95737 16.9609 6.0135 16.5071 6.99659C14.6987 5.65312 13.4365 3.70172 12.9526 1.50154L12.7645 0.174805L11.6754 0.947082C8.7093 3.1727 6.30526 6.06162 4.65559 9.38272C3.85415 11.128 3.3521 12.9956 3.17045 14.9075C2.97218 16.783 3.1885 18.6792 3.80411 20.4619C4.63224 22.6486 6.11134 24.5286 8.04173 25.8481C9.5146 26.8857 11.2101 27.5639 12.9922 27.8283C13.4574 27.8996 13.9276 27.9327 14.3982 27.9273C16.715 27.954 18.977 27.2225 20.8395 25.8444C22.7021 24.4662 24.063 22.517 24.715 20.2936C25.5451 17.3465 25.3066 14.2008 24.0417 11.4124ZM14.1407 26.2738C13.549 26.2738 12.9813 26.0394 12.562 25.6219C12.1426 25.2044 11.9057 24.6378 11.9031 24.0461C12.0055 22.9814 12.4663 21.9831 13.21 21.2144C13.5 20.8845 13.8109 20.5736 14.1407 20.2837C14.4706 20.5736 14.7815 20.8845 15.0714 21.2144C15.8122 21.984 16.2695 22.9825 16.3685 24.0461C16.3685 24.6369 16.1338 25.2036 15.716 25.6213C15.2982 26.0391 14.7316 26.2738 14.1407 26.2738ZM23.1407 19.8085C22.6956 21.3981 21.8101 22.8294 20.5863 23.9372L20.2001 24.254L20.1308 24.3134C19.4507 24.6276 18.6941 24.7376 17.9526 24.6302C17.9625 24.4555 17.9625 24.2803 17.9526 24.1055C17.9526 21.1352 14.2398 18.3926 14.1011 18.2936C13.9823 18.3827 11.2695 20.3629 10.4675 22.7887C10.3175 23.2115 10.2405 23.6568 10.2398 24.1055C10.2299 24.2803 10.2299 24.4555 10.2398 24.6302C9.58629 25.1352 7.76451 23.6402 7.76451 23.6402C6.64323 22.6217 5.77819 21.353 5.23975 19.9372C4.28849 16.6547 4.60658 13.1346 6.13084 10.0758C7.4663 7.37834 9.34368 4.98527 11.6457 3.04609C12.3467 4.9716 13.5418 6.67887 15.111 7.99659C15.418 8.27381 16.7843 9.40253 16.7843 9.40253C17.4631 8.6227 17.9963 7.7273 18.3586 6.75896C20.0795 8.23407 21.4926 10.0341 22.517 12.056C23.6202 14.489 23.8407 17.2304 23.1407 19.8085Z" fill="#001E32"/>
<path fill-rule="evenodd" clip-rule="evenodd" d="M12.8396 0L13.05 1.48383C13.5205 3.61918 14.7322 5.51743 16.4678 6.84306C16.8865 5.90262 17.1411 4.89709 17.2201 3.87009L17.2336 3.69583L18.4675 4.57079C20.8567 6.36666 22.7954 8.6938 24.1302 11.3681L24.1319 11.3714C25.4064 14.181 25.6466 17.3507 24.8102 20.3204L24.8099 20.3214C24.1519 22.5655 22.7782 24.5329 20.8983 25.9239C19.0187 27.3146 16.7361 28.0529 14.3981 28.0262C13.9225 28.0317 13.4472 27.9982 12.9771 27.9261C11.1801 27.6594 9.47042 26.9755 7.98518 25.9293C6.03834 24.5984 4.54664 22.7023 3.71141 20.4969L3.71038 20.4942C3.09009 18.6979 2.87212 16.7873 3.07182 14.8975C3.25457 12.9748 3.75951 11.0965 4.56551 9.34132L4.56677 9.33857C6.22331 6.00363 8.63741 3.1027 11.6159 0.867801L11.618 0.8662L12.8396 0ZM11.7337 1.02699C8.78081 3.24293 6.38741 6.11903 4.74484 9.42532C3.9484 11.1601 3.44946 13.0165 3.26891 14.9168L3.2688 14.9178C3.07211 16.7784 3.2866 18.6595 3.89711 20.4281C4.71816 22.5953 6.18423 24.4585 8.0975 25.7662L8.09866 25.767C9.55888 26.7958 11.2398 27.4681 13.0067 27.7302C13.4665 27.8008 13.9318 27.8336 14.3969 27.8282H14.3992C16.6944 27.8546 18.9354 27.13 20.7806 25.7647C22.6256 24.3995 23.9738 22.4686 24.6197 20.2662C25.4431 17.3422 25.2067 14.2214 23.9522 11.4549C22.6314 8.80917 20.7133 6.50687 18.3496 4.72995L17.4026 4.05844C17.3036 5.08948 17.0314 6.09685 16.5969 7.038L16.5458 7.14867L16.4479 7.07598C14.6204 5.71828 13.3448 3.74621 12.8558 1.52272L12.8542 1.51539L12.6892 0.349436L11.7337 1.02699ZM11.6902 2.879L11.7386 3.01214C12.4337 4.92133 13.6186 6.61413 15.1746 7.92068L15.1773 7.92298C15.329 8.05995 15.7454 8.40994 16.1261 8.72739C16.316 8.88572 16.4963 9.03541 16.6291 9.14552L16.7725 9.26426C17.4136 8.51073 17.9189 7.65127 18.2657 6.72419L18.3154 6.59152L18.4229 6.6837C20.1537 8.16728 21.5749 9.97764 22.6052 12.0112L22.6071 12.015C23.7198 14.4689 23.9422 17.234 23.2362 19.8343C22.786 21.4419 21.8903 22.8902 20.6526 24.0105L20.6491 24.0137L20.2645 24.3291L20.2628 24.3305L20.1847 24.3975L20.1723 24.4032C19.4747 24.7254 18.6987 24.8383 17.9383 24.7282L17.8486 24.7152L17.8537 24.6246C17.8633 24.4535 17.8633 24.2821 17.8537 24.111L17.8534 24.1054C17.8534 22.6582 16.9466 21.2536 16.0046 20.1883C15.1752 19.2503 14.332 18.5904 14.1014 18.4169C13.9073 18.5631 13.2908 19.0406 12.6111 19.7341C11.8216 20.5396 10.9553 21.6281 10.5614 22.8197L10.5607 22.8217C10.4145 23.234 10.3394 23.6681 10.3387 24.1056L10.3386 24.111C10.329 24.2821 10.3289 24.4535 10.3385 24.6246L10.3414 24.6766L10.3002 24.7085C10.099 24.8639 9.82281 24.8555 9.552 24.7842C9.27684 24.7118 8.97901 24.5673 8.70741 24.4102C8.43478 24.2525 8.18356 24.0792 8.00085 23.9457C7.90938 23.8789 7.83482 23.8218 7.78302 23.7814C7.75712 23.7611 7.7369 23.7451 7.72308 23.734L7.70726 23.7212L7.70312 23.7179L7.70203 23.717L7.69775 23.7134C6.56494 22.6845 5.69108 21.4027 5.1471 19.9723L5.14424 19.9647C4.18608 16.6585 4.50676 13.1127 6.04202 10.0318C7.38352 7.32211 9.26938 4.91823 11.5818 2.97028L11.6902 2.879ZM7.82904 23.565L7.83203 23.5675L7.84696 23.5795C7.86015 23.5901 7.8797 23.6056 7.90489 23.6253C7.95528 23.6646 8.02815 23.7204 8.11768 23.7858C8.29697 23.9169 8.54204 24.0858 8.80654 24.2388C9.07207 24.3923 9.35221 24.5269 9.60242 24.5927C9.8307 24.6528 10.0123 24.6503 10.138 24.5791C10.1309 24.4203 10.1318 24.2613 10.1406 24.1025C10.1417 23.6439 10.2205 23.1888 10.3737 22.7565C10.7819 21.5227 11.6727 20.4086 12.4697 19.5955C13.2366 18.813 13.9243 18.3016 14.0313 18.222C14.0358 18.2187 14.0392 18.2161 14.0416 18.2143L14.0996 18.1708L14.1586 18.213C14.2315 18.265 15.2007 18.9803 16.1529 20.0572C17.1014 21.1298 18.0504 22.5805 18.0515 24.1026C18.0597 24.2496 18.0611 24.3969 18.0557 24.544C18.745 24.6271 19.4445 24.5184 20.0768 24.2292L20.1372 24.1774L20.5215 23.8621C21.7304 22.7671 22.6053 21.3528 23.0452 19.7821C23.7388 17.227 23.5204 14.5102 22.4276 12.0988C21.4304 10.1311 20.0628 8.37478 18.4004 6.92601C18.0357 7.85469 17.5144 8.71436 16.8589 9.46745L16.7955 9.54023L16.7211 9.47877L16.5027 9.29798C16.3698 9.18779 16.1893 9.03797 15.9993 8.87947C15.6211 8.56415 15.2022 8.21224 15.0459 8.07117C13.5002 6.77288 12.3146 5.09976 11.6019 3.21288C9.35929 5.12693 7.52804 7.4765 6.21947 10.1196C4.70689 13.155 4.39065 16.6482 5.33362 19.9057C5.86631 21.3046 6.72123 22.5583 7.82904 23.565ZM14.1406 20.1518L14.206 20.2093C14.5385 20.5015 14.8519 20.8148 15.1442 21.1473C15.8996 21.9329 16.366 22.9516 16.4669 24.0368L16.4678 24.046C16.4678 24.6631 16.2222 25.2549 15.7859 25.6913C15.3495 26.1276 14.7577 26.3727 14.1406 26.3727C13.5227 26.3727 12.9299 26.128 12.492 25.692C12.0541 25.256 11.8067 24.6644 11.804 24.0464L11.804 24.0365C11.9085 22.9503 12.3788 21.9318 13.1371 21.1472C13.4294 20.8148 13.7428 20.5015 14.0753 20.2093L14.1406 20.1518ZM14.1406 20.4159C13.8382 20.6864 13.5522 20.9749 13.2843 21.2797L13.2812 21.2832C12.5542 22.0346 12.1033 23.01 12.0021 24.0505C12.0058 24.6143 12.2321 25.1538 12.6317 25.5517C13.0325 25.9507 13.5751 26.1747 14.1406 26.1747C14.7052 26.1747 15.2467 25.9504 15.6459 25.5512C16.044 25.1531 16.2681 24.6135 16.2693 24.0506C16.1716 23.011 15.7241 22.0353 15 21.283L14.9969 21.2798C14.729 20.9749 14.4431 20.6864 14.1406 20.4159Z" fill="#001E32"/>
</g>
<defs>
<clipPath id="clip0_631_1208">
<rect width="28" height="28" fill="white"/>
</clipPath>
</defs>
</svg>
