<svg width="160" height="104" viewBox="0 0 160 104" fill="none" xmlns="http://www.w3.org/2000/svg">
<rect y="0.101074" width="160" height="103.691" rx="5" fill="white"/>
<path d="M129.688 45.982C129.255 45.8036 128.802 45.7129 128.331 45.6676C127.844 45.6166 127.354 45.6223 126.864 45.6223C126.507 45.6223 126.507 45.6223 126.445 45.9764C126.212 47.2172 125.986 48.458 125.753 49.6987C125.671 50.1577 125.581 50.6194 125.498 51.0783C125.453 51.305 125.453 51.305 125.691 51.305C126.006 51.305 126.323 51.305 126.634 51.305C127.062 51.305 127.496 51.3163 127.918 51.254C128.447 51.1945 128.963 51.0784 129.447 50.8574C130.099 50.5486 130.575 50.0812 130.853 49.4041C131.028 48.9622 131.074 48.5004 131.062 48.0274C131.054 47.1123 130.538 46.3418 129.688 45.982Z" fill="url(#paint0_linear_332_139)"/>
<path d="M49.5155 46.1379C49.4616 46.1379 49.4078 46.1379 49.3511 46.1379C48.2775 46.1379 47.201 46.1379 46.1245 46.1379C43.8582 46.1379 41.5919 46.1379 39.3257 46.1379C39.082 46.1379 39.082 46.1436 39.0395 46.3816C38.8554 47.4326 38.6741 48.4835 38.4928 49.5289C38.4446 49.8093 38.4446 49.8093 38.7364 49.8093C40.7364 49.8093 42.7308 49.8093 44.7279 49.8093C44.7874 49.8093 44.8497 49.8093 44.9121 49.8093C45.0622 49.8178 45.065 49.8178 45.0424 49.9651C45.0282 50.0671 45.0084 50.1606 44.9914 50.2598C44.7817 51.4212 44.5749 52.5827 44.3625 53.7413C44.303 54.053 44.3002 54.0529 43.9914 54.0529C41.9404 54.0529 39.8894 54.0529 37.8384 54.0529C37.6033 54.0529 37.6061 54.0529 37.5664 54.2796C37.5098 54.5799 37.4531 54.883 37.3965 55.1833C37.2435 56.0246 37.0877 56.8716 36.9319 57.7215C37.0084 57.7612 37.0707 57.7555 37.133 57.7555C40.5438 57.7555 43.9545 57.7555 47.3653 57.7555C47.5778 57.7555 47.5778 57.7498 47.6146 57.5459C47.8157 56.4354 48.0197 55.3334 48.2208 54.2201C48.4475 53.0076 48.6741 51.8008 48.8951 50.5855C49.0934 49.5147 49.2917 48.4411 49.4843 47.3759C49.5466 47.0275 49.6146 46.679 49.6713 46.3334C49.7166 46.1521 49.7053 46.1436 49.5155 46.1379Z" fill="url(#paint1_linear_332_139)"/>
<path d="M142.23 56.8857C140.782 56.8829 139.635 58.0359 139.637 59.4693C139.646 61.0217 140.946 62.0472 142.215 62.0529C143.657 62.0586 144.853 60.7979 144.796 59.4637C144.841 58.1464 143.714 56.8857 142.23 56.8857ZM143.51 61.0982C143.431 61.0982 143.402 61.0217 143.363 60.9651C143.142 60.6705 142.935 60.3702 142.714 60.0756C142.47 59.7469 142.167 59.6251 141.773 59.7129C141.671 59.7356 141.55 59.6818 141.487 59.7639C141.422 59.8461 141.479 59.9622 141.482 60.0586C141.49 60.3787 141.51 60.7016 141.524 61.0217C141.53 61.1917 141.535 61.2144 141.343 61.22C141.071 61.2314 141.065 61.237 141.054 60.9594C141.031 60.5713 141.02 60.1804 141 59.7866C140.977 59.2823 140.949 58.7866 140.921 58.2767C140.918 58.2484 140.912 58.22 140.912 58.1889C140.895 57.8659 140.895 57.8659 141.213 57.8518C141.72 57.8348 142.221 57.7781 142.728 57.7951C142.969 57.7951 143.198 57.8518 143.377 58.0331C143.85 58.509 143.686 59.305 143.057 59.543C142.994 59.5628 142.924 59.5741 142.839 59.611C143.371 59.9934 143.649 60.543 144.028 61.0416C143.839 61.1492 143.669 61.0982 143.51 61.0982Z" fill="url(#paint2_linear_332_139)"/>
<path d="M155.881 0.101074H4.11898C1.84136 0.101074 0 1.94527 0 4.22005V99.6705C0 101.945 1.84136 103.792 4.11898 103.792H155.881C158.159 103.792 160 101.948 160 99.6733V4.22005C160 1.9481 158.159 0.101074 155.881 0.101074ZM137.649 49.7073C137.13 51.4807 136.028 52.7385 134.34 53.4863C133.725 53.7526 133.076 53.9141 132.425 54.0472C132.161 54.0954 132.159 54.1011 132.255 54.3504C133.037 56.4269 133.819 58.5062 134.598 60.5912C134.853 61.2456 135.093 61.9141 135.34 62.5742C133 62.5742 130.669 62.5742 128.329 62.5742C128.323 62.543 128.317 62.5118 128.312 62.4835C127.796 60.7413 127.278 58.9991 126.759 57.2597C126.286 55.6648 125.81 54.0699 125.334 52.4778C125.323 52.4268 125.331 52.3617 125.252 52.356C125.153 52.9226 125.048 53.4863 124.946 54.0529C124.671 55.5175 124.408 56.9708 124.136 58.4353C123.943 59.4977 123.742 60.5628 123.555 61.6195C123.499 61.9396 123.414 62.2512 123.399 62.577C101.459 62.577 79.5184 62.577 57.5751 62.577C57.6516 62.1521 57.7252 61.73 57.8045 61.3107C58.0255 60.0926 58.2465 58.8858 58.4731 57.6705C58.8017 55.8943 59.1303 54.1124 59.4618 52.3362C59.796 50.5288 60.1303 48.7215 60.4646 46.9141C60.5071 46.696 60.5411 46.475 60.5779 46.254C60.5892 46.1719 60.5581 46.1209 60.4646 46.1322C60.4334 46.1322 60.4051 46.1266 60.3739 46.1266C59.221 46.1266 58.0708 46.1266 56.9178 46.1266C56.7054 46.1266 56.7195 46.1351 56.6856 46.322C56.4759 47.4665 56.2606 48.611 56.0482 49.7583C55.8272 50.9594 55.6062 52.1691 55.3824 53.373C55.1303 54.73 54.8754 56.1011 54.6232 57.4608C54.3683 58.8405 54.1105 60.2201 53.8612 61.5997C53.8045 61.9254 53.7167 62.2456 53.6997 62.577C45.3399 62.577 36.9802 62.577 28.6232 62.577C28.6289 62.4835 28.5836 62.3929 28.5552 62.3079C28.1558 61.1436 27.7564 59.9878 27.3569 58.8263C26.5892 56.5997 25.8215 54.3759 25.0538 52.1577C24.7422 51.2512 24.4278 50.3419 24.1133 49.4382C24.102 49.3985 24.1048 49.3419 24.0283 49.3475C23.9972 49.543 23.9603 49.7356 23.9235 49.9311C23.6884 51.2739 23.4533 52.611 23.2153 53.9623C22.9632 55.3929 22.7025 56.8235 22.4476 58.2569C22.2125 59.5798 21.9802 60.9084 21.745 62.2342C21.7252 62.3475 21.6884 62.458 21.711 62.577C19.4278 62.577 17.1473 62.577 14.8669 62.577C14.8329 62.577 14.8017 62.5657 14.7734 62.577C14.6289 62.6138 14.6601 62.5033 14.6572 62.4354C14.711 62.39 14.7309 62.322 14.745 62.2512C14.9603 61.0784 15.1756 59.9113 15.3938 58.7328C15.7082 57.0246 16.0198 55.3135 16.3343 53.6053C16.6657 51.8178 16.9972 50.0416 17.3286 48.2484C17.6601 46.4778 17.983 44.6988 18.3116 42.9226C18.4136 42.3759 18.5212 41.8235 18.6261 41.2767C21.068 41.2767 23.5127 41.2767 25.9547 41.2767C25.9745 41.3419 25.9887 41.4127 26.0113 41.4722C26.6969 43.3475 27.3853 45.2144 28.068 47.0897C28.915 49.424 29.7649 51.7611 30.6147 54.0897C30.6289 54.1209 30.6289 54.1804 30.7026 54.1776C30.7167 54.1067 30.7337 54.0416 30.745 53.9736C30.9377 52.9226 31.1331 51.8659 31.3258 50.815C31.5609 49.5203 31.796 48.2229 32.034 46.9254C32.3059 45.4552 32.5751 43.9736 32.8442 42.4977C32.9178 42.0897 33.0085 41.6903 33.0538 41.2767C47.0538 41.2767 61.051 41.2767 75.0482 41.2767C75.0397 41.3447 75.0397 41.4127 75.0283 41.4807C74.8385 42.5458 74.6431 43.6053 74.4504 44.6676C74.3711 45.0954 74.2889 45.526 74.2181 45.9566C74.1983 46.0784 74.1473 46.1407 74.0255 46.1294C73.9688 46.1181 73.915 46.1237 73.8612 46.1237C72.0538 46.1237 70.2521 46.1237 68.4448 46.1237C68.1756 46.1237 67.9065 46.1322 67.6402 46.1237C67.5099 46.1181 67.4646 46.1719 67.4448 46.2909C67.2465 47.3844 67.0453 48.4722 66.847 49.5685C66.7932 49.8489 66.7989 49.849 67.0878 49.849C69.0482 49.849 71.0028 49.849 72.9632 49.849C73.051 49.849 73.1445 49.8263 73.2295 49.8773C73.2323 49.8886 73.2351 49.8971 73.2323 49.9028C72.9915 51.2399 72.7479 52.5685 72.5099 53.9084C72.4929 54.0133 72.4419 54.0529 72.3399 54.0444C72.2776 54.0387 72.2181 54.0444 72.1558 54.0444C70.1898 54.0444 68.221 54.0444 66.2578 54.0444C66.0142 54.0444 66.0142 54.0444 65.9745 54.2682C65.7847 55.3192 65.5977 56.3759 65.4023 57.4325C65.3314 57.8121 65.3654 57.7385 65.6544 57.7385C69.034 57.7441 72.4136 57.7441 75.7904 57.7441C75.8385 57.7441 75.8839 57.7385 75.9292 57.7441C76.0368 57.7498 76.0907 57.7186 76.1105 57.5968C76.1558 57.2994 76.221 56.9934 76.2776 56.6931C76.5269 55.3362 76.7762 53.9821 77.0283 52.6252C77.2635 51.3362 77.5014 50.0472 77.7365 48.7583C77.9632 47.5373 78.187 46.322 78.4136 45.0982C78.5892 44.1407 78.7705 43.1861 78.9433 42.2257C78.9972 41.9141 79.085 41.5997 79.0992 41.2767C81.4504 41.2767 83.8017 41.2767 86.153 41.2767C86.1813 41.3589 86.153 41.4495 86.1388 41.526C85.9433 42.6053 85.7422 43.679 85.5411 44.7583C85.1671 46.7753 84.7875 48.7951 84.4108 50.8121C84.0453 52.7696 83.6799 54.7271 83.3173 56.6875C83.2833 56.8886 83.2833 56.8971 83.4873 56.8971C84.9547 56.8971 86.4193 56.8971 87.8867 56.8971C88.0623 56.8971 88.068 56.8914 88.102 56.713C88.4023 55.0812 88.7082 53.4467 89.0085 51.8121C89.3173 50.1152 89.6289 48.424 89.9433 46.7271C90.2748 44.9084 90.6119 43.1011 90.9462 41.2824C93.2918 41.2824 95.6431 41.2824 97.9943 41.2824C97.9943 41.3362 97.9943 41.39 97.9887 41.4439C97.8839 42.0218 97.7734 42.6053 97.6629 43.1832C97.3796 44.7186 97.0907 46.2512 96.8045 47.7923C96.5326 49.2427 96.2691 50.6988 95.9972 52.1521C95.7139 53.6676 95.4363 55.1832 95.1501 56.6931C95.1133 56.8886 95.1218 56.9028 95.3258 56.9028C96.8272 56.9028 98.3371 56.9028 99.8385 56.9028C100.023 56.9028 100.028 56.8999 100.062 56.7215C100.261 55.6195 100.467 54.5232 100.671 53.4184C100.938 51.9594 101.207 50.5033 101.476 49.0416C101.703 47.8178 101.924 46.5968 102.147 45.3815C102.34 44.3362 102.544 43.2994 102.722 42.2569C102.785 41.9368 102.878 41.6167 102.881 41.2852C107.385 41.2852 111.89 41.2852 116.391 41.2852C116.397 41.3617 116.38 41.441 116.365 41.5118C116.204 42.3957 116.042 43.2767 115.878 44.1577C115.771 44.7611 115.66 45.3617 115.555 45.9679C115.535 46.0841 115.49 46.1521 115.363 46.1407C115.303 46.1294 115.241 46.1351 115.178 46.1351C113.184 46.1351 111.187 46.1351 109.19 46.1407C108.83 46.1407 108.901 46.0954 108.836 46.4353C108.637 47.475 108.45 48.5175 108.255 49.5543C108.204 49.8263 108.201 49.8263 108.473 49.8263C110.071 49.8263 111.669 49.8263 113.266 49.8263C113.666 49.8263 114.062 49.8206 114.465 49.8263C114.629 49.8263 114.635 49.8291 114.603 49.9963C114.38 51.2512 114.142 52.5147 113.921 53.7696C113.864 54.0869 113.892 54.0558 113.572 54.0558C112.847 54.0558 112.125 54.0558 111.402 54.0558C110.153 54.0558 108.898 54.0558 107.646 54.0558C107.431 54.0558 107.431 54.0558 107.388 54.2739C107.224 55.1577 107.059 56.0501 106.895 56.9339C106.847 57.1917 106.802 57.458 106.754 57.7215C106.841 57.7611 106.921 57.7555 106.992 57.7555C110.391 57.7555 113.785 57.7555 117.178 57.7555C117.405 57.7555 117.408 57.7498 117.45 57.5175C117.586 56.7526 117.731 55.9821 117.87 55.2144C118.204 53.4127 118.541 51.6167 118.873 49.8121C119.244 47.7838 119.62 45.7611 119.991 43.7328C120.142 42.9169 120.295 42.1067 120.445 41.2937C123.535 41.2937 126.623 41.2937 129.711 41.2937C129.841 41.3702 129.986 41.3135 130.125 41.3249C130.433 41.3617 130.748 41.39 131.059 41.424C132.122 41.5373 133.164 41.7441 134.167 42.1294C135.119 42.4977 135.98 42.9963 136.666 43.764C137.232 44.39 137.598 45.1124 137.779 45.9254C137.918 46.5458 137.955 47.1634 137.932 47.7951C137.909 48.4523 137.827 49.0897 137.649 49.7073ZM145.34 59.8659C145.278 59.9764 145.309 60.1067 145.278 60.2257C145.02 61.2059 144.433 61.9028 143.521 62.3362C143.278 62.4524 143.008 62.4948 142.762 62.5912C142.391 62.5912 142.025 62.5912 141.654 62.5912C141.521 62.509 141.368 62.5062 141.224 62.4495C140.023 61.9934 139.297 61.1492 139.113 59.8716C138.875 58.2116 140.023 56.6677 141.66 56.3759C143.297 56.0841 144.813 57.0727 145.255 58.6166C145.292 58.7526 145.269 58.9056 145.34 59.0388C145.34 59.3192 145.34 59.594 145.34 59.8659Z" fill="url(#paint3_linear_332_139)"/>
<path d="M142.782 58.2144C142.649 58.1748 142.51 58.1521 142.371 58.1748C142.119 58.2173 141.864 58.2059 141.612 58.2173C141.385 58.2286 141.36 58.2371 141.391 58.4467C141.431 58.679 141.408 58.9057 141.431 59.1323C141.445 59.3023 141.439 59.3079 141.612 59.3079C141.632 59.3079 141.66 59.3079 141.683 59.3079C141.963 59.2711 142.246 59.2853 142.524 59.2598C142.652 59.2456 142.768 59.2173 142.878 59.1578C143.076 59.053 143.167 58.883 143.17 58.6734C143.159 58.4552 143.003 58.2739 142.782 58.2144Z" fill="url(#paint4_linear_332_139)"/>
<defs>
<linearGradient id="paint0_linear_332_139" x1="128.269" y1="45.6221" x2="122.556" y2="50.4323" gradientUnits="userSpaceOnUse">
<stop stop-color="#2FF8CC"/>
<stop offset="1" stop-color="#319793"/>
</linearGradient>
<linearGradient id="paint1_linear_332_139" x1="43.3127" y1="46.1379" x2="31.4827" y2="57.264" gradientUnits="userSpaceOnUse">
<stop stop-color="#2FF8CC"/>
<stop offset="1" stop-color="#319793"/>
</linearGradient>
<linearGradient id="paint2_linear_332_139" x1="142.218" y1="56.8857" x2="137.01" y2="61.3387" gradientUnits="userSpaceOnUse">
<stop stop-color="#2FF8CC"/>
<stop offset="1" stop-color="#319793"/>
</linearGradient>
<linearGradient id="paint3_linear_332_139" x1="160" y1="0.154545" x2="-7.65153e-07" y2="99.1545" gradientUnits="userSpaceOnUse">
<stop stop-color="#2FF8CC"/>
<stop offset="1" stop-color="#319793"/>
</linearGradient>
<linearGradient id="paint4_linear_332_139" x1="142.275" y1="58.1658" x2="141.158" y2="59.664" gradientUnits="userSpaceOnUse">
<stop stop-color="#2FF8CC"/>
<stop offset="1" stop-color="#319793"/>
</linearGradient>
</defs>
</svg>
