<svg width="80" height="80" viewBox="0 0 80 80" fill="none" xmlns="http://www.w3.org/2000/svg">
<path fill-rule="evenodd" clip-rule="evenodd" d="M78.6666 52V58.6667C78.6666 60.8758 76.8757 62.6667 74.6666 62.6667H5.33325C3.12411 62.6667 1.33325 60.8758 1.33325 58.6667V52H78.6666Z" fill="#9EF4E5"/>
<path fill-rule="evenodd" clip-rule="evenodd" d="M74.6665 52V58.6667C74.6665 60.8758 72.8756 62.6667 70.6665 62.6667H74.6665C76.8756 62.6667 78.6665 60.8758 78.6665 58.6667V52H74.6665Z" fill="#429CB8"/>
<path fill-rule="evenodd" clip-rule="evenodd" d="M78.6666 5.33331V52H1.33325V5.33331C1.33325 3.12417 3.12411 1.33331 5.33325 1.33331H74.6666C76.8757 1.33331 78.6666 3.12417 78.6666 5.33331Z" fill="#9EF4E5"/>
<path fill-rule="evenodd" clip-rule="evenodd" d="M74.6665 1.33331H70.6665C72.8756 1.33331 74.6665 3.12417 74.6665 5.33331V52H78.6665V5.33331C78.6665 3.12417 76.8756 1.33331 74.6665 1.33331Z" fill="#429CB8"/>
<path fill-rule="evenodd" clip-rule="evenodd" d="M29.3333 62.6666H50.6666V70.6666H29.3333V62.6666Z" fill="#2B9595"/>
<path fill-rule="evenodd" clip-rule="evenodd" d="M60 76V77.3333C60 78.0697 59.403 78.6666 58.6667 78.6666H21.3333C20.597 78.6666 20 78.0697 20 77.3333V76C20 73.0544 22.3878 70.6666 25.3333 70.6666H54.6667C57.6122 70.6666 60 73.0544 60 76Z" fill="#9EF4E5"/>
<path fill-rule="evenodd" clip-rule="evenodd" d="M54.6665 70.6666H50.6665C53.612 70.6666 55.9998 73.0544 55.9998 76V77.3333C55.9998 78.0697 55.4029 78.6666 54.6665 78.6666H58.6665C59.4029 78.6666 59.9998 78.0697 59.9998 77.3333V76C59.9998 73.0544 57.612 70.6666 54.6665 70.6666Z" fill="#429CB8"/>
<path d="M14.6665 13.3333H11.9998C11.2635 13.3333 10.6665 13.9303 10.6665 14.6666V34.6666C10.6665 35.403 11.2635 36 11.9998 36H14.6665C15.4029 36 15.9998 35.403 15.9998 34.6666V14.6666C15.9998 13.9303 15.4029 13.3333 14.6665 13.3333Z" fill="#60A917"/>
<path d="M25.3333 16H22.6666C21.9302 16 21.3333 16.597 21.3333 17.3333V22.6667C21.3333 23.403 21.9302 24 22.6666 24H25.3333C26.0696 24 26.6666 23.403 26.6666 22.6667V17.3333C26.6666 16.597 26.0696 16 25.3333 16Z" fill="#F44335"/>
<path d="M36 13.3333H33.3333C32.597 13.3333 32 13.9303 32 14.6666V26.6666C32 27.403 32.597 28 33.3333 28H36C36.7364 28 37.3333 27.403 37.3333 26.6666V14.6666C37.3333 13.9303 36.7364 13.3333 36 13.3333Z" fill="#60A917"/>
<path d="M46.6665 18.6666H43.9998C43.2635 18.6666 42.6665 19.2636 42.6665 20V33.3333C42.6665 34.0697 43.2635 34.6666 43.9998 34.6666H46.6665C47.4029 34.6666 47.9998 34.0697 47.9998 33.3333V20C47.9998 19.2636 47.4029 18.6666 46.6665 18.6666Z" fill="#F44335"/>
<path d="M57.3333 23.9999H54.6666C53.9302 23.9999 53.3333 24.5969 53.3333 25.3333V35.9999C53.3333 36.7363 53.9302 37.3333 54.6666 37.3333H57.3333C58.0696 37.3333 58.6666 36.7363 58.6666 35.9999V25.3333C58.6666 24.5969 58.0696 23.9999 57.3333 23.9999Z" fill="#F44335"/>
<path d="M67.9998 34.6666H65.3331C64.5967 34.6666 63.9998 35.2636 63.9998 36V41.3333C63.9998 42.0697 64.5967 42.6666 65.3331 42.6666H67.9998C68.7361 42.6666 69.3331 42.0697 69.3331 41.3333V36C69.3331 35.2636 68.7361 34.6666 67.9998 34.6666Z" fill="#F44335"/>
<path d="M5.33333 64H28V69.3333H25.3333C21.6533 69.3377 18.6711 72.3199 18.6667 76V77.3333C18.6667 78.8061 19.8606 80 21.3333 80H58.6667C60.1394 80 61.3333 78.8061 61.3333 77.3333V76C61.3289 72.3199 58.3467 69.3377 54.6667 69.3333H52V64H74.6667C77.6122 64 80 61.6122 80 58.6667V5.33333C80 2.38781 77.6122 0 74.6667 0H5.33333C2.38781 0 0 2.38781 0 5.33333V58.6667C0 61.6122 2.38781 64 5.33333 64ZM58.6667 76V77.3333H21.3333V76C21.3333 73.7909 23.1242 72 25.3333 72H54.6667C56.8758 72 58.6667 73.7909 58.6667 76ZM49.3333 69.3333H30.6667V64H49.3333V69.3333ZM74.6667 61.3333H5.33333C3.86057 61.3333 2.66667 60.1394 2.66667 58.6667V53.3333H77.3333V58.6667C77.3333 60.1394 76.1394 61.3333 74.6667 61.3333ZM5.33333 2.66667H74.6667C76.1394 2.66667 77.3333 3.86057 77.3333 5.33333V50.6667H2.66667V5.33333C2.66667 3.86057 3.86057 2.66667 5.33333 2.66667Z" fill="#2B9595"/>
<path fill-rule="evenodd" clip-rule="evenodd" d="M42.6667 56H37.3333C36.597 56 36 56.597 36 57.3333C36 58.0697 36.597 58.6667 37.3333 58.6667H42.6667C43.403 58.6667 44 58.0697 44 57.3333C44 56.597 43.403 56 42.6667 56Z" fill="#2B9595"/>
<path d="M11.9999 37.3333V40C11.9999 40.7364 12.5969 41.3333 13.3333 41.3333C14.0696 41.3333 14.6666 40.7364 14.6666 40V37.3333C16.1393 37.3333 17.3333 36.1394 17.3333 34.6667V14.6667C17.3333 13.1939 16.1393 12 14.6666 12V9.33333C14.6666 8.59695 14.0696 8 13.3333 8C12.5969 8 11.9999 8.59695 11.9999 9.33333V12C10.5272 12 9.33325 13.1939 9.33325 14.6667V34.6667C9.33325 36.1394 10.5272 37.3333 11.9999 37.3333ZM11.9999 14.6667H14.6666V34.6667H11.9999V14.6667Z" fill="#2B9595"/>
<path d="M22.6667 25.3333V28C22.6667 28.7364 23.2636 29.3333 24 29.3333C24.7364 29.3333 25.3333 28.7364 25.3333 28V25.3333C26.8061 25.3333 28 24.1394 28 22.6666V17.3333C28 15.8606 26.8061 14.6666 25.3333 14.6666V6.66665C25.3333 5.93027 24.7364 5.33331 24 5.33331C23.2636 5.33331 22.6667 5.93027 22.6667 6.66665V14.6666C21.1939 14.6666 20 15.8606 20 17.3333V22.6666C20 24.1394 21.1939 25.3333 22.6667 25.3333ZM22.6667 17.3333H25.3333V22.6666H22.6667V17.3333Z" fill="#2B9595"/>
<path d="M33.3332 29.3333V34.6666C33.3332 35.403 33.9301 36 34.6665 36C35.4029 36 35.9998 35.403 35.9998 34.6666V29.3333C37.4726 29.3333 38.6665 28.1394 38.6665 26.6666V14.6666C38.6665 13.1939 37.4726 12 35.9998 12V6.66665C35.9998 5.93027 35.4029 5.33331 34.6665 5.33331C33.9301 5.33331 33.3332 5.93027 33.3332 6.66665V12C31.8604 12 30.6665 13.1939 30.6665 14.6666V26.6666C30.6665 28.1394 31.8604 29.3333 33.3332 29.3333ZM33.3332 14.6666H35.9998V26.6666H33.3332V14.6666Z" fill="#2B9595"/>
<path d="M43.9999 36V38.6667C43.9999 39.4031 44.5969 40 45.3333 40C46.0696 40 46.6666 39.4031 46.6666 38.6667V36C48.1393 36 49.3333 34.8061 49.3333 33.3333V20C49.3333 18.5272 48.1393 17.3333 46.6666 17.3333V9.33333C46.6666 8.59695 46.0696 8 45.3333 8C44.5969 8 43.9999 8.59695 43.9999 9.33333V17.3333C42.5272 17.3333 41.3333 18.5272 41.3333 20V33.3333C41.3333 34.8061 42.5272 36 43.9999 36ZM43.9999 20H46.6666V33.3333H43.9999V20Z" fill="#2B9595"/>
<path d="M54.6667 38.6667V41.3333C54.6667 42.0697 55.2636 42.6667 56 42.6667C56.7364 42.6667 57.3333 42.0697 57.3333 41.3333V38.6667C58.8061 38.6667 60 37.4728 60 36V25.3333C60 23.8606 58.8061 22.6667 57.3333 22.6667V17.3333C57.3333 16.597 56.7364 16 56 16C55.2636 16 54.6667 16.597 54.6667 17.3333V22.6667C53.1939 22.6667 52 23.8606 52 25.3333V36C52 37.4728 53.1939 38.6667 54.6667 38.6667ZM54.6667 25.3333H57.3333V36H54.6667V25.3333Z" fill="#2B9595"/>
<path d="M65.3332 44V46.6666C65.3332 47.403 65.9301 48 66.6665 48C67.4029 48 67.9998 47.403 67.9998 46.6666V44C69.4726 44 70.6665 42.8061 70.6665 41.3333V36C70.6665 34.5272 69.4726 33.3333 67.9998 33.3333V28C67.9998 27.2636 67.4029 26.6666 66.6665 26.6666C65.9301 26.6666 65.3332 27.2636 65.3332 28V33.3333C63.8604 33.3333 62.6665 34.5272 62.6665 36V41.3333C62.6665 42.8061 63.8604 44 65.3332 44ZM65.3332 36H67.9998V41.3333H65.3332V36Z" fill="#2B9595"/>
<path d="M57.6178 15.3673C52.7807 10.5311 46.3904 8 40 8C33.6096 8 27.2188 10.5311 22.3822 15.3673C12.549 25.2009 12.549 40.7698 22.3822 50.6029C27.2486 55.4689 33.6096 58 40 58C46.3904 58 52.7514 55.4689 57.6178 50.6029C67.4509 40.7698 67.4509 25.2009 57.6178 15.3673ZM26.5154 19.5009C30.2386 15.8072 35.1046 13.8041 40 13.8041C43.8402 13.8041 47.7095 15.0744 51.0515 17.449L40 28.5002L24.4635 44.0367C18.9612 36.2619 19.7676 26.2785 26.5154 19.5009ZM53.4842 46.4697C49.7614 50.1635 44.8954 52.1666 40 52.1666C36.1597 52.1666 32.2905 50.8963 28.9484 48.5216L55.5365 21.9339C61.0384 29.7083 60.2324 39.6917 53.4842 46.4697Z" fill="#FF4949"/>
<path d="M57.6178 50.6029C52.7514 55.4689 46.3904 58 40 58V52.1666C44.8954 52.1666 49.7618 50.1635 53.4842 46.4697C60.2324 39.6917 61.0384 29.7083 55.5365 21.9339L40 37.4704V28.5002L51.0512 17.449C47.7095 15.0744 43.8399 13.8041 40 13.8041V8C46.3904 8 52.7808 10.5311 57.6178 15.3673C67.4509 25.2009 67.4509 40.7698 57.6178 50.6029Z" fill="#FF193D"/>
</svg>
