<svg width="80" height="81" viewBox="0 0 80 81" fill="none" xmlns="http://www.w3.org/2000/svg">
<g clip-path="url(#clip0_230_243)">
<path d="M70.6666 9.89604C70.6614 10.6017 70.3787 11.2769 69.8798 11.7759C69.3808 12.2748 68.7055 12.5575 67.9999 12.5627H11.9999C11.2933 12.5606 10.6163 12.279 10.1166 11.7793C9.61699 11.2797 9.33536 10.6026 9.33325 9.89604C9.33849 9.19041 9.62112 8.51517 10.1201 8.0162C10.6191 7.51724 11.2943 7.2346 11.9999 7.22937H67.9999C68.7065 7.23148 69.3836 7.51311 69.8832 8.01275C70.3828 8.51239 70.6645 9.18944 70.6666 9.89604Z" fill="#9EF4E5"/>
<path d="M68 7.22937H64C64.7066 7.23148 65.3836 7.51311 65.8833 8.01275C66.3829 8.51239 66.6646 9.18944 66.6667 9.89604C66.6614 10.6017 66.3788 11.2769 65.8798 11.7759C65.3809 12.2748 64.7056 12.5575 64 12.5627H68C68.7056 12.5575 69.3809 12.2748 69.8798 11.7759C70.3788 11.2769 70.6614 10.6017 70.6667 9.89604C70.6646 9.18944 70.3829 8.51239 69.8833 8.01275C69.3836 7.51311 68.7066 7.23148 68 7.22937Z" fill="#4096B1"/>
<path d="M70.6666 76.5628C70.6614 77.2684 70.3787 77.9436 69.8798 78.4426C69.3808 78.9416 68.7055 79.2242 67.9999 79.2295H11.9999C11.2933 79.2273 10.6163 78.9457 10.1166 78.4461C9.61699 77.9464 9.33536 77.2694 9.33325 76.5628C9.33849 75.8572 9.62112 75.1819 10.1201 74.683C10.6191 74.184 11.2943 73.9014 11.9999 73.8961H67.9999C68.7065 73.8982 69.3836 74.1799 69.8832 74.6795C70.3828 75.1791 70.6645 75.8562 70.6666 76.5628Z" fill="#9EF4E5"/>
<path d="M68 73.8961H64C64.7066 73.8982 65.3836 74.1799 65.8833 74.6795C66.3829 75.1791 66.6646 75.8562 66.6667 76.5628C66.6614 77.2684 66.3788 77.9436 65.8798 78.4426C65.3809 78.9416 64.7056 79.2242 64 79.2295H68C68.7056 79.2242 69.3809 78.9416 69.8798 78.4426C70.3788 77.9436 70.6614 77.2684 70.6667 76.5628C70.6646 75.8562 70.3829 75.1791 69.8833 74.6795C69.3836 74.1799 68.7066 73.8982 68 73.8961Z" fill="#4096B1"/>
<path d="M70.6666 43.2294C70.6614 43.935 70.3787 44.6103 69.8798 45.1092C69.3808 45.6082 68.7055 45.8908 67.9999 45.8961H11.9999C11.2933 45.894 10.6163 45.6123 10.1166 45.1127C9.61699 44.6131 9.33536 43.936 9.33325 43.2294C9.33849 42.5238 9.62112 41.8485 10.1201 41.3496C10.6191 40.8506 11.2943 40.568 11.9999 40.5627H67.9999C68.7065 40.5649 69.3836 40.8465 69.8832 41.3461C70.3828 41.8458 70.6645 42.5228 70.6666 43.2294V43.2294Z" fill="#9EF4E5"/>
<path d="M68 40.5627H64C64.7066 40.5649 65.3836 40.8465 65.8833 41.3461C66.3829 41.8458 66.6646 42.5228 66.6667 43.2294C66.6614 43.935 66.3788 44.6103 65.8798 45.1092C65.3809 45.6082 64.7056 45.8908 64 45.8961H68C68.7056 45.8908 69.3809 45.6082 69.8798 45.1092C70.3788 44.6103 70.6614 43.935 70.6667 43.2294C70.6646 42.5228 70.3829 41.8458 69.8833 41.3461C69.3836 40.8465 68.7066 40.5649 68 40.5627Z" fill="#4096B1"/>
<path d="M19.9999 1.89612H25.3333C26.0405 1.89612 26.7188 2.17707 27.2189 2.67717C27.719 3.17726 27.9999 3.85554 27.9999 4.56278V7.22945H17.3333V4.56278C17.3333 3.85554 17.6142 3.17726 18.1143 2.67717C18.6144 2.17707 19.2927 1.89612 19.9999 1.89612Z" fill="#9EF4E5"/>
<path d="M12 12.5627H68V40.5627H12V12.5627Z" fill="#9EF4E5"/>
<path d="M64 12.5627H68V40.5627H64V12.5627Z" fill="#2B9595"/>
<path d="M12 45.8961H68V73.8961H12V45.8961Z" fill="#9EF4E5"/>
<path d="M64 45.8961H68V73.8961H64V45.8961Z" fill="#4096B1"/>
<path d="M8 76.5627C8 77.6236 8.42143 78.641 9.17157 79.3912C9.92172 80.1413 10.9391 80.5627 12 80.5627H68C68.9424 80.5645 69.8551 80.2327 70.5763 79.6261C71.2976 79.0194 71.7808 78.1771 71.9405 77.2483C72.1002 76.3195 71.926 75.3642 71.4489 74.5515C70.9717 73.7388 70.2222 73.1212 69.3333 72.8081V46.9841C70.1109 46.7107 70.7844 46.2026 71.2608 45.5301C71.7373 44.8575 71.9932 44.0536 71.9932 43.2294C71.9932 42.4052 71.7373 41.6013 71.2608 40.9288C70.7844 40.2562 70.1109 39.7481 69.3333 39.4747V13.6507C70.2222 13.3376 70.9717 12.7201 71.4489 11.9074C71.926 11.0947 72.1002 10.1393 71.9405 9.21051C71.7808 8.2817 71.2976 7.43938 70.5763 6.83274C69.8551 6.2261 68.9424 5.89429 68 5.89608H29.3333V4.56274C29.3333 3.50188 28.9119 2.48446 28.1618 1.73432C27.4116 0.984171 26.3942 0.562744 25.3333 0.562744L20 0.562744C18.9391 0.562744 17.9217 0.984171 17.1716 1.73432C16.4214 2.48446 16 3.50188 16 4.56274V5.89608H12C11.0576 5.89429 10.1449 6.2261 9.42368 6.83274C8.70244 7.43938 8.21918 8.2817 8.05948 9.21051C7.89979 10.1393 8.07396 11.0947 8.55115 11.9074C9.02834 12.7201 9.77776 13.3376 10.6667 13.6507V39.4747C9.88911 39.7481 9.21562 40.2562 8.73918 40.9288C8.26274 41.6013 8.00685 42.4052 8.00685 43.2294C8.00685 44.0536 8.26274 44.8575 8.73918 45.5301C9.21562 46.2026 9.88911 46.7107 10.6667 46.9841V72.8081C9.88946 73.0829 9.21612 73.5911 8.73878 74.2631C8.26145 74.9352 8.00342 75.7384 8 76.5627V76.5627ZM68 77.8961H12C11.6464 77.8961 11.3072 77.7556 11.0572 77.5056C10.8071 77.2555 10.6667 76.9164 10.6667 76.5627C10.6667 76.2091 10.8071 75.87 11.0572 75.6199C11.3072 75.3699 11.6464 75.2294 12 75.2294H68C68.3536 75.2294 68.6928 75.3699 68.9428 75.6199C69.1929 75.87 69.3333 76.2091 69.3333 76.5627C69.3333 76.9164 69.1929 77.2555 68.9428 77.5056C68.6928 77.7556 68.3536 77.8961 68 77.8961ZM66.6667 47.2294V72.5627H13.3333V47.2294H66.6667ZM13.3333 39.2294V13.8961H66.6667V39.2294H13.3333ZM18.6667 4.56274C18.6667 4.20912 18.8071 3.86998 19.0572 3.61994C19.3072 3.36989 19.6464 3.22941 20 3.22941H25.3333C25.687 3.22941 26.0261 3.36989 26.2761 3.61994C26.5262 3.86998 26.6667 4.20912 26.6667 4.56274V5.89608H18.6667V4.56274ZM12 8.56274H68C68.3536 8.56274 68.6928 8.70322 68.9428 8.95327C69.1929 9.20332 69.3333 9.54246 69.3333 9.89608C69.3333 10.2497 69.1929 10.5888 68.9428 10.8389C68.6928 11.0889 68.3536 11.2294 68 11.2294H12C11.6464 11.2294 11.3072 11.0889 11.0572 10.8389C10.8071 10.5888 10.6667 10.2497 10.6667 9.89608C10.6667 9.54246 10.8071 9.20332 11.0572 8.95327C11.3072 8.70322 11.6464 8.56274 12 8.56274V8.56274ZM12 41.8961H68C68.3536 41.8961 68.6928 42.0366 68.9428 42.2866C69.1929 42.5367 69.3333 42.8758 69.3333 43.2294C69.3333 43.583 69.1929 43.9222 68.9428 44.1722C68.6928 44.4223 68.3536 44.5627 68 44.5627H12C11.6464 44.5627 11.3072 44.4223 11.0572 44.1722C10.8071 43.9222 10.6667 43.583 10.6667 43.2294C10.6667 42.8758 10.8071 42.5367 11.0572 42.2866C11.3072 42.0366 11.6464 41.8961 12 41.8961V41.8961Z" fill="#2B9595"/>
<path d="M17.3333 16.5627C16.9797 16.5627 16.6406 16.7032 16.3905 16.9533C16.1405 17.2033 16 17.5425 16 17.8961V35.2294C16 35.583 16.1405 35.9222 16.3905 36.1722C16.6406 36.4223 16.9797 36.5627 17.3333 36.5627C17.687 36.5627 18.0261 36.4223 18.2761 36.1722C18.5262 35.9222 18.6667 35.583 18.6667 35.2294V17.8961C18.6667 17.5425 18.5262 17.2033 18.2761 16.9533C18.0261 16.7032 17.687 16.5627 17.3333 16.5627Z" fill="#2B9595"/>
<path d="M17.3333 69.8961C17.687 69.8961 18.0261 69.7556 18.2761 69.5056C18.5262 69.2555 18.6667 68.9164 18.6667 68.5628V51.2295C18.6667 50.8758 18.5262 50.5367 18.2761 50.2866C18.0261 50.0366 17.687 49.8961 17.3333 49.8961C16.9797 49.8961 16.6406 50.0366 16.3905 50.2866C16.1405 50.5367 16 50.8758 16 51.2295V68.5628C16 68.9164 16.1405 69.2555 16.3905 69.5056C16.6406 69.7556 16.9797 69.8961 17.3333 69.8961Z" fill="#2B9595"/>
</g>
<defs>
<clipPath id="clip0_230_243">
<rect width="80" height="80" fill="white" transform="translate(0 0.562744)"/>
</clipPath>
</defs>
</svg>
