<svg width="28" height="28" viewBox="0 0 28 28" fill="none" xmlns="http://www.w3.org/2000/svg">
<path d="M9.23967 14.7415C9.03226 14.7405 8.83237 14.6637 8.67765 14.5256C8.52294 14.3874 8.42407 14.1975 8.39967 13.9915L7.15967 2.56153L3.61967 1.62152C3.411 1.56278 3.23267 1.42655 3.12114 1.24066C3.0096 1.05478 2.97331 0.833285 3.01967 0.621523C3.07624 0.411504 3.21208 0.231628 3.39859 0.119722C3.58509 0.00781692 3.80774 -0.0273988 4.01967 0.0215168L8.15967 1.11151C8.32375 1.15801 8.47029 1.25225 8.58069 1.38223C8.69109 1.51222 8.76036 1.67208 8.77967 1.84152L10.0797 13.8415C10.0936 13.952 10.0855 14.0641 10.0557 14.1713C10.0259 14.2786 9.97516 14.3788 9.90631 14.4663C9.83745 14.5538 9.7519 14.6267 9.65463 14.6808C9.55735 14.7349 9.45029 14.7692 9.33967 14.7815L9.23967 14.7415ZM19.0697 11.6315C18.8614 11.6088 18.6689 11.51 18.529 11.3541C18.3891 11.1981 18.3117 10.996 18.3117 10.7865C18.3117 10.577 18.3891 10.3749 18.529 10.219C18.6689 10.063 18.8614 9.96422 19.0697 9.94153C19.8274 9.94031 20.5682 9.71724 21.2007 9.29984C21.8331 8.88244 22.3295 8.289 22.6285 7.59274C22.9276 6.89649 23.0162 6.12791 22.8834 5.38187C22.7507 4.63583 22.4024 3.94497 21.8816 3.39459C21.3607 2.84422 20.6901 2.4584 19.9525 2.28476C19.2149 2.11112 18.4426 2.15729 17.731 2.41751C17.0193 2.67774 16.3994 3.14064 15.9478 3.74912C15.4962 4.35759 15.2326 5.08499 15.1897 5.84152C15.1946 5.95982 15.1747 6.07785 15.1314 6.18802C15.088 6.29819 15.0221 6.39807 14.9379 6.48129C14.8537 6.56452 14.753 6.62924 14.6423 6.6713C14.5317 6.71335 14.4134 6.73182 14.2952 6.72553C14.177 6.71923 14.0614 6.68831 13.9558 6.63474C13.8502 6.58116 13.757 6.50613 13.6821 6.41443C13.6072 6.32273 13.5523 6.21639 13.5209 6.10224C13.4895 5.98808 13.4822 5.86863 13.4997 5.75153C13.5602 4.66514 13.9376 3.62028 14.5853 2.74597C15.233 1.87167 16.1226 1.20621 17.1442 0.831758C18.1658 0.45731 19.2747 0.390287 20.334 0.638948C21.3932 0.887609 22.3565 1.44107 23.1048 2.23099C23.853 3.02091 24.3536 4.01269 24.5446 5.08386C24.7355 6.15504 24.6086 7.25873 24.1794 8.25858C23.7503 9.25843 23.0376 10.1107 22.1296 10.7101C21.2215 11.3095 20.1577 11.6298 19.0697 11.6315Z" fill="#64CEB8"/>
<path d="M15.6195 16.1817C14.4888 16.1768 13.3764 15.8953 12.3795 15.3617C11.7472 15.0199 11.0501 14.8148 10.3335 14.7597C9.61686 14.7046 8.89663 14.8007 8.2195 15.0417L5.3395 16.0417C5.2351 16.0792 5.12435 16.0957 5.01357 16.0903C4.9028 16.0849 4.79417 16.0578 4.69388 16.0104C4.59359 15.963 4.50361 15.8964 4.42908 15.8143C4.35455 15.7321 4.29693 15.6361 4.2595 15.5317C4.22207 15.4273 4.20558 15.3166 4.21095 15.2058C4.21633 15.095 4.24347 14.9864 4.29083 14.8861C4.33818 14.7858 4.40483 14.6958 4.48696 14.6213C4.56909 14.5468 4.6651 14.4892 4.7695 14.4517L7.6195 13.5017C8.52259 13.1801 9.48308 13.0512 10.439 13.1236C11.3949 13.1959 12.3251 13.4678 13.1695 13.9217C13.8681 14.3038 14.6469 14.5156 15.4427 14.5399C16.2386 14.5642 17.0289 14.4004 17.7495 14.0617L18.2195 13.8417C18.4237 13.7463 18.6575 13.7358 18.8694 13.8127C19.0813 13.8896 19.254 14.0475 19.3495 14.2517C19.445 14.456 19.4554 14.6897 19.3785 14.9016C19.3016 15.1136 19.1437 15.2863 18.9395 15.3817L18.4695 15.6017C17.6028 16 16.6631 16.2145 15.7095 16.2317L15.6195 16.1817Z" fill="#001E32"/>
<path d="M17.2594 27.9517H6.34936C6.14133 27.9529 5.94025 27.8769 5.78507 27.7383C5.62989 27.5998 5.53164 27.4086 5.50936 27.2017L3.15936 6.44171C3.1479 6.32322 3.1606 6.20362 3.1967 6.09018C3.23279 5.97674 3.29153 5.87179 3.36936 5.78171C3.44808 5.6918 3.54488 5.61949 3.65344 5.56952C3.76199 5.51955 3.87986 5.49303 3.99936 5.4917H19.6194C19.7389 5.49303 19.8567 5.51955 19.9653 5.56952C20.0738 5.61949 20.1706 5.6918 20.2494 5.78171C20.3293 5.87047 20.3893 5.97524 20.4256 6.08905C20.4618 6.20286 20.4733 6.32309 20.4594 6.44171L18.0994 27.2017C18.0771 27.4086 17.9788 27.5998 17.8236 27.7383C17.6685 27.8769 17.4674 27.9529 17.2594 27.9517ZM7.10936 26.2617H16.5094L18.6194 7.19171H4.94936L7.10936 26.2617Z" fill="#001E32"/>
</svg>
