<svg width="28" height="28" viewBox="0 0 28 28" fill="none" xmlns="http://www.w3.org/2000/svg">
<g clip-path="url(#clip0_609_1291)">
<path d="M0 24.68C0 25.0897 0.0806931 25.4954 0.237488 25.874C0.394282 26.2525 0.6241 26.5965 0.913818 26.8862C1.20354 27.1759 1.54749 27.4057 1.92603 27.5625C2.30456 27.7193 2.71027 27.8 3.12 27.8H24.68C25.5075 27.8 26.3011 27.4713 26.8862 26.8862C27.4713 26.3011 27.8 25.5075 27.8 24.68V3.10999C27.7974 2.28424 27.4675 1.49323 26.8826 0.910278C26.2978 0.327326 25.5057 -4.24135e-06 24.68 0H3.12C2.29425 -4.24135e-06 1.50219 0.327326 0.917358 0.910278C0.332532 1.49323 0.00264662 2.28424 0 3.10999V24.68ZM1.88 4.26001C1.88264 3.62961 2.13422 3.02575 2.57999 2.57999C3.02575 2.13422 3.62959 1.88264 4.25999 1.88H23.54C24.1695 1.88265 24.7723 2.13455 25.2164 2.5806C25.6606 3.02665 25.91 3.63052 25.91 4.26001V23.53C25.91 24.1595 25.6606 24.7633 25.2164 25.2094C24.7723 25.6554 24.1695 25.9074 23.54 25.91H4.28C3.96614 25.9113 3.6551 25.8508 3.36462 25.7319C3.07415 25.613 2.80994 25.4381 2.58708 25.2171C2.36422 24.9961 2.18707 24.7333 2.06575 24.4438C1.94443 24.1544 1.88132 23.8439 1.88 23.53V4.26001Z" fill="#001E32"/>
<path d="M4.93994 13.0099C4.94105 12.7475 5.04519 12.4961 5.22993 12.3099C5.32255 12.2154 5.433 12.1402 5.55487 12.0887C5.67675 12.0372 5.80763 12.0104 5.93994 12.0099H7.35994C8.32133 11.9569 9.28422 12.0823 10.1999 12.3799C10.7715 12.6109 11.2523 13.0215 11.5699 13.5499C11.932 14.1522 12.1094 14.8476 12.0799 15.5499C12.1086 16.3019 11.8753 17.0406 11.4199 17.6399C10.9622 18.2075 10.335 18.6139 9.62994 18.7999C9.03833 18.9255 8.43472 18.9859 7.82994 18.9799C7.66635 18.9851 7.5112 19.0537 7.39734 19.1713C7.28348 19.2889 7.21986 19.4462 7.21994 19.6099V22.9399C7.21854 23.0868 7.19147 23.2323 7.13994 23.3699C7.08028 23.5076 6.9955 23.6331 6.88994 23.7399C6.78412 23.8466 6.65843 23.9315 6.51994 23.9899C6.38086 24.0493 6.23118 24.0799 6.07994 24.0799C5.77759 24.0799 5.48763 23.9598 5.27383 23.746C5.06004 23.5322 4.93994 23.2422 4.93994 22.9399V13.0099ZM7.21994 16.0099C7.21929 16.0954 7.23575 16.1801 7.26839 16.2591C7.30102 16.3381 7.34916 16.4098 7.40994 16.4699C7.53261 16.5908 7.69768 16.659 7.86993 16.6599H7.94994C8.35037 16.6797 8.75153 16.6393 9.13994 16.5399C9.35561 16.4629 9.54121 16.3193 9.66994 16.1299C9.80178 15.9282 9.86814 15.6907 9.85994 15.4499C9.87062 15.2497 9.82585 15.0504 9.73058 14.8739C9.6353 14.6975 9.49321 14.5508 9.31993 14.4499C8.86397 14.2509 8.36569 14.1684 7.86993 14.2099C7.69754 14.2099 7.53222 14.2784 7.41032 14.4003C7.28843 14.5222 7.21994 14.6875 7.21994 14.8599V16.0099Z" fill="#64CEB8"/>
<path d="M21.7398 11.7102C22.036 11.7128 22.3194 11.8316 22.5289 12.0411C22.7383 12.2506 22.8572 12.5339 22.8598 12.8302V23.0902C22.8455 23.3348 22.7419 23.5657 22.5686 23.739C22.3953 23.9123 22.1644 24.0159 21.9198 24.0302H21.5698C21.3205 24.0302 21.0814 23.9311 20.9051 23.7549C20.7288 23.5786 20.6298 23.3395 20.6298 23.0902C20.2504 23.4635 19.8066 23.765 19.3198 23.9802C18.8697 24.1669 18.387 24.262 17.8998 24.2602C17.3334 24.262 16.773 24.1434 16.2558 23.9124C15.7387 23.6814 15.2765 23.3432 14.8998 22.9202C14.0581 22.0232 13.6051 20.8298 13.6398 19.6002C13.5919 18.3608 14.0296 17.1517 14.8598 16.2302C15.4062 15.6226 16.1281 15.2 16.9254 15.0208C17.7227 14.8416 18.5559 14.9148 19.3098 15.2302C19.6502 15.3801 19.9668 15.5788 20.2498 15.8202C20.2892 15.8299 20.3304 15.8299 20.3698 15.8202C20.4057 15.8305 20.4438 15.8305 20.4798 15.8202C20.5173 15.7992 20.5511 15.7722 20.5798 15.7402C20.5888 15.7007 20.5888 15.6597 20.5798 15.6202V12.8202C20.5798 12.6732 20.6089 12.5277 20.6656 12.3921C20.7222 12.2565 20.8052 12.1335 20.9098 12.0302C21.0112 11.9259 21.1325 11.843 21.2664 11.7863C21.4004 11.7296 21.5443 11.7004 21.6898 11.7002L21.7398 11.7102ZM18.2798 16.9702C17.959 16.9617 17.6402 17.0225 17.3451 17.1485C17.05 17.2745 16.7855 17.4627 16.5698 17.7002C16.1205 18.2255 15.8736 18.894 15.8736 19.5852C15.8736 20.2764 16.1205 20.9449 16.5698 21.4702C16.7836 21.7096 17.0461 21.9006 17.3398 22.0302C17.6368 22.1572 17.9568 22.2219 18.2798 22.2202C18.6058 22.2278 18.9296 22.1658 19.2297 22.0381C19.5298 21.9105 19.7992 21.7203 20.0198 21.4802C20.2584 21.2249 20.4433 20.9243 20.5635 20.5962C20.6838 20.2681 20.7369 19.9192 20.7198 19.5702C20.7351 19.2259 20.681 18.882 20.5608 18.5591C20.4405 18.2361 20.2566 17.9406 20.0198 17.6902C19.7955 17.4534 19.5235 17.2669 19.2219 17.1428C18.9203 17.0187 18.5958 16.9599 18.2698 16.9702H18.2798Z" fill="#64CEB8"/>
<path d="M16.99 4.07016C17.0482 4.09862 17.0994 4.1396 17.14 4.19016C17.1847 4.23929 17.2188 4.29716 17.24 4.36014C17.2549 4.4226 17.2549 4.48768 17.24 4.55014C17.2503 4.61306 17.2503 4.67723 17.24 4.74014L16.62 5.93015C16.6068 5.95477 16.6 5.98226 16.6 6.01016C16.6 6.03807 16.6068 6.06553 16.62 6.09015L16.68 6.15015H16.75C17.1084 6.19998 17.4395 6.36908 17.69 6.63016C17.9662 6.92075 18.1363 7.29609 18.1726 7.69537C18.2089 8.09466 18.1093 8.4945 17.89 8.83014C17.7016 9.11596 17.429 9.33614 17.11 9.46014C16.793 9.58893 16.4449 9.62026 16.11 9.55014C15.7267 9.4692 15.3819 9.26128 15.1314 8.96002C14.881 8.65876 14.7395 8.28179 14.73 7.89014C14.7313 7.71384 14.7583 7.53869 14.81 7.37015C14.9079 7.09891 15.0249 6.83491 15.16 6.58014L16.35 4.26016C16.3786 4.20082 16.4191 4.14799 16.469 4.10498C16.5189 4.06197 16.5771 4.02971 16.64 4.01016C16.7617 3.96015 16.8983 3.96015 17.02 4.01016L16.99 4.07016ZM16.41 7.15015C16.321 7.15126 16.233 7.16821 16.15 7.20017C16.0654 7.23595 15.9901 7.29067 15.93 7.36014C15.8017 7.50698 15.7307 7.69516 15.73 7.89014C15.7279 8.08563 15.7992 8.27481 15.93 8.42017C15.9912 8.48842 16.0662 8.54292 16.15 8.58014C16.2347 8.61899 16.3268 8.63943 16.42 8.64014C16.5122 8.63896 16.6035 8.62206 16.69 8.59015C16.7777 8.55476 16.8563 8.50007 16.92 8.43015C17.0511 8.28428 17.1256 8.09624 17.13 7.90015C17.1319 7.69986 17.0567 7.5065 16.92 7.36014C16.8563 7.29022 16.7777 7.23556 16.69 7.20017C16.6 7.16825 16.5054 7.15134 16.41 7.15015Z" fill="#64CEB8"/>
<path d="M12.2799 4.08005C12.4521 4.08093 12.6172 4.14912 12.7399 4.27005C12.866 4.39416 12.9379 4.56312 12.9399 4.74005V7.53006C13.0637 7.53261 13.1818 7.58294 13.2694 7.67053C13.357 7.75813 13.4073 7.87621 13.4099 8.00006C13.4086 8.12424 13.3583 8.24286 13.2699 8.33005C13.2278 8.37524 13.1766 8.41106 13.1198 8.43518C13.0629 8.4593 13.0016 8.47119 12.9399 8.47006V9.07007C12.9349 9.20129 12.8815 9.32602 12.7899 9.42007C12.6952 9.50938 12.57 9.55911 12.4399 9.55911C12.3097 9.55911 12.1845 9.50938 12.0899 9.42007C12.0428 9.3747 12.0052 9.32033 11.9795 9.26022C11.9537 9.20011 11.9402 9.13547 11.9399 9.07007V8.64005C11.9399 8.59496 11.922 8.55172 11.8901 8.51984C11.8582 8.48796 11.815 8.47006 11.7699 8.47006H10.3299C10.2353 8.47006 10.1417 8.45144 10.0543 8.41525C9.96698 8.37907 9.8876 8.32604 9.82074 8.25919C9.75388 8.19233 9.70086 8.11296 9.66467 8.0256C9.62849 7.93825 9.60986 7.84461 9.60986 7.75006C9.60984 7.60634 9.65535 7.46631 9.73987 7.35007L11.7399 4.35007C11.7987 4.26272 11.8775 4.19069 11.9699 4.14005C12.0689 4.08898 12.1784 4.0616 12.2899 4.06006L12.2799 4.08005ZM11.9399 7.42007V6.04007C11.9443 6.03069 11.9466 6.02045 11.9466 6.01007C11.9466 5.99969 11.9443 5.98945 11.9399 5.98007H11.8799L10.8799 7.36005C10.8789 7.3767 10.8789 7.39341 10.8799 7.41006C10.876 7.42651 10.876 7.44361 10.8799 7.46005H10.9299H11.8799C11.8892 7.4645 11.8995 7.46683 11.9099 7.46683C11.9202 7.46683 11.9305 7.4645 11.9399 7.46005C11.9445 7.44898 11.9469 7.43707 11.9469 7.42505C11.9469 7.41303 11.9445 7.40112 11.9399 7.39005V7.42007Z" fill="#64CEB8"/>
</g>
<defs>
<clipPath id="clip0_609_1291">
<rect width="27.8" height="27.8" fill="white"/>
</clipPath>
</defs>
</svg>
