<svg width="364" height="345" viewBox="0 0 364 345" fill="none" xmlns="http://www.w3.org/2000/svg">
<path d="M316.873 303.235C262.501 353.237 194.902 353.121 126.105 325.394C85.8483 309.19 43.2321 281.037 20.1064 244.802C-11.179 196.424 -0.273579 154.813 23.8576 102.761C55.9164 33.6158 107.775 -7.33749 184.074 1.09294C282.03 11.921 343.827 83.1543 360.765 177.784C369.312 225.466 351.329 271.524 316.873 303.235Z" fill="#FAFAFC"/>
<path d="M216.675 207.832C216.675 207.832 191.268 202.727 187.014 203.114C182.76 203.5 168.065 210.113 167.91 211.351C167.755 212.55 168.49 213.516 171.042 213.632C173.633 213.748 182.064 212.434 181.522 213.478C181.02 214.522 156.772 219.936 156.618 224.847C156.463 229.759 170.076 238.537 181.368 238.846C192.66 239.156 214.509 225.466 216.404 225.273C232.492 223.416 216.675 207.832 216.675 207.832Z" fill="#ED975D"/>
<path d="M355.505 151.332C345.566 163.707 337.291 173.298 332.921 176.778C329.44 179.563 325.07 182.386 320.043 185.209C283.808 205.666 214.121 226.394 214.121 226.394C214.121 226.394 214.083 226.355 213.967 226.278C213.077 225.659 208.282 221.947 205.265 215.837C202.597 210.461 203.177 207.135 203.951 205.395C204.415 204.351 204.995 203.848 204.995 203.848C204.995 203.848 288.526 150.481 295.177 144.913C298.967 141.742 312.695 109.838 323.871 82.7674C325.418 85.049 326.927 87.3307 328.396 89.651C340.152 108.291 349.201 129.057 355.505 151.332Z" fill="#ED7D2B"/>
<path d="M356.086 245.846C355.545 247.354 355.003 248.824 354.423 250.293C351.716 257.215 348.429 263.906 344.678 270.286C342.435 274.076 339.999 277.789 337.408 281.385C331.568 289.468 324.917 296.97 317.492 303.776C317.53 303.235 317.569 302.655 317.608 302.113C317.685 301.262 317.724 300.412 317.801 299.561C317.917 297.666 318.072 295.848 318.188 294.031C318.226 293.335 318.304 292.639 318.342 291.943C318.652 287.457 318.961 283.203 319.232 279.22C319.309 278.059 319.387 276.938 319.464 275.855C319.503 275.546 319.503 275.198 319.541 274.888C319.58 274.231 319.619 273.612 319.696 272.955C319.735 272.375 319.773 271.833 319.812 271.253C319.812 271.176 319.812 271.137 319.812 271.099C319.851 270.518 319.889 269.977 319.928 269.397C320.005 268.469 320.044 267.541 320.121 266.613C320.16 266.033 320.199 265.491 320.237 264.95C320.315 264.099 320.353 263.287 320.431 262.475C320.431 262.281 320.469 262.088 320.469 261.895C320.508 261.508 320.508 261.121 320.547 260.735C320.547 260.541 320.585 260.348 320.585 260.154C320.585 260.116 320.585 260.116 320.585 260.077C320.624 259.342 320.701 258.646 320.74 257.95C320.74 257.911 320.74 257.873 320.74 257.834C320.779 257.331 320.817 256.829 320.856 256.365C320.856 256.21 320.895 256.055 320.895 255.901C320.933 255.63 320.933 255.359 320.933 255.088C320.933 254.856 320.972 254.663 320.972 254.431C321.088 252.923 321.165 251.569 321.243 250.371C321.243 250.177 321.282 250.022 321.282 249.868C321.282 249.674 321.32 249.52 321.32 249.365C321.359 249.056 321.359 248.746 321.398 248.437C321.552 246.271 321.668 244.686 321.707 243.796C321.707 243.719 321.707 243.603 321.746 243.526C321.746 243.487 321.746 243.487 321.746 243.448C321.746 243.371 321.746 243.294 321.746 243.216C321.784 242.946 321.784 242.83 321.784 242.83L356.086 245.846Z" fill="#6BB7BF"/>
<path d="M356.086 245.846C355.545 247.354 355.003 248.824 354.423 250.293C351.716 257.215 348.429 263.906 344.678 270.286C342.435 274.076 339.999 277.789 337.408 281.385C331.568 289.468 324.917 296.97 317.492 303.776C317.53 303.235 317.569 302.655 317.608 302.113C317.685 301.262 317.724 300.412 317.801 299.561C317.917 297.666 318.072 295.848 318.188 294.031C318.226 293.335 318.304 292.639 318.342 291.943C318.652 287.457 318.961 283.203 319.232 279.22C319.309 278.059 319.387 276.938 319.464 275.855C319.503 275.546 319.503 275.198 319.541 274.888C319.58 274.231 319.619 273.612 319.696 272.955C319.735 272.375 319.773 271.833 319.812 271.253C319.812 271.176 319.812 271.137 319.812 271.099C319.851 270.518 319.889 269.977 319.928 269.397C320.005 268.469 320.044 267.541 320.121 266.613C320.16 266.033 320.199 265.491 320.237 264.95C320.315 264.099 320.353 263.287 320.431 262.475C320.431 262.281 320.469 262.088 320.469 261.895C320.508 261.508 320.508 261.121 320.547 260.735C320.547 260.541 320.585 260.348 320.585 260.154C320.585 260.116 320.585 260.116 320.585 260.077C320.624 259.342 320.701 258.646 320.74 257.95C320.74 257.911 320.74 257.873 320.74 257.834C320.779 257.331 320.817 256.829 320.856 256.365C320.856 256.21 320.895 256.055 320.895 255.901C320.933 255.63 320.933 255.359 320.933 255.088C320.933 254.856 320.972 254.663 320.972 254.431C321.088 252.923 321.165 251.569 321.243 250.371C321.243 250.177 321.282 250.022 321.282 249.868C321.282 249.674 321.32 249.52 321.32 249.365C321.359 249.056 321.359 248.746 321.398 248.437C321.552 246.271 321.668 244.686 321.707 243.796C321.707 243.719 321.707 243.603 321.746 243.526C321.746 243.487 321.746 243.487 321.746 243.448C321.746 243.371 321.746 243.294 321.746 243.216C321.784 242.946 321.784 242.83 321.784 242.83L356.086 245.846Z" fill="#599DAD"/>
<path d="M361.577 177.822C365.831 201.528 363.51 224.693 356.047 245.846C355.505 247.354 354.964 248.824 354.384 250.293C351.677 257.215 348.39 263.906 344.639 270.286C342.396 274.076 339.959 277.789 337.368 281.385C329.905 280.302 323.872 279.413 320.121 279.336C319.811 279.336 319.502 279.297 319.193 279.22C318.342 279.026 317.607 278.601 316.988 278.021C316.254 277.363 316.95 242.984 319.231 199.672C319.309 198.009 319.347 196.153 319.579 194.49V193.871C319.734 191.009 319.85 188.109 320.043 185.209C320.121 183.546 320.237 181.844 320.353 180.143C321.049 168.58 321.938 156.785 322.867 144.99C322.944 143.869 323.06 142.747 323.137 141.587C324.645 123.45 326.386 105.622 328.435 89.651C340.153 108.252 349.202 129.019 355.505 151.332C357.942 159.956 359.953 168.812 361.577 177.822Z" fill="#F99746"/>
<path d="M49.7676 241.824C49.3422 229.681 48.7235 215.257 47.9114 199.633C47.834 197.97 47.7567 196.114 47.5633 194.451L47.5247 193.832C47.4473 192.44 47.4086 191.048 47.3313 189.656C47.2926 188.882 47.254 188.07 47.2153 187.297C47.0993 184.938 46.9446 182.54 46.7899 180.104C46.0938 168.541 45.2044 156.746 44.2762 144.951C44.1602 143.83 44.0829 142.708 44.0055 141.548C42.6133 124.726 41.0278 108.213 39.1716 93.1701C39.1716 93.0927 39.1329 93.0154 39.1329 92.8994C38.9009 91.0044 38.6688 89.1482 38.3981 87.292C37.8954 83.5795 37.3927 79.983 36.8513 76.5026C36.1165 77.7014 35.4204 78.9002 34.7243 80.099C30.5865 87.1759 26.7193 94.6009 23.1228 102.374C15.8139 118.152 9.58775 135.245 4.40575 153.188C4.36708 153.305 4.3284 153.421 4.28973 153.537C2.58818 159.415 1.42803 165.215 0.731939 170.9C0.615924 171.712 0.538581 172.524 0.461237 173.336C-1.97508 199.285 5.37254 223.494 19.3717 245.111C19.8357 245.846 20.3385 246.619 20.8412 247.354C21.808 248.824 22.8521 250.293 23.8963 251.724C24.631 252.729 25.4045 253.774 26.1779 254.779C26.3326 255.011 26.4873 255.204 26.6806 255.398C32.0173 262.32 38.0501 268.933 44.6243 275.198C45.7071 276.203 46.7512 277.209 47.8727 278.214C48.1434 278.446 48.4141 278.717 48.6848 278.949C49.2262 278.717 49.7289 278.407 50.1543 277.982C50.6184 277.595 50.5024 263.364 49.7676 241.824Z" fill="#2A4E96"/>
<path d="M49.7669 241.824C30.2764 221.406 14.0343 196.346 0.769897 171.017C1.46599 165.293 2.62614 159.492 4.32769 153.653C4.36636 153.537 4.40503 153.421 4.44371 153.305C9.62571 135.323 15.8518 118.268 23.1608 102.49C35.1103 119.583 43.5021 135.323 44.0048 141.665C44.0822 142.786 44.1982 143.908 44.2755 145.068C45.2036 156.863 46.0931 168.658 46.7892 180.22C46.9439 182.618 47.0599 185.016 47.2146 187.413C47.2532 188.187 47.2919 188.999 47.3306 189.772C47.4079 191.164 47.4853 192.557 47.5239 193.949L47.5626 194.568C47.756 196.23 47.8333 198.048 47.9107 199.75C48.7228 215.257 49.3415 229.72 49.7669 241.824Z" fill="#1E3D70"/>
<path d="M138.211 209.34C138.211 209.34 164.121 209.378 168.22 210.616C172.319 211.853 185.39 221.251 185.313 222.449C185.235 223.687 184.346 224.46 181.794 224.074C179.241 223.687 171.236 220.709 171.546 221.831C171.855 222.952 194.517 233.084 193.704 237.918C192.854 242.752 177.81 248.669 166.673 246.735C155.535 244.802 136.857 227.051 135.039 226.471C119.648 221.483 138.211 209.34 138.211 209.34Z" fill="#FFB27D"/>
<path d="M142.929 218.196C140.57 222.256 137.437 225.079 135.426 226.665C134.189 227.632 133.377 228.096 133.377 228.096C133.377 228.096 83.4902 209.417 47.3322 189.695C35.3827 183.159 24.9413 176.546 18.2898 170.397C15.2734 167.652 10.4008 161.464 4.44531 153.266C9.62732 135.284 15.8535 118.229 23.1624 102.451C26.7589 94.717 30.626 87.2533 34.7639 80.1764C36.1948 84.469 37.703 88.8775 39.1725 93.2088C47.1002 116.334 55.2212 138.455 58.1216 141.239C64.3864 147.233 144.05 206.246 144.05 206.246C144.05 206.246 145.094 207.252 145.365 209.379C145.597 211.351 145.21 214.251 142.929 218.196Z" fill="#2A4E96"/>
<path d="M240.999 34.892H104.991V158.255H240.999V34.892Z" fill="#DDEBFD"/>
<path d="M240.999 27.5057H104.991V34.892H240.999V27.5057Z" fill="#739AF0"/>
<path d="M109.553 29.71C108.741 29.71 108.084 30.3675 108.084 31.1796C108.084 31.9917 108.741 32.6491 109.553 32.6491C110.365 32.6491 111.023 31.9917 111.023 31.1796C111.061 30.3675 110.404 29.71 109.553 29.71Z" fill="#DDEBFD"/>
<path d="M115.354 29.71C114.542 29.71 113.885 30.3675 113.885 31.1796C113.885 31.9917 114.542 32.6491 115.354 32.6491C116.167 32.6491 116.824 31.9917 116.824 31.1796C116.863 30.3675 116.167 29.71 115.354 29.71Z" fill="#DDEBFD"/>
<path d="M121.195 29.71C120.383 29.71 119.725 30.3675 119.725 31.1796C119.725 31.9917 120.383 32.6491 121.195 32.6491C122.007 32.6491 122.664 31.9917 122.664 31.1796C122.703 30.3675 122.007 29.71 121.195 29.71Z" fill="#DDEBFD"/>
<path d="M145.867 50.9795H197.842C199.195 50.9795 200.317 49.858 200.317 48.5045C200.317 47.151 199.195 46.0295 197.842 46.0295H145.867C144.514 46.0295 143.392 47.151 143.392 48.5045C143.392 49.858 144.514 50.9795 145.867 50.9795Z" fill="#A8C3F7"/>
<path d="M133.995 59.4484H209.636C210.99 59.4484 212.111 58.3269 212.111 56.9734C212.111 55.6199 210.99 54.4984 209.636 54.4984H133.995C132.641 54.4984 131.52 55.6199 131.52 56.9734C131.52 58.3269 132.641 59.4484 133.995 59.4484Z" fill="#A8C3F7"/>
<path d="M127.614 81.7235H218.801C219.807 81.7235 220.619 80.9114 220.619 79.9059C220.619 78.9005 219.807 78.0883 218.801 78.0883H127.614C126.608 78.0883 125.796 78.9005 125.796 79.9059C125.796 80.9114 126.608 81.7235 127.614 81.7235Z" fill="#A8C3F7"/>
<path d="M218.801 86.4412H127.614C126.608 86.4412 125.796 87.2533 125.796 88.2588C125.796 89.2643 126.608 90.0764 127.614 90.0764H218.801C219.807 90.0764 220.619 89.2643 220.619 88.2588C220.58 87.2533 219.768 86.4412 218.801 86.4412Z" fill="#A8C3F7"/>
<path d="M218.801 94.7946H127.614C126.608 94.7946 125.796 95.6067 125.796 96.6122C125.796 97.6176 126.608 98.4298 127.614 98.4298H218.801C219.807 98.4298 220.619 97.6176 220.619 96.6122C220.58 95.6067 219.768 94.7946 218.801 94.7946Z" fill="#A8C3F7"/>
<path d="M136.779 125.113H127.613C126.608 125.113 125.796 125.925 125.796 126.93C125.796 127.936 126.608 128.748 127.613 128.748H136.779C137.784 128.748 138.596 127.936 138.596 126.93C138.596 125.925 137.784 125.113 136.779 125.113Z" fill="#A8C3F7"/>
<path d="M152.055 125.113H142.889C141.884 125.113 141.072 125.925 141.072 126.93C141.072 127.936 141.884 128.748 142.889 128.748H152.055C153.06 128.748 153.872 127.936 153.872 126.93C153.872 125.925 153.06 125.113 152.055 125.113Z" fill="#A8C3F7"/>
<path d="M203.487 125.113H194.322C193.317 125.113 192.505 125.925 192.505 126.93C192.505 127.936 193.317 128.748 194.322 128.748H203.487C204.493 128.748 205.305 127.936 205.305 126.93C205.305 125.925 204.493 125.113 203.487 125.113Z" fill="#A8C3F7"/>
<path d="M218.802 125.113H209.637C208.631 125.113 207.819 125.925 207.819 126.93C207.819 127.936 208.631 128.748 209.637 128.748H218.802C219.807 128.748 220.619 127.936 220.619 126.93C220.581 125.925 219.769 125.113 218.802 125.113Z" fill="#A8C3F7"/>
<path d="M139.293 130.952C133.995 130.952 129.664 135.284 129.664 140.582C129.664 145.88 133.995 150.211 139.293 150.211C144.591 150.211 148.922 145.88 148.922 140.582C148.961 135.284 144.63 130.952 139.293 130.952ZM139.293 149.747C134.227 149.747 130.128 145.648 130.128 140.582C130.128 135.516 134.227 131.416 139.293 131.416C144.359 131.416 148.458 135.516 148.458 140.582C148.458 145.648 144.359 149.747 139.293 149.747Z" fill="#A8C3F7"/>
<path d="M139.293 132.809C135 132.809 131.52 136.289 131.52 140.582C131.52 144.874 135 148.355 139.293 148.355C143.585 148.355 147.066 144.874 147.066 140.582C147.066 136.289 143.585 132.809 139.293 132.809ZM139.293 147.852C135.271 147.852 132.022 144.603 132.022 140.582C132.022 136.56 135.309 133.311 139.293 133.311C143.315 133.311 146.563 136.56 146.563 140.582C146.602 144.603 143.315 147.852 139.293 147.852Z" fill="#A8C3F7"/>
<path d="M136.663 143.753C135.619 143.675 135.078 143.173 135.078 142.322C135.078 141.664 135.31 141.084 135.812 140.582C136.006 141.587 136.547 142.438 137.127 142.631C137.475 142.747 137.785 142.631 138.017 142.322C138.249 142.012 138.519 141.626 138.713 141.162C138.829 141.278 138.945 141.316 139.099 141.316C139.447 141.316 139.834 141.046 140.144 140.504C140.221 140.349 140.298 140.195 140.376 140.04C140.414 140.079 140.414 140.079 140.453 140.117C140.492 140.156 140.646 140.195 140.801 140.079C140.956 139.924 141.188 139.576 141.381 139.189C141.42 139.267 141.458 139.344 141.536 139.383C141.613 139.421 141.768 139.46 141.961 139.305C142.077 139.189 142.077 139.112 142.038 139.035C142 138.919 141.806 138.88 141.574 138.841C141.845 138.223 142.038 137.565 141.922 137.333C141.884 137.217 141.806 137.178 141.69 137.178C141.497 137.178 141.381 137.372 141.304 137.72C141.226 137.991 141.226 138.416 141.265 138.764C141.072 138.764 140.878 138.764 140.646 138.764C140.646 138.609 140.608 138.493 140.569 138.377C140.492 138.223 140.376 138.223 140.337 138.261C140.182 138.3 140.144 138.455 140.144 138.609C140.144 138.648 140.144 138.725 140.144 138.803C139.525 138.841 138.79 138.957 138.171 139.151C137.321 139.383 136.624 139.692 136.083 140.079C136.083 139.769 136.083 139.383 136.315 139.267C136.586 139.112 137.011 139.305 137.166 139.383L137.321 139.112C137.282 139.112 136.624 138.687 136.16 138.996C135.89 139.189 135.735 139.537 135.812 140.117C135.812 140.156 135.812 140.233 135.812 140.272C135.155 140.852 134.807 141.548 134.846 142.36C134.884 143.366 135.542 143.985 136.702 144.101C137.475 144.178 138.442 143.985 139.486 143.675C141.729 142.94 143.817 141.394 144.243 140.001C143.547 141.703 139.177 143.985 136.663 143.753ZM141.652 137.526C141.652 137.604 141.613 137.72 141.574 137.836C141.613 137.681 141.652 137.604 141.652 137.526ZM140.646 138.996C140.84 138.996 140.994 138.996 141.11 138.996C140.917 139.344 140.724 139.653 140.569 139.808C140.569 139.808 140.53 139.769 140.492 139.653C140.569 139.421 140.646 139.189 140.646 138.996ZM139.022 139.151C139.409 139.073 139.757 139.035 140.105 138.996C140.105 139.189 140.144 139.421 140.182 139.615C140.105 139.847 139.989 140.079 139.873 140.311C139.641 140.736 139.331 141.007 139.099 140.968C138.983 140.968 138.906 140.891 138.829 140.775C139.099 140.195 139.215 139.537 139.022 139.151ZM138.713 139.267C138.867 139.46 138.829 139.885 138.674 140.388C138.597 139.924 138.635 139.421 138.713 139.267ZM136.973 139.808C137.437 139.576 137.901 139.421 138.403 139.305C138.326 139.653 138.326 140.117 138.403 140.465C138.442 140.62 138.481 140.736 138.519 140.852C138.326 141.278 138.094 141.742 137.785 142.09C137.63 142.322 137.398 142.36 137.205 142.322C136.74 142.167 136.238 141.394 136.044 140.349C136.315 140.156 136.624 139.963 136.973 139.808Z" fill="#A8C3F7"/>
<path d="M144.165 139.953C144.201 139.88 144.201 139.843 144.201 139.769C144.201 139.843 144.165 139.88 144.165 139.953Z" fill="#A8C3F7"/>
<path d="M206.311 131.184C200.858 131.184 196.45 135.632 196.45 141.046C196.45 146.498 200.897 150.907 206.311 150.907C211.764 150.907 216.172 146.46 216.172 141.046C216.172 135.632 211.764 131.184 206.311 131.184ZM206.311 150.443C201.129 150.443 196.914 146.228 196.914 141.084C196.914 135.902 201.129 131.726 206.311 131.726C211.493 131.726 215.67 135.941 215.67 141.084C215.67 146.266 211.454 150.443 206.311 150.443Z" fill="#A8C3F7"/>
<path d="M206.311 133.118C201.941 133.118 198.345 136.676 198.345 141.085C198.345 145.455 201.903 149.051 206.311 149.051C210.681 149.051 214.277 145.493 214.277 141.085C214.277 136.676 210.681 133.118 206.311 133.118ZM206.311 148.548C202.212 148.548 198.847 145.184 198.847 141.085C198.847 136.985 202.212 133.621 206.311 133.621C210.41 133.621 213.775 136.985 213.775 141.085C213.775 145.184 210.41 148.548 206.311 148.548Z" fill="#A8C3F7"/>
<path d="M211.26 140.417C211.296 140.344 211.296 140.307 211.296 140.234C211.296 140.307 211.296 140.344 211.26 140.417Z" fill="#A8C3F7"/>
<path d="M203.604 144.333C202.56 144.256 201.98 143.753 201.98 142.863C201.98 142.167 202.212 141.587 202.715 141.085C202.908 142.129 203.449 142.979 204.068 143.173C204.416 143.289 204.725 143.173 204.996 142.863C205.267 142.554 205.499 142.129 205.692 141.703C205.808 141.819 205.924 141.858 206.079 141.897C206.466 141.897 206.814 141.626 207.123 141.046C207.2 140.891 207.278 140.737 207.355 140.543C207.394 140.582 207.394 140.582 207.432 140.621C207.471 140.659 207.626 140.698 207.781 140.582C207.974 140.427 208.167 140.079 208.399 139.654C208.438 139.731 208.515 139.808 208.554 139.847C208.631 139.886 208.786 139.924 209.018 139.731C209.134 139.615 209.134 139.499 209.095 139.422C209.057 139.306 208.863 139.267 208.593 139.19C208.863 138.571 209.057 137.913 208.941 137.643C208.902 137.527 208.786 137.488 208.709 137.488C208.515 137.488 208.399 137.681 208.322 138.029C208.245 138.3 208.245 138.726 208.283 139.112C208.09 139.112 207.897 139.112 207.665 139.112C207.665 138.958 207.626 138.842 207.587 138.726C207.51 138.571 207.394 138.571 207.355 138.61C207.2 138.648 207.162 138.803 207.123 138.958C207.123 138.996 207.123 139.074 207.123 139.151C206.466 139.19 205.731 139.306 205.112 139.499C204.223 139.731 203.527 140.079 202.947 140.466C202.908 140.156 202.947 139.77 203.179 139.615C203.449 139.46 203.913 139.654 204.068 139.731L204.223 139.46C204.184 139.46 203.488 139.035 203.024 139.344C202.715 139.538 202.599 139.924 202.637 140.504C202.637 140.543 202.637 140.621 202.637 140.659C201.941 141.239 201.632 141.974 201.632 142.825C201.67 143.869 202.328 144.526 203.565 144.604C204.377 144.681 205.383 144.488 206.388 144.178C208.67 143.444 210.836 141.858 211.261 140.388C210.642 142.245 206.195 144.565 203.604 144.333ZM208.709 137.913C208.709 137.991 208.67 138.107 208.631 138.223C208.67 138.107 208.709 137.991 208.709 137.913ZM207.665 139.46C207.858 139.46 208.013 139.46 208.167 139.46C207.974 139.847 207.781 140.156 207.626 140.311C207.626 140.311 207.587 140.272 207.548 140.118C207.587 139.886 207.665 139.654 207.665 139.46ZM206.002 139.615C206.388 139.538 206.775 139.499 207.123 139.46C207.123 139.654 207.162 139.886 207.2 140.079C207.123 140.311 207.007 140.582 206.891 140.814C206.62 141.278 206.35 141.51 206.118 141.51C206.002 141.51 205.924 141.433 205.847 141.317C206.118 140.698 206.234 140.002 206.002 139.615ZM205.692 139.731C205.847 139.924 205.808 140.388 205.654 140.891C205.576 140.427 205.615 139.886 205.692 139.731ZM203.913 140.272C204.377 140.04 204.88 139.886 205.383 139.77C205.306 140.118 205.306 140.582 205.383 140.969C205.422 141.123 205.46 141.239 205.499 141.355C205.306 141.819 205.035 142.245 204.764 142.631C204.571 142.863 204.377 142.941 204.184 142.863C203.72 142.709 203.179 141.935 203.024 140.814C203.256 140.621 203.565 140.427 203.913 140.272Z" fill="#A8C3F7"/>
<path d="M252.987 254.624L241.154 270.596L239.993 272.181L239.413 272.955L237.944 274.927L237.17 276.01L235.701 277.982L234.154 280.07L232.723 282.004L232.685 282.042L231.331 283.86V283.899L231.138 284.169L231.099 284.208L230.828 284.556L229.359 286.374V286.528L228.005 288.385L226.265 290.744L224.95 292.523L223.481 294.495L221.044 297.782L220.812 298.091L220 299.213L218.067 301.804L215.514 305.091V305.245L214.199 307.024L214.045 307.218L212.227 309.693L210.526 312.013V312.052L206.31 317.775L200.007 326.283L189.45 340.514L188.135 342.293L187.361 343.337C187.748 343.414 188.173 343.453 188.56 343.492C189.952 343.685 191.345 343.84 192.737 343.995C193.123 344.033 193.51 344.072 193.897 344.111C194.129 344.149 194.4 344.149 194.632 344.188C195.212 344.265 195.83 344.304 196.41 344.343C196.643 344.381 196.913 344.381 197.145 344.42C197.261 344.42 197.377 344.459 197.493 344.459C197.88 344.497 198.267 344.536 198.653 344.536C198.731 344.536 198.808 344.536 198.885 344.536C199.736 344.613 200.626 344.652 201.476 344.691C201.863 344.729 202.25 344.729 202.637 344.768C202.946 344.807 203.255 344.807 203.565 344.807C203.642 344.807 203.681 344.807 203.758 344.807C204.261 344.845 204.764 344.845 205.266 344.884C205.653 344.884 206.04 344.923 206.426 344.923C206.852 344.923 207.316 344.961 207.741 344.961C208.128 344.961 208.515 344.961 208.901 345C209.327 345 209.714 345 210.139 345C210.526 345 210.912 345 211.299 345C211.531 345 211.724 345 211.957 345C212.189 345 212.421 345 212.653 345C212.807 345 212.962 345 213.117 345C213.271 345 213.426 345 213.581 345C213.813 345 214.006 345 214.238 345C214.277 345 214.354 345 214.393 345C214.509 345 214.625 345 214.741 345C214.896 345 215.05 345 215.205 345C218.26 344.923 221.276 344.768 224.293 344.497C227.735 344.227 231.176 343.801 234.541 343.298C238.215 342.757 241.811 342.1 245.369 341.288C245.446 341.288 245.485 341.249 245.562 341.249V341.288L248.927 340.475C249.391 340.359 249.855 340.243 250.319 340.127C254.727 339.006 259.059 337.73 263.274 336.222C263.97 335.989 264.705 335.719 265.401 335.487C265.594 335.409 265.749 335.371 265.942 335.293C267.257 334.829 268.572 334.327 269.848 333.785C270.196 333.631 270.544 333.515 270.892 333.36C270.969 333.321 271.047 333.321 271.124 333.282C271.55 333.128 271.936 332.934 272.362 332.78C272.671 332.664 272.98 332.509 273.29 332.393C273.638 332.238 274.025 332.084 274.373 331.929C274.605 331.813 274.837 331.736 275.069 331.62C275.455 331.426 275.881 331.272 276.267 331.078C280.212 329.299 284.04 327.366 287.792 325.316C288.178 325.084 288.565 324.891 288.99 324.659L309.602 296.854L252.987 254.624Z" fill="#A8D29F"/>
<path d="M221.818 311.898V313.522L223.017 311.898V311.859H221.818V311.898ZM219.575 314.102C219.111 314.295 218.724 314.489 218.338 314.721L215.708 318.278L213.697 320.985V324.543L216.095 321.333L221.818 313.599C221.083 313.599 220.349 313.754 219.575 314.102ZM209.869 326.129L209.559 326.515L208.399 328.062L203.217 335.062V338.62L206.891 333.67L209.83 329.725L211.377 327.637L212.537 326.09H209.869V326.129ZM253.645 267.038L241.309 283.667L241.193 283.822L240.458 284.827L239.491 286.104L238.988 286.761L236.707 289.855L235.74 290.976V291.131L235.16 291.982L234.309 293.103L230.906 297.705L230.829 297.782L230.674 298.014L229.591 299.484V299.639L226.343 303.854L225.105 305.555L224.912 305.826L221.431 310.505L220.387 311.898V311.936L218.338 314.682L215.708 318.24L213.697 320.947L212.228 322.919L209.83 326.129L209.521 326.515L208.36 328.062L203.178 335.062L201.709 337.034L199.234 340.36L196.372 344.188C196.604 344.227 196.875 344.227 197.107 344.266C197.223 344.266 197.339 344.304 197.455 344.304C197.842 344.343 198.228 344.382 198.615 344.382C198.692 344.382 198.77 344.382 198.847 344.382L201.825 340.321L203.101 338.62L206.775 333.67L209.714 329.725L211.261 327.637L212.421 326.09L213.62 324.466L216.017 321.256L221.741 313.522L222.94 311.898V311.859L224.796 309.5V309.384L226.265 307.412L227.426 305.826L229.514 303.042L230.983 301.069L232.608 298.865L233.226 298.014L233.458 297.705L234.232 296.7L235.701 294.727L237.248 292.639L238.795 290.551L238.95 290.357L240.419 288.385L241.541 286.877L242.082 286.181L243.436 284.363L243.552 284.209L243.861 283.822L249.468 276.242C252.021 272.8 256.893 272.066 260.297 274.618L288.991 295.887C292.781 298.71 293.593 304.047 290.77 307.837L273.445 331.195L272.439 332.587C272.749 332.471 273.058 332.316 273.368 332.2C273.716 332.045 274.102 331.891 274.45 331.736C274.682 331.62 274.914 331.543 275.146 331.427C275.533 331.233 275.959 331.079 276.345 330.885L298.852 300.528L253.645 267.038ZM209.869 326.129L209.559 326.515L208.399 328.062L203.217 335.062V338.62L206.891 333.67L209.83 329.725L211.377 327.637L212.537 326.09H209.869V326.129ZM219.575 314.102C219.111 314.295 218.724 314.489 218.338 314.721L215.708 318.278L213.697 320.985V324.543L216.095 321.333L221.818 313.599C221.083 313.599 220.349 313.754 219.575 314.102ZM221.818 311.898V313.522L223.017 311.898V311.859H221.818V311.898Z" fill="#82B378"/>
<path d="M245.679 341.095V341.056C245.601 341.056 245.563 341.095 245.485 341.095C241.927 341.868 238.292 342.564 234.657 343.105C231.293 343.608 227.851 343.995 224.409 344.304C221.393 344.575 218.376 344.73 215.321 344.807C215.167 344.807 215.012 344.807 214.857 344.807C214.741 344.807 214.625 344.807 214.509 344.807C214.47 344.807 214.393 344.807 214.354 344.807C214.316 344.382 214.316 343.918 214.316 343.492C214.316 342.448 214.432 341.404 214.625 340.398C215.089 337.885 216.133 335.487 217.758 333.283L217.796 333.244C218.57 332.2 219.42 331.272 220.387 330.46C220.851 330.073 221.354 329.686 221.857 329.338C223.249 328.372 224.757 327.637 226.304 327.095C226.768 326.941 227.271 326.786 227.774 326.67C228.895 326.399 230.055 326.245 231.254 326.206C231.757 326.167 232.221 326.206 232.724 326.206C233.806 326.245 234.889 326.399 235.972 326.67C236.475 326.786 236.939 326.941 237.441 327.095C237.983 327.289 238.563 327.482 239.066 327.753C239.568 327.985 240.032 328.217 240.535 328.488C241.077 328.797 241.579 329.106 242.082 329.454C242.159 329.532 242.275 329.57 242.353 329.648C242.739 329.918 243.126 330.228 243.474 330.537C243.513 330.537 243.513 330.576 243.552 330.576C243.822 330.808 244.093 331.079 244.364 331.311C244.905 331.852 245.369 332.355 245.833 332.935V332.973C246.027 333.205 246.22 333.476 246.413 333.747V333.786C246.955 334.559 247.457 335.41 247.883 336.299V336.338C248.076 336.763 248.231 337.15 248.386 337.575C248.734 338.465 248.966 339.393 249.159 340.321L245.679 341.095Z" fill="#82B378"/>
<path opacity="0.5" d="M230.867 284.479L229.398 286.297V286.413L228.044 288.269L226.304 290.628L224.989 292.407L223.52 294.379L221.083 297.666L220.851 297.975L220.039 299.097L218.106 301.688L215.553 304.975V305.091L214.238 306.87L214.084 307.063L212.266 309.538L210.565 311.859V311.897L206.349 317.621L200.046 326.128L189.489 340.36L188.174 342.139L187.4 343.183C187.787 343.26 188.212 343.299 188.599 343.337C189.991 343.531 191.383 343.685 192.776 343.84C193.162 343.879 193.549 343.917 193.936 343.956C194.168 343.995 194.439 343.995 194.671 344.033C195.251 344.111 195.869 344.149 196.449 344.188C196.681 344.227 196.952 344.227 197.184 344.265C197.3 344.265 197.416 344.304 197.532 344.304C197.919 344.343 198.306 344.381 198.692 344.381C198.77 344.381 198.847 344.381 198.924 344.381C199.775 344.459 200.665 344.498 201.515 344.536C201.902 344.575 202.289 344.575 202.676 344.614C202.985 344.652 203.294 344.652 203.604 344.652C203.681 344.652 203.72 344.652 203.797 344.652C204.106 343.221 204.454 341.79 204.841 340.321C205.421 338.117 206.117 335.874 206.891 333.669C207.471 331.968 208.09 330.228 208.747 328.526C209.018 327.83 209.288 327.173 209.559 326.515C209.598 326.399 209.675 326.244 209.714 326.128C210.526 324.118 211.377 322.145 212.228 320.212V320.096C212.692 319.013 213.194 318.085 213.697 317.041C214.509 315.3 215.321 313.599 216.172 311.936C216.172 311.936 216.172 311.936 216.172 311.897C217.294 309.654 218.415 307.45 219.536 305.362C219.691 305.091 219.846 304.898 219.962 304.666V304.55C220.465 303.622 220.929 302.732 221.431 301.843C222.127 300.528 222.824 299.252 223.52 298.053C223.597 297.937 223.636 297.821 223.713 297.705C224.138 296.931 224.564 296.313 224.95 295.617V295.5C225.917 293.76 226.845 292.175 227.619 290.744C228.083 289.893 228.547 289.081 228.934 288.385C229.088 288.114 229.243 287.843 229.359 287.573C230.016 286.413 230.481 285.446 230.829 284.75C230.945 284.518 231.022 284.324 231.099 284.131L230.867 284.479Z" fill="#82B378"/>
<path d="M248.269 329.261V337.304C248.269 337.382 248.269 337.459 248.269 337.536C248.231 338.078 248.037 338.581 247.728 339.006C247.38 339.509 246.877 339.934 246.258 340.166C246.104 340.205 245.988 340.282 245.833 340.282C245.794 340.282 245.756 340.321 245.678 340.321C245.601 340.321 245.485 340.359 245.408 340.359C245.33 340.359 245.214 340.359 245.137 340.359H244.247H240.458H237.364H235.933H232.685H231.215H227.735H226.265H221.818H220.348H214.625H212.769H211.299H204.802H201.709H199.234H189.372H187.013H185.312H184.616H180.594H174.716H171.854C170.23 340.011 168.567 339.625 166.904 339.238C166.517 339.161 166.131 339.045 165.744 338.967C164.661 338.697 163.54 338.426 162.457 338.155C161.993 338.039 161.49 337.923 160.987 337.768C160.137 337.536 159.324 337.343 158.474 337.111C157.584 336.879 156.656 336.608 155.767 336.376C155.38 336.26 154.993 336.144 154.607 336.028C152.364 335.409 150.159 334.713 147.916 334.017C147.839 333.979 147.762 333.979 147.646 333.94C146.988 333.747 146.292 333.515 145.635 333.283C145.248 333.167 144.861 333.05 144.475 332.896C138.171 330.846 131.945 328.565 125.757 326.09H127.536L161.026 326.128H162.496H171.506H173.517H177.926H183.417H188.135H188.56H195.869H197.571H199.04H200.007H207.316H209.752H212.537H213.735H220.426H221.818H223.287H226.342H232.337H236.784H236.938H238.215H241.695H243.165H245.176H245.292C245.446 326.128 245.562 326.167 245.717 326.167C245.91 326.206 246.104 326.244 246.297 326.322C246.877 326.554 247.38 326.979 247.767 327.482C248.076 328.023 248.269 328.603 248.269 329.261Z" fill="#FFB93E"/>
<path d="M185.385 340.36H184.689H180.667H174.789H173.319H171.927C170.303 340.011 168.64 339.625 166.977 339.238C166.591 339.161 166.204 339.045 165.817 338.967C164.734 338.697 163.613 338.426 162.53 338.155C162.066 338.039 161.563 337.923 161.06 337.769C160.21 337.536 159.398 337.343 158.547 337.111C157.657 336.879 156.729 336.608 155.84 336.376C155.453 336.26 155.066 336.144 154.68 336.028C152.437 335.41 150.232 334.713 147.989 334.017C147.912 333.979 147.835 333.979 147.719 333.94C147.061 333.747 146.365 333.515 145.708 333.283C145.321 333.167 144.934 333.051 144.548 332.896C138.244 330.846 132.018 328.565 125.831 326.09H127.609L161.099 326.128H162.569H171.579H173.551H173.59H176.993C177.457 328.139 178.192 330.537 179.468 332.935C180.667 335.216 182.253 337.536 184.495 339.547C184.612 339.663 184.766 339.779 184.921 339.934C184.96 339.973 184.96 339.973 184.998 340.011C185.114 340.127 185.269 340.243 185.385 340.36Z" fill="#FFA412"/>
<path d="M232.684 326.167H231.215V340.398H232.684V326.167Z" fill="#FFA412"/>
<path d="M227.774 326.167H226.305V340.398H227.774V326.167Z" fill="#FFA412"/>
<path d="M221.864 326.129L220.394 326.128L220.379 340.359L221.849 340.361L221.864 326.129Z" fill="#FFA412"/>
<path d="M212.807 326.128H211.338V340.36H212.807V326.128Z" fill="#FFA412"/>
<path d="M203.255 326.128H201.785V340.36H203.255V326.128Z" fill="#FFA412"/>
<path d="M188.561 326.128H187.092V340.36H188.561V326.128Z" fill="#FFA412"/>
<path d="M174.833 326.128H173.363V340.36H174.833V326.128Z" fill="#FFA412"/>
<path d="M162.572 326.09V338.117C162.108 338.001 161.605 337.885 161.103 337.73V326.09H162.572Z" fill="#FFA412"/>
<path d="M237.402 326.167H235.933V340.398H237.402V326.167Z" fill="#FFA412"/>
<path d="M240.497 326.167H239.027V340.398H240.497V326.167Z" fill="#FFA412"/>
<path d="M243.482 326.168L242.013 326.167L241.998 340.398L243.468 340.399L243.482 326.168Z" fill="#FFA412"/>
<path d="M245.718 326.206V340.321C245.524 340.36 245.37 340.36 245.176 340.36H244.248V326.128H245.176C245.37 326.167 245.524 326.167 245.718 326.206Z" fill="#FFA412"/>
<path d="M247.727 327.521V339.006C247.379 339.509 246.876 339.934 246.257 340.166V326.36C246.876 326.593 247.379 327.018 247.727 327.521Z" fill="#FFA412"/>
<path d="M258.75 315.03V323.074C258.75 323.731 258.556 324.311 258.208 324.814C257.86 325.317 257.358 325.742 256.739 325.974C256.545 326.051 256.352 326.09 256.159 326.129C255.965 326.167 255.811 326.167 255.617 326.167L127.614 326.09C125.951 326.09 124.598 324.775 124.52 323.151C124.52 323.112 124.52 323.035 124.52 322.996V314.952C124.52 314.914 124.52 314.836 124.52 314.798C124.598 313.29 125.758 312.052 127.266 311.897C127.382 311.897 127.498 311.859 127.614 311.859L255.617 311.936C255.811 311.936 256.004 311.936 256.159 311.975C256.352 312.013 256.545 312.052 256.739 312.129C257.319 312.361 257.822 312.787 258.208 313.29C258.556 313.792 258.75 314.411 258.75 315.03Z" fill="#FFB93E"/>
<path d="M195.868 326.129L127.303 326.09C125.833 326.09 124.634 324.775 124.557 323.151C124.557 323.112 124.557 323.035 124.557 322.996V314.953C124.557 314.914 124.557 314.836 124.557 314.798C124.634 313.29 125.679 312.052 126.993 311.897C127.109 311.897 127.225 311.859 127.303 311.859L187.476 311.897C187.476 311.897 187.476 311.897 187.476 311.936C188.443 316.113 190.647 321.875 195.868 326.129Z" fill="#FFA412"/>
<path d="M243.165 311.936H241.695V326.167H243.165V311.936Z" fill="#FFA412"/>
<path d="M238.253 311.936H236.783V326.167H238.253V311.936Z" fill="#FFA412"/>
<path d="M232.337 311.936H230.867V326.167H232.337V311.936Z" fill="#FFA412"/>
<path d="M223.287 311.897H221.818V326.128H223.287V311.897Z" fill="#FFA412"/>
<path d="M213.735 311.897H212.266V326.128H213.735V311.897Z" fill="#FFA412"/>
<path d="M199.04 311.897H197.57V326.128H199.04V311.897Z" fill="#FFA412"/>
<path d="M185.311 311.897H183.842V326.128H185.311V311.897Z" fill="#FFA412"/>
<path d="M173.053 311.897H171.583V326.128H173.053V311.897Z" fill="#FFA412"/>
<path d="M247.844 311.936H246.374V326.167H247.844V311.936Z" fill="#FFA412"/>
<path d="M250.978 311.936H249.508V326.167H250.978V311.936Z" fill="#FFA412"/>
<path d="M253.954 311.936H252.484V326.167H253.954V311.936Z" fill="#FFA412"/>
<path d="M256.198 311.974V326.09C256.005 326.128 255.85 326.128 255.657 326.128H254.729V311.897H255.657C255.85 311.936 256.005 311.936 256.198 311.974Z" fill="#FFA412"/>
<path d="M258.208 313.289V324.775C257.86 325.277 257.357 325.703 256.738 325.935V312.129C257.357 312.361 257.86 312.787 258.208 313.289Z" fill="#FFA412"/>
<path d="M241.927 300.799V308.842C241.927 309.5 241.733 310.08 241.385 310.582C241.037 311.085 240.534 311.511 239.916 311.743C239.722 311.82 239.529 311.859 239.336 311.897C239.258 311.897 239.22 311.936 239.142 311.936C239.104 311.936 239.065 311.936 238.988 311.936C238.949 311.936 238.949 311.936 238.91 311.936C238.872 311.936 238.794 311.936 238.755 311.936L110.752 311.859C109.089 311.859 107.736 310.544 107.658 308.92C107.658 308.881 107.658 308.804 107.658 308.765V300.721C107.658 300.683 107.658 300.605 107.658 300.567C107.736 298.942 109.089 297.627 110.752 297.627L238.755 297.705C238.794 297.705 238.872 297.705 238.91 297.705C239.026 297.705 239.181 297.743 239.297 297.743C239.49 297.782 239.684 297.821 239.877 297.898C239.954 297.937 240.07 297.975 240.148 298.014C240.186 298.053 240.264 298.053 240.302 298.092C240.341 298.13 240.418 298.169 240.457 298.208C240.457 298.208 240.457 298.208 240.496 298.208C240.534 298.246 240.573 298.285 240.65 298.324C240.766 298.401 240.844 298.478 240.96 298.594C240.998 298.633 241.037 298.672 241.037 298.672C241.037 298.672 241.076 298.71 241.076 298.749C241.114 298.788 241.153 298.826 241.153 298.865C241.192 298.904 241.23 298.981 241.269 299.02C241.733 299.6 241.927 300.18 241.927 300.799Z" fill="#FFB93E"/>
<path d="M179.086 311.897L110.521 311.859C109.051 311.859 107.852 310.544 107.775 308.92C107.775 308.881 107.775 308.804 107.775 308.765V300.721C107.775 300.683 107.775 300.605 107.775 300.567C107.852 298.942 109.051 297.627 110.521 297.627L170.694 297.666C170.732 297.782 170.732 297.898 170.771 297.975C171.738 302.152 173.981 307.759 179.086 311.897C179.047 311.897 179.086 311.897 179.086 311.897Z" fill="#FFA412"/>
<path d="M226.382 297.705H224.913V311.936H226.382V297.705Z" fill="#FFA412"/>
<path d="M221.47 297.705H220V311.936H221.47V297.705Z" fill="#FFA412"/>
<path d="M215.553 297.705H214.083V311.936H215.553V297.705Z" fill="#FFA412"/>
<path d="M206.505 297.705H205.035V311.936H206.505V297.705Z" fill="#FFA412"/>
<path d="M196.914 297.705H195.444V311.936H196.914V297.705Z" fill="#FFA412"/>
<path d="M182.257 297.666H180.788V311.897H182.257V297.666Z" fill="#FFA412"/>
<path d="M168.49 297.666H167.021V311.897H168.49V297.666Z" fill="#FFA412"/>
<path d="M156.238 297.667L154.769 297.666L154.754 311.897L156.224 311.898L156.238 297.667Z" fill="#FFA412"/>
<path d="M231.061 297.705H229.592V311.936H231.061V297.705Z" fill="#FFA412"/>
<path d="M234.154 297.705H232.684V311.936H234.154V297.705Z" fill="#FFA412"/>
<path d="M237.171 297.705H235.702V311.936H237.171V297.705Z" fill="#FFA412"/>
<path d="M239.375 297.782V311.897C239.181 311.936 239.027 311.936 238.833 311.936H237.905V297.705H238.833C239.027 297.705 239.22 297.743 239.375 297.782Z" fill="#FFA412"/>
<path d="M241.425 299.097V310.582C241.077 311.085 240.574 311.51 239.955 311.742V297.937C240.536 298.169 241.077 298.555 241.425 299.097Z" fill="#FFA412"/>
<path d="M251.362 286.915V294.959C251.362 295.616 251.169 296.196 250.821 296.699C250.473 297.202 249.97 297.627 249.352 297.859C249.158 297.937 248.965 297.975 248.771 298.014C248.578 298.053 248.423 298.053 248.23 298.053L120.227 297.975C119.724 297.975 119.26 297.859 118.835 297.627C117.906 297.163 117.249 296.235 117.133 295.152C117.133 295.114 117.133 295.075 117.133 295.036C117.133 294.998 117.133 294.92 117.133 294.882V286.838C117.133 286.799 117.133 286.722 117.133 286.683C117.21 285.175 118.371 283.937 119.879 283.783C119.995 283.783 120.111 283.744 120.227 283.744L248.23 283.821C248.423 283.821 248.617 283.821 248.771 283.86C248.965 283.899 249.158 283.937 249.352 284.015C249.932 284.247 250.434 284.672 250.821 285.175C251.169 285.678 251.362 286.296 251.362 286.915Z" fill="#FFB93E"/>
<path d="M188.48 298.014L119.915 297.975C119.49 297.975 119.065 297.859 118.678 297.627C117.827 297.163 117.247 296.235 117.17 295.152C117.17 295.114 117.17 295.075 117.17 295.036C117.17 294.998 117.17 294.92 117.17 294.882V286.838C117.17 286.799 117.17 286.722 117.17 286.683C117.247 285.175 118.291 283.937 119.606 283.783C119.722 283.783 119.838 283.744 119.915 283.744L180.089 283.783C180.089 283.783 180.089 283.783 180.089 283.821C181.017 287.921 183.182 293.489 188.094 297.705C188.248 297.782 188.364 297.898 188.48 298.014Z" fill="#FFA412"/>
<path d="M235.818 283.822H234.349V298.053H235.818V283.822Z" fill="#FFA412"/>
<path d="M230.867 283.822H229.398V298.053H230.867V283.822Z" fill="#FFA412"/>
<path d="M224.951 283.822H223.482V298.053H224.951V283.822Z" fill="#FFA412"/>
<path d="M215.902 283.783H214.432V298.014H215.902V283.783Z" fill="#FFA412"/>
<path d="M206.35 283.783H204.88V298.014H206.35V283.783Z" fill="#FFA412"/>
<path d="M191.654 283.783H190.185V298.014H191.654V283.783Z" fill="#FFA412"/>
<path d="M177.926 283.783H176.456V298.014H177.926V283.783Z" fill="#FFA412"/>
<path d="M165.667 283.783H164.198V298.014H165.667V283.783Z" fill="#FFA412"/>
<path d="M240.497 283.822H239.028V298.053H240.497V283.822Z" fill="#FFA412"/>
<path d="M243.59 283.822H242.12V298.053H243.59V283.822Z" fill="#FFA412"/>
<path d="M246.568 283.822H245.099V298.053H246.568V283.822Z" fill="#FFA412"/>
<path d="M248.811 283.86V297.975C248.617 298.014 248.463 298.014 248.269 298.014H247.341V283.783H248.269C248.463 283.822 248.617 283.822 248.811 283.86Z" fill="#FFA412"/>
<path d="M250.822 285.175V296.661C250.474 297.163 249.971 297.589 249.353 297.821V284.015C249.971 284.247 250.474 284.672 250.822 285.175Z" fill="#FFA412"/>
<path d="M241.963 272.72V280.764C241.963 281.422 241.77 282.002 241.422 282.504C241.074 283.007 240.571 283.433 239.952 283.665C239.759 283.742 239.565 283.781 239.372 283.819C239.295 283.819 239.256 283.858 239.179 283.858C239.14 283.858 239.101 283.858 239.063 283.858C239.024 283.858 238.985 283.858 238.947 283.858C238.908 283.858 238.831 283.858 238.792 283.858L110.789 283.781C109.126 283.781 107.772 282.466 107.695 280.842C107.695 280.803 107.695 280.726 107.695 280.687V272.643C107.695 272.604 107.695 272.527 107.695 272.488C107.772 270.864 109.126 269.549 110.789 269.549L238.792 269.627C238.985 269.627 239.179 269.627 239.333 269.665C239.527 269.704 239.72 269.743 239.913 269.82C240.494 270.052 240.996 270.478 241.383 270.98C241.77 271.483 241.963 272.063 241.963 272.72Z" fill="#FFB93E"/>
<path d="M179.086 283.783L110.521 283.744C109.051 283.744 107.852 282.43 107.775 280.805C107.775 280.767 107.775 280.689 107.775 280.651V272.607C107.775 272.568 107.775 272.491 107.775 272.452C107.852 270.828 109.051 269.513 110.521 269.513L170.694 269.552C171.622 273.728 173.865 279.529 179.086 283.783Z" fill="#FFA412"/>
<path d="M226.389 269.591L224.92 269.59L224.905 283.821L226.374 283.823L226.389 269.591Z" fill="#FFA412"/>
<path d="M221.47 269.59H220V283.822H221.47V269.59Z" fill="#FFA412"/>
<path d="M215.552 269.59H214.083V283.822H215.552V269.59Z" fill="#FFA412"/>
<path d="M206.505 269.59H205.035V283.822H206.505V269.59Z" fill="#FFA412"/>
<path d="M196.953 269.59H195.483V283.822H196.953V269.59Z" fill="#FFA412"/>
<path d="M182.257 269.552H180.788V283.783H182.257V269.552Z" fill="#FFA412"/>
<path d="M168.529 269.552H167.059V283.783H168.529V269.552Z" fill="#FFA412"/>
<path d="M156.27 269.552H154.8V283.783H156.27V269.552Z" fill="#FFA412"/>
<path d="M231.1 269.59H229.63V283.822H231.1V269.59Z" fill="#FFA412"/>
<path d="M234.193 269.59H232.723V283.822H234.193V269.59Z" fill="#FFA412"/>
<path d="M237.171 269.59H235.702V283.822H237.171V269.59Z" fill="#FFA412"/>
<path d="M239.413 269.668V283.783C239.22 283.822 239.065 283.822 238.872 283.822H237.944V269.59H238.872C239.065 269.59 239.22 269.629 239.413 269.668Z" fill="#FFA412"/>
<path d="M241.425 270.983V282.468C241.077 282.971 240.574 283.396 239.955 283.628V269.823C240.574 270.055 241.077 270.441 241.425 270.983Z" fill="#FFA412"/>
<path d="M259.251 337.421C256.351 338.349 253.412 339.2 250.434 339.934C249.97 340.05 249.506 340.166 249.042 340.282C247.921 340.553 246.838 340.824 245.716 341.056C245.639 341.056 245.6 341.094 245.523 341.094C241.965 341.868 238.33 342.564 234.695 343.105C231.331 343.608 227.889 343.995 224.447 344.304C221.431 344.575 218.414 344.73 215.359 344.807C215.204 344.807 215.05 344.807 214.895 344.807C214.779 344.807 214.663 344.807 214.547 344.807C214.508 344.807 214.431 344.807 214.392 344.807C214.16 344.807 213.967 344.807 213.735 344.807C213.58 344.807 213.426 344.807 213.271 344.807C213.116 344.807 212.962 344.807 212.807 344.807C212.575 344.807 212.343 344.807 212.111 344.807C211.879 344.807 211.685 344.807 211.453 344.807C211.067 344.807 210.68 344.807 210.293 344.807C209.868 344.807 209.481 344.807 209.056 344.807C208.669 344.807 208.282 344.807 207.896 344.768C207.47 344.768 207.006 344.768 206.581 344.73C206.194 344.73 205.807 344.691 205.421 344.691C204.918 344.691 204.415 344.652 203.912 344.614C203.835 344.614 203.796 344.614 203.719 344.614C203.41 344.614 203.1 344.575 202.791 344.575C202.404 344.575 202.017 344.536 201.631 344.498C200.78 344.459 199.89 344.382 199.04 344.343C198.962 344.343 198.885 344.343 198.808 344.343C198.421 344.304 198.034 344.304 197.648 344.266C197.532 344.266 197.416 344.227 197.3 344.227C197.067 344.227 196.797 344.188 196.565 344.15C195.985 344.111 195.366 344.034 194.786 343.995C194.554 343.956 194.283 343.956 194.051 343.917C193.664 343.879 193.278 343.84 192.891 343.801C191.499 343.647 190.107 343.492 188.714 343.299C188.328 343.26 187.902 343.183 187.516 343.144C187.4 343.144 187.245 343.105 187.129 343.067C187.013 343.067 186.897 343.028 186.781 343.028C186.51 342.989 186.239 342.951 185.93 342.912C185.853 342.912 185.775 342.873 185.698 342.873H185.659C185.621 342.873 185.621 342.873 185.582 342.873C184.538 342.719 183.494 342.564 182.45 342.371C182.102 342.293 181.715 342.255 181.367 342.177C181.019 342.1 180.632 342.061 180.284 341.984C179.859 341.907 179.472 341.829 179.046 341.752C178.66 341.675 178.273 341.597 177.886 341.52C175.953 341.133 174.058 340.746 172.124 340.321C170.5 339.973 168.837 339.586 167.174 339.2C166.788 339.122 166.401 339.006 166.014 338.929C165.821 338.89 165.627 338.851 165.434 338.774C163.926 321.411 172.55 304.008 188.792 295.075C189.372 294.766 189.952 294.456 190.532 294.147C191.112 293.799 191.653 293.49 192.234 293.142C214.238 281.037 241.849 289.042 253.953 311.047C258.439 319.4 260.141 328.604 259.251 337.421Z" fill="#E2810E"/>
<path d="M268.032 305.246C263.971 297.86 258.132 292.059 251.364 288.037C251.171 287.921 251.016 287.844 250.823 287.728C250.359 287.457 249.856 287.186 249.353 286.916C249.16 286.8 248.966 286.722 248.773 286.606C248.309 286.374 247.806 286.142 247.304 285.91C247.033 285.794 246.762 285.678 246.53 285.562C246.066 285.33 245.563 285.137 245.061 284.943C244.558 284.75 244.055 284.557 243.514 284.363C243.475 284.363 243.436 284.325 243.398 284.325C242.972 284.17 242.508 284.015 242.044 283.86C241.928 283.822 241.851 283.783 241.735 283.783H241.619C241.503 283.744 241.426 283.667 241.271 283.628C240.961 283.551 240.652 283.435 240.381 283.358C240.227 283.319 240.072 283.28 239.917 283.242C239.724 283.203 239.531 283.126 239.337 283.087C238.873 282.971 238.37 282.855 237.868 282.739C237.597 282.662 237.326 282.623 237.094 282.584C236.63 282.468 236.128 282.391 235.625 282.314C235.122 282.236 234.619 282.159 234.078 282.082C233.614 282.004 233.111 281.966 232.647 281.927C232.647 281.927 232.647 281.927 232.608 281.927C232.067 281.888 231.526 281.811 230.984 281.811C230.52 281.772 230.017 281.772 229.515 281.734C228.432 281.695 227.349 281.695 226.266 281.734C225.802 281.772 225.299 281.772 224.797 281.811C223.637 281.888 222.476 282.004 221.316 282.198C220.852 282.275 220.349 282.352 219.847 282.43C218.339 282.7 216.869 283.048 215.399 283.474C215.09 283.551 214.819 283.667 214.51 283.744C214.471 283.744 214.471 283.744 214.433 283.783C214.394 283.783 214.355 283.822 214.317 283.822C211.571 284.711 208.825 285.871 206.196 287.302C206.196 287.302 206.157 287.302 206.157 287.341C205.693 287.612 205.19 287.882 204.726 288.153C204.649 288.192 204.571 288.269 204.455 288.308C200.202 290.86 196.528 294.031 193.473 297.628C193.395 297.744 193.279 297.86 193.202 297.976C189.721 302.114 187.053 306.831 185.274 311.859C185.274 311.859 185.274 311.859 185.274 311.897C185.236 312.013 185.197 312.129 185.158 312.245C184.578 313.947 184.075 315.649 183.689 317.389V317.505C183.07 320.367 182.683 323.151 182.645 326.09C182.529 330.576 183.07 335.1 184.346 339.509C184.423 339.78 184.501 340.05 184.578 340.321C184.849 341.172 185.12 342.023 185.429 342.873C185.506 342.873 185.584 342.912 185.661 342.912C185.932 342.951 186.202 342.989 186.512 343.028C186.628 343.028 186.744 343.067 186.86 343.067C186.976 343.105 187.13 343.105 187.247 343.144C187.633 343.221 188.059 343.26 188.445 343.299C189.838 343.492 191.23 343.647 192.622 343.802C193.009 343.84 193.395 343.879 193.782 343.918C194.014 343.956 194.285 343.956 194.517 343.995C195.097 344.072 195.716 344.111 196.296 344.15C196.528 344.188 196.798 344.188 197.03 344.227C197.146 344.227 197.262 344.266 197.378 344.266C197.765 344.304 198.152 344.343 198.539 344.343C198.616 344.343 198.693 344.343 198.771 344.343C199.621 344.42 200.511 344.459 201.362 344.498C201.748 344.536 202.135 344.536 202.522 344.575C202.831 344.614 203.141 344.614 203.45 344.614C203.527 344.614 203.566 344.614 203.643 344.614C204.146 344.652 204.649 344.652 205.151 344.691C205.538 344.691 205.925 344.73 206.312 344.73C206.737 344.73 207.201 344.768 207.626 344.768C208.013 344.768 208.4 344.768 208.787 344.807C209.212 344.807 209.599 344.807 210.024 344.807C210.411 344.807 210.798 344.807 211.184 344.807C211.416 344.807 211.61 344.807 211.842 344.807C212.074 344.807 212.306 344.807 212.538 344.807C212.692 344.807 212.847 344.807 213.002 344.807C213.157 344.807 213.311 344.807 213.466 344.807C213.698 344.807 213.891 344.807 214.123 344.807C214.162 344.807 214.239 344.807 214.278 344.807C214.394 344.807 214.51 344.807 214.626 344.807C214.781 344.807 214.935 344.807 215.09 344.807C218.145 344.73 221.162 344.575 224.178 344.304C227.62 344.034 231.062 343.608 234.426 343.105C238.1 342.564 241.696 341.907 245.254 341.095C245.331 341.095 245.37 341.056 245.447 341.056V341.095L248.812 340.282C249.276 340.166 249.74 340.05 250.204 339.934C254.613 338.813 258.944 337.537 263.159 336.029C263.855 335.797 264.59 335.526 265.286 335.294C265.479 335.216 265.634 335.178 265.827 335.1C267.142 334.636 268.457 334.134 269.733 333.592C270.081 333.438 270.429 333.322 270.777 333.167C270.855 333.128 270.932 333.128 271.009 333.09C271.435 332.935 271.821 332.741 272.247 332.587C272.556 332.471 272.866 332.316 273.175 332.2C273.214 331.852 273.252 331.543 273.291 331.195C274.258 322.493 272.556 313.483 268.032 305.246Z" fill="#E2810E"/>
<path d="M264.551 307.179C261.186 301.069 256.662 296.081 251.364 292.252C251.17 292.136 251.016 291.981 250.822 291.865C250.358 291.517 249.856 291.208 249.392 290.899C249.198 290.783 249.005 290.666 248.811 290.55C248.347 290.241 247.845 289.97 247.342 289.7C247.071 289.545 246.801 289.39 246.569 289.274C246.104 289.004 245.602 288.772 245.099 288.501C244.596 288.23 244.094 287.998 243.552 287.766C243.088 287.534 242.585 287.341 242.083 287.147C241.928 287.07 241.735 286.993 241.541 286.915C241.154 286.761 240.806 286.645 240.42 286.49C240.11 286.374 239.801 286.258 239.453 286.142C239.298 286.103 239.105 286.026 238.95 285.987C237.867 285.639 236.823 285.33 235.702 285.059C235.238 284.943 234.735 284.827 234.232 284.711C233.188 284.479 232.105 284.286 231.023 284.131C230.945 284.131 230.829 284.092 230.752 284.092C230.288 284.015 229.785 283.976 229.282 283.899C229.089 283.86 228.896 283.86 228.702 283.86H228.548C228.509 283.86 228.509 283.86 228.431 283.822C227.813 283.744 227.117 283.706 226.498 283.706C225.995 283.667 225.531 283.667 225.028 283.667C223.868 283.667 222.708 283.706 221.548 283.783C221.355 283.783 221.2 283.822 221.007 283.822H220.929C220.891 283.822 220.891 283.822 220.852 283.86H220.465C218.918 284.015 217.449 284.247 215.902 284.556C215.399 284.634 214.935 284.75 214.432 284.866C211.687 285.523 208.98 286.413 206.311 287.573C205.809 287.805 205.345 287.998 204.842 288.269C204.764 288.308 204.687 288.346 204.571 288.385C203.952 288.694 203.372 289.004 202.792 289.313C198.616 291.595 194.981 294.456 191.848 297.705C191.771 297.782 191.693 297.859 191.616 297.937C191.577 297.975 191.577 297.975 191.539 298.014C187.71 302.113 184.733 306.831 182.644 311.897C182.644 311.897 182.644 311.897 182.644 311.936C180.788 316.46 179.705 321.256 179.357 326.128C179.202 328.371 179.241 330.653 179.435 332.935C179.628 335.41 180.053 337.885 180.672 340.36C180.827 340.978 180.981 341.597 181.175 342.216C181.561 342.293 181.909 342.332 182.258 342.409C183.302 342.603 184.346 342.757 185.39 342.912C185.429 342.912 185.429 342.912 185.467 342.912H185.506C185.583 342.912 185.661 342.951 185.738 342.951C186.009 342.989 186.279 343.028 186.589 343.067C186.705 343.067 186.821 343.105 186.937 343.105C187.053 343.144 187.208 343.144 187.324 343.183C187.71 343.26 188.136 343.299 188.522 343.337C189.915 343.531 191.307 343.685 192.699 343.84C193.086 343.879 193.472 343.917 193.859 343.956C194.091 343.995 194.362 343.995 194.594 344.033C195.174 344.111 195.793 344.149 196.373 344.188C196.605 344.227 196.875 344.227 197.107 344.265C197.223 344.265 197.339 344.304 197.456 344.304C197.842 344.343 198.229 344.381 198.616 344.381C198.693 344.381 198.77 344.381 198.848 344.381C199.698 344.459 200.588 344.497 201.439 344.536C201.825 344.575 202.212 344.575 202.599 344.613C202.908 344.652 203.218 344.652 203.527 344.652C203.604 344.652 203.643 344.652 203.72 344.652C204.223 344.691 204.726 344.691 205.228 344.729C205.615 344.729 206.002 344.768 206.389 344.768C206.814 344.768 207.278 344.807 207.703 344.807C208.09 344.807 208.477 344.807 208.864 344.846C209.289 344.846 209.676 344.846 210.101 344.846C210.488 344.846 210.875 344.846 211.261 344.846C211.493 344.846 211.687 344.846 211.919 344.846C212.151 344.846 212.383 344.846 212.615 344.846C212.769 344.846 212.924 344.846 213.079 344.846C213.234 344.846 213.388 344.846 213.543 344.846C213.775 344.846 213.968 344.846 214.2 344.846C214.239 344.846 214.316 344.846 214.355 344.846C214.471 344.846 214.587 344.846 214.703 344.846C214.858 344.846 215.012 344.846 215.167 344.846C218.222 344.768 221.239 344.613 224.255 344.343C227.697 344.072 231.139 343.647 234.503 343.144C238.177 342.603 241.773 341.945 245.331 341.133C245.408 341.133 245.447 341.094 245.524 341.094V341.133L248.889 340.321C249.353 340.205 249.817 340.089 250.281 339.973C254.69 338.851 259.021 337.575 263.236 336.067C263.932 335.835 264.667 335.564 265.363 335.332C265.556 335.255 265.711 335.216 265.904 335.139C267.219 334.675 268.534 334.172 269.81 333.631C270.854 324.736 269.153 315.571 264.551 307.179Z" fill="#FFB93E"/>
<path d="M261.263 309.577C258.479 304.55 254.805 300.334 250.551 296.97C250.164 296.661 249.739 296.351 249.352 296.042C249.159 295.887 248.965 295.771 248.772 295.655C248.308 295.307 247.805 294.998 247.302 294.688C247.032 294.534 246.761 294.34 246.529 294.186C246.065 293.876 245.562 293.606 245.059 293.335C244.557 293.064 244.054 292.793 243.513 292.523C243.049 292.291 242.546 292.059 242.043 291.827C241.502 291.595 240.96 291.363 240.419 291.131C239.955 290.937 239.452 290.744 238.949 290.589C238.911 290.55 238.833 290.55 238.795 290.55C238.099 290.318 237.364 290.086 236.668 289.854C236.358 289.777 236.049 289.661 235.74 289.584C235.276 289.468 234.773 289.313 234.27 289.236C233.11 288.965 231.95 288.772 230.79 288.578C230.326 288.501 229.823 288.462 229.32 288.385C229.165 288.385 229.011 288.346 228.895 288.346C228.585 288.308 228.276 288.308 227.967 288.269C226.922 288.192 225.917 288.153 224.873 288.153C224.37 288.153 223.906 288.153 223.403 288.192C220.851 288.269 218.337 288.617 215.824 289.158C215.321 289.274 214.857 289.39 214.354 289.506C211.608 290.241 208.863 291.247 206.233 292.6C205.808 292.832 205.382 293.064 204.957 293.296C204.918 293.335 204.841 293.374 204.802 293.374C202.559 294.611 200.432 296.081 198.499 297.666C198.383 297.782 198.228 297.898 198.112 297.975C197.687 298.323 197.261 298.71 196.875 299.097C196.372 299.561 195.908 300.025 195.405 300.489C192.157 303.776 189.488 307.605 187.516 311.859C187.516 311.859 187.516 311.859 187.516 311.897C187.477 311.936 187.477 311.975 187.477 312.013C186.588 313.87 185.853 315.842 185.273 317.853V317.93C185.234 317.969 185.234 317.969 185.196 318.046C184.538 320.212 184.036 322.571 183.804 324.775C183.765 325.123 183.726 325.471 183.688 325.819C183.572 326.979 183.533 328.178 183.533 329.338C183.533 332.819 183.958 336.26 184.848 339.625C184.886 339.78 184.925 339.896 184.964 340.05C185.196 340.94 185.466 341.79 185.737 342.641C186.008 342.68 186.279 342.719 186.588 342.757C186.704 342.757 186.82 342.796 186.936 342.796C187.052 342.835 187.207 342.835 187.323 342.873C187.709 342.951 188.135 342.989 188.521 343.028C188.367 342.641 188.212 342.216 188.096 341.829C187.903 341.249 187.709 340.669 187.516 340.05C187.361 339.47 187.207 339.006 187.052 338.426V338.271C186.085 334.211 185.776 330.034 186.163 325.819C186.395 323.344 186.859 320.869 187.555 318.433C187.864 317.427 188.173 316.422 188.56 315.416C189.063 314.102 189.604 312.825 190.262 311.588C190.262 311.588 190.262 311.588 190.262 311.549C191.654 308.765 193.394 306.174 195.405 303.854C195.869 303.312 196.372 302.771 196.875 302.268C198.46 300.605 200.239 299.058 202.134 297.705C202.289 297.589 202.443 297.473 202.598 297.395H202.637C203.371 296.893 204.067 296.39 204.841 295.965C205.266 295.694 205.73 295.423 206.194 295.191C206.233 295.152 206.272 295.152 206.31 295.152C208.94 293.722 211.647 292.6 214.432 291.827C214.896 291.672 215.398 291.556 215.901 291.44C218.415 290.821 220.967 290.512 223.519 290.396C223.983 290.396 224.486 290.357 224.95 290.357C225.376 290.357 225.84 290.357 226.265 290.396C226.729 290.396 227.154 290.434 227.619 290.473C228.199 290.512 228.817 290.55 229.397 290.628C229.9 290.667 230.364 290.744 230.828 290.821C231.988 291.015 233.149 291.247 234.309 291.517C234.579 291.595 234.85 291.672 235.16 291.749C235.353 291.788 235.585 291.865 235.778 291.943C236.281 292.097 236.822 292.252 237.325 292.407C237.905 292.6 238.447 292.793 239.027 293.025C239.529 293.219 239.993 293.412 240.496 293.606C241.038 293.838 241.579 294.108 242.12 294.379C242.623 294.611 243.087 294.882 243.59 295.114C244.093 295.384 244.634 295.694 245.137 296.003C245.64 296.313 246.104 296.622 246.606 296.931C246.877 297.125 247.148 297.279 247.38 297.473C247.534 297.589 247.728 297.705 247.883 297.821C252.407 301.069 256.274 305.362 259.136 310.544C263.429 318.355 264.898 327.173 263.429 335.796C264.125 335.564 264.859 335.294 265.555 335.062C265.749 334.984 265.904 334.946 266.097 334.868C267.257 326.36 265.633 317.466 261.263 309.577Z" fill="#FFA412"/>
<path d="M223.83 343.724C223.056 342.95 222.399 341.829 221.819 340.437L214.355 343.453C214.355 343.879 214.355 344.343 214.394 344.768C214.432 344.768 214.51 344.768 214.548 344.768C214.664 344.768 214.78 344.768 214.896 344.768C215.051 344.768 215.206 344.768 215.36 344.768C218.415 344.691 221.432 344.536 224.448 344.265C224.216 344.111 224.023 343.917 223.83 343.724ZM223.83 343.724C223.056 342.95 222.399 341.829 221.819 340.437L214.355 343.453C214.355 343.879 214.355 344.343 214.394 344.768C214.432 344.768 214.51 344.768 214.548 344.768C214.664 344.768 214.78 344.768 214.896 344.768C215.051 344.768 215.206 344.768 215.36 344.768C218.415 344.691 221.432 344.536 224.448 344.265C224.216 344.111 224.023 343.917 223.83 343.724ZM223.83 343.724C223.056 342.95 222.399 341.829 221.819 340.437L214.355 343.453C214.355 343.879 214.355 344.343 214.394 344.768C214.432 344.768 214.51 344.768 214.548 344.768C214.664 344.768 214.78 344.768 214.896 344.768C215.051 344.768 215.206 344.768 215.36 344.768C218.415 344.691 221.432 344.536 224.448 344.265C224.216 344.111 224.023 343.917 223.83 343.724ZM223.83 343.724C223.056 342.95 222.399 341.829 221.819 340.437L214.355 343.453C214.355 343.879 214.355 344.343 214.394 344.768C214.432 344.768 214.51 344.768 214.548 344.768C214.664 344.768 214.78 344.768 214.896 344.768C215.051 344.768 215.206 344.768 215.36 344.768C218.415 344.691 221.432 344.536 224.448 344.265C224.216 344.111 224.023 343.917 223.83 343.724ZM223.83 343.724C223.056 342.95 222.399 341.829 221.819 340.437L214.355 343.453C214.355 343.879 214.355 344.343 214.394 344.768C214.432 344.768 214.51 344.768 214.548 344.768C214.664 344.768 214.78 344.768 214.896 344.768C215.051 344.768 215.206 344.768 215.36 344.768C218.415 344.691 221.432 344.536 224.448 344.265C224.216 344.111 224.023 343.917 223.83 343.724ZM223.83 343.724C223.056 342.95 222.399 341.829 221.819 340.437L214.355 343.453C214.355 343.879 214.355 344.343 214.394 344.768C214.432 344.768 214.51 344.768 214.548 344.768C214.664 344.768 214.78 344.768 214.896 344.768C215.051 344.768 215.206 344.768 215.36 344.768C218.415 344.691 221.432 344.536 224.448 344.265C224.216 344.111 224.023 343.917 223.83 343.724ZM245.718 335.68C245.563 334.984 245.331 334.249 245.022 333.553C244.79 332.973 244.519 332.432 244.248 331.929C244.016 331.465 243.745 331.04 243.436 330.653C243.397 330.614 243.397 330.576 243.359 330.576C242.933 329.995 242.469 329.454 241.967 328.99C241.502 328.565 241 328.178 240.458 327.791C239.994 327.482 239.53 327.211 238.989 326.979C238.563 326.786 238.099 326.592 237.635 326.438C237.558 326.399 237.442 326.36 237.365 326.36C237.21 326.322 237.094 326.283 236.939 326.206C236.901 326.206 236.823 326.167 236.785 326.167C235.431 325.78 233.923 325.51 232.337 325.432C232.26 325.432 232.221 325.432 232.144 325.432C231.719 325.394 231.293 325.394 230.868 325.355C229.205 325.278 227.426 325.278 225.531 325.316C224.719 325.355 223.984 325.355 223.288 325.316C222.747 325.316 222.283 325.278 221.819 325.239C221.78 325.239 221.78 325.239 221.741 325.239C220.697 325.162 219.808 324.968 219.073 324.659C218.338 324.349 217.758 323.963 217.294 323.46C216.83 322.957 216.443 322.338 216.173 321.604C216.134 321.526 216.095 321.449 216.095 321.372C215.863 320.714 215.708 320.057 215.67 319.399C215.631 319.013 215.67 318.665 215.747 318.278C215.786 317.969 215.902 317.659 216.018 317.35C216.289 316.692 216.714 316.112 217.294 315.571C217.603 315.262 217.99 314.991 218.377 314.759C218.725 314.527 219.15 314.333 219.614 314.14C220.388 313.831 221.122 313.637 221.857 313.637C222.36 313.599 222.824 313.637 223.327 313.753C223.752 313.831 224.178 313.985 224.564 314.179C226.111 314.914 227.349 316.499 228.315 318.897L230.906 317.853L232.376 317.273L236.823 315.455L237.597 315.146C237.365 314.566 237.094 313.985 236.823 313.483V313.251C236.553 312.748 236.282 312.4 235.972 311.936C235.972 311.936 235.972 311.936 235.972 311.897C235.895 311.781 235.818 311.626 235.702 311.51C235.354 310.969 234.967 310.466 234.542 310.002C234.426 309.848 234.31 309.732 234.155 309.616C233.691 309.151 233.227 308.687 232.685 308.301C232.144 307.875 231.603 307.527 231.061 307.218C230.868 307.102 230.636 306.986 230.442 306.87C230.172 306.754 229.901 306.599 229.63 306.522C228.973 306.251 228.277 306.058 227.542 305.864C227.155 305.787 226.769 305.71 226.382 305.671C226.072 305.632 225.763 305.594 225.454 305.594C225.338 305.594 225.222 305.594 225.106 305.594C225.028 305.594 224.951 305.594 224.912 305.594C223.791 305.555 222.631 305.632 221.432 305.826C220.968 305.903 220.465 306.019 219.962 306.135C219.924 306.135 219.885 306.174 219.846 306.174L219.537 305.4L218.067 301.765L217.217 299.716L215.515 300.412L214.046 300.992L212.073 301.804L214.046 306.638L214.2 306.986L214.664 308.185C214.471 308.301 214.239 308.417 214.046 308.533C213.388 308.881 212.769 309.267 212.228 309.654C211.416 310.234 210.642 310.853 209.985 311.51C209.83 311.665 209.714 311.781 209.56 311.936C209.56 311.936 209.56 311.936 209.521 311.974C208.438 313.135 207.587 314.333 207.007 315.648C206.698 316.306 206.466 317.002 206.273 317.698C206.041 318.549 205.925 319.438 205.925 320.328C205.886 321.952 206.234 323.615 206.891 325.316C207.007 325.626 207.162 325.896 207.278 326.206C207.626 326.902 207.974 327.559 208.4 328.139C208.516 328.294 208.632 328.449 208.748 328.603C209.096 329.029 209.444 329.415 209.792 329.802L209.908 329.918C210.333 330.305 210.836 330.692 211.3 331.001C211.764 331.31 212.228 331.581 212.769 331.852C213.233 332.084 213.736 332.277 214.239 332.47C215.322 332.857 216.521 333.128 217.758 333.283C218.377 333.36 219.073 333.437 219.73 333.476C219.924 333.476 220.117 333.515 220.349 333.515C220.813 333.553 221.316 333.553 221.819 333.553C223.211 333.592 224.719 333.553 226.266 333.476C226.305 333.476 226.343 333.476 226.382 333.476C226.846 333.437 227.271 333.437 227.697 333.437C228.547 333.437 229.282 333.437 229.978 333.515C230.404 333.553 230.79 333.592 231.177 333.669C231.719 333.785 232.183 333.901 232.647 334.095C233.381 334.404 234 334.829 234.503 335.371C235.006 335.912 235.392 336.608 235.74 337.42C235.779 337.498 235.818 337.536 235.856 337.614V337.768C236.088 338.387 236.166 339.006 236.166 339.625C236.166 339.895 236.127 340.205 236.088 340.476C236.011 340.901 235.856 341.326 235.663 341.713C235.392 342.216 235.044 342.718 234.58 343.183C238.254 342.641 241.851 341.984 245.408 341.172C245.486 341.172 245.524 341.133 245.602 341.133C245.679 340.901 245.718 340.63 245.756 340.398C245.872 339.857 245.911 339.277 245.95 338.697C246.066 337.652 245.95 336.647 245.718 335.68ZM223.83 343.724C223.056 342.95 222.399 341.829 221.819 340.437L214.355 343.453C214.355 343.879 214.355 344.343 214.394 344.768C214.432 344.768 214.51 344.768 214.548 344.768C214.664 344.768 214.78 344.768 214.896 344.768C215.051 344.768 215.206 344.768 215.36 344.768C218.415 344.691 221.432 344.536 224.448 344.265C224.216 344.111 224.023 343.917 223.83 343.724ZM223.83 343.724C223.056 342.95 222.399 341.829 221.819 340.437L214.355 343.453C214.355 343.879 214.355 344.343 214.394 344.768C214.432 344.768 214.51 344.768 214.548 344.768C214.664 344.768 214.78 344.768 214.896 344.768C215.051 344.768 215.206 344.768 215.36 344.768C218.415 344.691 221.432 344.536 224.448 344.265C224.216 344.111 224.023 343.917 223.83 343.724ZM223.83 343.724C223.056 342.95 222.399 341.829 221.819 340.437L214.355 343.453C214.355 343.879 214.355 344.343 214.394 344.768C214.432 344.768 214.51 344.768 214.548 344.768C214.664 344.768 214.78 344.768 214.896 344.768C215.051 344.768 215.206 344.768 215.36 344.768C218.415 344.691 221.432 344.536 224.448 344.265C224.216 344.111 224.023 343.917 223.83 343.724ZM223.83 343.724C223.056 342.95 222.399 341.829 221.819 340.437L214.355 343.453C214.355 343.879 214.355 344.343 214.394 344.768C214.432 344.768 214.51 344.768 214.548 344.768C214.664 344.768 214.78 344.768 214.896 344.768C215.051 344.768 215.206 344.768 215.36 344.768C218.415 344.691 221.432 344.536 224.448 344.265C224.216 344.111 224.023 343.917 223.83 343.724ZM223.83 343.724C223.056 342.95 222.399 341.829 221.819 340.437L214.355 343.453C214.355 343.879 214.355 344.343 214.394 344.768C214.432 344.768 214.51 344.768 214.548 344.768C214.664 344.768 214.78 344.768 214.896 344.768C215.051 344.768 215.206 344.768 215.36 344.768C218.415 344.691 221.432 344.536 224.448 344.265C224.216 344.111 224.023 343.917 223.83 343.724ZM223.83 343.724C223.056 342.95 222.399 341.829 221.819 340.437L214.355 343.453C214.355 343.879 214.355 344.343 214.394 344.768C214.432 344.768 214.51 344.768 214.548 344.768C214.664 344.768 214.78 344.768 214.896 344.768C215.051 344.768 215.206 344.768 215.36 344.768C218.415 344.691 221.432 344.536 224.448 344.265C224.216 344.111 224.023 343.917 223.83 343.724ZM223.83 343.724C223.056 342.95 222.399 341.829 221.819 340.437L214.355 343.453L212.537 344.188C212.615 344.381 212.692 344.613 212.808 344.807C212.963 344.807 213.117 344.807 213.272 344.807C213.427 344.807 213.582 344.807 213.736 344.807C213.968 344.807 214.162 344.807 214.394 344.807C214.432 344.807 214.51 344.807 214.548 344.807C214.664 344.807 214.78 344.807 214.896 344.807C215.051 344.807 215.206 344.807 215.36 344.807C218.415 344.729 221.432 344.575 224.448 344.304C224.216 344.111 224.023 343.917 223.83 343.724Z" fill="#FFA412"/>
</svg>
