<svg width="28" height="29" viewBox="0 0 28 29" fill="none" xmlns="http://www.w3.org/2000/svg">
<g clip-path="url(#clip0_609_1314)">
<path d="M26.9932 12.2576C26.7262 12.2576 26.4701 12.3636 26.2812 12.5524C26.0924 12.7413 25.9863 12.9974 25.9863 13.2644V22.3259C25.9863 23.5168 25.5132 24.659 24.6711 25.5011C23.829 26.3432 22.6868 26.8163 21.4959 26.8163H6.5142C5.32233 26.8163 4.17913 26.3436 3.33541 25.5017C2.49168 24.6599 2.01633 23.5178 2.01366 22.3259V7.31401C2.01632 6.12121 2.49134 4.97804 3.33478 4.1346C4.17822 3.29116 5.3214 2.81613 6.5142 2.81347H11.3571C11.6241 2.81347 11.8802 2.70741 12.069 2.51859C12.2578 2.32977 12.3639 2.07367 12.3639 1.80664C12.3639 1.53961 12.2578 1.28353 12.069 1.09471C11.8802 0.905896 11.6241 0.799805 11.3571 0.799805H6.5142C4.78653 0.799805 3.12962 1.48612 1.90797 2.70777C0.686316 3.92942 0 5.58634 0 7.31401V22.2957C0.00266759 24.0216 0.69017 25.6759 1.91153 26.8954C3.13289 28.1149 4.78827 28.7998 6.5142 28.7998H21.4959C23.2201 28.7971 24.8729 28.111 26.092 26.8918C27.3112 25.6727 27.9974 24.0199 28 22.2957V13.2342C27.9922 12.9724 27.8826 12.724 27.6946 12.5417C27.5067 12.3593 27.2551 12.2574 26.9932 12.2576Z" fill="#001E32"/>
<path d="M27.1844 5.14933C27.4868 4.74613 27.6711 4.26682 27.7168 3.7649C27.7626 3.26298 27.6679 2.75822 27.4433 2.30701C27.2188 1.85581 26.8732 1.47591 26.4452 1.20975C26.0172 0.943597 25.5237 0.801669 25.0197 0.799805C24.2987 0.799805 23.6072 1.0862 23.0974 1.59601C22.5876 2.10582 22.3012 2.79729 22.3012 3.51826C22.299 4.10681 22.49 4.67981 22.8449 5.14933C22.4322 5.5755 22.1541 6.11377 22.0453 6.697C21.9366 7.28023 22.002 7.88259 22.2334 8.42887C22.4648 8.97516 22.852 9.44121 23.3466 9.76884C23.8412 10.0965 24.4213 10.2712 25.0146 10.2712C25.6079 10.2712 26.1881 10.0965 26.6827 9.76884C27.1773 9.44121 27.5645 8.97516 27.7959 8.42887C28.0273 7.88259 28.0927 7.28023 27.984 6.697C27.8752 6.11377 27.5971 5.5755 27.1844 5.14933ZM25.0197 2.81347C25.1591 2.81347 25.2953 2.85481 25.4112 2.93226C25.5271 3.0097 25.6175 3.11977 25.6708 3.24855C25.7241 3.37733 25.7381 3.51905 25.7109 3.65576C25.6837 3.79248 25.6166 3.91804 25.518 4.01661C25.4195 4.11518 25.2939 4.18231 25.1572 4.20951C25.0205 4.2367 24.8787 4.22272 24.75 4.16938C24.6212 4.11604 24.5111 4.02571 24.4337 3.90981C24.3562 3.79391 24.3149 3.65766 24.3149 3.51826C24.3135 3.42534 24.3308 3.33307 24.3658 3.24695C24.4007 3.16083 24.4526 3.08259 24.5183 3.01688C24.584 2.95116 24.6622 2.89929 24.7484 2.86435C24.8345 2.82941 24.9267 2.81211 25.0197 2.81347ZM25.0197 8.1799C24.8205 8.1799 24.6259 8.12083 24.4603 8.0102C24.2947 7.89957 24.1657 7.74232 24.0895 7.55834C24.0133 7.37437 23.9933 7.17194 24.0322 6.97664C24.071 6.78133 24.1669 6.60192 24.3077 6.46112C24.4485 6.32031 24.6279 6.22441 24.8233 6.18556C25.0186 6.14672 25.221 6.16666 25.405 6.24287C25.5889 6.31907 25.7462 6.44813 25.8568 6.6137C25.9674 6.77927 26.0265 6.97394 26.0265 7.17307C26.0265 7.4401 25.9204 7.69617 25.7316 7.88499C25.5428 8.07381 25.2867 8.1799 25.0197 8.1799Z" fill="#64CEB8"/>
<path d="M20.61 4.12245C19.4119 5.70317 17.217 9.53922 17.1868 9.57949C17.1238 9.69981 17.0372 9.80615 16.9321 9.89213C16.827 9.9781 16.7056 10.0419 16.5752 10.0798C16.4447 10.1176 16.308 10.1287 16.1732 10.1123C16.0384 10.0959 15.9083 10.0524 15.7908 9.98449C15.6732 9.91653 15.5706 9.8255 15.4891 9.71686C15.4077 9.60823 15.349 9.48422 15.3167 9.35233C15.2844 9.22044 15.2791 9.08338 15.3011 8.94939C15.3232 8.8154 15.3721 8.68725 15.445 8.57266C15.5356 8.41156 17.7305 4.59566 18.9991 2.90419C19.0015 2.87739 19.0015 2.85045 18.9991 2.82365H15.7168C15.4498 2.82365 15.1937 2.71756 15.0049 2.52874C14.816 2.33993 14.71 2.08385 14.71 1.81682C14.71 1.54979 14.816 1.29369 15.0049 1.10487C15.1937 0.91605 15.4498 0.80999 15.7168 0.80999H18.9084C19.3036 0.78556 19.6973 0.878183 20.0401 1.07626C20.3829 1.27434 20.6597 1.56909 20.836 1.92366C21.0122 2.27822 21.0799 2.67686 21.0308 3.06974C20.9816 3.46262 20.8178 3.83228 20.5597 4.13252L20.61 4.12245Z" fill="#64CEB8"/>
<path d="M18.1836 24.4C17.3522 24.4027 16.5536 24.0757 15.9629 23.4906C15.3722 22.9056 15.0375 22.1102 15.0322 21.2788V12.4388C15.0322 12.1718 15.1383 11.9157 15.3271 11.7269C15.5159 11.5381 15.772 11.432 16.039 11.432C16.306 11.432 16.5621 11.5381 16.751 11.7269C16.9398 11.9157 17.0459 12.1718 17.0459 12.4388V16.6575H18.244C18.511 16.6575 18.7671 16.7635 18.9559 16.9524C19.1447 17.1412 19.2508 17.3973 19.2508 17.6643C19.2508 17.9313 19.1447 18.1874 18.9559 18.3762C18.7671 18.5651 18.511 18.6711 18.244 18.6711H17.0459V21.2788C17.0562 21.5745 17.1803 21.8547 17.3923 22.061C17.6043 22.2674 17.8878 22.3839 18.1836 22.3863C18.4506 22.3863 18.7067 22.4924 18.8955 22.6812C19.0843 22.8701 19.1904 23.1261 19.1904 23.3932C19.1904 23.6602 19.0843 23.9163 18.8955 24.1051C18.7067 24.2939 18.4506 24.4 18.1836 24.4ZM5.46728 24.4C5.20025 24.4 4.94416 24.2939 4.75534 24.1051C4.56653 23.9163 4.46045 23.6602 4.46045 23.3932V15.6707C4.46311 14.5313 4.91691 13.4394 5.72258 12.6337C6.52826 11.828 7.62023 11.3742 8.75963 11.3716C9.93188 11.3716 11.0561 11.8373 11.885 12.6662C12.7139 13.4951 13.1796 14.6193 13.1796 15.7916C13.1796 16.9638 12.7139 18.0881 11.885 18.917C11.0561 19.7459 9.93188 20.2116 8.75963 20.2116H6.49425V23.3932C6.49428 23.5271 6.46759 23.6597 6.41573 23.7832C6.36388 23.9067 6.2879 24.0185 6.19226 24.1123C6.09663 24.2061 5.98325 24.2798 5.85876 24.3292C5.73427 24.3786 5.60119 24.4027 5.46728 24.4ZM6.47411 18.1979H8.73949C9.05549 18.1979 9.3684 18.1357 9.66035 18.0147C9.9523 17.8938 10.2176 17.7166 10.441 17.4931C10.6645 17.2697 10.8417 17.0044 10.9626 16.7125C11.0836 16.4205 11.1458 16.1076 11.1458 15.7916C11.1458 15.4756 11.0836 15.1627 10.9626 14.8707C10.8417 14.5788 10.6645 14.3135 10.441 14.09C10.2176 13.8666 9.9523 13.6893 9.66035 13.5684C9.3684 13.4475 9.05549 13.3852 8.73949 13.3852C8.13333 13.3852 7.552 13.626 7.12339 14.0546C6.69477 14.4833 6.45397 15.0646 6.45397 15.6707L6.47411 18.1979Z" fill="#64CEB8"/>
</g>
<defs>
<clipPath id="clip0_609_1314">
<rect width="28" height="28" fill="white" transform="translate(0 0.799805)"/>
</clipPath>
</defs>
</svg>
