<svg width="24" height="24" viewBox="0 0 24 24" fill="none" xmlns="http://www.w3.org/2000/svg">
<path fill-rule="evenodd" clip-rule="evenodd" d="M1.93752 6.12967C1.81951 6.04132 1.67788 5.99009 1.53066 5.98252C1.38344 5.97494 1.2373 6.01136 1.11084 6.08713C0.984395 6.16291 0.883362 6.27461 0.820617 6.408C0.757871 6.5414 0.736254 6.69045 0.758517 6.83617C0.795373 7.07559 0.832226 7.31501 0.869078 7.55443L0.869365 7.55629C0.993301 8.36147 1.11722 9.16665 1.24112 9.97182C1.27796 10.2113 1.3148 10.4507 1.35164 10.6901C1.61026 12.371 1.8688 14.0518 2.12727 15.7327L21.8703 15.7297C22.1287 14.0488 22.3873 12.368 22.6459 10.6871C22.6827 10.4477 22.7196 10.2083 22.7564 9.96882C22.8803 9.16365 23.0042 8.35847 23.1282 7.55329L23.1285 7.55143C23.1653 7.31201 23.2022 7.07259 23.239 6.83317C23.2613 6.68745 23.2397 6.5384 23.1769 6.405C23.1142 6.27161 23.0131 6.15991 22.8867 6.08413C22.7602 6.00836 22.6141 5.97194 22.4669 5.97952C22.3197 5.98709 22.178 6.03832 22.06 6.12667L17.7955 9.32467C17.6847 9.40782 17.5581 9.46748 17.4234 9.50002C17.2888 9.53255 17.1489 9.53728 17.0124 9.5139C16.8758 9.49052 16.7455 9.43953 16.6293 9.36406C16.5132 9.28858 16.4136 9.19019 16.3368 9.07492L12.7863 3.74992C12.6997 3.62045 12.5826 3.51431 12.4452 3.44091C12.3078 3.3675 12.1545 3.3291 11.9988 3.3291C11.843 3.3291 11.6897 3.3675 11.5523 3.44091C11.415 3.51431 11.2978 3.62045 11.2113 3.74992L7.66077 9.07792C7.58393 9.19319 7.48438 9.29158 7.36822 9.36705C7.25206 9.44253 7.12171 9.49352 6.98517 9.5169C6.84862 9.54028 6.70874 9.53555 6.57409 9.50302C6.43943 9.47048 6.31283 9.41082 6.20202 9.32767L1.93752 6.12967Z" fill="url(#paint0_linear_313_1246)"/>
<path fill-rule="evenodd" clip-rule="evenodd" d="M2.12695 17.3779V19.6392C2.12695 19.9123 2.23544 20.1742 2.42856 20.3673C2.62168 20.5604 2.8836 20.6689 3.1567 20.6689H20.8417C20.9769 20.6689 21.1108 20.6423 21.2358 20.5905C21.3607 20.5388 21.4742 20.4629 21.5698 20.3673C21.6655 20.2717 21.7413 20.1582 21.7931 20.0332C21.8448 19.9083 21.8715 19.7744 21.8715 19.6392V17.3779H2.12695Z" fill="url(#paint1_linear_313_1246)"/>
<defs>
<linearGradient id="paint0_linear_313_1246" x1="0.75" y1="9.53089" x2="23.227" y2="8.71552" gradientUnits="userSpaceOnUse">
<stop stop-color="#1A99A6"/>
<stop offset="1" stop-color="#1A99A6" stop-opacity="0.5"/>
</linearGradient>
<linearGradient id="paint1_linear_313_1246" x1="2.12695" y1="19.0234" x2="21.599" y2="16.687" gradientUnits="userSpaceOnUse">
<stop stop-color="#1A99A6"/>
<stop offset="1" stop-color="#1A99A6" stop-opacity="0.5"/>
</linearGradient>
</defs>
</svg>
