<svg width="28" height="28" viewBox="0 0 28 28" fill="none" xmlns="http://www.w3.org/2000/svg">
<g clip-path="url(#clip0_609_1278)">
<path d="M24.0159 21.2602H23.9471C20.6457 20.7117 17.4213 19.7721 14.3421 18.4612C14.2782 18.4307 14.2225 18.3854 14.1798 18.329C14.1371 18.2726 14.1085 18.2068 14.0965 18.1371C14.0824 18.0661 14.0867 17.9928 14.1091 17.924C14.1314 17.8552 14.1711 17.7933 14.2242 17.7442L17.1705 14.9354C17.2279 14.8797 17.2996 14.8411 17.3776 14.8238C17.4557 14.8064 17.5369 14.8111 17.6125 14.8372L17.7794 14.8863C19.9401 15.6327 22.3856 16.4773 23.3087 16.4184C23.4044 16.413 23.4992 16.4388 23.5789 16.4919C23.6586 16.545 23.7189 16.6226 23.7507 16.713C24.1122 18.0434 24.3489 19.4046 24.4578 20.779C24.4645 20.8437 24.4565 20.9091 24.4344 20.9703C24.4123 21.0316 24.3767 21.087 24.3301 21.1325C24.2894 21.1744 24.2405 21.2073 24.1864 21.2293C24.1323 21.2513 24.0742 21.2618 24.0159 21.2602ZM15.2849 17.921C17.9446 19.0003 20.7094 19.8001 23.5346 20.3075C23.4349 19.284 23.2576 18.2695 23.0043 17.2728C21.1415 16.9515 19.3178 16.4347 17.5634 15.7309L15.2849 17.921Z" fill="#001E32"/>
<path d="M24.0163 21.5056C23.9708 21.5133 23.9243 21.5133 23.8788 21.5056C20.5649 20.9599 17.3297 20.0134 14.2443 18.687C14.1412 18.6443 14.0509 18.5758 13.9821 18.4881C13.9133 18.4003 13.8683 18.2963 13.8514 18.1861C13.8308 18.0754 13.839 17.9613 13.8751 17.8547C13.9112 17.7481 13.9741 17.6526 14.0577 17.5772L17.004 14.7683C17.0937 14.6825 17.205 14.6226 17.3261 14.5949C17.4471 14.5673 17.5734 14.5729 17.6915 14.6112L17.9861 14.7094C20.0682 15.4264 22.4351 16.2317 23.2895 16.1826C23.4409 16.1686 23.5926 16.2068 23.7193 16.2907C23.8461 16.3747 23.9405 16.4993 23.9868 16.6442C24.3505 17.9912 24.5905 19.3686 24.7037 20.7592C24.7147 20.8644 24.7009 20.9708 24.6633 21.0697C24.6258 21.1686 24.5657 21.2574 24.4877 21.3289C24.4249 21.3883 24.3508 21.4345 24.2698 21.4649C24.1889 21.4952 24.1027 21.5091 24.0163 21.5056ZM17.4951 15.0532C17.4454 15.0558 17.3976 15.0729 17.3576 15.1023L14.4112 17.9111C14.3875 17.9334 14.3697 17.9612 14.3595 17.9921C14.3492 18.0229 14.3467 18.0558 14.3523 18.0879C14.3566 18.1157 14.3678 18.142 14.385 18.1644C14.4022 18.1867 14.4247 18.2043 14.4505 18.2156C17.512 19.5263 20.7205 20.4628 24.0065 21.0047C24.0314 21.003 24.0557 20.9959 24.0777 20.9841C24.0997 20.9722 24.1189 20.9558 24.1341 20.936C24.1569 20.9173 24.1744 20.893 24.1848 20.8654C24.1951 20.8378 24.198 20.8079 24.1931 20.7789C24.0841 19.4246 23.8507 18.0833 23.4958 16.7718C23.4863 16.729 23.4604 16.6917 23.4237 16.6678C23.3869 16.6439 23.3423 16.6354 23.2993 16.6442C22.3172 16.6933 20.0387 15.9174 17.8093 15.1415L17.5147 15.0532H17.4951ZM23.8395 20.6119L23.5056 20.5432C20.6625 20.0391 17.8808 19.2359 15.2067 18.1468L14.863 17.9995L17.5245 15.446L17.662 15.4951C19.3975 16.1926 21.2013 16.7061 23.044 17.0272H23.2208V17.1942C23.4755 18.201 23.656 19.2251 23.7609 20.2584L23.8395 20.6119ZM15.7469 17.8325C18.1796 18.7942 20.6987 19.521 23.2699 20.003C23.1791 19.1631 23.0347 18.3299 22.8377 17.5084C21.0619 17.1749 19.3221 16.6717 17.6424 16.0058L15.7469 17.8325Z" fill="#001E32"/>
<path d="M24.0159 21.2601H23.898C23.8192 21.2342 23.7495 21.1861 23.6973 21.1217C23.645 21.0572 23.6124 20.9791 23.6034 20.8967C23.4977 19.5693 23.2708 18.2543 22.9257 16.9682C22.9004 16.9066 22.8925 16.8392 22.9029 16.7734C22.9133 16.7075 22.9416 16.6459 22.9847 16.595L25.4792 13.1086C25.5214 13.0523 25.5763 13.0069 25.6395 12.9762C25.7027 12.9455 25.7723 12.9302 25.8426 12.9317C25.9136 12.9304 25.9838 12.9479 26.0458 12.9824C26.1079 13.0169 26.1598 13.0672 26.1962 13.1282C26.8752 14.0821 27.402 15.1357 27.7577 16.2513C27.7577 16.4379 27.7577 16.7227 26.0292 18.9816C25.2141 20.0619 24.3793 21.0735 24.3694 21.0833C24.3252 21.1348 24.2712 21.1769 24.2105 21.2073C24.1498 21.2376 24.0836 21.2556 24.0159 21.2601ZM23.7998 16.9289C24.0505 17.8564 24.2278 18.8022 24.3302 19.7574C25.2661 18.6517 26.1164 17.4763 26.8738 16.2415C26.5796 15.5152 26.2179 14.8181 25.7935 14.1594L23.7998 16.9289Z" fill="#001E32"/>
<path d="M24.0161 21.5056C23.9508 21.5126 23.8849 21.5126 23.8197 21.5056C23.6919 21.4659 23.5794 21.3883 23.4969 21.283C23.4144 21.1778 23.366 21.0498 23.3581 20.9164C23.2525 19.6252 23.0289 18.3464 22.6902 17.096C22.6552 16.9936 22.6467 16.884 22.6656 16.7775C22.6845 16.671 22.7301 16.5711 22.7982 16.487L25.283 13.0202C25.3476 12.9309 25.4325 12.8583 25.5307 12.8082C25.6289 12.758 25.7375 12.7319 25.8477 12.7319C25.9579 12.7319 26.0666 12.758 26.1647 12.8082C26.2629 12.8583 26.3478 12.9309 26.4124 13.0202C27.1435 13.9898 27.6834 15.0897 28.0034 16.2612C28.0034 16.5165 28.0034 16.8111 26.2258 19.1486C25.391 20.2289 24.5759 21.2405 24.5562 21.2601C24.4871 21.3349 24.4036 21.3951 24.3109 21.4373C24.2181 21.4795 24.1179 21.5027 24.0161 21.5056ZM25.8428 13.197C25.8105 13.1945 25.7782 13.2004 25.7489 13.2142C25.7197 13.228 25.6945 13.2491 25.6758 13.2755L23.1813 16.7522C23.1698 16.7768 23.1639 16.8036 23.1639 16.8308C23.1639 16.8579 23.1698 16.8847 23.1813 16.9094C23.5345 18.1941 23.7647 19.5095 23.8688 20.8378C23.8734 20.8747 23.889 20.9094 23.9135 20.9374C23.938 20.9654 23.9703 20.9854 24.0063 20.9949C24.0776 20.9908 24.1445 20.9591 24.1929 20.9065C24.1929 20.8574 25.0375 19.8655 25.8232 18.8343C27.5026 16.6344 27.5026 16.3594 27.5026 16.2513C27.5026 16.1433 27.3945 15.5049 25.9803 13.305C25.9707 13.2754 25.9524 13.2493 25.928 13.2301C25.9035 13.2109 25.8738 13.1993 25.8428 13.197ZM24.1536 20.3762L24.0848 19.7869C23.9875 18.8446 23.8134 17.9118 23.5643 16.9977V16.8897L25.833 13.7175L26.0294 14.0317C26.4702 14.7133 26.842 15.4371 27.1392 16.1924V16.2612V16.3299C26.3587 17.5832 25.4924 18.781 24.5464 19.9146L24.1536 20.3762ZM24.075 16.9781C24.2607 17.6921 24.4017 18.417 24.4973 19.1486C25.2605 18.208 25.9687 17.2243 26.6187 16.2022C26.3742 15.6436 26.092 15.1022 25.774 14.5818L24.075 16.9781Z" fill="#001E32"/>
<path d="M23.2106 17.2825C21.2466 16.9815 19.3269 16.4405 17.4947 15.6718L17.3376 15.6129C17.2684 15.587 17.2065 15.545 17.1569 15.4904C17.1074 15.4357 17.0716 15.3699 17.0527 15.2986C17.0364 15.2285 17.0387 15.1554 17.0594 15.0865C17.0801 15.0175 17.1184 14.9552 17.1706 14.9057L20.6571 11.5862C20.7076 11.5388 20.7688 11.5043 20.8354 11.4855C20.9021 11.4667 20.9723 11.4642 21.0401 11.4782C22.7819 11.7306 24.4765 12.2403 26.0685 12.9906C26.1664 13.0586 26.2362 13.1598 26.2649 13.2754C26.2766 13.3335 26.2756 13.3933 26.262 13.4509C26.2485 13.5086 26.2227 13.5626 26.1864 13.6093L23.6918 17.086C23.6563 17.1405 23.6085 17.1857 23.5521 17.2182C23.4958 17.2506 23.4326 17.2693 23.3677 17.2726C23.3157 17.2586 23.2605 17.262 23.2106 17.2825ZM18.3 15.0629C19.8642 15.6766 21.4864 16.1307 23.1418 16.4182L25.2239 13.521C23.8949 13.0114 22.5202 12.6299 21.1187 12.3817L18.3 15.0629Z" fill="#001E32"/>
<path d="M23.3287 17.5577H23.2108C22.0618 17.5577 20.0779 16.8997 17.4065 15.9667H17.2494C17.1413 15.927 17.0446 15.8615 16.9675 15.7759C16.8905 15.6903 16.8356 15.5873 16.8075 15.4756C16.7802 15.3614 16.7841 15.2419 16.8186 15.1296C16.8532 15.0174 16.9171 14.9164 17.0039 14.8372L20.4413 11.449C20.5216 11.3738 20.619 11.3193 20.7251 11.2902C20.8312 11.2612 20.9427 11.2583 21.0502 11.282C22.8197 11.5391 24.541 12.0588 26.1572 12.8239C26.2335 12.8739 26.2989 12.9389 26.3496 13.0148C26.4002 13.0908 26.435 13.1761 26.4518 13.2659C26.4704 13.3576 26.4695 13.4522 26.4492 13.5436C26.4289 13.6349 26.3896 13.721 26.3339 13.7962L23.8492 17.2729C23.7895 17.352 23.7143 17.4181 23.6282 17.467C23.542 17.516 23.4468 17.5469 23.3483 17.5577H23.3287ZM20.9421 11.7436C20.8903 11.7443 20.8409 11.7655 20.8046 11.8025L17.3378 15.1122C17.3129 15.1312 17.2948 15.1577 17.286 15.1877C17.2771 15.2177 17.2781 15.2498 17.2887 15.2792C17.2968 15.311 17.3127 15.3402 17.335 15.3642C17.3573 15.3882 17.3853 15.4062 17.4164 15.4167L17.5637 15.4658C19.3774 16.2088 21.2731 16.733 23.2108 17.0274C23.2661 17.0182 23.3225 17.0182 23.3778 17.0274C23.4202 17.0165 23.458 16.9924 23.4858 16.9586L25.9804 13.4721C25.9904 13.4488 25.9955 13.4238 25.9955 13.3984C25.9955 13.3731 25.9904 13.348 25.9804 13.3248C25.9744 13.3002 25.9635 13.277 25.9483 13.2568C25.9331 13.2365 25.9139 13.2195 25.892 13.2069C24.3347 12.4797 22.6809 11.9803 20.9814 11.724L20.9421 11.7436ZM23.2403 16.6542H23.1028C21.4238 16.3672 19.7784 15.9098 18.1922 15.289L17.8092 15.1515L21.0109 12.0971H21.1386C22.5597 12.3527 23.9539 12.7407 25.3027 13.2561L25.5777 13.3837L23.2403 16.6542ZM18.7324 14.9551C20.1151 15.4793 21.5414 15.8802 22.9948 16.1533L24.8215 13.6096C23.6263 13.1922 22.4019 12.8639 21.1582 12.6275L18.7324 14.9551Z" fill="#001E32"/>
<path d="M7.04511 20.0519C6.95319 20.048 6.86444 20.0173 6.78977 19.9635L2.33097 16.6538C2.2778 16.6178 2.234 16.5696 2.20325 16.5132C2.1725 16.4568 2.15569 16.3939 2.1542 16.3297C2.15144 16.265 2.16325 16.2006 2.18874 16.1411C2.21424 16.0816 2.25278 16.0286 2.30151 15.986C2.30151 15.986 5.08088 13.4816 7.92901 11.0754C13.8217 6.02736 14.2735 6.02734 14.5681 6.02734C15.6091 6.02734 18.9188 7.99156 19.567 8.41387C19.6264 8.44802 19.6764 8.49644 19.7124 8.55473C19.7484 8.61303 19.7693 8.6794 19.7733 8.74781C19.7791 8.81571 19.7688 8.884 19.7432 8.94715C19.7176 9.01031 19.6774 9.06652 19.626 9.11119L17.1019 11.2227C14.1556 13.7271 11.2682 16.1333 7.33975 19.9537C7.29958 19.9887 7.25286 20.0155 7.20228 20.0324C7.15171 20.0492 7.09828 20.0558 7.04511 20.0519ZM3.26398 16.2806L7.01565 19.06C10.8262 15.3083 13.6154 12.9905 16.5618 10.5254C17.2296 9.97545 17.9171 9.40582 18.6144 8.80674C17.3599 7.99186 16.0111 7.33229 14.5976 6.84251C13.9494 7.05858 9.80484 10.4076 3.26398 16.2806Z" fill="#001E32"/>
<path d="M7.0451 20.2975C6.89971 20.2954 6.75873 20.2473 6.64243 20.1601L2.18365 16.8504C2.09998 16.7915 2.03144 16.7136 1.98365 16.6231C1.93585 16.5326 1.91016 16.4321 1.90866 16.3298C1.90501 16.2303 1.92335 16.1311 1.9624 16.0394C2.00144 15.9478 2.06022 15.8658 2.13454 15.7995C2.25767 15.7008 2.37567 15.5959 2.4881 15.4852C3.3229 14.7486 5.52282 12.7844 7.76203 10.8496C13.6547 5.74266 14.1752 5.74268 14.5681 5.74268C15.5502 5.74268 18.4965 7.4319 19.6947 8.15866C19.7861 8.21358 19.8633 8.28929 19.92 8.37967C19.9766 8.47005 20.0111 8.57255 20.0207 8.67879C20.0303 8.78503 20.0146 8.89201 19.9751 8.99106C19.9355 9.09011 19.8731 9.17841 19.7929 9.24879L17.2591 11.3702L17.1707 11.4487C14.2243 13.9237 11.3959 16.2709 7.50669 20.0913C7.44943 20.1573 7.37845 20.2099 7.29872 20.2455C7.21898 20.2811 7.13242 20.2989 7.0451 20.2975ZM14.5484 6.23373C14.2243 6.23373 13.2029 6.79352 8.06649 11.2228C5.82727 13.1871 3.62734 15.1513 2.80237 15.8486L2.41935 16.1923C2.40502 16.2303 2.40502 16.2722 2.41935 16.3102C2.41807 16.3371 2.42373 16.3638 2.43577 16.3879C2.44781 16.412 2.46582 16.4326 2.4881 16.4477L6.95671 19.7672C6.98878 19.7883 7.02634 19.7996 7.06474 19.7996C7.10315 19.7996 7.14071 19.7883 7.17278 19.7672C11.1012 15.9173 13.9002 13.5701 16.876 11.0755L16.9644 11.0068L19.4884 8.89525C19.51 8.87354 19.5266 8.84728 19.5367 8.8184C19.5469 8.78952 19.5506 8.75873 19.5474 8.72827C19.5467 8.69945 19.5381 8.67139 19.5225 8.64714C19.5069 8.62289 19.4849 8.6034 19.459 8.59079C17.6617 7.50065 15.3145 6.23373 14.5484 6.23373ZM7.01564 19.3842L2.86131 16.2905L3.07737 16.0941C9.04861 10.7612 13.7431 6.83281 14.5484 6.62657H14.5975C15.393 6.67568 18.1822 8.29616 18.7322 8.59079L19.0269 8.76757L18.7617 8.99346L17.4064 10.1229L16.493 10.8889C13.6154 13.2951 10.8852 15.5736 7.17278 19.227L7.01564 19.3842ZM3.63717 16.2611L6.97634 18.736C10.62 15.1611 13.3208 12.9023 16.1689 10.5256L17.0823 9.75951L18.1724 8.84612C17.0555 8.13034 15.8591 7.54698 14.6074 7.1078C14.0279 7.37297 10.62 10.0247 3.65682 16.2611H3.63717Z" fill="#001E32"/>
<path d="M7.80157 24.3045C7.71082 24.3024 7.62243 24.2752 7.54621 24.2259C5.97483 23.0965 2.27227 20.4153 1.94817 19.7573C1.53569 18.952 1.94818 16.9976 2.16424 16.1726C2.18993 16.1083 2.22842 16.0499 2.27738 16.0009C2.32635 15.952 2.38474 15.9135 2.44905 15.8878C2.51362 15.8669 2.58237 15.8622 2.64918 15.8742C2.716 15.8862 2.77883 15.9145 2.83208 15.9566L7.29086 19.2663C7.34903 19.3066 7.39584 19.3612 7.4268 19.4248C7.45776 19.4885 7.47182 19.559 7.46764 19.6296C7.46944 21.0308 7.7188 22.4205 8.20422 23.7349C8.23122 23.82 8.23057 23.9114 8.20233 23.9961C8.1741 24.0808 8.11975 24.1544 8.04709 24.2063C7.97951 24.2671 7.89247 24.302 7.80157 24.3045ZM2.83208 17.0271C2.62036 17.7912 2.58011 18.5927 2.71422 19.3743C4.07572 20.617 5.523 21.7624 7.04534 22.8019C6.76423 21.8448 6.61876 20.853 6.6132 19.8555L2.83208 17.0271Z" fill="#001E32"/>
<path d="M7.80158 24.5109C7.66043 24.511 7.52289 24.4663 7.40872 24.3833C4.99273 22.6646 2.05622 20.4548 1.7223 19.8263C1.26071 18.9129 1.6732 16.8799 1.93837 16.055C1.97152 15.9541 2.0279 15.8625 2.10296 15.7874C2.17802 15.7124 2.26966 15.656 2.3705 15.6228C2.47367 15.5865 2.58426 15.5764 2.69229 15.5936C2.80032 15.6107 2.90238 15.6545 2.98922 15.721L7.43818 19.0308C7.52897 19.0965 7.60174 19.1841 7.6498 19.2853C7.69786 19.3866 7.71965 19.4983 7.71317 19.6102C7.71987 20.978 7.96584 22.3341 8.43994 23.6172C8.48216 23.7526 8.48016 23.8979 8.43425 24.0321C8.38834 24.1663 8.30091 24.2824 8.1846 24.3636C8.13407 24.4129 8.07406 24.4513 8.00822 24.4766C7.94237 24.5019 7.87207 24.5136 7.80158 24.5109ZM2.57674 16.0746H2.52763C2.49806 16.0848 2.47121 16.1016 2.44909 16.1237C2.42697 16.1458 2.41017 16.1727 2.39996 16.2023C2.12497 17.0469 1.81069 18.9031 2.16425 19.6004C2.37049 20.0129 4.49186 21.6923 7.69354 23.9806C7.72071 23.9952 7.75108 24.0029 7.78193 24.0029C7.81278 24.0029 7.84315 23.9952 7.87032 23.9806C7.96853 23.9118 7.998 23.8235 7.96853 23.7547C7.47663 22.4146 7.22398 20.9985 7.22212 19.5709C7.22329 19.5412 7.21772 19.5117 7.20581 19.4844C7.19391 19.4572 7.17598 19.4331 7.15338 19.4138L2.68477 16.1041C2.64882 16.0935 2.61019 16.097 2.57674 16.1139V16.0746ZM7.48729 23.3619L6.9275 22.9592C5.39289 21.8862 3.9267 20.7184 2.53746 19.4629C2.36324 18.6267 2.39356 17.7608 2.62584 16.9389L2.71423 16.5657L6.89804 19.6691V19.7968C6.90201 20.7776 7.04417 21.7529 7.32034 22.694L7.48729 23.3619ZM3.02851 17.4201C2.88312 18.0118 2.86306 18.6273 2.96959 19.2272C4.13571 20.2919 5.37273 21.2763 6.67214 22.1735C6.49969 21.4359 6.40749 20.6819 6.39715 19.9245L3.02851 17.4201Z" fill="#001E32"/>
<path d="M21.423 10.9677C21.0179 10.1556 20.3915 9.47471 19.616 9.00344L19.4686 8.86596L19.2231 9.08203L18.7321 9.4945L18.2312 9.92663L17.0625 10.9087L16.267 11.5668L14.7447 12.8435L13.6251 13.8256C13.0555 14.3069 12.4662 14.8077 11.8573 15.3675L11.5921 15.6131L11.2484 15.9077L10.2663 16.8112C9.33325 17.6657 8.37078 18.5889 7.40831 19.5317H7.25118V19.7772C7.25118 19.9049 7.25118 20.0424 7.25118 20.1602C7.24142 20.3074 7.24142 20.455 7.25118 20.6022C7.25118 20.7004 7.25118 20.7986 7.25118 20.8968L7.34939 21.545C7.34669 21.5908 7.34669 21.6367 7.34939 21.6825L7.43777 22.1048C7.51634 22.4191 7.60474 22.753 7.70295 23.0869L7.80116 23.4601L14.2242 17.8916L21.4034 11.0168L21.423 10.9677ZM14.1751 17.4889L8.20382 22.6646L8.03686 22.0557L7.92883 21.545H7.85026V21.4861H7.91901L7.83063 20.8772C7.82287 20.7922 7.82287 20.7068 7.83063 20.6218V20.2486C7.83063 20.1504 7.83063 20.0424 7.83063 19.9442C8.81274 18.9621 9.79484 18.088 10.6787 17.2237C11.0028 16.9193 11.3368 16.6148 11.6609 16.3398L11.985 16.0452L12.2698 15.7997C12.8787 15.2497 13.4483 14.739 14.0277 14.2577L15.167 13.2756L16.6598 12.0185L17.3866 11.4195C17.7892 11.0757 18.2017 10.732 18.6339 10.3882C18.791 10.2409 18.9579 10.1034 19.1642 9.93646L19.5669 9.58289C20.1551 9.96774 20.6405 10.4903 20.9811 11.1052L14.1751 17.4889ZM21.423 10.9677C21.0179 10.1556 20.3915 9.47471 19.616 9.00344L19.4686 8.86596L19.2231 9.08203L18.7321 9.4945L18.2312 9.92663L17.0625 10.9087L16.267 11.5668L14.7447 12.8435L13.6251 13.8256C13.0555 14.3069 12.4662 14.8077 11.8573 15.3675L11.5921 15.6131L11.2484 15.9077L10.2663 16.8112C9.33325 17.6657 8.37078 18.5889 7.40831 19.5317H7.25118V19.7772C7.25118 19.9049 7.25118 20.0424 7.25118 20.1602C7.24142 20.3074 7.24142 20.455 7.25118 20.6022C7.25118 20.7004 7.25118 20.7986 7.25118 20.8968L7.34939 21.545C7.34669 21.5908 7.34669 21.6367 7.34939 21.6825L7.43777 22.1048C7.51634 22.4191 7.60474 22.753 7.70295 23.0869L7.80116 23.4601L14.2242 17.8916L21.4034 11.0168L21.423 10.9677ZM14.1751 17.4889L8.20382 22.6646L8.03686 22.0557L7.92883 21.545H7.85026V21.4861H7.91901L7.83063 20.8772C7.82287 20.7922 7.82287 20.7068 7.83063 20.6218V20.2486C7.83063 20.1504 7.83063 20.0424 7.83063 19.9442C8.81274 18.9621 9.79484 18.088 10.6787 17.2237C11.0028 16.9193 11.3368 16.6148 11.6609 16.3398L11.985 16.0452L12.2698 15.7997C12.8787 15.2497 13.4483 14.739 14.0277 14.2577L15.167 13.2756L16.6598 12.0185L17.3866 11.4195C17.7892 11.0757 18.2017 10.732 18.6339 10.3882C18.791 10.2409 18.9579 10.1034 19.1642 9.93646L19.5669 9.58289C20.1551 9.96774 20.6405 10.4903 20.9811 11.1052L14.1751 17.4889ZM22.3757 10.8498C21.8449 9.73712 20.9703 8.82466 19.8811 8.24723H19.7731H19.6749C19.5625 8.20329 19.4405 8.19014 19.3214 8.20914C19.2022 8.22813 19.0903 8.27855 18.9972 8.35525L16.483 10.4668L14.5483 11.9007L13.9295 12.4212L12.1126 13.9926L11.3564 14.6506L11.2386 14.7586L10.1582 15.7407L8.194 17.5478C8.09332 17.6599 7.98503 17.7649 7.8699 17.8621L7.52617 18.2058L7.43777 18.2844L6.81905 18.8835C6.77571 18.9317 6.72981 18.9776 6.68156 19.021L6.52442 19.1781C6.42155 19.2934 6.35643 19.4373 6.33781 19.5906C6.33271 19.6756 6.33271 19.7609 6.33781 19.846C6.35247 20.8699 6.50442 21.8873 6.78959 22.8709C6.8878 23.2637 6.99582 23.6664 7.13332 24.0887C7.17287 24.2338 7.2682 24.3574 7.39849 24.4324C7.43129 24.4673 7.47159 24.4941 7.51634 24.511H7.60473C7.6633 24.5202 7.72295 24.5202 7.78152 24.511C7.84955 24.525 7.91974 24.525 7.98777 24.511C8.07597 24.4893 8.15713 24.4454 8.22346 24.3833L14.7643 18.7558L22.1793 11.6846C22.2921 11.581 22.3677 11.4431 22.3944 11.2922C22.421 11.1413 22.3972 10.9858 22.3266 10.8498H22.3757ZM21.9141 11.331L14.6858 18.2058L7.93866 24.0199H7.67348C7.60474 24.0199 7.5851 23.9316 7.5851 23.9119C7.4476 23.4994 7.33956 23.0968 7.24135 22.7137C7.14523 22.3743 7.06656 22.03 7.00566 21.6825C6.87092 21.0664 6.80503 20.4373 6.80922 19.8067C6.80457 19.7413 6.80457 19.6757 6.80922 19.6103C6.81122 19.5664 6.82861 19.5247 6.85833 19.4924L7.00566 19.3451C7.0466 19.2975 7.09272 19.2547 7.14315 19.2174L7.76187 18.6085L7.85026 18.5299L8.194 18.1862C8.30203 18.0782 8.41989 17.9799 8.5181 17.8719C9.18594 17.2335 9.82431 16.6345 10.4823 16.0747C10.8457 15.7407 11.2091 15.4265 11.5725 15.0925L11.6903 14.9845L12.4171 14.3363L14.234 12.7649L14.8527 12.2444L16.7089 10.7025L19.2231 8.59097C19.2611 8.57665 19.303 8.57665 19.341 8.59097H19.3901L19.6356 8.74812C20.5997 9.29655 21.3739 10.1255 21.8552 11.1248C21.8748 11.1553 21.886 11.1904 21.8878 11.2266C21.8895 11.2628 21.8816 11.2988 21.865 11.331H21.9141ZM19.616 9.04274L19.4686 8.90523L19.2231 9.12129L18.7321 9.53379L18.2312 9.96592L17.0625 10.948L16.267 11.606L14.7447 12.8828L13.6251 13.8649C13.0555 14.3461 12.4662 14.847 11.8573 15.4068L11.5921 15.6524L11.2484 15.947L10.2663 16.8505C9.33325 17.705 8.37078 18.6281 7.40831 19.571H7.25118V19.8165C7.25118 19.9442 7.25118 20.0817 7.25118 20.1995C7.24142 20.3467 7.24142 20.4943 7.25118 20.6415C7.25118 20.7397 7.25118 20.8379 7.25118 20.9361L7.34939 21.5843C7.34669 21.6301 7.34669 21.676 7.34939 21.7218L7.43777 22.1441C7.51634 22.4584 7.60474 22.7923 7.70295 23.1262L7.80116 23.4994L14.2242 17.9308L21.4034 11.0561L21.2954 10.8891C20.8941 10.1305 20.2973 9.49307 19.5669 9.04274H19.616ZM14.1751 17.4889L8.20382 22.6646L8.03686 22.0557L7.92883 21.545H7.85026V21.4861H7.91901L7.83063 20.8772C7.82287 20.7922 7.82287 20.7068 7.83063 20.6218V20.2486C7.83063 20.1504 7.83063 20.0424 7.83063 19.9442C8.81274 18.9621 9.79484 18.088 10.6787 17.2237C11.0028 16.9193 11.3368 16.6148 11.6609 16.3398L11.985 16.0452L12.2698 15.7997C12.8787 15.2497 13.4483 14.739 14.0277 14.2577L15.167 13.2756L16.6598 12.0185L17.3866 11.4195C17.7892 11.0757 18.2017 10.732 18.6339 10.3882C18.791 10.2409 18.9579 10.1034 19.1642 9.93646L19.5669 9.58289C20.1551 9.96774 20.6405 10.4903 20.9811 11.1052L14.1751 17.4889Z" fill="#001E32"/>
<path d="M26.8153 8.23736C26.7656 8.16558 26.7015 8.10492 26.6271 8.05927C26.5527 8.01362 26.4696 7.98397 26.3831 7.9722C26.2944 7.95695 26.2036 7.95952 26.1159 7.97976C26.0282 7.99999 25.9455 8.03748 25.8724 8.09005L23.9868 9.465C23.9117 9.51927 23.8484 9.58817 23.8006 9.66752C23.7529 9.74687 23.7216 9.83505 23.7088 9.92677C23.6959 10.0185 23.7018 10.1119 23.7259 10.2013C23.7501 10.2907 23.792 10.3743 23.8493 10.4471C23.9128 10.5276 23.9932 10.593 24.0849 10.6389C24.1765 10.6847 24.2772 10.7098 24.3796 10.7123C24.5254 10.7037 24.6669 10.6599 24.7921 10.5846L26.6581 9.20967C26.7309 9.1601 26.7928 9.0962 26.8401 9.0219C26.8874 8.9476 26.919 8.86447 26.9331 8.77754C26.9525 8.68428 26.9521 8.58795 26.9318 8.49488C26.9115 8.4018 26.8718 8.31406 26.8153 8.23736ZM26.334 8.79717L24.5073 10.1427C24.36 10.2016 24.252 10.1918 24.193 10.1427C24.1599 10.1065 24.1415 10.0591 24.1415 10.0101C24.1415 9.96099 24.1599 9.91371 24.193 9.8775L26.0787 8.50255C26.114 8.49245 26.1514 8.49245 26.1867 8.50255C26.2333 8.50977 26.2754 8.5343 26.3046 8.57128C26.3191 8.59093 26.3294 8.61339 26.3348 8.63721C26.3402 8.66104 26.3406 8.68572 26.336 8.70972C26.3314 8.73371 26.3218 8.75649 26.308 8.77661C26.2941 8.79673 26.2762 8.81377 26.2555 8.82663L26.334 8.79717Z" fill="#64CEB8"/>
<path d="M23.8098 5.75265L22.6705 7.81509C22.6378 7.88279 22.5859 7.93938 22.5213 7.9778C22.4567 8.01622 22.3822 8.03477 22.3071 8.03115C22.2327 8.02792 22.1595 8.0113 22.0911 7.98206C21.9949 7.92467 21.9247 7.83216 21.8954 7.72406C21.8661 7.61597 21.8799 7.50071 21.9339 7.40259L23.0732 5.36964C23.1009 5.32127 23.1379 5.27885 23.182 5.24478C23.2261 5.21071 23.2766 5.18564 23.3304 5.17105C23.3842 5.15646 23.4403 5.15261 23.4956 5.15972C23.5509 5.16683 23.6043 5.18477 23.6526 5.2125C23.701 5.24023 23.7434 5.2772 23.7775 5.32132C23.8116 5.36545 23.8366 5.41588 23.8512 5.46968C23.8658 5.52349 23.8696 5.57962 23.8625 5.63492C23.8554 5.69021 23.8375 5.74357 23.8098 5.79194V5.75265Z" fill="#64CEB8"/>
<path d="M22.3071 8.23713C22.2023 8.23267 22.0992 8.20937 22.0026 8.16838C21.9228 8.12701 21.852 8.0702 21.7943 8.0012C21.7367 7.93219 21.6933 7.85238 21.6668 7.76646C21.6403 7.68053 21.6312 7.59019 21.6399 7.5007C21.6487 7.41121 21.6752 7.32438 21.7178 7.24522L22.8571 5.21224C22.9 5.13523 22.9578 5.06747 23.027 5.0129C23.0963 4.95833 23.1757 4.91801 23.2606 4.89427C23.3455 4.87053 23.4343 4.86387 23.5218 4.87461C23.6093 4.88536 23.6938 4.91331 23.7704 4.95688C23.8484 4.99883 23.9171 5.0561 23.9725 5.12524C24.0278 5.19437 24.0686 5.27394 24.0925 5.35922C24.1163 5.44451 24.1227 5.53373 24.1112 5.62154C24.0998 5.70934 24.0707 5.79393 24.0258 5.87024L22.8865 7.89339C22.8325 7.99977 22.7494 8.0886 22.6468 8.14947C22.5442 8.21034 22.4263 8.24074 22.3071 8.23713ZM23.4365 5.35955C23.406 5.3584 23.3759 5.36613 23.3497 5.38182C23.3236 5.39752 23.3025 5.4205 23.2892 5.44794L22.15 7.48092C22.1377 7.50219 22.1297 7.52567 22.1265 7.55003C22.1233 7.57439 22.1249 7.59914 22.1313 7.62286C22.1377 7.64659 22.1487 7.66883 22.1637 7.68829C22.1787 7.70775 22.1974 7.72406 22.2187 7.73628H22.3071C22.4151 7.73628 22.4348 7.68715 22.4446 7.65769L23.5937 5.62471C23.6062 5.60479 23.6145 5.58258 23.6183 5.55937C23.6221 5.53617 23.6213 5.51243 23.6158 5.48957C23.6103 5.46671 23.6003 5.44516 23.5864 5.42621C23.5725 5.40726 23.5549 5.39127 23.5347 5.37918C23.5044 5.36381 23.4704 5.35703 23.4365 5.35955Z" fill="#64CEB8"/>
<path d="M19.9796 3.72956L19.5475 6.01789C19.5332 6.11679 19.4835 6.20715 19.4077 6.27217C19.3318 6.3372 19.2349 6.37246 19.135 6.37144H19.0466C18.9907 6.36204 18.9373 6.34148 18.8895 6.31099C18.8417 6.28049 18.8005 6.24069 18.7684 6.19395C18.7364 6.14721 18.714 6.09449 18.7028 6.03893C18.6915 5.98338 18.6915 5.9261 18.7029 5.87055L19.135 3.58225C19.1444 3.52634 19.165 3.47289 19.1955 3.4251C19.226 3.37732 19.2658 3.33616 19.3125 3.30408C19.3592 3.272 19.412 3.24968 19.4675 3.23841C19.5231 3.22714 19.5803 3.22717 19.6359 3.2385C19.7455 3.26001 19.8426 3.32317 19.9067 3.41473C19.9708 3.5063 19.9969 3.61914 19.9796 3.72956Z" fill="#64CEB8"/>
<path d="M19.135 6.61676C19.08 6.62872 19.0231 6.62872 18.9681 6.61676C18.8864 6.6023 18.8086 6.57133 18.7394 6.52574C18.6701 6.48014 18.6109 6.42089 18.5654 6.3516C18.5135 6.27841 18.478 6.19497 18.461 6.10688C18.4441 6.0188 18.4462 5.92809 18.4672 5.84088L18.8895 3.55258C18.9053 3.46504 18.9387 3.38159 18.9876 3.30732C19.0366 3.23305 19.1001 3.16948 19.1743 3.12045C19.2478 3.06907 19.3309 3.03303 19.4187 3.01447C19.5064 2.99591 19.597 2.99519 19.685 3.0124C19.8592 3.04811 20.0127 3.14992 20.1134 3.29641C20.2141 3.44291 20.2542 3.62271 20.2252 3.79811L19.793 6.08641C19.7613 6.23713 19.6785 6.37226 19.5586 6.46891C19.4387 6.56556 19.289 6.6178 19.135 6.61676ZM19.5475 3.46419C19.5155 3.45435 19.4813 3.45435 19.4493 3.46419C19.4292 3.47684 19.4124 3.49414 19.4005 3.51466C19.3885 3.53519 19.3817 3.55831 19.3806 3.58204L18.9484 5.88018C18.9364 5.90108 18.93 5.9248 18.93 5.94893C18.93 5.97307 18.9364 5.99679 18.9484 6.01769C18.9776 6.05466 19.0197 6.0792 19.0663 6.08641C19.194 6.08641 19.2725 6.08641 19.2824 5.95873L19.7145 3.6606C19.7202 3.63735 19.7212 3.6132 19.7174 3.58956C19.7135 3.56593 19.7049 3.54329 19.6921 3.52309C19.6792 3.50288 19.6624 3.48552 19.6426 3.47201C19.6228 3.45851 19.6005 3.44915 19.577 3.44453L19.5475 3.46419Z" fill="#64CEB8"/>
<path d="M7.90935 7.71687C7.84319 7.76428 7.76474 7.79158 7.68345 7.79546C7.61224 7.79785 7.54173 7.78084 7.47945 7.74624C7.41717 7.71164 7.36547 7.66075 7.32989 7.59902L6.03351 5.6348C5.97286 5.54048 5.95125 5.42628 5.97324 5.31632C5.99523 5.20636 6.0591 5.10926 6.15136 5.04553C6.19768 5.01423 6.24975 4.99244 6.30456 4.98142C6.35936 4.9704 6.4158 4.97039 6.47062 4.98136C6.52543 4.99232 6.57753 5.01404 6.62388 5.04529C6.67023 5.07654 6.70991 5.11667 6.74063 5.16338L8.02719 7.1276C8.08784 7.22192 8.10946 7.33612 8.08747 7.44608C8.06548 7.55603 8.00161 7.65314 7.90935 7.71687Z" fill="#64CEB8"/>
<path d="M7.67369 8.04099C7.55851 8.04245 7.44502 8.01319 7.3449 7.95623C7.24478 7.89926 7.16165 7.81664 7.10406 7.71687L5.8175 5.75265C5.72229 5.60308 5.68854 5.42251 5.72331 5.24865C5.75808 5.07479 5.85869 4.92111 6.0041 4.81966C6.15295 4.72196 6.33426 4.68674 6.50886 4.72165C6.68345 4.75657 6.83729 4.85883 6.93711 5.00627L8.22367 6.97049C8.31888 7.12006 8.35263 7.3006 8.31786 7.47446C8.28308 7.64832 8.18248 7.80203 8.03707 7.90348C7.93066 7.98144 7.80505 8.02898 7.67369 8.04099ZM6.37729 5.24196C6.3453 5.23212 6.31109 5.23212 6.27909 5.24196C6.24192 5.26952 6.21632 5.30989 6.20725 5.35526C6.19818 5.40062 6.20627 5.44776 6.22998 5.48749L7.52638 7.45171C7.5386 7.48 7.55939 7.50374 7.58581 7.5196C7.61224 7.53546 7.64297 7.54263 7.67369 7.5401H7.76208C7.79924 7.51254 7.82486 7.47218 7.83393 7.42681C7.84301 7.38144 7.8349 7.3343 7.81118 7.29457L6.52462 5.33035C6.49954 5.29173 6.46106 5.26375 6.41659 5.25179L6.37729 5.24196Z" fill="#64CEB8"/>
<path d="M4.79597 9.33737C4.75859 9.39449 4.7076 9.44144 4.64761 9.47401C4.58762 9.50658 4.52048 9.52374 4.45222 9.52397C4.36125 9.51542 4.27367 9.4851 4.19688 9.43559L2.33086 8.07047C2.27762 8.04083 2.23125 8.00027 2.19479 7.95145C2.15833 7.90263 2.1326 7.84664 2.1193 7.78717C2.10601 7.72771 2.10543 7.66612 2.11762 7.60642C2.12982 7.54671 2.1545 7.49025 2.19005 7.44076C2.2256 7.39127 2.27121 7.34987 2.32389 7.31926C2.37657 7.28864 2.43513 7.2695 2.49573 7.26312C2.55633 7.25673 2.6176 7.26325 2.6755 7.28221C2.73341 7.30118 2.78666 7.33215 2.83174 7.37315L4.70757 8.73829C4.75336 8.77132 4.79207 8.81321 4.8214 8.86145C4.85073 8.90969 4.87007 8.96331 4.87831 9.01916C4.88656 9.07501 4.88351 9.13195 4.86937 9.18661C4.85522 9.24127 4.83027 9.29253 4.79597 9.33737Z" fill="#64CEB8"/>
<path d="M4.45233 9.77903C4.31982 9.77272 4.19122 9.73212 4.07912 9.66118L2.18365 8.2764C2.07407 8.1998 1.99001 8.09206 1.94234 7.96715C1.89466 7.84224 1.88558 7.70591 1.91626 7.57578C1.94694 7.44565 2.01597 7.32771 2.11442 7.23725C2.21287 7.1468 2.3362 7.08797 2.46846 7.06839C2.55714 7.05315 2.64799 7.05571 2.73567 7.07595C2.82335 7.09618 2.90612 7.13367 2.97916 7.18624L4.855 8.55139C4.99814 8.65803 5.09342 8.81686 5.12016 8.99335C5.13417 9.07958 5.13006 9.16779 5.10808 9.25234C5.08609 9.33689 5.04673 9.41593 4.99249 9.48441C4.93457 9.57505 4.85467 9.64957 4.76024 9.70108C4.66581 9.75258 4.5599 9.77941 4.45233 9.77903ZM2.57649 7.54965C2.52994 7.55687 2.48784 7.5814 2.45864 7.61837C2.44051 7.6658 2.44051 7.71828 2.45864 7.76571C2.46187 7.78754 2.46967 7.80842 2.48151 7.82704C2.49336 7.84565 2.50898 7.86156 2.52738 7.87373L4.40322 9.24868C4.43865 9.25783 4.47582 9.25783 4.51125 9.24868C4.53907 9.24893 4.56646 9.24181 4.59062 9.228C4.61477 9.2142 4.63484 9.19422 4.64875 9.17013C4.66531 9.12579 4.66531 9.07695 4.64875 9.03262C4.63813 8.98493 4.61011 8.94291 4.57018 8.91477L2.69434 7.54965C2.657 7.53435 2.61585 7.53091 2.57649 7.53982V7.54965Z" fill="#64CEB8"/>
<path d="M3.36219 12.1755C3.34345 12.2725 3.29052 12.3596 3.21302 12.4208C3.13551 12.4821 3.03858 12.5135 2.93987 12.5094H2.84167L0.582808 11.9693C0.471945 11.9413 0.376241 11.8714 0.315805 11.7743C0.255369 11.6773 0.234904 11.5606 0.258709 11.4487C0.271401 11.3945 0.294723 11.3432 0.327314 11.298C0.359905 11.2528 0.401117 11.2144 0.448594 11.1852C0.496071 11.156 0.548861 11.1365 0.603923 11.1277C0.658984 11.119 0.715233 11.1213 0.769411 11.1345L3.03809 11.6648C3.14569 11.6948 3.23836 11.7636 3.29821 11.8579C3.35806 11.9522 3.38086 12.0654 3.36219 12.1755Z" fill="#64CEB8"/>
<path d="M2.93981 12.7255C2.88773 12.7334 2.83476 12.7334 2.78268 12.7255L0.523823 12.1853C0.343036 12.1378 0.187973 12.0215 0.0916919 11.8612C0.0469905 11.7885 0.017804 11.7074 0.00597299 11.6229C-0.00585805 11.5384 -7.00595e-05 11.4523 0.0229519 11.3702C0.0424953 11.2844 0.0790171 11.2035 0.13037 11.1321C0.181724 11.0608 0.246861 11.0004 0.321934 10.9546C0.397008 10.9088 0.480494 10.8786 0.567462 10.8656C0.65443 10.8526 0.743113 10.8572 0.828276 10.8791L3.09695 11.4095C3.26788 11.4537 3.41524 11.562 3.50849 11.7119C3.60174 11.8619 3.63374 12.0419 3.59784 12.2148C3.56564 12.3637 3.48203 12.4964 3.36171 12.5898C3.24138 12.6832 3.09201 12.7312 2.93981 12.7255ZM0.671134 11.3309H0.572932C0.535483 11.3572 0.507841 11.3952 0.494361 11.4389C0.488541 11.4641 0.487738 11.4901 0.491993 11.5156C0.496249 11.541 0.505481 11.5654 0.519163 11.5873C0.532845 11.6092 0.550695 11.6282 0.571718 11.6431C0.592741 11.6581 0.616514 11.6688 0.641672 11.6746L2.90053 12.2148C3.00856 12.2148 3.10678 12.2148 3.1166 12.0773C3.1237 12.0269 3.11282 11.9757 3.08588 11.9326C3.05893 11.8895 3.01765 11.8573 2.96929 11.8416L0.700596 11.3112L0.671134 11.3309Z" fill="#64CEB8"/>
<path d="M7.46759 19.7968C7.46759 19.9146 7.46759 20.0521 7.46759 20.1798C7.46279 20.2058 7.46279 20.2324 7.46759 20.2584C7.45789 20.1047 7.45789 19.9505 7.46759 19.7968ZM7.46759 19.7968C7.46759 19.9146 7.46759 20.0521 7.46759 20.1798C7.46279 20.2058 7.46279 20.2324 7.46759 20.2584C7.45789 20.1047 7.45789 19.9505 7.46759 19.7968ZM22.1109 10.9578C21.5966 9.86057 20.7284 8.96812 19.6458 8.42391C19.6061 8.39848 19.5632 8.37865 19.5181 8.36499C19.4482 8.33673 19.3718 8.3282 19.2974 8.34032C19.2229 8.35244 19.1532 8.38476 19.0958 8.43374L16.5816 10.5453L14.7254 12.0872L14.1067 12.6077L12.8496 13.688L11.5532 14.8273L11.4255 14.9451L10.3452 15.9273C9.72646 16.4871 9.08809 17.0861 8.38097 17.7245L7.70331 18.3825L6.99619 19.07L6.7212 19.3352C6.64939 19.4141 6.60465 19.5139 6.59352 19.62C6.58862 19.6919 6.58862 19.7641 6.59352 19.836C6.59313 20.4795 6.65896 21.1212 6.78995 21.7512C6.85278 22.1056 6.93474 22.4564 7.03548 22.802C7.13369 23.1851 7.24171 23.5877 7.37921 24.01C7.41194 24.1109 7.48228 24.1954 7.57563 24.2457C7.60485 24.2511 7.63481 24.2511 7.66403 24.2457H7.79169C7.83366 24.2558 7.8774 24.2558 7.91937 24.2457C7.97767 24.2336 8.03182 24.2065 8.07651 24.1672L14.6076 18.5397L14.7942 18.3727L15.2852 17.9111L17.5637 15.7308L18.2708 15.063L21.0698 12.3818L21.7966 11.6944L21.993 11.5078C22.0712 11.4445 22.1254 11.3566 22.1468 11.2584C22.1683 11.1602 22.1556 11.0576 22.1109 10.9676V10.9578ZM17.2003 14.8862L14.254 17.695L8.05687 23.0672C7.95866 22.7136 7.87026 22.3863 7.79169 22.0851L7.70331 21.6726C7.70331 21.6726 7.70331 21.6235 7.70331 21.594C7.70331 21.5646 7.70331 21.5253 7.70331 21.4958V21.3289L7.64438 20.9262C7.64438 20.8182 7.64438 20.7101 7.64438 20.6119C7.64438 20.5137 7.64438 20.3762 7.64438 20.2682C7.63468 20.1145 7.63468 19.9603 7.64438 19.8066C8.68542 18.8245 9.65771 17.8424 10.5907 17.0174L11.5728 16.1237L12.1817 15.5835C12.7906 15.0335 13.3701 14.5228 13.9397 14.0416C14.3227 13.6979 14.7058 13.3738 15.0888 13.0595L17.2985 11.2033L18.536 10.1721L19.0663 9.72031L19.6065 9.25871C20.3554 9.69235 20.9626 10.3337 21.3547 11.1051L17.2003 14.8862ZM7.49707 19.7968C7.49707 19.9146 7.49707 20.0521 7.49707 20.1798C7.49227 20.2058 7.49227 20.2324 7.49707 20.2584C7.47754 20.1053 7.46768 19.9511 7.46759 19.7968H7.49707ZM7.49707 19.7968C7.49707 19.9146 7.49707 20.0521 7.49707 20.1798C7.49227 20.2058 7.49227 20.2324 7.49707 20.2584C7.47754 20.1053 7.46768 19.9511 7.46759 19.7968H7.49707ZM7.49707 19.7968C7.49707 19.9146 7.49707 20.0521 7.49707 20.1798C7.49227 20.2058 7.49227 20.2324 7.49707 20.2584C7.47754 20.1053 7.46768 19.9511 7.46759 19.7968H7.49707Z" fill="#001E32"/>
<path d="M26.5301 8.97376L24.6542 10.3487C24.5721 10.3926 24.4819 10.4193 24.3891 10.4273C24.3224 10.4244 24.2572 10.4071 24.1978 10.3766C24.1385 10.3461 24.0864 10.3031 24.0453 10.2505C23.9797 10.1578 23.9531 10.0429 23.9715 9.93082C23.9899 9.81869 24.0517 9.71831 24.1436 9.65142L26.0292 8.27647C26.0743 8.23548 26.1275 8.20447 26.1854 8.18551C26.2433 8.16654 26.3046 8.16006 26.3652 8.16644C26.4258 8.17283 26.4844 8.19194 26.537 8.22255C26.5897 8.25317 26.6353 8.2946 26.6709 8.34409C26.7064 8.39358 26.7311 8.45001 26.7433 8.50971C26.7555 8.56941 26.7549 8.63103 26.7416 8.6905C26.7283 8.74996 26.7026 8.80592 26.6661 8.85474C26.6297 8.90357 26.5833 8.94413 26.5301 8.97376Z" fill="#64CEB8"/>
</g>
<defs>
<clipPath id="clip0_609_1278">
<rect width="28" height="28" fill="white"/>
</clipPath>
</defs>
</svg>
