<svg width="160" height="105" viewBox="0 0 160 105" fill="none" xmlns="http://www.w3.org/2000/svg">
<rect y="0.946533" width="160" height="104" rx="5" fill="white"/>
<path fill-rule="evenodd" clip-rule="evenodd" d="M4.11898 0.946533H155.881C158.159 0.946533 160 2.79356 160 5.06551V100.519C160 102.794 158.159 104.638 155.881 104.638H4.11898C1.84136 104.638 0 102.791 0 100.516V5.06551C0 2.79072 1.84136 0.946533 4.11898 0.946533ZM104.075 43.2256C103.401 43.676 102.608 43.9164 101.797 43.9164C101.259 43.918 100.725 43.813 100.227 43.6076C99.7288 43.4022 99.2763 43.1003 98.8954 42.7194C98.5145 42.3384 98.2126 41.8859 98.0072 41.3879C97.8017 40.8899 97.6968 40.3562 97.6984 39.8175C97.6984 39.0068 97.9388 38.2143 98.3892 37.5402C98.8396 36.8661 99.4797 36.3408 100.229 36.0305C100.978 35.7203 101.802 35.6391 102.597 35.7973C103.392 35.9554 104.122 36.3458 104.696 36.9191C105.269 37.4923 105.659 38.2227 105.818 39.0178C105.976 39.8129 105.894 40.6371 105.584 41.3861C105.274 42.135 104.749 42.7752 104.075 43.2256ZM65.5999 54.2654C67.6264 51.8315 69.2411 49.0824 70.38 46.1272H80.1912C78.8699 50.2317 76.8483 54.0767 74.2161 57.4919C74.2161 57.4919 78.6257 65.2835 79.6415 69.5139H69.3523C68.6054 66.225 67.3516 63.0723 65.6358 60.1688V69.5378H57.0435V39.3036L65.5999 37.535V54.2654ZM81.3862 56.3686C81.3862 49.5091 81.3862 47.9686 95.1649 45.936V52.7835C90.2892 52.903 89.7514 54.6597 89.7514 58.7587V69.5139H81.3862V56.3686ZM39.1659 47.0713C39.1659 49.2343 41.5918 49.4016 42.6434 49.4613H42.6554C50.3633 50.0111 54.9641 53.7515 54.9641 59.5713C54.9641 64.686 50.8533 69.8605 41.6754 69.8605C37.9396 69.9185 34.212 69.4927 30.5856 68.5937V61.1368C33.5749 62.3103 36.7552 62.922 39.9665 62.9413C43.3007 62.9413 45.2725 61.8418 45.2725 59.9776C45.2725 57.707 42.8585 57.5158 41.9503 57.5158C31.195 56.7749 30 50.4293 30 47.7285C30 43.044 33.3222 37.5828 42.6673 37.5708C46.3765 37.4627 50.0732 38.0504 53.566 39.3036H53.6974V46.6052H53.6018C52.8609 46.3304 52.12 46.0555 51.391 45.7448C48.9767 44.986 46.4741 44.5442 43.946 44.4303C42.6673 44.4303 39.1659 44.4303 39.1659 47.0713ZM105.992 69.5139H97.6267V46.1631H105.992V69.5139ZM121.635 69.5139V39.0765L130 37.5828V69.5139H121.635ZM117.859 37.5828L109.493 39.0765V69.5139H117.859V37.5828Z" fill="url(#paint0_linear_332_5)"/>
<defs>
<linearGradient id="paint0_linear_332_5" x1="160" y1="1" x2="-7.65153e-07" y2="100" gradientUnits="userSpaceOnUse">
<stop stop-color="#2FF8CC"/>
<stop offset="1" stop-color="#319793"/>
</linearGradient>
</defs>
</svg>
