<svg width="80" height="80" viewBox="0 0 80 80" fill="none" xmlns="http://www.w3.org/2000/svg">
<g clip-path="url(#clip0_226_48)">
<path d="M37.0236 29.2774V27.7774H35.5236H30.8364V29.2774H29.3364C29.3364 33.5167 32.2363 37.086 36.1566 38.1122V40.7605V42.2605H37.6566H42.3438H43.8438V40.7605V38.1008C47.7901 37.054 50.7065 33.4554 50.7065 29.182C50.7065 24.0927 46.5683 19.9545 41.4789 19.9545H38.5215C37.6735 19.9545 36.9811 19.2621 36.9811 18.414C36.9811 17.5661 37.6734 16.8738 38.5215 16.8738H41.4111C42.2608 16.8738 42.9546 17.5675 42.9546 18.4175V19.9175H44.4546H49.1418H50.6418V18.4175C50.6418 14.1665 47.757 10.5842 43.8437 9.51431V6.83568V5.33568H42.3437H37.6564H36.1564V6.83568V9.49525C32.2102 10.542 29.2937 14.1406 29.2937 18.414C29.2937 23.5035 33.432 27.6417 38.5214 27.6417H41.4787C42.3268 27.6417 43.0191 28.3341 43.0191 29.1821C43.0191 30.0302 42.3267 30.7226 41.4787 30.7226H38.4687C37.6732 30.7226 37.0236 30.073 37.0236 29.2774ZM40 1.5C52.1964 1.5 62.1213 11.4248 62.1213 23.6212C62.1213 35.8176 52.1963 45.7425 39.9999 45.7425C27.8035 45.7425 17.8787 35.8176 17.8787 23.6212C17.8787 11.4248 27.8036 1.5 40 1.5Z" fill="#2B9595" stroke="#2B9595" stroke-width="3"/>
<path d="M40 53.4298C45.088 53.4298 49.8834 52.1465 54.0788 49.8888V57.5043V59.0043H55.5788H62.0514V60.1786L40 78.0685L17.9485 60.1786V59.0043H24.4211H25.9211V57.5043V49.8888C30.1165 52.1466 34.9121 53.4298 40 53.4298Z" fill="#9EF4E5" stroke="#2B9595" stroke-width="3"/>
</g>
<defs>
<clipPath id="clip0_226_48">
<rect width="80" height="80" fill="white"/>
</clipPath>
</defs>
</svg>
