<svg width="24" height="24" viewBox="0 0 24 24" fill="none" xmlns="http://www.w3.org/2000/svg">
<path fill-rule="evenodd" clip-rule="evenodd" d="M16.8705 21.7863C17.129 21.9188 17.4155 21.9873 17.706 21.9861C18.0907 21.9875 18.4659 21.8666 18.7775 21.641C19.0593 21.4392 19.2775 21.1609 19.4062 20.8391C19.5349 20.5172 19.5689 20.1653 19.504 19.8248L18.6504 14.8483L22.2829 11.3248C22.5224 11.0883 22.6915 10.79 22.7714 10.463C22.8512 10.136 22.8386 9.79332 22.735 9.47309C22.6567 9.23101 22.5287 9.00899 22.3602 8.82076C22.3335 8.79087 22.3057 8.76183 22.2769 8.73369C22.2472 8.70463 22.2164 8.67654 22.1846 8.64947C21.9284 8.43124 21.6166 8.28849 21.2839 8.23717L21.2658 8.27349L16.2711 7.547L14.0371 3.02456C13.8884 2.71749 13.6562 2.45851 13.3671 2.27731C13.078 2.09611 12.7437 2 12.4025 2C12.0613 2 11.727 2.09611 11.4379 2.27731C11.1488 2.45851 10.9166 2.71749 10.7679 3.02456L8.53394 7.547L3.53928 8.27349C3.20664 8.32481 2.89481 8.46756 2.63858 8.6858C2.38234 8.90404 2.19179 9.18918 2.08819 9.50941C1.98458 9.82965 1.972 10.1724 2.05184 10.4993C2.13169 10.8263 2.30081 11.1247 2.54035 11.3611L6.17283 14.8846L5.3192 19.8611C5.25436 20.2016 5.28831 20.5535 5.41704 20.8754C5.54577 21.1972 5.76391 21.4755 6.04569 21.6773C6.30881 21.8594 6.61534 21.9687 6.93428 21.9942C7.25321 22.0197 7.57322 21.9605 7.86193 21.8226L12.4025 19.4252L16.8705 21.7863Z" fill="url(#paint0_linear_307_1233)"/>
<defs>
<linearGradient id="paint0_linear_307_1233" x1="2" y1="12" x2="22.8225" y2="11.5664" gradientUnits="userSpaceOnUse">
<stop stop-color="#E3AD41"/>
<stop offset="1" stop-color="#FFBF00"/>
</linearGradient>
</defs>
</svg>
