<svg width="67" height="56" viewBox="0 0 67 56" fill="none" xmlns="http://www.w3.org/2000/svg">
<rect x="11.5" y="0.5" width="55" height="55" rx="9.5" fill="white" stroke="#64CEB8"/>
<rect x="3" y="5" width="20" height="46" rx="10" fill="white"/>
<path d="M16.422 43V44H17.422V43H16.422ZM11.13 43H10.13V44H11.13V43ZM11.13 22.42L10.1309 22.3766L10.13 22.3983V22.42H11.13ZM11.214 20.488L12.2131 20.5314L12.2131 20.5296L11.214 20.488ZM11.298 18.64L12.2968 18.6899L12.4264 16.0974L10.5909 17.9329L11.298 18.64ZM10.248 19.648L10.9029 20.4037L10.9169 20.3916L10.9303 20.3791L10.248 19.648ZM8.946 20.782L9.5707 21.5629L9.58791 21.5491L9.60451 21.5346L8.946 20.782ZM5.586 23.47L4.80806 24.0983L5.43347 24.8727L6.2107 24.2509L5.586 23.47ZM2.94 20.194L2.3193 19.41L1.52755 20.0368L2.16206 20.8223L2.94 20.194ZM12.012 13.012V12.012H11.6641L11.3913 12.228L12.012 13.012ZM16.422 13.012H17.422V12.012H16.422V13.012ZM16.422 42H11.13V44H16.422V42ZM12.13 43V24.31H10.13V43H12.13ZM12.13 24.31C12.13 24.3088 12.13 24.3076 12.13 24.3064C12.13 24.3052 12.13 24.304 12.13 24.3028C12.13 24.3016 12.13 24.3004 12.13 24.2992C12.13 24.298 12.13 24.2968 12.13 24.2956C12.13 24.2944 12.13 24.2932 12.13 24.2919C12.13 24.2907 12.13 24.2895 12.13 24.2883C12.13 24.2871 12.13 24.2859 12.13 24.2847C12.13 24.2835 12.13 24.2823 12.13 24.2811C12.13 24.2799 12.13 24.2787 12.13 24.2775C12.13 24.2763 12.13 24.2751 12.13 24.2739C12.13 24.2727 12.13 24.2715 12.13 24.2703C12.13 24.2691 12.13 24.2679 12.13 24.2667C12.13 24.2655 12.13 24.2643 12.13 24.2631C12.13 24.2618 12.13 24.2606 12.13 24.2594C12.13 24.2582 12.13 24.257 12.13 24.2558C12.13 24.2546 12.13 24.2534 12.13 24.2522C12.13 24.251 12.13 24.2498 12.13 24.2486C12.13 24.2474 12.13 24.2462 12.13 24.245C12.13 24.2438 12.13 24.2426 12.13 24.2414C12.13 24.2402 12.13 24.239 12.13 24.2377C12.13 24.2365 12.13 24.2353 12.13 24.2341C12.13 24.2329 12.13 24.2317 12.13 24.2305C12.13 24.2293 12.13 24.2281 12.13 24.2269C12.13 24.2257 12.13 24.2245 12.13 24.2233C12.13 24.2221 12.13 24.2209 12.13 24.2197C12.13 24.2185 12.13 24.2173 12.13 24.216C12.13 24.2148 12.13 24.2136 12.13 24.2124C12.13 24.2112 12.13 24.21 12.13 24.2088C12.13 24.2076 12.13 24.2064 12.13 24.2052C12.13 24.204 12.13 24.2028 12.13 24.2016C12.13 24.2004 12.13 24.1992 12.13 24.198C12.13 24.1967 12.13 24.1955 12.13 24.1943C12.13 24.1931 12.13 24.1919 12.13 24.1907C12.13 24.1895 12.13 24.1883 12.13 24.1871C12.13 24.1859 12.13 24.1847 12.13 24.1835C12.13 24.1823 12.13 24.1811 12.13 24.1799C12.13 24.1786 12.13 24.1774 12.13 24.1762C12.13 24.175 12.13 24.1738 12.13 24.1726C12.13 24.1714 12.13 24.1702 12.13 24.169C12.13 24.1678 12.13 24.1666 12.13 24.1654C12.13 24.1642 12.13 24.163 12.13 24.1617C12.13 24.1605 12.13 24.1593 12.13 24.1581C12.13 24.1569 12.13 24.1557 12.13 24.1545C12.13 24.1533 12.13 24.1521 12.13 24.1509C12.13 24.1497 12.13 24.1485 12.13 24.1473C12.13 24.146 12.13 24.1448 12.13 24.1436C12.13 24.1424 12.13 24.1412 12.13 24.14C12.13 24.1388 12.13 24.1376 12.13 24.1364C12.13 24.1352 12.13 24.134 12.13 24.1328C12.13 24.1315 12.13 24.1303 12.13 24.1291C12.13 24.1279 12.13 24.1267 12.13 24.1255C12.13 24.1243 12.13 24.1231 12.13 24.1219C12.13 24.1207 12.13 24.1195 12.13 24.1183C12.13 24.117 12.13 24.1158 12.13 24.1146C12.13 24.1134 12.13 24.1122 12.13 24.111C12.13 24.1098 12.13 24.1086 12.13 24.1074C12.13 24.1062 12.13 24.105 12.13 24.1037C12.13 24.1025 12.13 24.1013 12.13 24.1001C12.13 24.0989 12.13 24.0977 12.13 24.0965C12.13 24.0953 12.13 24.0941 12.13 24.0929C12.13 24.0917 12.13 24.0904 12.13 24.0892C12.13 24.088 12.13 24.0868 12.13 24.0856C12.13 24.0844 12.13 24.0832 12.13 24.082C12.13 24.0808 12.13 24.0796 12.13 24.0783C12.13 24.0771 12.13 24.0759 12.13 24.0747C12.13 24.0735 12.13 24.0723 12.13 24.0711C12.13 24.0699 12.13 24.0687 12.13 24.0675C12.13 24.0662 12.13 24.065 12.13 24.0638C12.13 24.0626 12.13 24.0614 12.13 24.0602C12.13 24.059 12.13 24.0578 12.13 24.0566C12.13 24.0553 12.13 24.0541 12.13 24.0529C12.13 24.0517 12.13 24.0505 12.13 24.0493C12.13 24.0481 12.13 24.0469 12.13 24.0457C12.13 24.0445 12.13 24.0432 12.13 24.042C12.13 24.0408 12.13 24.0396 12.13 24.0384C12.13 24.0372 12.13 24.036 12.13 24.0348C12.13 24.0336 12.13 24.0323 12.13 24.0311C12.13 24.0299 12.13 24.0287 12.13 24.0275C12.13 24.0263 12.13 24.0251 12.13 24.0239C12.13 24.0226 12.13 24.0214 12.13 24.0202C12.13 24.019 12.13 24.0178 12.13 24.0166C12.13 24.0154 12.13 24.0142 12.13 24.013C12.13 24.0117 12.13 24.0105 12.13 24.0093C12.13 24.0081 12.13 24.0069 12.13 24.0057C12.13 24.0045 12.13 24.0033 12.13 24.002C12.13 24.0008 12.13 23.9996 12.13 23.9984C12.13 23.9972 12.13 23.996 12.13 23.9948C12.13 23.9936 12.13 23.9923 12.13 23.9911C12.13 23.9899 12.13 23.9887 12.13 23.9875C12.13 23.9863 12.13 23.9851 12.13 23.9839C12.13 23.9826 12.13 23.9814 12.13 23.9802C12.13 23.979 12.13 23.9778 12.13 23.9766C12.13 23.9754 12.13 23.9742 12.13 23.9729C12.13 23.9717 12.13 23.9705 12.13 23.9693C12.13 23.9681 12.13 23.9669 12.13 23.9657C12.13 23.9644 12.13 23.9632 12.13 23.962C12.13 23.9608 12.13 23.9596 12.13 23.9584C12.13 23.9572 12.13 23.956 12.13 23.9547C12.13 23.9535 12.13 23.9523 12.13 23.9511C12.13 23.9499 12.13 23.9487 12.13 23.9475C12.13 23.9462 12.13 23.945 12.13 23.9438C12.13 23.9426 12.13 23.9414 12.13 23.9402C12.13 23.939 12.13 23.9377 12.13 23.9365C12.13 23.9353 12.13 23.9341 12.13 23.9329C12.13 23.9317 12.13 23.9305 12.13 23.9292C12.13 23.928 12.13 23.9268 12.13 23.9256C12.13 23.9244 12.13 23.9232 12.13 23.922C12.13 23.9207 12.13 23.9195 12.13 23.9183C12.13 23.9171 12.13 23.9159 12.13 23.9147C12.13 23.9135 12.13 23.9122 12.13 23.911C12.13 23.9098 12.13 23.9086 12.13 23.9074C12.13 23.9062 12.13 23.905 12.13 23.9037C12.13 23.9025 12.13 23.9013 12.13 23.9001C12.13 23.8989 12.13 23.8977 12.13 23.8964C12.13 23.8952 12.13 23.894 12.13 23.8928C12.13 23.8916 12.13 23.8904 12.13 23.8892C12.13 23.8879 12.13 23.8867 12.13 23.8855C12.13 23.8843 12.13 23.8831 12.13 23.8819C12.13 23.8806 12.13 23.8794 12.13 23.8782C12.13 23.877 12.13 23.8758 12.13 23.8746C12.13 23.8734 12.13 23.8721 12.13 23.8709C12.13 23.8697 12.13 23.8685 12.13 23.8673C12.13 23.8661 12.13 23.8648 12.13 23.8636C12.13 23.8624 12.13 23.8612 12.13 23.86C12.13 23.8588 12.13 23.8575 12.13 23.8563C12.13 23.8551 12.13 23.8539 12.13 23.8527C12.13 23.8515 12.13 23.8502 12.13 23.849C12.13 23.8478 12.13 23.8466 12.13 23.8454C12.13 23.8442 12.13 23.8429 12.13 23.8417C12.13 23.8405 12.13 23.8393 12.13 23.8381C12.13 23.8369 12.13 23.8356 12.13 23.8344C12.13 23.8332 12.13 23.832 12.13 23.8308C12.13 23.8296 12.13 23.8283 12.13 23.8271C12.13 23.8259 12.13 23.8247 12.13 23.8235C12.13 23.8222 12.13 23.821 12.13 23.8198C12.13 23.8186 12.13 23.8174 12.13 23.8162C12.13 23.8149 12.13 23.8137 12.13 23.8125C12.13 23.8113 12.13 23.8101 12.13 23.8089C12.13 23.8076 12.13 23.8064 12.13 23.8052C12.13 23.804 12.13 23.8028 12.13 23.8015C12.13 23.8003 12.13 23.7991 12.13 23.7979C12.13 23.7967 12.13 23.7955 12.13 23.7942C12.13 23.793 12.13 23.7918 12.13 23.7906C12.13 23.7894 12.13 23.7881 12.13 23.7869C12.13 23.7857 12.13 23.7845 12.13 23.7833C12.13 23.7821 12.13 23.7808 12.13 23.7796C12.13 23.7784 12.13 23.7772 12.13 23.776C12.13 23.7747 12.13 23.7735 12.13 23.7723C12.13 23.7711 12.13 23.7699 12.13 23.7686C12.13 23.7674 12.13 23.7662 12.13 23.765C12.13 23.7638 12.13 23.7625 12.13 23.7613C12.13 23.7601 12.13 23.7589 12.13 23.7577C12.13 23.7565 12.13 23.7552 12.13 23.754C12.13 23.7528 12.13 23.7516 12.13 23.7504C12.13 23.7491 12.13 23.7479 12.13 23.7467C12.13 23.7455 12.13 23.7443 12.13 23.743C12.13 23.7418 12.13 23.7406 12.13 23.7394C12.13 23.7382 12.13 23.7369 12.13 23.7357C12.13 23.7345 12.13 23.7333 12.13 23.7321C12.13 23.7308 12.13 23.7296 12.13 23.7284C12.13 23.7272 12.13 23.726 12.13 23.7247C12.13 23.7235 12.13 23.7223 12.13 23.7211C12.13 23.7199 12.13 23.7186 12.13 23.7174C12.13 23.7162 12.13 23.715 12.13 23.7138C12.13 23.7125 12.13 23.7113 12.13 23.7101C12.13 23.7089 12.13 23.7076 12.13 23.7064C12.13 23.7052 12.13 23.704 12.13 23.7028C12.13 23.7015 12.13 23.7003 12.13 23.6991C12.13 23.6979 12.13 23.6967 12.13 23.6954C12.13 23.6942 12.13 23.693 12.13 23.6918C12.13 23.6906 12.13 23.6893 12.13 23.6881C12.13 23.6869 12.13 23.6857 12.13 23.6844C12.13 23.6832 12.13 23.682 12.13 23.6808C12.13 23.6796 12.13 23.6783 12.13 23.6771C12.13 23.6759 12.13 23.6747 12.13 23.6735C12.13 23.6722 12.13 23.671 12.13 23.6698C12.13 23.6686 12.13 23.6673 12.13 23.6661C12.13 23.6649 12.13 23.6637 12.13 23.6625C12.13 23.6612 12.13 23.66 12.13 23.6588C12.13 23.6576 12.13 23.6563 12.13 23.6551C12.13 23.6539 12.13 23.6527 12.13 23.6515C12.13 23.6502 12.13 23.649 12.13 23.6478C12.13 23.6466 12.13 23.6453 12.13 23.6441C12.13 23.6429 12.13 23.6417 12.13 23.6405C12.13 23.6392 12.13 23.638 12.13 23.6368C12.13 23.6356 12.13 23.6343 12.13 23.6331C12.13 23.6319 12.13 23.6307 12.13 23.6294C12.13 23.6282 12.13 23.627 12.13 23.6258C12.13 23.6246 12.13 23.6233 12.13 23.6221C12.13 23.6209 12.13 23.6197 12.13 23.6184C12.13 23.6172 12.13 23.616 12.13 23.6148C12.13 23.6135 12.13 23.6123 12.13 23.6111C12.13 23.6099 12.13 23.6086 12.13 23.6074C12.13 23.6062 12.13 23.605 12.13 23.6038C12.13 23.6025 12.13 23.6013 12.13 23.6001C12.13 23.5989 12.13 23.5976 12.13 23.5964C12.13 23.5952 12.13 23.594 12.13 23.5927C12.13 23.5915 12.13 23.5903 12.13 23.5891C12.13 23.5878 12.13 23.5866 12.13 23.5854C12.13 23.5842 12.13 23.5829 12.13 23.5817C12.13 23.5805 12.13 23.5793 12.13 23.578C12.13 23.5768 12.13 23.5756 12.13 23.5744C12.13 23.5731 12.13 23.5719 12.13 23.5707C12.13 23.5695 12.13 23.5682 12.13 23.567C12.13 23.5658 12.13 23.5646 12.13 23.5633C12.13 23.5621 12.13 23.5609 12.13 23.5597C12.13 23.5584 12.13 23.5572 12.13 23.556C12.13 23.5548 12.13 23.5535 12.13 23.5523C12.13 23.5511 12.13 23.5499 12.13 23.5486C12.13 23.5474 12.13 23.5462 12.13 23.545C12.13 23.5437 12.13 23.5425 12.13 23.5413C12.13 23.5401 12.13 23.5388 12.13 23.5376C12.13 23.5364 12.13 23.5352 12.13 23.5339C12.13 23.5327 12.13 23.5315 12.13 23.5303C12.13 23.529 12.13 23.5278 12.13 23.5266C12.13 23.5254 12.13 23.5241 12.13 23.5229C12.13 23.5217 12.13 23.5204 12.13 23.5192C12.13 23.518 12.13 23.5168 12.13 23.5155C12.13 23.5143 12.13 23.5131 12.13 23.5119C12.13 23.5106 12.13 23.5094 12.13 23.5082C12.13 23.507 12.13 23.5057 12.13 23.5045C12.13 23.5033 12.13 23.502 12.13 23.5008C12.13 23.4996 12.13 23.4984 12.13 23.4971C12.13 23.4959 12.13 23.4947 12.13 23.4935C12.13 23.4922 12.13 23.491 12.13 23.4898C12.13 23.4886 12.13 23.4873 12.13 23.4861C12.13 23.4849 12.13 23.4836 12.13 23.4824C12.13 23.4812 12.13 23.48 12.13 23.4787C12.13 23.4775 12.13 23.4763 12.13 23.4751C12.13 23.4738 12.13 23.4726 12.13 23.4714C12.13 23.4701 12.13 23.4689 12.13 23.4677C12.13 23.4665 12.13 23.4652 12.13 23.464C12.13 23.4628 12.13 23.4615 12.13 23.4603C12.13 23.4591 12.13 23.4579 12.13 23.4566C12.13 23.4554 12.13 23.4542 12.13 23.4529C12.13 23.4517 12.13 23.4505 12.13 23.4493C12.13 23.448 12.13 23.4468 12.13 23.4456C12.13 23.4444 12.13 23.4431 12.13 23.4419C12.13 23.4407 12.13 23.4394 12.13 23.4382C12.13 23.437 12.13 23.4358 12.13 23.4345C12.13 23.4333 12.13 23.4321 12.13 23.4308C12.13 23.4296 12.13 23.4284 12.13 23.4271C12.13 23.4259 12.13 23.4247 12.13 23.4235C12.13 23.4222 12.13 23.421 12.13 23.4198C12.13 23.4185 12.13 23.4173 12.13 23.4161C12.13 23.4149 12.13 23.4136 12.13 23.4124C12.13 23.4112 12.13 23.4099 12.13 23.4087C12.13 23.4075 12.13 23.4062 12.13 23.405C12.13 23.4038 12.13 23.4026 12.13 23.4013C12.13 23.4001 12.13 23.3989 12.13 23.3976C12.13 23.3964 12.13 23.3952 12.13 23.394C12.13 23.3927 12.13 23.3915 12.13 23.3903C12.13 23.389 12.13 23.3878 12.13 23.3866C12.13 23.3853 12.13 23.3841 12.13 23.3829C12.13 23.3817 12.13 23.3804 12.13 23.3792C12.13 23.378 12.13 23.3767 12.13 23.3755C12.13 23.3743 12.13 23.373 12.13 23.3718C12.13 23.3706 12.13 23.3693 12.13 23.3681C12.13 23.3669 12.13 23.3657 12.13 23.3644C12.13 23.3632 12.13 23.362 12.13 23.3607C12.13 23.3595 12.13 23.3583 12.13 23.357C12.13 23.3558 12.13 23.3546 12.13 23.3533C12.13 23.3521 12.13 23.3509 12.13 23.3497C12.13 23.3484 12.13 23.3472 12.13 23.346C12.13 23.3447 12.13 23.3435 12.13 23.3423C12.13 23.341 12.13 23.3398 12.13 23.3386C12.13 23.3373 12.13 23.3361 12.13 23.3349C12.13 23.3336 12.13 23.3324 12.13 23.3312C12.13 23.3299 12.13 23.3287 12.13 23.3275C12.13 23.3263 12.13 23.325 12.13 23.3238C12.13 23.3226 12.13 23.3213 12.13 23.3201C12.13 23.3189 12.13 23.3176 12.13 23.3164C12.13 23.3152 12.13 23.3139 12.13 23.3127C12.13 23.3115 12.13 23.3102 12.13 23.309C12.13 23.3078 12.13 23.3065 12.13 23.3053C12.13 23.3041 12.13 23.3028 12.13 23.3016C12.13 23.3004 12.13 23.2991 12.13 23.2979C12.13 23.2967 12.13 23.2954 12.13 23.2942C12.13 23.293 12.13 23.2917 12.13 23.2905C12.13 23.2893 12.13 23.288 12.13 23.2868C12.13 23.2856 12.13 23.2843 12.13 23.2831C12.13 23.2819 12.13 23.2806 12.13 23.2794C12.13 23.2782 12.13 23.2769 12.13 23.2757C12.13 23.2745 12.13 23.2732 12.13 23.272C12.13 23.2708 12.13 23.2695 12.13 23.2683C12.13 23.2671 12.13 23.2658 12.13 23.2646C12.13 23.2634 12.13 23.2621 12.13 23.2609C12.13 23.2597 12.13 23.2584 12.13 23.2572C12.13 23.256 12.13 23.2547 12.13 23.2535C12.13 23.2523 12.13 23.251 12.13 23.2498C12.13 23.2486 12.13 23.2473 12.13 23.2461C12.13 23.2449 12.13 23.2436 12.13 23.2424C12.13 23.2412 12.13 23.2399 12.13 23.2387C12.13 23.2375 12.13 23.2362 12.13 23.235C12.13 23.2338 12.13 23.2325 12.13 23.2313C12.13 23.2301 12.13 23.2288 12.13 23.2276C12.13 23.2264 12.13 23.2251 12.13 23.2239C12.13 23.2226 12.13 23.2214 12.13 23.2202C12.13 23.2189 12.13 23.2177 12.13 23.2165C12.13 23.2152 12.13 23.214 12.13 23.2128C12.13 23.2115 12.13 23.2103 12.13 23.2091C12.13 23.2078 12.13 23.2066 12.13 23.2054C12.13 23.2041 12.13 23.2029 12.13 23.2016C12.13 23.2004 12.13 23.1992 12.13 23.1979C12.13 23.1967 12.13 23.1955 12.13 23.1942C12.13 23.193 12.13 23.1918 12.13 23.1905C12.13 23.1893 12.13 23.1881 12.13 23.1868C12.13 23.1856 12.13 23.1843 12.13 23.1831C12.13 23.1819 12.13 23.1806 12.13 23.1794C12.13 23.1782 12.13 23.1769 12.13 23.1757C12.13 23.1745 12.13 23.1732 12.13 23.172C12.13 23.1708 12.13 23.1695 12.13 23.1683C12.13 23.167 12.13 23.1658 12.13 23.1646C12.13 23.1633 12.13 23.1621 12.13 23.1609C12.13 23.1596 12.13 23.1584 12.13 23.1571C12.13 23.1559 12.13 23.1547 12.13 23.1534C12.13 23.1522 12.13 23.151 12.13 23.1497C12.13 23.1485 12.13 23.1473 12.13 23.146C12.13 23.1448 12.13 23.1435 12.13 23.1423C12.13 23.1411 12.13 23.1398 12.13 23.1386C12.13 23.1374 12.13 23.1361 12.13 23.1349C12.13 23.1336 12.13 23.1324 12.13 23.1312C12.13 23.1299 12.13 23.1287 12.13 23.1275C12.13 23.1262 12.13 23.125 12.13 23.1237C12.13 23.1225 12.13 23.1213 12.13 23.12C12.13 23.1188 12.13 23.1176 12.13 23.1163C12.13 23.1151 12.13 23.1138 12.13 23.1126C12.13 23.1114 12.13 23.1101 12.13 23.1089C12.13 23.1076 12.13 23.1064 12.13 23.1052C12.13 23.1039 12.13 23.1027 12.13 23.1015C12.13 23.1002 12.13 23.099 12.13 23.0977C12.13 23.0965 12.13 23.0953 12.13 23.094C12.13 23.0928 12.13 23.0915 12.13 23.0903C12.13 23.0891 12.13 23.0878 12.13 23.0866C12.13 23.0854 12.13 23.0841 12.13 23.0829C12.13 23.0816 12.13 23.0804 12.13 23.0792C12.13 23.0779 12.13 23.0767 12.13 23.0754C12.13 23.0742 12.13 23.073 12.13 23.0717C12.13 23.0705 12.13 23.0692 12.13 23.068C12.13 23.0668 12.13 23.0655 12.13 23.0643C12.13 23.0631 12.13 23.0618 12.13 23.0606C12.13 23.0593 12.13 23.0581 12.13 23.0569C12.13 23.0556 12.13 23.0544 12.13 23.0531C12.13 23.0519 12.13 23.0507 12.13 23.0494C12.13 23.0482 12.13 23.0469 12.13 23.0457C12.13 23.0445 12.13 23.0432 12.13 23.042C12.13 23.0407 12.13 23.0395 12.13 23.0383C12.13 23.037 12.13 23.0358 12.13 23.0345C12.13 23.0333 12.13 23.0321 12.13 23.0308C12.13 23.0296 12.13 23.0283 12.13 23.0271C12.13 23.0259 12.13 23.0246 12.13 23.0234C12.13 23.0221 12.13 23.0209 12.13 23.0196C12.13 23.0184 12.13 23.0172 12.13 23.0159C12.13 23.0147 12.13 23.0134 12.13 23.0122C12.13 23.011 12.13 23.0097 12.13 23.0085C12.13 23.0072 12.13 23.006 12.13 23.0048C12.13 23.0035 12.13 23.0023 12.13 23.001C12.13 22.9998 12.13 22.9986 12.13 22.9973C12.13 22.9961 12.13 22.9948 12.13 22.9936C12.13 22.9923 12.13 22.9911 12.13 22.9899C12.13 22.9886 12.13 22.9874 12.13 22.9861C12.13 22.9849 12.13 22.9837 12.13 22.9824C12.13 22.9812 12.13 22.9799 12.13 22.9787C12.13 22.9774 12.13 22.9762 12.13 22.975C12.13 22.9737 12.13 22.9725 12.13 22.9712C12.13 22.97 12.13 22.9687 12.13 22.9675C12.13 22.9663 12.13 22.965 12.13 22.9638C12.13 22.9625 12.13 22.9613 12.13 22.9601C12.13 22.9588 12.13 22.9576 12.13 22.9563C12.13 22.9551 12.13 22.9538 12.13 22.9526C12.13 22.9514 12.13 22.9501 12.13 22.9489C12.13 22.9476 12.13 22.9464 12.13 22.9451C12.13 22.9439 12.13 22.9427 12.13 22.9414C12.13 22.9402 12.13 22.9389 12.13 22.9377C12.13 22.9364 12.13 22.9352 12.13 22.934C12.13 22.9327 12.13 22.9315 12.13 22.9302C12.13 22.929 12.13 22.9277 12.13 22.9265C12.13 22.9253 12.13 22.924 12.13 22.9228C12.13 22.9215 12.13 22.9203 12.13 22.919C12.13 22.9178 12.13 22.9165 12.13 22.9153C12.13 22.9141 12.13 22.9128 12.13 22.9116C12.13 22.9103 12.13 22.9091 12.13 22.9078C12.13 22.9066 12.13 22.9054 12.13 22.9041C12.13 22.9029 12.13 22.9016 12.13 22.9004C12.13 22.8991 12.13 22.8979 12.13 22.8966C12.13 22.8954 12.13 22.8942 12.13 22.8929C12.13 22.8917 12.13 22.8904 12.13 22.8892C12.13 22.8879 12.13 22.8867 12.13 22.8854C12.13 22.8842 12.13 22.883 12.13 22.8817C12.13 22.8805 12.13 22.8792 12.13 22.878C12.13 22.8767 12.13 22.8755 12.13 22.8742C12.13 22.873 12.13 22.8717 12.13 22.8705C12.13 22.8693 12.13 22.868 12.13 22.8668C12.13 22.8655 12.13 22.8643 12.13 22.863C12.13 22.8618 12.13 22.8605 12.13 22.8593C12.13 22.8581 12.13 22.8568 12.13 22.8556C12.13 22.8543 12.13 22.8531 12.13 22.8518C12.13 22.8506 12.13 22.8493 12.13 22.8481C12.13 22.8468 12.13 22.8456 12.13 22.8444C12.13 22.8431 12.13 22.8419 12.13 22.8406C12.13 22.8394 12.13 22.8381 12.13 22.8369C12.13 22.8356 12.13 22.8344 12.13 22.8331C12.13 22.8319 12.13 22.8306 12.13 22.8294C12.13 22.8282 12.13 22.8269 12.13 22.8257C12.13 22.8244 12.13 22.8232 12.13 22.8219C12.13 22.8207 12.13 22.8194 12.13 22.8182C12.13 22.8169 12.13 22.8157 12.13 22.8144C12.13 22.8132 12.13 22.812 12.13 22.8107C12.13 22.8095 12.13 22.8082 12.13 22.807C12.13 22.8057 12.13 22.8045 12.13 22.8032C12.13 22.802 12.13 22.8007 12.13 22.7995C12.13 22.7982 12.13 22.797 12.13 22.7957C12.13 22.7945 12.13 22.7932 12.13 22.792C12.13 22.7908 12.13 22.7895 12.13 22.7883C12.13 22.787 12.13 22.7858 12.13 22.7845C12.13 22.7833 12.13 22.782 12.13 22.7808C12.13 22.7795 12.13 22.7783 12.13 22.777C12.13 22.7758 12.13 22.7745 12.13 22.7733C12.13 22.772 12.13 22.7708 12.13 22.7695C12.13 22.7683 12.13 22.767 12.13 22.7658C12.13 22.7646 12.13 22.7633 12.13 22.7621C12.13 22.7608 12.13 22.7596 12.13 22.7583C12.13 22.7571 12.13 22.7558 12.13 22.7546C12.13 22.7533 12.13 22.7521 12.13 22.7508C12.13 22.7496 12.13 22.7483 12.13 22.7471C12.13 22.7458 12.13 22.7446 12.13 22.7433C12.13 22.7421 12.13 22.7408 12.13 22.7396C12.13 22.7383 12.13 22.7371 12.13 22.7358C12.13 22.7346 12.13 22.7333 12.13 22.7321C12.13 22.7308 12.13 22.7296 12.13 22.7283C12.13 22.7271 12.13 22.7258 12.13 22.7246C12.13 22.7233 12.13 22.7221 12.13 22.7208C12.13 22.7196 12.13 22.7184 12.13 22.7171C12.13 22.7159 12.13 22.7146 12.13 22.7134C12.13 22.7121 12.13 22.7109 12.13 22.7096C12.13 22.7084 12.13 22.7071 12.13 22.7059C12.13 22.7046 12.13 22.7034 12.13 22.7021C12.13 22.7009 12.13 22.6996 12.13 22.6984C12.13 22.6971 12.13 22.6959 12.13 22.6946C12.13 22.6934 12.13 22.6921 12.13 22.6909C12.13 22.6896 12.13 22.6884 12.13 22.6871C12.13 22.6859 12.13 22.6846 12.13 22.6834C12.13 22.6821 12.13 22.6809 12.13 22.6796C12.13 22.6784 12.13 22.6771 12.13 22.6759C12.13 22.6746 12.13 22.6734 12.13 22.6721C12.13 22.6708 12.13 22.6696 12.13 22.6683C12.13 22.6671 12.13 22.6658 12.13 22.6646C12.13 22.6633 12.13 22.6621 12.13 22.6608C12.13 22.6596 12.13 22.6583 12.13 22.6571C12.13 22.6558 12.13 22.6546 12.13 22.6533C12.13 22.6521 12.13 22.6508 12.13 22.6496C12.13 22.6483 12.13 22.6471 12.13 22.6458C12.13 22.6446 12.13 22.6433 12.13 22.6421C12.13 22.6408 12.13 22.6396 12.13 22.6383C12.13 22.6371 12.13 22.6358 12.13 22.6346C12.13 22.6333 12.13 22.6321 12.13 22.6308C12.13 22.6296 12.13 22.6283 12.13 22.6271C12.13 22.6258 12.13 22.6245 12.13 22.6233C12.13 22.622 12.13 22.6208 12.13 22.6195C12.13 22.6183 12.13 22.617 12.13 22.6158C12.13 22.6145 12.13 22.6133 12.13 22.612C12.13 22.6108 12.13 22.6095 12.13 22.6083C12.13 22.607 12.13 22.6058 12.13 22.6045C12.13 22.6033 12.13 22.602 12.13 22.6008C12.13 22.5995 12.13 22.5983 12.13 22.597C12.13 22.5957 12.13 22.5945 12.13 22.5932C12.13 22.592 12.13 22.5907 12.13 22.5895C12.13 22.5882 12.13 22.587 12.13 22.5857C12.13 22.5845 12.13 22.5832 12.13 22.582C12.13 22.5807 12.13 22.5795 12.13 22.5782C12.13 22.5769 12.13 22.5757 12.13 22.5744C12.13 22.5732 12.13 22.5719 12.13 22.5707C12.13 22.5694 12.13 22.5682 12.13 22.5669C12.13 22.5657 12.13 22.5644 12.13 22.5632C12.13 22.5619 12.13 22.5607 12.13 22.5594C12.13 22.5581 12.13 22.5569 12.13 22.5556C12.13 22.5544 12.13 22.5531 12.13 22.5519C12.13 22.5506 12.13 22.5494 12.13 22.5481C12.13 22.5469 12.13 22.5456 12.13 22.5443C12.13 22.5431 12.13 22.5418 12.13 22.5406C12.13 22.5393 12.13 22.5381 12.13 22.5368C12.13 22.5356 12.13 22.5343 12.13 22.5331C12.13 22.5318 12.13 22.5305 12.13 22.5293C12.13 22.528 12.13 22.5268 12.13 22.5255C12.13 22.5243 12.13 22.523 12.13 22.5218C12.13 22.5205 12.13 22.5193 12.13 22.518C12.13 22.5167 12.13 22.5155 12.13 22.5142C12.13 22.513 12.13 22.5117 12.13 22.5105C12.13 22.5092 12.13 22.508 12.13 22.5067C12.13 22.5054 12.13 22.5042 12.13 22.5029C12.13 22.5017 12.13 22.5004 12.13 22.4992C12.13 22.4979 12.13 22.4967 12.13 22.4954C12.13 22.4941 12.13 22.4929 12.13 22.4916C12.13 22.4904 12.13 22.4891 12.13 22.4879C12.13 22.4866 12.13 22.4854 12.13 22.4841C12.13 22.4828 12.13 22.4816 12.13 22.4803C12.13 22.4791 12.13 22.4778 12.13 22.4766C12.13 22.4753 12.13 22.4741 12.13 22.4728C12.13 22.4715 12.13 22.4703 12.13 22.469C12.13 22.4678 12.13 22.4665 12.13 22.4653C12.13 22.464 12.13 22.4627 12.13 22.4615C12.13 22.4602 12.13 22.459 12.13 22.4577C12.13 22.4565 12.13 22.4552 12.13 22.4539C12.13 22.4527 12.13 22.4514 12.13 22.4502C12.13 22.4489 12.13 22.4477 12.13 22.4464C12.13 22.4451 12.13 22.4439 12.13 22.4426C12.13 22.4414 12.13 22.4401 12.13 22.4389C12.13 22.4376 12.13 22.4363 12.13 22.4351C12.13 22.4338 12.13 22.4326 12.13 22.4313C12.13 22.4301 12.13 22.4288 12.13 22.4275C12.13 22.4263 12.13 22.425 12.13 22.4238C12.13 22.4225 12.13 22.4213 12.13 22.42H10.13C10.13 22.4213 10.13 22.4225 10.13 22.4238C10.13 22.425 10.13 22.4263 10.13 22.4275C10.13 22.4288 10.13 22.4301 10.13 22.4313C10.13 22.4326 10.13 22.4338 10.13 22.4351C10.13 22.4363 10.13 22.4376 10.13 22.4389C10.13 22.4401 10.13 22.4414 10.13 22.4426C10.13 22.4439 10.13 22.4451 10.13 22.4464C10.13 22.4477 10.13 22.4489 10.13 22.4502C10.13 22.4514 10.13 22.4527 10.13 22.4539C10.13 22.4552 10.13 22.4565 10.13 22.4577C10.13 22.459 10.13 22.4602 10.13 22.4615C10.13 22.4627 10.13 22.464 10.13 22.4653C10.13 22.4665 10.13 22.4678 10.13 22.469C10.13 22.4703 10.13 22.4715 10.13 22.4728C10.13 22.4741 10.13 22.4753 10.13 22.4766C10.13 22.4778 10.13 22.4791 10.13 22.4803C10.13 22.4816 10.13 22.4828 10.13 22.4841C10.13 22.4854 10.13 22.4866 10.13 22.4879C10.13 22.4891 10.13 22.4904 10.13 22.4916C10.13 22.4929 10.13 22.4941 10.13 22.4954C10.13 22.4967 10.13 22.4979 10.13 22.4992C10.13 22.5004 10.13 22.5017 10.13 22.5029C10.13 22.5042 10.13 22.5054 10.13 22.5067C10.13 22.508 10.13 22.5092 10.13 22.5105C10.13 22.5117 10.13 22.513 10.13 22.5142C10.13 22.5155 10.13 22.5167 10.13 22.518C10.13 22.5193 10.13 22.5205 10.13 22.5218C10.13 22.523 10.13 22.5243 10.13 22.5255C10.13 22.5268 10.13 22.528 10.13 22.5293C10.13 22.5305 10.13 22.5318 10.13 22.5331C10.13 22.5343 10.13 22.5356 10.13 22.5368C10.13 22.5381 10.13 22.5393 10.13 22.5406C10.13 22.5418 10.13 22.5431 10.13 22.5443C10.13 22.5456 10.13 22.5469 10.13 22.5481C10.13 22.5494 10.13 22.5506 10.13 22.5519C10.13 22.5531 10.13 22.5544 10.13 22.5556C10.13 22.5569 10.13 22.5581 10.13 22.5594C10.13 22.5607 10.13 22.5619 10.13 22.5632C10.13 22.5644 10.13 22.5657 10.13 22.5669C10.13 22.5682 10.13 22.5694 10.13 22.5707C10.13 22.5719 10.13 22.5732 10.13 22.5744C10.13 22.5757 10.13 22.5769 10.13 22.5782C10.13 22.5795 10.13 22.5807 10.13 22.582C10.13 22.5832 10.13 22.5845 10.13 22.5857C10.13 22.587 10.13 22.5882 10.13 22.5895C10.13 22.5907 10.13 22.592 10.13 22.5932C10.13 22.5945 10.13 22.5957 10.13 22.597C10.13 22.5983 10.13 22.5995 10.13 22.6008C10.13 22.602 10.13 22.6033 10.13 22.6045C10.13 22.6058 10.13 22.607 10.13 22.6083C10.13 22.6095 10.13 22.6108 10.13 22.612C10.13 22.6133 10.13 22.6145 10.13 22.6158C10.13 22.617 10.13 22.6183 10.13 22.6195C10.13 22.6208 10.13 22.622 10.13 22.6233C10.13 22.6245 10.13 22.6258 10.13 22.6271C10.13 22.6283 10.13 22.6296 10.13 22.6308C10.13 22.6321 10.13 22.6333 10.13 22.6346C10.13 22.6358 10.13 22.6371 10.13 22.6383C10.13 22.6396 10.13 22.6408 10.13 22.6421C10.13 22.6433 10.13 22.6446 10.13 22.6458C10.13 22.6471 10.13 22.6483 10.13 22.6496C10.13 22.6508 10.13 22.6521 10.13 22.6533C10.13 22.6546 10.13 22.6558 10.13 22.6571C10.13 22.6583 10.13 22.6596 10.13 22.6608C10.13 22.6621 10.13 22.6633 10.13 22.6646C10.13 22.6658 10.13 22.6671 10.13 22.6683C10.13 22.6696 10.13 22.6708 10.13 22.6721C10.13 22.6734 10.13 22.6746 10.13 22.6759C10.13 22.6771 10.13 22.6784 10.13 22.6796C10.13 22.6809 10.13 22.6821 10.13 22.6834C10.13 22.6846 10.13 22.6859 10.13 22.6871C10.13 22.6884 10.13 22.6896 10.13 22.6909C10.13 22.6921 10.13 22.6934 10.13 22.6946C10.13 22.6959 10.13 22.6971 10.13 22.6984C10.13 22.6996 10.13 22.7009 10.13 22.7021C10.13 22.7034 10.13 22.7046 10.13 22.7059C10.13 22.7071 10.13 22.7084 10.13 22.7096C10.13 22.7109 10.13 22.7121 10.13 22.7134C10.13 22.7146 10.13 22.7159 10.13 22.7171C10.13 22.7184 10.13 22.7196 10.13 22.7208C10.13 22.7221 10.13 22.7233 10.13 22.7246C10.13 22.7258 10.13 22.7271 10.13 22.7283C10.13 22.7296 10.13 22.7308 10.13 22.7321C10.13 22.7333 10.13 22.7346 10.13 22.7358C10.13 22.7371 10.13 22.7383 10.13 22.7396C10.13 22.7408 10.13 22.7421 10.13 22.7433C10.13 22.7446 10.13 22.7458 10.13 22.7471C10.13 22.7483 10.13 22.7496 10.13 22.7508C10.13 22.7521 10.13 22.7533 10.13 22.7546C10.13 22.7558 10.13 22.7571 10.13 22.7583C10.13 22.7596 10.13 22.7608 10.13 22.7621C10.13 22.7633 10.13 22.7646 10.13 22.7658C10.13 22.767 10.13 22.7683 10.13 22.7695C10.13 22.7708 10.13 22.772 10.13 22.7733C10.13 22.7745 10.13 22.7758 10.13 22.777C10.13 22.7783 10.13 22.7795 10.13 22.7808C10.13 22.782 10.13 22.7833 10.13 22.7845C10.13 22.7858 10.13 22.787 10.13 22.7883C10.13 22.7895 10.13 22.7908 10.13 22.792C10.13 22.7932 10.13 22.7945 10.13 22.7957C10.13 22.797 10.13 22.7982 10.13 22.7995C10.13 22.8007 10.13 22.802 10.13 22.8032C10.13 22.8045 10.13 22.8057 10.13 22.807C10.13 22.8082 10.13 22.8095 10.13 22.8107C10.13 22.812 10.13 22.8132 10.13 22.8144C10.13 22.8157 10.13 22.8169 10.13 22.8182C10.13 22.8194 10.13 22.8207 10.13 22.8219C10.13 22.8232 10.13 22.8244 10.13 22.8257C10.13 22.8269 10.13 22.8282 10.13 22.8294C10.13 22.8306 10.13 22.8319 10.13 22.8331C10.13 22.8344 10.13 22.8356 10.13 22.8369C10.13 22.8381 10.13 22.8394 10.13 22.8406C10.13 22.8419 10.13 22.8431 10.13 22.8444C10.13 22.8456 10.13 22.8468 10.13 22.8481C10.13 22.8493 10.13 22.8506 10.13 22.8518C10.13 22.8531 10.13 22.8543 10.13 22.8556C10.13 22.8568 10.13 22.8581 10.13 22.8593C10.13 22.8605 10.13 22.8618 10.13 22.863C10.13 22.8643 10.13 22.8655 10.13 22.8668C10.13 22.868 10.13 22.8693 10.13 22.8705C10.13 22.8717 10.13 22.873 10.13 22.8742C10.13 22.8755 10.13 22.8767 10.13 22.878C10.13 22.8792 10.13 22.8805 10.13 22.8817C10.13 22.883 10.13 22.8842 10.13 22.8854C10.13 22.8867 10.13 22.8879 10.13 22.8892C10.13 22.8904 10.13 22.8917 10.13 22.8929C10.13 22.8942 10.13 22.8954 10.13 22.8966C10.13 22.8979 10.13 22.8991 10.13 22.9004C10.13 22.9016 10.13 22.9029 10.13 22.9041C10.13 22.9054 10.13 22.9066 10.13 22.9078C10.13 22.9091 10.13 22.9103 10.13 22.9116C10.13 22.9128 10.13 22.9141 10.13 22.9153C10.13 22.9165 10.13 22.9178 10.13 22.919C10.13 22.9203 10.13 22.9215 10.13 22.9228C10.13 22.924 10.13 22.9253 10.13 22.9265C10.13 22.9277 10.13 22.929 10.13 22.9302C10.13 22.9315 10.13 22.9327 10.13 22.934C10.13 22.9352 10.13 22.9364 10.13 22.9377C10.13 22.9389 10.13 22.9402 10.13 22.9414C10.13 22.9427 10.13 22.9439 10.13 22.9451C10.13 22.9464 10.13 22.9476 10.13 22.9489C10.13 22.9501 10.13 22.9514 10.13 22.9526C10.13 22.9538 10.13 22.9551 10.13 22.9563C10.13 22.9576 10.13 22.9588 10.13 22.9601C10.13 22.9613 10.13 22.9625 10.13 22.9638C10.13 22.965 10.13 22.9663 10.13 22.9675C10.13 22.9687 10.13 22.97 10.13 22.9712C10.13 22.9725 10.13 22.9737 10.13 22.975C10.13 22.9762 10.13 22.9774 10.13 22.9787C10.13 22.9799 10.13 22.9812 10.13 22.9824C10.13 22.9837 10.13 22.9849 10.13 22.9861C10.13 22.9874 10.13 22.9886 10.13 22.9899C10.13 22.9911 10.13 22.9923 10.13 22.9936C10.13 22.9948 10.13 22.9961 10.13 22.9973C10.13 22.9986 10.13 22.9998 10.13 23.001C10.13 23.0023 10.13 23.0035 10.13 23.0048C10.13 23.006 10.13 23.0072 10.13 23.0085C10.13 23.0097 10.13 23.011 10.13 23.0122C10.13 23.0134 10.13 23.0147 10.13 23.0159C10.13 23.0172 10.13 23.0184 10.13 23.0196C10.13 23.0209 10.13 23.0221 10.13 23.0234C10.13 23.0246 10.13 23.0259 10.13 23.0271C10.13 23.0283 10.13 23.0296 10.13 23.0308C10.13 23.0321 10.13 23.0333 10.13 23.0345C10.13 23.0358 10.13 23.037 10.13 23.0383C10.13 23.0395 10.13 23.0407 10.13 23.042C10.13 23.0432 10.13 23.0445 10.13 23.0457C10.13 23.0469 10.13 23.0482 10.13 23.0494C10.13 23.0507 10.13 23.0519 10.13 23.0531C10.13 23.0544 10.13 23.0556 10.13 23.0569C10.13 23.0581 10.13 23.0593 10.13 23.0606C10.13 23.0618 10.13 23.0631 10.13 23.0643C10.13 23.0655 10.13 23.0668 10.13 23.068C10.13 23.0692 10.13 23.0705 10.13 23.0717C10.13 23.073 10.13 23.0742 10.13 23.0754C10.13 23.0767 10.13 23.0779 10.13 23.0792C10.13 23.0804 10.13 23.0816 10.13 23.0829C10.13 23.0841 10.13 23.0854 10.13 23.0866C10.13 23.0878 10.13 23.0891 10.13 23.0903C10.13 23.0915 10.13 23.0928 10.13 23.094C10.13 23.0953 10.13 23.0965 10.13 23.0977C10.13 23.099 10.13 23.1002 10.13 23.1015C10.13 23.1027 10.13 23.1039 10.13 23.1052C10.13 23.1064 10.13 23.1076 10.13 23.1089C10.13 23.1101 10.13 23.1114 10.13 23.1126C10.13 23.1138 10.13 23.1151 10.13 23.1163C10.13 23.1176 10.13 23.1188 10.13 23.12C10.13 23.1213 10.13 23.1225 10.13 23.1237C10.13 23.125 10.13 23.1262 10.13 23.1275C10.13 23.1287 10.13 23.1299 10.13 23.1312C10.13 23.1324 10.13 23.1336 10.13 23.1349C10.13 23.1361 10.13 23.1374 10.13 23.1386C10.13 23.1398 10.13 23.1411 10.13 23.1423C10.13 23.1435 10.13 23.1448 10.13 23.146C10.13 23.1473 10.13 23.1485 10.13 23.1497C10.13 23.151 10.13 23.1522 10.13 23.1534C10.13 23.1547 10.13 23.1559 10.13 23.1571C10.13 23.1584 10.13 23.1596 10.13 23.1609C10.13 23.1621 10.13 23.1633 10.13 23.1646C10.13 23.1658 10.13 23.167 10.13 23.1683C10.13 23.1695 10.13 23.1708 10.13 23.172C10.13 23.1732 10.13 23.1745 10.13 23.1757C10.13 23.1769 10.13 23.1782 10.13 23.1794C10.13 23.1806 10.13 23.1819 10.13 23.1831C10.13 23.1843 10.13 23.1856 10.13 23.1868C10.13 23.1881 10.13 23.1893 10.13 23.1905C10.13 23.1918 10.13 23.193 10.13 23.1942C10.13 23.1955 10.13 23.1967 10.13 23.1979C10.13 23.1992 10.13 23.2004 10.13 23.2016C10.13 23.2029 10.13 23.2041 10.13 23.2054C10.13 23.2066 10.13 23.2078 10.13 23.2091C10.13 23.2103 10.13 23.2115 10.13 23.2128C10.13 23.214 10.13 23.2152 10.13 23.2165C10.13 23.2177 10.13 23.2189 10.13 23.2202C10.13 23.2214 10.13 23.2226 10.13 23.2239C10.13 23.2251 10.13 23.2264 10.13 23.2276C10.13 23.2288 10.13 23.2301 10.13 23.2313C10.13 23.2325 10.13 23.2338 10.13 23.235C10.13 23.2362 10.13 23.2375 10.13 23.2387C10.13 23.2399 10.13 23.2412 10.13 23.2424C10.13 23.2436 10.13 23.2449 10.13 23.2461C10.13 23.2473 10.13 23.2486 10.13 23.2498C10.13 23.251 10.13 23.2523 10.13 23.2535C10.13 23.2547 10.13 23.256 10.13 23.2572C10.13 23.2584 10.13 23.2597 10.13 23.2609C10.13 23.2621 10.13 23.2634 10.13 23.2646C10.13 23.2658 10.13 23.2671 10.13 23.2683C10.13 23.2695 10.13 23.2708 10.13 23.272C10.13 23.2732 10.13 23.2745 10.13 23.2757C10.13 23.2769 10.13 23.2782 10.13 23.2794C10.13 23.2806 10.13 23.2819 10.13 23.2831C10.13 23.2843 10.13 23.2856 10.13 23.2868C10.13 23.288 10.13 23.2893 10.13 23.2905C10.13 23.2917 10.13 23.293 10.13 23.2942C10.13 23.2954 10.13 23.2967 10.13 23.2979C10.13 23.2991 10.13 23.3004 10.13 23.3016C10.13 23.3028 10.13 23.3041 10.13 23.3053C10.13 23.3065 10.13 23.3078 10.13 23.309C10.13 23.3102 10.13 23.3115 10.13 23.3127C10.13 23.3139 10.13 23.3152 10.13 23.3164C10.13 23.3176 10.13 23.3189 10.13 23.3201C10.13 23.3213 10.13 23.3226 10.13 23.3238C10.13 23.325 10.13 23.3263 10.13 23.3275C10.13 23.3287 10.13 23.3299 10.13 23.3312C10.13 23.3324 10.13 23.3336 10.13 23.3349C10.13 23.3361 10.13 23.3373 10.13 23.3386C10.13 23.3398 10.13 23.341 10.13 23.3423C10.13 23.3435 10.13 23.3447 10.13 23.346C10.13 23.3472 10.13 23.3484 10.13 23.3497C10.13 23.3509 10.13 23.3521 10.13 23.3533C10.13 23.3546 10.13 23.3558 10.13 23.357C10.13 23.3583 10.13 23.3595 10.13 23.3607C10.13 23.362 10.13 23.3632 10.13 23.3644C10.13 23.3657 10.13 23.3669 10.13 23.3681C10.13 23.3693 10.13 23.3706 10.13 23.3718C10.13 23.373 10.13 23.3743 10.13 23.3755C10.13 23.3767 10.13 23.378 10.13 23.3792C10.13 23.3804 10.13 23.3817 10.13 23.3829C10.13 23.3841 10.13 23.3853 10.13 23.3866C10.13 23.3878 10.13 23.389 10.13 23.3903C10.13 23.3915 10.13 23.3927 10.13 23.394C10.13 23.3952 10.13 23.3964 10.13 23.3976C10.13 23.3989 10.13 23.4001 10.13 23.4013C10.13 23.4026 10.13 23.4038 10.13 23.405C10.13 23.4062 10.13 23.4075 10.13 23.4087C10.13 23.4099 10.13 23.4112 10.13 23.4124C10.13 23.4136 10.13 23.4149 10.13 23.4161C10.13 23.4173 10.13 23.4185 10.13 23.4198C10.13 23.421 10.13 23.4222 10.13 23.4235C10.13 23.4247 10.13 23.4259 10.13 23.4271C10.13 23.4284 10.13 23.4296 10.13 23.4308C10.13 23.4321 10.13 23.4333 10.13 23.4345C10.13 23.4358 10.13 23.437 10.13 23.4382C10.13 23.4394 10.13 23.4407 10.13 23.4419C10.13 23.4431 10.13 23.4444 10.13 23.4456C10.13 23.4468 10.13 23.448 10.13 23.4493C10.13 23.4505 10.13 23.4517 10.13 23.4529C10.13 23.4542 10.13 23.4554 10.13 23.4566C10.13 23.4579 10.13 23.4591 10.13 23.4603C10.13 23.4615 10.13 23.4628 10.13 23.464C10.13 23.4652 10.13 23.4665 10.13 23.4677C10.13 23.4689 10.13 23.4701 10.13 23.4714C10.13 23.4726 10.13 23.4738 10.13 23.4751C10.13 23.4763 10.13 23.4775 10.13 23.4787C10.13 23.48 10.13 23.4812 10.13 23.4824C10.13 23.4836 10.13 23.4849 10.13 23.4861C10.13 23.4873 10.13 23.4886 10.13 23.4898C10.13 23.491 10.13 23.4922 10.13 23.4935C10.13 23.4947 10.13 23.4959 10.13 23.4971C10.13 23.4984 10.13 23.4996 10.13 23.5008C10.13 23.502 10.13 23.5033 10.13 23.5045C10.13 23.5057 10.13 23.507 10.13 23.5082C10.13 23.5094 10.13 23.5106 10.13 23.5119C10.13 23.5131 10.13 23.5143 10.13 23.5155C10.13 23.5168 10.13 23.518 10.13 23.5192C10.13 23.5204 10.13 23.5217 10.13 23.5229C10.13 23.5241 10.13 23.5254 10.13 23.5266C10.13 23.5278 10.13 23.529 10.13 23.5303C10.13 23.5315 10.13 23.5327 10.13 23.5339C10.13 23.5352 10.13 23.5364 10.13 23.5376C10.13 23.5388 10.13 23.5401 10.13 23.5413C10.13 23.5425 10.13 23.5437 10.13 23.545C10.13 23.5462 10.13 23.5474 10.13 23.5486C10.13 23.5499 10.13 23.5511 10.13 23.5523C10.13 23.5535 10.13 23.5548 10.13 23.556C10.13 23.5572 10.13 23.5584 10.13 23.5597C10.13 23.5609 10.13 23.5621 10.13 23.5633C10.13 23.5646 10.13 23.5658 10.13 23.567C10.13 23.5682 10.13 23.5695 10.13 23.5707C10.13 23.5719 10.13 23.5731 10.13 23.5744C10.13 23.5756 10.13 23.5768 10.13 23.578C10.13 23.5793 10.13 23.5805 10.13 23.5817C10.13 23.5829 10.13 23.5842 10.13 23.5854C10.13 23.5866 10.13 23.5878 10.13 23.5891C10.13 23.5903 10.13 23.5915 10.13 23.5927C10.13 23.594 10.13 23.5952 10.13 23.5964C10.13 23.5976 10.13 23.5989 10.13 23.6001C10.13 23.6013 10.13 23.6025 10.13 23.6038C10.13 23.605 10.13 23.6062 10.13 23.6074C10.13 23.6086 10.13 23.6099 10.13 23.6111C10.13 23.6123 10.13 23.6135 10.13 23.6148C10.13 23.616 10.13 23.6172 10.13 23.6184C10.13 23.6197 10.13 23.6209 10.13 23.6221C10.13 23.6233 10.13 23.6246 10.13 23.6258C10.13 23.627 10.13 23.6282 10.13 23.6294C10.13 23.6307 10.13 23.6319 10.13 23.6331C10.13 23.6343 10.13 23.6356 10.13 23.6368C10.13 23.638 10.13 23.6392 10.13 23.6405C10.13 23.6417 10.13 23.6429 10.13 23.6441C10.13 23.6453 10.13 23.6466 10.13 23.6478C10.13 23.649 10.13 23.6502 10.13 23.6515C10.13 23.6527 10.13 23.6539 10.13 23.6551C10.13 23.6563 10.13 23.6576 10.13 23.6588C10.13 23.66 10.13 23.6612 10.13 23.6625C10.13 23.6637 10.13 23.6649 10.13 23.6661C10.13 23.6673 10.13 23.6686 10.13 23.6698C10.13 23.671 10.13 23.6722 10.13 23.6735C10.13 23.6747 10.13 23.6759 10.13 23.6771C10.13 23.6783 10.13 23.6796 10.13 23.6808C10.13 23.682 10.13 23.6832 10.13 23.6844C10.13 23.6857 10.13 23.6869 10.13 23.6881C10.13 23.6893 10.13 23.6906 10.13 23.6918C10.13 23.693 10.13 23.6942 10.13 23.6954C10.13 23.6967 10.13 23.6979 10.13 23.6991C10.13 23.7003 10.13 23.7015 10.13 23.7028C10.13 23.704 10.13 23.7052 10.13 23.7064C10.13 23.7076 10.13 23.7089 10.13 23.7101C10.13 23.7113 10.13 23.7125 10.13 23.7138C10.13 23.715 10.13 23.7162 10.13 23.7174C10.13 23.7186 10.13 23.7199 10.13 23.7211C10.13 23.7223 10.13 23.7235 10.13 23.7247C10.13 23.726 10.13 23.7272 10.13 23.7284C10.13 23.7296 10.13 23.7308 10.13 23.7321C10.13 23.7333 10.13 23.7345 10.13 23.7357C10.13 23.7369 10.13 23.7382 10.13 23.7394C10.13 23.7406 10.13 23.7418 10.13 23.743C10.13 23.7443 10.13 23.7455 10.13 23.7467C10.13 23.7479 10.13 23.7491 10.13 23.7504C10.13 23.7516 10.13 23.7528 10.13 23.754C10.13 23.7552 10.13 23.7565 10.13 23.7577C10.13 23.7589 10.13 23.7601 10.13 23.7613C10.13 23.7625 10.13 23.7638 10.13 23.765C10.13 23.7662 10.13 23.7674 10.13 23.7686C10.13 23.7699 10.13 23.7711 10.13 23.7723C10.13 23.7735 10.13 23.7747 10.13 23.776C10.13 23.7772 10.13 23.7784 10.13 23.7796C10.13 23.7808 10.13 23.7821 10.13 23.7833C10.13 23.7845 10.13 23.7857 10.13 23.7869C10.13 23.7881 10.13 23.7894 10.13 23.7906C10.13 23.7918 10.13 23.793 10.13 23.7942C10.13 23.7955 10.13 23.7967 10.13 23.7979C10.13 23.7991 10.13 23.8003 10.13 23.8015C10.13 23.8028 10.13 23.804 10.13 23.8052C10.13 23.8064 10.13 23.8076 10.13 23.8089C10.13 23.8101 10.13 23.8113 10.13 23.8125C10.13 23.8137 10.13 23.8149 10.13 23.8162C10.13 23.8174 10.13 23.8186 10.13 23.8198C10.13 23.821 10.13 23.8222 10.13 23.8235C10.13 23.8247 10.13 23.8259 10.13 23.8271C10.13 23.8283 10.13 23.8296 10.13 23.8308C10.13 23.832 10.13 23.8332 10.13 23.8344C10.13 23.8356 10.13 23.8369 10.13 23.8381C10.13 23.8393 10.13 23.8405 10.13 23.8417C10.13 23.8429 10.13 23.8442 10.13 23.8454C10.13 23.8466 10.13 23.8478 10.13 23.849C10.13 23.8502 10.13 23.8515 10.13 23.8527C10.13 23.8539 10.13 23.8551 10.13 23.8563C10.13 23.8575 10.13 23.8588 10.13 23.86C10.13 23.8612 10.13 23.8624 10.13 23.8636C10.13 23.8648 10.13 23.8661 10.13 23.8673C10.13 23.8685 10.13 23.8697 10.13 23.8709C10.13 23.8721 10.13 23.8734 10.13 23.8746C10.13 23.8758 10.13 23.877 10.13 23.8782C10.13 23.8794 10.13 23.8806 10.13 23.8819C10.13 23.8831 10.13 23.8843 10.13 23.8855C10.13 23.8867 10.13 23.8879 10.13 23.8892C10.13 23.8904 10.13 23.8916 10.13 23.8928C10.13 23.894 10.13 23.8952 10.13 23.8964C10.13 23.8977 10.13 23.8989 10.13 23.9001C10.13 23.9013 10.13 23.9025 10.13 23.9037C10.13 23.905 10.13 23.9062 10.13 23.9074C10.13 23.9086 10.13 23.9098 10.13 23.911C10.13 23.9122 10.13 23.9135 10.13 23.9147C10.13 23.9159 10.13 23.9171 10.13 23.9183C10.13 23.9195 10.13 23.9207 10.13 23.922C10.13 23.9232 10.13 23.9244 10.13 23.9256C10.13 23.9268 10.13 23.928 10.13 23.9292C10.13 23.9305 10.13 23.9317 10.13 23.9329C10.13 23.9341 10.13 23.9353 10.13 23.9365C10.13 23.9377 10.13 23.939 10.13 23.9402C10.13 23.9414 10.13 23.9426 10.13 23.9438C10.13 23.945 10.13 23.9462 10.13 23.9475C10.13 23.9487 10.13 23.9499 10.13 23.9511C10.13 23.9523 10.13 23.9535 10.13 23.9547C10.13 23.956 10.13 23.9572 10.13 23.9584C10.13 23.9596 10.13 23.9608 10.13 23.962C10.13 23.9632 10.13 23.9644 10.13 23.9657C10.13 23.9669 10.13 23.9681 10.13 23.9693C10.13 23.9705 10.13 23.9717 10.13 23.9729C10.13 23.9742 10.13 23.9754 10.13 23.9766C10.13 23.9778 10.13 23.979 10.13 23.9802C10.13 23.9814 10.13 23.9826 10.13 23.9839C10.13 23.9851 10.13 23.9863 10.13 23.9875C10.13 23.9887 10.13 23.9899 10.13 23.9911C10.13 23.9923 10.13 23.9936 10.13 23.9948C10.13 23.996 10.13 23.9972 10.13 23.9984C10.13 23.9996 10.13 24.0008 10.13 24.002C10.13 24.0033 10.13 24.0045 10.13 24.0057C10.13 24.0069 10.13 24.0081 10.13 24.0093C10.13 24.0105 10.13 24.0117 10.13 24.013C10.13 24.0142 10.13 24.0154 10.13 24.0166C10.13 24.0178 10.13 24.019 10.13 24.0202C10.13 24.0214 10.13 24.0226 10.13 24.0239C10.13 24.0251 10.13 24.0263 10.13 24.0275C10.13 24.0287 10.13 24.0299 10.13 24.0311C10.13 24.0323 10.13 24.0336 10.13 24.0348C10.13 24.036 10.13 24.0372 10.13 24.0384C10.13 24.0396 10.13 24.0408 10.13 24.042C10.13 24.0432 10.13 24.0445 10.13 24.0457C10.13 24.0469 10.13 24.0481 10.13 24.0493C10.13 24.0505 10.13 24.0517 10.13 24.0529C10.13 24.0541 10.13 24.0553 10.13 24.0566C10.13 24.0578 10.13 24.059 10.13 24.0602C10.13 24.0614 10.13 24.0626 10.13 24.0638C10.13 24.065 10.13 24.0662 10.13 24.0675C10.13 24.0687 10.13 24.0699 10.13 24.0711C10.13 24.0723 10.13 24.0735 10.13 24.0747C10.13 24.0759 10.13 24.0771 10.13 24.0783C10.13 24.0796 10.13 24.0808 10.13 24.082C10.13 24.0832 10.13 24.0844 10.13 24.0856C10.13 24.0868 10.13 24.088 10.13 24.0892C10.13 24.0904 10.13 24.0917 10.13 24.0929C10.13 24.0941 10.13 24.0953 10.13 24.0965C10.13 24.0977 10.13 24.0989 10.13 24.1001C10.13 24.1013 10.13 24.1025 10.13 24.1037C10.13 24.105 10.13 24.1062 10.13 24.1074C10.13 24.1086 10.13 24.1098 10.13 24.111C10.13 24.1122 10.13 24.1134 10.13 24.1146C10.13 24.1158 10.13 24.117 10.13 24.1183C10.13 24.1195 10.13 24.1207 10.13 24.1219C10.13 24.1231 10.13 24.1243 10.13 24.1255C10.13 24.1267 10.13 24.1279 10.13 24.1291C10.13 24.1303 10.13 24.1315 10.13 24.1328C10.13 24.134 10.13 24.1352 10.13 24.1364C10.13 24.1376 10.13 24.1388 10.13 24.14C10.13 24.1412 10.13 24.1424 10.13 24.1436C10.13 24.1448 10.13 24.146 10.13 24.1473C10.13 24.1485 10.13 24.1497 10.13 24.1509C10.13 24.1521 10.13 24.1533 10.13 24.1545C10.13 24.1557 10.13 24.1569 10.13 24.1581C10.13 24.1593 10.13 24.1605 10.13 24.1617C10.13 24.163 10.13 24.1642 10.13 24.1654C10.13 24.1666 10.13 24.1678 10.13 24.169C10.13 24.1702 10.13 24.1714 10.13 24.1726C10.13 24.1738 10.13 24.175 10.13 24.1762C10.13 24.1774 10.13 24.1786 10.13 24.1799C10.13 24.1811 10.13 24.1823 10.13 24.1835C10.13 24.1847 10.13 24.1859 10.13 24.1871C10.13 24.1883 10.13 24.1895 10.13 24.1907C10.13 24.1919 10.13 24.1931 10.13 24.1943C10.13 24.1955 10.13 24.1967 10.13 24.198C10.13 24.1992 10.13 24.2004 10.13 24.2016C10.13 24.2028 10.13 24.204 10.13 24.2052C10.13 24.2064 10.13 24.2076 10.13 24.2088C10.13 24.21 10.13 24.2112 10.13 24.2124C10.13 24.2136 10.13 24.2148 10.13 24.216C10.13 24.2173 10.13 24.2185 10.13 24.2197C10.13 24.2209 10.13 24.2221 10.13 24.2233C10.13 24.2245 10.13 24.2257 10.13 24.2269C10.13 24.2281 10.13 24.2293 10.13 24.2305C10.13 24.2317 10.13 24.2329 10.13 24.2341C10.13 24.2353 10.13 24.2365 10.13 24.2377C10.13 24.239 10.13 24.2402 10.13 24.2414C10.13 24.2426 10.13 24.2438 10.13 24.245C10.13 24.2462 10.13 24.2474 10.13 24.2486C10.13 24.2498 10.13 24.251 10.13 24.2522C10.13 24.2534 10.13 24.2546 10.13 24.2558C10.13 24.257 10.13 24.2582 10.13 24.2594C10.13 24.2606 10.13 24.2618 10.13 24.2631C10.13 24.2643 10.13 24.2655 10.13 24.2667C10.13 24.2679 10.13 24.2691 10.13 24.2703C10.13 24.2715 10.13 24.2727 10.13 24.2739C10.13 24.2751 10.13 24.2763 10.13 24.2775C10.13 24.2787 10.13 24.2799 10.13 24.2811C10.13 24.2823 10.13 24.2835 10.13 24.2847C10.13 24.2859 10.13 24.2871 10.13 24.2883C10.13 24.2895 10.13 24.2907 10.13 24.2919C10.13 24.2932 10.13 24.2944 10.13 24.2956C10.13 24.2968 10.13 24.298 10.13 24.2992C10.13 24.3004 10.13 24.3016 10.13 24.3028C10.13 24.304 10.13 24.3052 10.13 24.3064C10.13 24.3076 10.13 24.3088 10.13 24.31H12.13ZM12.1291 22.4634C12.1571 21.8194 12.1851 21.1754 12.2131 20.5314L10.2149 20.4446C10.1869 21.0886 10.1589 21.7326 10.1309 22.3766L12.1291 22.4634ZM12.2131 20.5296C12.241 19.8599 12.2689 19.2467 12.2968 18.6899L10.2992 18.5901C10.2711 19.1533 10.243 19.7721 10.2149 20.4464L12.2131 20.5296ZM10.5909 17.9329C10.3217 18.2021 9.98066 18.5296 9.56568 18.9169L10.9303 20.3791C11.3553 19.9824 11.7143 19.6379 12.0051 19.3471L10.5909 17.9329ZM9.59307 18.8923C9.1718 19.2574 8.7366 19.6365 8.2875 20.0294L9.60451 21.5346C10.0514 21.1435 10.4842 20.7666 10.9029 20.4037L9.59307 18.8923ZM8.32131 20.0011L4.96131 22.6891L6.2107 24.2509L9.5707 21.5629L8.32131 20.0011ZM6.36394 22.8417L3.71794 19.5657L2.16206 20.8223L4.80806 24.0983L6.36394 22.8417ZM3.5607 20.978L12.6327 13.796L11.3913 12.228L2.3193 19.41L3.5607 20.978ZM12.012 14.012H16.422V12.012H12.012V14.012ZM15.422 13.012V43H17.422V13.012H15.422Z" fill="#64CEB8"/>
<path opacity="0.2" d="M16.422 43H11.13V24.31C11.13 23.694 11.13 23.064 11.13 22.42C11.158 21.776 11.186 21.132 11.214 20.488C11.242 19.816 11.27 19.2 11.298 18.64C11.018 18.92 10.668 19.256 10.248 19.648C9.828 20.012 9.394 20.39 8.946 20.782L5.586 23.47L2.94 20.194L12.012 13.012H16.422V43Z" fill="#64CEB8"/>
<path d="M27.625 24.3051C27.6257 25.0527 27.9229 25.7695 28.4515 26.2982C28.9801 26.8268 29.6968 27.1242 30.4444 27.125H35.3056C36.0532 27.1242 36.7699 26.8268 37.2985 26.2982C37.8271 25.7695 38.1243 25.0527 38.125 24.3051V19.4449C38.1243 18.6973 37.8271 17.9805 37.2985 17.4518C36.7699 16.9232 36.0532 16.6258 35.3056 16.625H30.4444C29.6968 16.6258 28.9801 16.9232 28.4515 17.4518C27.9229 17.9805 27.6257 18.6973 27.625 19.4449V24.3051ZM29.375 19.4449C29.3753 19.1613 29.4881 18.8894 29.6885 18.6888C29.889 18.4883 30.1608 18.3754 30.4444 18.375H35.3056C35.5892 18.3754 35.861 18.4883 36.0615 18.6888C36.2619 18.8894 36.3747 19.1613 36.375 19.4449V24.3051C36.3747 24.5887 36.2619 24.8606 36.0615 25.0612C35.861 25.2617 35.5892 25.3746 35.3056 25.375H30.4444C30.1608 25.3746 29.889 25.2617 29.6885 25.0612C29.4881 24.8606 29.3753 24.5887 29.375 24.3051V19.4449Z" fill="#001E32"/>
<path d="M27.625 36.5551C27.6257 37.3027 27.9229 38.0195 28.4515 38.5482C28.9801 39.0768 29.6968 39.3742 30.4444 39.375H35.3056C36.0532 39.3742 36.7699 39.0768 37.2985 38.5482C37.8271 38.0195 38.1243 37.3027 38.125 36.5551V31.6949C38.1243 30.9473 37.8271 30.2305 37.2985 29.7018C36.7699 29.1732 36.0532 28.8758 35.3056 28.875H30.4444C29.6968 28.8758 28.9801 29.1732 28.4515 29.7018C27.9229 30.2305 27.6257 30.9473 27.625 31.6949V36.5551ZM29.375 31.6949C29.3753 31.4113 29.4881 31.1394 29.6885 30.9388C29.889 30.7383 30.1608 30.6254 30.4444 30.625H35.3056C35.5892 30.6254 35.861 30.7383 36.0615 30.9388C36.2619 31.1394 36.3747 31.4113 36.375 31.6949V36.5551C36.3747 36.8387 36.2619 37.1106 36.0615 37.3112C35.861 37.5117 35.5892 37.6246 35.3056 37.625H30.4444C30.1608 37.6246 29.889 37.5117 29.6885 37.3112C29.4881 37.1106 29.3753 36.8387 29.375 36.5551V31.6949Z" fill="#001E32"/>
<path d="M45.125 16.625C44.0867 16.625 43.0716 16.9329 42.2083 17.5098C41.3449 18.0867 40.672 18.9066 40.2746 19.8659C39.8773 20.8252 39.7733 21.8808 39.9759 22.8992C40.1785 23.9176 40.6785 24.8531 41.4127 25.5873C42.1469 26.3215 43.0824 26.8216 44.1008 27.0241C45.1192 27.2267 46.1748 27.1227 47.1341 26.7254C48.0934 26.328 48.9133 25.6551 49.4902 24.7917C50.0671 23.9284 50.375 22.9134 50.375 21.875C50.3735 20.4831 49.8199 19.1486 48.8356 18.1644C47.8514 17.1801 46.5169 16.6265 45.125 16.625ZM45.125 25.375C44.4328 25.375 43.7561 25.1697 43.1805 24.7851C42.6049 24.4006 42.1563 23.8539 41.8914 23.2144C41.6265 22.5749 41.5572 21.8711 41.6923 21.1922C41.8273 20.5133 42.1606 19.8896 42.6501 19.4001C43.1396 18.9106 43.7633 18.5773 44.4422 18.4423C45.1211 18.3072 45.8249 18.3765 46.4644 18.6414C47.1039 18.9063 47.6506 19.3549 48.0351 19.9305C48.4197 20.5061 48.625 21.1828 48.625 21.875C48.624 22.803 48.255 23.6926 47.5988 24.3488C46.9426 25.005 46.053 25.374 45.125 25.375Z" fill="#64CEB8"/>
<path d="M42.6944 28.875C41.9468 28.8758 41.2301 29.1732 40.7015 29.7018C40.1729 30.2305 39.8757 30.9473 39.875 31.6949V36.5551C39.8757 37.3027 40.1729 38.0195 40.7015 38.5482C41.2301 39.0768 41.9468 39.3742 42.6944 39.375H47.5556C48.3032 39.3742 49.0199 39.0768 49.5485 38.5482C50.0771 38.0195 50.3743 37.3027 50.375 36.5551V31.6949C50.3743 30.9473 50.0771 30.2305 49.5485 29.7018C49.0199 29.1732 48.3032 28.8758 47.5556 28.875H42.6944ZM48.625 31.6949V36.5551C48.6247 36.8387 48.5119 37.1106 48.3115 37.3112C48.111 37.5117 47.8392 37.6246 47.5556 37.625H42.6944C42.4108 37.6246 42.139 37.5117 41.9385 37.3112C41.7381 37.1106 41.6253 36.8387 41.625 36.5551V31.6949C41.6253 31.4113 41.7381 31.1394 41.9385 30.9388C42.139 30.7383 42.4108 30.6254 42.6944 30.625H47.5556C47.8392 30.6254 48.111 30.7383 48.3115 30.9388C48.5119 31.1394 48.6247 31.4113 48.625 31.6949Z" fill="#001E32"/>
</svg>
