<svg width="67" height="56" viewBox="0 0 67 56" fill="none" xmlns="http://www.w3.org/2000/svg">
<rect x="11.5" y="0.5" width="55" height="55" rx="9.5" fill="white" stroke="#64CEB8"/>
<rect x="3" y="5" width="20" height="46" rx="10" fill="white"/>
<path d="M22.8264 43V44H23.8264V43H22.8264ZM2.28842 43H1.28842V44H2.28842V43ZM2.28842 39.094L1.57746 38.3908L1.28842 38.683V39.094H2.28842ZM9.93242 31.366L10.6434 32.0692L10.646 32.0666L9.93242 31.366ZM13.6284 27.418L12.8758 26.7595L12.8747 26.7609L13.6284 27.418ZM15.7704 24.31L14.876 23.8628L14.8707 23.8734L14.8656 23.8842L15.7704 24.31ZM15.3084 18.136L14.6424 18.8819L14.65 18.8887L14.6576 18.8953L15.3084 18.136ZM8.67242 17.884L9.09148 18.792L9.10098 18.7876L9.11039 18.783L8.67242 17.884ZM5.27042 20.068L4.50144 20.7073L5.13244 21.4663L5.89962 20.8452L5.27042 20.068ZM2.37242 16.582L1.71749 15.8263L0.977166 16.4679L1.60344 17.2213L2.37242 16.582ZM5.06042 14.608L5.58592 15.4588L5.59485 15.4533L5.60367 15.4476L5.06042 14.608ZM8.29442 13.138L8.00503 12.1808L8.29442 13.138ZM17.4504 13.642L16.996 14.5328L17.0068 14.5383L17.0177 14.5435L17.4504 13.642ZM20.6844 16.456L21.5313 15.9242L20.6844 16.456ZM21.2724 24.1L22.2159 24.4315L22.2186 24.4237L21.2724 24.1ZM19.6764 27.166L20.4978 27.7364V27.7364L19.6764 27.166ZM17.1144 30.232L17.8311 30.9294H17.8312L17.1144 30.232ZM13.7124 33.592L13.0216 32.869L13.0182 32.8723L13.7124 33.592ZM8.96642 38.17L8.27217 37.4503L7.96642 37.7452V38.17H8.96642ZM8.96642 38.422H7.96642V39.422H8.96642V38.422ZM22.8264 38.422H23.8264V37.422H22.8264V38.422ZM22.8264 42H2.28842V44H22.8264V42ZM3.28842 43V39.094H1.28842V43H3.28842ZM2.99938 39.7972L10.6434 32.0692L9.22146 30.6628L1.57746 38.3908L2.99938 39.7972ZM10.646 32.0666C12.1658 30.5186 13.4126 29.1873 14.3822 28.0751L12.8747 26.7609C11.9402 27.8327 10.723 29.1334 9.21886 30.6654L10.646 32.0666ZM14.381 28.0765C15.3991 26.9129 16.175 25.7989 16.6752 24.7358L14.8656 23.8842C14.4699 24.7251 13.8177 25.6831 12.8758 26.7595L14.381 28.0765ZM16.6649 24.7572C17.2139 23.6591 17.4844 22.4689 17.4844 21.202H15.4844C15.4844 22.1751 15.2789 23.0569 14.876 23.8628L16.6649 24.7572ZM17.4844 21.202C17.4844 19.6399 17.032 18.2962 15.9592 17.3767L14.6576 18.8953C15.1529 19.3198 15.4844 20.0201 15.4844 21.202H17.4844ZM15.9744 17.3901C14.9682 16.4916 13.6762 16.086 12.2004 16.086V18.086C13.3006 18.086 14.0807 18.3804 14.6424 18.8819L15.9744 17.3901ZM12.2004 16.086C10.7945 16.086 9.46803 16.384 8.23445 16.985L9.11039 18.783C10.0608 18.32 11.0864 18.086 12.2004 18.086V16.086ZM8.25336 16.976C7.06979 17.5223 5.86586 18.2994 4.64122 19.2908L5.89962 20.8452C7.02699 19.9326 8.09106 19.2537 9.09148 18.792L8.25336 16.976ZM6.0394 19.4287L3.1414 15.9427L1.60344 17.2213L4.50144 20.7073L6.0394 19.4287ZM3.02735 17.3377C3.82656 16.645 4.67924 16.0188 5.58592 15.4588L4.53493 13.7572C3.53761 14.3732 2.59829 15.063 1.71749 15.8263L3.02735 17.3377ZM5.60367 15.4476C6.46892 14.8877 7.45985 14.435 8.58381 14.0952L8.00503 12.1808C6.721 12.569 5.55592 13.0963 4.51717 13.7684L5.60367 15.4476ZM8.58381 14.0952C9.67271 13.766 10.9715 13.592 12.4944 13.592V11.592C10.8254 11.592 9.32414 11.782 8.00503 12.1808L8.58381 14.0952ZM12.4944 13.592C14.3077 13.592 15.7959 13.9205 16.996 14.5328L17.9049 12.7512C16.3609 11.9635 14.5451 11.592 12.4944 11.592V13.592ZM17.0177 14.5435C18.2638 15.1417 19.1911 15.9583 19.8375 16.9878L21.5313 15.9242C20.6657 14.5457 19.437 13.4863 17.8832 12.7405L17.0177 14.5435ZM19.8375 16.9878C20.4816 18.0135 20.8184 19.2244 20.8184 20.656H22.8184C22.8184 18.8956 22.3993 17.3065 21.5313 15.9242L19.8375 16.9878ZM20.8184 20.656C20.8184 21.7884 20.6514 22.826 20.3263 23.7763L22.2186 24.4237C22.6215 23.246 22.8184 21.9876 22.8184 20.656H20.8184ZM20.329 23.7685C19.998 24.7105 19.5097 25.6529 18.8551 26.5956L20.4978 27.7364C21.2431 26.6631 21.8188 25.5615 22.2159 24.4315L20.329 23.7685ZM18.8551 26.5956C18.1913 27.5514 17.3739 28.5313 16.3977 29.5346L17.8312 30.9294C18.8709 29.8607 19.7615 28.7966 20.4978 27.7364L18.8551 26.5956ZM16.3977 29.5346C15.3997 30.5604 14.2745 31.6718 13.0216 32.869L14.4033 34.315C15.6703 33.1042 16.8132 31.9756 17.8311 30.9294L16.3977 29.5346ZM13.0182 32.8723L8.27217 37.4503L9.66068 38.8897L14.4067 34.3117L13.0182 32.8723ZM7.96642 38.17V38.422H9.96642V38.17H7.96642ZM8.96642 39.422H22.8264V37.422H8.96642V39.422ZM21.8264 38.422V43H23.8264V38.422H21.8264Z" fill="#64CEB8"/>
<path opacity="0.2" d="M22.8264 43H2.28842V39.094L9.93242 31.366C11.4444 29.826 12.6764 28.51 13.6284 27.418C14.6084 26.298 15.3224 25.262 15.7704 24.31C16.2464 23.358 16.4844 22.322 16.4844 21.202C16.4844 19.83 16.0924 18.808 15.3084 18.136C14.5244 17.436 13.4884 17.086 12.2004 17.086C10.9404 17.086 9.76442 17.352 8.67242 17.884C7.58042 18.388 6.44642 19.116 5.27042 20.068L2.37242 16.582C3.21242 15.854 4.10842 15.196 5.06042 14.608C6.01242 13.992 7.09042 13.502 8.29442 13.138C9.49842 12.774 10.8984 12.592 12.4944 12.592C14.4264 12.592 16.0784 12.942 17.4504 13.642C18.8504 14.314 19.9284 15.252 20.6844 16.456C21.4404 17.66 21.8184 19.06 21.8184 20.656C21.8184 21.888 21.6364 23.036 21.2724 24.1C20.9084 25.136 20.3764 26.158 19.6764 27.166C18.9764 28.174 18.1224 29.196 17.1144 30.232C16.1064 31.268 14.9724 32.388 13.7124 33.592L8.96642 38.17V38.422H22.8264V43Z" fill="#64CEB8"/>
<g clip-path="url(#clip0_99_974)">
<path d="M39.6304 39.9969C38.9895 39.9969 38.3495 40.0035 37.7086 39.9969C36.6958 39.9838 35.9696 39.3551 35.7972 38.3507C35.7316 37.9665 35.6754 37.5805 35.6042 37.1972C35.4318 36.2677 34.61 35.7777 33.7114 36.0728C33.3123 36.2059 32.9262 36.3774 32.528 36.5142C31.6004 36.8327 30.7253 36.5273 30.2249 35.6849C29.564 34.5712 28.9166 33.4499 28.2825 32.3211C27.785 31.4376 27.9555 30.5409 28.721 29.8784C29.0284 29.6132 29.3554 29.3706 29.658 29.1026C30.3795 28.4683 30.3842 27.5331 29.6674 26.9007C29.3638 26.6318 29.0377 26.3881 28.7304 26.1239C27.9593 25.4624 27.7812 24.5638 28.276 23.6877C28.9094 22.5584 29.5562 21.4368 30.2165 20.323C30.7262 19.4619 31.6079 19.1593 32.559 19.4938C32.9562 19.6334 33.3432 19.8039 33.7433 19.9323C34.6213 20.2134 35.4299 19.7252 35.6014 18.8173C35.6763 18.4181 35.7307 18.0162 35.8019 17.617C35.978 16.6407 36.7061 16.0129 37.6955 16.0054C38.9754 15.996 40.256 15.996 41.5372 16.0054C42.5791 16.011 43.3025 16.6416 43.4749 17.6742C43.5367 18.0433 43.5948 18.4134 43.6623 18.7817C43.8365 19.7421 44.6555 20.2293 45.5803 19.9164C45.9935 19.7768 46.3954 19.6025 46.8096 19.4657C47.6744 19.1846 48.5374 19.4741 49.0059 20.2537C49.6961 21.4037 50.3673 22.5652 51.0195 23.7383C51.4749 24.5573 51.3006 25.4474 50.5997 26.0714C50.2727 26.3619 49.9185 26.6214 49.5915 26.9147C48.8935 27.5341 48.8888 28.4636 49.5831 29.0839C49.897 29.3649 50.239 29.6161 50.5557 29.8915C51.3053 30.5409 51.4833 31.4357 51.0035 32.2949C50.3639 33.4387 49.708 34.5737 49.0359 35.6999C48.5346 36.5432 47.6585 36.8393 46.7281 36.517C46.3308 36.3792 45.9438 36.2078 45.5447 36.0766C44.6442 35.7805 43.8318 36.2724 43.6604 37.2094C43.5901 37.5926 43.5339 37.9787 43.4674 38.3628C43.2921 39.3635 42.5641 39.9876 41.5475 39.9988C40.9113 40.0035 40.2704 39.9979 39.6304 39.9969ZM49.3844 31.3579C49.0368 31.0693 48.7211 30.8163 48.4147 30.5521C46.7759 29.141 46.7768 26.8557 48.4147 25.4483C48.7304 25.1776 49.0537 24.9152 49.3835 24.6407L47.3999 21.2122C46.0797 21.8259 44.7763 22.2513 43.4027 21.4521C42.0291 20.6528 41.7667 19.3026 41.6224 17.9H37.6421C37.5091 19.3261 37.2289 20.6678 35.8487 21.4605C34.4685 22.2532 33.1717 21.796 31.8637 21.2216C31.1928 22.3825 30.5519 23.5003 29.8782 24.6594C31.0448 25.5027 32.0755 26.4041 32.0773 27.9988C32.0792 29.5936 31.0307 30.4875 29.8839 31.3411C30.2315 31.9445 30.5566 32.5104 30.8836 33.0754C31.2106 33.6404 31.5339 34.1998 31.8581 34.762C32.2807 34.6065 32.6452 34.4697 33.0106 34.3385C35.0888 33.5889 37.138 34.8013 37.4809 36.9817C37.54 37.3565 37.6121 37.7313 37.6768 38.1061H41.6009C41.6665 37.7313 41.7367 37.3678 41.7883 37.0014C42.1312 34.7939 44.1813 33.5833 46.2858 34.3469L47.4168 34.7592L49.3844 31.3579Z" fill="#001E32"/>
<path d="M44.251 28.0131C44.2515 28.6187 44.1324 29.2184 43.9004 29.7778C43.6685 30.3371 43.3282 30.8452 42.8994 31.2727C42.4705 31.7002 41.9613 32.0387 41.4012 32.2689C40.8411 32.499 40.241 32.6162 39.6354 32.6137C39.0257 32.616 38.4215 32.497 37.8582 32.2636C37.2948 32.0302 36.7835 31.6871 36.354 31.2543C35.9245 30.8215 35.5853 30.3076 35.3563 29.7424C35.1272 29.1773 35.0129 28.5723 35.0198 27.9625C35.0222 27.3567 35.1442 26.7573 35.379 26.1989C35.6137 25.6404 35.9565 25.1338 36.3877 24.7083C36.8189 24.2827 37.33 23.9466 37.8915 23.7193C38.4531 23.4919 39.054 23.3778 39.6598 23.3835C40.266 23.3835 40.8662 23.5035 41.4257 23.7366C41.9853 23.9697 42.4931 24.3114 42.92 24.7418C43.3468 25.1722 43.6842 25.6829 43.9126 26.2443C44.1411 26.8058 44.2561 27.407 44.251 28.0131ZM42.3771 28.0225C42.3826 27.6632 42.3169 27.3063 42.1836 26.9725C42.0503 26.6388 41.8521 26.3348 41.6005 26.0781C41.3489 25.8215 41.0489 25.6173 40.7179 25.4774C40.3869 25.3375 40.0314 25.2646 39.672 25.2631C39.3127 25.256 38.9556 25.3202 38.6214 25.4521C38.2871 25.584 37.9823 25.7808 37.7246 26.0313C37.4669 26.2817 37.2615 26.5808 37.1202 26.9111C36.9789 27.2415 36.9045 27.5967 36.9013 27.956C36.8925 28.3192 36.9567 28.6806 37.09 29.0186C37.2234 29.3566 37.4231 29.6645 37.6775 29.9239C37.9319 30.1834 38.2358 30.3892 38.5711 30.5292C38.9065 30.6691 39.2664 30.7404 39.6298 30.7388C39.9888 30.7423 40.3449 30.6746 40.6775 30.5397C41.0102 30.4047 41.3128 30.2052 41.5679 29.9526C41.8229 29.7001 42.0255 29.3994 42.1637 29.0682C42.302 28.7369 42.3732 28.3815 42.3733 28.0225H42.3771Z" fill="#64CEB8"/>
</g>
<defs>
<clipPath id="clip0_99_974">
<rect width="23.2729" height="24" fill="white" transform="translate(28 16)"/>
</clipPath>
</defs>
</svg>
