<svg width="28" height="28" viewBox="0 0 28 28" fill="none" xmlns="http://www.w3.org/2000/svg">
<path d="M24.0104 11.49H4.0047C3.65867 11.4861 3.31679 11.4141 2.99859 11.278C2.6804 11.142 2.39211 10.9446 2.1502 10.6971C1.90829 10.4497 1.71749 10.157 1.5887 9.83583C1.45991 9.51463 1.39565 9.17122 1.39958 8.82518V7.96013C1.39958 7.2613 1.6772 6.59109 2.17134 6.09694C2.66549 5.60279 3.3357 5.3252 4.03453 5.3252H24.0402C24.739 5.3252 25.4092 5.60279 25.9034 6.09694C26.3975 6.59109 26.6752 7.2613 26.6752 7.96013V8.82518C26.6791 9.17624 26.613 9.52455 26.4805 9.84967C26.348 10.1748 26.1518 10.4701 25.9036 10.7184C25.6553 10.9666 25.36 11.1628 25.0349 11.2953C24.7097 11.4278 24.3614 11.4939 24.0104 11.49ZM4.0047 7.14478C3.89371 7.14478 3.7838 7.16664 3.68126 7.20911C3.57872 7.25159 3.48555 7.31385 3.40707 7.39233C3.32859 7.47081 3.26634 7.56398 3.22386 7.66652C3.18139 7.76906 3.15952 7.87897 3.15952 7.98996V8.82518C3.15952 9.04934 3.24857 9.26431 3.40707 9.42281C3.56557 9.58131 3.78055 9.67036 4.0047 9.67036H24.0104C24.2345 9.67036 24.4495 9.58131 24.608 9.42281C24.7665 9.26431 24.8555 9.04934 24.8555 8.82518V7.96013C24.8555 7.73598 24.7665 7.521 24.608 7.3625C24.4495 7.204 24.2345 7.11496 24.0104 7.11496L4.0047 7.14478Z" fill="#001E32"/>
<path d="M14.0078 23.2431C13.8395 23.2378 13.6753 23.1899 13.5305 23.1039L10.0504 20.9263C9.92209 20.8465 9.81632 20.7351 9.74321 20.6029C9.67011 20.4706 9.63211 20.3218 9.63282 20.1706V15.7857C9.63211 15.6345 9.67011 15.4857 9.74321 15.3535C9.81632 15.2212 9.92209 15.1098 10.0504 15.03L13.5305 12.8524C13.6786 12.7566 13.8513 12.7056 14.0277 12.7056C14.2041 12.7056 14.3768 12.7566 14.5249 12.8524L18.005 15.03C18.1333 15.1098 18.2391 15.2212 18.3122 15.3535C18.3853 15.4857 18.4233 15.6345 18.4226 15.7857V20.1408C18.4233 20.2919 18.3853 20.4407 18.3122 20.573C18.2391 20.7053 18.1333 20.8167 18.005 20.8965L14.5249 23.074C14.3736 23.1815 14.1933 23.2405 14.0078 23.2431ZM11.4226 19.6735L14.0078 21.2843L16.5931 19.6735V16.3127L14.0078 14.7019L11.4226 16.3127V19.6735Z" fill="#64CEB8"/>
<path d="M14.0076 18.8878C13.8393 18.8826 13.6751 18.8347 13.5303 18.7486L10.0502 16.581C9.84849 16.4491 9.7074 16.2425 9.65798 16.0067C9.60857 15.7708 9.65488 15.5249 9.78673 15.3232C9.91859 15.1215 10.1252 14.9803 10.3611 14.9309C10.597 14.8815 10.8428 14.9278 11.0445 15.0597L14.0275 16.939L17.0105 15.0597C17.2122 14.9278 17.458 14.8815 17.6939 14.9309C17.9298 14.9803 18.1364 15.1215 18.2683 15.3232C18.4001 15.5249 18.4464 15.7708 18.397 16.0067C18.3476 16.2425 18.2065 16.4491 18.0048 16.581L14.5247 18.7486C14.3701 18.8456 14.19 18.894 14.0076 18.8878Z" fill="#64CEB8"/>
<path d="M14.0077 23.243C13.8894 23.243 13.7722 23.2196 13.663 23.174C13.5537 23.1284 13.4546 23.0616 13.3714 22.9774C13.2882 22.8933 13.2225 22.7934 13.1781 22.6837C13.1337 22.574 13.1115 22.4565 13.1128 22.3382V17.993C13.1128 17.7557 13.2071 17.5281 13.375 17.3603C13.5428 17.1924 13.7704 17.0981 14.0077 17.0981C14.2451 17.0981 14.4727 17.1924 14.6405 17.3603C14.8083 17.5281 14.9026 17.7557 14.9026 17.993V22.3382C14.9039 22.4565 14.8818 22.574 14.8374 22.6837C14.793 22.7934 14.7273 22.8933 14.6441 22.9774C14.5608 23.0616 14.4617 23.1284 14.3525 23.174C14.2433 23.2196 14.1261 23.243 14.0077 23.243Z" fill="#64CEB8"/>
<path d="M20.968 7.14488C20.8423 7.14415 20.7182 7.11725 20.6035 7.06589C20.4888 7.01454 20.3861 6.93986 20.3018 6.8466C19.3075 5.72302 16.1754 2.78976 14.0078 2.78976C11.691 2.78976 8.68818 5.70311 7.72369 6.82669C7.64903 6.91707 7.55698 6.99154 7.45299 7.04565C7.34899 7.09976 7.23519 7.13242 7.11833 7.14169C7.00147 7.15097 6.88393 7.13667 6.77271 7.09964C6.66148 7.06261 6.55883 7.0036 6.47085 6.92613C6.38017 6.85058 6.30551 6.75765 6.25128 6.65282C6.19705 6.54798 6.16434 6.43336 6.15507 6.31569C6.14581 6.19803 6.16018 6.07968 6.19734 5.96765C6.23449 5.85562 6.29368 5.75217 6.37142 5.66335C6.53051 5.47443 10.3487 1 14.0078 1C17.3586 1 21.2066 5.17612 21.6342 5.64345C21.7929 5.82186 21.8746 6.05575 21.8615 6.29415C21.8485 6.53255 21.7418 6.75613 21.5646 6.91618C21.4007 7.06322 21.1882 7.14466 20.968 7.14488Z" fill="#001E32"/>
<path d="M24.9353 27.1505C24.138 27.1476 23.3725 26.8378 22.7975 26.2855H5.21796C4.9077 26.5882 4.53691 26.8218 4.12994 26.971C3.72297 27.1201 3.28905 27.1815 2.85667 27.1511C2.42429 27.1207 2.00324 26.9991 1.62119 26.7943C1.23914 26.5896 0.904733 26.3063 0.639942 25.9632C0.375151 25.62 0.185973 25.2247 0.0848258 24.8032C-0.0163209 24.3817 -0.0271457 23.9436 0.0530706 23.5176C0.133287 23.0917 0.302725 22.6875 0.550252 22.3317C0.79778 21.9759 1.11779 21.6765 1.48927 21.4531C1.98643 13.4091 3.57734 10.3068 3.64694 10.1775C3.7003 10.0729 3.77414 9.98021 3.86408 9.90478C3.95402 9.82934 4.05823 9.77276 4.17049 9.73843C4.28275 9.7041 4.40076 9.69273 4.51751 9.70496C4.63426 9.71719 4.74736 9.75277 4.85007 9.80962C5.0591 9.91968 5.21613 10.1079 5.28691 10.3333C5.35769 10.5587 5.33648 10.803 5.22791 11.0128C5.22791 11.0128 3.67677 14.115 3.23927 22.0795C3.22836 22.2559 3.16605 22.4252 3.06003 22.5665C2.95402 22.7079 2.80893 22.8151 2.64268 22.875C2.45527 22.9425 2.28616 23.0528 2.14878 23.1971C2.01139 23.3413 1.9095 23.5156 1.85118 23.7061C1.79285 23.8966 1.77969 24.098 1.81275 24.2945C1.84581 24.491 1.92419 24.677 2.04165 24.8379C2.15911 24.9988 2.31243 25.1302 2.48947 25.2215C2.6665 25.3129 2.86239 25.3617 3.06159 25.3642C3.26079 25.3667 3.45784 25.3228 3.63711 25.2359C3.81637 25.149 3.97293 25.0215 4.09438 24.8636C4.17774 24.7525 4.28583 24.6623 4.41009 24.6001C4.53435 24.538 4.67137 24.5056 4.8103 24.5056H23.1853C23.3245 24.5041 23.4621 24.5357 23.5866 24.598C23.7111 24.6602 23.8189 24.7513 23.9012 24.8636C24.0633 25.0786 24.2889 25.2371 24.5461 25.3167C24.8032 25.3963 25.0789 25.3929 25.3341 25.3071C25.5893 25.2214 25.811 25.0575 25.9679 24.8387C26.1247 24.6199 26.2087 24.3573 26.208 24.088C26.2082 23.8235 26.1259 23.5655 25.9727 23.3499C25.8194 23.1342 25.6028 22.9717 25.3529 22.8849C25.1878 22.8246 25.0441 22.717 24.9398 22.5755C24.8355 22.4341 24.7751 22.265 24.7663 22.0895C24.3288 14.1349 22.7776 11.0525 22.7776 11.0227C22.679 10.8143 22.6647 10.576 22.7375 10.3573C22.8103 10.1386 22.9647 9.9564 23.1685 9.84873C23.3723 9.74106 23.6098 9.71617 23.8315 9.77927C24.0532 9.84238 24.242 9.9886 24.3586 10.1875C24.4282 10.3167 26.0191 13.419 26.5163 21.463C27.0886 21.8111 27.5314 22.3367 27.7774 22.9598C28.0234 23.5828 28.059 24.2692 27.8789 24.9143C27.6987 25.5595 27.3127 26.1282 26.7795 26.5336C26.2463 26.9391 25.5952 27.1592 24.9254 27.1605L24.9353 27.1505Z" fill="#001E32"/>
</svg>
