<svg width="80" height="81" viewBox="0 0 80 81" fill="none" xmlns="http://www.w3.org/2000/svg">
<g clip-path="url(#clip0_231_290)">
<path d="M78.75 11.094C78.75 11.8752 78.0937 12.594 76.9375 13.2502C73.875 15.0002 67.2188 16.219 59.5312 16.219C51.8125 16.219 45.1563 15.0002 42.125 13.2502C40.9688 12.594 40.3125 11.8752 40.3125 11.094C40.3125 10.3127 40.9688 9.59399 42.125 8.93774C45.1875 7.18774 51.8437 5.96899 59.5312 5.96899C67.25 5.96899 73.9062 7.18774 76.9375 8.93774C78.0937 9.59399 78.75 10.3127 78.75 11.094Z" fill="#9EF4E5"/>
<g opacity="0.1">
<path d="M78.75 11.094C78.75 11.8752 78.0937 12.594 76.9375 13.2502C73.875 15.0002 67.2188 16.219 59.5312 16.219C51.8125 16.219 45.1563 15.0002 42.125 13.2502C40.9688 12.594 40.3125 11.8752 40.3125 11.094C40.3125 10.9065 40.3437 10.719 40.4375 10.5315C40.6562 11.0002 41.125 11.4065 41.8125 11.8127C44.375 13.2815 49.9687 14.3127 56.4687 14.3127C62.9375 14.3127 68.5313 13.2815 71.125 11.8127C72.0938 11.2502 72.625 10.6565 72.625 10.0002C72.625 9.34399 72.0938 8.75024 71.125 8.18774C69.5 7.25024 66.625 6.50024 63.125 6.09399C69.2813 6.40649 74.375 7.50024 76.9688 8.96899C78.0938 9.59399 78.75 10.3127 78.75 11.094V11.094Z" fill="#2B9595"/>
</g>
<path d="M76.9375 44.2815V26.3752C73.875 28.1252 67.2188 29.344 59.5312 29.344C51.8125 29.344 45.1563 28.1252 42.125 26.3752V44.2815C40.9688 44.9377 40.3125 45.6565 40.3125 46.4377C40.3125 47.219 40.9688 47.9377 42.125 48.594C45.1875 50.344 51.8437 51.5627 59.5312 51.5627C67.25 51.5627 73.9062 50.344 76.9375 48.594C78.0937 47.9377 78.75 47.219 78.75 46.4377C78.75 45.6877 78.0937 44.9377 76.9375 44.2815ZM59.5312 47.0002C49.4687 47.0002 59.5312 33.5315 59.5312 33.5315C59.5312 33.5315 69.5938 47.0002 59.5312 47.0002Z" fill="#9EF4E5"/>
<path d="M78.75 59.7502C78.75 60.5315 78.0937 61.2502 76.9375 61.9065C73.875 63.6565 67.2188 64.844 59.5312 64.844C51.8125 64.844 45.1563 63.6252 42.125 61.9065C40.9688 61.2502 40.3125 60.5315 40.3125 59.7502C40.3125 58.969 40.9688 58.2502 42.125 57.594V48.594C45.1875 50.344 51.8437 51.5627 59.5312 51.5627C67.25 51.5627 73.9062 50.344 76.9375 48.594V57.594C78.0937 58.2502 78.75 59.0002 78.75 59.7502Z" fill="#9EF4E5"/>
<g opacity="0.1">
<path d="M76.9375 29.344C73.875 31.094 67.2188 32.3127 59.5313 32.3127C51.8125 32.3127 45.1563 31.094 42.125 29.344V26.3752C45.1875 28.1252 51.8437 29.344 59.5313 29.344C67.25 29.344 73.9063 28.1252 76.9375 26.3752V29.344Z" fill="#2B9595"/>
</g>
<g opacity="0.1">
<path d="M76.9375 48.6252V51.594C73.875 53.344 67.2188 54.5627 59.5313 54.5627C51.8125 54.5627 45.1563 53.344 42.125 51.594V48.6252C45.1875 50.3752 51.8437 51.594 59.5313 51.594C67.25 51.5627 73.9063 50.3752 76.9375 48.6252Z" fill="#2B9595"/>
</g>
<path d="M78.75 24.219C78.75 25.0002 78.0937 25.719 76.9375 26.3752C73.875 28.1252 67.2188 29.344 59.5312 29.344C51.8125 29.344 45.1563 28.1252 42.125 26.3752C40.9688 25.719 40.3125 25.0002 40.3125 24.219C40.3125 23.4377 40.9688 22.719 42.125 22.0627V13.2502C45.1875 15.0002 51.8437 16.219 59.5312 16.219C67.25 16.219 73.9062 15.0002 76.9375 13.2502V22.0627C78.0937 22.719 78.75 23.4377 78.75 24.219Z" fill="#9EF4E5"/>
<g opacity="0.1">
<path d="M76.9375 13.2502V16.219C73.875 17.969 67.2188 19.1877 59.5313 19.1877C51.8125 19.1877 45.1563 17.969 42.125 16.219V13.2502C45.1875 15.0002 51.8437 16.219 59.5313 16.219C67.25 16.219 73.9063 15.0002 76.9375 13.2502Z" fill="#2B9595"/>
</g>
<path d="M59.5313 47.0002C49.4688 47.0002 59.5313 33.5315 59.5313 33.5315C59.5313 33.5315 69.5938 47.0002 59.5313 47.0002Z" fill="white"/>
<path d="M59.5312 17.469C51.7813 17.469 44.875 16.2815 41.5 14.344C39.875 13.4377 39.0625 12.344 39.0625 11.094C39.0625 9.84399 39.875 8.75024 41.5 7.84399C44.875 5.90649 51.7813 4.71899 59.5312 4.71899C67.2812 4.71899 74.1875 5.90649 77.5625 7.84399C79.1875 8.75024 80 9.84399 80 11.094C80 12.344 79.1875 13.4377 77.5625 14.344C74.1875 16.2815 67.2812 17.469 59.5312 17.469ZM59.5312 7.25024C52.2812 7.25024 45.6875 8.34399 42.7187 10.0315C41.75 10.5627 41.5625 11.0002 41.5625 11.094C41.5625 11.1877 41.7812 11.6252 42.7187 12.1565C45.6875 13.844 52.2812 14.9377 59.5312 14.9377C66.7813 14.9377 73.375 13.844 76.3438 12.1565C77.3125 11.6252 77.5 11.1877 77.5 11.094C77.5 11.0002 77.2813 10.5627 76.3438 10.0315C73.375 8.34399 66.7813 7.25024 59.5312 7.25024Z" fill="#2B9595"/>
<path d="M59.5312 52.8127C51.7813 52.8127 44.875 51.6252 41.5 49.6877C39.875 48.7815 39.0625 47.6877 39.0625 46.4377C39.0625 45.3752 39.6563 44.4065 40.875 43.594V26.3752C40.875 25.9377 41.125 25.5315 41.5 25.2815C41.875 25.0627 42.375 25.0627 42.75 25.2815C45.7188 26.969 52.3125 28.0627 59.5625 28.0627C66.8125 28.0627 73.4062 26.969 76.375 25.2815C76.75 25.0627 77.25 25.0627 77.625 25.2815C78 25.5002 78.25 25.9065 78.25 26.3752V43.594C79.4375 44.4377 80.0625 45.3752 80.0625 46.4377C80.0625 47.6877 79.25 48.7815 77.625 49.6877C74.1875 51.6252 67.2812 52.8127 59.5312 52.8127V52.8127ZM43.375 28.3127V44.2815C43.375 44.719 43.125 45.1565 42.75 45.3752C41.7813 45.9065 41.5938 46.344 41.5938 46.4377C41.5938 46.5627 41.8125 46.969 42.75 47.5002C45.7188 49.1877 52.3125 50.2815 59.5625 50.2815C66.7813 50.2815 73.375 49.1877 76.375 47.5002C77.3437 46.969 77.5313 46.5315 77.5313 46.4377C77.5313 46.3127 77.3125 45.9065 76.375 45.3752C76 45.1565 75.75 44.7502 75.75 44.2815V28.3127C72.0312 29.719 66.0937 30.5627 59.5937 30.5627C53 30.594 47.0938 29.7502 43.375 28.3127V28.3127ZM59.5312 48.2502C56.875 48.2502 55.125 47.4065 54.2812 45.7502C52.1562 41.5002 57.875 33.6877 58.5313 32.8127C58.7813 32.5002 59.125 32.3127 59.5312 32.3127C59.9375 32.3127 60.2812 32.5002 60.5312 32.8127C61.1875 33.6877 66.9063 41.5315 64.7813 45.7502C63.9375 47.4065 62.1875 48.2502 59.5312 48.2502V48.2502ZM59.5312 35.719C57.5312 38.7815 55.6562 42.844 56.5312 44.6252C56.9062 45.3752 57.9063 45.7502 59.5312 45.7502C61.1562 45.7502 62.1563 45.3752 62.5313 44.6252C63.4063 42.8752 61.5313 38.7815 59.5312 35.719Z" fill="#2B9595"/>
<path d="M59.5312 66.1252C51.7813 66.1252 44.875 64.9377 41.5 63.0002C39.875 62.094 39.0625 61.0002 39.0625 59.7502C39.0625 58.6877 39.6563 57.719 40.875 56.9065V48.594C40.875 48.1565 41.125 47.7502 41.5 47.5002C41.875 47.2815 42.375 47.2815 42.75 47.5002C45.7188 49.1877 52.3125 50.2815 59.5625 50.2815C66.8125 50.2815 73.4062 49.1877 76.375 47.5002C76.75 47.2815 77.25 47.2815 77.625 47.5002C78 47.719 78.25 48.1252 78.25 48.594V56.9065C79.4375 57.7502 80.0625 58.6877 80.0625 59.7502C80.0625 61.0002 79.25 62.094 77.625 63.0002C74.2187 64.9377 67.2812 66.1252 59.5312 66.1252V66.1252ZM43.375 50.5627V57.594C43.375 58.0315 43.125 58.469 42.75 58.6877C41.7813 59.219 41.5938 59.6565 41.5938 59.7502C41.5938 59.8752 41.8125 60.2815 42.75 60.8127C45.7188 62.5002 52.3125 63.594 59.5625 63.594C66.8125 63.594 73.4062 62.5002 76.375 60.8127C77.3437 60.2815 77.5313 59.844 77.5313 59.7502C77.5313 59.6252 77.3125 59.219 76.375 58.6877C75.9687 58.469 75.75 58.0627 75.75 57.594V50.5627C72.0312 51.969 66.0937 52.8127 59.5937 52.8127C53 52.8127 47.0938 51.969 43.375 50.5627V50.5627Z" fill="#2B9595"/>
<path d="M59.5312 30.594C51.7813 30.594 44.875 29.4065 41.5 27.469C39.875 26.5627 39.0625 25.469 39.0625 24.219C39.0625 23.1565 39.6563 22.1877 40.875 21.3752V13.2502C40.875 12.8127 41.125 12.4065 41.5 12.1565C41.875 11.9377 42.375 11.9377 42.75 12.1565C45.7188 13.844 52.3125 14.9377 59.5625 14.9377C66.8125 14.9377 73.4062 13.844 76.375 12.1565C76.75 11.9377 77.25 11.9377 77.625 12.1565C78 12.3752 78.25 12.7815 78.25 13.2502V21.344C79.4375 22.1877 80.0625 23.1252 80.0625 24.1877C80.0625 25.4377 79.25 26.5315 77.625 27.4377C74.1875 29.3752 67.2812 30.594 59.5312 30.594V30.594ZM43.375 15.219V22.0627C43.375 22.5002 43.125 22.9377 42.75 23.1565C41.7813 23.6877 41.5938 24.1252 41.5938 24.219C41.5938 24.3127 41.8125 24.7502 42.75 25.2815C45.7188 26.969 52.3125 28.0627 59.5625 28.0627C66.8125 28.0627 73.4062 26.969 76.375 25.2815C77.3437 24.7502 77.5313 24.3127 77.5313 24.219C77.5313 24.1252 77.3125 23.6877 76.375 23.1565C75.9687 22.9377 75.75 22.5315 75.75 22.0627V15.219C72.0312 16.6252 66.0937 17.469 59.5937 17.469C53 17.469 47.0938 16.6252 43.375 15.219V15.219Z" fill="#2B9595"/>
<path d="M59.5312 48.2502C56.8749 48.2502 55.1249 47.4065 54.2812 45.7502C52.1562 41.5002 57.8749 33.6877 58.5312 32.8127C58.7812 32.5002 59.1249 32.3127 59.5312 32.3127C59.9374 32.3127 60.2812 32.5002 60.5312 32.8127C61.1874 33.6877 66.9062 41.5315 64.7812 45.7502C63.9374 47.4065 62.1874 48.2502 59.5312 48.2502V48.2502ZM59.5312 35.719C57.5312 38.7815 55.6562 42.844 56.5312 44.6252C56.9062 45.3752 57.9062 45.7502 59.5312 45.7502C61.1562 45.7502 62.1562 45.3752 62.5312 44.6252C63.4062 42.8752 61.5312 38.7815 59.5312 35.719Z" fill="#2B9595"/>
<path d="M39.6875 11.0002C39.6875 11.7815 39.0312 12.5002 37.875 13.1565C34.8125 14.9065 28.1563 16.1252 20.4688 16.1252C12.75 16.1252 6.09375 14.9065 3.0625 13.1565C1.90625 12.5002 1.25 11.7815 1.25 11.0002C1.25 10.219 1.90625 9.50024 3.0625 8.84399C6.125 7.09399 12.7812 5.87524 20.4688 5.87524C28.1875 5.87524 34.8437 7.09399 37.875 8.84399C39.0312 9.50024 39.6875 10.2502 39.6875 11.0002Z" fill="#9EF4E5"/>
<g opacity="0.1">
<path d="M39.6875 11.0002C39.6875 11.7815 39.0312 12.5002 37.875 13.1565C34.8125 14.9065 28.1563 16.1252 20.4688 16.1252C12.75 16.1252 6.09375 14.9065 3.0625 13.1565C1.90625 12.5002 1.25 11.7815 1.25 11.0002C1.25 10.8127 1.28125 10.6252 1.375 10.4377C1.59375 10.9065 2.0625 11.3127 2.75 11.719C5.3125 13.1877 10.9063 14.219 17.4063 14.219C23.875 14.219 29.4687 13.1877 32.0625 11.719C33.0312 11.1565 33.5625 10.5627 33.5625 9.90649C33.5625 9.25024 33.0312 8.65649 32.0625 8.09399C30.4375 7.15649 27.5625 6.40649 24.0625 6.00024C30.2188 6.31274 35.3125 7.40649 37.9063 8.87524C39.0313 9.50024 39.6875 10.2502 39.6875 11.0002V11.0002Z" fill="#2B9595"/>
</g>
<path d="M37.875 44.219V26.2815C34.8125 28.0315 28.1563 29.2502 20.4688 29.2502C12.75 29.2502 6.09375 28.0315 3.0625 26.2815V44.1877C1.90625 44.844 1.25 45.5627 1.25 46.344C1.25 47.1252 1.90625 47.844 3.0625 48.5002C6.125 50.2502 12.7812 51.469 20.4688 51.469C28.1875 51.469 34.8437 50.2502 37.875 48.5002C39.0312 47.844 39.6875 47.1252 39.6875 46.344C39.6875 45.594 39.0312 44.8752 37.875 44.219V44.219ZM20.4688 46.9065C10.4062 46.9065 20.4688 33.4377 20.4688 33.4377C20.4688 33.4377 30.5313 46.9065 20.4688 46.9065Z" fill="#9EF4E5"/>
<path d="M39.6875 59.6877C39.6875 60.469 39.0312 61.1877 37.875 61.844C34.8125 63.594 28.1563 64.7815 20.4688 64.7815C12.75 64.7815 6.09375 63.5627 3.0625 61.844C1.90625 61.1877 1.25 60.4377 1.25 59.6877C1.25 58.9065 1.90625 58.1877 3.0625 57.5315V48.5315C6.125 50.2815 12.7812 51.5002 20.4688 51.5002C28.1875 51.5002 34.8437 50.2815 37.875 48.5315V57.5315C39.0312 58.1565 39.6875 58.9065 39.6875 59.6877Z" fill="#9EF4E5"/>
<g opacity="0.1">
<path d="M37.875 29.2502C34.8125 31.0002 28.1563 32.219 20.4688 32.219C12.75 32.219 6.09375 31.0002 3.0625 29.2502V26.2815C6.125 28.0315 12.7813 29.2502 20.4688 29.2502C28.1875 29.2502 34.8438 28.0315 37.875 26.2815V29.2502Z" fill="#2B9595"/>
</g>
<g opacity="0.1">
<path d="M37.875 48.5315V51.5002C34.8125 53.2502 28.1563 54.469 20.4688 54.469C12.75 54.469 6.09375 53.2502 3.0625 51.5002V48.5315C6.125 50.2815 12.7813 51.5002 20.4688 51.5002C28.1875 51.469 34.8125 50.2815 37.875 48.5315Z" fill="#2B9595"/>
</g>
<path d="M39.6875 24.1252C39.6875 24.9065 39.0312 25.6252 37.875 26.2815C34.8125 28.0315 28.1563 29.2502 20.4688 29.2502C12.75 29.2502 6.09375 28.0315 3.0625 26.2815C1.90625 25.6252 1.25 24.9065 1.25 24.1252C1.25 23.344 1.90625 22.6252 3.0625 21.969V13.1565C6.125 14.9065 12.7812 16.1252 20.4688 16.1252C28.1875 16.1252 34.8437 14.9065 37.875 13.1565V21.969C39.0312 22.6252 39.6875 23.344 39.6875 24.1252Z" fill="#9EF4E5"/>
<g opacity="0.1">
<path d="M37.875 13.1565V16.1252C34.8125 17.8752 28.1563 19.094 20.4688 19.094C12.75 19.094 6.09375 17.8752 3.0625 16.1252V13.1565C6.125 14.9065 12.7813 16.1252 20.4688 16.1252C28.1875 16.1252 34.8125 14.9065 37.875 13.1565Z" fill="#2B9595"/>
</g>
<path d="M20.4688 46.9065C10.4063 46.9065 20.4688 33.4377 20.4688 33.4377C20.4688 33.4377 30.5313 46.9065 20.4688 46.9065Z" fill="white"/>
<path d="M20.4688 17.3752C12.7188 17.3752 5.8125 16.1877 2.4375 14.2502C0.8125 13.344 0 12.2502 0 11.0002C0 9.75024 0.8125 8.65649 2.4375 7.75024C5.8125 5.81274 12.7188 4.62524 20.4688 4.62524C28.2187 4.62524 35.125 5.81274 38.5 7.75024C40.125 8.65649 40.9375 9.75024 40.9375 11.0002C40.9375 12.2502 40.125 13.344 38.5 14.2502C35.125 16.1877 28.2187 17.3752 20.4688 17.3752ZM20.4688 7.15649C13.2187 7.15649 6.625 8.25024 3.65625 9.93774C2.71875 10.469 2.5 10.9065 2.5 11.0002C2.5 11.094 2.71875 11.5315 3.65625 12.0627C6.625 13.7502 13.2187 14.844 20.4688 14.844C27.7188 14.844 34.3125 13.7502 37.2813 12.0627C38.25 11.5315 38.4375 11.094 38.4375 11.0002C38.4375 10.9065 38.2188 10.469 37.2813 9.93774C34.2813 8.25024 27.6875 7.15649 20.4688 7.15649Z" fill="#2B9595"/>
<path d="M20.4688 52.719C12.7188 52.719 5.8125 51.5315 2.4375 49.594C0.8125 48.6877 0 47.594 0 46.3752C0 45.3127 0.59375 44.344 1.8125 43.5315V26.2815C1.8125 25.844 2.0625 25.4377 2.4375 25.1877C2.8125 24.969 3.3125 24.969 3.6875 25.1877C6.65625 26.8752 13.25 27.969 20.5 27.969C27.75 27.969 34.3438 26.8752 37.3125 25.1877C37.6875 24.969 38.1875 24.969 38.5625 25.1877C38.9375 25.4065 39.1875 25.8127 39.1875 26.2815V43.5002C40.375 44.344 41 45.2815 41 46.344C41 47.594 40.1875 48.6877 38.5625 49.594C35.125 51.5315 28.2187 52.719 20.4688 52.719ZM4.3125 28.2502V44.219C4.3125 44.6565 4.0625 45.094 3.6875 45.3127C2.71875 45.844 2.53125 46.2815 2.53125 46.3752C2.53125 46.5002 2.75 46.9065 3.6875 47.4377C6.65625 49.1252 13.25 50.219 20.5 50.219C27.75 50.219 34.3438 49.1252 37.3125 47.4377C38.2813 46.9065 38.4687 46.469 38.4687 46.3752C38.4687 46.2502 38.25 45.844 37.3125 45.3127C36.9375 45.094 36.6875 44.6877 36.6875 44.219V28.2502C32.9688 29.6565 27.0312 30.5002 20.5312 30.5002C13.9375 30.5002 8.03125 29.6565 4.3125 28.2502V28.2502ZM20.4688 48.1565C17.8125 48.1565 16.0625 47.3127 15.2188 45.6565C13.0938 41.4065 18.8125 33.594 19.4687 32.719C19.7187 32.4065 20.0625 32.219 20.4688 32.219C20.875 32.219 21.2187 32.4065 21.4687 32.719C22.125 33.594 27.8438 41.4377 25.7188 45.6565C24.875 47.3127 23.125 48.1565 20.4688 48.1565ZM20.4688 35.6565C18.4687 38.719 16.5938 42.7815 17.4688 44.5627C17.8438 45.3127 18.8438 45.6877 20.4688 45.6877C22.0937 45.6877 23.0937 45.3127 23.4687 44.5627C24.4062 42.6565 22.25 38.4065 20.4688 35.6565Z" fill="#2B9595"/>
<path d="M20.4688 66.0315C12.7188 66.0315 5.8125 64.844 2.4375 62.9065C0.8125 62.0002 0 60.9065 0 59.6565C0 58.594 0.59375 57.6252 1.8125 56.8127V48.5002C1.8125 48.0627 2.0625 47.6565 2.4375 47.4065C2.8125 47.1877 3.3125 47.1877 3.6875 47.4065C6.65625 49.094 13.25 50.1877 20.5 50.1877C27.75 50.1877 34.3438 49.094 37.3125 47.4065C37.6875 47.1877 38.1875 47.1877 38.5625 47.4065C38.9375 47.6252 39.1875 48.0315 39.1875 48.5002V56.8127C40.375 57.6565 41 58.594 41 59.6565C41 60.9065 40.1875 62.0002 38.5625 62.9065C35.125 64.844 28.2187 66.0315 20.4688 66.0315ZM4.3125 50.469V57.5002C4.3125 57.9377 4.0625 58.3752 3.6875 58.594C2.71875 59.1252 2.53125 59.5627 2.53125 59.6565C2.53125 59.7815 2.75 60.1877 3.6875 60.719C6.65625 62.4065 13.25 63.5002 20.5 63.5002C27.75 63.5002 34.3438 62.4065 37.3125 60.719C38.2813 60.1877 38.4687 59.7502 38.4687 59.6565C38.4687 59.5315 38.25 59.1252 37.3125 58.594C36.9063 58.3752 36.6875 57.969 36.6875 57.5002V50.469C32.9688 51.8752 27.0312 52.719 20.5312 52.719C13.9375 52.719 8.03125 51.8752 4.3125 50.469V50.469Z" fill="#2B9595"/>
<path d="M20.4688 30.5002C12.7188 30.5002 5.8125 29.3127 2.4375 27.3752C0.8125 26.469 0 25.3752 0 24.1252C0 23.0627 0.59375 22.094 1.8125 21.2815V13.1565C1.8125 12.719 2.0625 12.3127 2.4375 12.0627C2.8125 11.844 3.3125 11.844 3.6875 12.0627C6.65625 13.7502 13.25 14.844 20.5 14.844C27.75 14.844 34.3438 13.7502 37.3125 12.0627C37.6875 11.844 38.1875 11.844 38.5625 12.0627C38.9375 12.2815 39.1875 12.6877 39.1875 13.1565V21.2502C40.375 22.094 41 23.0315 41 24.094C41 25.344 40.1875 26.4377 38.5625 27.344C35.125 29.2815 28.2187 30.5002 20.4688 30.5002V30.5002ZM4.3125 15.1252V21.969C4.3125 22.4065 4.0625 22.844 3.6875 23.0627C2.71875 23.594 2.5 24.0002 2.5 24.1252C2.5 24.2502 2.71875 24.6565 3.65625 25.1877C6.625 26.8752 13.2187 27.969 20.4688 27.969C27.7188 27.969 34.3125 26.8752 37.2813 25.1877C38.25 24.6565 38.4375 24.219 38.4375 24.1252C38.4375 24.0315 38.2188 23.594 37.2813 23.0627C36.9063 22.844 36.6563 22.4377 36.6563 21.969V15.1252C32.9375 16.5315 27 17.3752 20.5 17.3752C13.9375 17.3752 8.03125 16.5315 4.3125 15.1252V15.1252Z" fill="#2B9595"/>
<path d="M20.4687 48.1565C17.8124 48.1565 16.0624 47.3127 15.2187 45.6565C13.0937 41.4065 18.8124 33.594 19.4687 32.719C19.7187 32.4065 20.0624 32.219 20.4687 32.219C20.8749 32.219 21.2187 32.4065 21.4687 32.719C22.1249 33.594 27.8437 41.4377 25.7187 45.6565C24.8749 47.3127 23.1249 48.1565 20.4687 48.1565ZM20.4687 35.6252C18.4687 38.6877 16.5937 42.7502 17.4687 44.5315C17.8437 45.2815 18.8437 45.6565 20.4687 45.6565C22.0937 45.6565 23.0937 45.2815 23.4687 44.5315C24.3437 42.7815 22.4687 38.6877 20.4687 35.6252Z" fill="#2B9595"/>
<g opacity="0.1">
<path d="M59.375 36.719V54.6252C60.5312 55.2815 61.1875 56.0315 61.1875 56.7815C61.1875 57.5627 60.5312 58.2815 59.375 58.9377V65.9065H24.5625V58.9377C23.4062 58.2815 22.75 57.5627 22.75 56.7815C22.75 56.0002 23.4062 55.2815 24.5625 54.6252V36.719C23.4062 36.0627 22.75 35.344 22.75 34.5627C22.75 33.7815 23.4062 33.0627 24.5625 32.4065V23.6252C23.4062 22.969 22.75 22.2502 22.75 21.469C22.75 20.6877 23.4062 19.969 24.5625 19.3127C27.1562 17.844 32.3125 16.7502 38.5312 16.4377C39.6562 16.3752 40.8125 16.344 41.9688 16.344C49.6875 16.344 56.3125 17.5627 59.375 19.3127C60.5312 19.969 61.1875 20.6877 61.1875 21.469C61.1875 22.2502 60.5312 22.969 59.375 23.6252V32.4377C60.5312 33.094 61.1875 33.8127 61.1875 34.594C61.1875 35.344 60.5312 36.0627 59.375 36.719Z" fill="#2B9595"/>
</g>
<g opacity="0.1">
<path d="M52.5 36.719V54.6252C53.6562 55.2815 54.3125 56.0315 54.3125 56.7815C54.3125 57.5627 53.6562 58.2815 52.5 58.9377V65.9065H17.6562V58.9377C16.5 58.2815 15.8438 57.5627 15.8438 56.7815C15.8438 56.0002 16.5 55.2815 17.6562 54.6252V36.719C16.5 36.0627 15.8438 35.344 15.8438 34.5627C15.8438 33.7815 16.5 33.0627 17.6562 32.4065V23.6252C16.5 22.969 15.8438 22.2502 15.8438 21.469C15.8438 20.6877 16.5 19.969 17.6562 19.3127C20.7187 17.5627 27.375 16.344 35.0625 16.344C36.25 16.344 37.4062 16.3752 38.5 16.4377C44.7187 16.719 49.875 17.8127 52.4687 19.3127C53.625 19.969 54.2812 20.6877 54.2812 21.469C54.2812 22.2502 53.625 22.969 52.4687 23.6252V32.4377C53.625 33.094 54.2812 33.8127 54.2812 34.594C54.2812 35.344 53.6562 36.0627 52.5 36.719V36.719Z" fill="#2B9595"/>
</g>
<path d="M57.8438 21.4377C57.8438 22.219 57.1875 22.9377 56.0313 23.594C52.9688 25.344 46.3125 26.5627 38.625 26.5627C30.9062 26.5627 24.25 25.344 21.2188 23.594C20.0625 22.9377 19.4062 22.219 19.4062 21.4377C19.4062 20.6565 20.0625 19.9377 21.2188 19.2815C24.2813 17.5315 30.9375 16.3127 38.625 16.3127C46.3438 16.3127 53 17.5315 56.0313 19.2815C57.1875 19.9377 57.8438 20.6877 57.8438 21.4377Z" fill="#9EF4E5"/>
<g opacity="0.1">
<path d="M57.8438 21.4377C57.8438 22.219 57.1875 22.9377 56.0313 23.594C52.9688 25.344 46.3125 26.5627 38.625 26.5627C30.9062 26.5627 24.25 25.344 21.2188 23.594C20.0625 22.9377 19.4062 22.219 19.4062 21.4377C19.4062 21.2502 19.4375 21.0627 19.5313 20.8752C19.75 21.344 20.2188 21.7502 20.9063 22.1565C23.4688 23.6252 29.0625 24.6565 35.5625 24.6565C42.0313 24.6565 47.625 23.6252 50.2187 22.1565C51.1875 21.594 51.7188 21.0002 51.7188 20.344C51.7188 19.6877 51.1875 19.094 50.2187 18.5315C48.5937 17.594 45.7188 16.844 42.2188 16.4377C48.375 16.7502 53.4687 17.844 56.0625 19.3127C57.1875 19.9377 57.8438 20.6877 57.8438 21.4377V21.4377Z" fill="#2B9595"/>
</g>
<path d="M56.0313 54.6565V36.7502C52.9688 38.5002 46.3125 39.719 38.625 39.719C30.9062 39.719 24.25 38.5002 21.2188 36.7502V54.6565C20.0625 55.3127 19.4062 56.0315 19.4062 56.8127C19.4062 57.594 20.0625 58.3127 21.2188 58.969C24.2813 60.719 30.9375 61.9377 38.625 61.9377C46.3438 61.9377 53 60.719 56.0313 58.969C57.1875 58.3127 57.8438 57.594 57.8438 56.8127C57.8438 56.0315 57.1875 55.3127 56.0313 54.6565ZM38.625 57.344C28.5625 57.344 38.625 43.8752 38.625 43.8752C38.625 43.8752 48.6875 57.344 38.625 57.344Z" fill="#9EF4E5"/>
<path d="M57.8438 70.1252C57.8438 70.9065 57.1875 71.6252 56.0313 72.2815C52.9688 74.0315 46.3125 75.219 38.625 75.219C30.9062 75.219 24.25 74.0002 21.2188 72.2815C20.0625 71.6252 19.4062 70.9065 19.4062 70.1252C19.4062 69.344 20.0625 68.6252 21.2188 67.969V58.969C24.2813 60.719 30.9375 61.9377 38.625 61.9377C46.3438 61.9377 53 60.719 56.0313 58.969V67.969C57.1875 68.6252 57.8438 69.344 57.8438 70.1252Z" fill="#9EF4E5"/>
<g opacity="0.1">
<path d="M56.0313 39.6877C52.9688 41.4377 46.3125 42.6565 38.625 42.6565C30.9062 42.6565 24.25 41.4377 21.2188 39.6877V36.719C24.2813 38.469 30.9375 39.6877 38.625 39.6877C46.3437 39.6877 53 38.469 56.0313 36.719V39.6877Z" fill="#2B9595"/>
</g>
<g opacity="0.1">
<path d="M56.0313 58.969V61.9377C52.9688 63.6877 46.3125 64.9065 38.625 64.9065C30.9062 64.9065 24.25 63.6877 21.2188 61.9377V58.969C24.2813 60.719 30.9375 61.9377 38.625 61.9377C46.3125 61.9065 52.9688 60.719 56.0313 58.969Z" fill="#2B9595"/>
</g>
<path d="M57.8438 34.5627C57.8438 35.344 57.1875 36.0627 56.0313 36.719C52.9688 38.469 46.3125 39.6877 38.625 39.6877C30.9062 39.6877 24.25 38.469 21.2188 36.719C20.0625 36.0627 19.4062 35.344 19.4062 34.5627C19.4062 33.7815 20.0625 33.0627 21.2188 32.4065V23.6252C24.2813 25.3752 30.9375 26.594 38.625 26.594C46.3438 26.594 53 25.3752 56.0313 23.6252V32.4377C57.1875 33.0627 57.8438 33.7815 57.8438 34.5627V34.5627Z" fill="#9EF4E5"/>
<g opacity="0.1">
<path d="M56.0313 23.6252V26.594C52.9688 28.344 46.3125 29.5627 38.625 29.5627C30.9062 29.5627 24.25 28.344 21.2188 26.594V23.6252C24.2813 25.3752 30.9375 26.594 38.625 26.594C46.3125 26.5627 52.9688 25.344 56.0313 23.6252Z" fill="#2B9595"/>
</g>
<path d="M38.6251 57.344C28.5626 57.344 38.6251 43.8752 38.6251 43.8752C38.6251 43.8752 48.6876 57.344 38.6251 57.344Z" fill="white"/>
<path d="M38.625 27.8127C30.875 27.8127 23.9688 26.6252 20.5938 24.6877C18.9688 23.7815 18.1562 22.6877 18.1562 21.4377C18.1562 20.1877 18.9688 19.094 20.5938 18.1877C23.9688 16.2502 30.875 15.0627 38.625 15.0627C46.375 15.0627 53.2813 16.2502 56.6563 18.1877C58.2813 19.094 59.0938 20.1877 59.0938 21.4377C59.0938 22.6877 58.2813 23.7815 56.6563 24.6877C53.2813 26.6252 46.375 27.8127 38.625 27.8127V27.8127ZM38.625 17.594C31.375 17.594 24.7813 18.6877 21.8125 20.3752C20.8438 20.9065 20.6562 21.344 20.6562 21.4377C20.6562 21.5627 20.875 21.969 21.8125 22.5002C24.7813 24.1877 31.375 25.2815 38.625 25.2815C45.875 25.2815 52.4687 24.1877 55.4375 22.5002C56.4062 21.969 56.5938 21.5315 56.5938 21.4377C56.5938 21.3127 56.375 20.9065 55.4375 20.3752C52.4375 18.6877 45.8438 17.594 38.625 17.594V17.594Z" fill="#2B9595"/>
<path d="M38.625 63.1877C30.875 63.1877 23.9688 62.0002 20.5938 60.0627C19 59.1565 18.1562 58.0627 18.1562 56.8127C18.1562 55.7502 18.75 54.7815 19.9688 53.969V36.7502C19.9688 36.3127 20.2188 35.9065 20.5938 35.6565C20.9688 35.4377 21.4688 35.4377 21.8438 35.6565C24.8125 37.344 31.4062 38.4377 38.6562 38.4377C45.9062 38.4377 52.5 37.344 55.4688 35.6565C55.8438 35.4377 56.3438 35.4377 56.7188 35.6565C57.0938 35.8752 57.3438 36.2815 57.3438 36.7502V53.969C58.5313 54.8127 59.1563 55.7502 59.1563 56.8127C59.1563 58.0627 58.3438 59.1565 56.7188 60.0627C53.2813 61.969 46.375 63.1877 38.625 63.1877ZM22.4375 38.6877V54.6565C22.4375 55.094 22.1875 55.5315 21.8125 55.7502C20.8438 56.2815 20.6562 56.719 20.6562 56.8127C20.6562 56.9377 20.875 57.344 21.8125 57.8752C24.7813 59.5627 31.375 60.6565 38.625 60.6565C45.875 60.6565 52.4687 59.5627 55.4375 57.8752C56.4062 57.344 56.5938 56.9065 56.5938 56.8127C56.5938 56.6877 56.375 56.2815 55.4375 55.7502C55.0625 55.5315 54.8125 55.1252 54.8125 54.6565V38.6877C51.0937 40.094 45.1562 40.9377 38.6562 40.9377C32.0937 40.9377 26.1563 40.094 22.4375 38.6877V38.6877ZM38.625 58.594C35.9688 58.594 34.2188 57.7502 33.375 56.094C31.25 51.844 36.9688 44.0315 37.625 43.1565C37.875 42.844 38.2188 42.6565 38.625 42.6565C39.0312 42.6565 39.375 42.844 39.625 43.1565C40.2813 44.0315 46 51.8752 43.875 56.094C43.0312 57.7502 41.25 58.594 38.625 58.594V58.594ZM38.625 46.094C36.625 49.1565 34.75 53.219 35.625 55.0002C36 55.7502 37 56.1252 38.625 56.1252C40.25 56.1252 41.25 55.7502 41.625 55.0002C42.5 53.219 40.5938 49.1252 38.625 46.094Z" fill="#2B9595"/>
<path d="M38.625 76.469C30.875 76.469 23.9688 75.2815 20.5938 73.344C18.9688 72.4377 18.1562 71.344 18.1562 70.094C18.1562 69.0315 18.75 68.0627 19.9688 67.2502V58.9377C19.9688 58.5002 20.2188 58.094 20.5938 57.844C20.9688 57.6252 21.4688 57.6252 21.8438 57.844C24.8125 59.5315 31.4062 60.6252 38.6562 60.6252C45.9062 60.6252 52.5 59.5315 55.4688 57.844C55.8438 57.6252 56.3438 57.6252 56.7188 57.844C57.0938 58.0627 57.3438 58.469 57.3438 58.9377V67.2502C58.5313 68.094 59.1563 69.0315 59.1563 70.094C59.1563 71.344 58.3438 72.4377 56.7188 73.344C53.2813 75.2815 46.375 76.469 38.625 76.469ZM22.4375 60.9065V67.9377C22.4375 68.3752 22.1875 68.8127 21.8125 69.0315C20.8438 69.5627 20.6562 70.0002 20.6562 70.094C20.6562 70.219 20.875 70.6252 21.8125 71.1565C24.7813 72.844 31.375 73.9377 38.625 73.9377C45.875 73.9377 52.4687 72.844 55.4375 71.1565C56.4062 70.6252 56.5938 70.1877 56.5938 70.094C56.5938 69.969 56.375 69.5627 55.4375 69.0315C55.0625 68.8127 54.8125 68.4065 54.8125 67.9377V60.9065C51.0937 62.3127 45.1562 63.1565 38.6562 63.1565C32.1562 63.1565 26.1563 62.3127 22.4375 60.9065V60.9065Z" fill="#2B9595"/>
<path d="M38.625 40.9377C30.875 40.9377 23.9688 39.7502 20.5938 37.8127C18.9688 36.9065 18.1562 35.8127 18.1562 34.5627C18.1562 33.5002 18.75 32.5315 19.9688 31.719V23.6252C19.9688 23.1877 20.2188 22.7815 20.5938 22.5315C20.9688 22.3127 21.4688 22.3127 21.8438 22.5315C24.8125 24.219 31.4062 25.3127 38.6562 25.3127C45.9062 25.3127 52.5 24.219 55.4688 22.5315C55.8438 22.3127 56.3438 22.3127 56.7188 22.5315C57.0938 22.7502 57.3438 23.1565 57.3438 23.6252V31.719C58.5313 32.5627 59.1563 33.5002 59.1563 34.5627C59.1563 35.8127 58.3438 36.9065 56.7188 37.8127C53.2813 39.7502 46.375 40.9377 38.625 40.9377ZM22.4375 25.5627V32.4065C22.4375 32.844 22.1875 33.2815 21.8125 33.5002C20.8438 34.0315 20.6562 34.469 20.6562 34.5627C20.6562 34.6877 20.875 35.094 21.8125 35.6252C24.7813 37.3127 31.375 38.4065 38.625 38.4065C45.875 38.4065 52.4687 37.3127 55.4375 35.6252C56.4062 35.094 56.5938 34.6565 56.5938 34.5627C56.5938 34.4377 56.375 34.0315 55.4375 33.5002C55.0312 33.2815 54.8125 32.8752 54.8125 32.4065V25.5627C51.0937 26.969 45.1562 27.8127 38.6562 27.8127C32.1562 27.8127 26.1563 26.969 22.4375 25.5627V25.5627Z" fill="#2B9595"/>
<path d="M38.6249 58.594C35.9687 58.594 34.2187 57.7502 33.3749 56.094C31.2499 51.844 36.9687 44.0315 37.6249 43.1565C37.8749 42.844 38.2187 42.6565 38.6249 42.6565C39.0312 42.6565 39.3749 42.844 39.6249 43.1565C40.2812 44.0315 45.9999 51.8752 43.8749 56.094C43.0311 57.7502 41.2499 58.594 38.6249 58.594V58.594ZM38.6249 46.094C36.6249 49.1565 34.7499 53.219 35.6249 55.0002C35.9999 55.7502 36.9999 56.1252 38.6249 56.1252C40.2499 56.1252 41.2499 55.7502 41.6249 55.0002C42.4999 53.219 40.5937 49.1252 38.6249 46.094Z" fill="#2B9595"/>
</g>
<defs>
<clipPath id="clip0_231_290">
<rect width="80" height="80" fill="white" transform="translate(0 0.562744)"/>
</clipPath>
</defs>
</svg>
