<svg width="28" height="28" viewBox="0 0 28 28" fill="none" xmlns="http://www.w3.org/2000/svg">
<path d="M0 19.4278L2.31667 17.1112L12.3023 7.12551L13.8102 8.67329L18.4835 4H26.9613V9.45217H20.8001L17.6746 12.5677L19.1824 14.0855L11.9828 21.3151C11.2594 22.0298 10.2836 22.4306 9.26669 22.4306C8.24982 22.4306 7.27393 22.0298 6.55059 21.3151L6.21108 20.9756L3.86445 23.2923L0 19.4278ZM20.0812 7.77458H25.2837V5.67759H19.1625L14.9785 9.87157L16.5163 11.4094L20.0812 7.77458ZM12.2624 9.48213L4.64333 17.1112L6.18112 18.6589L9.79593 15.0441L14.4592 16.4921L16.8658 14.0855L12.2624 9.48213ZM7.67897 20.1568C8.09513 20.5642 8.65435 20.7924 9.23673 20.7924C9.81912 20.7924 10.3783 20.5642 10.7945 20.1568L13.1411 17.8102L10.2553 16.9115L7.34944 19.8173L7.67897 20.1568ZM3.47501 18.2695L2.31667 19.4278L3.86445 20.9756L4.99283 19.8173L3.47501 18.2695Z" fill="#001E32"/>
<path d="M24.9641 14.585L24.4648 14.9844C24.2052 15.1841 21.9385 16.9815 21.9385 18.9787C21.9385 19.7824 22.2578 20.5533 22.8261 21.1216C23.3945 21.69 24.1653 22.0093 24.9691 22.0093C25.7729 22.0093 26.5438 21.69 27.1121 21.1216C27.6805 20.5533 27.9998 19.7824 27.9998 18.9787C27.86 16.7119 25.5533 15.0942 24.9641 14.585ZM24.9641 20.3866C24.5968 20.384 24.2453 20.2369 23.9856 19.9772C23.7258 19.7175 23.5787 19.3659 23.5761 18.9986C23.7681 18.1046 24.2574 17.3021 24.9641 16.7219C25.6776 17.2978 26.1713 18.1017 26.3621 18.9986C26.3595 19.3677 26.211 19.7207 25.9491 19.9807C25.6873 20.2407 25.3332 20.3866 24.9641 20.3866Z" fill="#64CEB8"/>
</svg>
