<svg width="160" height="105" viewBox="0 0 160 105" fill="none" xmlns="http://www.w3.org/2000/svg">
<rect y="0.946533" width="160" height="104" rx="5" fill="white"/>
<path fill-rule="evenodd" clip-rule="evenodd" d="M4.11898 0.946533H155.881C158.159 0.946533 160 2.79356 160 5.06551V100.519C160 102.794 158.159 104.638 155.881 104.638H4.11898C1.84136 104.638 0 102.791 0 100.516V5.06551C0 2.79072 1.84136 0.946533 4.11898 0.946533ZM36.1778 39.9243C36.5617 39.9243 36.9066 39.8414 37.2115 39.6756C37.5163 39.5097 37.8744 39.1814 38.2841 38.6912H39.1598L36.9124 47.8399H36.2559C36.11 46.4077 35.851 45.2609 35.4802 44.399C34.9237 43.1526 34.1846 42.1912 33.2622 41.5151C32.3407 40.839 31.3432 40.5009 30.2695 40.5009C29.2349 40.5009 28.331 40.8956 27.5554 41.6843C26.7788 42.4731 26.391 43.3648 26.391 44.359C26.391 45.3404 26.6593 46.3048 27.1968 47.2526C27.7334 48.2009 29.0032 49.6292 31.0051 51.5385C32.6095 53.0634 33.6871 54.376 34.2368 55.4765C34.7876 56.5775 35.0627 57.7707 35.0627 59.0565C35.0627 60.5019 34.6778 61.8346 33.909 63.0541C33.1402 64.2741 32.0227 65.219 30.5583 65.8882C29.0929 66.5575 27.4324 66.8926 25.5754 66.8926C24.4349 66.8926 23.0002 66.7234 21.27 66.3853C19.5398 66.0473 18.39 65.878 17.8193 65.878C17.369 65.878 16.9646 65.9477 16.6066 66.0868C16.2485 66.2258 15.8046 66.4946 15.2749 66.8921H14.4983L16.9051 56.6102H17.6607C17.8329 58.4131 18.1978 59.9482 18.7554 61.2141C19.3119 62.4804 20.1076 63.4682 21.1412 64.1775C22.1759 64.8868 23.3554 65.2414 24.6817 65.2414C25.9944 65.2414 27.091 64.8078 27.9734 63.939C28.8549 63.0712 29.2959 62.0531 29.2959 60.8863C29.2959 59.8916 29.0476 58.937 28.55 58.0224C28.0524 57.1078 26.9198 55.7751 25.1495 54.0248C23.3798 52.2746 22.1563 50.7102 21.4798 49.3312C20.989 48.3107 20.7441 47.2234 20.7441 46.0697C20.7441 44.0677 21.5334 42.3375 23.111 40.879C24.689 39.4204 26.7505 38.6912 29.2963 38.6912C30.45 38.6912 31.968 38.9497 33.8505 39.4668C34.9505 39.7721 35.7261 39.9243 36.1778 39.9243ZM77.0676 40.7196C77.4915 40.3884 78.0281 40.1625 78.6779 40.0435L78.8569 39.3079H71.6579L71.4588 40.0435C72.3066 40.1362 72.8803 40.3054 73.1793 40.5508C73.4774 40.7962 73.6262 41.0713 73.6262 41.3762C73.6262 41.6942 73.514 42.0791 73.2881 42.5298C72.9701 43.1932 72.1418 44.4459 70.8022 46.2888L62.9666 57.0683L64.0003 43.3854C64.1062 42.0996 64.391 41.221 64.8559 40.7503C65.3198 40.2801 66.0354 40.0445 67.0032 40.0445L67.2223 39.3088H56.2437L56.0447 40.0445C56.8535 40.084 57.434 40.2766 57.7852 40.621C58.1359 40.9659 58.312 41.463 58.312 42.1127C58.312 42.4308 58.2852 42.8552 58.232 43.3854L58.034 45.9508L49.8993 57.0683L50.953 43.3854C51.0462 42.0996 51.314 41.221 51.7588 40.7503C52.2027 40.2801 52.7832 40.0445 53.4984 40.0445H54.0359L54.254 39.3088H43.3554L43.0574 40.0445C43.8798 40.084 44.453 40.2698 44.7779 40.6015C45.1027 40.9332 45.2647 41.4503 45.2647 42.1527C45.2647 42.5903 45.2379 43.1474 45.1857 43.823L43.3554 66.8932H44.5491L57.814 48.6957L56.4418 66.8932H57.6145L74.7383 43.3854C75.6949 42.0723 76.4705 41.184 77.0676 40.7196ZM93.2754 39.3079L93.0174 40.0435C91.8237 40.0435 90.912 40.3088 90.2828 40.8391C89.653 41.3698 89.0993 42.4771 88.6223 44.1605L83.6901 61.4235C83.3315 62.6435 83.1525 63.4591 83.1525 63.8698C83.1525 64.3469 83.3384 64.7186 83.7101 64.9835C84.1876 65.3288 85.0886 65.5142 86.415 65.5406L86.2159 66.2766H72.8311L73.0501 65.5406C74.3886 65.5406 75.3701 65.2854 75.993 64.7747C76.6164 64.2644 77.1803 63.1474 77.6842 61.4235L82.6554 44.1605C82.9603 43.1001 83.113 42.2981 83.113 41.7542C83.113 41.2635 82.9271 40.8791 82.5564 40.6005C82.1847 40.322 81.2969 40.1362 79.8915 40.0435L80.1096 39.3079H93.2754ZM97.3135 40.0435C98.5462 40.0966 99.3618 40.2854 99.7594 40.6103C100.157 40.9352 100.369 41.3298 100.396 41.7937C100.369 42.2845 100.104 43.3981 99.6003 45.1347L94.7882 61.642C94.3106 63.2727 93.7735 64.3303 93.1769 64.8142C92.5804 65.2981 91.6325 65.5401 90.333 65.5401L90.114 66.2762H103.578L103.797 65.5401C102.684 65.5269 101.928 65.444 101.53 65.2918C101.133 65.1396 100.844 64.9308 100.665 64.6654C100.486 64.4005 100.396 64.0357 100.396 63.5718C100.396 63.2537 100.43 62.9288 100.496 62.5971L100.974 60.9064L103.399 52.4937C105.786 52.5469 107.245 52.6625 107.775 52.8415C108.305 53.0206 108.74 53.3557 109.078 53.8459C109.416 54.3366 109.585 54.9927 109.585 55.8147C109.585 56.2259 109.519 56.7761 109.387 57.4654H110.182L113.264 46.8254H112.489C111.945 47.9659 111.269 48.8576 110.46 49.5005C109.652 50.144 108.75 50.5644 107.755 50.7635C107.146 50.8962 105.826 50.9757 103.798 51.002L106.781 40.8196H110.182C112.117 40.8196 113.526 41.022 114.408 41.4259C115.29 41.8308 115.922 42.3937 116.308 43.1166C116.692 43.8396 116.924 44.9435 117.004 46.4279H117.74L119.55 39.3079H97.514L97.3135 40.0435ZM122.451 46.5669H121.676L123.804 39.3079H145.502L143.453 46.5669H142.737C142.764 46.1825 142.777 45.8444 142.777 45.5527C142.777 44.1737 142.372 43.1035 141.564 42.3405C140.755 41.5786 139.389 41.1445 137.467 41.0381L131.46 61.344C131.129 62.4713 130.963 63.3064 130.963 63.8498C130.963 64.3542 131.169 64.7547 131.58 65.0532C131.991 65.3518 132.826 65.5142 134.086 65.5406L133.907 66.2766H120.522L120.761 65.5406C122.127 65.5406 123.121 65.2854 123.744 64.7747C124.368 64.2644 124.937 63.121 125.454 61.344L131.461 41.0381C129.392 41.1045 127.662 41.5552 126.27 42.3903C124.878 43.2259 123.605 44.6176 122.451 46.5669Z" fill="url(#paint0_linear_332_49)"/>
<defs>
<linearGradient id="paint0_linear_332_49" x1="160" y1="1" x2="-7.65153e-07" y2="100" gradientUnits="userSpaceOnUse">
<stop stop-color="#2FF8CC"/>
<stop offset="1" stop-color="#319793"/>
</linearGradient>
</defs>
</svg>
