<svg width="160" height="105" viewBox="0 0 160 105" fill="none" xmlns="http://www.w3.org/2000/svg">
<rect y="0.946533" width="160" height="104" rx="5" fill="white"/>
<path fill-rule="evenodd" clip-rule="evenodd" d="M155.881 0.946533H4.11898C1.84136 0.946533 0 2.79072 0 5.06551V100.516C0 102.791 1.84136 104.638 4.11898 104.638H155.881C158.159 104.638 160 102.794 160 100.519V5.06551C160 2.79356 158.159 0.946533 155.881 0.946533ZM27.3025 71.633C26.8381 71.2197 26.8242 70.7461 27.0053 70.175C27.2702 69.3178 27.5001 68.4459 27.7297 67.5748L27.7297 67.5745C27.7683 67.428 27.807 67.2815 27.8457 67.1351C28.1553 65.9433 28.0531 65.6337 27.0718 64.8938C24.4173 62.8817 22.2984 60.4207 21.1174 57.2833C18.8065 51.14 20.133 45.6546 24.4777 40.8904C28.1507 36.8661 32.8947 34.789 38.2532 34.1513C44.754 33.3774 50.7409 34.7704 56.0282 38.7436C56.9212 39.4393 57.7557 40.207 58.5233 41.039C58.8669 41.3981 58.7895 41.5343 58.3685 41.7185C53.6601 43.7905 48.9553 45.8708 44.254 47.9593C43.536 48.2792 42.8159 48.5977 42.0948 48.9167L42.0931 48.9174L42.0929 48.9175C40.6307 49.5643 39.1649 50.2126 37.7068 50.8769C36.7781 51.3025 35.9377 51.2608 35.0988 50.6478C34.262 50.0366 33.4151 49.4396 32.568 48.8425L32.5677 48.8422C32.0486 48.4763 31.5295 48.1103 31.0125 47.741C30.655 47.4857 30.299 47.2891 29.8997 47.6311C29.5344 47.9407 29.6443 48.3075 29.8161 48.6821C30.3273 49.7946 30.8362 50.9078 31.3451 52.021C32.0951 53.6616 32.845 55.302 33.602 56.9397C34.0555 57.921 34.8681 58.1593 35.8309 57.6052C42.7217 53.6439 49.6095 49.6799 56.4941 45.7134C56.8382 45.5145 57.1849 45.3197 57.5313 45.1251C58.2631 44.714 58.9937 44.3036 59.6965 43.856C60.2429 43.5078 60.4967 43.5945 60.7924 44.1517C63.7177 49.6851 63.5784 55.1411 60.0959 60.3325C56.6133 65.5238 51.504 68.135 45.4675 69.1612C41.8723 69.7677 38.1872 69.5668 34.6793 68.573C34.297 68.4597 33.8945 68.4311 33.5 68.4891C33.1055 68.5471 32.7283 68.6903 32.3947 68.9089C31.292 69.5772 30.1789 70.2271 29.0657 70.877L29.0627 70.8787C28.63 71.1313 28.1973 71.3839 27.7652 71.6376L27.3025 71.633ZM115.416 49.3985C113.472 50.6229 111.395 51.3318 109.215 51.7868L109.219 51.7962C109.68 52.8285 109.683 52.8354 110.687 52.5514C112.392 52.057 114.026 51.3443 115.549 50.4309C116.053 50.1183 116.385 50.0827 116.903 50.4433C118.434 51.5098 120.166 52.1614 121.958 52.6706C122.435 52.8068 122.646 52.6041 122.759 52.2295C122.85 51.9271 122.66 51.9025 122.477 51.8788C122.399 51.8686 122.322 51.8586 122.269 51.8271C122.134 51.7465 121.974 51.7065 121.813 51.6662C121.72 51.643 121.628 51.6198 121.539 51.5887C119.965 51.0361 118.426 50.4077 116.985 49.4109C118.737 48.0566 120.079 46.4593 120.986 44.5152C121.415 43.5974 121.195 43.2708 120.124 43.2584C119.195 43.2414 118.267 43.2336 117.338 43.2584C116.939 43.2677 116.784 43.1469 116.806 42.7352C116.843 42.1719 116.843 41.6068 116.806 41.0435C116.764 40.5281 116.943 40.3918 117.45 40.4011C119.172 40.421 120.894 40.4122 122.617 40.4035H122.617L123.087 40.4011C123.146 40.4009 123.209 40.4062 123.272 40.4115C123.569 40.4366 123.871 40.4622 123.861 39.9027C123.852 39.3753 123.57 39.4016 123.294 39.4273L123.294 39.4274C123.234 39.4329 123.175 39.4384 123.119 39.4384H118.564C116.868 39.4384 116.858 39.4384 116.821 37.7683C116.813 37.4015 116.752 37.208 116.327 37.208C115.903 37.208 115.786 37.3535 115.818 37.7451C115.832 37.8969 115.826 38.0506 115.821 38.2041V38.2042V38.2043V38.2044V38.2046V38.2047V38.2048V38.2049V38.205V38.2051V38.2052V38.2054V38.2055V38.2056V38.2057V38.2058V38.2059V38.206V38.2062V38.2063V38.2064C115.814 38.387 115.808 38.5673 115.832 38.7434C115.916 39.3455 115.663 39.4632 115.1 39.4523C113.995 39.4314 112.889 39.4335 111.783 39.4356H111.783H111.783H111.783H111.782H111.782H111.782H111.782H111.782H111.782H111.782H111.782H111.782H111.782H111.782H111.782H111.782H111.782H111.782H111.781H111.781H111.781H111.781H111.781H111.781C111.009 39.4371 110.237 39.4386 109.464 39.4322C109.071 39.4291 108.859 39.4663 108.862 39.9569C108.865 40.4101 109.095 40.4077 109.382 40.4047C109.405 40.4045 109.429 40.4042 109.454 40.4042L109.793 40.4019C111.065 40.3931 112.344 40.3843 113.623 40.4042C113.839 40.408 114.076 40.3803 114.314 40.3525C114.859 40.2888 115.406 40.2249 115.693 40.542C115.977 40.8559 115.923 41.3627 115.868 41.8809C115.838 42.16 115.808 42.4423 115.831 42.6996C115.869 43.164 115.656 43.2568 115.241 43.2445C114.618 43.2258 113.997 43.2297 113.377 43.2335C113.121 43.2351 112.865 43.2367 112.61 43.2367C111.057 43.2367 110.927 43.4735 111.701 44.8666C111.743 44.941 111.788 45.0135 111.832 45.086C111.869 45.1447 111.905 45.2033 111.939 45.2628C112.868 46.8195 114.042 48.2161 115.416 49.3985ZM115.131 44.0925C115.499 44.0902 115.867 44.088 116.235 44.088C116.719 44.088 117.206 44.0897 117.691 44.0914H117.693H117.694H117.696H117.698H117.699H117.701H117.702H117.704H117.705H117.707H117.709H117.71H117.712H117.713H117.715H117.717H117.718H117.72H117.721H117.723H117.724H117.726H117.728H117.729C118.363 44.0937 118.996 44.096 119.623 44.0942C120.011 44.0849 120.149 44.1577 119.942 44.5585C119.113 46.159 117.937 47.456 116.524 48.5581C116.247 48.7748 116.075 48.6726 115.863 48.4962C114.559 47.4154 113.458 46.1102 112.613 44.6421C112.37 44.2289 112.388 44.0741 112.922 44.088C113.658 44.1014 114.393 44.097 115.13 44.0925L115.131 44.0925ZM83.1925 57.975L81.3553 64.2467C81.2034 64.1533 81.1797 64.0269 81.1569 63.9052C81.1514 63.8757 81.1459 63.8464 81.1386 63.8179C80.5979 61.7666 80.0582 59.709 79.5196 57.6453C79.5144 57.6254 79.5094 57.6057 79.5045 57.5861L79.5045 57.586L79.5042 57.5848C79.4354 57.3122 79.3757 57.0757 78.9546 57.0757C78.5507 57.0803 78.4175 57.2552 78.3355 57.5911C78.2594 57.9014 78.1674 58.2084 78.0754 58.5151L78.0753 58.5153C78.0421 58.6261 78.0089 58.737 77.9764 58.8479L76.3744 64.29C76.1515 64.0159 76.101 63.748 76.0544 63.5005L76.0544 63.5002C76.0389 63.4179 76.0238 63.3379 76.003 63.2607C75.4984 61.36 74.9938 59.4531 74.5295 57.5338C74.3916 56.9598 73.9989 57.0408 73.6645 57.1099L73.6426 57.1144C73.3104 57.1801 73.4136 57.399 73.5007 57.5837C73.5265 57.6382 73.5508 57.6897 73.5621 57.7335C74.169 60.0734 74.7913 62.4097 75.4135 64.7456L75.6841 65.762C75.692 65.7896 75.6995 65.8172 75.707 65.8445C75.7853 66.1319 75.8551 66.3882 76.3032 66.3811C76.7197 66.3753 76.7882 66.138 76.867 65.8651L76.8821 65.8131C77.4662 63.8246 78.0523 61.8357 78.6404 59.8463C78.6776 59.7218 78.7251 59.6006 78.7911 59.4323L78.7914 59.4318C78.8271 59.3407 78.8682 59.236 78.9159 59.1095L79.1913 60.1691L79.3678 60.8491L79.3678 60.8492L79.3678 60.8493L79.3678 60.8493L79.3679 60.8495L79.3685 60.8517L79.3688 60.8531C79.8083 62.5461 80.2262 64.156 80.651 65.7651C80.6628 65.8097 80.6719 65.8561 80.681 65.9027L80.681 65.9029C80.7268 66.1377 80.7731 66.3752 81.1695 66.3842C81.6014 66.395 81.7422 66.2047 81.849 65.8409C82.2382 64.5265 82.6321 63.2136 83.026 61.9007L83.0263 61.8995L83.0267 61.8983L83.027 61.8971L83.0274 61.896L83.0277 61.8948L83.028 61.8936L83.0284 61.8924L83.0287 61.8912L83.0291 61.8901L83.0295 61.8888L83.0299 61.8875L83.0302 61.8862L83.0306 61.8849L83.031 61.8836L83.0314 61.8824L83.0318 61.8811L83.0322 61.8798C83.4539 60.474 83.8756 59.0682 84.2915 57.6607C84.3019 57.6248 84.3217 57.5823 84.3428 57.5371C84.4217 57.3679 84.5181 57.1609 84.2079 57.1206C84.1629 57.1145 84.1142 57.1044 84.0636 57.0939C83.8043 57.0403 83.4938 56.976 83.3643 57.3852C83.3252 57.5152 83.2873 57.6465 83.2495 57.7778C83.2306 57.8436 83.2117 57.9093 83.1925 57.975ZM86.3299 49.6075C85.577 50.7404 84.6788 51.7697 83.6584 52.6691C83.047 52.132 82.9944 51.6568 83.7017 51.194C83.8302 51.11 83.935 50.9925 84.0404 50.8743L84.0405 50.8742C84.1079 50.7988 84.1755 50.723 84.2497 50.6554C85.4136 49.5874 86.1287 48.4761 85.2403 46.8091C84.9141 46.1937 84.7871 45.4927 84.6566 44.7723C84.5901 44.4055 84.5227 44.0336 84.4277 43.6655L83.8952 44.6607C83.3519 44.1732 83.2421 43.7537 83.6383 43.0866C84.5871 41.4877 85.1288 39.7139 85.5498 37.9107C85.635 37.5501 85.7046 37.2916 86.169 37.3226C86.5559 37.3442 86.6735 37.4325 86.5559 37.8225C86.4745 38.092 86.408 38.3667 86.3415 38.6413C86.245 39.04 86.1485 39.4385 86.0064 39.8207C85.8222 40.3191 85.9755 40.378 86.4197 40.3656C86.9054 40.3514 87.3921 40.3534 87.8778 40.3555H87.8782H87.8785H87.8789H87.8793H87.8796H87.88H87.8804H87.8807H87.8811H87.8815H87.8818H87.8822H87.8826H87.8829H87.8833H87.8837H87.884H87.8844H87.8848H87.8851H87.8855H87.8859C88.2472 40.357 88.608 40.3585 88.9674 40.3532C89.3002 40.3532 89.4983 40.3919 89.4859 40.8005C89.4751 41.1534 89.3899 41.3438 89.0045 41.285C88.6191 41.2262 88.5402 41.4738 88.5216 41.7896C88.3436 44.0757 87.9954 46.3231 86.963 48.4095C86.845 48.6468 86.9463 48.8133 87.0581 48.9971L87.0837 49.0395C87.6227 49.9179 88.2794 50.7183 89.0355 51.4185C89.3946 51.7528 89.3899 51.9958 89.1454 52.3828C88.921 52.7388 88.7909 52.7093 88.534 52.4307C87.7169 51.5571 86.9792 50.6123 86.3299 49.6075ZM86.3918 47.4545C87.062 45.8912 87.3019 44.3899 87.5155 42.8792L87.5213 42.8385C87.6311 42.0592 87.6854 41.6734 87.5178 41.4791C87.3533 41.2885 86.9753 41.2821 86.2266 41.2695L86.1334 41.2679C85.5142 41.2587 85.2325 41.5512 85.2743 42.0651C85.4048 43.9034 85.7807 45.7159 86.3918 47.4545ZM137.601 50.2204V46.6048C137.601 46.3695 137.6 46.1347 137.599 45.8999V45.8997V45.8996V45.8995V45.8993V45.8992V45.8991V45.8989V45.8988V45.8986V45.8985V45.8984V45.8982V45.8981V45.898V45.8978V45.8977V45.8975V45.8974V45.8973V45.8971V45.897V45.8969C137.595 45.2879 137.592 44.6792 137.61 44.0633C137.614 43.8757 137.591 43.6728 137.568 43.4701C137.517 43.0152 137.465 42.5615 137.723 42.2864C137.963 42.0292 138.41 42.081 138.856 42.1328C139.052 42.1555 139.248 42.1782 139.426 42.1749C139.774 42.1687 140.002 42.1625 140.005 41.6967C140.008 41.2308 139.825 41.124 139.41 41.1565C139.248 41.1689 139.085 41.1631 138.922 41.1573C138.721 41.1502 138.522 41.143 138.327 41.1704C137.683 41.2586 137.553 40.9707 137.587 40.3965C137.619 39.8669 137.612 39.3306 137.604 38.7921L137.604 38.79C137.601 38.5565 137.598 38.3226 137.598 38.0887C137.598 38.0349 137.6 37.9804 137.603 37.9266C137.618 37.6139 137.632 37.3257 137.068 37.3349C136.546 37.3428 136.563 37.6106 136.581 37.8943C136.584 37.9462 136.587 37.9986 136.587 38.05C136.586 38.2513 136.582 38.4527 136.579 38.6541V38.6544V38.6547V38.655V38.6553V38.6556V38.6558V38.6561V38.6564V38.6567V38.657V38.6573V38.6582V38.6585V38.6588V38.6591V38.6594V38.6597V38.66V38.6603V38.6606V38.661V38.6613V38.6616V38.6619V38.6622V38.6625V38.6628V38.6631V38.6634V38.6637V38.664V38.6644V38.6647C136.569 39.281 136.559 39.8978 136.598 40.511C136.634 41.0775 136.423 41.1766 135.906 41.1689C134.457 41.1473 133.006 41.1507 131.556 41.154H131.556H131.556C131.024 41.1552 130.492 41.1565 129.961 41.1565C129.918 41.1565 129.874 41.155 129.831 41.1535C129.53 41.1432 129.257 41.1339 129.252 41.6502C129.246 42.1785 129.512 42.1727 129.829 42.1657C129.865 42.1649 129.903 42.1641 129.941 42.1641C130.615 42.1641 131.29 42.1653 131.965 42.1665H131.965H131.966H131.966H131.966H131.966H131.966H131.967H131.967L131.973 42.1665C133.329 42.1689 134.684 42.1713 136.039 42.1641C136.394 42.1625 136.595 42.1904 136.595 42.6424C136.579 44.5232 136.581 46.4039 136.584 48.2847C136.585 48.9687 136.586 49.6526 136.586 50.3365C136.586 51.0949 136.166 51.4571 135.466 51.5593C135.236 51.5812 135.005 51.59 134.773 51.5856C134.457 51.5921 134.469 51.7887 134.482 51.9806C134.483 51.9965 134.484 52.0123 134.485 52.028C134.486 52.049 134.487 52.0699 134.487 52.0902C134.487 52.1038 134.487 52.1173 134.486 52.1308L134.485 52.1672C134.479 52.3568 134.474 52.529 134.796 52.5808C136.53 52.8517 137.59 51.9849 137.601 50.2204ZM101.562 52.2993C101.193 52.2993 100.824 52.2977 100.455 52.2961C99.5643 52.2922 98.6731 52.2884 97.7819 52.307C97.3068 52.3178 97.0978 52.2312 97.1164 51.6879C97.1613 50.4094 97.1442 49.1263 97.1241 47.8462C97.1241 47.4469 97.1736 47.255 97.6535 47.2596C100.249 47.2823 102.845 47.2823 105.444 47.2596C105.866 47.2596 105.957 47.4144 105.951 47.7951C105.931 49.1263 105.931 50.4584 105.951 51.7916C105.951 52.2079 105.809 52.3132 105.416 52.307C104.493 52.2914 103.57 52.2942 102.646 52.2971C102.284 52.2982 101.923 52.2993 101.562 52.2993ZM101.532 51.3876C101.807 51.3876 102.082 51.3859 102.357 51.3843C103.034 51.3801 103.711 51.376 104.386 51.3969C104.829 51.4093 104.971 51.2622 104.953 50.8273C104.922 50.1107 104.92 49.3909 104.953 48.6743C104.973 48.244 104.798 48.1697 104.414 48.1728C102.486 48.1883 100.557 48.1883 98.627 48.1728C98.2339 48.1728 98.0791 48.275 98.0977 48.6898C98.1302 49.4064 98.1348 50.1277 98.0977 50.8428C98.0729 51.3071 98.2602 51.4046 98.6766 51.3953C99.3529 51.3778 100.029 51.3813 100.706 51.3848C100.981 51.3862 101.257 51.3876 101.532 51.3876ZM92.018 45.7968L93.3228 43.7259L93.4807 43.7723V44.5184V52.132C93.4809 52.1759 93.4794 52.2203 93.4779 52.2644L93.4778 52.2648C93.4677 52.5615 93.4581 52.8444 93.9713 52.8471C94.4997 52.8499 94.4938 52.5818 94.4868 52.2666C94.486 52.23 94.4852 52.1928 94.4852 52.1552C94.4847 51.3107 94.4884 50.4657 94.492 49.6206V49.6197V49.6196V49.6195V49.6194V49.6193V49.6192V49.6191V49.619V49.6189V49.6188V49.6188V49.6187V49.6186V49.6185V49.6184V49.6183V49.6182V49.6181V49.618V49.6179C94.5004 47.6668 94.5087 45.7158 94.4666 43.7723C94.4341 42.2632 94.5456 40.8206 95.2684 39.4601C95.365 39.2772 95.4239 39.0744 95.4829 38.8715C95.5392 38.6778 95.5956 38.4839 95.6847 38.307C95.973 37.7305 95.5409 37.5705 95.2019 37.4449L95.16 37.4294C94.806 37.2986 94.7795 37.568 94.758 37.7865C94.7518 37.8498 94.746 37.9088 94.7328 37.9526C94.0472 40.1922 93.1185 42.3313 91.823 44.2846C91.4128 44.9038 91.4391 45.3186 92.018 45.7968ZM100.822 60.3262C101.596 59.7751 102.304 59.382 103.179 59.5445C104.388 59.769 105.126 60.6187 105.183 62.0102C105.214 62.7471 105.21 63.485 105.206 64.223V64.2231V64.2231V64.2232V64.2233V64.2233V64.2234V64.2234V64.2235V64.2235V64.2236V64.2237V64.2237V64.2238V64.2238V64.2239V64.2239V64.224V64.2241V64.2246C105.203 64.7944 105.2 65.3643 105.213 65.9339C105.222 66.3518 105.018 66.3673 104.694 66.3781C104.321 66.3905 104.218 66.2605 104.207 65.8952C104.194 65.4445 104.206 64.9935 104.217 64.5426V64.5422V64.5419V64.5415V64.5412V64.5408V64.5405V64.5401V64.5398V64.5395V64.5391V64.5388V64.5384V64.5381V64.5377V64.5374V64.5371V64.5367V64.5364V64.536V64.5359C104.239 63.6602 104.261 62.7848 104.109 61.9127C103.928 60.8694 103.462 60.3974 102.605 60.4237C101.707 60.4515 100.865 61.227 100.837 62.1402C100.804 63.1757 100.813 64.2123 100.822 65.2492V65.2493V65.2494V65.2495V65.2496V65.2497V65.2498V65.2499V65.25V65.2501V65.2502V65.2503V65.2504V65.2505V65.2506V65.2507V65.2508V65.2509V65.251V65.2511L100.822 65.2711C100.824 65.4327 100.825 65.5943 100.826 65.7559L100.826 65.7809C100.827 66.1332 100.827 66.3859 100.322 66.3874C99.8048 66.3889 99.8048 66.1506 99.8063 65.7682C99.8166 63.0235 99.8166 60.2787 99.8063 57.5339C99.8063 57.1563 99.8156 56.9148 100.32 56.9148C100.825 56.9148 100.834 57.1686 100.826 57.5339C100.815 58.1667 100.818 58.7911 100.82 59.4541C100.821 59.7366 100.822 60.026 100.822 60.3262ZM125.381 45.8232L126.706 43.6888L126.84 43.7027V44.441V52.1382C126.84 52.1807 126.839 52.223 126.838 52.2647C126.828 52.5698 126.819 52.8394 127.346 52.8394C127.873 52.8381 127.854 52.5627 127.835 52.2799C127.831 52.2267 127.828 52.1732 127.828 52.1212C127.829 51.4196 127.832 50.7181 127.834 50.0167V50.0163V50.016V50.0156V50.0152V50.0148V50.0144V50.0141V50.0137V50.0133V50.0129V50.0126V50.0122V50.0118V50.0114V50.011V50.0107V50.0103V50.0099C127.842 47.8648 127.85 45.7203 127.815 43.5758C127.794 42.2261 127.874 40.929 128.529 39.7063C128.657 39.4666 128.737 39.2033 128.818 38.9391C128.888 38.7103 128.959 38.4808 129.06 38.2652C129.294 37.7689 128.979 37.6287 128.689 37.4999C128.644 37.4796 128.599 37.4597 128.557 37.4387C128.171 37.2534 128.149 37.5236 128.132 37.741C128.127 37.8033 128.122 37.8613 128.109 37.9031C127.41 40.1675 126.506 42.3468 125.169 44.3125C124.734 44.9502 124.89 45.3356 125.381 45.8232ZM122.217 61.7578C122.217 61.3949 122.218 61.0318 122.219 60.6687C122.222 59.7001 122.225 58.7311 122.208 57.7629C122.2 57.345 122.329 57.1763 122.757 57.1361L122.933 57.1185C123.719 57.0394 124.5 56.9608 125.288 57.1221C126.693 57.4085 127.467 58.2412 127.537 59.5553C127.61 60.9282 126.871 61.9745 125.573 62.4342C125.077 62.6113 124.57 62.61 124.066 62.6088C123.94 62.6085 123.814 62.6082 123.689 62.6107C123.248 62.6215 123.181 62.7778 123.189 63.1493C123.199 63.6261 123.198 64.1037 123.198 64.5813V64.5823C123.197 65.0006 123.197 65.4188 123.203 65.8363C123.203 66.2093 123.141 66.3842 122.705 66.3842C122.268 66.3842 122.206 66.1923 122.211 65.827C122.222 64.8415 122.22 63.8551 122.219 62.8691V62.8675C122.218 62.4976 122.217 62.1276 122.217 61.7578ZM123.194 59.7906V60.6357V60.6357C123.194 61.2306 123.194 61.5274 123.342 61.6684C123.49 61.8088 123.784 61.7949 124.372 61.7671L124.526 61.7578C125.83 61.6495 126.574 60.8895 126.539 59.7039C126.509 58.6204 125.751 57.9641 124.458 57.9146C123.82 57.8896 123.503 57.8773 123.347 58.0294C123.192 58.1791 123.192 58.4878 123.192 59.1002L123.194 59.7906ZM87.1095 63.1154L87.1102 63.1154C87.3072 63.1123 87.5042 63.1092 87.7011 63.1092L87.7979 63.1091C87.9047 63.1089 88.0117 63.1085 88.1187 63.1081H88.1195H88.1195H88.1196H88.1197H88.1197H88.1198H88.1199H88.1199H88.12H88.1201H88.1201H88.1202H88.1203H88.1203H88.1204H88.1205H88.1206C88.6202 63.1063 89.1227 63.1044 89.6281 63.1262C89.9423 63.1339 90.0847 63.0364 90.1203 62.7021C90.2379 61.5645 89.5724 60.2256 88.6359 59.7783C88.0949 59.5312 87.4905 59.4581 86.9061 59.5689C86.3217 59.6798 85.7861 59.9693 85.3732 60.3974C84.2773 61.5521 84.1024 63.8831 85.0125 65.2049C85.8716 66.4509 87.7258 66.8843 89.3232 66.2001C89.3568 66.1858 89.3971 66.1737 89.4389 66.161C89.6182 66.1069 89.8272 66.0439 89.6792 65.759L89.6713 65.7438C89.6624 65.7263 89.6535 65.7085 89.6446 65.6905C89.5254 65.4512 89.3971 65.1938 88.9935 65.3829C88.5957 65.5702 88.1468 65.5888 87.7088 65.5888C86.4675 65.5857 85.6765 64.9108 85.4552 63.7066C85.3809 63.2996 85.4273 63.0767 85.9273 63.1092C86.3204 63.1278 86.7149 63.1216 87.1095 63.1154ZM87.7183 62.2541C87.5726 62.256 87.427 62.2579 87.2816 62.2579L87.277 62.2532C86.8142 62.2532 86.3514 62.2532 85.8901 62.2579C85.6084 62.2641 85.4629 62.2254 85.5465 61.8725C85.6526 61.4597 85.8899 61.0926 86.2226 60.8263C86.5553 60.56 86.9655 60.4089 87.3915 60.3959C88.2397 60.3959 88.7845 60.885 89.0275 61.7425C89.1514 62.1991 88.9919 62.278 88.5926 62.2579C88.3016 62.2465 88.0098 62.2503 87.7183 62.2541ZM91.3784 61.8384C91.3692 58.2862 94.3595 56.0883 97.7337 57.1795C97.7772 57.1936 97.8293 57.2034 97.8836 57.2137L97.8837 57.2137C98.1042 57.2553 98.3613 57.3039 98.2259 57.6702C98.099 58.0153 97.9442 58.2367 97.4397 58.071C95.7262 57.503 93.9927 57.9936 93.1151 59.2087C92.1446 60.5537 92.1431 62.9931 93.1151 64.3025C93.9803 65.4696 95.7309 65.9014 97.4783 65.3519L97.5124 65.3411C97.8177 65.2441 98.0329 65.1758 98.212 65.5624C98.3529 65.872 98.3482 66.002 98.0077 66.1212C94.9245 67.2062 91.3692 65.9509 91.3784 61.8384ZM130.303 66.4848C130.882 66.4182 131.373 66.1551 131.902 65.7465C131.866 66.3578 132.207 66.4321 132.623 66.3671C133.035 66.3025 132.957 66.0674 132.886 65.8531C132.86 65.7751 132.835 65.6998 132.835 65.6366C132.857 64.485 132.84 63.3303 132.818 62.1772C132.772 59.8756 130.945 58.8092 128.868 59.8756C128.838 59.8911 128.803 59.9045 128.767 59.9181C128.63 59.9701 128.482 60.0261 128.539 60.2161C128.592 60.4138 128.706 60.59 128.864 60.7207C128.998 60.8208 129.122 60.7371 129.247 60.6535C129.304 60.6155 129.36 60.5775 129.418 60.5567C130.555 60.1542 131.495 60.4669 131.74 61.3414C131.868 61.8073 131.851 62.0983 131.209 62.106C130.384 62.1153 129.569 62.2933 128.873 62.7902C128.481 63.0637 128.191 63.4602 128.05 63.9169C127.909 64.3736 127.924 64.8644 128.093 65.3115C128.412 66.1334 129.296 66.5978 130.303 66.4848ZM131.789 63.3947C131.757 63.5197 131.727 63.6382 131.814 63.6941C131.814 64.8162 131.269 65.4756 130.326 65.5917C129.766 65.6613 129.275 65.522 129.063 64.9586C128.861 64.42 128.936 63.8814 129.419 63.499C130.038 63.0099 130.795 62.9325 131.538 62.9774C131.891 62.9989 131.839 63.2043 131.789 63.3947ZM111.723 63.8892V65.889C111.723 65.9325 111.732 65.9814 111.74 66.0306C111.769 66.1899 111.797 66.3533 111.537 66.3533C111.481 66.3533 111.417 66.3626 111.351 66.3721C111.128 66.4046 110.884 66.4401 110.825 66.1243C110.752 65.7305 110.65 65.8082 110.435 65.9723L110.411 65.9912C109.995 66.3016 109.495 66.4771 108.977 66.4942C108.028 66.5391 107.23 66.0639 106.939 65.2792C106.789 64.866 106.77 64.4166 106.885 63.9923C106.999 63.568 107.242 63.1893 107.58 62.9079C108.312 62.3058 109.2 62.117 110.106 62.1015C110.725 62.0891 110.708 61.8059 110.599 61.3787C110.363 60.4376 109.361 60.1188 108.168 60.5924C108.116 60.6134 108.064 60.6545 108.012 60.6964C107.878 60.803 107.737 60.9145 107.58 60.71L107.542 60.6615C107.332 60.3936 107.128 60.1318 107.668 59.8851C109.313 59.1375 111.706 59.2938 111.675 62.1928V63.8861L111.723 63.8892ZM110.675 63.7515C110.629 63.6734 110.649 63.5582 110.67 63.4407C110.707 63.2319 110.745 63.0156 110.414 62.9869C109.64 62.9203 108.866 63.0039 108.239 63.5441C107.784 63.9434 107.717 64.4728 107.956 65.0145C108.194 65.5562 108.652 65.6506 109.174 65.5934C110.112 65.4881 110.666 64.8226 110.675 63.7515ZM138.81 62.5833L138.811 62.5829C139.181 61.6329 139.552 60.6826 139.96 59.7473C139.164 59.4501 138.834 59.7767 138.605 60.4469C138.267 61.4173 137.9 62.3787 137.515 63.3867L137.514 63.3888C137.347 63.8255 137.177 64.2709 137.005 64.7297C136.842 64.327 136.682 63.9347 136.525 63.55L136.52 63.5379L136.513 63.5196L136.512 63.517L136.512 63.5168C136.07 62.4352 135.653 61.4127 135.277 60.3834C135.025 59.6869 134.66 59.4811 133.956 59.7643C134.166 60.2915 134.368 60.8198 134.569 61.3461L134.57 61.3477L134.57 61.3484L134.57 61.3487C135.031 62.5567 135.489 63.7547 136.044 64.9077C136.553 65.9679 136.24 66.7031 135.59 67.4647C135.312 67.8041 134.963 68.0779 134.567 68.2664L134.54 68.2786L134.505 68.2942C134.292 68.3893 134.095 68.4768 134.305 68.8143C134.49 69.11 134.618 69.3096 135.013 69.0883C135.722 68.7135 136.306 68.1394 136.694 67.4368C137.528 65.8728 138.169 64.2285 138.81 62.5833ZM82.7894 49.2661L82.7895 49.266L82.7896 49.2659L82.7899 49.2656L82.7905 49.2652L82.7905 49.2651L82.7907 49.2649C82.9752 49.1109 83.1273 48.9839 83.2884 48.8693C83.3275 48.8412 83.3662 48.7993 83.4057 48.7565C83.5379 48.6134 83.6785 48.4613 83.8704 48.7903C83.8951 48.8323 83.9234 48.8734 83.9515 48.9142C84.0895 49.1141 84.2227 49.3071 83.8936 49.5642C83.5801 49.8035 83.2822 50.064 82.9841 50.3247L82.9839 50.3249L82.9838 50.3249L82.9838 50.325C82.7595 50.5211 82.5352 50.7173 82.304 50.9046C82.2675 50.9349 82.229 50.9767 82.1888 51.0202C82.0585 51.1616 81.911 51.3216 81.7607 51.1678C81.7416 51.1476 81.7215 51.1268 81.7009 51.1054C81.4821 50.8791 81.1991 50.5865 81.349 50.2499C81.6833 49.5008 81.6338 48.7114 81.5239 47.9808C81.4136 47.2441 80.9619 47.3384 80.504 47.434C80.2616 47.4847 80.0174 47.5356 79.8213 47.4638C79.4421 47.3323 79.0815 47.4112 79.1264 48.0164C79.2285 49.4187 78.953 50.7328 77.95 51.7915C77.912 51.8313 77.875 51.8897 77.8359 51.9513C77.7063 52.1556 77.554 52.3956 77.2674 52.115C77.0105 51.8581 76.7396 51.5361 77.2241 51.095C78.1141 50.287 78.1899 49.1633 78.1621 48.0381C78.1249 46.5181 78.128 46.5181 79.6696 46.5181C79.9278 46.5181 80.1859 46.5205 80.4438 46.523H80.4441H80.4444C80.9594 46.5278 81.4732 46.5326 81.9836 46.5181C82.4015 46.5011 82.5145 46.6512 82.5006 47.0475C82.4757 47.611 82.4789 48.1812 82.4825 48.8052L82.4825 48.8075C82.4838 49.0363 82.4851 49.2722 82.4851 49.5178C82.5965 49.4271 82.6952 49.3447 82.786 49.2689L82.7886 49.2668L82.7894 49.2661ZM79.8064 42.5564C80.0644 42.5584 80.3227 42.5605 80.5809 42.5605C80.8466 42.5605 81.1123 42.5588 81.3777 42.5572H81.3785H81.3793H81.3802H81.381H81.3819H81.3827H81.3836H81.3844H81.3852C81.8903 42.554 82.3943 42.5509 82.8949 42.559C83.2617 42.5682 83.4629 42.5048 83.4506 42.0652C83.4258 41.1179 83.4382 40.1691 83.4506 39.2219C83.4536 38.9216 83.4088 38.7421 83.0419 38.7421C82.7107 38.7467 82.5033 38.7916 82.5188 39.1971C82.5256 39.4538 82.5217 39.7112 82.5178 39.9687V39.9687V39.9688V39.9688V39.9689V39.9689V39.969V39.9691V39.9691V39.9692V39.9692V39.9694C82.512 40.3529 82.5062 40.7365 82.5358 41.1179C82.5773 41.673 82.2863 41.6587 81.9696 41.6431C81.9083 41.6401 81.8461 41.637 81.7851 41.638C81.7406 41.6387 81.6959 41.6409 81.6516 41.643L81.6514 41.643C81.3219 41.6588 81.0204 41.6732 81.0545 41.0947C81.0929 40.463 81.0857 39.8288 81.0784 39.1941C81.0743 38.8288 81.0701 38.4634 81.0747 38.0982C81.0809 37.7484 81.0778 37.5224 80.5948 37.5239C80.1293 37.5254 80.1298 37.77 80.1305 38.0816L80.1305 38.1167C80.1332 38.4421 80.1293 38.7677 80.1254 39.0931C80.1179 39.7166 80.1104 40.3397 80.1491 40.9601C80.1878 41.5916 79.9215 41.6752 79.3906 41.6519C79.3519 41.6503 79.3137 41.6491 79.2762 41.6479C78.8586 41.635 78.5331 41.6249 78.6013 40.9957C78.6371 40.6577 78.6294 40.3155 78.6216 39.9731V39.9729V39.9727V39.9725V39.9723V39.9721V39.9718V39.9716V39.9714V39.9712V39.971C78.616 39.723 78.6103 39.4748 78.6214 39.2281C78.6369 38.8612 78.5409 38.739 78.1431 38.7374C77.7453 38.7359 77.6788 38.9015 77.6788 39.2466C77.702 40.1691 77.7144 41.0932 77.6788 42.0141C77.6618 42.4816 77.8537 42.5729 78.2669 42.5605C78.7769 42.5481 79.2903 42.5522 79.8048 42.5564H79.805H79.8052H79.8053H79.8055H79.8056H79.8058H79.806H79.8061H79.8063H79.8064ZM75.1851 46.0012C75.1073 46.0964 75.0306 46.1937 74.9537 46.2913C74.7691 46.5257 74.5828 46.7622 74.3741 46.9764C74.33 47.0204 74.2908 47.0896 74.251 47.1599C74.1509 47.3367 74.0464 47.521 73.8494 47.3339L73.829 47.3147C73.5903 47.0891 73.2421 46.76 73.6528 46.2876C74.129 45.7157 74.5674 45.1133 74.9653 44.4844C75.4787 43.6854 75.9195 42.8421 76.2825 41.9646C76.2899 41.9476 76.2972 41.9306 76.3045 41.9136C76.394 41.7038 76.4783 41.506 76.7561 41.7308C76.8118 41.7762 76.8893 41.807 76.9673 41.8381C77.1712 41.9192 77.3787 42.0018 77.2097 42.35C77.1921 42.3982 77.1703 42.4448 77.1446 42.4893C76.1958 43.8606 76.216 45.4131 76.2547 46.9779C76.2787 48.02 76.274 49.0621 76.2693 50.1046V50.1048V50.1049V50.1051V50.1052V50.1054V50.1056V50.1057V50.1059V50.106V50.1077C76.2662 50.8092 76.263 51.5107 76.2686 52.2126C76.2686 52.5872 76.2686 52.8317 75.7547 52.8317C75.3085 52.8317 75.3186 52.5843 75.329 52.3287L75.3302 52.2977C75.3309 52.281 75.3314 52.2642 75.3318 52.2475C75.332 52.2358 75.3322 52.2242 75.3322 52.2126V46.4393C75.3312 46.4123 75.3338 46.3835 75.3366 46.3534C75.3469 46.2402 75.3588 46.1101 75.1851 46.0012ZM113.562 62.3795V62.3801V62.3808C113.564 62.5352 113.566 62.6898 113.566 62.8445H113.608C113.608 63.0668 113.602 63.2898 113.596 63.5127L113.596 63.5135C113.582 64.0088 113.569 64.5042 113.622 64.9929C113.75 66.1491 114.549 66.6862 115.694 66.4509C115.738 66.4417 115.791 66.4382 115.847 66.4344C116.052 66.4206 116.29 66.4047 116.221 66.0887C116.16 65.8163 116.026 65.5021 115.588 65.5748C114.826 65.7033 114.571 65.2653 114.571 64.5904V61.823C114.569 60.5708 114.569 60.5414 115.831 60.5414C116.304 60.5398 116.462 60.351 116.344 59.9594C116.233 59.5871 115.935 59.6576 115.682 59.7176C115.613 59.7339 115.548 59.7495 115.49 59.7551C114.772 59.8232 114.428 59.6297 114.561 58.8558C114.619 58.523 114.619 58.2212 114.083 58.2135C113.507 58.2073 113.526 58.5277 113.565 58.8991C113.623 59.4533 113.565 59.8758 112.828 59.7381C112.559 59.6885 112.472 59.8495 112.481 60.1033L112.482 60.1343C112.491 60.3421 112.5 60.5712 112.78 60.5182C113.622 60.356 113.596 60.8606 113.569 61.4093L113.566 61.4608C113.554 61.7632 113.558 62.0697 113.562 62.3776V62.3778V62.378V62.3781V62.3783V62.3785V62.3787V62.3789V62.3795ZM102.165 39.4292H106.543C106.917 39.4292 107.173 39.4292 107.162 39.9399C107.154 40.4043 106.919 40.4043 106.578 40.4043C103.235 40.3981 99.8911 40.3981 96.5468 40.4043C96.1862 40.4043 95.9803 40.3687 95.9834 39.9198C95.9865 39.4709 96.1506 39.4137 96.5314 39.4183C97.5738 39.4307 98.6163 39.4266 99.6701 39.4225H99.6702H99.6703H99.6704H99.6706H99.6707H99.6708H99.6709C100.202 39.4204 100.736 39.4183 101.274 39.4183C101.263 39.0112 101.065 38.6964 100.877 38.3982C100.854 38.3619 100.832 38.3259 100.809 38.29C100.546 37.8581 100.627 37.6507 101.062 37.4046C101.535 37.1371 101.613 37.4449 101.676 37.6937L101.676 37.6939C101.688 37.7402 101.699 37.7844 101.712 37.8225C101.769 37.9896 101.863 38.1437 101.958 38.2973C102.165 38.6345 102.371 38.9686 102.165 39.4292ZM105.592 42.0559H101.583C101.12 42.0559 100.658 42.0566 100.195 42.0573H100.195H100.194H100.194H100.194H100.194H100.194C99.2686 42.0587 98.3438 42.06 97.4196 42.0559C97.1008 42.0528 96.8903 42.0513 96.8825 42.4908C96.8748 42.9304 97.0683 42.9861 97.4382 42.9861C100.163 42.9769 102.888 42.9769 105.612 42.9861C105.964 42.9877 106.179 42.9738 106.179 42.5094C106.179 42.0531 105.948 42.0542 105.646 42.0557L105.592 42.0559ZM100.18 45.6013L100.175 45.6012C99.2824 45.5992 98.3898 45.5971 97.4972 45.6033C97.118 45.6033 96.8704 45.5925 96.8781 45.091C96.8874 44.6266 97.1041 44.6096 97.457 44.6112C100.187 44.6204 102.916 44.6235 105.645 44.6112C106.05 44.6112 106.168 44.7257 106.174 45.1312C106.182 45.5956 105.959 45.611 105.606 45.6079C104.623 45.599 103.638 45.6006 102.653 45.6021H102.652H102.652H102.652H102.652H102.652C102.272 45.6027 101.893 45.6033 101.514 45.6033C101.069 45.6033 100.625 45.6023 100.18 45.6013ZM74.2058 40.833C73.6177 41.3949 73.6208 41.8159 74.2198 42.3437C75.4061 41.1393 76.415 39.7723 77.2163 38.2838C77.4432 37.8794 77.2731 37.7708 77.0393 37.6215C77.002 37.5977 76.963 37.5728 76.9238 37.5455C76.5729 37.3027 76.475 37.5106 76.3744 37.7243L76.3744 37.7244C76.3583 37.7586 76.3421 37.7929 76.3248 37.8256C75.7459 38.9184 75.0989 39.9802 74.2058 40.833ZM133.956 48.1141C133.869 48.3667 133.654 48.462 133.448 48.5531C133.377 48.5842 133.308 48.6149 133.245 48.6511C133 48.7886 132.943 48.6108 132.893 48.4541C132.885 48.4299 132.878 48.4061 132.87 48.3841C132.864 48.369 132.858 48.3547 132.852 48.3416C132.682 47.9869 132.518 47.6294 132.353 47.2719L132.353 47.2717C132.046 46.6043 131.739 45.9368 131.396 45.2878C131.182 44.8875 131.375 44.7621 131.606 44.6112L131.607 44.6111L131.607 44.6107L131.608 44.6102C131.645 44.5863 131.682 44.5619 131.719 44.5355C132.063 44.289 132.166 44.4913 132.285 44.7269C132.297 44.7501 132.309 44.7736 132.321 44.7971C132.67 45.5118 133.025 46.2234 133.379 46.9346L133.387 46.949C133.522 47.2202 133.657 47.4914 133.792 47.7627C133.836 47.8495 133.877 47.94 133.919 48.0335L133.919 48.034L133.92 48.0341L133.956 48.1141ZM81.2357 44.0754C81.0039 44.0741 80.772 44.0727 80.5409 44.0727C80.3328 44.0727 80.1247 44.0741 79.9166 44.0755L79.9153 44.0755C79.4041 44.079 78.8937 44.0825 78.3879 44.0649C78.0288 44.0649 77.9561 44.2383 77.9623 44.5293C77.9685 44.8203 77.9948 45.006 78.3724 45.006C79.7861 44.9895 81.1992 44.9895 82.6119 45.006C82.9957 45.0107 83.0932 44.8512 83.0855 44.5076C83.0778 44.164 82.9462 44.0727 82.6212 44.0727C82.163 44.0809 81.6994 44.0782 81.2357 44.0754Z" fill="url(#paint0_linear_332_89)"/>
<defs>
<linearGradient id="paint0_linear_332_89" x1="160" y1="1" x2="-7.65153e-07" y2="100" gradientUnits="userSpaceOnUse">
<stop stop-color="#2FF8CC"/>
<stop offset="1" stop-color="#319793"/>
</linearGradient>
</defs>
</svg>
