<svg width="32" height="32" viewBox="0 0 32 32" fill="none" xmlns="http://www.w3.org/2000/svg">
<path d="M15.9688 21.2796C12.1403 21.2796 6.47168 20.1367 6.47168 17.6681V11.0967C6.47168 10.7936 6.59209 10.5029 6.80641 10.2886C7.02074 10.0743 7.31143 9.95386 7.61454 9.95386C7.91764 9.95386 8.20833 10.0743 8.42266 10.2886C8.63699 10.5029 8.75739 10.7936 8.75739 11.0967V17.4853C9.34025 17.9881 12.0374 19.0624 15.9917 19.0624C19.946 19.0624 22.6431 17.9881 23.226 17.4853V11.0967C23.226 10.7936 23.3464 10.5029 23.5607 10.2886C23.775 10.0743 24.0657 9.95386 24.3688 9.95386C24.6719 9.95386 24.9626 10.0743 25.1769 10.2886C25.3913 10.5029 25.5117 10.7936 25.5117 11.0967V17.7139C25.466 20.1253 19.7974 21.2796 15.9688 21.2796Z" fill="#001E32"/>
<path d="M28.6199 21.0282C28.3168 21.0282 28.0261 20.9078 27.8118 20.6935C27.5975 20.4792 27.4771 20.1885 27.4771 19.8854V9.59964C27.4771 9.29654 27.5975 9.00585 27.8118 8.79152C28.0261 8.57719 28.3168 8.45679 28.6199 8.45679C28.923 8.45679 29.2137 8.57719 29.428 8.79152C29.6424 9.00585 29.7628 9.29654 29.7628 9.59964V19.8854C29.7628 20.1885 29.6424 20.4792 29.428 20.6935C29.2137 20.9078 28.923 21.0282 28.6199 21.0282Z" fill="#64CEB8"/>
<path d="M28.6201 24.7423C28.0301 24.7423 27.4534 24.5674 26.9629 24.2396C26.4723 23.9119 26.09 23.446 25.8643 22.901C25.6385 22.3559 25.5794 21.7562 25.6945 21.1775C25.8096 20.5989 26.0937 20.0674 26.5109 19.6503C26.928 19.2331 27.4595 18.949 28.0381 18.8339C28.6168 18.7188 29.2165 18.7779 29.7616 19.0037C30.3066 19.2294 30.7725 19.6118 31.1002 20.1023C31.428 20.5928 31.6029 21.1695 31.6029 21.7595C31.5999 22.5496 31.2847 23.3066 30.7259 23.8653C30.1672 24.4241 29.4102 24.7393 28.6201 24.7423ZM28.6201 21.028C28.4261 21.028 28.24 21.1051 28.1029 21.2423C27.9657 21.3794 27.8886 21.5655 27.8886 21.7595C27.8886 21.9535 27.9657 22.1395 28.1029 22.2767C28.24 22.4138 28.4261 22.4909 28.6201 22.4909C28.8141 22.4909 29.0001 22.4138 29.1373 22.2767C29.2744 22.1395 29.3515 21.9535 29.3515 21.7595C29.3515 21.5655 29.2744 21.3794 29.1373 21.2423C29.0001 21.1051 28.8141 21.028 28.6201 21.028Z" fill="#64CEB8"/>
<path d="M28.6199 29.0511C28.3168 29.0511 28.0261 28.9307 27.8118 28.7164C27.5975 28.502 27.4771 28.2114 27.4771 27.9082V23.6682C27.4771 23.3651 27.5975 23.0745 27.8118 22.8601C28.0261 22.6458 28.3168 22.5254 28.6199 22.5254C28.923 22.5254 29.2137 22.6458 29.428 22.8601C29.6424 23.0745 29.7628 23.3651 29.7628 23.6682V27.9654C29.7481 28.2585 29.6212 28.5347 29.4085 28.7368C29.1957 28.9389 28.9134 29.0515 28.6199 29.0511Z" fill="#64CEB8"/>
<path d="M15.9685 15.0855C15.8398 15.084 15.7123 15.0608 15.5914 15.0169L0.722789 9.72545C0.509621 9.6412 0.326712 9.4948 0.197817 9.30526C0.0689231 9.11572 0 8.89181 0 8.66259C0 8.43338 0.0689231 8.20946 0.197817 8.01993C0.326712 7.83039 0.509621 7.68399 0.722789 7.59974L15.5799 2.35402C15.8231 2.26285 16.0911 2.26285 16.3342 2.35402L31.1914 7.59974C31.4045 7.68399 31.5874 7.83039 31.7163 8.01993C31.8452 8.20946 31.9142 8.43338 31.9142 8.66259C31.9142 8.89181 31.8452 9.11572 31.7163 9.30526C31.5874 9.4948 31.4045 9.6412 31.1914 9.72545L16.3342 15.0169C16.2169 15.0596 16.0933 15.0827 15.9685 15.0855ZM4.47136 8.66259L15.9685 12.754L27.4656 8.66259L15.9685 4.61688L4.47136 8.66259Z" fill="#001E32"/>
</svg>
