<svg width="32" height="32" viewBox="0 0 32 32" fill="none" xmlns="http://www.w3.org/2000/svg">
<path d="M29 2H11C10.7348 2 10.4804 2.10536 10.2929 2.29289C10.1054 2.48043 10 2.73478 10 3V10.94L3 11C2.73478 11 2.48043 11.1054 2.29289 11.2929C2.10536 11.4804 2 11.7348 2 12V25C2 26.3261 2.52678 27.5979 3.46447 28.5355C4.40215 29.4732 5.67392 30 7 30H25C26.3261 30 27.5979 29.4732 28.5355 28.5355C29.4732 27.5979 30 26.3261 30 25V3C30 2.73478 29.8946 2.48043 29.7071 2.29289C29.5196 2.10536 29.2652 2 29 2ZM10 25C10 25.7956 9.68393 26.5587 9.12132 27.1213C8.55871 27.6839 7.79565 28 7 28C6.20435 28 5.44129 27.6839 4.87868 27.1213C4.31607 26.5587 4 25.7956 4 25V13L10 12.95V25ZM28 25C28 25.7956 27.6839 26.5587 27.1213 27.1213C26.5587 27.6839 25.7956 28 25 28H11C11.6491 27.1345 12 26.0819 12 25V4H28V25Z" fill="#001E32"/>
<path d="M15 14H21C21.2652 14 21.5196 13.8946 21.7071 13.7071C21.8946 13.5196 22 13.2652 22 13V7C22 6.73478 21.8946 6.48043 21.7071 6.29289C21.5196 6.10536 21.2652 6 21 6H15C14.7348 6 14.4804 6.10536 14.2929 6.29289C14.1054 6.48043 14 6.73478 14 7V13C14 13.2652 14.1054 13.5196 14.2929 13.7071C14.4804 13.8946 14.7348 14 15 14ZM16 8H20V12H16V8ZM15 18H25C25.2652 18 25.5196 17.8946 25.7071 17.7071C25.8946 17.5196 26 17.2652 26 17C26 16.7348 25.8946 16.4804 25.7071 16.2929C25.5196 16.1054 25.2652 16 25 16H15C14.7348 16 14.4804 16.1054 14.2929 16.2929C14.1054 16.4804 14 16.7348 14 17C14 17.2652 14.1054 17.5196 14.2929 17.7071C14.4804 17.8946 14.7348 18 15 18ZM15 22H25C25.2652 22 25.5196 21.8946 25.7071 21.7071C25.8946 21.5196 26 21.2652 26 21C26 20.7348 25.8946 20.4804 25.7071 20.2929C25.5196 20.1054 25.2652 20 25 20H15C14.7348 20 14.4804 20.1054 14.2929 20.2929C14.1054 20.4804 14 20.7348 14 21C14 21.2652 14.1054 21.5196 14.2929 21.7071C14.4804 21.8946 14.7348 22 15 22ZM15 26H25C25.2652 26 25.5196 25.8946 25.7071 25.7071C25.8946 25.5196 26 25.2652 26 25C26 24.7348 25.8946 24.4804 25.7071 24.2929C25.5196 24.1054 25.2652 24 25 24H15C14.7348 24 14.4804 24.1054 14.2929 24.2929C14.1054 24.4804 14 24.7348 14 25C14 25.2652 14.1054 25.5196 14.2929 25.7071C14.4804 25.8946 14.7348 26 15 26Z" fill="#64CEB8"/>
</svg>
