<svg width="70" height="72" viewBox="0 0 70 72" fill="none" xmlns="http://www.w3.org/2000/svg">
<path d="M10.6189 57.386C10.892 57.0822 11.2937 56.7401 11.825 56.3594C12.3553 55.9794 12.9322 55.5996 13.5543 55.2188C14.1758 54.8388 14.8057 54.4659 15.4429 54.101C16.0803 53.7359 16.6262 53.4165 17.0812 53.1429C17.7483 52.7478 18.4011 52.3144 19.0381 51.8426C19.6754 51.3712 20.2511 50.8238 20.7674 50.2001C21.283 49.577 21.7005 48.8699 22.0189 48.0785C22.3375 47.2877 22.4966 46.3901 22.4966 45.3865C22.4966 42.9532 21.6243 41.022 19.88 39.5918C18.135 38.1625 15.625 37.4473 12.3485 37.4473C11.013 37.4473 9.73172 37.5693 8.50288 37.8123C7.27418 38.0562 6.14352 38.3827 5.11245 38.7933C4.08054 39.2041 3.15551 39.668 2.33637 40.185C1.51724 40.7025 0.864598 41.2343 0.37957 41.7818L5.02142 47.1657C5.90101 46.1619 6.81117 45.3485 7.75191 44.7247C8.69209 44.1017 9.79974 43.7894 11.074 43.7894C12.1961 43.7894 13.0608 44.0481 13.668 44.5651C14.2745 45.0827 14.5782 45.767 14.5782 46.6182C14.5782 47.0445 14.4566 47.4166 14.2142 47.7361C13.971 48.0554 13.5693 48.4133 13.0081 48.8082C12.4464 49.2039 11.6882 49.6601 10.7326 50.177C9.77702 50.6947 8.58591 51.3483 7.16014 52.1389C5.82484 52.8996 4.71775 53.6753 3.83802 54.4657C2.95774 55.2572 2.26007 56.1161 1.74475 57.0438C1.22858 57.972 0.864598 58.9987 0.652521 60.1237C0.439883 61.2494 0.333984 62.527 0.333984 63.9563H22.9973V57.386H10.6189Z" fill="white"/>
<path d="M45.5676 56.9295V37.9033H40.6072L25.7715 56.9752V63.4998H38.2863V69.7507H45.5676V63.4998H49.5724V56.9295H45.5676ZM39.1508 56.9296H32.9618L39.1508 48.8538V56.9296Z" fill="white"/>
<path d="M4.56745 65.623V68.0657H2.0604V65.623H0.607422V71.9293H2.0604V69.3446H4.56745V71.9293H6.02043V65.623H4.56745Z" fill="white"/>
<path d="M14.2245 67.6218C14.0771 67.237 13.8676 66.8935 13.5959 66.5915C13.324 66.2895 12.9964 66.047 12.6125 65.8632C12.2284 65.6797 11.8033 65.5879 11.3367 65.5879C10.8819 65.5879 10.4625 65.6754 10.0786 65.8499C9.6946 66.0247 9.36246 66.2585 9.08179 66.5515C8.80127 66.8445 8.5826 67.1837 8.42621 67.5686C8.26953 67.9536 8.19141 68.3533 8.19141 68.7677C8.19141 69.1763 8.26673 69.5731 8.41737 69.9579C8.56801 70.3429 8.77897 70.6849 9.05065 70.9837C9.32234 71.2827 9.65014 71.5242 10.034 71.7075C10.4179 71.891 10.8431 71.9829 11.3099 71.9829C11.7646 71.9829 12.1838 71.8941 12.5679 71.7162C12.9518 71.5388 13.2825 71.3032 13.5601 71.0103C13.8378 70.7172 14.0547 70.378 14.2112 69.9932C14.3677 69.6083 14.446 69.2086 14.446 68.794C14.446 68.3976 14.3721 68.0067 14.2245 67.6218ZM12.865 69.465C12.7969 69.6931 12.6951 69.8972 12.5592 70.0778C12.4234 70.2585 12.252 70.405 12.0455 70.5177C11.8387 70.6301 11.5966 70.6864 11.319 70.6864C11.0532 70.6864 10.817 70.6331 10.6102 70.5267C10.4033 70.4201 10.2307 70.2778 10.092 70.1003C9.95324 69.9228 9.84847 69.7199 9.7775 69.492C9.70652 69.264 9.67118 69.0287 9.67118 68.7859C9.67118 68.5491 9.70512 68.3166 9.77315 68.0885C9.84117 67.8607 9.94427 67.6578 10.0831 67.4802C10.222 67.3025 10.3931 67.159 10.5969 67.0494C10.8007 66.9399 11.0414 66.885 11.3188 66.885C11.5846 66.885 11.8193 66.9369 12.0231 67.0406C12.2268 67.1442 12.3996 67.2836 12.5412 67.4579C12.6829 67.6327 12.7894 67.8341 12.8602 68.0619C12.931 68.2899 12.9665 68.5254 12.9665 68.768C12.9669 69.0047 12.9328 69.2371 12.865 69.465Z" fill="white"/>
<path d="M20.6561 65.6232V68.8472H20.6557C20.6557 69.0782 20.6335 69.3046 20.5892 69.5267C20.5449 69.7487 20.4696 69.9456 20.3634 70.1173C20.2571 70.289 20.1182 70.4268 19.9469 70.5303C19.7758 70.6341 19.566 70.6859 19.318 70.6859C19.0699 70.6859 18.8617 70.6355 18.6934 70.5348C18.525 70.4343 18.3876 70.2979 18.2815 70.1262C18.1751 69.9548 18.0983 69.7592 18.051 69.5401C18.0036 69.321 17.9802 69.0902 17.9802 68.8472V65.623H16.5273V68.8472C16.5273 69.2618 16.579 69.6585 16.6823 70.0373C16.7857 70.4164 16.9483 70.7493 17.1697 71.0367C17.3912 71.3242 17.6792 71.5534 18.0335 71.725C18.3879 71.8967 18.816 71.9826 19.3181 71.9826C19.8023 71.9826 20.2202 71.9013 20.5718 71.7383C20.923 71.5755 21.2125 71.3519 21.4399 71.0678C21.6673 70.7835 21.8356 70.452 21.945 70.073C22.0542 69.6942 22.109 69.2855 22.109 68.8473V65.6232H20.6561Z" fill="white"/>
<path d="M28.4251 69.5846C28.5844 69.4958 28.7276 69.3878 28.8548 69.2604C28.9818 69.1329 29.0895 68.9894 29.1781 68.8296C29.2666 68.6697 29.3347 68.4994 29.3819 68.3187C29.4291 68.1382 29.4528 67.9501 29.4528 67.7548C29.4528 67.4941 29.401 67.2366 29.2976 66.9819C29.1943 66.7274 29.051 66.4994 28.868 66.2982C28.6848 66.097 28.4678 65.934 28.2169 65.8095C27.9658 65.6853 27.6927 65.623 27.3975 65.623H24.5625V71.9294H26.0153V69.8954H26.9632L28.1681 71.9294H29.8069L28.4251 69.5846ZM27.7873 68.381C27.6633 68.544 27.5154 68.6253 27.3443 68.6253H26.0155V66.9022H27.3001C27.4652 66.9022 27.6191 66.9792 27.7608 67.1332C27.9024 67.2872 27.9734 67.4945 27.9734 67.7551C27.9733 68.0095 27.9113 68.2183 27.7873 68.381Z" fill="white"/>
<path d="M36.2865 69.3263C36.1948 69.1194 36.0651 68.9432 35.8967 68.7981C35.7283 68.653 35.5231 68.5315 35.281 68.4339C35.0386 68.3362 34.7672 68.246 34.4659 68.1629C34.2473 68.1038 34.0554 68.0505 33.8901 68.0032C33.7248 67.9559 33.5875 67.904 33.4782 67.8476C33.3688 67.7914 33.2862 67.7277 33.2301 67.6567C33.1737 67.5856 33.1458 67.4969 33.1458 67.3902C33.1458 67.0409 33.4057 66.8661 33.9254 66.8661C34.1141 66.8661 34.3034 66.8928 34.4924 66.9461C34.6812 66.9994 34.8556 67.0617 35.0152 67.1325C35.1745 67.2036 35.3074 67.2719 35.4138 67.3369C35.52 67.4021 35.5821 67.4466 35.5998 67.4702L36.2377 66.2622C36.0961 66.1794 35.9409 66.0967 35.7726 66.0134C35.6043 65.9306 35.4227 65.8565 35.2277 65.7914C35.0329 65.7263 34.8291 65.6731 34.6164 65.6316C34.4038 65.5903 34.1882 65.5693 33.9698 65.5693C33.6566 65.5693 33.36 65.6139 33.0796 65.7026C32.799 65.7914 32.5523 65.9233 32.34 66.0978C32.1273 66.2726 31.959 66.4873 31.8349 66.7419C31.7109 66.9967 31.6489 67.2898 31.6489 67.6214C31.6489 67.8583 31.6827 68.0655 31.7507 68.2431C31.8187 68.4207 31.9218 68.5776 32.0607 68.7139C32.1996 68.8502 32.3752 68.9701 32.5879 69.0736C32.8006 69.1774 33.0517 69.2734 33.341 69.3625C33.5595 69.4276 33.7618 69.4866 33.9478 69.5399C34.1339 69.5932 34.2948 69.651 34.4306 69.7132C34.5662 69.7753 34.6728 69.8449 34.7495 69.9219C34.8261 69.9988 34.8648 70.0965 34.8648 70.2149C34.8648 70.5288 34.6079 70.6858 34.0941 70.6858C33.8517 70.6858 33.6126 70.6531 33.3764 70.588C33.1402 70.5229 32.9258 70.4488 32.734 70.366C32.5419 70.2831 32.3809 70.2003 32.2512 70.1171C32.1213 70.0344 32.0444 69.978 32.0207 69.9483L31.3828 71.2184C31.5659 71.3426 31.7652 71.4523 31.9808 71.5469C32.1963 71.6417 32.4195 71.7231 32.6497 71.7912C32.88 71.8593 33.116 71.9112 33.3584 71.9466C33.6006 71.9822 33.8367 71.9999 34.0672 71.9999C34.3684 71.9999 34.6607 71.9657 34.9444 71.8977C35.2278 71.8296 35.4788 71.7201 35.6974 71.5692C35.916 71.4181 36.0916 71.2198 36.2245 70.974C36.3575 70.7284 36.4238 70.4277 36.4238 70.0725C36.4237 69.7824 36.3781 69.5337 36.2865 69.3263Z" fill="white"/>
<path d="M39.2766 34.0096C38.8812 32.4373 37.6444 31.1971 36.0761 30.8008V11.3994H33.9201V30.8009C32.0067 31.2845 30.5859 33.0241 30.5859 35.0905C30.5859 37.5298 32.5653 39.514 34.998 39.514C37.0592 39.514 38.7941 38.0895 39.2765 36.1712H52.104V34.0096H39.2766ZM34.9982 37.3524C33.7542 37.3524 32.7421 36.3377 32.7421 35.0905C32.7421 33.8432 33.7542 32.8285 34.9982 32.8285C36.2422 32.8285 37.2543 33.8432 37.2543 35.0905C37.2543 36.3377 36.2422 37.3524 34.9982 37.3524Z" fill="white"/>
<path d="M66.0752 51.2512C68.6427 46.2983 70 40.7099 70 35.0907C70 25.7176 66.3593 16.9055 59.7489 10.2775C53.1381 3.6501 44.3488 0 35 0C25.6512 0 16.8618 3.6501 10.2511 10.2777C3.64066 16.9055 0 25.7178 0 35.0908V36.1716H6.58673V34.0101H2.17337C2.34533 28.6886 3.784 23.6833 6.19428 19.2855L9.98796 21.5324L11.0845 19.6714L7.29267 17.4254C9.89202 13.3415 13.3651 9.86916 17.4447 7.27207L19.6755 11.0778L21.5342 9.98265L19.3021 6.17434C23.6724 3.78004 28.6413 2.35268 33.9221 2.18112V6.60382H36.0781V2.18112C41.3853 2.35366 46.3782 3.79382 50.7645 6.2102L48.5233 10.0139L50.3794 11.1133L52.6189 7.31229C56.6922 9.91838 60.1561 13.3999 62.7465 17.49L58.9504 19.7264L60.0428 21.59L63.8426 19.3515C66.2309 23.7331 67.6531 28.7156 67.8244 34.0101H63.4133V36.1716H67.8247C67.6524 41.3705 66.2435 46.4102 63.7983 50.8917L60.0119 48.6491L58.9153 50.5102L62.7005 52.7521C60.95 55.5162 58.7863 58.0275 56.2632 60.1826L56.5547 57.5478L54.4119 57.3095L53.7134 63.6228L60.0104 64.3231L60.2481 62.1747L57.5999 61.8801C61.075 58.926 63.9798 55.2936 66.0752 51.2512Z" fill="white"/>
</svg>
