<svg width="72" height="72" viewBox="0 0 72 72" fill="none" xmlns="http://www.w3.org/2000/svg">
<path d="M60.2727 29.4605C60.9953 26.7782 61.1784 23.9792 60.8116 21.2257C60.4447 18.4721 59.5352 15.8187 58.1356 13.4192C56.736 11.0196 54.8743 8.92159 52.6582 7.24664C50.4421 5.57169 47.9156 4.35309 45.2252 3.66143C42.5349 2.96978 39.734 2.81881 36.9848 3.21727C34.2356 3.61574 31.5929 4.55571 29.2096 5.98275C26.8263 7.40979 24.7498 9.29554 23.1004 11.5308C21.451 13.766 20.2615 16.3062 19.6009 19.0044C15.1279 19.1095 10.8768 20.9736 7.76931 24.1926C4.66184 27.4115 2.94861 31.7257 3.00117 36.1996C3.05374 40.6734 4.86785 44.9462 8.05009 48.0912C11.2323 51.2363 15.5261 53 20.0003 53C20.2655 53 20.5198 52.8947 20.7074 52.7071C20.8949 52.5196 21.0003 52.2652 21.0003 52C21.0003 51.7348 20.8949 51.4804 20.7074 51.2929C20.5198 51.1054 20.2655 51 20.0003 51C16.022 51 12.2067 49.4197 9.39366 46.6066C6.58062 43.7936 5.00026 39.9783 5.00026 36C5.00026 32.0218 6.58062 28.2064 9.39366 25.3934C12.2067 22.5804 16.022 21 20.0003 21C20.052 21 20.1018 21.0044 20.1526 21.0078L20.3733 21.0195C20.6106 21.0348 20.8452 20.9612 21.0311 20.813C21.2171 20.6647 21.3412 20.4525 21.3792 20.2178C21.892 17.6811 22.9176 15.2759 24.3932 13.1498C25.8687 11.0237 27.7631 9.22146 29.9601 7.85366C32.1571 6.48586 34.6104 5.58134 37.1695 5.19559C39.7286 4.80984 42.3395 4.95098 44.8421 5.61037C47.3447 6.26976 49.6861 7.43348 51.7229 9.03016C53.7596 10.6268 55.4487 12.6228 56.6865 14.8956C57.9242 17.1684 58.6846 19.6701 58.9209 22.2473C59.1573 24.8245 58.8646 27.4228 58.0608 29.8828C58.0168 30.0182 58.0022 30.1616 58.0181 30.3031C58.0339 30.4447 58.0798 30.5812 58.1526 30.7036C58.2255 30.826 58.3236 30.9315 58.4405 31.0129C58.5574 31.0943 58.6903 31.1499 58.8303 31.1758C61.2811 31.6312 63.4733 32.9859 64.9769 34.9741C66.4806 36.9622 67.1871 39.4405 66.958 41.9227C66.7288 44.4049 65.5805 46.7119 63.7383 48.3912C61.8962 50.0705 59.493 51.0009 57.0003 51H56.0003C55.735 51 55.4807 51.1054 55.2932 51.2929C55.1056 51.4804 55.0003 51.7348 55.0003 52C55.0003 52.2652 55.1056 52.5196 55.2932 52.7071C55.4807 52.8947 55.735 53 56.0003 53H57.0003C59.8964 53.0008 62.695 51.9539 64.8796 50.0525C67.0642 48.1511 68.4872 45.5237 68.886 42.6551C69.2848 39.7866 68.6324 36.8706 67.0493 34.4454C65.4662 32.0203 63.0592 30.2497 60.2727 29.4605Z" fill="white"/>
<path d="M40 41C43.3623 41 46.6491 40.003 49.4447 38.135C52.2403 36.267 54.4193 33.612 55.706 30.5056C56.9926 27.3993 57.3293 23.9811 56.6734 20.6835C56.0174 17.3858 54.3983 14.3567 52.0208 11.9792C49.6433 9.6017 46.6142 7.98261 43.3165 7.32666C40.0189 6.67071 36.6007 7.00737 33.4944 8.29406C30.388 9.58075 27.733 11.7597 25.865 14.5553C23.997 17.351 23 20.6377 23 24C23.005 28.5071 24.7977 32.8282 27.9847 36.0153C31.1718 39.2023 35.4929 40.995 40 41ZM40 9.00001C42.9667 9.00001 45.8668 9.87974 48.3336 11.528C50.8003 13.1762 52.7229 15.5189 53.8582 18.2598C54.9935 21.0006 55.2906 24.0166 54.7118 26.9264C54.133 29.8361 52.7044 32.5088 50.6066 34.6066C48.5088 36.7044 45.8361 38.133 42.9264 38.7118C40.0166 39.2906 37.0006 38.9935 34.2598 37.8582C31.5189 36.7229 29.1762 34.8003 27.528 32.3336C25.8797 29.8668 25 26.9667 25 24C25.0044 20.0231 26.5862 16.2104 29.3983 13.3983C32.2104 10.5862 36.0231 9.00443 40 9.00001Z" fill="white"/>
<path d="M39.9999 28C40.8843 27.9974 41.7429 27.7015 42.441 27.1586C43.1392 26.6157 43.6375 25.8565 43.8579 25H50.9999C51.2651 25 51.5195 24.8946 51.707 24.7071C51.8945 24.5196 51.9999 24.2652 51.9999 24C51.9999 23.7348 51.8945 23.4804 51.707 23.2929C51.5195 23.1054 51.2651 23 50.9999 23H43.8579C43.6788 22.3125 43.3195 21.6852 42.8171 21.1828C42.3147 20.6804 41.6874 20.3211 40.9999 20.142V11C40.9999 10.7348 40.8945 10.4804 40.707 10.2929C40.5195 10.1054 40.2651 10 39.9999 10C39.7347 10 39.4803 10.1054 39.2928 10.2929C39.1053 10.4804 38.9999 10.7348 38.9999 11V20.142C38.0576 20.3837 37.236 20.9612 36.6895 21.7659C36.143 22.5707 35.9091 23.5473 36.0319 24.5123C36.1547 25.4773 36.6257 26.3643 37.3564 27.0065C38.0871 27.6487 39.0271 28.002 39.9999 28ZM39.9999 22C40.3955 22 40.7821 22.1173 41.111 22.3371C41.4399 22.5568 41.6963 22.8692 41.8477 23.2346C41.999 23.6001 42.0386 24.0022 41.9615 24.3902C41.8843 24.7781 41.6938 25.1345 41.4141 25.4142C41.1344 25.6939 40.778 25.8844 40.3901 25.9616C40.0021 26.0387 39.6 25.9991 39.2345 25.8478C38.8691 25.6964 38.5567 25.44 38.337 25.1111C38.1172 24.7822 37.9999 24.3956 37.9999 24C38.0005 23.4698 38.2114 22.9614 38.5864 22.5865C38.9613 22.2115 39.4697 22.0006 39.9999 22Z" fill="white"/>
<path d="M51 47H25C24.2046 47.0009 23.4421 47.3172 22.8796 47.8796C22.3172 48.4421 22.0009 49.2046 22 50V54C22.0009 54.7954 22.3172 55.5579 22.8796 56.1204C23.4421 56.6828 24.2046 56.9991 25 57V59C24.2046 59.0009 23.4421 59.3172 22.8796 59.8796C22.3172 60.4421 22.0009 61.2046 22 62V66C22.0009 66.7954 22.3172 67.5579 22.8796 68.1204C23.4421 68.6828 24.2046 68.9991 25 69H51C51.7954 68.9991 52.5579 68.6828 53.1204 68.1204C53.6828 67.5579 53.9991 66.7954 54 66V62C53.9991 61.2046 53.6828 60.4421 53.1204 59.8796C52.5579 59.3172 51.7954 59.0009 51 59H50V57H51C51.7954 56.9991 52.5579 56.6828 53.1204 56.1204C53.6828 55.5579 53.9991 54.7954 54 54V50C53.9991 49.2046 53.6828 48.4421 53.1204 47.8796C52.5579 47.3172 51.7954 47.0009 51 47ZM52 62V66C51.9997 66.2651 51.8943 66.5193 51.7068 66.7068C51.5193 66.8943 51.2651 66.9997 51 67H25C24.7349 66.9997 24.4807 66.8943 24.2932 66.7068C24.1057 66.5193 24.0003 66.2651 24 66V62C24.0003 61.7349 24.1057 61.4807 24.2932 61.2932C24.4807 61.1057 24.7349 61.0003 25 61H51C51.2651 61.0003 51.5193 61.1057 51.7068 61.2932C51.8943 61.4807 51.9997 61.7349 52 62ZM48 59H27V57H48V59ZM52 54C51.9997 54.2651 51.8943 54.5193 51.7068 54.7068C51.5193 54.8943 51.2651 54.9997 51 55H25C24.7349 54.9997 24.4807 54.8943 24.2932 54.7068C24.1057 54.5193 24.0003 54.2651 24 54V50C24.0003 49.7349 24.1057 49.4807 24.2932 49.2932C24.4807 49.1057 24.7349 49.0003 25 49H51C51.2651 49.0003 51.5193 49.1057 51.7068 49.2932C51.8943 49.4807 51.9997 49.7349 52 50V54Z" fill="white"/>
<path d="M27 51H26C25.7348 51 25.4804 51.1054 25.2929 51.2929C25.1054 51.4804 25 51.7348 25 52C25 52.2652 25.1054 52.5196 25.2929 52.7071C25.4804 52.8946 25.7348 53 26 53H27C27.2652 53 27.5196 52.8946 27.7071 52.7071C27.8946 52.5196 28 52.2652 28 52C28 51.7348 27.8946 51.4804 27.7071 51.2929C27.5196 51.1054 27.2652 51 27 51Z" fill="white"/>
<path d="M34 51H31C30.7348 51 30.4804 51.1054 30.2929 51.2929C30.1054 51.4804 30 51.7348 30 52C30 52.2652 30.1054 52.5196 30.2929 52.7071C30.4804 52.8946 30.7348 53 31 53H34C34.2652 53 34.5196 52.8946 34.7071 52.7071C34.8946 52.5196 35 52.2652 35 52C35 51.7348 34.8946 51.4804 34.7071 51.2929C34.5196 51.1054 34.2652 51 34 51Z" fill="white"/>
<path d="M39 51H38C37.7348 51 37.4804 51.1054 37.2929 51.2929C37.1054 51.4804 37 51.7348 37 52C37 52.2652 37.1054 52.5196 37.2929 52.7071C37.4804 52.8946 37.7348 53 38 53H39C39.2652 53 39.5196 52.8946 39.7071 52.7071C39.8946 52.5196 40 52.2652 40 52C40 51.7348 39.8946 51.4804 39.7071 51.2929C39.5196 51.1054 39.2652 51 39 51Z" fill="white"/>
<path d="M27 63H26C25.7348 63 25.4804 63.1054 25.2929 63.2929C25.1054 63.4804 25 63.7348 25 64C25 64.2652 25.1054 64.5196 25.2929 64.7071C25.4804 64.8946 25.7348 65 26 65H27C27.2652 65 27.5196 64.8946 27.7071 64.7071C27.8946 64.5196 28 64.2652 28 64C28 63.7348 27.8946 63.4804 27.7071 63.2929C27.5196 63.1054 27.2652 63 27 63Z" fill="white"/>
<path d="M33 63H30C29.7348 63 29.4804 63.1054 29.2929 63.2929C29.1054 63.4804 29 63.7348 29 64C29 64.2652 29.1054 64.5196 29.2929 64.7071C29.4804 64.8946 29.7348 65 30 65H33C33.2652 65 33.5196 64.8946 33.7071 64.7071C33.8946 64.5196 34 64.2652 34 64C34 63.7348 33.8946 63.4804 33.7071 63.2929C33.5196 63.1054 33.2652 63 33 63Z" fill="white"/>
<path d="M37 63H36C35.7348 63 35.4804 63.1054 35.2929 63.2929C35.1054 63.4804 35 63.7348 35 64C35 64.2652 35.1054 64.5196 35.2929 64.7071C35.4804 64.8946 35.7348 65 36 65H37C37.2652 65 37.5196 64.8946 37.7071 64.7071C37.8946 64.5196 38 64.2652 38 64C38 63.7348 37.8946 63.4804 37.7071 63.2929C37.5196 63.1054 37.2652 63 37 63Z" fill="white"/>
<path d="M16.7695 22.3887C13.8813 23.0646 11.2843 24.645 9.35682 26.8997C7.42936 29.1544 6.27213 31.9656 6.0537 34.9239C6.04368 35.0548 6.05955 35.1864 6.10041 35.3112C6.14127 35.436 6.20631 35.5516 6.29183 35.6512C6.37735 35.7509 6.48166 35.8327 6.59881 35.8921C6.71596 35.9514 6.84365 35.9871 6.9746 35.9971C7.00099 35.999 7.02636 36 7.05175 36C7.3036 35.9998 7.54609 35.9045 7.73075 35.7332C7.91542 35.562 8.02865 35.3273 8.04784 35.0762C8.23493 32.5413 9.22656 30.1323 10.8783 28.2002C12.53 26.2682 14.7554 24.914 17.2305 24.335C17.4886 24.2739 17.7118 24.1128 17.8511 23.887C17.9903 23.6613 18.0343 23.3895 17.9731 23.1314C17.912 22.8733 17.7509 22.6501 17.5251 22.5108C17.2994 22.3715 17.0276 22.3276 16.7695 22.3887Z" fill="white"/>
</svg>
