<svg width="63" height="67" viewBox="0 0 63 67" fill="none" xmlns="http://www.w3.org/2000/svg">
<path d="M49.7258 5.06739V3.60919C49.7258 1.9673 48.3801 0.630432 46.7272 0.630432C45.0744 0.630432 43.7286 1.9673 43.7286 3.60919V4.86102H34.4986V3.60919C34.4986 1.9673 33.1528 0.630432 31.5 0.630432C29.8472 0.630432 28.5014 1.9673 28.5014 3.60919V4.86102H19.2714V3.60919C19.2714 1.9673 17.9256 0.630432 16.2728 0.630432C14.6199 0.630432 13.2742 1.9673 13.2742 3.60919V5.06739C5.64 6.26479 0 12.6385 0 20.307V50.9247C0 59.4414 7.08967 66.3696 15.8048 66.3696H47.1952C55.9103 66.3696 63 59.4414 63 50.9247V20.307C63 12.6385 57.36 6.26479 49.7258 5.06739ZM46.0115 3.60919C46.0115 3.21686 46.3323 2.89824 46.7272 2.89824C47.1222 2.89824 47.4429 3.21686 47.4429 3.60919V8.29221C47.4429 8.68567 47.1222 9.0043 46.7272 9.0043C46.3323 9.0043 46.0115 8.68567 46.0115 8.29221V3.60919ZM30.7843 3.60919C30.7843 3.21686 31.1051 2.89824 31.5 2.89824C31.8949 2.89824 32.2157 3.21686 32.2157 3.60919V8.29221C32.2157 8.68567 31.8949 9.0043 31.5 9.0043C31.1051 9.0043 30.7843 8.68567 30.7843 8.29221V3.60919ZM15.5571 3.60919C15.5571 3.21686 15.8778 2.89824 16.2728 2.89824C16.6677 2.89824 16.9885 3.21686 16.9885 3.60919V8.29221C16.9885 8.68567 16.6677 9.0043 16.2728 9.0043C15.8778 9.0043 15.5571 8.68567 15.5571 8.29221V3.60919ZM13.2742 7.35447V8.29108C13.2742 9.9341 14.6199 11.271 16.2728 11.271C17.9256 11.271 19.2714 9.9341 19.2714 8.29108V7.12769H28.5014V8.29108C28.5014 9.9341 29.8472 11.271 31.5 11.271C33.1528 11.271 34.4986 9.9341 34.4986 8.29108V7.12769H43.7286V8.29108C43.7286 9.9341 45.0744 11.271 46.7272 11.271C48.3801 11.271 49.7258 9.9341 49.7258 8.29108V7.35447C55.98 8.49971 60.5687 13.7293 60.7034 20.0258H2.29664C2.43133 13.7293 7.02118 8.49971 13.2742 7.35447ZM60.7171 50.9247C60.7171 58.1907 54.6524 64.1017 47.1952 64.1017H15.8048C8.34871 64.1017 2.28294 58.1907 2.28294 50.9247V22.2936H60.7159L60.7171 50.9247Z" fill="white"/>
<path d="M13.2475 53.0019C14.4849 53.8081 16.9847 54.7493 19.9571 54.7493C26.5468 54.7493 29.4975 50.7818 29.4975 46.8494C29.4975 43.8956 27.7682 41.4951 24.9841 40.427C27.2693 39.1831 28.5512 37.1704 28.5512 34.7438C28.5512 31.5598 26.1975 28.3486 20.941 28.3486C18.1479 28.3486 15.527 29.3476 14.1687 30.3375C13.9644 30.486 13.8845 30.7502 13.9689 30.9861L14.8399 33.3934C14.9004 33.5601 15.0362 33.6904 15.2074 33.7437C15.3786 33.7959 15.5647 33.7676 15.7085 33.6632C16.6879 32.967 18.4789 32.1529 20.2972 32.1529C22.6761 32.1529 24.0401 33.289 24.0401 35.27C24.0401 37.8893 21.0997 38.8384 19.1227 38.8384H17.2689C16.9539 38.8384 16.6982 39.0924 16.6982 39.4053V41.8863C16.6982 42.1993 16.9539 42.4532 17.2689 42.4532H19.1227C21.8987 42.4532 24.8757 43.5894 24.9111 46.7825C24.9305 47.8518 24.5298 48.8825 23.813 49.607C22.9352 50.4937 21.6259 50.9439 19.9171 50.9439C17.6559 50.9439 15.5647 49.9937 14.7748 49.4914C14.6287 49.3961 14.4461 49.3746 14.2817 49.4324C14.1162 49.4891 13.9861 49.6161 13.9278 49.7805L13.0192 52.3386C12.9348 52.5858 13.0272 52.8591 13.2475 53.0019Z" fill="white"/>
<path d="M40.8849 54.7491C46.6835 54.7491 50.0098 49.8427 50.0098 41.2863C50.0098 33.0644 46.8365 28.3496 41.3015 28.3496C35.6729 28.3496 32.1777 33.4363 32.1777 41.6299C32.2519 49.7225 35.5884 54.7491 40.8849 54.7491ZM41.112 32.0405C44.9622 32.0405 45.5375 37.9277 45.5375 41.4371C45.5375 45.0304 44.9576 51.0571 41.0743 51.0571C38.344 51.0571 36.6489 47.457 36.6489 41.6616C36.6489 35.8175 38.401 32.0405 41.112 32.0405Z" fill="white"/>
</svg>
