<svg width="68" height="51" viewBox="0 0 68 51" fill="none" xmlns="http://www.w3.org/2000/svg">
<g clip-path="url(#clip0_192_2150)">
<path d="M34 30.9348C35.2006 30.9348 36.1739 29.9615 36.1739 28.7609C36.1739 27.5602 35.2006 26.5869 34 26.5869C32.7994 26.5869 31.8261 27.5602 31.8261 28.7609C31.8261 29.9615 32.7994 30.9348 34 30.9348Z" fill="black"/>
<path d="M66.6087 0.5H1.39128C0.793452 0.5 0.304321 0.98913 0.304321 1.58696V45.0652C0.304321 45.663 0.793452 46.1522 1.39128 46.1522H16.6087V49.413C16.6087 50.0109 17.0978 50.5 17.6956 50.5H50.3043C50.9022 50.5 51.3913 50.0109 51.3913 49.413V46.1522H66.6087C67.2065 46.1522 67.6957 45.663 67.6957 45.0652V1.58696C67.6957 0.98913 67.2065 0.5 66.6087 0.5Z" fill="black"/>
<path d="M49.6249 43.4688H18.3749V48.9375H49.6249V43.4688Z" fill="#2EEECE"/>
<path d="M28.5652 41.8044V38.5435C28.5652 36.75 30.0326 35.2826 31.8261 35.2826H36.1739C37.9674 35.2826 39.4348 36.75 39.4348 38.5435V41.8044H28.5652Z" fill="white"/>
<path d="M66.0312 44.25H51.6723V43.1398C51.6723 42.5292 51.1753 42.0296 50.5678 42.0296H41.7316V38.699C41.7316 35.6349 39.2575 33.148 36.209 33.148H31.7909C28.7424 33.148 26.2683 35.6349 26.2683 38.699V42.0296H17.4321C16.8246 42.0296 16.3275 42.5292 16.3275 43.1398V44.25H1.96869V2.0625H66.0312V44.25Z" fill="white"/>
<path d="M6.13536 38.651H7.17702V41.9062H9.26036V38.651H10.302C10.8749 38.651 11.3437 38.1628 11.3437 37.566V26.7153C11.3437 26.1185 10.8749 25.6302 10.302 25.6302H9.26036V22.375H7.17702V25.6302H6.13536C5.56244 25.6302 5.09369 26.1185 5.09369 26.7153V37.566C5.09369 38.1628 5.56244 38.651 6.13536 38.651Z" fill="black"/>
<path d="M14.7291 33.9635H15.7708V37.2188H17.8541V33.9635H18.8958C19.4687 33.9635 19.9374 33.4753 19.9374 32.8785V22.0278C19.9374 21.431 19.4687 20.9427 18.8958 20.9427H17.8541V17.6875H15.7708V20.9427H14.7291C14.1562 20.9427 13.6874 21.431 13.6874 22.0278V32.8785C13.6874 33.4753 14.1562 33.9635 14.7291 33.9635Z" fill="black"/>
<path d="M24.1041 24.5885H25.1458V27.8438H27.2291V24.5885H28.2708C28.8437 24.5885 29.3124 24.1003 29.3124 23.5035V12.6528C29.3124 12.056 28.8437 11.5677 28.2708 11.5677H27.2291V8.3125H25.1458V11.5677H24.1041C23.5312 11.5677 23.0624 12.056 23.0624 12.6528V23.5035C23.0624 24.1003 23.5312 24.5885 24.1041 24.5885Z" fill="black"/>
<path d="M37.3854 19.901H38.427V23.1562H40.5104V19.901H41.552C42.1249 19.901 42.5937 19.4128 42.5937 18.816V7.96528C42.5937 7.36849 42.1249 6.88021 41.552 6.88021H40.5104V3.625H38.427V6.88021H37.3854C36.8124 6.88021 36.3437 7.36849 36.3437 7.96528V18.816C36.3437 19.4128 36.8124 19.901 37.3854 19.901Z" fill="black"/>
<path d="M41.0312 8.3125H37.9062V18.4688H41.0312V8.3125Z" fill="#2EEECE"/>
<path d="M27.7499 13H24.6249V23.1562H27.7499V13Z" fill="#2EEECE"/>
<path d="M18.3749 22.375H15.2499V32.5312H18.3749V22.375Z" fill="#2EEECE"/>
<path d="M9.78119 27.0625H6.65619V37.2188H9.78119V27.0625Z" fill="#2EEECE"/>
<path d="M48.3229 25.3698H49.3645V28.625H51.4479V25.3698H52.4895C53.0624 25.3698 53.5312 24.8815 53.5312 24.2847V13.434C53.5312 12.8372 53.0624 12.349 52.4895 12.349H51.4479V9.09375H49.3645V12.349H48.3229C47.7499 12.349 47.2812 12.8372 47.2812 13.434V24.2847C47.2812 24.8815 47.7499 25.3698 48.3229 25.3698Z" fill="black"/>
<path d="M57.6979 21.4635H58.7395V24.7188H60.8229V21.4635H61.8645C62.4374 21.4635 62.9062 20.9753 62.9062 20.3785V9.52778C62.9062 8.93099 62.4374 8.44271 61.8645 8.44271H60.8229V5.1875H58.7395V8.44271H57.6979C57.1249 8.44271 56.6562 8.93099 56.6562 9.52778V20.3785C56.6562 20.9753 57.1249 21.4635 57.6979 21.4635Z" fill="black"/>
<path d="M34 33.1087C36.4012 33.1087 38.3478 31.1621 38.3478 28.7609C38.3478 26.3596 36.4012 24.4131 34 24.4131C31.5987 24.4131 29.6522 26.3596 29.6522 28.7609C29.6522 31.1621 31.5987 33.1087 34 33.1087Z" fill="black"/>
<path d="M34 31.4823C35.503 31.4823 36.7214 30.2639 36.7214 28.7609C36.7214 27.2578 35.503 26.0394 34 26.0394C32.4969 26.0394 31.2785 27.2578 31.2785 28.7609C31.2785 30.2639 32.4969 31.4823 34 31.4823Z" fill="white"/>
<path d="M51.9687 13.7812H48.8437V23.9375H51.9687V13.7812Z" fill="#2EEECE"/>
<path d="M61.3437 9.875H58.2187V20.0312H61.3437V9.875Z" fill="#2EEECE"/>
</g>
<defs>
<clipPath id="clip0_192_2150">
<rect width="67.3913" height="50" fill="white" transform="translate(0.304321 0.5)"/>
</clipPath>
</defs>
</svg>
