<svg width="56" height="51" viewBox="0 0 56 51" fill="none" xmlns="http://www.w3.org/2000/svg">
<g clip-path="url(#clip0_192_2134)">
<path d="M43.7558 48.7558V16.0407C43.7558 15.8058 43.8989 15.6163 44.0756 15.6163H53.0291C53.2058 15.6163 53.3489 15.807 53.3489 16.0407V48.7558H43.7558Z" fill="white"/>
<path d="M2.85466 48.7558V34.6942C2.85466 34.593 2.99768 34.5116 3.17443 34.5116H12.1279C12.3047 34.5116 12.4477 34.593 12.4477 34.6942V48.7558H2.85466Z" fill="white"/>
<path d="M54.8023 48.7558H54.2209V22.4186C54.2209 21.9372 53.8302 21.5465 53.3488 21.5465C52.8674 21.5465 52.4767 21.9372 52.4767 22.4186V48.7558H43.7558V15.907C43.7558 15.7465 43.8861 15.6163 44.0465 15.6163H52.1861C52.3465 15.6163 52.4767 15.7465 52.4767 15.907V18.9302C52.4767 19.4116 52.8674 19.8023 53.3488 19.8023C53.8302 19.8023 54.2209 19.4116 54.2209 18.9302V15.907C54.2198 14.7837 53.3093 13.8733 52.1861 13.8721H44.0465C42.9233 13.8733 42.0128 14.7837 42.0116 15.907V48.7558H40.8105V26.3721C40.8093 25.2488 39.8988 24.3384 38.7756 24.3372H30.6361C29.5128 24.3384 28.6023 25.2488 28.6012 26.3721V48.7558H27.4V20.5581C27.3988 19.4349 26.4884 18.5244 25.3651 18.5233H17.2256C16.1023 18.5244 15.1919 19.4349 15.1907 20.5581V48.7558H13.9895V35.6744C13.9884 34.5512 13.0779 33.6407 11.9547 33.6395H3.81396C2.69071 33.6407 1.78024 34.5512 1.77908 35.6744V46.9535C1.77908 47.4349 2.16978 47.8256 2.65117 47.8256C3.13257 47.8256 3.52327 47.4349 3.52327 46.9535V35.6744C3.52327 35.514 3.6535 35.3837 3.81396 35.3837H11.9535C12.114 35.3837 12.2442 35.514 12.2442 35.6744V48.7558H1.19769C0.71629 48.7558 0.325592 49.1465 0.325592 49.6279C0.325592 50.1093 0.71629 50.5 1.19769 50.5H54.8023C55.2837 50.5 55.6744 50.1093 55.6744 49.6279C55.6744 49.1465 55.2837 48.7558 54.8023 48.7558Z" fill="#1E1F1F"/>
<path d="M16.9337 48.7558V20.5581C16.9337 20.3977 17.064 20.2674 17.2244 20.2674H25.364C25.5244 20.2674 25.6547 20.3977 25.6547 20.5581V48.7558H16.9337Z" fill="white"/>
<path d="M30.3454 48.7558V26.3721C30.3454 26.2117 30.4756 26.0814 30.6361 26.0814H38.7756C38.9361 26.0814 39.0663 26.2117 39.0663 26.3721V48.7558H30.3454Z" fill="#2EEECE"/>
<path d="M48.1163 0.5C46.3512 0.5 44.9186 1.93023 44.9186 3.69651C44.9186 4.22907 45.0512 4.75349 45.3058 5.22093L37.0221 11.9605C35.8093 10.6814 33.7895 10.6267 32.5105 11.8395C32.4198 11.9256 32.3337 12.0174 32.2535 12.1128L24.4919 8.38953C24.4919 8.37558 24.4919 8.36163 24.4919 8.34767C24.493 6.5814 23.0628 5.14884 21.2977 5.14651C19.5314 5.14535 18.0988 6.57558 18.0965 8.3407C18.0965 8.89884 18.2407 9.44651 18.5175 9.93023L9.06978 20.4942C7.42792 19.836 5.56397 20.6326 4.90583 22.2744C4.24769 23.9163 5.0442 25.7802 6.68606 26.4384C8.32792 27.0965 10.1919 26.3 10.85 24.6581C11.2628 23.6279 11.1128 22.4558 10.4535 21.5628L19.764 11.1523C21.2337 11.9547 23.0744 11.486 23.9802 10.0767L31.5407 13.7035C31.2884 15.4512 32.5 17.0733 34.2477 17.3256C35.9954 17.5779 37.6174 16.3663 37.8698 14.6186C37.9221 14.2593 37.9116 13.8942 37.8419 13.5384L46.5302 6.46977C48.0628 7.34535 50.0163 6.81279 50.8919 5.28023C51.7674 3.74767 51.2349 1.79419 49.7023 0.918605C49.2198 0.645349 48.6721 0.5 48.1163 0.5Z" fill="#1E1F1F"/>
<path d="M7.88372 24.9186C7.0814 24.9186 6.43024 24.2674 6.43024 23.4651C6.43024 22.6628 7.0814 22.0116 7.88372 22.0116C8.68605 22.0116 9.33721 22.6628 9.33721 23.4651C9.33721 24.2674 8.68605 24.9174 7.88372 24.9186Z" fill="#2EEECE"/>
<path d="M21.2942 9.80233C20.4919 9.80233 19.8407 9.15117 19.8407 8.34884C19.8407 7.54652 20.4919 6.89536 21.2942 6.89536C22.0965 6.89536 22.7477 7.54652 22.7477 8.34884C22.7477 9.15117 22.0965 9.80117 21.2942 9.80233Z" fill="#2EEECE"/>
<path d="M34.7058 15.6163C33.9035 15.6163 33.2523 14.9651 33.2523 14.1628C33.2523 13.3605 33.9035 12.7093 34.7058 12.7093C35.5081 12.7093 36.1593 13.3605 36.1593 14.1628C36.1593 14.9651 35.5081 15.6151 34.7058 15.6163Z" fill="#2EEECE"/>
<path d="M48.1163 5.15115C47.314 5.15115 46.6628 4.49998 46.6628 3.69766C46.6628 2.89533 47.314 2.24417 48.1163 2.24417C48.9186 2.24417 49.5698 2.89533 49.5698 3.69766C49.5698 4.49998 48.9186 5.14998 48.1163 5.15115Z" fill="#2EEECE"/>
</g>
<defs>
<clipPath id="clip0_192_2134">
<rect width="55.3488" height="50" fill="white" transform="translate(0.325592 0.5)"/>
</clipPath>
</defs>
</svg>
