<svg width="122" height="122" viewBox="0 0 122 122" fill="none" xmlns="http://www.w3.org/2000/svg">
<path d="M118.188 102.94H64.8125C62.708 102.94 61 101.232 61 99.1276C61 97.0231 61 24.9821 61 22.8776C61 20.7731 62.708 19.0651 64.8125 19.0651H118.188C120.292 19.0651 122 20.7731 122 22.8776V99.1276C122 101.232 120.292 102.94 118.188 102.94Z" fill="#ECEFF1"/>
<path d="M80.0625 41.9401H64.8125C62.708 41.9401 61 40.2321 61 38.1276C61 36.0231 62.708 34.3151 64.8125 34.3151H80.0625C82.167 34.3151 83.875 36.0231 83.875 38.1276C83.875 40.2321 82.167 41.9401 80.0625 41.9401Z" fill="#388E3C"/>
<path d="M80.0625 57.1901H64.8125C62.708 57.1901 61 55.4821 61 53.3776C61 51.2731 62.708 49.5651 64.8125 49.5651H80.0625C82.167 49.5651 83.875 51.2731 83.875 53.3776C83.875 55.4821 82.167 57.1901 80.0625 57.1901Z" fill="#388E3C"/>
<path d="M80.0625 72.4401H64.8125C62.708 72.4401 61 70.7321 61 68.6276C61 66.5231 62.708 64.8151 64.8125 64.8151H80.0625C82.167 64.8151 83.875 66.5231 83.875 68.6276C83.875 70.7321 82.167 72.4401 80.0625 72.4401Z" fill="#388E3C"/>
<path d="M80.0625 87.6901H64.8125C62.708 87.6901 61 85.9821 61 83.8776C61 81.7731 62.708 80.0651 64.8125 80.0651H80.0625C82.167 80.0651 83.875 81.7731 83.875 83.8776C83.875 85.9821 82.167 87.6901 80.0625 87.6901Z" fill="#388E3C"/>
<path d="M102.938 41.9401H95.3125C93.208 41.9401 91.5 40.2321 91.5 38.1276C91.5 36.0231 93.208 34.3151 95.3125 34.3151H102.938C105.042 34.3151 106.75 36.0231 106.75 38.1276C106.75 40.2321 105.042 41.9401 102.938 41.9401Z" fill="#388E3C"/>
<path d="M102.938 57.1901H95.3125C93.208 57.1901 91.5 55.4821 91.5 53.3776C91.5 51.2731 93.208 49.5651 95.3125 49.5651H102.938C105.042 49.5651 106.75 51.2731 106.75 53.3776C106.75 55.4821 105.042 57.1901 102.938 57.1901Z" fill="#388E3C"/>
<path d="M102.938 72.4401H95.3125C93.208 72.4401 91.5 70.7321 91.5 68.6276C91.5 66.5231 93.208 64.8151 95.3125 64.8151H102.938C105.042 64.8151 106.75 66.5231 106.75 68.6276C106.75 70.7321 105.042 72.4401 102.938 72.4401Z" fill="#388E3C"/>
<path d="M102.938 87.6901H95.3125C93.208 87.6901 91.5 85.9821 91.5 83.8776C91.5 81.7731 93.208 80.0651 95.3125 80.0651H102.938C105.042 80.0651 106.75 81.7731 106.75 83.8776C106.75 85.9821 105.042 87.6901 102.938 87.6901Z" fill="#388E3C"/>
<path d="M67.2449 4.69201C66.3756 3.96763 65.209 3.65501 64.111 3.88376L3.111 15.3213C1.30387 15.6568 0 17.2275 0 19.0651V102.94C0 104.77 1.30387 106.349 3.111 106.684L64.111 118.122C64.3398 118.167 64.5761 118.19 64.8125 118.19C65.697 118.19 66.5586 117.885 67.2449 117.313C68.1217 116.589 68.625 115.506 68.625 114.378V7.62764C68.625 6.49151 68.1217 5.41638 67.2449 4.69201Z" fill="#2E7D32"/>
<path d="M52.4295 73.744L40.3744 59.9656L52.5668 44.2886C53.863 42.6264 53.558 40.2321 51.9034 38.9359C50.2488 37.6396 47.8545 37.9446 46.5506 39.5992L35.258 54.1172L25.742 43.244C24.3466 41.6427 21.9371 41.4979 20.3664 42.8856C18.7804 44.2734 18.6203 46.6829 20.008 48.2612L30.4924 60.2477L19.8631 73.9117C18.5669 75.574 18.8719 77.9682 20.5265 79.2645C21.228 79.8059 22.0591 80.0651 22.875 80.0651C24.0111 80.0651 25.132 79.5619 25.8869 78.5935L35.6088 66.0885L46.6955 78.7536C47.4504 79.6229 48.5026 80.0651 49.5625 80.0651C50.4546 80.0651 51.3468 79.7525 52.0711 79.1196C53.6571 77.7319 53.8173 75.3224 52.4295 73.744Z" fill="#FAFAFA"/>
</svg>
