<svg width="971" height="499" viewBox="0 0 971 499" fill="none" xmlns="http://www.w3.org/2000/svg">
<path opacity="0.12" d="M6.23203 254.302L8.72378 253.258L5.62748 254.081L3.22675 254.953L6.23203 254.302ZM25.1547 247.875C26.0266 247.459 26.9005 247.045 27.7705 246.628C26.7009 246.967 25.6352 247.308 24.5657 247.645L22.0681 248.702L25.1528 247.875H25.1547ZM16.3056 252.097L20.3262 250.18C18.7257 250.606 17.1253 251.03 15.5248 251.454C14.1627 252.025 12.7985 252.594 11.4344 253.165L16.3056 252.099V252.097ZM43.4884 240.608L46.11 239.178L43.004 240.332C42.1204 240.761 41.233 241.187 40.3456 241.613L43.4864 240.608H43.4884ZM34.9474 245.252C36.296 244.524 37.6446 243.794 38.9912 243.064C37.3811 243.577 35.767 244.086 34.1568 244.599C32.8121 245.246 31.4733 245.897 30.1266 246.543L34.9474 245.252ZM26.3405 249.897L31.2156 247.265C29.2547 247.79 27.2919 248.319 25.3291 248.844C23.6821 249.632 22.0293 250.418 20.3785 251.204C22.3665 250.766 24.3525 250.335 26.3405 249.897ZM69.528 227.381L69.5881 227.343L69.3904 227.44L69.526 227.381H69.528ZM61.2912 232.478C62.1999 231.92 63.1087 231.363 64.0136 230.803L60.7622 232.203L58.1057 233.669L61.2912 232.478ZM53.0156 237.559L57.009 235.107L52.2871 236.871C50.9289 237.615 49.5647 238.357 48.2045 239.1L53.0156 237.559ZM44.7149 242.626C46.327 241.65 47.9391 240.672 49.5434 239.691L43.686 241.567C42.072 242.448 40.4618 243.331 38.8439 244.208C40.8028 243.681 42.7579 243.153 44.7149 242.626ZM36.3948 247.672L41.7039 244.454C39.5124 245.045 37.321 245.631 35.1315 246.22C33.316 247.202 31.4965 248.181 29.679 249.159C31.917 248.665 34.1569 248.17 36.3948 247.674V247.672ZM86.4821 217.952L86.7146 217.789L86.1701 218.095L86.0868 218.145L86.4821 217.95V217.952ZM78.5107 223.489L81.2118 221.613L78.0574 223.174C77.1467 223.741 76.2321 224.307 75.3176 224.874L78.5088 223.491L78.5107 223.489ZM70.5297 229.006C71.8628 228.092 73.1978 227.178 74.5231 226.258C72.9323 226.948 71.3416 227.639 69.7508 228.328C68.4255 229.149 67.104 229.97 65.7806 230.791L70.5297 229.006ZM62.5216 234.507L67.2203 231.279C65.3175 231.994 63.4168 232.712 61.5121 233.427C59.9097 234.414 58.3034 235.398 56.6991 236.381L62.5235 234.505L62.5216 234.507ZM54.4669 239.995C56.2205 238.808 57.9759 237.623 59.7198 236.432C57.5555 237.127 55.3912 237.822 53.2249 238.515C51.4578 239.598 49.6946 240.682 47.9236 241.762L54.465 239.995H54.4669ZM46.42 245.453C48.2782 244.196 50.1286 242.936 51.9849 241.677L44.9106 243.588C43.0078 244.746 41.1013 245.9 39.1966 247.054C41.6051 246.522 44.0135 245.988 46.42 245.453ZM102.803 207.695L103.182 207.395L102.682 207.71L102.318 207.966L102.801 207.695H102.803ZM95.1432 213.655C96.0597 212.948 96.9742 212.241 97.8849 211.533L94.6433 213.349L91.9171 215.262C92.9944 214.728 94.0678 214.191 95.1432 213.657V213.655ZM87.4702 219.597L91.3378 216.602C89.8032 217.363 88.2666 218.124 86.7301 218.885C85.3989 219.812 84.0659 220.736 82.7328 221.662C84.3139 220.974 85.8911 220.285 87.4702 219.597ZM79.7295 225.544C81.2777 224.359 82.8277 223.178 84.37 221.991C82.4964 222.804 80.6189 223.617 78.7452 224.432C77.1854 225.513 75.6315 226.597 74.0698 227.678L79.7314 225.546L79.7295 225.544ZM72.0178 231.448C73.7093 230.158 75.3912 228.863 77.0808 227.571C74.9746 228.365 72.8664 229.157 70.7583 229.949C69.0203 231.146 67.2784 232.34 65.5365 233.535L72.0159 231.446L72.0178 231.448ZM64.2131 237.352C66.0364 235.977 67.8617 234.602 69.6772 233.221L62.7405 235.458C60.8823 236.73 59.0203 238 57.1543 239.269C59.5085 238.631 61.8589 237.991 64.2131 237.352ZM56.4277 243.222C58.3305 241.795 60.2217 240.363 62.1166 238.935L54.6723 240.955C52.727 242.278 50.7777 243.598 48.8304 244.919L56.4277 243.224V243.222ZM118.53 196.584L119.038 196.143L118.286 196.677L117.883 196.993L118.53 196.582V196.584ZM111.2 202.961C112.105 202.175 113.004 201.39 113.909 200.604L110.731 202.622C109.813 203.342 108.889 204.062 107.968 204.783L111.2 202.961ZM103.789 209.352C105.075 208.245 106.366 207.137 107.651 206.03L103.082 208.605C101.789 209.614 100.506 210.623 99.2122 211.631L103.789 209.352ZM96.4181 215.698C97.914 214.416 99.3982 213.132 100.89 211.848L95.4087 214.577C93.8741 215.767 92.3356 216.956 90.7991 218.147L96.4181 215.698ZM88.9371 222.062C90.5956 220.653 92.2562 219.245 93.909 217.833L87.7222 220.529C86.0287 221.836 84.3313 223.141 82.6321 224.446L88.9371 222.062ZM81.4772 228.388C83.2424 226.899 85.0017 225.406 86.7591 223.915L79.9775 226.479L74.5561 230.631C76.8637 229.885 79.1695 229.136 81.4772 228.388ZM73.9477 234.707C75.7981 233.156 77.6504 231.605 79.497 230.052L72.2542 232.395C70.3534 233.841 68.4429 235.282 66.5325 236.724L73.9477 234.708V234.707ZM66.4045 240.994C68.3286 239.4 70.2468 237.805 72.1612 236.205C69.588 236.906 67.011 237.605 64.4359 238.304C62.477 239.786 60.5219 241.269 58.5552 242.748L66.4045 240.994ZM133.727 184.581L134.362 183.962L133.551 184.606L132.932 185.148L133.727 184.581ZM126.631 191.43L129.332 188.824C128.296 189.563 127.253 190.299 126.217 191.039C125.304 191.838 124.399 192.638 123.485 193.436L126.629 191.43H126.631ZM119.582 198.221C120.83 197.026 122.068 195.829 123.312 194.633L118.85 197.469L115.008 200.811L119.584 198.221H119.582ZM112.45 205.031C113.911 203.636 115.374 202.242 116.833 200.846L111.508 203.857C110.005 205.16 108.497 206.462 106.986 207.761L112.45 205.031ZM105.32 211.808C106.928 210.288 108.532 208.766 110.133 207.242L104.079 210.262L99.1482 214.509L105.32 211.808ZM98.1387 218.577C99.8458 216.97 101.553 215.361 103.256 213.752L96.6933 216.619C94.93 218.128 93.1553 219.632 91.3823 221.137L98.1387 218.577ZM90.9192 225.327C92.7193 223.654 94.5193 221.979 96.3096 220.3C93.9419 221.199 91.5722 222.093 89.2044 222.99C87.3714 224.549 85.5462 226.109 83.7094 227.664L90.9211 225.325L90.9192 225.327ZM83.6919 232.044C85.5404 230.329 87.387 228.611 89.2316 226.894L81.7311 229.326C79.8206 230.937 77.8985 232.546 75.9783 234.153L83.6919 232.044ZM76.3851 238.752C78.3092 236.995 80.2352 235.241 82.1457 233.479L74.1899 235.651C72.231 237.29 70.2759 238.928 68.3092 240.562L76.3833 238.75L76.3851 238.752ZM148.224 171.788L148.889 171.071L148.056 171.807L147.424 172.427L148.224 171.788ZM141.495 179.026C142.396 178.064 143.297 177.101 144.192 176.139L141.024 178.666L138.335 181.284L141.493 179.026H141.495ZM134.715 186.273L138.366 182.37L134.06 185.447C132.803 186.667 131.537 187.886 130.272 189.104L134.715 186.272V186.273ZM127.908 193.504C129.34 191.993 130.77 190.481 132.194 188.967L126.953 192.309C125.502 193.709 124.054 195.109 122.601 196.509L127.91 193.502L127.908 193.504ZM121.09 200.709L125.732 195.804L119.892 199.109C118.288 200.649 116.674 202.184 115.064 203.722C117.073 202.719 119.084 201.714 121.092 200.709H121.09ZM114.207 207.914C115.874 206.179 117.542 204.448 119.199 202.709L112.746 205.933C111.053 207.548 109.363 209.165 107.664 210.778L114.207 207.914ZM107.335 215.082C109.057 213.293 110.77 211.5 112.487 209.709L105.601 212.722C103.82 214.408 102.029 216.091 100.241 217.775L107.333 215.082H107.335ZM100.361 222.254C102.163 220.407 103.967 218.562 105.757 216.71L98.412 219.499C96.5693 221.232 94.7227 222.963 92.8704 224.692L100.361 222.254ZM93.4071 229.386C95.2478 227.509 97.075 225.627 98.908 223.747L91.1827 226.26C89.2877 228.026 87.3908 229.788 85.49 231.55L93.4071 229.387V229.386ZM86.362 236.503C88.255 234.596 90.148 232.689 92.0314 230.776L83.9457 232.987C82.0004 234.784 80.0453 236.577 78.0883 238.368L86.362 236.505V236.503ZM162.144 158.129L162.934 157.184L162.001 158.106L161.241 158.931L162.144 158.127V158.129ZM155.74 165.781L158.335 162.679L155.351 165.33C154.444 166.312 153.529 167.296 152.621 168.277L155.74 165.781ZM149.263 173.459C150.452 172.055 151.642 170.651 152.826 169.246C151.417 170.371 150.001 171.499 148.588 172.626C147.375 173.933 146.168 175.242 144.955 176.549L149.263 173.459ZM142.805 181.098C144.169 179.491 145.523 177.883 146.881 176.276L141.846 179.88C140.427 181.4 139.003 182.92 137.579 184.44L142.805 181.098ZM136.25 188.764C137.755 187.007 139.263 185.251 140.76 183.493L135.052 187.141C133.508 188.787 131.968 190.433 130.419 192.075L136.25 188.764ZM129.72 196.383C131.309 194.538 132.886 192.69 134.471 190.843L128.234 194.385C126.593 196.125 124.946 197.862 123.299 199.601L129.72 196.383ZM123.103 204.008C124.771 202.089 126.44 200.168 128.102 198.248C125.868 199.367 123.638 200.486 121.404 201.605C119.683 203.414 117.959 205.218 116.228 207.025L123.103 204.008ZM116.482 211.602C118.209 209.635 119.925 207.664 121.642 205.693L114.506 208.824C112.731 210.677 110.956 212.53 109.177 214.381L116.482 211.602ZM109.799 219.183C111.574 217.173 113.347 215.165 115.114 213.151L107.623 216C105.788 217.901 103.94 219.795 102.093 221.689L109.799 219.183ZM103.087 226.729C104.909 224.692 106.728 222.655 108.538 220.614L100.64 223.184C98.7724 225.1 96.9142 227.021 95.0405 228.938L103.087 226.729ZM96.3387 234.252C98.191 232.195 100.038 230.135 101.882 228.075L93.6745 230.327C91.7601 232.275 89.8303 234.215 87.9043 236.155L96.3387 234.252ZM175.494 143.578C175.763 143.218 176.033 142.855 176.304 142.497L175.378 143.51L174.529 144.534L175.494 143.578ZM169.342 151.712C170.189 150.593 171.038 149.476 171.88 148.357L168.964 151.234C168.096 152.278 167.236 153.319 166.368 154.363L169.34 151.712H169.342ZM163.221 159.79C164.364 158.292 165.496 156.795 166.631 155.296L162.531 158.952C161.355 160.358 160.177 161.766 158.999 163.171L163.221 159.792V159.79ZM157.027 167.894C158.348 166.167 159.668 164.442 160.985 162.714L156.118 166.61C154.754 168.237 153.384 169.863 152.012 171.49L157.027 167.894ZM150.826 175.966C152.272 174.094 153.711 172.222 155.149 170.349L149.629 174.307L145.161 179.591L150.824 175.968L150.826 175.966ZM144.583 184.029C146.11 182.06 147.635 180.091 149.156 178.122L143.157 181.959C141.57 183.828 139.97 185.693 138.371 187.559L144.583 184.031V184.029ZM138.3 192.08C139.906 190.036 141.508 187.989 143.105 185.94L136.593 189.639C134.946 191.563 133.303 193.492 131.65 195.417L138.3 192.082V192.08ZM131.997 200.105C133.646 198.01 135.289 195.914 136.934 193.821L130.049 197.272C128.334 199.26 126.608 201.243 124.882 203.228L131.997 200.105ZM125.618 208.123C127.333 205.981 129.048 203.842 130.745 201.696L123.421 204.911C121.665 206.928 119.917 208.948 118.156 210.963L125.618 208.123ZM119.245 216.1C120.983 213.936 122.706 211.769 124.436 209.602L116.79 212.512C114.988 214.569 113.175 216.619 111.361 218.672L119.245 216.1ZM112.77 224.07C114.56 221.877 116.354 219.685 118.129 217.485L110.098 220.105C108.263 222.179 106.428 224.25 104.581 226.318L112.768 224.07H112.77ZM106.308 231.996C108.116 229.794 109.906 227.585 111.706 225.379L103.374 227.664C101.504 229.755 99.6287 231.845 97.7512 233.932L106.308 231.996ZM188.143 128.265L188.945 127.084L188.065 128.149L187.234 129.264L188.143 128.265ZM182.347 136.791C183.184 135.567 184.023 134.343 184.857 133.122L181.966 136.295L179.42 139.69L182.347 136.791ZM176.533 145.301L179.809 140.507L175.924 144.354C174.775 145.878 173.618 147.406 172.464 148.932L176.535 145.301H176.533ZM170.667 153.823C171.942 151.979 173.219 150.138 174.487 148.295C172.913 149.7 171.33 151.108 169.751 152.514C168.443 154.243 167.137 155.974 165.825 157.703L170.667 153.821V153.823ZM164.798 162.314C166.17 160.333 167.536 158.352 168.906 156.371L163.622 160.604C162.185 162.494 160.737 164.382 159.292 166.269L164.798 162.314ZM158.852 170.826C160.326 168.725 161.805 166.626 163.268 164.523L157.414 168.725C155.899 170.702 154.393 172.681 152.872 174.656L158.854 170.824L158.852 170.826ZM152.925 179.285C154.448 177.124 155.953 174.96 157.47 172.797L151.2 176.813C149.615 178.871 148.021 180.925 146.424 182.982L152.925 179.285ZM146.891 187.768C148.482 185.54 150.073 183.311 151.652 181.078L144.946 184.891C143.306 187.002 141.667 189.11 140.016 191.217L146.889 187.768H146.891ZM140.873 196.201C142.497 193.937 144.109 191.672 145.723 189.406L138.648 192.958C136.965 195.109 135.275 197.256 133.582 199.406L140.871 196.201H140.873ZM134.765 204.636C136.436 202.335 138.108 200.035 139.766 197.731L132.334 200.997C130.607 203.183 128.869 205.366 127.129 207.546L134.765 204.636ZM128.646 213.031C130.35 210.708 132.043 208.384 133.737 206.057L125.947 209.025C124.19 211.229 122.433 213.434 120.667 215.636L128.646 213.031ZM122.464 221.402C124.2 219.061 125.93 216.72 127.652 214.377L119.567 217.016C117.769 219.247 115.953 221.468 114.142 223.693L122.464 221.404V221.402ZM116.236 229.744C118.005 227.389 119.768 225.035 121.524 222.674L113.078 224.998C111.262 227.23 109.452 229.467 107.629 231.694L116.238 229.744H116.236ZM200.187 112.109L201.026 110.734L200.108 111.973L199.243 113.257L200.187 112.109ZM194.75 121.004C195.537 119.722 196.314 118.444 197.098 117.163L194.395 120.45C193.562 121.684 192.725 122.919 191.888 124.153L194.75 121.004ZM189.218 129.977C190.27 128.273 191.326 126.567 192.373 124.865L188.598 129.011C187.511 130.616 186.43 132.219 185.339 133.824L189.22 129.975L189.218 129.977ZM183.715 138.888C184.919 136.95 186.11 135.015 187.306 133.077L182.789 137.556C181.534 139.401 180.268 141.248 179.007 143.092L183.717 138.888H183.715ZM178.121 147.847C179.439 145.743 180.757 143.636 182.066 141.529L176.959 146.089C175.591 148.085 174.221 150.08 172.845 152.078L178.121 147.847ZM172.533 156.762C173.928 154.549 175.314 152.336 176.701 150.122L171.084 154.626C169.635 156.729 168.181 158.83 166.726 160.931L172.035 157.118L172.533 156.762ZM166.881 165.683C168.338 163.388 169.794 161.092 171.245 158.797L165.203 163.135C163.686 165.321 162.156 167.505 160.625 169.691L164.709 167.075L166.881 165.685V165.683ZM161.204 174.578C162.715 172.224 164.219 169.869 165.721 167.513L164.981 167.987L159.243 171.664C157.68 173.898 156.118 176.131 154.55 178.364L157.899 176.458L161.204 174.58V174.578ZM155.484 183.456C157.032 181.059 158.577 178.662 160.117 176.265L158.143 177.388L153.303 180.139C151.687 182.428 150.053 184.713 148.424 187L151.871 185.269L155.484 183.456ZM149.71 192.319C151.307 189.885 152.9 187.453 154.481 185.015L152.088 186.215L147.255 188.642C145.612 190.948 143.981 193.258 142.33 195.564L147.001 193.511L149.71 192.321V192.319ZM143.917 201.148C145.539 198.695 147.143 196.24 148.751 193.783L147.195 194.466L141.225 197.09C139.54 199.433 137.84 201.772 136.141 204.113L143.837 201.177L143.917 201.146V201.148ZM138.036 209.966C139.699 207.486 141.367 205.007 143.014 202.521L135.108 205.534C133.398 207.891 131.692 210.247 129.97 212.6L138.034 209.966H138.036ZM132.159 218.736C133.835 216.252 135.494 213.759 137.16 211.273L128.978 213.945C127.236 216.319 125.48 218.689 123.725 221.057L132.157 218.736H132.159ZM126.166 227.492C127.887 224.99 129.613 222.492 131.315 219.985L122.787 222.332C121.018 224.713 119.245 227.093 117.465 229.469L126.166 227.492ZM211.642 95.0595L212.491 93.5182L211.584 94.8736L210.693 96.3413L211.64 95.0595H211.642ZM206.476 104.445L208.726 100.361L206.157 103.823C205.362 105.128 204.574 106.429 203.777 107.735L206.476 104.445ZM201.303 113.801C202.307 111.996 203.307 110.192 204.304 108.389L200.669 112.819L197.544 117.935L201.303 113.801ZM196.093 123.165C197.236 121.115 198.377 119.062 199.517 117.011L195.223 121.736C194.018 123.7 192.805 125.665 191.592 127.63L195.384 123.868L196.093 123.163V123.165ZM190.844 132.529C192.099 130.3 193.355 128.074 194.601 125.847L189.677 130.728C188.377 132.837 187.079 134.944 185.775 137.052L187.5 135.513L190.844 132.527V132.529ZM185.577 141.872C186.893 139.542 188.205 137.211 189.517 134.88L187.854 136.365L184.155 139.666C182.77 141.899 181.367 144.132 179.972 146.364L185.577 141.87V141.872ZM180.243 151.226C181.634 148.798 183.031 146.37 184.409 143.944L180.007 147.474L178.552 148.641C177.116 150.942 175.684 153.24 174.24 155.538L180.243 151.228V151.226ZM174.915 160.538C176.339 158.063 177.748 155.585 179.166 153.108L172.952 157.57C171.458 159.94 169.953 162.31 168.447 164.678L174.915 160.536V160.538ZM169.489 169.867C170.972 167.332 172.454 164.8 173.919 162.263L167.288 166.511C165.758 168.922 164.227 171.331 162.686 173.738L169.489 169.869V169.867ZM164.078 179.146C165.581 176.588 167.064 174.028 168.557 171.468L161.599 175.424C160.03 177.872 158.453 180.317 156.874 182.763L164.078 179.148V179.146ZM158.561 188.432C160.108 185.838 161.656 183.245 163.186 180.648L155.87 184.32C154.269 186.794 152.659 189.265 151.045 191.734L158.561 188.432ZM153.043 197.671C154.612 195.064 156.166 192.454 157.722 189.842L150.084 193.2C148.455 195.692 146.821 198.182 145.182 200.67L153.043 197.673V197.671ZM147.439 206.897C149.044 204.27 150.642 201.642 152.231 199.013L144.283 202.043C142.621 204.554 140.945 207.062 139.267 209.567L143.198 208.284L147.439 206.899V206.897ZM141.811 216.079C143.438 213.446 145.054 210.81 146.666 208.169L143.345 209.254L138.391 210.871C136.709 213.386 135.031 215.901 133.339 218.411L141.811 216.077V216.079ZM136.11 225.234C137.765 222.593 139.41 219.95 141.047 217.303L132.504 219.656C130.791 222.186 129.051 224.707 127.319 227.23L136.11 225.232V225.234ZM222.427 77.2318L223.21 75.6382L222.419 76.9472L221.532 78.5717L222.427 77.2298V77.2318ZM217.587 87.0315C218.306 85.5793 219.028 84.127 219.741 82.6767L217.253 86.4022L215.008 90.5149L217.587 87.0315ZM212.754 96.7886C213.69 94.9007 214.62 93.0166 215.556 91.1307L212.144 95.741C211.148 97.5573 210.144 99.3774 209.143 101.196L211.016 98.9088L212.754 96.7886ZM207.846 106.6C208.933 104.431 210.024 102.263 211.104 100.096L206.969 105.138C205.835 107.194 204.709 109.247 203.57 111.303L207.846 106.6ZM202.958 116.355C204.13 114.026 205.289 111.7 206.459 109.373L203.651 112.459L201.784 114.516C200.545 116.748 199.3 118.983 198.054 121.219L202.958 116.357V116.355ZM197.982 126.155C199.234 123.694 200.485 121.235 201.729 118.775L196.564 123.899C195.254 126.246 193.944 128.591 192.626 130.937L197.984 126.155H197.982ZM193.01 135.91C194.312 133.371 195.603 130.831 196.897 128.291L191.299 133.288C189.935 135.716 188.565 138.146 187.193 140.574L193.012 135.91H193.01ZM187.968 145.679C189.319 143.068 190.668 140.456 192.008 137.846L186.023 142.646C184.609 145.144 183.183 147.64 181.756 150.138L187.968 145.679ZM182.903 155.42C184.295 152.762 185.678 150.101 187.058 147.441L180.677 152.02C179.228 154.559 177.777 157.095 176.319 159.632L182.902 155.418L182.903 155.42ZM177.786 165.15C179.21 162.453 180.629 159.758 182.041 157.058C179.811 158.485 177.573 159.92 175.339 161.351C173.849 163.936 172.34 166.517 170.834 169.102L177.784 165.15H177.786ZM172.621 174.859C174.082 172.131 175.539 169.404 176.984 166.674L169.902 170.7C168.389 173.3 166.881 175.903 165.356 178.499L172.619 174.859H172.621ZM167.42 184.535C168.902 181.791 170.375 179.045 171.846 176.3L164.479 179.996C162.929 182.629 161.357 185.257 159.79 187.888L167.42 184.537V184.535ZM162.144 194.197C163.665 191.432 165.186 188.669 166.688 185.898L158.949 189.298C157.379 191.935 155.816 194.576 154.235 197.212L162.142 194.197H162.144ZM156.85 203.818C158.385 201.048 159.902 198.275 161.427 195.502L153.423 198.554C151.82 201.212 150.202 203.865 148.583 206.52L156.85 203.82V203.818ZM151.454 213.417C153.029 210.634 154.612 207.854 156.166 205.062L147.809 207.792C146.186 210.452 144.566 213.111 142.929 215.766L146.366 214.819L151.454 213.415V213.417ZM146.064 222.965C147.647 220.188 149.205 217.4 150.778 214.617L146.492 215.798L142.167 216.989C140.518 219.658 138.856 222.32 137.191 224.982L146.066 222.965H146.064ZM232.561 58.5947L233.309 56.8985L232.524 58.345L231.718 59.9947L232.561 58.5947ZM228.073 68.772C228.751 67.2481 229.422 65.7262 230.094 64.2023L227.744 68.1059L225.595 72.4839L226.089 71.7424L228.073 68.7701V68.772ZM223.539 78.9861C224.423 76.9994 225.304 75.0108 226.186 73.0242L222.954 77.865C222.014 79.7722 221.073 81.6815 220.129 83.5926L223.539 78.9861ZM218.988 89.1866C220.007 86.9153 221.024 84.6459 222.034 82.3766L219.108 86.3286L218.098 87.6918L214.878 94.1959L218.986 89.1866H218.988ZM214.405 99.3852C215.504 96.9396 216.602 94.496 217.701 92.0524L213.262 97.4643C212.092 99.815 210.912 102.172 209.732 104.526L214.407 99.3833L214.405 99.3852ZM209.778 109.59C210.954 107.008 212.13 104.427 213.297 101.848L208.34 107.301C207.108 109.76 205.882 112.219 204.645 114.678C206.356 112.984 208.073 111.278 209.778 109.588V109.59ZM205.13 119.78C206.349 117.114 207.563 114.452 208.775 111.785L203.44 117.077C202.148 119.639 200.842 122.201 199.536 124.766L205.128 119.78H205.13ZM200.414 129.985C201.691 127.239 202.971 124.493 204.231 121.748L198.451 126.906C197.122 129.518 195.804 132.128 194.467 134.742L200.412 129.987L200.414 129.985ZM195.696 140.143C196.994 137.36 198.282 134.576 199.573 131.791L193.467 136.679C192.096 139.355 190.71 142.031 189.325 144.707L195.696 140.143ZM190.885 150.32C192.233 147.483 193.586 144.647 194.919 141.808L188.416 146.465C187.013 149.174 185.614 151.883 184.202 154.59L190.885 150.32ZM186.085 160.441C187.449 157.589 188.792 154.735 190.144 151.881C187.877 153.331 185.608 154.777 183.338 156.23C181.904 158.971 180.46 161.713 179.013 164.453L186.085 160.439V160.441ZM181.169 170.578C182.574 167.691 183.983 164.806 185.37 161.917L178.211 165.979C176.752 168.744 175.283 171.505 173.808 174.266L181.169 170.58V170.578ZM176.261 180.658C177.684 177.765 179.086 174.867 180.495 171.97L173.033 175.707C171.547 178.486 170.055 181.262 168.557 184.039L176.261 180.66V180.658ZM171.253 190.733C172.708 187.821 174.163 184.908 175.599 181.99L167.825 185.4C166.31 188.194 164.783 190.985 163.254 193.775L171.253 190.731V190.733ZM166.225 200.759C167.699 197.843 169.16 194.923 170.621 192.003L162.537 195.08C161.003 197.878 159.468 200.676 157.922 203.47L166.225 200.759ZM161.113 210.758C162.615 207.836 164.114 204.912 165.599 201.983L157.236 204.713C155.674 207.523 154.089 210.326 152.506 213.128L161.113 210.758ZM155.955 220.717C157.482 217.795 158.999 214.869 160.509 211.939L151.826 214.331C150.245 217.133 148.674 219.938 147.083 222.736L155.482 220.825L155.955 220.717ZM242.053 39.1541L242.772 37.3282L242.028 38.854L241.243 40.649L242.053 39.1541ZM237.903 49.7245L239.765 44.9824L237.604 48.9693C236.926 50.5126 236.244 52.0636 235.562 53.6107L237.903 49.7245ZM233.69 60.3626C234.52 58.2753 235.353 56.186 236.172 54.1044L233.824 58.0042L233.093 59.2163C232.218 61.2068 231.346 63.1916 230.468 65.184L233.688 60.3607L233.69 60.3626ZM229.493 70.9426C230.433 68.5842 231.361 66.2316 232.297 63.8751L228.602 69.4071C227.593 71.6843 226.577 73.9691 225.562 76.252L229.491 70.9426H229.493ZM225.213 81.6021C226.248 79.0345 227.284 76.465 228.309 73.9013L224.058 79.6425C222.967 82.0939 221.882 84.5414 220.788 86.9928L225.215 81.6001L225.213 81.6021ZM220.945 92.2034C222.036 89.5119 223.111 86.8263 224.194 84.1367C222.632 86.0382 221.063 87.9551 219.497 89.8624C218.342 92.4454 217.176 95.0323 216.011 97.6193C217.658 95.8088 219.302 94.01 220.945 92.2053V92.2034ZM216.595 102.849C217.742 100.051 218.889 97.2533 220.022 94.4572L214.905 100.08C213.698 102.758 212.487 105.436 211.266 108.118C213.045 106.358 214.818 104.605 216.595 102.849ZM212.245 113.443C213.427 110.581 214.597 107.723 215.771 104.863C213.936 106.679 212.105 108.486 210.268 110.306C209.017 113.054 207.763 115.803 206.506 118.555L212.245 113.443ZM207.825 124.056C209.046 121.136 210.265 118.218 211.474 115.3L205.606 120.522C204.32 123.328 203.022 126.133 201.72 128.939C203.754 127.311 205.791 125.68 207.823 124.058L207.825 124.056ZM203.38 134.638C204.634 131.677 205.876 128.718 207.116 125.758L200.881 130.744C199.565 133.582 198.251 136.421 196.926 139.26C199.077 137.718 201.231 136.173 203.378 134.638H203.38ZM198.879 145.21C200.158 142.218 201.433 139.225 202.702 136.231C200.522 137.79 198.338 139.357 196.157 140.921C194.806 143.802 193.438 146.68 192.072 149.559C194.339 148.109 196.612 146.655 198.879 145.208V145.21ZM194.328 155.765C195.639 152.744 196.945 149.726 198.242 146.703C195.942 148.171 193.636 149.648 191.332 151.12C189.962 154.011 188.6 156.903 187.222 159.796C189.59 158.452 191.962 157.105 194.328 155.767V155.765ZM189.736 166.289C191.067 163.255 192.39 160.218 193.708 157.182C191.317 158.538 188.918 159.901 186.523 161.258C185.122 164.182 183.696 167.102 182.274 170.022C184.76 168.777 187.25 167.53 189.734 166.289H189.736ZM185.068 176.795C186.434 173.744 187.802 170.692 189.146 167.636C186.631 168.893 184.115 170.158 181.598 171.416C180.177 174.34 178.773 177.264 177.339 180.186C179.914 179.055 182.493 177.924 185.066 176.797L185.068 176.795ZM180.375 187.261C181.754 184.207 183.119 181.15 184.487 178.093L176.678 181.516C175.231 184.459 173.76 187.397 172.291 190.336L180.373 187.261H180.375ZM175.581 197.709C177 194.642 178.422 191.577 179.819 188.504L171.661 191.608C170.193 194.549 168.73 197.491 167.25 200.426L175.581 197.709ZM170.782 208.098C172.208 205.04 173.613 201.973 175.025 198.912L166.622 201.652C165.128 204.601 163.616 207.544 162.107 210.487L170.782 208.098ZM165.853 218.467C167.319 215.4 168.798 212.338 170.243 209.26L161.503 211.666C159.987 214.613 158.47 217.557 156.938 220.494L165.854 218.467H165.853ZM171.193 208.998C169.743 212.09 168.265 215.169 166.79 218.252L175.765 216.209C177.155 213.01 178.536 209.807 179.906 206.603L171.193 208.998ZM175.998 198.592C174.578 201.675 173.163 204.759 171.727 207.836L180.4 205.453C181.766 202.25 183.117 199.043 184.461 195.835L175.998 198.592ZM180.803 188.127C179.4 191.221 177.976 194.305 176.552 197.39L184.954 194.654C186.296 191.449 187.633 188.243 188.957 185.032C186.24 186.062 183.524 187.093 180.803 188.127ZM185.502 177.645C184.124 180.726 182.75 183.807 181.359 186.885C184.062 185.857 186.763 184.835 189.464 183.81C190.778 180.612 192.076 177.409 193.372 174.206C190.747 175.353 188.125 176.495 185.5 177.645H185.502ZM190.181 167.119C188.827 170.198 187.457 173.275 186.083 176.35C188.685 175.211 191.284 174.077 193.882 172.942C195.176 169.743 196.475 166.544 197.751 163.342C195.229 164.598 192.706 165.855 190.181 167.118V167.119ZM194.783 156.574C193.452 159.641 192.113 162.707 190.768 165.772C193.276 164.519 195.779 163.272 198.284 162.025C199.55 158.844 200.792 155.658 202.041 152.473C199.623 153.838 197.205 155.203 194.783 156.574ZM199.346 145.998C198.038 149.054 196.723 152.105 195.401 155.157C197.794 153.801 200.185 152.454 202.578 151.102C203.826 147.925 205.078 144.747 206.31 141.568C203.989 143.043 201.671 144.517 199.346 145.998ZM203.857 135.403C202.574 138.437 201.278 141.473 199.98 144.507C202.282 143.039 204.578 141.581 206.876 140.119C208.087 136.973 209.274 133.824 210.478 130.678C208.271 132.252 206.066 133.823 203.857 135.403ZM208.311 124.799C207.056 127.803 205.802 130.804 204.537 133.807C206.713 132.25 208.885 130.707 211.057 129.156C212.256 126.019 213.464 122.884 214.644 119.747C212.533 121.428 210.423 123.111 208.313 124.797L208.311 124.799ZM212.739 114.169C211.508 117.143 210.265 120.121 209.021 123.097C211.098 121.438 213.173 119.784 215.246 118.133C216.405 115.042 217.544 111.958 218.693 108.869C216.711 110.631 214.723 112.403 212.739 114.169ZM217.1 103.546C215.903 106.468 214.715 109.39 213.512 112.314C215.455 110.585 217.401 108.856 219.34 107.132C220.48 104.075 221.623 101.017 222.747 97.962L217.1 103.546ZM221.458 92.8792C220.29 95.7604 219.106 98.6455 217.924 101.531C219.759 99.7163 221.598 97.8942 223.431 96.0838C224.521 93.1018 225.605 90.1219 226.688 87.1399L221.456 92.8792H221.458ZM225.736 82.2546C224.613 85.0487 223.495 87.8428 222.365 90.6388L227.445 85.0661C228.509 82.1461 229.571 79.2281 230.623 76.314C228.995 78.2909 227.368 80.266 225.736 82.2546ZM230.026 71.5739C228.945 74.2847 227.848 77.0033 226.754 79.7219C228.319 77.8166 229.879 75.9189 231.443 74.0233C232.45 71.2137 233.456 68.408 234.458 65.6023C232.983 67.5889 231.505 69.5795 230.026 71.5758V71.5739ZM234.233 60.9706L231.185 68.652C232.592 66.7544 233.993 64.8704 235.393 62.9844C236.353 60.3026 237.308 57.6247 238.255 54.9468L234.233 60.9687V60.9706ZM238.451 50.317C237.513 52.6948 236.57 55.0745 235.626 57.4601L239.319 51.9416C240.191 49.4728 241.061 47.0059 241.929 44.541L238.451 50.3189V50.317ZM242.613 39.7195C241.795 41.803 240.976 43.8884 240.156 45.9738L243.216 40.891C243.977 38.7262 244.737 36.5634 245.492 34.4024L242.613 39.7176V39.7195ZM246.777 29.0872C246.149 30.6905 245.529 32.286 244.899 33.8931L247.064 29.8986L248.794 24.9377L247.55 27.4956L246.775 29.0853L246.777 29.0872ZM250.91 18.4937L250.152 20.4358L250.914 18.8693L251.588 16.9388L250.91 18.4937ZM926.402 1.00097H931.709C944.29 3.42137 956.991 6.16512 969.807 9.21869V10.2508C955.191 6.76539 940.715 3.66341 926.402 1.00097ZM969.809 112.951C700.05 99.9061 438.974 157.384 176.188 217.121C131.59 319.784 76.5499 418.289 1.00237 497.664V496.355C76.079 417.342 130.869 319.416 175.287 217.326L166.254 219.381C122.411 311.344 69.9116 399.774 1.00237 473.04V471.743C69.4466 398.852 121.675 310.992 165.314 219.594L156.333 221.634C113.587 303.44 63.7694 382.291 1.00237 449.297V448.023C63.3063 381.404 112.832 303.105 155.351 221.859L146.428 223.888C105.108 296.092 58.0844 365.849 1.00237 426.501V425.217C57.6175 364.972 104.329 295.77 145.393 224.123L136.457 226.156C96.8774 289.33 52.7754 350.508 1.00237 404.816V403.577C52.3142 349.681 96.0771 289.034 135.378 226.402L126.498 228.419C88.9332 283.192 47.8422 336.359 1.00237 384.436V383.191C47.3675 335.544 88.0961 282.911 125.349 228.681L116.546 230.679C81.235 277.695 43.2288 323.444 1.00048 365.501V364.277C42.7405 322.664 80.3534 277.439 115.318 230.96L106.604 232.933C73.7597 272.84 38.9002 311.766 1.00048 348.062V346.844C38.3887 311.005 72.8219 272.608 105.279 233.235L96.6197 235.195C66.4394 268.623 34.7828 301.302 1.00048 332.157V330.986C34.2577 300.588 65.4493 268.418 95.2071 235.512L86.6216 237.45C59.2605 265.031 30.8533 292.056 1.00048 317.85V316.69C30.2933 291.365 58.191 264.855 85.0754 237.799L76.6255 239.698C52.2115 262.053 27.0807 284.011 1.00048 305.161V304.013C26.4762 283.343 51.045 261.906 74.9242 240.08L66.6351 241.941C45.2691 259.666 23.4342 277.116 1.00048 294.059V292.93C22.7676 276.483 43.9709 259.559 64.7285 242.369C62.0333 242.973 59.3362 243.573 56.639 244.175C38.4061 257.838 19.8806 271.316 1.00048 284.495V283.384C19.1423 270.716 36.9548 257.772 54.496 244.653C51.8686 245.24 49.245 245.827 46.6176 246.41C31.5895 256.542 16.3948 266.563 1.00237 276.415V275.321C15.5616 265.999 29.9464 256.529 44.1782 246.954C41.6457 247.517 39.1133 248.075 36.5808 248.636C24.8118 255.745 12.9555 262.787 1.00237 269.748V268.681C12.0061 262.272 22.9284 255.793 33.7771 249.258C31.357 249.792 28.9369 250.333 26.5149 250.865C18.0495 255.417 9.5453 259.939 1.00237 264.425V263.374C8.42924 259.472 15.8251 255.543 23.1938 251.593C20.9539 252.087 18.7122 252.577 16.4703 253.069C11.326 255.516 6.16998 257.95 1.00237 260.376V259.338C4.80784 257.551 8.60557 255.76 12.3975 253.963L6.39088 255.278C4.59472 256.025 2.79854 256.773 1.00237 257.518V256.482L1.19225 256.403L1.00237 256.446V254.033C5.64102 252.585 10.2777 251.132 14.9086 249.674C21.1322 247.395 27.35 245.107 33.5581 242.808C39.5318 240.273 45.4938 237.729 51.4461 235.175C57.3636 232.292 63.2714 229.401 69.1637 226.5C74.7595 223.398 80.3418 220.287 85.9125 217.171C91.423 213.719 96.92 210.262 102.401 206.8C107.606 203.135 112.793 199.466 117.968 195.794C123.06 191.782 128.137 187.766 133.194 183.75C138.057 179.477 142.9 175.202 147.726 170.928C152.369 166.388 156.99 161.845 161.596 157.306C166.069 152.442 170.524 147.582 174.961 142.726C179.195 137.618 183.409 132.514 187.604 127.419C191.636 122.021 195.643 116.634 199.637 111.255C203.465 105.564 207.277 99.8828 211.069 94.2171C214.7 88.2242 218.311 82.2469 221.904 76.2888C225.281 70.0868 228.637 63.9061 231.979 57.7447C235.165 51.229 238.327 44.7365 241.476 38.2692C244.442 31.4863 247.389 24.7305 250.321 18.0038C252.535 12.3188 254.74 6.65115 256.934 1.00485H258.534L255.31 8.40157L253.578 13.4011C255.599 9.25162 257.61 5.12533 259.621 1.00485H260.46C257.482 7.10425 254.498 13.2269 251.501 19.3882C250.745 21.5646 249.978 23.7527 249.214 25.9369C253.758 17.5604 258.277 9.25356 262.785 1.00485H263.655C258.341 10.7271 253.008 20.5462 247.643 30.4446C246.781 32.9095 245.928 35.3648 245.062 37.8336C252.555 25.4082 259.995 13.1281 267.414 1.00485H268.327C260.183 14.3035 252.014 27.8054 243.781 41.468C242.838 44.1498 241.886 46.8394 240.935 49.527C251.946 33.078 262.863 16.8768 273.758 1.00485H274.719C263.156 17.8372 251.571 35.053 239.875 52.5321C238.879 55.3495 237.883 58.1649 236.878 60.9861C252.057 40.5386 267.089 20.4764 282.117 1.00485H283.138C267.463 21.2974 251.786 42.2503 235.942 63.6021C234.901 66.522 233.853 69.4439 232.805 72.3658C252.962 47.8792 272.896 23.9483 292.879 1.00291H293.995C273.369 24.6569 252.799 49.3624 231.985 74.6584C230.906 77.6558 229.825 80.6533 228.734 83.6546C254.839 55.061 280.631 27.2632 306.572 1.00485H307.773C281.177 27.8867 254.746 56.397 227.978 85.7284C226.868 88.7819 225.758 91.8374 224.638 94.8949C257.874 62.1014 290.674 30.3652 323.814 1.00485H325.146C291.326 30.9074 257.872 63.2884 223.956 96.7673C222.814 99.879 221.658 102.993 220.501 106.106C262.367 68.9482 303.646 33.1903 345.585 1.00485H347.06C304.4 33.6608 262.435 70.0365 219.854 107.845C218.687 110.982 217.525 114.119 216.352 117.257C268.749 75.5104 320.371 35.5875 373.175 1.00679H374.872C321.28 35.9863 268.92 76.4941 215.752 118.87C214.558 122.046 213.341 125.22 212.13 128.395C277.626 81.6834 342.105 37.334 408.61 1.00679H410.557C343.169 37.6516 277.889 82.5877 211.553 129.917C210.34 133.1 209.137 136.284 207.912 139.465C290.079 87.1961 370.91 37.9536 455.161 1.00679H457.587C372.274 38.1647 290.509 87.9958 207.362 140.904C206.12 144.116 204.853 147.324 203.591 150.535C308.151 91.4811 410.928 36.4026 519.585 1.00679H522.807C412.774 36.4278 308.835 92.1472 203.055 151.906C201.797 155.114 200.553 158.325 199.28 161.533C337.816 92.4725 473.805 28.9517 620.982 1.00679H626.309C476.892 28.4521 339.147 92.8482 198.751 162.852C197.465 166.08 196.157 169.302 194.853 172.526C440.371 65.275 679.498 -28.5511 969.809 27.9642V28.9943C679.295 -27.5848 440.046 66.4368 194.341 173.784C193.037 177.006 191.739 180.228 190.421 183.448C440.612 88.5728 685.652 4.04485 969.809 47.6507V48.6769C685.46 5.0227 440.284 89.7113 189.912 184.672C188.583 187.902 187.232 191.128 185.884 194.352C440.48 111.524 691.13 36.1993 969.809 68.286V69.2987C690.955 37.1791 440.162 112.637 185.393 195.533C184.043 198.757 182.694 201.981 181.324 205.199C440.05 134.101 695.981 67.8232 969.809 89.7346V90.7473C695.813 68.8127 439.728 135.195 180.828 206.347C179.455 209.571 178.063 212.787 176.668 216.004C439.286 156.309 700.207 98.9224 969.809 111.958V112.951Z" stroke="url(#paint0_linear_749_2927)" stroke-miterlimit="10"/>
<defs>
<linearGradient id="paint0_linear_749_2927" x1="0.905401" y1="393.906" x2="401" y2="38.001" gradientUnits="userSpaceOnUse">
<stop stop-color="white"/>
<stop offset="1" stop-color="white" stop-opacity="0"/>
</linearGradient>
</defs>
</svg>
