<svg width="38" height="39" viewBox="0 0 38 39" fill="none" xmlns="http://www.w3.org/2000/svg">
<g clip-path="url(#clip0_197_1919)">
<path d="M37.1881 8.15455C36.4733 4.92752 33.345 1.97139 30.1091 1.3435C28.1371 0.949398 22.6367 0.462523 19 0.500375C15.3633 0.460297 9.86367 0.945687 7.89168 1.34127C4.65574 1.97139 1.52742 4.92752 0.816406 8.15455C0.405977 10.1139 0.0059375 12.7799 0 16.4188C0.0059375 20.0555 0.405977 22.7222 0.816406 24.6823C1.53113 27.9094 4.65945 30.8655 7.89539 31.4934C8.95969 31.7056 11.0534 31.9461 13.326 32.1153C13.5833 32.5196 13.8628 32.9501 14.1647 33.4067C15.3707 35.234 16.2932 36.5069 16.9931 37.3938C18.1569 38.8692 19.8506 38.8692 21.0143 37.3938C21.7142 36.5069 22.6367 35.234 23.8428 33.4067C24.1446 32.9505 24.4242 32.5201 24.6814 32.1153C26.9548 31.9461 29.0477 31.7056 30.1128 31.4934C33.3487 30.8655 36.477 27.9094 37.1918 24.6823C37.5985 22.7222 37.9978 20.057 38.0045 16.4188C37.9941 12.7791 37.5948 10.1147 37.1881 8.15455Z" fill="#2EEECE"/>
<path d="M19 0.500375C15.3633 0.460297 9.86367 0.945687 7.89168 1.34127C4.65574 1.97139 1.52742 4.92752 0.816406 8.15455C0.405977 10.1139 0.0059375 12.7799 0 16.4188C0.0059375 20.0555 0.405977 22.7222 0.816406 24.6823C1.23723 26.5816 2.49449 28.3873 4.11766 29.6795C5.70097 30.0586 7.32346 30.2496 8.95152 30.2487C20.3538 30.2487 29.597 21.0055 29.597 9.60405C29.5996 6.63477 28.959 3.70017 27.7192 1.00209C25.1832 0.717094 21.6118 0.473656 19 0.500375Z" fill="#2EEECE"/>
<path d="M21.0985 27.4518C21.0493 27.683 20.9341 27.8949 20.767 28.062C20.5998 28.2292 20.3879 28.3443 20.1567 28.3936C19.3901 28.5114 18.6099 28.5114 17.8433 28.3936C17.6121 28.3444 17.4001 28.2293 17.2329 28.0622C17.0658 27.895 16.9506 27.683 16.9015 27.4518C16.7827 26.685 16.7827 25.9045 16.9015 25.1376C16.9506 24.9064 17.0658 24.6944 17.2329 24.5273C17.4001 24.3601 17.6121 24.245 17.8433 24.1958C18.6099 24.0781 19.3901 24.0781 20.1567 24.1958C20.3883 24.2453 20.6005 24.3609 20.7677 24.5286C20.9348 24.6963 21.0498 24.9089 21.0985 25.1406C21.2173 25.9074 21.2173 26.6879 21.0985 27.4548V27.4518ZM25.617 15.2955C25.044 16.106 24.1853 16.8459 22.9147 17.623C21.3063 18.6146 21.0488 19.022 21.0488 19.8199V20.1353C21.054 20.408 21.0048 20.6791 20.904 20.9325C20.8032 21.186 20.6529 21.4168 20.4618 21.6116C20.2708 21.8063 20.0429 21.9609 19.7914 22.0665C19.5398 22.1721 19.2698 22.2265 18.997 22.2265C18.7242 22.2265 18.4542 22.1721 18.2027 22.0665C17.9512 21.9609 17.7232 21.8063 17.5322 21.6116C17.3412 21.4168 17.1909 21.186 17.0901 20.9325C16.9893 20.6791 16.9401 20.408 16.9452 20.1353V19.4043C16.9452 18.4632 17.1805 17.6646 17.6644 16.9632C18.1335 16.2834 18.8371 15.6792 19.8791 15.0595C21.8006 13.9291 22.1524 13.2946 22.1524 12.4522C22.1524 11.3938 21.2507 10.7095 19.8517 10.7095C18.3235 10.7095 17.3282 11.4042 16.894 12.775C16.7534 13.216 16.4754 13.6005 16.1007 13.8724C15.7261 14.1442 15.2743 14.2892 14.8115 14.2861C14.758 14.2861 14.7038 14.2861 14.6511 14.2802C14.3186 14.2568 13.9958 14.1576 13.7074 13.9904C13.4191 13.8232 13.1727 13.5923 12.9872 13.3153C12.8018 13.0433 12.6811 12.7325 12.6343 12.4067C12.5874 12.0808 12.6157 11.7486 12.717 11.4354C13.1623 10.008 14.0756 8.77234 15.3095 7.92781C16.5534 7.08023 18.1246 6.63269 19.8517 6.63269C21.6455 6.63269 23.3102 7.20492 24.5393 8.24398C25.8047 9.31273 26.5009 10.7875 26.5009 12.3958C26.5046 13.5016 26.2144 14.4531 25.617 15.2955Z" fill="white"/>
</g>
<defs>
<clipPath id="clip0_197_1919">
<rect width="38" height="38" fill="white" transform="translate(0 0.5)"/>
</clipPath>
</defs>
</svg>
