<svg width="54" height="54" viewBox="0 0 54 54" fill="none" xmlns="http://www.w3.org/2000/svg">
<g clip-path="url(#clip0_7_722)">
<path d="M38.7 23.4C30.2501 23.4 23.4 30.2501 23.4 38.7C23.4 47.1499 30.2501 54 38.7 54C47.1499 54 54 47.1499 54 38.7C53.991 30.2535 47.1465 23.409 38.7 23.4Z" fill="#1E1F1F"/>
<path d="M38.7 52.2C31.2446 52.2 25.2 46.1554 25.2 38.7C25.2 31.2446 31.2446 25.2 38.7 25.2C46.1554 25.2 52.2 31.2446 52.2 38.7C52.191 46.152 46.152 52.191 38.7 52.2Z" fill="white"/>
<path d="M15.3 0C6.85013 0 0 6.85013 0 15.3C0 23.7499 6.85013 30.6 15.3 30.6C23.7465 30.591 30.591 23.7465 30.6 15.3C30.6 6.85013 23.7499 0 15.3 0Z" fill="#1E1F1F"/>
<path d="M15.3 28.8C7.84799 28.7921 1.80786 22.752 1.79999 15.3C1.79999 7.84461 7.84461 1.79999 15.3 1.79999C22.7554 1.79999 28.8 7.84461 28.8 15.3C28.8 22.7554 22.7554 28.8 15.3 28.8Z" fill="white"/>
<path d="M38.7 27C32.238 27 27 32.238 27 38.7C27 45.162 32.238 50.4 38.7 50.4C45.162 50.4 50.4 45.162 50.4 38.7C50.3921 32.2414 45.1586 27.0079 38.7 27ZM38.7 48.6C33.2325 48.6 28.8 44.1675 28.8 38.7C28.8 33.2325 33.2325 28.8 38.7 28.8C44.1675 28.8 48.6 33.2325 48.6 38.7C48.5932 44.1652 44.1652 48.5932 38.7 48.6Z" fill="#1E1F1F"/>
<path d="M44.1 35.1C44.1 33.6083 42.8917 32.4 41.4 32.4H40.5V30.6H38.7V32.4H37.8067L37.8214 30.6068L36.0214 30.5921L36.0067 32.3989H33.3V34.1989H35.1V43.1989H33.3V44.9989H36.0067L36.0214 46.8056L37.8214 46.791L37.8067 44.9978H38.7V46.7978H40.5V44.9978H41.4C42.8917 44.9978 44.1 43.7895 44.1 42.2978V40.4978C44.0977 39.8318 43.848 39.1894 43.398 38.6978C43.8469 38.2061 44.0977 37.5638 44.1 36.8978V35.0978V35.1Z" fill="#2EEECE"/>
<path d="M42.3 42.3C42.3 42.7973 41.8972 43.2 41.4 43.2H36.9V39.6H41.4C41.8972 39.6 42.3 40.0028 42.3 40.5V42.3Z" fill="white"/>
<path d="M42.3 36.9C42.3 37.3973 41.8972 37.8 41.4 37.8H36.9V34.2H41.4C41.8972 34.2 42.3 34.6028 42.3 35.1V36.9Z" fill="white"/>
<path d="M15.3 3.59998C8.83801 3.59998 3.60001 8.83798 3.60001 15.3C3.60001 21.762 8.83801 27 15.3 27C21.7586 26.9921 26.9921 21.7586 27 15.3C27 8.83798 21.762 3.59998 15.3 3.59998ZM15.3 25.2C9.83476 25.1932 5.40676 20.7652 5.40001 15.3C5.40001 9.83248 9.83251 5.39998 15.3 5.39998C20.7675 5.39998 25.2 9.83248 25.2 15.3C25.2 20.7675 20.7675 25.2 15.3 25.2Z" fill="#1E1F1F"/>
<path d="M15.3 14.4C13.8364 14.4 12.6 13.5754 12.6 12.6C12.6 11.6246 13.8364 10.8 15.3 10.8C16.7636 10.8 18 11.6246 18 12.6C18 13.0973 18.4027 13.5 18.9 13.5C19.3972 13.5 19.8 13.0973 19.8 12.6C19.8 10.8608 18.2509 9.40726 16.2 9.07314V7.20001H14.4V9.07314C12.3491 9.40839 10.8 10.8619 10.8 12.6C10.8 14.5856 12.8182 16.2 15.3 16.2C16.7636 16.2 18 17.0246 18 18C18 18.9754 16.7636 19.8 15.3 19.8C13.8364 19.8 12.6 18.9754 12.6 18C12.6 17.5028 12.1972 17.1 11.7 17.1C11.2027 17.1 10.8 17.5028 10.8 18C10.8 19.7393 12.3491 21.1928 14.4 21.5269V23.4H16.2V21.5269C18.2509 21.1916 19.8 19.7381 19.8 18C19.8 16.0144 17.7817 14.4 15.3 14.4Z" fill="#2EEECE"/>
<path d="M38.7 9.00001H34.5724L36.8539 6.71738L35.5815 5.44501L31.1276 9.90001L35.5815 14.355L36.8539 13.0826L34.5724 10.8H38.7C43.1719 10.8045 46.7955 14.4281 46.8 18.9V23.4H48.6V18.9C48.5932 13.4348 44.1652 9.00676 38.7 9.00001Z" fill="#2EEECE"/>
<path d="M17.5185 39.645L16.2461 40.9174L18.5276 43.2H15.3C10.8281 43.1955 7.20449 39.5719 7.19999 35.1V30.6H5.39999V35.1C5.40674 40.5653 9.83474 44.9933 15.3 45H18.5276L16.2461 47.2826L17.5185 48.555L21.9724 44.1L17.5185 39.645Z" fill="#2EEECE"/>
</g>
<defs>
<clipPath id="clip0_7_722">
<rect width="54" height="54" fill="white"/>
</clipPath>
</defs>
</svg>
