<svg width="56" height="56" viewBox="0 0 56 56" fill="none" xmlns="http://www.w3.org/2000/svg">
<path d="M16.3125 36.2625C7.65 35.0375 1 27.6875 1 18.675C1 8.875 8.9625 1 18.7625 1C27.775 1 35.125 7.65 36.35 16.225" stroke="#1E1F1F" stroke-width="1.5" stroke-miterlimit="10" stroke-linecap="round" stroke-linejoin="round"/>
<path d="M17.1875 31.1875C10.975 30.4 6.07501 25.15 6.07501 18.675C6.07501 11.675 11.7625 6.07501 18.675 6.07501C25.15 6.07501 30.4875 10.8875 31.1875 17.1" stroke="#2EEECE" stroke-width="1.5" stroke-miterlimit="10" stroke-linecap="round" stroke-linejoin="round"/>
<path d="M37.4875 55.075C47.2975 55.075 55.25 47.1616 55.25 37.4C55.25 27.6383 47.2975 19.725 37.4875 19.725C27.6775 19.725 19.725 27.6383 19.725 37.4C19.725 47.1616 27.6775 55.075 37.4875 55.075Z" stroke="#1E1F1F" stroke-width="1.5" stroke-miterlimit="10" stroke-linecap="round" stroke-linejoin="round"/>
<path d="M37.4875 50C44.4463 50 50.0875 44.3588 50.0875 37.4C50.0875 30.4412 44.4463 24.8 37.4875 24.8C30.5287 24.8 24.8875 30.4412 24.8875 37.4C24.8875 44.3588 30.5287 50 37.4875 50Z" stroke="#2EEECE" stroke-width="1.5" stroke-miterlimit="10" stroke-linecap="round" stroke-linejoin="round"/>
<path d="M41.1625 41.425C40.9 41.8625 40.4625 42.2125 39.9375 42.475C39.4125 42.7375 38.7125 42.9125 38.0125 42.9125V44.05C38.0125 44.225 37.925 44.3125 37.8375 44.4C37.75 44.4875 37.6625 44.575 37.4875 44.575C37.3125 44.575 37.225 44.575 37.1375 44.4875C37.05 44.4 36.9625 44.3125 36.9625 44.1375V43C35.825 42.9125 34.775 42.65 33.8125 42.3C33.725 42.2125 33.55 42.125 33.4625 42.0375C33.375 41.95 33.375 41.775 33.375 41.6875C33.375 41.5125 33.4625 41.3375 33.55 41.25C33.6375 41.1625 33.8125 41.075 33.9875 41.075C34.075 41.075 34.1625 41.075 34.25 41.1625C35.125 41.5125 36 41.775 36.875 41.775V38.1875C36.175 38.0125 35.5625 37.8375 35.125 37.575C34.6 37.4 34.25 37.05 33.9 36.6125C33.55 36.175 33.375 35.7375 33.375 35.125C33.375 34.6 33.55 34.075 33.8125 33.6375C34.075 33.2 34.5125 32.7625 35.0375 32.5C35.5625 32.2375 36.175 31.975 36.9625 31.975V30.6625C36.9625 30.4875 37.05 30.4 37.1375 30.3125C37.225 30.225 37.3125 30.1375 37.4875 30.1375C37.6625 30.1375 37.75 30.225 37.8375 30.3125C37.925 30.4 38.0125 30.4875 38.0125 30.6625V31.7125C39.0625 31.7125 39.9375 31.8875 40.725 32.2375C40.9875 32.325 41.1625 32.5875 41.1625 32.85C41.1625 33.025 41.075 33.2 40.9875 33.2875C40.9 33.4625 40.725 33.4625 40.55 33.4625C40.4625 33.4625 40.375 33.4625 40.2875 33.375C39.5875 33.1125 38.8 33.025 38.0125 32.9375V36.7875C38.8 36.9625 39.4125 37.1375 39.85 37.4C40.375 37.575 40.725 37.925 41.075 38.3625C41.425 38.8 41.6 39.325 41.6 40.025C41.6875 40.4625 41.5125 40.9875 41.1625 41.425ZM35.5625 35.9125C35.9125 36.175 36.4375 36.35 37.1375 36.525V33.1125C36.525 33.2 36 33.375 35.65 33.725C35.3 33.9875 35.125 34.425 35.125 34.8625C35.0375 35.3 35.2125 35.65 35.5625 35.9125ZM40.2 39.85C40.2 39.4125 40.025 39.15 39.675 38.8875C39.325 38.625 38.7125 38.45 38.0125 38.275V41.6C39.5 41.5125 40.2 40.9 40.2 39.85Z" fill="#2EEECE"/>
<path d="M22.7 22.875C22.7875 22.9625 22.875 23.1375 22.875 23.3125C22.875 23.575 22.7875 23.75 22.525 23.8375C22 24.1 21.475 24.275 20.8625 24.275C20.6 24.275 20.3375 24.275 20.075 24.1875C19.9 24.1 19.6375 24.0125 19.2875 23.925C19.025 23.8375 18.7625 23.75 18.5 23.6625C18.2375 23.575 17.975 23.575 17.7125 23.575C17.1 23.575 16.575 23.75 16.05 24.1C15.9625 24.1875 15.7875 24.1875 15.7 24.1875C15.525 24.1875 15.4375 24.1 15.2625 24.0125C15.175 23.925 15.0875 23.75 15.0875 23.6625C15.0875 23.4875 15.175 23.3125 15.2625 23.1375C15.7 22.7875 15.9625 22.35 16.3125 21.7375C16.575 21.2125 16.75 20.6 16.75 20.075C16.75 19.9 16.75 19.725 16.6625 19.4625H15.175C15 19.4625 14.9125 19.375 14.7375 19.2875C14.65 19.2 14.5625 19.025 14.5625 18.85C14.5625 18.675 14.65 18.5875 14.7375 18.4125C14.825 18.325 15 18.2375 15.175 18.2375H16.4C16.225 17.8 16.1375 17.3625 16.05 17.1C15.9625 16.8375 15.9625 16.4875 15.9625 16.1375C15.9625 15.175 16.3125 14.3875 17.0125 13.775C17.7125 13.1625 18.5875 12.9 19.725 12.9C20.5125 12.9 21.2125 13.075 22 13.3375C22.35 13.425 22.4375 13.6875 22.4375 13.95C22.4375 14.125 22.35 14.3 22.2625 14.3875C22.175 14.475 22 14.5625 21.825 14.5625C21.7375 14.5625 21.65 14.5625 21.5625 14.475C20.95 14.3 20.425 14.2125 19.9 14.2125C19.025 14.2125 18.4125 14.3875 18.0625 14.7375C17.7125 15.0875 17.5375 15.525 17.5375 15.9625C17.5375 16.225 17.5375 16.4875 17.625 16.75C17.7125 17.0125 17.8 17.3625 17.8875 17.8L17.975 18.15H20.6C20.775 18.15 20.8625 18.2375 21.0375 18.325C21.125 18.4125 21.2125 18.5875 21.2125 18.7625C21.2125 18.9375 21.125 19.025 21.0375 19.2C20.95 19.2875 20.775 19.375 20.6 19.375H18.2375V19.9C18.2375 20.6875 18.0625 21.475 17.625 22.0875H17.975C18.2375 22.0875 18.5 22.0875 18.675 22.175C18.85 22.2625 19.2 22.35 19.55 22.4375L20.3375 22.7C20.6 22.7875 20.775 22.7875 21.0375 22.7875C21.3875 22.7875 21.7375 22.7 22 22.6125C22.0875 22.6125 22.175 22.525 22.2625 22.525C22.35 22.7 22.525 22.7 22.7 22.875Z" fill="#2EEECE"/>
<path d="M37.4 1C45.7125 1 52.45 7.7375 52.45 16.05" stroke="#1E1F1F" stroke-width="1.5" stroke-miterlimit="10" stroke-linecap="round" stroke-linejoin="round"/>
<path d="M55.25 12.2875L52.3625 16.05L48.6875 13.1625" stroke="#1E1F1F" stroke-width="1.5" stroke-miterlimit="10" stroke-linecap="round" stroke-linejoin="round"/>
<path d="M18.85 55.075C10.5375 55.075 3.79999 48.3375 3.79999 40.025" stroke="#1E1F1F" stroke-width="1.5" stroke-miterlimit="10" stroke-linecap="round" stroke-linejoin="round"/>
<path d="M1 43.7875L3.8875 40.025L7.5625 42.9125" stroke="#1E1F1F" stroke-width="1.5" stroke-miterlimit="10" stroke-linecap="round" stroke-linejoin="round"/>
</svg>
