<svg width="55" height="54" viewBox="0 0 55 54" fill="none" xmlns="http://www.w3.org/2000/svg">
<g clip-path="url(#clip0_7_703)">
<path d="M51.6769 38.5508C51.3765 37.1979 50.1753 36.2378 48.7892 36.2406H41.2176C41.3779 35.744 41.4039 35.2141 41.2927 34.7044L38.6822 22.8359C38.3833 21.4816 37.1806 20.52 35.7945 20.5258H18.8957C17.5096 20.52 16.3069 21.4816 16.008 22.8359L13.4206 34.7217C13.3123 35.2256 13.3383 35.7497 13.4957 36.2406H5.90102C4.51493 36.2378 3.31364 37.1979 3.01332 38.5508L0.402841 50.4366C0.0548731 52.0162 1.05402 53.5784 2.63359 53.9264C2.84006 53.9711 3.05086 53.9942 3.26166 53.9942H25.4392C26.1438 53.9971 26.8267 53.743 27.3566 53.2781C27.8865 53.7444 28.568 54.0015 29.2741 54H51.4285C53.0456 54 54.3566 52.6875 54.3552 51.0704C54.3552 50.8596 54.3321 50.6488 54.2873 50.4424L51.6769 38.5508Z" fill="#1E1F1F"/>
<path d="M15.3958 35.1549L18.0063 23.2691C18.1001 22.8533 18.4697 22.5587 18.8957 22.5587H35.8176C36.2435 22.5587 36.6132 22.8533 36.707 23.2691L39.3175 35.1549C39.4157 35.6458 39.098 36.1237 38.6071 36.2233C38.5494 36.2349 38.4916 36.2406 38.4338 36.2406H16.2794C15.7784 36.2378 15.3756 35.8291 15.3784 35.3281C15.3784 35.2704 15.3842 35.2112 15.3958 35.1549Z" fill="white"/>
<path d="M27.3566 46.1628L25.6875 38.5508C25.6616 38.4569 25.6312 38.3645 25.5951 38.2736H29.0893C29.0604 38.366 29.0257 38.4584 29.0026 38.5508L27.3566 46.1628Z" fill="white"/>
<path d="M25.4392 51.9786H3.28475C2.78374 51.9786 2.37802 51.5714 2.37946 51.0704C2.37946 51.0055 2.38668 50.939 2.40112 50.8755L5.0116 38.9897C5.10545 38.5739 5.47507 38.2794 5.90101 38.2794H22.8229C23.2489 38.2794 23.6185 38.5739 23.7123 38.9897L26.3228 50.8755C26.4311 51.365 26.1236 51.8487 25.6341 51.957C25.5706 51.9714 25.5042 51.9786 25.4392 51.9786Z" fill="white"/>
<path d="M51.4285 51.9786H29.2741C28.773 51.9786 28.3673 51.5714 28.3688 51.0704C28.3688 51.0055 28.376 50.939 28.3904 50.8755L31.0009 38.9897C31.0948 38.5739 31.4644 38.2794 31.8903 38.2794H48.8122C49.2382 38.2794 49.6078 38.5739 49.7017 38.9897L52.3121 50.8755C52.4204 51.365 52.1129 51.8487 51.6234 51.957C51.5599 51.9714 51.4935 51.9786 51.4285 51.9786Z" fill="white"/>
<path d="M27.3566 9.54096C27.9183 9.55107 28.3803 9.10348 28.3904 8.54182C28.3904 8.5346 28.3904 8.52594 28.3904 8.51872V1.0107C28.3904 0.451925 27.9385 0 27.3797 0C26.821 0 26.369 0.451925 26.369 1.0107V8.51872C26.3633 9.07315 26.8036 9.52797 27.3566 9.54096Z" fill="#2EEECE"/>
<path d="M15.159 10.8289C15.3279 11.1855 15.6889 11.4108 16.083 11.4064C16.6418 11.4064 17.0937 10.9545 17.0937 10.3957C17.0937 10.2542 17.0649 10.1142 17.0071 9.98569L15.1417 5.81007C14.9496 5.28596 14.3692 5.01596 13.8451 5.20799C13.321 5.40002 13.051 5.98045 13.243 6.50457C13.2589 6.54788 13.2776 6.58975 13.2993 6.63163L15.159 10.8303V10.8289Z" fill="#2EEECE"/>
<path d="M6.467 18.4235C7.02577 18.4163 7.47192 17.9571 7.46326 17.3984C7.45893 17.1313 7.35064 16.8771 7.16005 16.6909L1.66187 11.5219C1.23449 11.1624 0.597753 11.2172 0.238234 11.6446C-0.0938514 12.0402 -0.0750814 12.6221 0.28155 12.9946L5.77396 18.1463C5.96166 18.3239 6.20855 18.4235 6.467 18.4235Z" fill="#2EEECE"/>
<path d="M38.2606 11.3429C38.3905 11.3992 38.5292 11.4281 38.6706 11.4295C39.0648 11.4339 39.4258 11.2086 39.5947 10.852L41.4602 6.67638C41.6869 6.16671 41.4558 5.56895 40.9462 5.34227C40.4365 5.11558 39.8387 5.3466 39.612 5.85628L37.7524 10.0088C37.5257 10.517 37.7524 11.1148 38.2606 11.3429Z" fill="#2EEECE"/>
<path d="M48.2867 18.4235C48.5451 18.4235 48.792 18.3239 48.9797 18.1463L54.2816 13.191C54.6902 12.8099 54.7118 12.1702 54.3306 11.7616C53.9495 11.353 53.3098 11.3313 52.9012 11.7125L47.5994 16.6736C47.2009 17.0634 47.1937 17.7045 47.585 18.103C47.7698 18.2922 48.0225 18.4004 48.2867 18.4062V18.4235Z" fill="#2EEECE"/>
</g>
<defs>
<clipPath id="clip0_7_703">
<rect width="54.6021" height="54" fill="white"/>
</clipPath>
</defs>
</svg>
