<svg width="45" height="54" viewBox="0 0 45 54" fill="none" xmlns="http://www.w3.org/2000/svg">
<g clip-path="url(#clip0_7_686)">
<path d="M43.8746 6.75C43.2523 6.75 42.7492 7.25309 42.7492 7.87535V9.0007H40.4996V7.87535C40.4996 7.25309 39.9965 6.75 39.3742 6.75C38.752 6.75 38.2489 7.25309 38.2489 7.87535V12.3757C38.2489 13.8407 39.1918 15.0778 40.4985 15.544V39.3757C40.4985 39.9969 39.9933 40.5011 39.3732 40.5011C38.753 40.5011 38.2478 39.9969 38.2478 39.3757V37.1261C38.2478 35.6611 37.305 34.4239 35.9982 33.9578V4.50035C35.9982 2.01867 33.9785 0 31.4979 0H8.99947C6.51887 0 4.49916 2.01867 4.49916 4.50035V45.0004C2.01855 45.0004 -0.00115967 47.019 -0.00115967 49.5007V52.8757C-0.00115967 53.498 0.501922 54.0011 1.12418 54.0011H39.3742C39.9965 54.0011 40.4996 53.498 40.4996 52.8757V49.5007C40.4996 47.019 38.4799 45.0004 35.9993 45.0004V39.3757C35.9993 41.2372 37.5127 42.7507 39.3742 42.7507C41.2357 42.7507 42.7492 41.2372 42.7492 39.3757V15.5429C44.056 15.0768 44.9988 13.8396 44.9988 12.3746V7.8743C44.9988 7.25203 44.4958 6.74895 43.8735 6.74895L43.8746 6.75Z" fill="#1E1F1F"/>
<path d="M6.74994 4.50038C6.74994 3.26007 7.75821 2.25073 8.99957 2.25073H31.499C32.7404 2.25073 33.7487 3.26007 33.7487 4.50038V45.0004H6.74994V4.50038Z" fill="white"/>
<path d="M38.2501 49.4996V51.7493H2.24963V49.4996C2.24963 48.2593 3.25791 47.25 4.49926 47.25H35.9994C37.2407 47.25 38.249 48.2593 38.249 49.4996H38.2501Z" fill="white"/>
<path d="M42.7493 12.3746C42.7493 12.9958 42.2441 13.5 41.624 13.5C41.0038 13.5 40.4986 12.9958 40.4986 12.3746V11.2493H42.7483V12.3746H42.7493Z" fill="white"/>
<path d="M25.8745 29.2497H22.4995V23.625C22.4995 23.1198 22.1609 22.6758 21.6758 22.5408C21.179 22.4068 20.6696 22.6136 20.4102 23.046L13.6602 34.2963C13.4514 34.6444 13.4472 35.0779 13.6444 35.4301C13.8448 35.7824 14.2202 36.0007 14.6242 36.0007H17.9992V41.6254C17.9992 42.1306 18.3377 42.5746 18.8229 42.7096C18.9241 42.737 19.0254 42.7507 19.1235 42.7507C19.5126 42.7507 19.8818 42.5493 20.0885 42.2044L26.8384 30.954C27.0473 30.606 27.0515 30.1725 26.8542 29.8202C26.6539 29.468 26.2784 29.2497 25.8745 29.2497Z" fill="#1E1F1F"/>
<path d="M20.2498 37.5638V34.8754C20.2498 34.2531 19.7468 33.75 19.1245 33.75H16.6112L20.2498 27.6866V30.375C20.2498 30.9973 20.7529 31.5004 21.3752 31.5004H23.8885L20.2498 37.5638Z" fill="#2EEECE"/>
<path d="M30.3748 4.50032H10.1249C9.50265 4.50032 8.99957 5.00341 8.99957 5.62567V19.1468C8.99957 19.769 9.50265 20.2721 10.1249 20.2721H30.3748C30.997 20.2721 31.5001 19.769 31.5001 19.1468V5.62462C31.5001 5.00235 30.997 4.49927 30.3748 4.49927V4.50032Z" fill="#1E1F1F"/>
<path d="M29.2505 6.75H11.2503V18.0214H29.2505V6.75Z" fill="#2EEECE"/>
</g>
<defs>
<clipPath id="clip0_7_686">
<rect width="45" height="54" fill="white"/>
</clipPath>
</defs>
</svg>
