<svg width="62" height="54" viewBox="0 0 62 54" fill="none" xmlns="http://www.w3.org/2000/svg">
<mask id="path-1-inside-1_267_734" fill="white">
<rect x="0.903473" y="23" width="10" height="16" rx="1"/>
</mask>
<rect x="0.903473" y="23" width="10" height="16" rx="1" fill="#2EEECE" stroke="#1E1F1F" stroke-width="3" mask="url(#path-1-inside-1_267_734)"/>
<mask id="path-2-inside-2_267_734" fill="white">
<rect x="12.9035" y="18" width="10" height="21" rx="1"/>
</mask>
<rect x="12.9035" y="18" width="10" height="21" rx="1" fill="#2EEECE" fill-opacity="0.4" stroke="#1E1F1F" stroke-width="3" mask="url(#path-2-inside-2_267_734)"/>
<mask id="path-3-inside-3_267_734" fill="white">
<rect x="24.9035" y="13" width="10" height="26" rx="1"/>
</mask>
<rect x="24.9035" y="13" width="10" height="26" rx="1" fill="#2EEECE" fill-opacity="0.5" stroke="#1E1F1F" stroke-width="3" mask="url(#path-3-inside-3_267_734)"/>
<mask id="path-4-inside-4_267_734" fill="white">
<rect x="36.9035" y="8" width="10" height="31" rx="1"/>
</mask>
<rect x="36.9035" y="8" width="10" height="31" rx="1" fill="#2EEECE" fill-opacity="0.8" stroke="#1E1F1F" stroke-width="3" mask="url(#path-4-inside-4_267_734)"/>
<mask id="path-5-inside-5_267_734" fill="white">
<rect x="48.9035" y="3" width="10" height="30" rx="1"/>
</mask>
<rect x="48.9035" y="3" width="10" height="30" rx="1" fill="#2EEECE" stroke="#1E1F1F" stroke-width="3" mask="url(#path-5-inside-5_267_734)"/>
<g clip-path="url(#clip0_267_734)">
<path d="M12.8491 35.1061C12.6714 36.2512 12.6483 37.416 12.7767 38.5709L8.43324 42.8683C8.31478 42.9835 8.25884 43.148 8.27858 43.3125L9.47303 53.5163C9.50593 53.7894 9.73626 53.9934 10.0094 53.9901H14.0731C14.3693 53.9901 14.6095 53.7499 14.6127 53.4538C14.6127 53.4406 14.6127 53.4274 14.6127 53.4143L14.1093 46.297C17.0477 45.5599 18.9957 44.4181 20.2855 43.2566L20.3612 43.9147C20.5093 45.3164 20.993 46.6622 21.7695 47.8402L23.1647 49.956L23.5069 52.3449C23.5431 52.6114 23.7734 52.8088 24.0433 52.8055H28.3998C28.5578 52.8055 28.7059 52.7364 28.8079 52.618C28.9099 52.4995 28.9526 52.3416 28.9296 52.1869L28.5808 49.854C28.5742 49.7948 28.5545 49.7388 28.5249 49.6862L26.4025 45.6882L26.5111 45.244C27.0902 42.944 29.4232 41.5455 31.7265 42.1247C33.0361 42.4537 34.1187 43.3816 34.6419 44.6287L38.4161 53.6676C38.4983 53.8684 38.6957 54 38.9129 53.9967H46.6159C46.9121 54 47.1556 53.7631 47.1621 53.4669C47.1621 53.434 47.1621 53.4011 47.1556 53.3682L45.8789 45.833C48.4356 42.3978 50.4592 38.594 51.8774 34.5533L53.4239 35.3759C55.4179 36.4321 57.8924 35.672 58.9486 33.678C59.5771 32.4934 59.5837 31.0785 58.9684 29.8907L56.5795 25.2643L61.2585 23.5631C61.5382 23.4611 61.683 23.1551 61.581 22.8754C61.5448 22.7767 61.4823 22.6911 61.4 22.6286C53.3153 16.5675 40.5022 17.0052 32.8321 23.6059C26.6822 28.9002 19.6472 30.8284 16.2646 31.7597C15.6756 31.9209 15.2116 32.0492 14.8562 32.1644C13.9744 32.4507 13.4446 33.1844 13.1287 34.0663C11.3552 33.6517 10.1377 32.8126 9.50922 31.5655C8.07786 28.7423 9.98963 24.7147 10.0094 24.6654C10.1509 24.4054 10.0587 24.0797 9.79878 23.9349C9.53884 23.7934 9.21308 23.8855 9.0683 24.1455C9.05843 24.1619 9.05185 24.1817 9.04197 24.1981C8.94984 24.3791 6.89329 28.762 8.53853 32.0459C9.31508 33.576 10.7662 34.6125 12.8491 35.1061Z" fill="#1E1F1F"/>
<path d="M27.5213 50.1074L27.7714 51.7197H24.5006L24.2111 49.6895C24.1979 49.6106 24.1683 49.5349 24.1255 49.4691L22.6711 47.271C21.99 46.2378 21.5655 45.0532 21.4339 43.8193L21.2628 42.2728L21.3944 42.105C22.9245 42.7236 24.527 43.1481 26.1623 43.3685C25.8431 43.8654 25.6062 44.4083 25.4615 44.9809L25.3002 45.6225C25.2673 45.7508 25.2871 45.8857 25.3496 46.0042L27.5246 50.1074H27.5213Z" fill="white"/>
<path d="M44.872 45.3724C44.7831 45.4909 44.7469 45.6422 44.7733 45.787L45.9776 52.924H43.4143L41.8414 45.9088L43.8124 43.0131C45.1944 42.4867 46.5172 41.8055 47.7478 40.9829C46.8857 42.5064 45.9249 43.9707 44.872 45.3691V45.3724Z" fill="white"/>
<path d="M13.721 39.15C13.8428 39.0316 13.8987 38.8637 13.8757 38.6959C13.7079 37.4324 13.5828 33.7076 15.182 33.1844C15.5143 33.0758 15.9684 32.9541 16.5443 32.7961C19.9993 31.8452 27.1955 29.8709 33.5264 24.4219C40.5779 18.3542 52.1966 17.7521 59.9226 22.9049L55.6253 24.4679C55.3456 24.5699 55.2041 24.8792 55.3061 25.1556C55.3127 25.1754 55.3225 25.1951 55.3324 25.2149L58.001 30.3875C58.7512 31.8715 58.1589 33.6845 56.6749 34.4381C55.8062 34.879 54.7763 34.8691 53.9109 34.4183L49.3701 31.9998C49.1167 31.8485 48.7844 31.9307 48.633 32.1841C48.4816 32.4374 48.5639 32.7698 48.8173 32.9212C48.8337 32.931 48.8502 32.9376 48.8666 32.9475L50.8968 34.0202C50.3671 35.5634 49.7386 37.0737 49.018 38.538C48.9818 38.561 48.9522 38.5874 48.9226 38.617C48.9028 38.6367 47.1062 40.5945 43.2629 42.0456C43.1609 42.0851 43.0688 42.1542 43.0063 42.2431L40.8115 45.4644C40.7293 45.5862 40.6996 45.7376 40.7326 45.8823L42.3021 52.8878H39.2584L35.6192 44.1779C34.4741 41.4435 31.3251 40.1536 28.5907 41.2987C27.9918 41.5488 27.4456 41.9074 26.9718 42.3517C25.2706 42.1674 23.599 41.7659 21.9999 41.1539C22.4211 40.4761 22.7073 39.7259 22.8389 38.9394C22.8719 38.6433 22.6547 38.3768 22.3585 38.3439C22.0624 38.3109 21.7959 38.5281 21.763 38.8243C21.7399 39.0184 21.1279 43.5856 13.4019 45.3493C13.1419 45.4118 12.9675 45.6553 12.9906 45.9218L13.4874 52.9174H10.4766L9.36774 43.4375L13.721 39.1401V39.15Z" fill="white"/>
</g>
<defs>
<clipPath id="clip0_267_734">
<rect width="53.7104" height="54" fill="white" transform="translate(7.90347)"/>
</clipPath>
</defs>
</svg>
