<svg width="22" height="27" viewBox="0 0 22 27" fill="none" xmlns="http://www.w3.org/2000/svg">
<g id="Icon">
<g id="Group">
<g id="Group_2">
<g id="Group_3">
<path id="Vector" d="M21.6653 6.79421V24.706C21.6653 25.4472 21.0476 26.0648 20.3065 26.0648H3.71234C2.97116 26.0648 2.35352 25.4472 2.35352 24.706V1.64715C2.35352 0.905977 2.97116 0.28833 3.71234 0.28833H15.2006L21.6653 6.79421Z" fill="white"/>
</g>
<g id="Group_4" opacity="0.5">
<path id="Vector_2" d="M19.6074 4.73535V26.0648H20.3486C21.0898 26.0648 21.7074 25.4471 21.7074 24.7059V6.79418L19.6074 4.73535Z" fill="#EAEAEA"/>
</g>
<g id="Group_5" opacity="0.5">
<path id="Vector_3" d="M4.74175 0.32959H3.71234C2.97116 0.32959 2.35352 0.947237 2.35352 1.68841V24.7472C2.35352 25.4884 2.97116 26.1061 3.71234 26.1061H4.74175C4.74175 26.0649 4.74175 0.32959 4.74175 0.32959Z" fill="#EAEAEA"/>
</g>
<g id="Group_6" opacity="0.5">
<path id="Vector_4" d="M6.42969 0.32959H7.70616V26.0649H6.42969V0.32959Z" fill="#EAEAEA"/>
</g>
<g id="Group_7">
<path id="Vector_5" d="M21.666 6.7943H16.519C15.7778 6.7943 15.1602 6.17665 15.1602 5.43547V0.32959L21.666 6.7943Z" fill="#FF3333"/>
</g>
</g>
<g id="Group_8">
<path id="Vector_6" d="M12.5242 17.4178V21.5354C12.5242 22.0707 12.1124 22.4825 11.5771 22.4825H1.65361C1.20067 22.4825 0.830078 22.1119 0.830078 21.6589V17.2942C0.830078 16.8413 1.20067 16.4707 1.65361 16.4707H11.6183C12.1124 16.4707 12.5242 16.9236 12.5242 17.4178Z" fill="#FF3333"/>
</g>
<g id="Group_9">
<path id="Vector_7" d="M3.54789 16.4707V22.4825H1.61259C1.15965 22.4825 0.789062 22.1119 0.789062 21.6589V17.2942C0.789062 16.8413 1.15965 16.4707 1.61259 16.4707H3.54789Z" fill="#EF0A0A"/>
</g>
<g id="Group_10">
<path id="Vector_8" d="M5.48242 16.4707H6.96477V22.4825H5.48242V16.4707Z" fill="#EF0A0A"/>
</g>
<g id="Group_11">
<path id="Vector_9" d="M8.40519 9.9646C8.85813 9.9646 9.22872 10.0881 9.51696 10.294C9.76402 10.4999 9.88755 10.8293 9.88755 11.2822C9.88755 11.694 9.76402 12.0234 9.51696 12.2705C9.2699 12.4764 8.89931 12.5999 8.40519 12.5999H7.45813V13.8764C7.45813 13.9175 7.45813 13.9587 7.41696 13.9999C7.37578 14.0411 7.3346 14.0411 7.29343 14.0411H6.84049C6.79931 14.0411 6.75813 14.0411 6.71696 13.9999C6.67578 13.9587 6.67578 13.9175 6.67578 13.8764V10.1293C6.67578 10.0881 6.67578 10.047 6.71696 10.0058C6.75813 9.9646 6.79931 9.9646 6.84049 9.9646H8.40519ZM7.45813 11.8587H8.36402C8.5699 11.8587 8.77578 11.8175 8.89931 11.7352C9.02284 11.6528 9.10519 11.4881 9.10519 11.2822C9.10519 11.0764 9.02284 10.9117 8.89931 10.8293C8.7346 10.747 8.5699 10.7058 8.36402 10.7058H7.45813V11.8587Z" fill="#FF3333"/>
<path id="Vector_10" d="M12.1119 9.9646C12.4001 9.9646 12.6472 10.0058 12.8531 10.0881C13.059 10.1705 13.2237 10.2528 13.3884 10.4175C13.5119 10.5411 13.6354 10.7058 13.7178 10.9117C13.8001 11.1175 13.8413 11.3234 13.8413 11.5705V12.4352C13.8413 12.6822 13.8001 12.8881 13.7178 13.094C13.6354 13.2999 13.5531 13.4646 13.3884 13.5881C13.2648 13.7117 13.059 13.8352 12.8531 13.9175C12.6472 13.9999 12.4001 14.0411 12.1119 14.0411H10.6296C10.5884 14.0411 10.5472 14.0411 10.506 13.9999C10.4648 13.9587 10.4648 13.9175 10.4648 13.8764V10.1293C10.4648 10.0881 10.4648 10.047 10.506 10.0058C10.5472 9.9646 10.5884 9.9646 10.6296 9.9646H12.1119ZM13.059 11.5705C13.059 11.447 13.0178 11.3234 12.9766 11.2411C12.9354 11.1175 12.8943 11.0352 12.8119 10.9528C12.7295 10.8705 12.6472 10.8293 12.5237 10.747C12.359 10.7058 12.2354 10.7058 12.0707 10.7058H11.2884V13.2999H12.1119C12.2766 13.2999 12.4001 13.2587 12.5237 13.2175C12.6472 13.1764 12.7295 13.094 12.8119 13.0528C12.8943 12.9705 12.9354 12.8881 12.9766 12.7646C13.0178 12.6411 13.059 12.5587 13.059 12.4352C13.059 12.147 13.059 11.8587 13.059 11.5705Z" fill="#FF3333"/>
<path id="Vector_11" d="M17.2173 9.9646C17.2585 9.9646 17.2997 9.9646 17.3409 10.0058C17.382 10.047 17.382 10.0881 17.382 10.1293V10.5411C17.382 10.5822 17.382 10.6234 17.3409 10.6646C17.2997 10.7058 17.2585 10.7058 17.2173 10.7058H15.3644V11.8175H17.0938C17.135 11.8175 17.1761 11.8175 17.2173 11.8587C17.2585 11.8999 17.2585 11.9411 17.2585 11.9822V12.394C17.2585 12.4352 17.2585 12.4764 17.2173 12.5175C17.1761 12.5587 17.135 12.5587 17.0938 12.5587H15.3644V13.8764C15.3644 13.9175 15.3644 13.9587 15.3232 13.9999C15.282 14.0411 15.2409 14.0411 15.1997 14.0411H14.7467C14.7056 14.0411 14.6644 14.0411 14.6232 13.9999C14.582 13.9587 14.582 13.9175 14.582 13.8764V10.1293C14.582 10.0881 14.582 10.047 14.6232 10.0058C14.6644 9.9646 14.7056 9.9646 14.7467 9.9646H17.2173Z" fill="#FF3333"/>
</g>
<g id="Group_12">
<path id="Vector_12" d="M8.38883 9.97095C8.8572 9.97095 9.22088 10.0814 9.48056 10.302C9.73955 10.5226 9.86939 10.8458 9.86939 11.2714C9.86939 11.6973 9.73955 12.0225 9.48056 12.2469C9.22088 12.4715 8.8572 12.5837 8.38883 12.5837H7.45957V13.8783C7.45957 13.9208 7.44462 13.9575 7.41334 13.9885C7.38207 14.0197 7.34536 14.035 7.30322 14.035H6.83281C6.78998 14.035 6.75327 14.0197 6.72269 13.9885C6.69142 13.9575 6.67578 13.9208 6.67578 13.8783V10.1276C6.67578 10.0852 6.69142 10.0484 6.72269 10.0175C6.75328 9.98659 6.78998 9.97096 6.83281 9.97096L8.38883 9.97095ZM7.45957 11.858H8.3596C8.58053 11.858 8.75659 11.8142 8.88779 11.7272C9.01967 11.6402 9.08561 11.4882 9.08561 11.2714C9.08561 11.0549 9.01967 10.905 8.88779 10.8214C8.75659 10.7384 8.58053 10.6966 8.3596 10.6966H7.45957V11.858Z" fill="#FF3333"/>
<path id="Vector_13" d="M12.0933 9.97095C12.3795 9.97095 12.6283 10.0087 12.839 10.0841C13.0498 10.1596 13.2258 10.267 13.3672 10.4064C13.5086 10.5457 13.6167 10.7139 13.6929 10.9114C13.7683 11.1089 13.8132 11.3295 13.8288 11.5735C13.8444 11.8597 13.8444 12.1463 13.8288 12.4328C13.8132 12.6765 13.7683 12.8971 13.6929 13.0945C13.6167 13.292 13.5093 13.4603 13.3706 13.5996C13.2313 13.739 13.0579 13.8464 12.8506 13.9218C12.6433 13.9973 12.4006 14.035 12.1219 14.035H10.659C10.6162 14.035 10.5794 14.0197 10.5489 13.9885C10.5176 13.9575 10.502 13.9208 10.502 13.8783V10.1277C10.502 10.0852 10.5176 10.0485 10.5489 10.0175C10.5795 9.9866 10.6162 9.97097 10.659 9.97097L12.0933 9.97095ZM13.045 11.5735C13.0375 11.4495 13.0131 11.3346 12.9723 11.2279C12.9322 11.1215 12.8717 11.0287 12.7928 10.9491C12.7133 10.87 12.6134 10.8081 12.4937 10.7636C12.3734 10.719 12.2306 10.6966 12.0641 10.6966H11.2858V13.3094H12.0933C12.2517 13.3094 12.389 13.2869 12.5053 13.2424C12.6215 13.1982 12.7181 13.137 12.7955 13.0595C12.873 12.9824 12.9322 12.8892 12.9723 12.7808C13.0131 12.6727 13.0376 12.5565 13.045 12.4328C13.0607 12.1462 13.0607 11.8597 13.045 11.5735Z" fill="#FF3333"/>
<path id="Vector_14" d="M17.2254 9.97095C17.2682 9.97095 17.3049 9.98658 17.3362 10.0175C17.3668 10.0484 17.3824 10.0852 17.3824 10.1276V10.5399C17.3824 10.5824 17.3668 10.6195 17.3362 10.6504C17.3049 10.6813 17.2682 10.6966 17.2254 10.6966H15.3736V11.823H17.1098C17.1519 11.823 17.1887 11.8386 17.2199 11.8696C17.2505 11.9005 17.2661 11.9372 17.2661 11.9797V12.392C17.2661 12.4345 17.2505 12.4715 17.2199 12.5025C17.1887 12.5334 17.1519 12.5487 17.1098 12.5487H15.3736V13.8783C15.3736 13.9208 15.358 13.9575 15.3274 13.9885C15.2961 14.0197 15.2594 14.035 15.2166 14.035H14.7469C14.7041 14.035 14.6673 14.0197 14.6361 13.9885C14.6055 13.9575 14.5898 13.9208 14.5898 13.8783V10.1276C14.5898 10.0851 14.6055 10.0484 14.6361 10.0175C14.6673 9.98659 14.7041 9.97096 14.7469 9.97096L17.2254 9.97095Z" fill="#FF3333"/>
</g>
<g id="Group_13">
<g id="Group_14">
<path id="Vector_15" d="M21.9118 6.58824C21.8706 6.54706 15.4882 0.164706 15.4059 0.082353C15.3235 0.0411765 15.2412 0 15.2 0H3.71176C2.80588 0 2.06471 0.741176 2.06471 1.64706V16.1824H1.65294C1.03529 16.1824 0.5 16.6765 0.5 17.3353V21.7C0.5 22.3176 0.994118 22.8529 1.65294 22.8529H2.06471V24.7059C2.06471 25.6118 2.80588 26.3529 3.71176 26.3529H20.3471C21.2529 26.3529 21.9941 25.6118 21.9941 24.7059V6.79412C21.9941 6.75294 21.9529 6.67059 21.9118 6.58824ZM15.4882 1.07059L20.9235 6.50588H16.5176C15.9412 6.50588 15.4882 6.05294 15.4882 5.47647V1.07059ZM1.11765 21.7V17.2941C1.11765 17.0059 1.36471 16.7588 1.65294 16.7588H11.6176C11.9882 16.7588 12.2765 17.0471 12.2765 17.4176V21.5353C12.2765 21.9059 11.9882 22.1941 11.6176 22.1941C8.24118 22.1941 6.47059 22.1941 1.65294 22.1941C1.36471 22.1941 1.11765 21.9882 1.11765 21.7ZM21.3765 24.7059C21.3765 25.2824 20.9235 25.7353 20.3471 25.7353H3.71176C3.13529 25.7353 2.68235 25.2824 2.68235 24.7059V22.8118H11.5765C12.2765 22.8118 12.8529 22.2353 12.8529 21.5353V17.4176C12.8529 16.7176 12.2765 16.1412 11.5765 16.1412H2.68235V1.64706C2.68235 1.07059 3.13529 0.617647 3.71176 0.617647H14.8706V5.47647C14.8706 6.38235 15.6118 7.12353 16.5176 7.12353H21.3765V24.7059Z" fill="black"/>
</g>
</g>
<g id="Group_15">
<path id="Vector_16" d="M4.52309 18.2744C4.80015 18.2744 5.01528 18.3398 5.16888 18.4702C5.32209 18.6007 5.39889 18.7919 5.39889 19.0437C5.39889 19.2956 5.32209 19.488 5.16888 19.6207C5.01528 19.7536 4.80015 19.8199 4.52309 19.8199H3.9734V20.5858C3.9734 20.6109 3.96456 20.6326 3.94606 20.6509C3.92756 20.6694 3.90584 20.6785 3.88091 20.6785H3.60265C3.57732 20.6785 3.5556 20.6694 3.53751 20.6509C3.51901 20.6326 3.50977 20.6109 3.50977 20.5858V18.3671C3.50977 18.342 3.51901 18.3203 3.53751 18.302C3.55561 18.2837 3.57732 18.2744 3.60265 18.2744L4.52309 18.2744ZM3.9734 19.3907H4.5058C4.63649 19.3907 4.74063 19.3647 4.81824 19.3133C4.89625 19.2618 4.93526 19.1719 4.93526 19.0437C4.93526 18.9156 4.89625 18.8269 4.81824 18.7775C4.74063 18.7284 4.63649 18.7037 4.5058 18.7037H3.9734V19.3907Z" fill="white"/>
<path id="Vector_17" d="M6.71478 18.2744C6.88407 18.2744 7.03125 18.2967 7.1559 18.3414C7.28056 18.386 7.38471 18.4495 7.46835 18.532C7.55199 18.6144 7.61592 18.7139 7.66096 18.8307C7.70559 18.9476 7.73213 19.078 7.74138 19.2224C7.75063 19.3917 7.75063 19.5612 7.74138 19.7307C7.73213 19.8748 7.70559 20.0053 7.66096 20.1221C7.61592 20.2389 7.55239 20.3385 7.47036 20.4209C7.38792 20.5033 7.28538 20.5669 7.16274 20.6115C7.0401 20.6561 6.89654 20.6785 6.73167 20.6785H5.86632C5.84099 20.6785 5.81927 20.6694 5.80118 20.6509C5.78269 20.6326 5.77344 20.6109 5.77344 20.5858V18.3671C5.77344 18.342 5.78269 18.3203 5.80118 18.302C5.81928 18.2837 5.84099 18.2744 5.86632 18.2744L6.71478 18.2744ZM7.27775 19.2224C7.27332 19.149 7.25885 19.0811 7.23472 19.0179C7.21099 18.955 7.17521 18.9001 7.12856 18.8531C7.08152 18.8062 7.02241 18.7696 6.95163 18.7433C6.88046 18.7169 6.79601 18.7037 6.6975 18.7037H6.23708V20.2492H6.71479C6.80848 20.2492 6.88971 20.2359 6.95847 20.2096C7.02723 20.1835 7.08433 20.1473 7.13017 20.1014C7.17602 20.0558 7.211 20.0007 7.23472 19.9366C7.25885 19.8726 7.27333 19.8039 7.27775 19.7307C7.28699 19.5612 7.28699 19.3917 7.27775 19.2224Z" fill="white"/>
<path id="Vector_18" d="M9.7504 18.2744C9.77573 18.2744 9.79745 18.2837 9.81595 18.302C9.83404 18.3203 9.84329 18.342 9.84329 18.3671V18.611C9.84329 18.6361 9.83404 18.658 9.81595 18.6763C9.79745 18.6946 9.77573 18.7037 9.7504 18.7037H8.65504V19.37H9.68204C9.70697 19.37 9.72868 19.3792 9.74718 19.3975C9.76528 19.4158 9.77453 19.4375 9.77453 19.4627V19.7065C9.77453 19.7317 9.76528 19.7536 9.74718 19.7719C9.72868 19.7902 9.70697 19.7992 9.68204 19.7992H8.65504V20.5858C8.65504 20.6109 8.64579 20.6326 8.6277 20.6509C8.6092 20.6694 8.58748 20.6784 8.56215 20.6784H8.2843C8.25896 20.6784 8.23725 20.6694 8.21875 20.6509C8.20065 20.6326 8.19141 20.6109 8.19141 20.5858V18.3671C8.19141 18.342 8.20065 18.3203 8.21875 18.302C8.23725 18.2837 8.25896 18.2744 8.2843 18.2744L9.7504 18.2744Z" fill="white"/>
</g>
</g>
</g>
</svg>
