<svg width="37" height="52" viewBox="0 0 37 52" fill="none" xmlns="http://www.w3.org/2000/svg">
<g clip-path="url(#clip0_765_3305)">
<path d="M1.78516 40.0715H28.4994M1.78516 10.2144H28.4994" stroke="white" stroke-width="2" stroke-linecap="round" stroke-linejoin="round"/>
<path d="M25.3566 3.92822H4.92802C3.19226 3.92822 1.78516 5.33532 1.78516 7.07107V47.9282C1.78516 49.664 3.19226 51.0711 4.92802 51.0711H25.3566C27.0924 51.0711 28.4994 49.664 28.4994 47.9282V7.07107C28.4994 5.33532 27.0924 3.92822 25.3566 3.92822Z" stroke="white" stroke-width="2" stroke-linecap="round" stroke-linejoin="round"/>
<path d="M15.1437 47.1431C16.0115 47.1431 16.7151 46.4395 16.7151 45.5717C16.7151 44.7037 16.0115 44.0002 15.1437 44.0002C14.2758 44.0002 13.5723 44.7037 13.5723 45.5717C13.5723 46.4395 14.2758 47.1431 15.1437 47.1431Z" stroke="white" stroke-width="2" stroke-linecap="round" stroke-linejoin="round"/>
<path d="M27.3214 15.5713C31.3649 15.5713 34.6429 12.2934 34.6429 8.24989C34.6429 4.20638 31.3649 0.928467 27.3214 0.928467C23.2779 0.928467 20 4.20638 20 8.24989C20 12.2934 23.2779 15.5713 27.3214 15.5713Z" fill="#11131B" stroke="white" stroke-width="2"/>
</g>
<defs>
<clipPath id="clip0_765_3305">
<rect width="35.2857" height="52" fill="white" transform="translate(0.857422)"/>
</clipPath>
</defs>
</svg>
