<svg width="68" height="52" viewBox="0 0 68 52" fill="none" xmlns="http://www.w3.org/2000/svg">
<g clip-path="url(#clip0_765_3287)">
<path d="M50.5245 16.032L56.0639 10.4927M1.64453 33.0338H10.1454M33.5228 1.15552V9.65638M56.9002 33.0338H65.401" stroke="white" stroke-width="2" stroke-miterlimit="10" stroke-linecap="round" stroke-linejoin="round"/>
<path d="M15.6515 16.6116C15.5302 16.4428 15.4625 16.2414 15.457 16.0336C15.4569 15.8481 15.5053 15.6659 15.5974 15.5049C15.6896 15.344 15.8222 15.2099 15.9822 15.1162C16.1422 15.0224 16.3239 14.9721 16.5093 14.9703C16.6947 14.9685 16.8773 15.0152 17.0391 15.1059L36.9586 27.6666C37.7524 28.1746 38.4237 28.8522 38.9241 29.6508C39.4245 30.4494 39.7417 31.349 39.8527 32.2849C39.9637 33.2208 39.8658 34.1696 39.5662 35.0631C39.2665 35.9566 38.7723 36.7725 38.1196 37.4522C37.4667 38.1318 36.6712 38.6581 35.7904 38.9933C34.9098 39.3286 33.9656 39.4643 33.0261 39.3908C32.0866 39.3174 31.1751 39.0364 30.3572 38.5683C29.5393 38.1002 28.8355 37.4564 28.2962 36.6836L15.6515 16.6116Z" stroke="white" stroke-width="2" stroke-miterlimit="10" stroke-linecap="round" stroke-linejoin="round"/>
<path d="M60.4834 50.0355C63.5259 45.2141 65.2194 39.6649 65.3873 33.9665C65.5551 28.268 64.1912 22.6289 61.4377 17.6366C58.6843 12.6445 54.6419 8.48216 49.7322 5.58338C44.8223 2.6846 39.2247 1.15552 33.5229 1.15552C27.8209 1.15552 22.2232 2.6846 17.3135 5.58338C12.4037 8.48216 8.36136 12.6445 5.60787 17.6366C2.85438 22.6289 1.49049 28.268 1.65835 33.9665C1.82622 39.6649 3.5197 45.2141 6.56229 50.0355H60.4834Z" stroke="white" stroke-width="2" stroke-miterlimit="10" stroke-linecap="round" stroke-linejoin="round"/>
</g>
<defs>
<clipPath id="clip0_765_3287">
<rect width="67.0222" height="52" fill="white" transform="translate(0.488281)"/>
</clipPath>
</defs>
</svg>
