<svg width="46" height="52" viewBox="0 0 46 52" fill="none" xmlns="http://www.w3.org/2000/svg">
<g clip-path="url(#clip0_765_3280)">
<path d="M1.25391 0.945557H44.6818V19.3724C44.5377 26.194 42.406 32.8253 38.5479 38.4531C34.69 44.0808 29.2736 48.4604 22.9629 51.0547C16.6537 48.4593 11.239 44.0792 7.38287 38.4515C3.52671 32.8238 1.39665 26.193 1.25391 19.3724V0.945557Z" stroke="white" stroke-width="2" stroke-miterlimit="10" stroke-linecap="round" stroke-linejoin="round"/>
<path d="M26.6148 31.0105L25.3899 21.7642C26.3627 21.2424 27.1294 20.4215 27.5694 19.4305C28.0093 18.4394 28.0976 17.3344 27.8202 16.2892C27.5429 15.2441 26.9157 14.3182 26.0374 13.6571C25.159 12.996 24.0792 12.6372 22.9679 12.6372C21.8567 12.6372 20.7769 12.996 19.8985 13.6571C19.0201 14.3182 18.3929 15.2441 18.1156 16.2892C17.8382 17.3344 17.9265 18.4394 18.3664 19.4305C18.8065 20.4215 19.5731 21.2424 20.546 21.7642L19.3768 31.0105H26.6148Z" stroke="white" stroke-width="2" stroke-miterlimit="10" stroke-linecap="round" stroke-linejoin="round"/>
</g>
<defs>
<clipPath id="clip0_765_3280">
<rect width="45.3818" height="52" fill="white" transform="translate(0.308594)"/>
</clipPath>
</defs>
</svg>
