<svg width="20" height="23" viewBox="0 0 20 23" fill="none" xmlns="http://www.w3.org/2000/svg">
<path d="M18.8465 9.52062L15.0531 7.32962L11.1695 11.2132L15.0528 15.0965L18.8594 12.8983C19.453 12.5376 19.8072 11.9076 19.8072 11.2132C19.8072 10.5188 19.4527 9.88882 18.8465 9.52062Z" fill="#FFCE00"/>
<path d="M11.1695 11.2132L0.59136 0.55896C0.22344 0.92688 0 1.42612 0 1.978V20.416C0 20.9679 0.22344 21.4671 0.59136 21.8353L11.1695 11.2132Z" fill="url(#paint0_linear_8_1783)"/>
<path d="M11.1695 11.2132L15.0531 7.32963L15.0592 7.32347L9.85571 4.32747L2.99627 0.296033C2.37859 -0.085047 1.62959 -0.0982069 0.998754 0.256553C0.854274 0.348393 0.722674 0.440513 0.591354 0.558673L11.1695 11.2132Z" fill="#00F076"/>
<path d="M0.591354 21.835C0.722674 21.9532 0.854274 22.0453 0.998754 22.1371C1.31403 22.3079 1.64275 22.4001 1.97119 22.4001C2.32595 22.4001 2.66755 22.2951 2.98311 22.1111L9.85543 18.099L15.059 15.103L15.0528 15.0968L11.1695 11.2132L0.591354 21.835Z" fill="#F63448"/>
<defs>
<linearGradient id="paint0_linear_8_1783" x1="-4.72752" y1="16.5162" x2="5.91052" y2="5.87784" gradientUnits="userSpaceOnUse">
<stop stop-color="#00E2FF"/>
<stop offset="1" stop-color="#00C5FF"/>
</linearGradient>
</defs>
</svg>
