<svg width="150" height="181" viewBox="0 0 150 181" fill="none" xmlns="http://www.w3.org/2000/svg">
<g filter="url(#filter0_d_749_2971)">
<path d="M101.52 154.341L74.9816 142.041L48.4434 154.341V71.2637H101.52V154.341Z" fill="url(#paint0_linear_749_2971)"/>
</g>
<path d="M96.1431 71.2637H88.6914V148.399L96.1431 151.847V71.2637Z" fill="url(#paint1_linear_749_2971)"/>
<path d="M53.8203 151.847L61.2652 148.399V71.2637H53.8203V151.847Z" fill="url(#paint2_linear_749_2971)"/>
<g filter="url(#filter1_d_749_2971)">
<path d="M132.206 60.8936L112.861 43.0597L107.067 17.4094C106.364 14.3019 103.164 12.4552 100.12 13.4024L74.981 21.2188L49.8416 13.4024C46.7981 12.4552 43.5977 14.3019 42.8948 17.4094L37.1013 43.0597L17.7555 60.8936C15.4148 63.0539 15.4148 66.7474 17.7555 68.9077L37.1013 86.7416L42.8948 112.392C43.5977 115.499 46.7981 117.346 49.8416 116.399L74.981 108.583L100.12 116.399C103.164 117.346 106.364 115.499 107.067 112.392L112.861 86.7416L132.206 68.9077C134.547 66.7474 134.547 63.0539 132.206 60.8936Z" fill="url(#paint3_linear_749_2971)"/>
</g>
<g style="mix-blend-mode:screen" opacity="0.4">
<path d="M132.596 64.9007C132.596 63.749 132.125 62.6791 131.279 61.8954L111.619 43.7753L74.9746 64.9007H132.589H132.596Z" fill="white"/>
<path d="M103.784 15.072C102.781 14.4928 101.621 14.3633 100.522 14.7108L74.9805 22.6499V64.9007L103.791 15.072H103.784Z" fill="white"/>
<path d="M103.785 114.729C104.788 114.15 105.478 113.217 105.73 112.085L111.619 86.0261L74.9746 64.9007L103.785 114.729Z" fill="white"/>
<path d="M17.3594 64.9007C17.3594 66.0524 17.8302 67.1223 18.6764 67.9059L38.3361 86.0261L74.9807 64.9007H17.3594Z" fill="white"/>
<path d="M49.4327 115.097L74.9747 107.158V64.9075L46.1641 114.736C47.1672 115.315 48.3272 115.445 49.4259 115.097H49.4327Z" fill="white"/>
<path d="M46.1698 15.072C45.1667 15.6513 44.4775 16.5849 44.225 17.7161L38.3359 43.7753L74.9805 64.9007L46.1698 15.072Z" fill="white"/>
</g>
<g filter="url(#filter2_d_749_2971)">
<path d="M118.723 64.9007L126.55 39.7955C127.499 36.7562 125.649 33.5601 122.538 32.8582L96.8525 27.0726L78.9942 7.75307C76.831 5.41564 73.1325 5.41564 70.9693 7.75307L53.1111 27.0726L27.4258 32.8582C24.3141 33.5601 22.4648 36.7562 23.4133 39.7955L31.2403 64.9007L23.4133 90.0058C22.4648 93.0451 24.3141 96.2412 27.4258 96.9431L53.1111 102.729L70.9693 122.048C73.1325 124.386 76.831 124.386 78.9942 122.048L96.8525 102.729L122.538 96.9431C125.649 96.2412 127.499 93.0451 126.55 90.0058L118.723 64.9007Z" fill="url(#paint4_linear_749_2971)"/>
</g>
<g style="mix-blend-mode:screen" opacity="0.4">
<path d="M74.9805 122.437C76.1337 122.437 77.2051 121.966 77.9898 121.121L96.1347 101.488L74.9805 64.8938V122.43V122.437Z" fill="white"/>
<path d="M124.877 93.6721C125.457 92.6703 125.587 91.5118 125.239 90.4147L117.289 64.9075H74.9805L124.877 93.6789V93.6721Z" fill="white"/>
<path d="M25.084 93.6721C25.664 94.6738 26.5989 95.3621 27.7317 95.6142L53.8264 101.495L74.9806 64.9006L25.084 93.6721Z" fill="white"/>
<path d="M74.9804 7.36462C73.8271 7.36462 72.7558 7.83483 71.971 8.67985L53.8262 28.3128L74.9804 64.9075V7.36462Z" fill="white"/>
<path d="M24.7159 39.3934L32.6658 64.9006H74.9742L25.0844 36.1292C24.5044 37.131 24.3747 38.2895 24.7228 39.3866L24.7159 39.3934Z" fill="white"/>
<path d="M124.877 36.1292C124.297 35.1275 123.362 34.4392 122.229 34.1871L96.1347 28.306L74.9805 64.9007L124.877 36.1292Z" fill="white"/>
</g>
<g filter="url(#filter3_d_749_2971)">
<path d="M99.4584 50.7876V24.926C99.4584 23.8765 98.3188 23.2223 97.4113 23.7471L74.981 36.6813L52.5507 23.7471C51.6431 23.2223 50.5035 23.8765 50.5035 24.926V50.7876L28.0733 63.7217C27.1657 64.2465 27.1657 65.5549 28.0733 66.0796L50.5035 79.0138V104.875C50.5035 105.925 51.6431 106.579 52.5507 106.054L74.981 93.1201L97.4113 106.054C98.3188 106.579 99.4584 105.925 99.4584 104.875V79.0138L121.889 66.0796C122.796 65.5549 122.796 64.2465 121.889 63.7217L99.4584 50.7876Z" fill="url(#paint5_radial_749_2971)"/>
</g>
<g filter="url(#filter4_d_749_2971)">
<path d="M111.762 64.9007L93.3717 33.0899H56.5907L38.1934 64.9007L56.5907 96.7114H93.3717L111.762 64.9007Z" fill="url(#paint6_linear_749_2971)"/>
</g>
<path d="M105.961 64.9006L90.471 38.1055H59.4903L44 64.9006L59.4903 91.6958H90.471L105.961 64.9006Z" fill="url(#paint7_linear_749_2971)"/>
<path d="M102.59 64.9007L88.7855 41.0222H61.1759L47.3711 64.9007L61.1759 88.7792H88.7855L102.59 64.9007Z" fill="url(#paint8_linear_749_2971)"/>
<path d="M84.2334 48.8931H65.72L56.4668 64.9007L65.72 80.9083H84.2334L93.4866 64.9007L84.2334 48.8931Z" fill="url(#paint9_linear_749_2971)"/>
<path d="M90.7369 64.9007L82.8553 51.2782L74.9805 64.9007H90.7369Z" fill="url(#paint10_linear_749_2971)"/>
<path d="M74.9805 64.9006L82.8553 78.5231L90.7369 64.9006H74.9805Z" fill="url(#paint11_linear_749_2971)"/>
<path d="M74.9813 64.9006L67.0996 78.5231H82.8561L74.9813 64.9006Z" fill="url(#paint12_linear_749_2971)"/>
<path d="M74.9811 64.9006H59.2246L67.0994 78.5231L74.9811 64.9006Z" fill="url(#paint13_linear_749_2971)"/>
<path d="M67.0994 51.2714L59.2246 64.9006H74.9811L67.0994 51.2714Z" fill="url(#paint14_linear_749_2971)"/>
<path d="M74.9813 64.9006L82.8561 51.2782V51.2714H67.0996L74.9813 64.9006Z" fill="url(#paint15_linear_749_2971)"/>
<path style="mix-blend-mode:screen" d="M85.3473 64.9007L80.1679 55.9326H69.7956L64.6094 64.9007L69.7956 73.8688H80.1679L85.3473 64.9007Z" fill="url(#paint16_linear_749_2971)"/>
<defs>
<filter id="filter0_d_749_2971" x="32.4434" y="65.2637" width="85.0762" height="115.077" filterUnits="userSpaceOnUse" color-interpolation-filters="sRGB">
<feFlood flood-opacity="0" result="BackgroundImageFix"/>
<feColorMatrix in="SourceAlpha" type="matrix" values="0 0 0 0 0 0 0 0 0 0 0 0 0 0 0 0 0 0 127 0" result="hardAlpha"/>
<feOffset dy="10"/>
<feGaussianBlur stdDeviation="8"/>
<feColorMatrix type="matrix" values="0 0 0 0 0 0 0 0 0 0 0 0 0 0 0 0 0 0 0.75 0"/>
<feBlend mode="normal" in2="BackgroundImageFix" result="effect1_dropShadow_749_2971"/>
<feBlend mode="normal" in="SourceGraphic" in2="effect1_dropShadow_749_2971" result="shape"/>
</filter>
<filter id="filter1_d_749_2971" x="0" y="7.1535" width="149.961" height="135.494" filterUnits="userSpaceOnUse" color-interpolation-filters="sRGB">
<feFlood flood-opacity="0" result="BackgroundImageFix"/>
<feColorMatrix in="SourceAlpha" type="matrix" values="0 0 0 0 0 0 0 0 0 0 0 0 0 0 0 0 0 0 127 0" result="hardAlpha"/>
<feOffset dy="10"/>
<feGaussianBlur stdDeviation="8"/>
<feColorMatrix type="matrix" values="0 0 0 0 0 0 0 0 0 0 0 0 0 0 0 0 0 0 0.75 0"/>
<feBlend mode="normal" in2="BackgroundImageFix" result="effect1_dropShadow_749_2971"/>
<feBlend mode="normal" in="SourceGraphic" in2="effect1_dropShadow_749_2971" result="shape"/>
</filter>
<filter id="filter2_d_749_2971" x="7.16406" y="0" width="135.635" height="149.801" filterUnits="userSpaceOnUse" color-interpolation-filters="sRGB">
<feFlood flood-opacity="0" result="BackgroundImageFix"/>
<feColorMatrix in="SourceAlpha" type="matrix" values="0 0 0 0 0 0 0 0 0 0 0 0 0 0 0 0 0 0 127 0" result="hardAlpha"/>
<feOffset dy="10"/>
<feGaussianBlur stdDeviation="8"/>
<feColorMatrix type="matrix" values="0 0 0 0 0 0 0 0 0 0 0 0 0 0 0 0 0 0 0.75 0"/>
<feBlend mode="normal" in2="BackgroundImageFix" result="effect1_dropShadow_749_2971"/>
<feBlend mode="normal" in="SourceGraphic" in2="effect1_dropShadow_749_2971" result="shape"/>
</filter>
<filter id="filter3_d_749_2971" x="11.3926" y="17.5621" width="127.178" height="114.677" filterUnits="userSpaceOnUse" color-interpolation-filters="sRGB">
<feFlood flood-opacity="0" result="BackgroundImageFix"/>
<feColorMatrix in="SourceAlpha" type="matrix" values="0 0 0 0 0 0 0 0 0 0 0 0 0 0 0 0 0 0 127 0" result="hardAlpha"/>
<feOffset dy="10"/>
<feGaussianBlur stdDeviation="8"/>
<feColorMatrix type="matrix" values="0 0 0 0 0 0 0 0 0 0 0 0 0 0 0 0 0 0 0.75 0"/>
<feBlend mode="normal" in2="BackgroundImageFix" result="effect1_dropShadow_749_2971"/>
<feBlend mode="normal" in="SourceGraphic" in2="effect1_dropShadow_749_2971" result="shape"/>
</filter>
<filter id="filter4_d_749_2971" x="22.1934" y="27.0899" width="105.568" height="95.6215" filterUnits="userSpaceOnUse" color-interpolation-filters="sRGB">
<feFlood flood-opacity="0" result="BackgroundImageFix"/>
<feColorMatrix in="SourceAlpha" type="matrix" values="0 0 0 0 0 0 0 0 0 0 0 0 0 0 0 0 0 0 127 0" result="hardAlpha"/>
<feOffset dy="10"/>
<feGaussianBlur stdDeviation="8"/>
<feColorMatrix type="matrix" values="0 0 0 0 0 0 0 0 0 0 0 0 0 0 0 0 0 0 0.75 0"/>
<feBlend mode="normal" in2="BackgroundImageFix" result="effect1_dropShadow_749_2971"/>
<feBlend mode="normal" in="SourceGraphic" in2="effect1_dropShadow_749_2971" result="shape"/>
</filter>
<linearGradient id="paint0_linear_749_2971" x1="74.9816" y1="154.341" x2="74.9816" y2="71.2637" gradientUnits="userSpaceOnUse">
<stop stop-color="#F03C3C"/>
<stop offset="1" stop-color="#B31212"/>
</linearGradient>
<linearGradient id="paint1_linear_749_2971" x1="92.4173" y1="151.847" x2="92.4173" y2="71.2637" gradientUnits="userSpaceOnUse">
<stop stop-color="white"/>
<stop offset="1" stop-color="#95AFDB"/>
</linearGradient>
<linearGradient id="paint2_linear_749_2971" x1="57.5394" y1="151.847" x2="57.5394" y2="24.2631" gradientUnits="userSpaceOnUse">
<stop stop-color="white"/>
<stop offset="1" stop-color="#95AFDB"/>
</linearGradient>
<linearGradient id="paint3_linear_749_2971" x1="74.981" y1="13.1571" x2="74.981" y2="116.644" gradientUnits="userSpaceOnUse">
<stop stop-color="#1C8DFF"/>
<stop offset="1" stop-color="#0023A1"/>
</linearGradient>
<linearGradient id="paint4_linear_749_2971" x1="74.9818" y1="6.0017" x2="74.9818" y2="123.8" gradientUnits="userSpaceOnUse">
<stop stop-color="#76F8FF"/>
<stop offset="1" stop-color="#2071FF"/>
</linearGradient>
<radialGradient id="paint5_radial_749_2971" cx="0" cy="0" r="1" gradientUnits="userSpaceOnUse" gradientTransform="translate(74.981 64.9007) scale(44.6012 44.5405)">
<stop stop-color="#040D1F"/>
<stop offset="1" stop-color="#293650"/>
</radialGradient>
<linearGradient id="paint6_linear_749_2971" x1="74.9812" y1="33.0899" x2="74.9812" y2="96.7114" gradientUnits="userSpaceOnUse">
<stop stop-color="white"/>
<stop offset="1" stop-color="#95AFDB"/>
</linearGradient>
<linearGradient id="paint7_linear_749_2971" x1="74.9807" y1="91.6958" x2="74.9807" y2="38.1055" gradientUnits="userSpaceOnUse">
<stop stop-color="white"/>
<stop offset="1" stop-color="#95AFDB"/>
</linearGradient>
<linearGradient id="paint8_linear_749_2971" x1="74.9807" y1="41.0222" x2="74.9807" y2="88.7792" gradientUnits="userSpaceOnUse">
<stop stop-color="#293650"/>
<stop offset="1" stop-color="#040D1F"/>
</linearGradient>
<linearGradient id="paint9_linear_749_2971" x1="74.9801" y1="80.9083" x2="74.9801" y2="48.8931" gradientUnits="userSpaceOnUse">
<stop stop-color="#293650"/>
<stop offset="1" stop-color="#040D1F"/>
</linearGradient>
<linearGradient id="paint10_linear_749_2971" x1="90.7369" y1="58.086" x2="74.9805" y2="58.086" gradientUnits="userSpaceOnUse">
<stop stop-color="#76F8FF"/>
<stop offset="1" stop-color="#2071FF"/>
</linearGradient>
<linearGradient id="paint11_linear_749_2971" x1="74.9805" y1="71.7085" x2="90.7369" y2="71.7085" gradientUnits="userSpaceOnUse">
<stop stop-color="#76F8FF"/>
<stop offset="1" stop-color="#2071FF"/>
</linearGradient>
<linearGradient id="paint12_linear_749_2971" x1="67.1064" y1="71.7085" x2="82.8561" y2="71.7085" gradientUnits="userSpaceOnUse">
<stop stop-color="#76F8FF"/>
<stop offset="1" stop-color="#2071FF"/>
</linearGradient>
<linearGradient id="paint13_linear_749_2971" x1="59.2246" y1="71.7085" x2="74.9811" y2="71.7085" gradientUnits="userSpaceOnUse">
<stop stop-color="#76F8FF"/>
<stop offset="1" stop-color="#2071FF"/>
</linearGradient>
<linearGradient id="paint14_linear_749_2971" x1="74.9811" y1="58.086" x2="59.2246" y2="58.086" gradientUnits="userSpaceOnUse">
<stop stop-color="#76F8FF"/>
<stop offset="1" stop-color="#2071FF"/>
</linearGradient>
<linearGradient id="paint15_linear_749_2971" x1="67.1064" y1="58.086" x2="82.8561" y2="58.086" gradientUnits="userSpaceOnUse">
<stop stop-color="#76F8FF"/>
<stop offset="1" stop-color="#2071FF"/>
</linearGradient>
<linearGradient id="paint16_linear_749_2971" x1="74.9818" y1="55.9326" x2="74.9818" y2="73.8688" gradientUnits="userSpaceOnUse">
<stop stop-color="#76F8FF"/>
<stop offset="1" stop-color="#2071FF"/>
</linearGradient>
</defs>
</svg>
