<svg width="138" height="183" viewBox="0 0 138 183" fill="none" xmlns="http://www.w3.org/2000/svg">
<g filter="url(#filter0_d_749_2943)">
<path d="M95.5487 156.017L68.6064 143.436L41.6641 156.017V71.0409H95.5487V156.017Z" fill="url(#paint0_linear_749_2943)"/>
</g>
<path d="M90.0895 71.0409H82.5312V149.939L90.0895 153.466V71.0409Z" fill="url(#paint1_linear_749_2943)"/>
<path d="M47.123 153.466L54.6882 149.939V71.0409H47.123V153.466Z" fill="url(#paint2_linear_749_2943)"/>
<g filter="url(#filter1_d_749_2943)">
<path d="M113.014 66.247L120.96 40.568C121.923 37.4592 120.046 34.1901 116.887 33.4721L90.8103 27.5542L72.6802 7.79314C70.4841 5.40229 66.7292 5.40229 64.5331 7.79314L46.403 27.5542L20.3266 33.4721C17.1675 34.1901 15.2901 37.4592 16.253 40.568L24.1993 66.247L16.253 91.9259C15.2901 95.0347 17.1675 98.3038 20.3266 99.0218L46.403 104.94L64.5331 124.701C66.7292 127.092 70.4841 127.092 72.6802 124.701L90.8103 104.94L116.887 99.0218C120.046 98.3038 121.923 95.0347 120.96 91.9259L113.014 66.247Z" fill="url(#paint3_linear_749_2943)"/>
</g>
<g style="mix-blend-mode:screen" opacity="0.4">
<path d="M68.6074 125.098C69.7782 125.098 70.8659 124.617 71.6626 123.753L90.0837 103.671L68.6074 66.24V125.091V125.098Z" fill="white"/>
<path d="M119.264 95.676C119.853 94.6513 119.984 93.4664 119.631 92.3441L111.56 66.2539H68.6074L119.264 95.683V95.676Z" fill="white"/>
<path d="M17.9512 95.676C18.54 96.7007 19.4892 97.4047 20.6392 97.6626L47.1312 103.678L68.6075 66.2469L17.9512 95.676Z" fill="white"/>
<path d="M68.6071 7.39581C67.4363 7.39581 66.3487 7.87677 65.552 8.7411L47.1309 28.8228L68.6071 66.2539V7.39581Z" fill="white"/>
<path d="M17.5831 40.1567L25.654 66.2469H68.6066L17.9503 36.8179C17.3614 37.8425 17.2298 39.0275 17.5831 40.1497V40.1567Z" fill="white"/>
<path d="M119.264 36.8179C118.675 35.7932 117.726 35.0892 116.576 34.8313L90.0837 28.8159L68.6074 66.2469L119.264 36.8179Z" fill="white"/>
</g>
<g filter="url(#filter2_d_749_2943)">
<path d="M93.4561 51.8112V25.3585C93.4561 24.2851 92.2991 23.6159 91.3777 24.1527L68.6059 37.3825L45.8341 24.1527C44.9127 23.6159 43.7558 24.2851 43.7558 25.3585V51.8112L20.984 65.041C20.0626 65.5778 20.0626 66.9161 20.984 67.4528L43.7558 80.6826V107.135C43.7558 108.209 44.9127 108.878 45.8341 108.341L68.6059 95.1114L91.3777 108.341C92.2991 108.878 93.4561 108.209 93.4561 107.135V80.6826L116.228 67.4528C117.149 66.9161 117.149 65.5778 116.228 65.041L93.4561 51.8112Z" fill="url(#paint4_radial_749_2943)"/>
</g>
<g filter="url(#filter3_d_749_2943)">
<path d="M105.955 66.247L87.2771 33.7091H49.9361L31.2656 66.247L49.9361 98.7848H87.2771L105.955 66.247Z" fill="url(#paint5_linear_749_2943)"/>
</g>
<path d="M100.059 66.247L84.3328 38.8394H52.8805L37.1543 66.247L52.8805 93.6546H84.3328L100.059 66.247Z" fill="url(#paint6_linear_749_2943)"/>
<path d="M96.6362 66.2469L82.6212 41.8226H54.5912L40.5762 66.2469L54.5912 90.6712H82.6212L96.6362 66.2469Z" fill="url(#paint7_linear_749_2943)"/>
<path d="M78.0077 49.8735H59.2125L49.8184 66.247L59.2125 82.6204H78.0077L87.4018 66.247L78.0077 49.8735Z" fill="url(#paint8_linear_749_2943)"/>
<path d="M84.6018 66.2469L76.6071 52.3131L68.6055 66.2469H84.6018Z" fill="url(#paint9_linear_749_2943)"/>
<path d="M68.6055 66.2469L76.6071 80.1808L84.6018 66.2469H68.6055Z" fill="url(#paint10_linear_749_2943)"/>
<path d="M68.606 66.2469L60.6113 80.1808H76.6077L68.606 66.2469Z" fill="url(#paint11_linear_749_2943)"/>
<path d="M68.6057 66.2469H52.6094L60.611 80.1808L68.6057 66.2469Z" fill="url(#paint12_linear_749_2943)"/>
<path d="M60.611 52.3062L52.6094 66.247H68.6057L60.611 52.3062Z" fill="url(#paint13_linear_749_2943)"/>
<path d="M68.606 66.247L76.6077 52.3131V52.3062H60.6113L68.606 66.247Z" fill="url(#paint14_linear_749_2943)"/>
<path style="mix-blend-mode:screen" d="M79.1377 66.247L73.8725 57.0739H63.3491H63.3422L58.084 66.247L63.3422 75.42H63.3491H73.8725L79.1377 66.247Z" fill="url(#paint15_linear_749_2943)"/>
<defs>
<filter id="filter0_d_749_2943" x="25.6641" y="65.0409" width="85.8848" height="116.976" filterUnits="userSpaceOnUse" color-interpolation-filters="sRGB">
<feFlood flood-opacity="0" result="BackgroundImageFix"/>
<feColorMatrix in="SourceAlpha" type="matrix" values="0 0 0 0 0 0 0 0 0 0 0 0 0 0 0 0 0 0 127 0" result="hardAlpha"/>
<feOffset dy="10"/>
<feGaussianBlur stdDeviation="8"/>
<feColorMatrix type="matrix" values="0 0 0 0 0 0 0 0 0 0 0 0 0 0 0 0 0 0 0.75 0"/>
<feBlend mode="normal" in2="BackgroundImageFix" result="effect1_dropShadow_749_2943"/>
<feBlend mode="normal" in="SourceGraphic" in2="effect1_dropShadow_749_2943" result="shape"/>
</filter>
<filter id="filter1_d_749_2943" x="0" y="0" width="137.213" height="152.494" filterUnits="userSpaceOnUse" color-interpolation-filters="sRGB">
<feFlood flood-opacity="0" result="BackgroundImageFix"/>
<feColorMatrix in="SourceAlpha" type="matrix" values="0 0 0 0 0 0 0 0 0 0 0 0 0 0 0 0 0 0 127 0" result="hardAlpha"/>
<feOffset dy="10"/>
<feGaussianBlur stdDeviation="8"/>
<feColorMatrix type="matrix" values="0 0 0 0 0 0 0 0 0 0 0 0 0 0 0 0 0 0 0.75 0"/>
<feBlend mode="normal" in2="BackgroundImageFix" result="effect1_dropShadow_749_2943"/>
<feBlend mode="normal" in="SourceGraphic" in2="effect1_dropShadow_749_2943" result="shape"/>
</filter>
<filter id="filter2_d_749_2943" x="4.29297" y="17.9635" width="128.625" height="116.567" filterUnits="userSpaceOnUse" color-interpolation-filters="sRGB">
<feFlood flood-opacity="0" result="BackgroundImageFix"/>
<feColorMatrix in="SourceAlpha" type="matrix" values="0 0 0 0 0 0 0 0 0 0 0 0 0 0 0 0 0 0 127 0" result="hardAlpha"/>
<feOffset dy="10"/>
<feGaussianBlur stdDeviation="8"/>
<feColorMatrix type="matrix" values="0 0 0 0 0 0 0 0 0 0 0 0 0 0 0 0 0 0 0.75 0"/>
<feBlend mode="normal" in2="BackgroundImageFix" result="effect1_dropShadow_749_2943"/>
<feBlend mode="normal" in="SourceGraphic" in2="effect1_dropShadow_749_2943" result="shape"/>
</filter>
<filter id="filter3_d_749_2943" x="15.2656" y="27.7091" width="106.689" height="97.0757" filterUnits="userSpaceOnUse" color-interpolation-filters="sRGB">
<feFlood flood-opacity="0" result="BackgroundImageFix"/>
<feColorMatrix in="SourceAlpha" type="matrix" values="0 0 0 0 0 0 0 0 0 0 0 0 0 0 0 0 0 0 127 0" result="hardAlpha"/>
<feOffset dy="10"/>
<feGaussianBlur stdDeviation="8"/>
<feColorMatrix type="matrix" values="0 0 0 0 0 0 0 0 0 0 0 0 0 0 0 0 0 0 0.75 0"/>
<feBlend mode="normal" in2="BackgroundImageFix" result="effect1_dropShadow_749_2943"/>
<feBlend mode="normal" in="SourceGraphic" in2="effect1_dropShadow_749_2943" result="shape"/>
</filter>
<linearGradient id="paint0_linear_749_2943" x1="68.6064" y1="156.017" x2="68.6064" y2="71.0409" gradientUnits="userSpaceOnUse">
<stop stop-color="#F03C3C"/>
<stop offset="1" stop-color="#B31212"/>
</linearGradient>
<linearGradient id="paint1_linear_749_2943" x1="86.3069" y1="153.466" x2="86.3069" y2="71.0409" gradientUnits="userSpaceOnUse">
<stop stop-color="white"/>
<stop offset="1" stop-color="#95AFDB"/>
</linearGradient>
<linearGradient id="paint2_linear_749_2943" x1="50.9056" y1="153.466" x2="50.9056" y2="22.966" gradientUnits="userSpaceOnUse">
<stop stop-color="white"/>
<stop offset="1" stop-color="#95AFDB"/>
</linearGradient>
<linearGradient id="paint3_linear_749_2943" x1="68.6067" y1="6.00174" x2="68.6067" y2="126.492" gradientUnits="userSpaceOnUse">
<stop stop-color="#FFD846"/>
<stop offset="1" stop-color="#FF9900"/>
</linearGradient>
<radialGradient id="paint4_radial_749_2943" cx="0" cy="0" r="1" gradientUnits="userSpaceOnUse" gradientTransform="translate(68.6059 66.2469) scale(45.2803 45.5586)">
<stop stop-color="#040D1F"/>
<stop offset="1" stop-color="#293650"/>
</radialGradient>
<linearGradient id="paint5_linear_749_2943" x1="68.6066" y1="33.7091" x2="68.6066" y2="98.7848" gradientUnits="userSpaceOnUse">
<stop stop-color="white"/>
<stop offset="1" stop-color="#95AFDB"/>
</linearGradient>
<linearGradient id="paint6_linear_749_2943" x1="68.6067" y1="93.6546" x2="68.6067" y2="38.8394" gradientUnits="userSpaceOnUse">
<stop stop-color="white"/>
<stop offset="1" stop-color="#95AFDB"/>
</linearGradient>
<linearGradient id="paint7_linear_749_2943" x1="68.6062" y1="41.8226" x2="68.6062" y2="90.6712" gradientUnits="userSpaceOnUse">
<stop stop-color="#293650"/>
<stop offset="1" stop-color="#040D1F"/>
</linearGradient>
<linearGradient id="paint8_linear_749_2943" x1="68.6066" y1="82.6204" x2="68.6066" y2="49.8735" gradientUnits="userSpaceOnUse">
<stop stop-color="#293650"/>
<stop offset="1" stop-color="#040D1F"/>
</linearGradient>
<linearGradient id="paint9_linear_749_2943" x1="84.6018" y1="59.2765" x2="68.6124" y2="59.2765" gradientUnits="userSpaceOnUse">
<stop stop-color="#FFD846"/>
<stop offset="1" stop-color="#FF9900"/>
</linearGradient>
<linearGradient id="paint10_linear_749_2943" x1="68.6124" y1="73.2104" x2="84.6018" y2="73.2104" gradientUnits="userSpaceOnUse">
<stop stop-color="#FFD846"/>
<stop offset="1" stop-color="#FF9900"/>
</linearGradient>
<linearGradient id="paint11_linear_749_2943" x1="60.6113" y1="73.2104" x2="76.6077" y2="73.2104" gradientUnits="userSpaceOnUse">
<stop stop-color="#FFD846"/>
<stop offset="1" stop-color="#FF9900"/>
</linearGradient>
<linearGradient id="paint12_linear_749_2943" x1="52.6163" y1="73.2104" x2="68.6127" y2="73.2104" gradientUnits="userSpaceOnUse">
<stop stop-color="#FFD846"/>
<stop offset="1" stop-color="#FF9900"/>
</linearGradient>
<linearGradient id="paint13_linear_749_2943" x1="68.6127" y1="59.2766" x2="52.6163" y2="59.2766" gradientUnits="userSpaceOnUse">
<stop stop-color="#FFD846"/>
<stop offset="1" stop-color="#FF9900"/>
</linearGradient>
<linearGradient id="paint14_linear_749_2943" x1="60.6113" y1="59.2766" x2="76.6077" y2="59.2766" gradientUnits="userSpaceOnUse">
<stop stop-color="#FFD846"/>
<stop offset="1" stop-color="#FF9900"/>
</linearGradient>
<linearGradient id="paint15_linear_749_2943" x1="68.6143" y1="57.0739" x2="68.6143" y2="75.42" gradientUnits="userSpaceOnUse">
<stop stop-color="#FFD846"/>
<stop offset="1" stop-color="#FF9900"/>
</linearGradient>
</defs>
</svg>
