<svg width="64" height="64" viewBox="0 0 64 64" fill="none" xmlns="http://www.w3.org/2000/svg">
<path d="M41.9191 46.3135C40.2072 46.3135 38.8145 47.7062 38.8145 49.4181C38.8145 51.13 40.2072 52.5229 41.9191 52.5229C43.631 52.5229 45.0238 51.13 45.0238 49.4181C45.0238 47.7062 43.631 46.3135 41.9191 46.3135ZM41.9191 50.6476C41.2412 50.6476 40.6897 50.0961 40.6897 49.4181C40.6897 48.7402 41.2412 48.1887 41.9191 48.1887C42.5971 48.1887 43.1486 48.7402 43.1486 49.4181C43.1485 50.0961 42.5971 50.6476 41.9191 50.6476Z" fill="white"/>
<path d="M58.0775 58.5171H57.4797C57.608 57.977 57.5226 58.3725 57.5478 48.8192C57.5478 48.3012 57.1281 47.8816 56.6102 47.8816C56.0922 47.8816 55.6726 48.3013 55.6726 48.8192V57.9546C55.6726 58.2595 55.415 58.5172 55.11 58.5172H28.7305C28.4256 58.5172 28.1678 58.2596 28.1678 57.9546C28.1678 56.4487 28.1678 43.0255 28.1678 40.8815C28.1678 40.5766 28.4255 40.3188 28.7305 40.3188H55.11C55.4148 40.3188 55.6726 40.5765 55.6726 40.8815V44.4435C55.6726 44.9615 56.0923 45.3811 56.6102 45.3811C57.1282 45.3811 57.5478 44.9613 57.5478 44.4435V40.8815C57.5478 39.5372 56.4541 38.4436 55.11 38.4436H35.2271L33.1361 37.7323C32.9781 37.6781 32.8721 37.5296 32.8721 37.3623V35.0644C36.2755 33.0416 38.4625 29.5604 38.8616 25.7595C41.7311 25.8925 43.6981 23.1526 42.5075 20.7766V13.1325C42.5075 7.60447 39.5011 5.68147 38.5826 5.22297C33.2854 -1.10078 22.3667 -2.02078 15.6578 4.33447C15.0391 4.91547 15.4548 5.95572 16.3 5.95572C16.9906 5.95572 16.8852 5.47222 19.0197 4.08447C19.1778 3.98185 19.4843 3.80097 19.4717 3.80847C25.0005 0.48985 33.1561 1.50647 37.2676 6.57622C37.3728 6.70585 37.501 6.80148 37.6575 6.85997C37.779 6.90872 40.6321 8.10947 40.6321 13.1326V19.0506C40.1119 18.8304 39.5416 18.7175 38.9336 18.7345V15.6675C38.9336 14.8895 38.3475 14.2465 37.5703 14.1715C35.9946 14.0193 35.1116 12.9926 34.6482 12.1582C34.0683 11.114 32.684 10.8637 31.7763 11.6393C27.5955 15.2135 22.7817 15.395 19.4791 14.9185C16.9765 14.5571 14.6632 16.2652 14.261 18.7356C13.654 18.7093 13.054 18.8167 12.5026 19.0504C12.5613 16.1304 12.0655 12.9695 14.3786 8.9361C14.6362 8.48685 14.4808 7.91397 14.0318 7.65622C13.5825 7.39847 13.0096 7.55397 12.752 8.00297C11.3412 10.463 10.6591 13.3048 10.6408 15.3247C10.6175 15.9295 10.6316 15.7081 10.6275 20.7762C9.43522 23.1555 11.41 25.8918 14.2733 25.7591C14.6842 29.6707 17.0025 33.2751 20.613 35.2659V37.362C20.613 37.5291 20.5067 37.6776 20.3493 37.7317C16.6327 39.0311 21.0126 37.4511 11.2683 40.9066C10.4177 41.1587 10.6063 41.0931 10.2706 41.23C8.1806 42.1078 6.88897 43.7864 6.47147 45.8508C3.5466 60.542 3.65772 59.709 3.6776 60.5077C3.76885 62.8235 5.25035 63.9997 7.53185 63.9997C7.56897 63.9997 26.7596 63.9997 26.7423 63.9997C28.6446 63.9997 27.913 63.9997 29.8151 63.9997C30.3331 63.9997 30.7527 63.58 30.7527 63.0621C30.7527 62.5441 30.333 62.1245 29.8151 62.1245H26.7425C25.4318 62.1242 24.9978 60.3922 25.7636 60.3922C27.8688 60.3922 56.8803 60.3922 58.0778 60.3922C58.8448 60.3922 58.4058 62.1245 57.099 62.1245H34.1906C33.6726 62.1245 33.253 62.5442 33.253 63.0621C33.253 63.5801 33.6727 63.9997 34.1906 63.9997H57.0985C58.88 63.9997 60.3293 62.5502 60.3293 60.7687C60.3295 59.5272 59.3193 58.5171 58.0775 58.5171ZM38.9336 20.6103C40.0147 20.5532 40.9828 21.2816 40.9828 22.2479C40.9828 23.2236 40.0046 23.9421 38.9336 23.8855V20.6103ZM14.201 23.8853C13.1198 23.9427 12.1517 23.2141 12.1517 22.2479C12.1517 21.2721 13.13 20.5536 14.201 20.6102V23.8853ZM16.0912 24.9616C16.0675 24.5277 16.0791 24.6846 16.0762 19.852C16.1043 19.6945 15.8745 18.4057 17.0173 17.4158C17.6198 16.894 18.4196 16.6605 19.2111 16.7746C22.8965 17.307 28.28 17.095 32.9947 13.0648L33.0086 13.0685C33.9142 14.6995 35.3433 15.7291 37.0582 15.9961C37.0582 24.4715 37.1681 25.2977 36.7467 26.9755C36.4875 28.0124 36.0401 29.0591 35.4958 29.9376C29.9933 38.6345 16.604 35.2155 16.0912 24.9616ZM12.2503 62.1247H7.53147C5.92635 62.1247 5.6386 61.3651 5.56735 60.7032C5.4931 60.0132 5.6461 59.7037 6.29172 56.3541H12.2503V62.1247ZM25.7632 58.5172V58.5171C24.2396 58.5171 23.0442 59.993 23.6941 61.8396C23.721 61.916 23.7665 62.0323 23.8095 62.1248H14.1257C14.1257 55.6365 14.1257 59.8882 14.1257 53.2872C14.1257 52.7692 13.706 52.3496 13.1881 52.3496C12.6701 52.3496 12.2505 52.7693 12.2505 53.2872V54.479H6.6651C8.43385 45.6015 8.33235 45.973 8.52522 45.4613C8.91122 44.4478 9.48622 43.8547 10.3113 43.3102C11.045 42.8871 11.1281 42.9105 11.8168 42.7003C11.8665 42.6862 11.5352 42.8013 17.2216 40.787C17.2216 40.787 17.2218 40.7868 17.2221 40.7868L20.6182 39.6222C20.641 41.2495 21.6835 42.6835 23.2295 43.2011C24.2082 43.529 25.2373 43.7096 26.2927 43.7421C26.3522 58.0096 26.2073 57.8808 26.3582 58.5172H25.7632ZM26.2926 40.8812C26.2926 40.9048 26.2926 41.8795 26.2926 41.867C25.4406 41.8355 24.6121 41.6865 23.8248 41.4226C23.0272 41.1556 22.4913 40.4102 22.4913 39.568C22.4891 37.2927 22.495 38.682 22.4878 36.1011C26.4495 37.479 29.5673 36.3858 29.7792 36.3697L29.7771 36.3621L29.7897 36.3586L29.792 36.3662C30.1186 36.26 30.2283 36.2678 30.9967 35.9722C30.9967 36.5941 30.9967 37.8074 30.9967 38.443H28.7306C27.3863 38.4432 26.2926 39.537 26.2926 40.8812Z" fill="white"/>
</svg>
