<svg width="18" height="28" viewBox="0 0 18 28" fill="none" xmlns="http://www.w3.org/2000/svg">
<g clip-path="url(#clip0_807_22196)">
<path d="M9.1865 0.308927C8.93132 -0.106882 8.29945 -0.106882 8.04427 0.308927C7.71618 0.85216 0 13.4807 0 18.4905C0 23.5003 3.86416 28.0004 8.61539 28.0004C13.3666 28.0004 17.2308 23.735 17.2308 18.4905C17.2308 13.4807 9.51459 0.845454 9.1865 0.315633V0.308927Z" fill="black"/>
<path d="M8.6151 26.4778C4.62335 26.4778 1.37891 22.8965 1.37891 18.4903C1.37891 15.0163 6.16658 6.23734 8.6151 2.11279C11.0636 6.23734 15.8513 15.0096 15.8513 18.4903C15.8513 22.8965 12.6069 26.4778 8.6151 26.4778Z" fill="white"/>
<path d="M9.30137 24.1976C9.30137 24.6201 8.99151 24.9554 8.61482 24.9554C5.38253 24.9554 2.75781 22.0582 2.75781 18.4903C2.75781 18.0745 3.06767 17.7324 3.44437 17.7324C3.82107 17.7324 4.13093 18.0745 4.13093 18.4903C4.13093 21.2198 6.14199 23.433 8.60874 23.433C8.98544 23.433 9.2953 23.7683 9.2953 24.1909L9.30137 24.1976Z" fill="#2EEECE"/>
</g>
<defs>
<clipPath id="clip0_807_22196">
<rect width="17.2308" height="28" fill="white"/>
</clipPath>
</defs>
</svg>
