<svg width="30" height="32" viewBox="0 0 30 32" fill="none" xmlns="http://www.w3.org/2000/svg">
<g clip-path="url(#clip0_807_22192)">
<path d="M14.5115 32C22.5117 32 29.023 25.4887 29.023 17.4885C29.023 9.4883 23.1068 3.60904 15.6278 3.03626V2.23254H17.4885C18.1059 2.23254 18.6047 1.73371 18.6047 1.11627C18.6047 0.498834 18.1059 0 17.4885 0H11.5353C10.9178 0 10.419 0.498834 10.419 1.11627C10.419 1.73371 10.9178 2.23254 11.5353 2.23254H13.3959V3.03626C5.91624 3.60904 0 9.86016 0 17.4885C0 25.1168 6.51135 32 14.5115 32Z" fill="black"/>
<path d="M14.5 30.5C21.6797 30.5 27.5 24.6797 27.5 17.5C27.5 10.3203 21.6797 4.5 14.5 4.5C7.3203 4.5 1.5 10.3203 1.5 17.5C1.5 24.6797 7.3203 30.5 14.5 30.5Z" fill="white"/>
<path d="M14.5108 18.6048H20.464C21.0815 18.6048 21.5803 18.1059 21.5803 17.4885C21.5803 16.871 21.0815 16.3722 20.464 16.3722H15.6271V10.0464C15.6271 9.42901 15.1282 8.93018 14.5108 8.93018C13.8934 8.93018 13.3945 9.42901 13.3945 10.0464V17.4885C13.3945 18.1059 13.8934 18.6048 14.5108 18.6048Z" fill="#2EEECE"/>
</g>
<defs>
<clipPath id="clip0_807_22192">
<rect width="29.023" height="32" fill="white"/>
</clipPath>
</defs>
</svg>
