<svg width="24" height="24" viewBox="0 0 24 24" fill="none" xmlns="http://www.w3.org/2000/svg">
<path d="M19.1496 0H4.84739C2.16872 0 0 2.16872 0 4.84739V19.1526C0 21.8283 2.16872 23.997 4.84739 23.997H19.1526C21.8283 23.997 24 21.8283 24 19.1496V4.84739C23.997 2.16872 21.8283 0 19.1496 0Z" fill="url(#paint0_linear_8_1791)"/>
<path d="M11.8964 5.51329L12.3824 4.67339C12.6824 4.14843 13.3513 3.97148 13.8762 4.27143C14.4012 4.57138 14.5781 5.24029 14.2782 5.76524L9.59573 13.8703H12.9823C14.0802 13.8703 14.6951 15.1601 14.2182 16.054H4.28943C3.68352 16.054 3.19757 15.568 3.19757 14.9621C3.19757 14.3562 3.68352 13.8703 4.28943 13.8703H7.0731L10.6367 7.69401L9.52382 5.76224C9.22387 5.23729 9.40082 4.57439 9.92577 4.26843C10.4507 3.96848 11.1136 4.14543 11.4196 4.67039L11.8964 5.51329Z" fill="white"/>
<path d="M7.68474 17.1789L6.63489 18.9997C6.33493 19.5246 5.66603 19.7016 5.14107 19.4016C4.61612 19.1017 4.43917 18.4328 4.73912 17.9078L5.51903 16.558C6.40089 16.2851 7.11779 16.495 7.68474 17.1789Z" fill="white"/>
<path d="M16.7257 13.8763H19.5663C20.1722 13.8763 20.6582 14.3623 20.6582 14.9682C20.6582 15.5741 20.1722 16.0601 19.5663 16.0601H17.9885L19.0534 17.9078C19.3533 18.4328 19.1764 19.0957 18.6514 19.4016C18.1265 19.7016 17.4636 19.5246 17.1576 18.9997C15.3638 15.8891 14.017 13.5614 13.1231 12.0106C12.2082 10.4328 12.8622 8.84895 13.5071 8.31204C14.224 9.5419 15.2949 11.3987 16.7257 13.8763Z" fill="white"/>
<defs>
<linearGradient id="paint0_linear_8_1791" x1="12" y1="0" x2="12" y2="23.997" gradientUnits="userSpaceOnUse">
<stop stop-color="#00BFFC"/>
<stop offset="1" stop-color="#0073F6"/>
</linearGradient>
</defs>
</svg>
