<svg width="38" height="32" viewBox="0 0 38 32" fill="none" xmlns="http://www.w3.org/2000/svg">
<g clip-path="url(#clip0_192_1613)">
<path d="M33.62 17.2V5.53C33.62 3.63 32.07 2.08 30.17 2.08H29.47V0.49C29.47 0.22 29.25 0 28.98 0C28.71 0 28.49 0.22 28.49 0.49V2.08H21.3V0.49C21.3 0.22 21.08 0 20.81 0C20.54 0 20.32 0.22 20.32 0.49V2.08H13.13V0.49C13.13 0.22 12.91 0 12.64 0C12.37 0 12.15 0.22 12.15 0.49V2.08H4.95998V0.49C4.95998 0.22 4.73998 0 4.46998 0C4.19998 0 3.97998 0.22 3.97998 0.49V2.08H3.42998C1.52998 2.08 -0.0200195 3.63 -0.0200195 5.53V26.6C-0.0200195 28.51 1.52998 30.05 3.42998 30.05H25.25C26.52 30.98 28.08 31.53 29.77 31.53C34.01 31.53 37.45 28.08 37.45 23.85C37.45 21.01 35.89 18.53 33.59 17.2H33.62Z" fill="#1E1F1F"/>
<path d="M0.969971 26.6V8.99005H13.47C13.74 8.99005 13.96 8.77005 13.96 8.50005C13.96 8.23005 13.74 8.01005 13.47 8.01005H0.969971V5.53005C0.969971 4.16005 2.07997 3.05005 3.44997 3.05005H3.99997V4.64005C3.99997 4.91005 4.21997 5.13005 4.48997 5.13005C4.75997 5.13005 4.97997 4.91005 4.97997 4.64005V3.05005H12.17V4.64005C12.17 4.91005 12.39 5.13005 12.66 5.13005C12.93 5.13005 13.15 4.91005 13.15 4.64005V3.05005H20.34V4.64005C20.34 4.91005 20.56 5.13005 20.83 5.13005C21.1 5.13005 21.32 4.91005 21.32 4.64005V3.05005H28.51V4.64005C28.51 4.91005 28.73 5.13005 29 5.13005C29.27 5.13005 29.49 4.91005 29.49 4.64005V3.05005H30.19C31.56 3.05005 32.67 4.16005 32.67 5.53005V8.01005H20.17C19.9 8.01005 19.68 8.23005 19.68 8.50005C19.68 8.77005 19.9 8.99005 20.17 8.99005H32.67V16.73C31.79 16.38 30.83 16.18 29.82 16.18C29.51 16.18 29.2 16.2 28.9 16.24V12.66C28.9 12.39 28.68 12.17 28.41 12.17H24.26C23.99 12.17 23.77 12.39 23.77 12.66V16.81C23.77 17.08 23.99 17.3 24.26 17.3H25.85C23.63 18.65 22.14 21.08 22.14 23.8601C22.14 25.8801 22.93 27.7101 24.21 29.09H3.44997C2.07997 29.09 0.969971 27.9801 0.969971 26.6101V26.6Z" fill="white"/>
<path d="M27.9 13.1399H24.72V16.3199H27.9V13.1399Z" fill="#2EEECE"/>
<path d="M29.79 30.5699C33.4958 30.5699 36.5 27.5657 36.5 23.8599C36.5 20.1541 33.4958 17.1499 29.79 17.1499C26.0842 17.1499 23.08 20.1541 23.08 23.8599C23.08 27.5657 26.0842 30.5699 29.79 30.5699Z" fill="white"/>
<path d="M29.79 21.22C30.47 21.22 31.02 21.7 31.02 22.29C31.02 22.56 31.24 22.78 31.51 22.78C31.78 22.78 32 22.56 32 22.29C32 21.32 31.26 20.5 30.28 20.3V19.99C30.28 19.72 30.06 19.5 29.79 19.5C29.52 19.5 29.3 19.72 29.3 19.99V20.3C28.32 20.51 27.58 21.32 27.58 22.29C27.58 23.42 28.56 24.33 29.78 24.34C30.46 24.34 31.01 24.82 31.01 25.41C31.01 26 30.46 26.48 29.78 26.48C29.1 26.48 28.55 26 28.55 25.41C28.55 25.14 28.33 24.92 28.06 24.92C27.79 24.92 27.57 25.14 27.57 25.41C27.57 26.38 28.31 27.2 29.29 27.4V27.7C29.29 27.97 29.51 28.19 29.78 28.19C30.05 28.19 30.27 27.97 30.27 27.7V27.4C31.25 27.19 31.99 26.38 31.99 25.41C31.99 24.28 31.01 23.37 29.79 23.36C29.11 23.36 28.56 22.88 28.56 22.29C28.56 21.7 29.11 21.22 29.79 21.22Z" fill="#2EEECE"/>
<path d="M9.39 12.1699H5.24C4.96938 12.1699 4.75 12.3893 4.75 12.6599V16.8099C4.75 17.0805 4.96938 17.2999 5.24 17.2999H9.39C9.66062 17.2999 9.88 17.0805 9.88 16.8099V12.6599C9.88 12.3893 9.66062 12.1699 9.39 12.1699Z" fill="#1E1F1F"/>
<path d="M8.89997 13.1399H5.71997V16.3199H8.89997V13.1399Z" fill="#2EEECE"/>
<path d="M18.88 12.1699H14.73C14.4594 12.1699 14.24 12.3893 14.24 12.6599V16.8099C14.24 17.0805 14.4594 17.2999 14.73 17.2999H18.88C19.1506 17.2999 19.37 17.0805 19.37 16.8099V12.6599C19.37 12.3893 19.1506 12.1699 18.88 12.1699Z" fill="#1E1F1F"/>
<path d="M18.4 13.1399H15.22V16.3199H18.4V13.1399Z" fill="#2EEECE"/>
<path d="M9.39 20.48H5.24C4.96938 20.48 4.75 20.6994 4.75 20.97V25.12C4.75 25.3906 4.96938 25.61 5.24 25.61H9.39C9.66062 25.61 9.88 25.3906 9.88 25.12V20.97C9.88 20.6994 9.66062 20.48 9.39 20.48Z" fill="#1E1F1F"/>
<path d="M8.89997 21.45H5.71997V24.6299H8.89997V21.45Z" fill="#2EEECE"/>
<path d="M18.88 20.48H14.73C14.4594 20.48 14.24 20.6994 14.24 20.97V25.12C14.24 25.3906 14.4594 25.61 14.73 25.61H18.88C19.1506 25.61 19.37 25.3906 19.37 25.12V20.97C19.37 20.6994 19.1506 20.48 18.88 20.48Z" fill="#1E1F1F"/>
<path d="M18.4 21.45H15.22V24.6299H18.4V21.45Z" fill="#2EEECE"/>
</g>
<defs>
<clipPath id="clip0_192_1613">
<rect width="37.48" height="31.54" fill="white"/>
</clipPath>
</defs>
</svg>
