<svg width="42" height="42" viewBox="0 0 42 42" fill="none" xmlns="http://www.w3.org/2000/svg">
<g clip-path="url(#clip0_192_1648)">
<path d="M36.96 18.1999C37.35 17.6099 37.78 16.9299 37.64 16.1099C37.55 15.5899 37.26 15.1399 36.98 14.6999C36.75 14.3399 36.53 13.9999 36.47 13.6999C36.42 13.3999 36.51 12.9999 36.6 12.5799C36.73 11.9999 36.89 11.3399 36.66 10.7199C36.43 10.0899 35.88 9.66989 35.4 9.29989C35.08 9.05989 34.75 8.80989 34.61 8.55989C34.46 8.29989 34.41 7.89989 34.36 7.47989C34.29 6.87989 34.2 6.20989 33.77 5.69989C33.34 5.18989 32.69 4.98989 32.11 4.80989C31.72 4.68989 31.32 4.56989 31.1 4.37989C30.88 4.18989 30.68 3.81989 30.5 3.45989C30.22 2.91989 29.91 2.30989 29.34 1.97989C28.77 1.64989 28.08 1.67989 27.48 1.70989C27.07 1.72989 26.66 1.74989 26.38 1.64989C26.11 1.54989 25.8 1.26989 25.51 0.98989C25.07 0.57989 24.56 0.10989 23.9 -0.0101096C23.25 -0.12011 22.62 0.13989 22.07 0.36989C21.69 0.52989 21.3 0.68989 21.01 0.68989C20.73 0.68989 20.37 0.53989 19.98 0.36989C19.42 0.12989 18.78 -0.14011 18.12 -0.0201096C17.45 0.0998904 16.95 0.56989 16.5 0.97989C16.19 1.25989 15.91 1.52989 15.64 1.62989C15.36 1.72989 14.94 1.70989 14.53 1.68989C13.93 1.65989 13.25 1.62989 12.68 1.95989C12.1 2.29989 11.79 2.90989 11.51 3.44989C11.33 3.80989 11.14 4.17989 10.92 4.35989C10.69 4.54989 10.29 4.66989 9.91001 4.78989C9.33001 4.96989 8.68001 5.16989 8.26001 5.67989C7.83001 6.18989 7.75001 6.86989 7.67001 7.46989C7.62001 7.86989 7.57001 8.28989 7.42001 8.53989C7.27001 8.78989 6.94001 9.03989 6.62001 9.28989C6.14001 9.64989 5.59001 10.0699 5.36001 10.6899C5.13001 11.3099 5.28001 11.9799 5.42001 12.5599C5.51001 12.9699 5.60001 13.3699 5.55001 13.6599C5.50001 13.9399 5.29001 14.2699 5.06001 14.6199C4.67001 15.2099 4.24001 15.8899 4.38001 16.7099C4.47001 17.2299 4.76001 17.6799 5.04001 18.1199C5.27001 18.4799 5.49001 18.8199 5.55001 19.1199C5.60001 19.4199 5.51001 19.8199 5.42001 20.2399C5.29001 20.8199 5.13001 21.4799 5.36001 22.0999C5.59001 22.7299 6.14001 23.1499 6.62001 23.5199C6.94001 23.7599 7.27001 24.0099 7.41001 24.2599C7.56001 24.5199 7.61001 24.9199 7.66001 25.3399C7.73001 25.9399 7.82001 26.6099 8.25001 27.1199C8.63001 27.5699 9.18001 27.7799 9.70001 27.9399L5.40001 37.1699C5.30001 37.3899 5.33001 37.6499 5.47001 37.8499C5.62001 38.0399 5.86001 38.1399 6.10001 38.0999L11.14 37.2199L13.71 41.6499C13.83 41.8499 14.04 41.9799 14.28 41.9799C14.28 41.9799 14.3 41.9799 14.31 41.9799C14.55 41.9699 14.77 41.8199 14.88 41.5999L18.98 32.7899C19.31 32.7099 19.64 32.5699 19.94 32.4499C20.32 32.2899 20.71 32.1299 21 32.1299C21.28 32.1299 21.64 32.2799 22.03 32.4399C22.59 32.6799 23.23 32.9499 23.89 32.8299C23.91 32.8299 23.94 32.8199 23.96 32.8099L27 39.8699C27.1 40.0899 27.31 40.2499 27.55 40.2599C27.57 40.2599 27.58 40.2599 27.6 40.2599C27.83 40.2599 28.04 40.1399 28.16 39.9499L30.86 35.5999L35.88 36.6299C36.12 36.6799 36.37 36.5899 36.52 36.3999C36.67 36.2099 36.71 35.9499 36.61 35.7299L33.12 27.6299C33.36 27.4999 33.58 27.3399 33.76 27.1299C34.19 26.6199 34.27 25.9399 34.35 25.3399C34.4 24.9399 34.45 24.5199 34.6 24.2699C34.75 24.0199 35.08 23.7699 35.4 23.5199C35.88 23.1599 36.43 22.7399 36.66 22.1199C36.89 21.4999 36.74 20.8299 36.6 20.2499C36.51 19.8399 36.42 19.4399 36.47 19.1499C36.52 18.8699 36.73 18.5399 36.96 18.1899V18.1999Z" fill="#1E1F1F"/>
<path d="M14.22 39.93L12.05 36.19C11.91 35.95 11.64 35.83 11.37 35.87L7.10999 36.61L10.9 28.46C11.12 28.65 11.32 29.02 11.5 29.38C11.78 29.92 12.09 30.53 12.66 30.86C13.23 31.19 13.92 31.16 14.52 31.13C14.93 31.11 15.34 31.09 15.62 31.19C15.89 31.29 16.2 31.57 16.49 31.85C16.81 32.15 17.16 32.48 17.58 32.68L14.21 39.93H14.22Z" fill="#2EEECE"/>
<path d="M30.68 34.2501C30.41 34.1901 30.14 34.3101 29.99 34.5501L27.71 38.2201L25.12 32.2001C25.26 32.0801 25.39 31.9601 25.51 31.8501C25.82 31.5701 26.1 31.3001 26.37 31.2001C26.65 31.1001 27.07 31.1201 27.48 31.1401C28.08 31.1701 28.76 31.2001 29.33 30.8801C29.91 30.5401 30.22 29.9301 30.5 29.3901C30.68 29.0301 30.87 28.6601 31.09 28.4801C31.27 28.3301 31.58 28.2101 31.89 28.1101L34.91 35.1201L30.68 34.2501Z" fill="#2EEECE"/>
<path d="M35.86 17.49C35.59 17.91 35.27 18.39 35.18 18.94C35.08 19.5 35.21 20.06 35.33 20.56C35.43 20.99 35.53 21.43 35.43 21.69C35.33 21.95 34.97 22.23 34.61 22.5C34.2 22.81 33.74 23.16 33.46 23.64C33.18 24.12 33.11 24.7 33.05 25.21C33 25.65 32.94 26.1 32.76 26.32C32.58 26.53 32.15 26.67 31.72 26.8C31.23 26.95 30.68 27.12 30.25 27.48C29.83 27.84 29.56 28.35 29.33 28.8C29.13 29.2 28.92 29.61 28.67 29.75C28.44 29.89 27.98 29.86 27.54 29.84C27.03 29.81 26.45 29.79 25.92 29.98C25.4 30.17 25 30.54 24.61 30.9C24.28 31.21 23.94 31.52 23.66 31.57C23.37 31.62 22.95 31.44 22.53 31.27C22.04 31.06 21.54 30.85 20.99 30.85C20.43 30.85 19.89 31.08 19.42 31.28C19.01 31.45 18.59 31.63 18.33 31.58C18.05 31.53 17.72 31.22 17.39 30.91C17.02 30.56 16.6 30.17 16.08 29.98C15.74 29.86 15.37 29.82 15.02 29.82C14.83 29.82 14.64 29.82 14.46 29.84C14.02 29.86 13.56 29.88 13.32 29.75C13.08 29.61 12.87 29.2 12.67 28.81C12.44 28.36 12.17 27.84 11.74 27.48C11.31 27.12 10.76 26.95 10.27 26.8C9.85001 26.67 9.41001 26.54 9.23001 26.32C9.05001 26.11 9.00001 25.66 8.94001 25.22C8.88001 24.71 8.80001 24.14 8.52001 23.65C8.24001 23.17 7.79001 22.83 7.38001 22.52C7.02001 22.25 6.66001 21.97 6.56001 21.7C6.47001 21.45 6.56001 21.01 6.67001 20.59C6.79001 20.09 6.92001 19.52 6.82001 18.95C6.72001 18.39 6.40001 17.9 6.12001 17.46C5.90001 17.12 5.69001 16.8 5.65001 16.54C5.60001 16.23 5.86001 15.83 6.14001 15.4C6.41001 14.98 6.73001 14.5 6.82001 13.95C6.92001 13.39 6.79001 12.83 6.67001 12.33C6.57001 11.9 6.47001 11.46 6.56001 11.2C6.66001 10.94 7.02001 10.66 7.38001 10.39C7.79001 10.08 8.25001 9.73 8.53001 9.25C8.81001 8.77 8.88001 8.19 8.94001 7.68C8.99001 7.24 9.05001 6.79 9.23001 6.57C9.41001 6.36 9.84001 6.22 10.27 6.09C10.76 5.94 11.31 5.77 11.74 5.41C12.16 5.05 12.43 4.54 12.66 4.09C12.86 3.69 13.07 3.28 13.32 3.14C13.55 3 14.01 3.03 14.45 3.05C14.96 3.08 15.54 3.1 16.07 2.91C16.59 2.72 16.99 2.35 17.38 1.99C17.71 1.68 18.05 1.37 18.33 1.32C18.62 1.27 19.04 1.45 19.46 1.62C19.95 1.83 20.45 2.04 21 2.04C21.56 2.04 22.1 1.81 22.57 1.61C22.98 1.44 23.4 1.26 23.66 1.31C23.94 1.36 24.28 1.67 24.6 1.98C24.97 2.33 25.39 2.72 25.91 2.91C26.44 3.1 27.02 3.07 27.53 3.05C27.97 3.03 28.43 3.01 28.67 3.14C28.91 3.28 29.12 3.69 29.32 4.08C29.55 4.53 29.82 5.05 30.25 5.41C30.68 5.77 31.23 5.94 31.72 6.09C32.14 6.22 32.58 6.35 32.76 6.57C32.94 6.78 32.99 7.23 33.05 7.67C33.11 8.18 33.19 8.75 33.47 9.24C33.75 9.72 34.2 10.06 34.61 10.37C34.97 10.64 35.34 10.92 35.43 11.19C35.52 11.44 35.43 11.88 35.32 12.3C35.2 12.8 35.07 13.37 35.17 13.94C35.27 14.5 35.59 14.99 35.87 15.43C36.09 15.77 36.3 16.09 36.34 16.35C36.39 16.66 36.13 17.06 35.85 17.49H35.86Z" fill="white"/>
<path d="M22.5063 28.1783C28.9867 27.347 33.5663 21.4197 32.7349 14.9392C31.9036 8.4588 25.9763 3.87929 19.4959 4.7106C13.0154 5.54191 8.43593 11.4692 9.26725 17.9497C10.0986 24.4301 16.0259 29.0096 22.5063 28.1783Z" fill="#1E1F1F"/>
<path d="M31.0257 19.6193C32.7815 14.0809 29.7151 8.16781 24.1768 6.412C18.6384 4.65619 12.7253 7.72256 10.9695 13.2609C9.21365 18.7993 12.28 24.7124 17.8184 26.4682C23.3568 28.2241 29.2699 25.1577 31.0257 19.6193Z" fill="white"/>
<path d="M24.7 14.7301C24.04 14.5701 23.38 14.4501 22.72 14.3701C23.73 13.6201 24.42 12.2401 24.42 10.6601C24.42 8.48012 23.11 7.12012 21 7.12012C18.89 7.12012 17.58 8.48012 17.58 10.6601C17.58 12.2401 18.26 13.6201 19.27 14.3601C18.61 14.4401 17.95 14.5601 17.29 14.7301C15.29 15.2401 14.19 16.3501 14.19 17.8601V23.4501C14.19 23.8101 14.48 24.1101 14.85 24.1101H27.15C27.51 24.1101 27.81 23.8201 27.81 23.4501V17.8601C27.81 16.3601 26.68 15.2201 24.7 14.7301Z" fill="#1E1F1F"/>
<path d="M21 8.43994C21.96 8.43994 23.11 8.82994 23.11 10.6599C23.11 12.2799 22.14 13.6399 21 13.6399C19.86 13.6399 18.89 12.2699 18.89 10.6599C18.89 8.71994 20.21 8.43994 21 8.43994Z" fill="#2EEECE"/>
<path d="M26.5 22.8H25.02V19.15C25.02 18.79 24.73 18.49 24.36 18.49C23.99 18.49 23.7 18.78 23.7 19.15V22.8H18.3V19.15C18.3 18.79 18.01 18.49 17.64 18.49C17.27 18.49 16.98 18.78 16.98 19.15V22.8H15.5V17.87C15.5 16.79 16.65 16.26 17.61 16.01C19.81 15.44 22.09 15.44 24.38 16.01C25.17 16.21 26.49 16.71 26.49 17.86V22.79L26.5 22.8Z" fill="#2EEECE"/>
</g>
<defs>
<clipPath id="clip0_192_1648">
<rect width="42" height="42" fill="white"/>
</clipPath>
</defs>
</svg>
