<svg width="39" height="34" viewBox="0 0 39 34" fill="none" xmlns="http://www.w3.org/2000/svg">
<g clip-path="url(#clip0_192_1631)">
<path d="M30.6019 32.8139V10.5677C30.6019 10.4079 30.7027 10.2791 30.8272 10.2791H37.1361C37.2606 10.2791 37.3614 10.4087 37.3614 10.5677V32.8139H30.6019Z" fill="white"/>
<path d="M1.78204 32.814V23.2521C1.78204 23.1833 1.88282 23.1279 2.00736 23.1279H8.31618C8.44072 23.1279 8.5415 23.1833 8.5415 23.2521V32.814H1.78204Z" fill="white"/>
<path d="M38.3855 32.8139H37.9758V14.9046C37.9758 14.5773 37.7005 14.3116 37.3613 14.3116C37.0221 14.3116 36.7468 14.5773 36.7468 14.9046V32.8139H30.6019V10.4767C30.6019 10.3676 30.6937 10.2791 30.8067 10.2791H36.542C36.6551 10.2791 36.7468 10.3676 36.7468 10.4767V12.5326C36.7468 12.8599 37.0221 13.1256 37.3613 13.1256C37.7005 13.1256 37.9758 12.8599 37.9758 12.5326V10.4767C37.975 9.71292 37.3335 9.09381 36.542 9.09302H30.8067C30.0153 9.09381 29.3737 9.71292 29.3729 10.4767V32.8139H28.5265V17.593C28.5257 16.8292 27.8842 16.2101 27.0927 16.2093H21.3574C20.5659 16.2101 19.9244 16.8292 19.9236 17.593V32.8139H19.0772V13.6395C19.0764 12.8757 18.4349 12.2566 17.6434 12.2558H11.9081C11.1166 12.2566 10.4751 12.8757 10.4743 13.6395V32.8139H9.62792V23.9186C9.6271 23.1548 8.98557 22.5357 8.1941 22.5349H2.45798C1.66651 22.5357 1.02498 23.1548 1.02416 23.9186V31.5884C1.02416 31.9157 1.29945 32.1814 1.63866 32.1814C1.97786 32.1814 2.25315 31.9157 2.25315 31.5884V23.9186C2.25315 23.8095 2.34492 23.7209 2.45798 23.7209H8.19328C8.30634 23.7209 8.39811 23.8095 8.39811 23.9186V32.8139H0.614496C0.275294 32.8139 0 33.0796 0 33.407C0 33.7343 0.275294 34 0.614496 34H38.3855C38.7247 34 39 33.7343 39 33.407C39 33.0796 38.7247 32.8139 38.3855 32.8139Z" fill="#1E1F1F"/>
<path d="M11.7025 32.814V13.6396C11.7025 13.5305 11.7942 13.4419 11.9073 13.4419H17.6426C17.7556 13.4419 17.8474 13.5305 17.8474 13.6396V32.814H11.7025Z" fill="white"/>
<path d="M21.1526 32.8139V17.5929C21.1526 17.4838 21.2444 17.3953 21.3574 17.3953H27.0927C27.2058 17.3953 27.2975 17.4838 27.2975 17.5929V32.8139H21.1526Z" fill="#2EEECE"/>
<path d="M33.6744 0C32.4306 0 31.4212 0.972558 31.4212 2.17363C31.4212 2.53577 31.5146 2.89237 31.6941 3.21023L25.8572 7.79312C25.0026 6.92335 23.5794 6.88619 22.6782 7.71088C22.6143 7.7694 22.5536 7.83186 22.4971 7.8967L17.0281 5.36488C17.0281 5.3554 17.0281 5.34591 17.0281 5.33642C17.0289 4.13535 16.0212 3.16121 14.7774 3.15963C13.5329 3.15884 12.5234 4.1314 12.5218 5.33167C12.5218 5.71121 12.6234 6.08363 12.8184 6.41256L6.16137 13.596C5.00448 13.1485 3.6911 13.6901 3.22736 14.8066C2.76362 15.9231 3.32486 17.1906 4.48175 17.6381C5.63864 18.0856 6.95202 17.544 7.41576 16.4275C7.70662 15.727 7.60093 14.93 7.13637 14.3227L13.6967 7.24358C14.7324 7.78916 16.0293 7.47051 16.6676 6.51219L21.9949 8.97837C21.8171 10.1668 22.6708 11.2698 23.9023 11.4414C25.1337 11.613 26.2767 10.7891 26.4545 9.60065C26.4913 9.35633 26.484 9.10805 26.4348 8.86609L32.5568 4.05944C33.6367 4.65484 35.0132 4.2927 35.6301 3.25056C36.2471 2.20842 35.8718 0.880047 34.7919 0.284651C34.4519 0.0988372 34.066 0 33.6744 0Z" fill="#1E1F1F"/>
<path d="M5.32561 16.6047C4.76028 16.6047 4.30145 16.1619 4.30145 15.6163C4.30145 15.0707 4.76028 14.6279 5.32561 14.6279C5.89095 14.6279 6.34977 15.0707 6.34977 15.6163C6.34977 16.1619 5.89095 16.6039 5.32561 16.6047Z" fill="#2EEECE"/>
<path d="M14.775 6.32562C14.2096 6.32562 13.7508 5.88283 13.7508 5.33725C13.7508 4.79167 14.2096 4.34888 14.775 4.34888C15.3403 4.34888 15.7991 4.79167 15.7991 5.33725C15.7991 5.88283 15.3403 6.32483 14.775 6.32562Z" fill="#2EEECE"/>
<path d="M24.2251 10.279C23.6598 10.279 23.2009 9.8362 23.2009 9.29062C23.2009 8.74504 23.6598 8.30225 24.2251 8.30225C24.7904 8.30225 25.2492 8.74504 25.2492 9.29062C25.2492 9.8362 24.7904 10.2782 24.2251 10.279Z" fill="#2EEECE"/>
<path d="M33.6744 3.16278C33.109 3.16278 32.6502 2.71999 32.6502 2.17441C32.6502 1.62883 33.109 1.18604 33.6744 1.18604C34.2397 1.18604 34.6985 1.62883 34.6985 2.17441C34.6985 2.71999 34.2397 3.16199 33.6744 3.16278Z" fill="#2EEECE"/>
</g>
<defs>
<clipPath id="clip0_192_1631">
<rect width="39" height="34" fill="white"/>
</clipPath>
</defs>
</svg>
