<svg width="24" height="24" viewBox="0 0 24 24" fill="none" xmlns="http://www.w3.org/2000/svg">
<path d="M11.9999 0C18.6168 0 23.9999 5.38322 23.9999 12C23.9999 18.6168 18.6168 24 11.9999 24C5.38316 24 -6.29425e-05 18.6168 -6.29425e-05 12C-6.29425e-05 5.38322 5.38308 0 11.9999 0ZM2.86262 7.61476H6.98976C7.22122 6.22338 7.56375 4.94035 8.00639 3.83379C8.21501 3.31231 8.44297 2.84085 8.68732 2.42051C6.12615 3.30866 4.02798 5.19619 2.86262 7.61476ZM1.86402 12C1.86402 12.8701 1.97431 13.7148 2.18145 14.5212H6.75372C6.6797 13.7011 6.64041 12.8575 6.64041 12C6.64041 11.1425 6.6797 10.2989 6.75372 9.47884H2.18145C1.97431 10.2852 1.86402 11.1299 1.86402 12ZM11.9999 22.1359C12.7389 22.1359 13.606 21.1158 14.2629 19.4739C14.6253 18.5679 14.9125 17.5223 15.1188 16.3852H8.88118C9.08747 17.5223 9.3747 18.5679 9.7371 19.4739C10.3939 21.1158 11.261 22.1359 11.9999 22.1359ZM15.3756 14.5212C15.4544 13.7063 15.4954 12.8616 15.4954 12C15.4954 11.1384 15.4543 10.2937 15.3756 9.47884H8.62417C8.54541 10.2937 8.5044 11.1384 8.5044 12C8.5044 12.8616 8.54549 13.7063 8.62417 14.5212H15.3756ZM22.1359 12C22.1359 11.1299 22.0256 10.2852 21.8184 9.47884H17.2462C17.3202 10.2989 17.3595 11.1425 17.3595 12C17.3595 12.8575 17.3202 13.7011 17.2462 14.5212H21.8184C22.0256 13.7148 22.1359 12.8701 22.1359 12ZM11.9999 1.86408C11.261 1.86408 10.3939 2.88419 9.73703 4.52614C9.37462 5.43208 9.0874 6.47775 8.8811 7.61476H15.1187C14.9124 6.47775 14.6252 5.43208 14.2628 4.52614C13.606 2.88419 12.7389 1.86408 11.9999 1.86408ZM15.3126 2.42058C15.557 2.84085 15.7849 3.31231 15.9936 3.83386C16.4362 4.94043 16.7787 6.22346 17.0102 7.61484H21.1373C19.9718 5.19627 17.8737 3.30874 15.3126 2.42058ZM21.1373 16.3852H17.0102C16.7787 17.7766 16.4362 19.0597 15.9936 20.1662C15.7849 20.6877 15.557 21.1591 15.3126 21.5795C17.8737 20.6913 19.9718 18.8037 21.1373 16.3852ZM8.68724 21.5794C8.44289 21.1591 8.21493 20.6877 8.00631 20.1661C7.56367 19.0596 7.22114 17.7765 6.98969 16.3852H2.86254C4.02798 18.8038 6.12615 20.6913 8.68724 21.5794Z" fill="url(#paint0_linear_8_1799)"/>
<defs>
<linearGradient id="paint0_linear_8_1799" x1="11.9999" y1="-7.8835" x2="11.9999" y2="31.8835" gradientUnits="userSpaceOnUse">
<stop stop-color="#01F1FE"/>
<stop offset="1" stop-color="#4FADFE"/>
</linearGradient>
</defs>
</svg>
