<svg width="22" height="22" viewBox="0 0 22 22" fill="none" xmlns="http://www.w3.org/2000/svg">
<path d="M8.64971 1.68166L0.399711 2.75326C0.169699 2.78295 -0.00187515 2.9797 1.54734e-05 3.2116V9.62826C1.54734e-05 9.88139 0.205234 10.0866 0.458363 10.0866H8.70836C8.96149 10.0866 9.16671 9.88139 9.16671 9.62826V2.13541C9.16654 2.00375 9.10978 1.87854 9.01086 1.79166C8.91122 1.70598 8.78021 1.66606 8.64971 1.68166Z" fill="#F44336"/>
<path d="M21.8443 0.117837C21.7461 0.029321 21.6144 -0.0124446 21.4832 0.00323895L10.4832 1.43784C10.2532 1.46753 10.0816 1.66428 10.0835 1.89618V9.62828C10.0835 9.88141 10.2887 10.0866 10.5419 10.0866H21.5419C21.795 10.0866 22.0002 9.88141 22.0002 9.62828V0.461587C22 0.32993 21.9432 0.204719 21.8443 0.117837Z" fill="#4CAF50"/>
<path d="M8.70836 11.0032H0.458363C0.205234 11.0032 1.54734e-05 11.2085 1.54734e-05 11.4616V17.8782C-0.00187515 18.1101 0.169699 18.3069 0.399668 18.3366L8.64967 19.4127C8.66922 19.4141 8.68881 19.4141 8.70832 19.4127C8.96145 19.4127 9.16667 19.2075 9.16667 18.9544V11.4616C9.16671 11.2085 8.96149 11.0032 8.70836 11.0032Z" fill="#2196F3"/>
<path d="M21.5419 11.0032H10.5419C10.2887 11.0032 10.0835 11.2085 10.0835 11.4616V19.1937C10.0816 19.4256 10.2532 19.6223 10.4832 19.652L21.4832 21.0866C21.5027 21.088 21.5223 21.088 21.5418 21.0866C21.7949 21.0866 22.0002 20.8814 22.0002 20.6283V11.4616C22.0002 11.2085 21.795 11.0032 21.5419 11.0032Z" fill="#FFC107"/>
</svg>
