<svg width="24" height="19" viewBox="0 0 24 19" fill="none" xmlns="http://www.w3.org/2000/svg">
<path d="M23.3938 2.45234C23.292 1.77177 22.9497 1.1502 22.429 0.7003C21.9083 0.250401 21.2436 0.00195504 20.5555 0H2.88204C2.1939 0.00195504 1.52924 0.250401 1.00854 0.7003C0.487835 1.1502 0.145561 1.77177 0.0437622 2.45234L11.7188 10.007L23.3938 2.45234Z" fill="#2EEECE"/>
<path d="M12.143 11.5938C12.0166 11.6755 11.8693 11.719 11.7188 11.719C11.5682 11.719 11.4209 11.6755 11.2945 11.5938L0 4.28594V15.868C0.000827182 16.6321 0.304734 17.3647 0.845041 17.905C1.38535 18.4453 2.11792 18.7492 2.88203 18.75H20.5555C21.3196 18.7492 22.0522 18.4453 22.5925 17.905C23.1328 17.3647 23.4367 16.6321 23.4375 15.868V4.28516L12.143 11.5938Z" fill="#2EEECE"/>
</svg>
