<svg width="51" height="50" viewBox="0 0 51 50" fill="none" xmlns="http://www.w3.org/2000/svg">
<g clip-path="url(#clip0_146_618)">
<path d="M47.1692 0H3.83472C1.99409 0 0.501953 1.49213 0.501953 3.33277V46.6672C0.501953 48.5079 1.99409 50 3.83472 50H47.1692C49.0098 50 50.502 48.5079 50.502 46.6672V3.33277C50.502 1.49213 49.0098 0 47.1692 0Z" fill="#1E1F1F"/>
<path d="M3.83449 1.66724H47.1673C48.0879 1.66724 48.8345 2.41386 48.8345 3.33447V6.66724H2.16895V3.33447C2.16895 2.41386 2.91557 1.66724 3.83617 1.66724H3.83449Z" fill="white"/>
<path d="M47.1692 48.3328H3.83471C2.9141 48.3328 2.16748 47.5862 2.16748 46.6655V8.33276H48.8347V46.6655C48.8347 47.5862 48.0881 48.3328 47.1675 48.3328H47.1692Z" fill="white"/>
<path d="M4.6692 5.00001H5.50197C5.96143 5.00001 6.33474 4.6267 6.33474 4.16724C6.33474 3.70778 5.96143 3.33447 5.50197 3.33447H4.6692C4.20974 3.33447 3.83643 3.70778 3.83643 4.16724C3.83643 4.6267 4.20974 5.00001 4.6692 5.00001Z" fill="#1E1F1F"/>
<path d="M8.83472 5.00001H9.66749C10.127 5.00001 10.5003 4.6267 10.5003 4.16724C10.5003 3.70778 10.127 3.33447 9.66749 3.33447H8.83472C8.37526 3.33447 8.00195 3.70778 8.00195 4.16724C8.00195 4.6267 8.37526 5.00001 8.83472 5.00001Z" fill="#1E1F1F"/>
<path d="M13.0017 5.00001H13.8345C14.2939 5.00001 14.6673 4.6267 14.6673 4.16724C14.6673 3.70778 14.2939 3.33447 13.8345 3.33447H13.0017C12.5423 3.33447 12.1689 3.70778 12.1689 4.16724C12.1689 4.6267 12.5423 5.00001 13.0017 5.00001Z" fill="#1E1F1F"/>
<path d="M41.3347 5.00001H46.3347C46.7942 5.00001 47.1675 4.6267 47.1675 4.16724C47.1675 3.70778 46.7942 3.33447 46.3347 3.33447H41.3347C40.8753 3.33447 40.502 3.70778 40.502 4.16724C40.502 4.6267 40.8753 5.00001 41.3347 5.00001Z" fill="#1E1F1F"/>
<path d="M41.3345 37.5H9.66894C8.28888 37.5 7.16895 38.6199 7.16895 40C7.16895 41.3801 8.28888 42.5 9.66894 42.5H41.3362C42.7162 42.5 43.8362 41.3801 43.8362 40C43.8362 38.6199 42.7162 37.5 41.3362 37.5H41.3345Z" fill="#1E1F1F"/>
<path d="M41.3347 40.8328H9.6692C9.20974 40.8328 8.83643 40.4595 8.83643 40C8.83643 39.5405 9.20974 39.1672 9.6692 39.1672H41.3364C41.7959 39.1672 42.1692 39.5405 42.1692 40C42.1692 40.4595 41.7959 40.8328 41.3364 40.8328H41.3347Z" fill="#2EEECE"/>
<path d="M9.96474 32.4014C9.75663 32.4014 9.55139 32.3684 9.35333 32.301C9.14378 32.2321 8.95289 32.1244 8.78641 31.9838C8.60987 31.8345 8.46779 31.6479 8.36445 31.4283C8.26111 31.2073 8.20801 30.9576 8.20801 30.6863V20.9267C8.20801 20.6842 8.25537 20.4531 8.34723 20.2364C8.43908 20.0225 8.56682 19.836 8.72613 19.6795C8.88257 19.5274 9.06484 19.4068 9.26721 19.3207C9.47676 19.2317 9.70065 19.1858 9.93029 19.1858H15.6526C15.8836 19.1858 16.0961 19.2288 16.2826 19.315C16.4649 19.3996 16.6228 19.5145 16.752 19.658C16.8783 19.8001 16.9744 19.9623 17.0347 20.1402C17.0907 20.3053 17.1194 20.4775 17.1194 20.6526C17.1194 20.8277 17.0921 20.9899 17.0361 21.1549C16.9744 21.3386 16.8797 21.5037 16.752 21.6472C16.6242 21.7907 16.4664 21.907 16.2826 21.9902C16.0961 22.0764 15.8836 22.1194 15.6526 22.1194H11.7301V24.1273H15.4215C15.6511 24.1273 15.8636 24.1704 16.0501 24.2565C16.2338 24.3412 16.3917 24.456 16.5195 24.5995C16.6472 24.743 16.7434 24.9081 16.8036 25.0903C16.8582 25.2554 16.8869 25.4248 16.8869 25.5927C16.8869 25.7606 16.8596 25.9386 16.8036 26.1036C16.7419 26.2873 16.6472 26.4524 16.5195 26.5945C16.3903 26.738 16.2324 26.8543 16.0501 26.9375C15.8636 27.0236 15.6526 27.0667 15.4201 27.0667H11.7286V30.6835C11.7286 30.9547 11.6755 31.2045 11.5722 31.4255C11.4689 31.6465 11.3268 31.8331 11.1502 31.9809C10.9809 32.123 10.7871 32.2306 10.5733 32.2995C10.3752 32.3641 10.1685 32.3971 9.96187 32.3971L9.96474 32.4014Z" fill="#2EEECE"/>
<path d="M15.654 19.8305C15.7918 19.8305 15.9123 19.8535 16.0142 19.9009C16.1161 19.9482 16.2023 20.0099 16.2711 20.0874C16.34 20.1649 16.3917 20.2525 16.4247 20.3486C16.4577 20.4448 16.4749 20.5467 16.4749 20.6515C16.4749 20.7505 16.4577 20.851 16.4247 20.95C16.3917 21.049 16.34 21.138 16.2711 21.2155C16.2023 21.293 16.1161 21.3548 16.0142 21.4021C15.9123 21.4495 15.7918 21.4724 15.654 21.4724H11.0856V24.772H15.4229C15.5607 24.772 15.6813 24.795 15.7832 24.8424C15.8851 24.8897 15.9712 24.9514 16.0401 25.029C16.109 25.1065 16.1606 25.1954 16.1936 25.2945C16.2267 25.3935 16.2439 25.494 16.2439 25.593C16.2439 25.6978 16.2267 25.7997 16.1936 25.9001C16.1606 25.9992 16.109 26.0882 16.0401 26.1657C15.9712 26.2432 15.8851 26.3049 15.7832 26.3522C15.6813 26.3996 15.5607 26.4226 15.4229 26.4226H11.0856V30.6852C11.0856 30.8617 11.0541 31.0182 10.9909 31.1531C10.9278 31.288 10.8431 31.4 10.7383 31.4889C10.6335 31.5779 10.513 31.6439 10.3781 31.6884C10.2432 31.7329 10.1054 31.7545 9.96759 31.7545C9.8298 31.7545 9.69346 31.7329 9.56141 31.6884C9.42937 31.6439 9.31025 31.5779 9.20548 31.4889C9.1007 31.4 9.01602 31.288 8.95287 31.1531C8.88972 31.0182 8.85815 30.8617 8.85815 30.6852V20.9256C8.85815 20.7706 8.88685 20.6256 8.9457 20.4907C9.00311 20.3558 9.08205 20.2396 9.18251 20.142C9.28154 20.0458 9.39636 19.9697 9.52697 19.9138C9.65614 19.8592 9.79392 19.8305 9.93745 19.8305H15.6597M15.6597 18.5388H9.93745C9.62026 18.5388 9.31168 18.602 9.02177 18.7254C8.74476 18.8431 8.49647 19.0081 8.28262 19.2162C8.06016 19.433 7.88506 19.6899 7.75876 19.9812C7.63102 20.2783 7.56787 20.5955 7.56787 20.9256V30.6852C7.56787 31.0526 7.64107 31.3957 7.78603 31.7028C7.92812 32.0071 8.12761 32.2683 8.37734 32.4778C8.60555 32.6701 8.8682 32.818 9.15668 32.9127C9.41933 33.0002 9.69346 33.0447 9.97189 33.0447C10.2503 33.0447 10.5202 33.0002 10.7842 32.9141C11.077 32.818 11.3425 32.6716 11.5751 32.4764C11.8233 32.2668 12.0228 32.0071 12.1649 31.7014C12.3099 31.3928 12.3831 31.0512 12.3831 30.6838V27.7128H15.4287C15.753 27.7128 16.0559 27.6497 16.3286 27.5248C16.5926 27.4043 16.8223 27.2349 17.0103 27.0239C17.1969 26.8144 17.3361 26.5733 17.4251 26.3063C17.5026 26.0752 17.5413 25.8341 17.5413 25.5916C17.5413 25.349 17.5026 25.1151 17.4251 24.884C17.3361 24.617 17.1969 24.3759 17.0103 24.1678C16.8208 23.9568 16.5926 23.7889 16.3286 23.6669C16.0544 23.542 15.753 23.4789 15.4287 23.4789H12.3831V22.7627H15.6597C15.9841 22.7627 16.2869 22.6996 16.5596 22.5747C16.8237 22.4541 17.0519 22.2862 17.2399 22.0752C17.4265 21.8657 17.5672 21.6246 17.6561 21.3576C17.7336 21.1265 17.7724 20.8883 17.7724 20.65C17.7724 20.4118 17.7322 20.1606 17.6533 19.9281C17.5643 19.6683 17.4251 19.4315 17.2414 19.2263C17.0519 19.0153 16.8237 18.8474 16.5596 18.7268C16.2855 18.602 15.9827 18.5388 15.6597 18.5388Z" fill="#1E1F1F"/>
<path d="M21.1915 32.3846C20.9834 32.3846 20.7781 32.3516 20.5801 32.2841C20.3691 32.2138 20.1768 32.1047 20.0103 31.9612C19.8409 31.8148 19.7031 31.6325 19.6012 31.4201C19.4965 31.2005 19.4434 30.9508 19.4434 30.6767V20.8841C19.4434 20.6128 19.4965 20.3631 19.5998 20.1406C19.7031 19.921 19.8438 19.7344 20.0203 19.5852C20.1882 19.4445 20.3791 19.3369 20.5887 19.268C20.7882 19.202 20.9934 19.1689 21.2001 19.1689C21.4068 19.1689 21.612 19.202 21.8101 19.268C22.0196 19.3383 22.2119 19.4445 22.3784 19.5852C22.5549 19.7344 22.697 19.921 22.8004 20.1406C22.9037 20.3631 22.9568 20.6128 22.9568 20.8841V30.6767C22.9568 30.9494 22.9037 31.1991 22.7989 31.4201C22.6956 31.6354 22.5549 31.8191 22.3798 31.9669C22.2119 32.109 22.0167 32.2167 21.8029 32.2856C21.6048 32.3501 21.3996 32.3832 21.1929 32.3832L21.1915 32.3846Z" fill="#2EEECE"/>
<path d="M21.1999 19.8146C21.3377 19.8146 21.474 19.8361 21.6061 19.8806C21.7381 19.9251 21.8573 19.9911 21.962 20.0801C22.0668 20.1691 22.1515 20.2811 22.2146 20.416C22.2778 20.5509 22.3094 20.7073 22.3094 20.8839V30.6765C22.3094 30.853 22.2778 31.008 22.2146 31.1415C22.1515 31.2735 22.0668 31.3855 21.962 31.473C21.8573 31.562 21.7367 31.628 21.6018 31.6725C21.4669 31.717 21.3291 31.7385 21.1913 31.7385C21.0535 31.7385 20.9172 31.717 20.7851 31.6725C20.6531 31.628 20.5354 31.562 20.4321 31.473C20.3302 31.384 20.2469 31.2735 20.1838 31.1415C20.1206 31.0094 20.089 30.8544 20.089 30.6765V20.8839C20.089 20.7073 20.1206 20.5509 20.1838 20.416C20.2469 20.2811 20.3316 20.1691 20.4364 20.0801C20.5411 19.9911 20.6603 19.9251 20.7923 19.8806C20.9244 19.8361 21.0607 19.8146 21.1985 19.8146M21.1985 18.5229C20.9229 18.5229 20.6488 18.5674 20.3847 18.6549C20.0962 18.7511 19.8336 18.8975 19.6039 19.0912C19.3556 19.3008 19.1561 19.562 19.0141 19.8663C18.8705 20.1734 18.7959 20.5164 18.7959 20.8824V30.675C18.7959 31.0453 18.8705 31.3898 19.0184 31.6969C19.159 31.9897 19.3499 32.2437 19.5881 32.449C19.8178 32.647 20.0819 32.7977 20.3761 32.8953C20.6387 32.9829 20.9129 33.0274 21.1913 33.0274C21.4697 33.0274 21.7396 32.9829 22.0036 32.8968C22.2964 32.8006 22.562 32.6542 22.7945 32.4576C23.0399 32.2509 23.2365 31.994 23.38 31.6955C23.5279 31.3869 23.6025 31.0424 23.6025 30.6736V20.881C23.6025 20.515 23.5293 20.172 23.3858 19.8648C23.2423 19.5591 23.0442 19.2994 22.7959 19.0898C22.5648 18.8961 22.3022 18.7482 22.0151 18.6535C21.7496 18.5659 21.4755 18.52 21.1999 18.52L21.1985 18.5229Z" fill="#1E1F1F"/>
<path d="M26.6967 32.4086C26.4929 32.4086 26.292 32.3684 26.1011 32.2923C25.9116 32.2177 25.738 32.1101 25.5887 31.9751C25.4366 31.8374 25.3146 31.6752 25.227 31.4943C25.1309 31.2991 25.0835 31.0882 25.0835 30.8671C25.0835 30.5528 25.1883 30.2471 25.3964 29.9601L28.5611 25.6285L25.6332 21.6572C25.4351 21.3932 25.3332 21.0989 25.3332 20.7846C25.3332 20.5521 25.3892 20.3282 25.4983 20.1201C25.6002 19.9263 25.738 19.7584 25.9102 19.6163C26.0666 19.4886 26.2432 19.3853 26.4369 19.3092C26.6465 19.2259 26.8661 19.1843 27.09 19.1843C27.3698 19.1843 27.6425 19.2518 27.9009 19.3853C28.1664 19.523 28.396 19.7369 28.584 20.0225L30.8043 23.2532L33.0921 20.0139C33.2787 19.7326 33.504 19.5216 33.7595 19.3896C34.0121 19.259 34.2733 19.1929 34.5374 19.1929C34.7469 19.1929 34.9507 19.2331 35.1445 19.3106C35.3282 19.3853 35.4947 19.4872 35.6396 19.6149C35.7932 19.7498 35.9167 19.9091 36.0071 20.0885C36.1047 20.2837 36.1549 20.4947 36.1549 20.7172C36.1549 20.8707 36.1276 21.0272 36.0745 21.1836C36.0214 21.3357 35.941 21.485 35.8348 21.6271L32.8452 25.6314L35.9497 29.907C36.1492 30.1911 36.2468 30.4839 36.2468 30.7839C36.2468 31.025 36.1879 31.2547 36.0717 31.4671C35.9698 31.6537 35.8334 31.8187 35.6684 31.9579C35.5105 32.0914 35.3268 32.199 35.1258 32.278C34.9163 32.3598 34.6996 32.4 34.4814 32.4C34.213 32.4 33.9518 32.3354 33.7035 32.2091C33.4466 32.0785 33.2241 31.8704 33.0404 31.5905L30.6135 28.0699L28.1449 31.6092C27.9626 31.8775 27.7401 32.0842 27.4889 32.2177C27.2478 32.344 26.9967 32.4086 26.7398 32.4086C26.7268 32.4086 26.7139 32.4086 26.6996 32.4086H26.6967Z" fill="#2EEECE"/>
<path d="M27.0883 19.8303C27.2649 19.8303 27.4371 19.8734 27.6021 19.9595C27.7686 20.0456 27.915 20.1848 28.0413 20.3786L30.7941 24.3843L33.6215 20.3786C33.7492 20.1848 33.8928 20.047 34.0521 19.9638C34.2128 19.8805 34.3721 19.8389 34.5329 19.8389C34.6606 19.8389 34.7812 19.8619 34.8974 19.9093C35.0137 19.9566 35.117 20.0198 35.2089 20.1001C35.3007 20.1805 35.3725 20.2724 35.4242 20.3786C35.4773 20.4833 35.5031 20.5967 35.5031 20.7187C35.5031 20.802 35.4873 20.8881 35.4572 20.9756C35.427 21.0646 35.3782 21.1522 35.3122 21.2412L32.037 25.6272L35.4199 30.2874C35.5361 30.4539 35.5935 30.619 35.5935 30.7855C35.5935 30.9175 35.5619 31.0424 35.4988 31.1586C35.4356 31.2749 35.351 31.3768 35.2462 31.4658C35.1414 31.5548 35.0209 31.6251 34.8859 31.6767C34.751 31.7299 34.6133 31.7557 34.4755 31.7557C34.309 31.7557 34.1482 31.7155 33.9904 31.6351C33.8325 31.5548 33.6933 31.4213 33.5713 31.2333L30.6104 26.9376L27.6093 31.2419C27.4816 31.4299 27.3395 31.5648 27.1816 31.648C27.0338 31.7255 26.8845 31.7643 26.7338 31.7643C26.7238 31.7643 26.7137 31.7643 26.7037 31.7643C26.5759 31.7643 26.4539 31.7413 26.3348 31.694C26.2157 31.6466 26.1109 31.582 26.0191 31.4988C25.9272 31.4155 25.8555 31.3208 25.8038 31.2132C25.7507 31.1055 25.7248 30.9907 25.7248 30.8687C25.7248 30.6922 25.788 30.5156 25.9157 30.3377L29.3574 25.6272L26.1482 21.2742C26.032 21.1192 25.9746 20.957 25.9746 20.7847C25.9746 20.657 26.0047 20.5365 26.0664 20.4202C26.1267 20.3039 26.21 20.2035 26.3147 20.1174C26.4195 20.0312 26.5386 19.9624 26.6707 19.9107C26.8027 19.8576 26.9419 19.8318 27.0854 19.8318M27.0854 18.54C26.7797 18.54 26.4798 18.5974 26.1956 18.7094C25.9387 18.8113 25.7048 18.9476 25.4966 19.117C25.2555 19.3136 25.0618 19.5504 24.9211 19.8217C24.7632 20.1231 24.6829 20.4475 24.6829 20.7862C24.6829 21.234 24.8307 21.6689 25.112 22.0449L27.7557 25.6315L24.8738 29.5756C24.8738 29.5756 24.8694 29.5813 24.868 29.5842C24.581 29.9846 24.4346 30.4166 24.4346 30.8687C24.4346 31.1888 24.5049 31.4945 24.6441 31.7801C24.7675 32.0341 24.9383 32.2623 25.1522 32.4546C25.3589 32.6427 25.5985 32.7919 25.8626 32.8953C26.1253 32.9986 26.4008 33.0531 26.6836 33.056C26.7008 33.056 26.718 33.056 26.7338 33.056C27.0955 33.056 27.4486 32.967 27.783 32.7905C28.1274 32.6097 28.426 32.3341 28.6728 31.9738L30.6046 29.2053L32.4992 31.9537C32.7431 32.3255 33.0488 32.6068 33.4062 32.7876C33.7449 32.9598 34.1052 33.0474 34.4769 33.0474C34.7754 33.0474 35.0711 32.9914 35.3553 32.8809C35.6222 32.7776 35.8662 32.634 36.0801 32.4532C36.3068 32.2623 36.4934 32.0356 36.6341 31.7786C36.8034 31.4701 36.8881 31.1357 36.8881 30.7855C36.8881 30.3563 36.7474 29.9286 36.4805 29.5469C36.4762 29.5411 36.4719 29.5354 36.4676 29.5282L33.643 25.6373L36.3499 22.0133C36.4948 21.8196 36.6068 21.61 36.6814 21.3947C36.7589 21.1708 36.7977 20.9426 36.7977 20.7187C36.7977 20.3958 36.7259 20.0872 36.5824 19.8016C36.4547 19.5461 36.2796 19.3208 36.0643 19.1314C35.8633 18.9548 35.6351 18.8142 35.3854 18.7137C35.1142 18.6046 34.8285 18.5487 34.5358 18.5487C34.1683 18.5487 33.8067 18.6391 33.4608 18.817C33.1091 18.9993 32.8049 19.2792 32.5566 19.6495L30.8084 22.1253L29.112 19.6581C28.8637 19.2849 28.5551 19.0007 28.1949 18.8142C27.8447 18.6333 27.4715 18.5415 27.0869 18.5415L27.0854 18.54Z" fill="#1E1F1F"/>
<path d="M40.2784 32.3846C40.0703 32.3846 39.865 32.3516 39.667 32.2856C39.456 32.2153 39.2637 32.1062 39.0972 31.9627C38.9278 31.8177 38.79 31.6354 38.6881 31.4216C38.5833 31.202 38.5288 30.9523 38.5288 30.6781V20.8855C38.5288 20.6143 38.5819 20.3631 38.6852 20.1421C38.7886 19.9225 38.9292 19.7359 39.1058 19.5866C39.2737 19.446 39.4646 19.3383 39.6741 19.2694C39.8736 19.2034 40.0789 19.1704 40.2855 19.1704C40.4922 19.1704 40.6974 19.2034 40.8955 19.2694C41.1051 19.3398 41.2974 19.446 41.4639 19.5866C41.6404 19.7359 41.7825 19.9225 41.8858 20.1421C41.9906 20.3645 42.0423 20.6143 42.0423 20.8855V30.6781C42.0423 30.9508 41.9892 31.2006 41.8844 31.4201C41.7811 31.6369 41.639 31.8206 41.4639 31.9684C41.2959 32.1105 41.1022 32.2181 40.8883 32.287C40.6903 32.3516 40.4836 32.3846 40.2769 32.3846H40.2784Z" fill="#2EEECE"/>
<path d="M40.2868 19.8146C40.4246 19.8146 40.561 19.8361 40.693 19.8806C40.825 19.9251 40.9442 19.9911 41.0489 20.0801C41.1537 20.1691 41.2384 20.2811 41.3015 20.416C41.3647 20.5509 41.3963 20.7073 41.3963 20.8839V30.6765C41.3963 30.853 41.3647 31.008 41.3015 31.1415C41.2384 31.2735 41.1537 31.3855 41.0489 31.473C40.9442 31.562 40.8236 31.628 40.6887 31.6725C40.5538 31.717 40.416 31.7385 40.2782 31.7385C40.1404 31.7385 40.0041 31.717 39.872 31.6725C39.74 31.628 39.6223 31.562 39.519 31.473C39.4171 31.384 39.3338 31.2735 39.2707 31.1415C39.2075 31.0094 39.176 30.8544 39.176 30.6765V20.8839C39.176 20.7073 39.2075 20.5509 39.2707 20.416C39.3338 20.2811 39.4185 20.1691 39.5233 20.0801C39.6281 19.9911 39.7472 19.9251 39.8792 19.8806C40.0113 19.8361 40.1476 19.8146 40.2854 19.8146M40.2854 18.5229C40.0098 18.5229 39.7357 18.5674 39.4716 18.6549C39.1831 18.7511 38.9205 18.8975 38.6909 19.0912C38.4426 19.3008 38.2431 19.562 38.101 19.8663C37.9574 20.1734 37.8828 20.5164 37.8828 20.8824V30.675C37.8828 31.0453 37.9574 31.3898 38.1053 31.6969C38.2459 31.9897 38.4368 32.2437 38.6751 32.449C38.9047 32.647 39.1688 32.7977 39.463 32.8953C39.7257 32.9829 39.9998 33.0274 40.2782 33.0274C40.5567 33.0274 40.8265 32.9829 41.0906 32.8968C41.3834 32.8006 41.6503 32.6542 41.8814 32.4576C42.1268 32.2509 42.3234 31.994 42.467 31.6955C42.6148 31.3869 42.6894 31.0439 42.6894 30.6736V20.881C42.6894 20.515 42.6162 20.172 42.4727 19.8648C42.3292 19.5591 42.1311 19.2994 41.8828 19.0898C41.6517 18.8961 41.3891 18.7482 41.102 18.6535C40.8365 18.5659 40.5624 18.52 40.2868 18.52L40.2854 18.5229Z" fill="#1E1F1F"/>
</g>
<defs>
<clipPath id="clip0_146_618">
<rect width="50" height="50" fill="white" transform="translate(0.501953)"/>
</clipPath>
</defs>
</svg>
