<svg width="56" height="50" viewBox="0 0 56 50" fill="none" xmlns="http://www.w3.org/2000/svg">
<g clip-path="url(#clip0_146_598)">
<path d="M43.9316 48.2557V15.5406C43.9316 15.3057 44.0747 15.1162 44.2514 15.1162H53.2049C53.3816 15.1162 53.5247 15.3069 53.5247 15.5406V48.2557H43.9316Z" fill="white"/>
<path d="M3.03076 48.2559V34.1943C3.03076 34.0931 3.17378 34.0117 3.35053 34.0117H12.304C12.4808 34.0117 12.6238 34.0931 12.6238 34.1943V48.2559H3.03076Z" fill="white"/>
<path d="M54.9782 48.2558H54.3968V21.9186C54.3968 21.4372 54.0061 21.0465 53.5247 21.0465C53.0433 21.0465 52.6526 21.4372 52.6526 21.9186V48.2558H43.9317V15.407C43.9317 15.2465 44.0619 15.1163 44.2224 15.1163H52.3619C52.5224 15.1163 52.6526 15.2465 52.6526 15.407V18.4302C52.6526 18.9116 53.0433 19.3023 53.5247 19.3023C54.0061 19.3023 54.3968 18.9116 54.3968 18.4302V15.407C54.3956 14.2837 53.4852 13.3732 52.3619 13.3721H44.2224C43.0991 13.3732 42.1887 14.2837 42.1875 15.407V48.2558H40.9863V25.8721C40.9852 24.7488 40.0747 23.8383 38.9515 23.8372H30.8119C29.6887 23.8383 28.7782 24.7488 28.777 25.8721V48.2558H27.5759V20.0581C27.5747 18.9349 26.6643 18.0244 25.541 18.0232H17.4015C16.2782 18.0244 15.3677 18.9349 15.3666 20.0581V48.2558H14.1654V35.1744C14.1643 34.0511 13.2538 33.1407 12.1305 33.1395H3.98984C2.86658 33.1407 1.95612 34.0511 1.95495 35.1744V46.4535C1.95495 46.9348 2.34565 47.3255 2.82705 47.3255C3.30844 47.3255 3.69914 46.9348 3.69914 46.4535V35.1744C3.69914 35.0139 3.82937 34.8837 3.98984 34.8837H12.1294C12.2898 34.8837 12.4201 35.0139 12.4201 35.1744V48.2558H1.37356C0.892163 48.2558 0.501465 48.6465 0.501465 49.1279C0.501465 49.6093 0.892163 50 1.37356 50H54.9782C55.4596 50 55.8503 49.6093 55.8503 49.1279C55.8503 48.6465 55.4596 48.2558 54.9782 48.2558Z" fill="#1E1F1F"/>
<path d="M17.1094 48.2557V20.058C17.1094 19.8976 17.2396 19.7673 17.4001 19.7673H25.5396C25.7001 19.7673 25.8303 19.8976 25.8303 20.058V48.2557H17.1094Z" fill="white"/>
<path d="M30.521 48.2557V25.872C30.521 25.7115 30.6512 25.5813 30.8117 25.5813H38.9512C39.1117 25.5813 39.2419 25.7115 39.2419 25.872V48.2557H30.521Z" fill="#2EEECE"/>
<path d="M48.292 0C46.5268 0 45.0943 1.43023 45.0943 3.19651C45.0943 3.72907 45.2268 4.25349 45.4815 4.72093L37.1978 11.4605C35.985 10.1814 33.9652 10.1267 32.6862 11.3395C32.5955 11.4256 32.5094 11.5174 32.4292 11.6128L24.6676 7.88953C24.6676 7.87558 24.6676 7.86163 24.6676 7.84767C24.6687 6.0814 23.2385 4.64884 21.4734 4.64651C19.7071 4.64535 18.2745 6.07558 18.2722 7.8407C18.2722 8.39884 18.4164 8.94651 18.6931 9.43023L9.24547 19.9942C7.60361 19.336 5.73966 20.1326 5.08152 21.7744C4.42338 23.4163 5.21989 25.2802 6.86175 25.9384C8.50361 26.5965 10.3676 25.8 11.0257 24.1581C11.4385 23.1279 11.2885 21.9558 10.6292 21.0628L19.9397 10.6523C21.4094 11.4547 23.2501 10.986 24.1559 9.57674L31.7164 13.2035C31.4641 14.9512 32.6757 16.5733 34.4234 16.8256C36.171 17.0779 37.7931 15.8663 38.0455 14.1186C38.0978 13.7593 38.0873 13.3942 38.0176 13.0384L46.7059 5.96977C48.2385 6.84535 50.192 6.31279 51.0675 4.78023C51.9431 3.24767 51.4106 1.29419 49.878 0.418605C49.3955 0.145349 48.8478 0 48.292 0Z" fill="#1E1F1F"/>
<path d="M8.05945 24.4187C7.25712 24.4187 6.60596 23.7675 6.60596 22.9652C6.60596 22.1629 7.25712 21.5117 8.05945 21.5117C8.86177 21.5117 9.51293 22.1629 9.51293 22.9652C9.51293 23.7675 8.86177 24.4175 8.05945 24.4187Z" fill="#2EEECE"/>
<path d="M21.4701 9.30224C20.6678 9.30224 20.0166 8.65108 20.0166 7.84875C20.0166 7.04643 20.6678 6.39526 21.4701 6.39526C22.2724 6.39526 22.9236 7.04643 22.9236 7.84875C22.9236 8.65108 22.2724 9.30108 21.4701 9.30224Z" fill="#2EEECE"/>
<path d="M34.8817 15.1162C34.0794 15.1162 33.4282 14.465 33.4282 13.6627C33.4282 12.8604 34.0794 12.2092 34.8817 12.2092C35.684 12.2092 36.3352 12.8604 36.3352 13.6627C36.3352 14.465 35.684 15.115 34.8817 15.1162Z" fill="#2EEECE"/>
<path d="M48.2924 4.65112C47.49 4.65112 46.8389 3.99995 46.8389 3.19763C46.8389 2.3953 47.49 1.74414 48.2924 1.74414C49.0947 1.74414 49.7458 2.3953 49.7458 3.19763C49.7458 3.99995 49.0947 4.64995 48.2924 4.65112Z" fill="#2EEECE"/>
</g>
<defs>
<clipPath id="clip0_146_598">
<rect width="55.3488" height="50" fill="white" transform="translate(0.501465)"/>
</clipPath>
</defs>
</svg>
