<svg width="54" height="54" viewBox="0 0 54 54" fill="none" xmlns="http://www.w3.org/2000/svg">
<path fill-rule="evenodd" clip-rule="evenodd" d="M7.68464 36.2273C10.1354 33.7765 13.4593 32.3997 16.9251 32.3997H38.5251C41.991 32.3997 45.3148 33.7765 47.7657 36.2273C50.2163 38.6779 51.5931 42.0018 51.5931 45.4677V50.8677C51.5931 52.1203 50.5777 53.1357 49.3251 53.1357C48.0725 53.1357 47.0571 52.1203 47.0571 50.8677V45.4677C47.0571 43.2049 46.1582 41.0346 44.5581 39.4347C42.9581 37.8346 40.7879 36.9357 38.5251 36.9357H16.9251C14.6623 36.9357 12.4921 37.8346 10.8921 39.4347C9.29202 41.0346 8.39312 43.2049 8.39312 45.4677V50.8677C8.39312 52.1203 7.3777 53.1357 6.12512 53.1357C4.87253 53.1357 3.85712 52.1203 3.85712 50.8677V45.4677C3.85712 42.0018 5.23392 38.6779 7.68464 36.2273Z" fill="#1E1F1F"/>
<path fill-rule="evenodd" clip-rule="evenodd" d="M27.7253 4.536C23.0133 4.536 19.1933 8.3559 19.1933 13.068C19.1933 17.7801 23.0133 21.6 27.7253 21.6C32.4374 21.6 36.2573 17.7801 36.2573 13.068C36.2573 8.3559 32.4374 4.536 27.7253 4.536ZM14.6573 13.068C14.6573 5.85075 20.5081 0 27.7253 0C34.9426 0 40.7933 5.85075 40.7933 13.068C40.7933 20.2853 34.9426 26.136 27.7253 26.136C20.5081 26.136 14.6573 20.2853 14.6573 13.068Z" fill="#2EEECE"/>
</svg>
