<svg width="31" height="30" viewBox="0 0 31 30" fill="none" xmlns="http://www.w3.org/2000/svg">
<path d="M24.9805 15.0146L28.4504 28.0551C28.996 30.1059 27.1957 29.7097 26.3635 29.3881C25.669 29.1197 22.8947 28.0409 22.8947 28.0409C22.8947 28.0409 21.0256 29.0548 20.5205 29.3232C19.4197 29.9081 18.2975 29.7624 17.8143 28.3644C17.8017 28.3277 16.6156 24.3057 15.5 20.5212V15.0146H24.9805Z" fill="#0060FF"/>
<path d="M6.02831 15.0383L2.553 28.0993C2.00647 30.1533 3.80959 29.7565 4.64312 29.4344C5.33876 29.1656 8.1174 28.0851 8.1174 28.0851C8.1174 28.0851 9.98941 29.1006 10.4953 29.3694C11.5978 29.9552 12.7218 29.8093 13.2058 28.4091C13.2185 28.3724 14.4064 24.344 15.5238 20.5536V15.0383H6.02831Z" fill="#0060FF"/>
<path d="M15.5239 15.0383V20.5536C16.3791 23.4544 16.9185 25.2817 17.2979 26.5654C18.3648 26.355 19.3718 24.5268 20.3921 24.1903C21.4737 23.8335 23.541 24.8338 24.4594 24.1603C25.3779 23.4869 25.0453 21.2145 25.7106 20.2902C25.8452 20.1032 26.0458 19.9377 26.2819 19.7832L25.0194 15.0383H15.5239Z" fill="#0043E0"/>
<path d="M6.13799 15.0383C6.0643 15.2098 5.97869 15.3853 5.88903 15.5625L5.20898 18.1184C5.70362 19.0964 7.80035 19.4883 8.44428 20.3664C9.11776 21.2848 8.80521 23.56 9.72953 24.2253C10.6538 24.8907 12.7123 23.8722 13.797 24.2194C13.9819 24.2785 14.1668 24.3872 14.352 24.5255C14.792 23.0341 14.959 22.4701 15.524 20.5536V15.0383H6.13799Z" fill="#0043E0"/>
<path d="M22.8984 22.9506C21.9814 23.623 19.9173 22.6243 18.8375 22.9804C17.7576 23.3366 16.6926 25.3673 15.5555 25.3723C14.4184 25.3773 13.3356 23.3561 12.2526 23.0095C11.1696 22.6629 9.11445 23.6798 8.19158 23.0154C7.26871 22.3511 7.58072 20.0795 6.9083 19.1625C6.23588 18.2455 3.97548 17.8602 3.61933 16.7803C3.26319 15.7004 4.85086 14.046 4.84585 12.9089C4.84083 11.7718 3.23862 10.1315 3.58522 9.0485C3.93183 7.96552 6.18874 7.56026 6.85304 6.6374C7.51734 5.71453 7.18531 3.44569 8.10228 2.77327C9.01925 2.10086 11.0833 3.09958 12.1632 2.74343C13.2431 2.38728 14.3081 0.356586 15.4451 0.351572C16.5822 0.346545 17.6651 2.36777 18.748 2.71438C19.831 3.06099 21.8862 2.04409 22.8091 2.7084C23.7319 3.3727 23.4199 5.64438 24.0924 6.56135C24.7648 7.47832 27.0252 7.86365 27.3813 8.94353C27.7375 10.0234 26.1498 11.6778 26.1548 12.8149C26.1598 13.952 27.762 15.5924 27.4154 16.6754C27.0688 17.7583 24.8119 18.1636 24.1476 19.0865C23.4833 20.0093 23.8154 22.2782 22.8984 22.9506Z" fill="#52C7FF"/>
<path d="M22.8544 12.862C22.8544 14.8124 22.0796 16.683 20.7004 18.0622C19.3212 19.4414 17.4506 20.2162 15.5002 20.2162C13.5497 20.2162 11.6792 19.4414 10.3 18.0622C8.92081 16.683 8.146 14.8125 8.146 12.862C8.146 11.8962 8.33622 10.9399 8.7058 10.0477C9.07538 9.15542 9.61709 8.3447 10.3 7.6618C10.9829 6.9789 11.7936 6.4372 12.6859 6.06761C13.5781 5.69803 14.5344 5.50781 15.5002 5.50781C17.4506 5.50781 19.3212 6.28263 20.7004 7.6618C22.0796 9.04098 22.8544 10.9115 22.8544 12.862Z" fill="#009FFF"/>
<path d="M19.9115 11.9204C19.5849 12.5502 18.718 13.2314 18.5339 13.8099C18.2863 14.5878 18.9396 16.1133 18.2821 16.5971C17.6246 17.0809 16.3678 15.9685 15.5515 15.9734C14.9683 15.9769 14.1075 16.5538 13.4215 16.7097C13.3901 17.2286 13.4191 17.8166 13.7254 18.0364C14.3888 18.5122 15.7494 17.3833 16.5657 17.3783C17.3821 17.3734 18.7562 18.4858 19.4137 18.002C20.0712 17.5182 19.418 15.8754 19.6656 15.0975C19.9131 14.3196 21.3956 13.3564 21.1387 12.5815C21.0165 12.213 20.4351 12.046 19.9115 11.9204Z" fill="#0082FF"/>
<path d="M18.3714 16.6882C17.715 17.1712 16.343 16.0606 15.5279 16.0655C14.7129 16.0705 13.3544 17.1976 12.6922 16.7225C12.0299 16.2475 12.6622 14.5994 12.4056 13.8258C12.1491 13.0522 10.6573 12.1085 10.9045 11.3318C11.1517 10.5552 12.9144 10.6473 13.5709 10.1642C14.2274 9.68115 14.6639 7.97076 15.4789 7.96583C16.294 7.96089 16.7511 9.66588 17.4134 10.141C18.0757 10.616 19.8372 10.5026 20.0938 11.2762C20.3503 12.0499 18.87 13.0115 18.6229 13.7882C18.3757 14.5648 19.0279 16.2051 18.3714 16.6882Z" fill="#E7EDFB"/>
</svg>
