<svg width="23" height="24" viewBox="0 0 23 24" fill="none" xmlns="http://www.w3.org/2000/svg">
<path d="M21.1262 17.29C20.498 16.7632 16.8137 14.4301 16.2013 14.5372C15.9138 14.5882 15.6939 14.8333 15.1053 15.5355C14.833 15.8812 14.5341 16.2049 14.2111 16.5037C13.6194 16.3608 13.0467 16.1485 12.5048 15.8712C10.3797 14.8365 8.66283 13.1192 7.62881 10.9938C7.35155 10.4519 7.13924 9.87912 6.99631 9.28744C7.29512 8.9645 7.61883 8.66554 7.96447 8.39331C8.66597 7.80466 8.91178 7.58616 8.96281 7.29722C9.06991 6.68341 6.73469 3.00053 6.21 2.37234C5.99006 2.11216 5.79025 1.9375 5.53437 1.9375C4.79262 1.9375 1.4375 6.08613 1.4375 6.62375C1.4375 6.66759 1.50937 10.9866 6.96397 16.536C12.5134 21.9906 16.8324 22.0625 16.8762 22.0625C17.4139 22.0625 21.5625 18.7074 21.5625 17.9656C21.5625 17.7097 21.3878 17.5099 21.1262 17.29Z" fill="#2EEECE"/>
<path d="M16.5312 11.2812H17.9688C17.967 9.75678 17.3607 8.29524 16.2827 7.21728C15.2048 6.13931 13.7432 5.53296 12.2188 5.53125V6.96875C13.3621 6.96989 14.4584 7.42461 15.2669 8.23311C16.0754 9.04162 16.5301 10.1379 16.5312 11.2812Z" fill="#2EEECE"/>
<path d="M20.125 11.2812H21.5625C21.5596 8.80401 20.5743 6.42905 18.8226 4.67737C17.071 2.9257 14.696 1.94035 12.2188 1.9375V3.375C14.3149 3.37747 16.3244 4.21124 17.8066 5.69342C19.2888 7.17559 20.1225 9.18514 20.125 11.2812Z" fill="#2EEECE"/>
</svg>
