<svg width="17" height="17" viewBox="0 0 17 17" fill="none" xmlns="http://www.w3.org/2000/svg">
<path d="M8.5 16C12.6421 16 16 12.6421 16 8.5C16 4.35786 12.6421 1 8.5 1C4.35786 1 1 4.35786 1 8.5C1 12.6421 4.35786 16 8.5 16Z" stroke="#5B687A" stroke-linecap="round" stroke-linejoin="round"/>
<path d="M6.31842 6.25018C6.49475 5.74893 6.84278 5.32626 7.30089 5.05703C7.75899 4.7878 8.29759 4.68939 8.8213 4.77922C9.34501 4.86905 9.82003 5.14133 10.1622 5.54783C10.5044 5.95433 10.6917 6.46882 10.6909 7.00018C10.6909 8.50018 8.44092 9.25018 8.44092 9.25018" stroke="#5B687A" stroke-linecap="round" stroke-linejoin="round"/>
<path d="M8.5 12.25H8.51012" stroke="#5B687A" stroke-linecap="round" stroke-linejoin="round"/>
</svg>
