<svg width="32" height="32" viewBox="0 0 32 32" fill="none" xmlns="http://www.w3.org/2000/svg">
<path d="M30.9126 4.19165H1.08744C0.486875 4.19165 0 4.67853 0 5.27909V21.4898C0 22.0903 0.486875 22.5772 1.08744 22.5772H30.9126C31.5131 22.5772 32 22.0903 32 21.4898V5.27909C32 4.67853 31.5131 4.19165 30.9126 4.19165Z" fill="white"/>
<path d="M22.214 25.9221H18.5222V24.4639H13.478V25.9221H9.78609C9.26515 25.9221 8.84277 26.3444 8.84277 26.8654C8.84277 27.3863 9.26509 27.8087 9.78609 27.8087H22.214C22.735 27.8087 23.1573 27.3864 23.1573 26.8654C23.1573 26.3444 22.735 25.9221 22.214 25.9221Z" fill="white"/>
</svg>
