<svg width="32" height="32" viewBox="0 0 32 32" fill="none" xmlns="http://www.w3.org/2000/svg">
<path d="M29.3894 8.86762C29.3761 9.41962 28.9187 9.85695 28.3667 9.84495C27.8147 9.83162 27.3774 9.37428 27.3894 8.82228L27.4441 6.41428L25.0374 6.35962C24.4854 6.34628 24.0481 5.88895 24.0601 5.33695C24.0734 4.78495 24.5307 4.34762 25.0827 4.35962L28.4907 4.43828C29.0427 4.45028 29.4801 4.90762 29.4667 5.45962L29.3894 8.86762Z" fill="white"/>
<path d="M8.10267 12.7944V28.9824C8.10267 29.913 7.34933 30.6664 6.41867 30.6664H3.684C2.75333 30.6664 2 29.913 2 28.9824V12.7944C2 11.865 2.75333 11.1104 3.684 11.1104H6.41867C7.34933 11.1104 8.10267 11.865 8.10267 12.7944Z" fill="white"/>
<path d="M23.1454 20.9997V28.9823C23.1454 29.429 22.9681 29.857 22.6521 30.173C22.3361 30.489 21.9081 30.6663 21.4614 30.6663H18.7267C18.2801 30.6663 17.8521 30.489 17.5361 30.173C17.2201 29.857 17.0427 29.429 17.0427 28.9823V20.9997C17.0427 20.553 17.2201 20.125 17.5361 19.809C17.8521 19.493 18.2801 19.3157 18.7267 19.3157H21.4614C21.9081 19.3157 22.3361 19.493 22.6521 19.809C22.9681 20.125 23.1454 20.553 23.1454 20.9997Z" fill="white"/>
<path d="M15.6239 16.8969V28.9822C15.6239 29.9129 14.8706 30.6662 13.9399 30.6662H11.2052C10.2746 30.6662 9.52124 29.9129 9.52124 28.9822V16.8969C9.52124 16.4502 9.69857 16.0222 10.0146 15.7062C10.3306 15.3902 10.7586 15.2129 11.2052 15.2129H13.9399C14.8706 15.2129 15.6239 15.9676 15.6239 16.8969Z" fill="white"/>
<path d="M30.6666 16.8969V28.9822C30.6666 29.9129 29.9133 30.6662 28.9826 30.6662H26.248C25.3173 30.6662 24.564 29.9129 24.564 28.9822V16.8969C24.564 16.4502 24.7413 16.0222 25.0573 15.7062C25.3733 15.3902 25.8013 15.2129 26.248 15.2129H28.9826C29.9133 15.2129 30.6666 15.9676 30.6666 16.8969Z" fill="white"/>
<path d="M3.60004 3.79961C3.15737 3.46894 3.06804 2.84094 3.40004 2.39961C3.73071 1.95828 4.35737 1.86894 4.80004 2.19961L12.7374 8.15294H16.5067C16.8147 8.15294 17.104 8.29428 17.2934 8.53561L20.3427 12.4169L27.4094 5.04228C27.7907 4.64361 28.424 4.63028 28.8227 5.01294C29.2214 5.39428 29.2347 6.02761 28.8534 6.42628L20.9894 14.6316C20.7894 14.8409 20.508 14.9529 20.2187 14.9383C19.9294 14.9249 19.66 14.7849 19.4814 14.5569L16.0214 10.1529H12.404C12.188 10.1529 11.9774 10.0836 11.804 9.95294L3.60004 3.79961Z" fill="white"/>
</svg>
