<svg width="24" height="24" viewBox="0 0 24 24" fill="none" xmlns="http://www.w3.org/2000/svg">
<path fill-rule="evenodd" clip-rule="evenodd" d="M1.8 0C2.24183 0 2.6 0.301407 2.6 0.67321V22.2955C2.6 22.6673 2.24183 22.9688 1.8 22.9688C1.35817 22.9688 1 22.6673 1 22.2955V0.67321C1 0.301407 1.35817 0 1.8 0Z" fill="#001E32"/>
<path fill-rule="evenodd" clip-rule="evenodd" d="M1 22.3625C1 21.9207 1.30127 21.5625 1.67291 21.5625H23.2958C23.6675 21.5625 23.9688 21.9207 23.9688 22.3625C23.9688 22.8043 23.6675 23.1625 23.2958 23.1625H1.67291C1.30127 23.1625 1 22.8043 1 22.3625Z" fill="#001E32"/>
<path fill-rule="evenodd" clip-rule="evenodd" d="M18.8566 12.6729L16.9541 11.396C16.6168 11.1696 16.1764 11.169 15.8385 11.3943L12.2231 13.8052L8.06193 11.6219C7.78966 11.4791 7.46692 11.469 7.18626 11.5945L1.52783 14.1258C1.02212 14.352 0.795549 14.9454 1.02178 15.4511C1.248 15.9568 1.84136 16.1834 2.34707 15.9571L7.56101 13.6247L11.8183 15.8584C12.1433 16.0289 12.5355 16.0083 12.8408 15.8047L16.3932 13.4358L18.3503 14.7493C18.7143 14.9936 19.1948 14.9733 19.5368 14.699L21.8228 12.866V22.2133C21.8228 22.7673 22.2719 23.2164 22.8259 23.2164C23.3799 23.2164 23.829 22.7673 23.829 22.2133V10.7758C23.829 10.39 23.6077 10.0384 23.2599 9.87147C22.9121 9.70454 22.4994 9.75189 22.1984 9.99324L18.8566 12.6729ZM7.74262 11.8226C7.59837 11.7918 7.44635 11.8068 7.30876 11.8684L1.65034 14.3996C1.29586 14.5582 1.13705 14.9741 1.29562 15.3286C1.39134 15.5425 1.58082 15.6852 1.79395 15.7298C1.58091 15.6852 1.39153 15.5425 1.29584 15.3286C1.13727 14.9742 1.29608 14.5582 1.65055 14.3997L7.30898 11.8684C7.4465 11.8069 7.59843 11.7919 7.74262 11.8226ZM7.57159 13.2915L11.9576 15.5927C12.0155 15.6231 12.0764 15.6448 12.1386 15.658C12.0765 15.6448 12.0157 15.6231 11.9579 15.5927L7.57166 13.2915L7.57159 13.2915ZM16.3939 13.0749L18.5175 14.5002C18.5942 14.5518 18.6784 14.5865 18.7651 14.6046C18.6785 14.5865 18.5944 14.5518 18.5177 14.5003L16.394 13.0749L16.3939 13.0749ZM22.1228 12.2411V22.2133C22.1228 22.537 22.3415 22.8096 22.6392 22.8913C22.3416 22.8095 22.123 22.5369 22.123 22.2133V12.2409L22.1228 12.2411ZM22.968 10.0872C22.7657 10.0454 22.5517 10.0944 22.386 10.2273L18.8724 13.0447L18.8726 13.0448L22.3862 10.2273C22.5519 10.0945 22.7658 10.0455 22.968 10.0872ZM16.5392 11.5407C16.3579 11.5027 16.165 11.5371 16.0049 11.6439L12.2415 14.1535L12.2416 14.1536L16.0051 11.6439C16.1652 11.5372 16.358 11.5028 16.5392 11.5407Z" fill="#001E32"/>
<path fill-rule="evenodd" clip-rule="evenodd" d="M23.8008 3.78026C23.9357 3.93872 23.9935 4.1488 23.9586 4.35397L23.6281 6.29764C23.563 6.68047 23.1998 6.93803 22.817 6.87292C22.4342 6.80782 22.1766 6.44469 22.2417 6.06187L22.4315 4.94617L21.2998 4.95559C20.9115 4.95882 20.5941 4.64665 20.5908 4.25834C20.5876 3.87003 20.8998 3.55262 21.2881 3.54939L23.2596 3.53298C23.4677 3.53125 23.6659 3.6218 23.8008 3.78026Z" fill="#64CEB8"/>
<path fill-rule="evenodd" clip-rule="evenodd" d="M22.729 4.79649C22.9765 5.09572 22.9346 5.53893 22.6353 5.78644L18.8385 8.92707C18.5957 9.12785 18.2491 9.14268 17.9901 8.96336L15.9516 7.55202L12.3663 10.0182C12.1487 10.1679 11.8655 10.183 11.6332 10.0573L7.39952 7.76601L4.81311 8.97533C4.46134 9.13981 4.04284 8.98798 3.87836 8.63621C3.71389 8.28444 3.86572 7.86593 4.21749 7.70146L7.12482 6.34208C7.32668 6.2477 7.56132 6.25459 7.7573 6.36065L11.924 8.61569L15.5544 6.11842C15.795 5.95289 16.1129 5.95337 16.3531 6.11963L18.3526 7.50397L21.739 4.70285C22.0382 4.45534 22.4815 4.49727 22.729 4.79649Z" fill="#64CEB8"/>
</svg>
