<svg width="28" height="28" viewBox="0 0 28 28" fill="none" xmlns="http://www.w3.org/2000/svg">
<path d="M23.625 17.5H4.375C3.67881 17.5 3.01113 17.7766 2.51884 18.2688C2.02656 18.7611 1.75 19.4288 1.75 20.125V23.625C1.75 24.3212 2.02656 24.9889 2.51884 25.4812C3.01113 25.9734 3.67881 26.25 4.375 26.25H23.625C24.3212 26.25 24.9889 25.9734 25.4812 25.4812C25.9734 24.9889 26.25 24.3212 26.25 23.625V20.125C26.25 19.4288 25.9734 18.7611 25.4812 18.2688C24.9889 17.7766 24.3212 17.5 23.625 17.5ZM24.5 23.625C24.5 23.8571 24.4078 24.0796 24.2437 24.2437C24.0796 24.4078 23.8571 24.5 23.625 24.5H4.375C4.14294 24.5 3.92038 24.4078 3.75628 24.2437C3.59219 24.0796 3.5 23.8571 3.5 23.625V20.125C3.5 19.8929 3.59219 19.6704 3.75628 19.5063C3.92038 19.3422 4.14294 19.25 4.375 19.25H23.625C23.8571 19.25 24.0796 19.3422 24.2437 19.5063C24.4078 19.6704 24.5 19.8929 24.5 20.125V23.625Z" fill="black"/>
<path d="M21 21H7C6.76794 21 6.54538 21.0922 6.38128 21.2563C6.21719 21.4204 6.125 21.6429 6.125 21.875C6.125 22.1071 6.21719 22.3296 6.38128 22.4937C6.54538 22.6578 6.76794 22.75 7 22.75H21C21.2321 22.75 21.4546 22.6578 21.6187 22.4937C21.7828 22.3296 21.875 22.1071 21.875 21.875C21.875 21.6429 21.7828 21.4204 21.6187 21.2563C21.4546 21.0922 21.2321 21 21 21ZM14 15.75C15.3845 15.75 16.7378 15.3395 17.889 14.5703C19.0401 13.8011 19.9373 12.7079 20.4672 11.4288C20.997 10.1497 21.1356 8.74224 20.8655 7.38437C20.5954 6.0265 19.9287 4.77922 18.9497 3.80026C17.9708 2.82129 16.7235 2.1546 15.3656 1.88451C14.0078 1.61441 12.6003 1.75303 11.3212 2.28285C10.0421 2.81266 8.94888 3.70987 8.17971 4.86101C7.41054 6.01216 7 7.36553 7 8.75C7.00208 10.6059 7.74025 12.3851 9.05255 13.6974C10.3649 15.0098 12.1441 15.7479 14 15.75ZM14 3.5C15.0384 3.5 16.0534 3.80791 16.9167 4.38479C17.7801 4.96167 18.453 5.7816 18.8504 6.74092C19.2477 7.70023 19.3517 8.75583 19.1491 9.77423C18.9466 10.7926 18.4465 11.7281 17.7123 12.4623C16.9781 13.1965 16.0426 13.6966 15.0242 13.8991C14.0058 14.1017 12.9502 13.9977 11.9909 13.6004C11.0316 13.203 10.2117 12.5301 9.63478 11.6667C9.05791 10.8034 8.75 9.78835 8.75 8.75C8.75139 7.35804 9.30496 6.02349 10.2892 5.03923C11.2735 4.05496 12.608 3.50139 14 3.5Z" fill="#64CEB8"/>
<path d="M13.125 9.40625H13.3438V10.7188H12.25C12.076 10.7188 11.909 10.7879 11.786 10.911C11.6629 11.034 11.5938 11.201 11.5938 11.375C11.5938 11.549 11.6629 11.716 11.786 11.839C11.909 11.9621 12.076 12.0312 12.25 12.0312H13.3438V12.25C13.3438 12.424 13.4129 12.591 13.536 12.714C13.659 12.8371 13.826 12.9062 14 12.9062C14.174 12.9062 14.341 12.8371 14.464 12.714C14.5871 12.591 14.6562 12.424 14.6562 12.25V12.0312H14.875C15.3971 12.0312 15.8979 11.8238 16.2671 11.4546C16.6363 11.0854 16.8438 10.5846 16.8438 10.0625C16.8438 9.54036 16.6363 9.0396 16.2671 8.67038C15.8979 8.30117 15.3971 8.09375 14.875 8.09375H14.6562V6.78125H15.75C15.924 6.78125 16.091 6.71211 16.214 6.58904C16.3371 6.46597 16.4062 6.29905 16.4062 6.125C16.4062 5.95095 16.3371 5.78403 16.214 5.66096C16.091 5.53789 15.924 5.46875 15.75 5.46875H14.6562V5.25C14.6562 5.07595 14.5871 4.90903 14.464 4.78596C14.341 4.66289 14.174 4.59375 14 4.59375C13.826 4.59375 13.659 4.66289 13.536 4.78596C13.4129 4.90903 13.3438 5.07595 13.3438 5.25V5.46875H13.125C12.6029 5.46875 12.1021 5.67617 11.7329 6.04538C11.3637 6.4146 11.1562 6.91535 11.1562 7.4375C11.1562 7.95965 11.3637 8.4604 11.7329 8.82962C12.1021 9.19883 12.6029 9.40625 13.125 9.40625ZM14.875 9.40625C15.049 9.40625 15.216 9.47539 15.339 9.59846C15.4621 9.72153 15.5312 9.88845 15.5312 10.0625C15.5312 10.2365 15.4621 10.4035 15.339 10.5265C15.216 10.6496 15.049 10.7188 14.875 10.7188H14.6562V9.40625H14.875ZM13.125 6.78125H13.3438V8.09375H13.125C12.951 8.09375 12.784 8.02461 12.661 7.90154C12.5379 7.77847 12.4688 7.61155 12.4688 7.4375C12.4688 7.26345 12.5379 7.09653 12.661 6.97346C12.784 6.85039 12.951 6.78125 13.125 6.78125Z" fill="#64CEB8"/>
</svg>
