<svg width="28" height="28" viewBox="0 0 28 28" fill="none" xmlns="http://www.w3.org/2000/svg">
<path d="M24.8588 7.00009L19.5213 3.57884C17.1836 2.08806 14.3954 1.46847 11.6463 1.82884L2.51128 3.08009C2.29945 3.10786 2.10509 3.21216 1.96486 3.37335C1.82463 3.53453 1.74822 3.74145 1.75003 3.95509V11.8301C1.75003 12.0622 1.84222 12.2847 2.00631 12.4488C2.17041 12.6129 2.39297 12.7051 2.62503 12.7051H9.62503C10.8648 12.7038 12.0641 12.2639 13.0106 11.4631C13.9571 10.6624 14.5897 9.55252 14.7963 8.33009C16.0559 8.45528 17.2617 8.90443 18.2963 9.63384L21.5513 11.9176C21.8687 12.2142 22.2467 12.4384 22.6592 12.5747C23.0718 12.7109 23.509 12.756 23.9406 12.7068C24.3722 12.6575 24.7881 12.5152 25.1593 12.2895C25.5306 12.0639 25.8484 11.7603 26.0909 11.3998C26.3333 11.0394 26.4946 10.6305 26.5637 10.2016C26.6327 9.77267 26.6077 9.33387 26.4906 8.91552C26.3734 8.49717 26.1668 8.10924 25.8851 7.77853C25.6034 7.44783 25.2532 7.18223 24.8588 7.00009ZM23.8263 10.6401C23.6239 10.7483 23.3952 10.7974 23.1662 10.7819C22.9373 10.7665 22.7173 10.687 22.5313 10.5526L19.25 8.22509C17.7132 7.14406 15.879 6.56627 14 6.57134H9.62503C9.39297 6.57134 9.17041 6.66353 9.00631 6.82762C8.84222 6.99172 8.75003 7.21428 8.75003 7.44634C8.75003 7.6784 8.84222 7.90096 9.00631 8.06506C9.17041 8.22915 9.39297 8.32134 9.62503 8.32134H13.0113C12.8174 9.0722 12.3797 9.73742 11.7668 10.2125C11.1539 10.6876 10.4005 10.9458 9.62503 10.9463H3.50003V4.70759L11.9 3.58759C14.2346 3.27776 16.6038 3.79806 18.5938 5.05759L23.9225 8.43509C24.0995 8.54722 24.2453 8.70229 24.3462 8.88587C24.4472 9.06945 24.5001 9.27558 24.5 9.48509C24.5033 9.71487 24.4418 9.94092 24.3227 10.1374C24.2035 10.3339 24.0315 10.493 23.8263 10.5963V10.6401Z" fill="#001E32"/>
<path d="M24.5 20.1251H21.1575C21.5878 19.3929 21.834 18.5672 21.875 17.7188C21.9307 16.3265 21.431 14.969 20.4858 13.945C19.5406 12.9211 18.2274 12.3145 16.835 12.2588C15.4426 12.2031 14.0851 12.7029 13.0612 13.648C12.0372 14.5932 11.4307 15.9065 11.375 17.2988C11.3399 18.2889 11.5856 19.2688 12.0838 20.1251H8.75C8.51794 20.1251 8.29538 20.2173 8.13128 20.3814C7.96719 20.5455 7.875 20.768 7.875 21.0001V25.3751C7.875 25.6072 7.96719 25.8297 8.13128 25.9938C8.29538 26.1579 8.51794 26.2501 8.75 26.2501H24.5C24.7321 26.2501 24.9546 26.1579 25.1187 25.9938C25.2828 25.8297 25.375 25.6072 25.375 25.3751V21.0001C25.375 20.768 25.2828 20.5455 25.1187 20.3814C24.9546 20.2173 24.7321 20.1251 24.5 20.1251ZM13.125 17.3601C13.1612 16.4563 13.5458 15.6016 14.1983 14.9752C14.8508 14.3488 15.7205 13.9994 16.625 14.0001H16.765C17.4636 14.0284 18.1378 14.2653 18.7005 14.6803C19.2633 15.0953 19.6888 15.6693 19.9223 16.3284C20.1558 16.9875 20.1865 17.7014 20.0106 18.3781C19.8346 19.0548 19.46 19.6633 18.935 20.1251H14.315C13.9234 19.7818 13.6134 19.3554 13.4076 18.8771C13.2017 18.3987 13.1052 17.8805 13.125 17.3601ZM23.625 24.5001H9.625V21.8751H23.625V24.5001Z" fill="#64CEB8"/>
</svg>
