<svg width="28" height="27" viewBox="0 0 28 27" fill="none" xmlns="http://www.w3.org/2000/svg">
<g clip-path="url(#clip0_136_1022)">
<path fill-rule="evenodd" clip-rule="evenodd" d="M26.0634 5.34009V7.67009L14.5434 15.3501C14.3822 15.4535 14.1948 15.5084 14.0034 15.5084C13.8119 15.5084 13.6245 15.4535 13.4634 15.3501L1.94336 7.67009V5.34009L13.9434 13.3401H14.0234L26.0634 5.34009Z" fill="#64CEB8"/>
<path fill-rule="evenodd" clip-rule="evenodd" d="M28.0035 5.81004C28.0035 5.75004 28.0035 5.71004 28.0035 5.67004C27.9547 4.67959 27.5266 3.74592 26.8079 3.06262C26.0892 2.37933 25.1352 1.99884 24.1435 2.00004H3.86351C2.88095 1.99558 1.93387 2.36695 1.21624 3.0381C0.498616 3.70925 0.0647496 4.62939 0.00350889 5.61004C0.00350889 5.68004 0.00350889 5.72004 0.00350889 5.77004C-0.00116963 5.78977 -0.00116963 5.81031 0.00350889 5.83004L0.00350889 20.34C0.00350889 21.3638 0.410186 22.3456 1.13408 23.0695C1.85797 23.7934 2.83977 24.2 3.86351 24.2H24.1435C25.1672 24.2 26.1491 23.7934 26.8729 23.0695C27.5968 22.3456 28.0035 21.3638 28.0035 20.34V5.86004C28.0082 5.84371 28.0082 5.82637 28.0035 5.81004ZM26.0635 20.34C26.0635 20.8502 25.8616 21.3396 25.5018 21.7012C25.142 22.0629 24.6536 22.2674 24.1435 22.27H3.86351C3.35338 22.2674 2.86504 22.0629 2.50525 21.7012C2.14547 21.3396 1.9435 20.8502 1.94351 20.34V5.34004L2.07351 5.10004L2.16351 4.95004C2.32821 4.64373 2.57383 4.38851 2.87359 4.21218C3.17335 4.03585 3.51576 3.94517 3.86351 3.95004H24.1435C24.4913 3.94517 24.8337 4.03585 25.1334 4.21218C25.4332 4.38851 25.6788 4.64373 25.8435 4.95004L25.9335 5.10004L26.0635 5.31004V20.34Z" fill="black"/>
</g>
<defs>
<clipPath id="clip0_136_1022">
<rect width="28" height="27" fill="white"/>
</clipPath>
</defs>
</svg>
