<svg width="28" height="28" viewBox="0 0 28 28" fill="none" xmlns="http://www.w3.org/2000/svg">
<path d="M27.6803 7.28742C27.6193 7.24391 27.5559 7.20385 27.4904 7.16746H27.3904C27.3501 7.14157 27.3063 7.12138 27.2605 7.10747L27.0005 6.93753L25.7409 6.48766L25.291 6.29772L14.8341 2.06897C14.5996 1.97701 14.3389 1.97701 14.1044 2.06897L3.60748 6.26772L3.1976 6.42768L2.00795 6.94752L1.858 7.0175C1.65501 7.05414 1.46532 7.14382 1.30816 7.27742C1.2125 7.37119 1.13665 7.48322 1.08513 7.60687C1.03361 7.73052 1.00747 7.86326 1.00825 7.99721V19.9936C1.00405 20.2579 1.10469 20.5131 1.28817 20.7034C1.40972 20.8075 1.55327 20.8827 1.70804 20.9234L3.12762 21.6232L3.21759 21.6731L13.4646 26.5717L13.8844 26.7716C14.0265 26.8767 14.1938 26.9422 14.3694 26.9615C14.545 26.9808 14.7226 26.9532 14.8841 26.8816L15.464 26.6017L27.3104 20.9134C27.4452 20.8613 27.5702 20.7869 27.6803 20.6934C27.8638 20.5032 27.9644 20.2479 27.9602 19.9837V7.98721C27.9618 7.72636 27.8614 7.47523 27.6803 7.28742ZM4.68716 7.99721L14.4743 4.07837L24.2813 7.99721L22.5219 8.697L21.932 8.93693L16.3837 11.1563L15.7139 11.4162L15.4839 11.5062L14.4842 11.8961H14.4243L13.4646 11.4862L12.9347 11.2662L8.44604 9.48677L4.68716 7.99721ZM13.4745 24.3723L4.00736 19.8437L3.00766 19.3738V9.48677L3.42753 9.64672L4.00736 9.84666L7.49632 11.2862L11.6951 12.9657L12.4549 13.2756L13.4546 13.6655L13.4745 24.3723ZM25.9708 19.3738L15.474 24.3723V13.6655L16.4737 13.2656L17.2134 12.9657L23.5616 10.4865L25.0011 9.87665L26.0008 9.43678L25.9708 19.3738ZM0.00854798 20.4835C0.00288976 20.55 0.00288976 20.6169 0.00854798 20.6834V20.7534C-0.00284933 20.6638 -0.00284933 20.5731 0.00854798 20.4835Z" fill="#001E32"/>
<path d="M27.6799 7.2874C27.6189 7.24388 27.5555 7.20383 27.49 7.16743H27.39C27.3496 7.14154 27.3059 7.12136 27.26 7.10745L27.0001 6.9375L24.2709 7.99719L22.5114 8.69698L21.9216 8.93691L15.4635 11.4861L14.4638 11.886L13.4641 11.4961L8.46561 9.49674L2.00753 6.9475L1.85758 7.01748C1.65459 7.05412 1.46489 7.14379 1.30774 7.2774C1.21208 7.37116 1.13623 7.4832 1.08471 7.60685C1.03319 7.73049 1.00705 7.86324 1.00783 7.99719V8.71697L3.42711 9.71667L7.4959 11.2862L11.7346 12.9557L12.4944 13.2656L13.4941 13.6555V26.5917L13.914 26.7916C14.0561 26.8966 14.2234 26.9621 14.399 26.9815C14.5746 27.0008 14.7522 26.9732 14.9137 26.9016L15.4935 26.6217V13.6655L16.4932 13.2656L17.233 12.9657L23.5611 10.4864L25.0007 9.87663L26.0004 9.48674L27.9998 8.69698V7.99719C27.9967 7.86349 27.9667 7.73179 27.9118 7.60987C27.8568 7.48795 27.778 7.3783 27.6799 7.2874Z" fill="#64CEB8"/>
</svg>
