<svg width="32" height="32" viewBox="0 0 32 32" fill="none" xmlns="http://www.w3.org/2000/svg">
<path fill-rule="evenodd" clip-rule="evenodd" d="M30.9336 21H1.06689V19H30.9336V21Z" fill="#64CEB8"/>
<path fill-rule="evenodd" clip-rule="evenodd" d="M0 3C0 2.44772 0.477563 2 1.06667 2H30.9333C31.5224 2 32 2.44772 32 3V23C32 23.5523 31.5224 24 30.9333 24H20.2667V25H21.3333C21.9224 25 22.4 25.4477 22.4 26V29C22.4 29.5523 21.9224 30 21.3333 30H10.6667C10.0776 30 9.6 29.5523 9.6 29V26C9.6 25.4477 10.0776 25 10.6667 25H11.7333V24H1.06667C0.477563 24 0 23.5523 0 23V3ZM13.8667 24V26C13.8667 26.5523 13.3891 27 12.8 27H11.7333V28H20.2667V27H19.2C18.6109 27 18.1333 26.5523 18.1333 26V24H13.8667ZM2.13333 4V22H29.8667V4H2.13333Z" fill="#001E32"/>
</svg>
