<svg width="28" height="28" viewBox="0 0 28 28" fill="none" xmlns="http://www.w3.org/2000/svg">
<path fill-rule="evenodd" clip-rule="evenodd" d="M3.98464 18.7845C5.25539 17.5137 6.97889 16.7998 8.776 16.7998H19.976C21.7731 16.7998 23.4966 17.5137 24.7674 18.7845C26.0381 20.0552 26.752 21.7787 26.752 23.5758V26.3758C26.752 27.0253 26.2255 27.5518 25.576 27.5518C24.9265 27.5518 24.4 27.0253 24.4 26.3758V23.5758C24.4 22.4025 23.9339 21.2772 23.1042 20.4476C22.2746 19.6179 21.1493 19.1518 19.976 19.1518H8.776C7.60268 19.1518 6.47742 19.6179 5.64776 20.4476C4.8181 21.2772 4.352 22.4025 4.352 23.5758V26.3758C4.352 27.0253 3.82549 27.5518 3.176 27.5518C2.52651 27.5518 2 27.0253 2 26.3758V23.5758C2 21.7787 2.7139 20.0552 3.98464 18.7845Z" fill="#001E32"/>
<path fill-rule="evenodd" clip-rule="evenodd" d="M14.3761 2.352C11.9328 2.352 9.9521 4.33269 9.9521 6.776C9.9521 9.21931 11.9328 11.2 14.3761 11.2C16.8194 11.2 18.8001 9.21931 18.8001 6.776C18.8001 4.33269 16.8194 2.352 14.3761 2.352ZM7.6001 6.776C7.6001 3.03372 10.6338 0 14.3761 0C18.1184 0 21.1521 3.03372 21.1521 6.776C21.1521 10.5183 18.1184 13.552 14.3761 13.552C10.6338 13.552 7.6001 10.5183 7.6001 6.776Z" fill="#64CEB8"/>
</svg>
