<svg width="28" height="28" viewBox="0 0 28 28" fill="none" xmlns="http://www.w3.org/2000/svg">
<path d="M18.1973 17.7605C18.2995 17.8627 18.3737 17.9741 18.4666 18.0855C18.7423 18.0338 19.0219 18.0059 19.3023 18.002C19.8001 18.0066 20.2945 18.0848 20.7695 18.2341C20.4927 17.5397 20.079 16.9081 19.553 16.377C19.0415 15.8639 18.4336 15.4571 17.7643 15.1798C17.095 14.9025 16.3775 14.7603 15.653 14.7612H6.52514C5.79689 14.76 5.0756 14.903 4.40289 15.1819C3.73018 15.4609 3.11938 15.8703 2.60572 16.3866C2.09207 16.9028 1.68573 17.5157 1.41015 18.1898C1.13458 18.8639 0.99522 19.5859 1.00013 20.3141V22.5891C1.00013 22.8428 1.10089 23.086 1.28026 23.2654C1.45962 23.4448 1.70289 23.5455 1.95656 23.5455C2.21022 23.5455 2.45349 23.4448 2.63285 23.2654C2.81222 23.086 2.91299 22.8428 2.91299 22.5891V20.3141C2.91299 19.3561 3.29355 18.4373 3.97096 17.7599C4.64837 17.0825 5.56714 16.702 6.52514 16.702H15.653C16.1259 16.7023 16.5941 16.796 17.0307 16.9777C17.4673 17.1593 17.8637 17.4254 18.1973 17.7605Z" fill="#001E32"/>
<path d="M11.0843 12.1427C12.1901 12.1519 13.2737 11.8318 14.197 11.2231C15.1203 10.6145 15.8415 9.74481 16.269 8.72488C16.6964 7.70496 16.8106 6.58091 16.5972 5.49585C16.3837 4.41079 15.8521 3.41381 15.0701 2.63184C14.2882 1.84988 13.2912 1.31831 12.2061 1.10481C11.1211 0.89132 9.99701 1.00556 8.97709 1.43299C7.95716 1.86043 7.08751 2.58171 6.47886 3.50501C5.87021 4.42831 5.5501 5.51185 5.55927 6.61768C5.5714 8.07925 6.1574 9.47753 7.19092 10.511C8.22444 11.5446 9.62272 12.1306 11.0843 12.1427ZM11.0843 3.00553C11.7991 3.00369 12.4984 3.21398 13.0936 3.60977C13.6889 4.00556 14.1533 4.56905 14.4281 5.22892C14.7029 5.8888 14.7758 6.61537 14.6374 7.31667C14.4991 8.01797 14.1558 8.66246 13.651 9.16856C13.1462 9.67466 12.5026 10.0196 11.8017 10.1597C11.1008 10.2999 10.374 10.2289 9.71342 9.95575C9.05284 9.68263 8.48815 9.21966 8.09083 8.62545C7.69351 8.03123 7.48142 7.33249 7.48142 6.61768C7.4802 6.14377 7.57249 5.67427 7.753 5.23607C7.93352 4.79788 8.19871 4.39961 8.53339 4.06407C8.86807 3.72852 9.26566 3.46231 9.70338 3.28067C10.1411 3.09903 10.6104 3.00553 11.0843 3.00553Z" fill="#001E32"/>
<path d="M26.2015 22.0323C26.4118 22.0276 26.6122 21.9419 26.7609 21.7932C26.9097 21.6444 26.9953 21.444 27.0001 21.2337V18.448C26.9977 18.2369 26.9128 18.0352 26.7635 17.886C26.6143 17.7367 26.4125 17.6518 26.2015 17.6494H23.4622C23.2504 17.6494 23.0473 17.7335 22.8975 17.8833C22.7478 18.0331 22.6636 18.2362 22.6636 18.448C22.6636 18.6598 22.7478 18.8629 22.8975 19.0127C23.0473 19.1624 23.2504 19.2466 23.4622 19.2466H24.2608L20.5465 22.9609L18.8936 20.4816C18.8288 20.3827 18.7425 20.2996 18.6413 20.2386C18.54 20.1775 18.4263 20.1399 18.3086 20.1287H18.2343C18.1306 20.1274 18.0276 20.1473 17.9318 20.1872C17.836 20.2271 17.7493 20.2862 17.6772 20.3608L13.3129 24.7716C13.1643 24.9227 13.0811 25.1261 13.0811 25.338C13.0811 25.5499 13.1643 25.7533 13.3129 25.9044C13.3847 25.9795 13.4713 26.0389 13.5672 26.0788C13.6631 26.1188 13.7662 26.1385 13.87 26.1366C13.9753 26.1386 14.0799 26.1191 14.1773 26.0792C14.2747 26.0392 14.3629 25.9798 14.4365 25.9044L18.1508 22.1901L19.8036 24.6601C19.8685 24.759 19.9547 24.8421 20.056 24.9031C20.1572 24.9642 20.2709 25.0018 20.3886 25.013C20.4994 25.0191 20.6101 25.0006 20.7128 24.9588C20.8155 24.9171 20.9078 24.8531 20.9829 24.7716L25.3844 20.3701V21.1966C25.3806 21.3058 25.399 21.4146 25.4385 21.5165C25.478 21.6183 25.5377 21.7111 25.6141 21.7893C25.6905 21.8674 25.7819 21.9292 25.8829 21.971C25.9839 22.0127 26.0922 22.0336 26.2015 22.0323Z" fill="#64CEB8"/>
</svg>
