<svg width="17" height="15" viewBox="0 0 17 15" fill="none" xmlns="http://www.w3.org/2000/svg">
<path d="M14.5 3.75H2.5C1.67157 3.75 1 4.42157 1 5.25V12.75C1 13.5784 1.67157 14.25 2.5 14.25H14.5C15.3284 14.25 16 13.5784 16 12.75V5.25C16 4.42157 15.3284 3.75 14.5 3.75Z" stroke="#5B687A" stroke-linecap="round" stroke-linejoin="round"/>
<path d="M11.5 14.25V2.25C11.5 1.85218 11.342 1.47064 11.0607 1.18934C10.7794 0.908035 10.3978 0.75 10 0.75H7C6.60218 0.75 6.22064 0.908035 5.93934 1.18934C5.65804 1.47064 5.5 1.85218 5.5 2.25V14.25" stroke="#5B687A" stroke-linecap="round" stroke-linejoin="round"/>
</svg>
