<svg width="18" height="17" viewBox="0 0 18 17" fill="none" xmlns="http://www.w3.org/2000/svg">
<path d="M3.125 12.7181V7.75974M5.95833 12.7181V7.75974M8.79167 12.7181V7.75974M11.625 12.7181V7.75974M14.4583 12.7181V7.75974M1 15.5514H16.5833M9.05375 1.49099L15.4288 4.04099C15.6767 4.14015 15.875 4.43765 15.875 4.69974V7.0514C15.875 7.44099 15.5562 7.75974 15.1667 7.75974H2.41667C2.02708 7.75974 1.70833 7.44099 1.70833 7.0514V4.69974C1.70833 4.43765 1.90667 4.14015 2.15458 4.04099L8.52958 1.49099C8.67125 1.43432 8.91208 1.43432 9.05375 1.49099ZM15.875 15.5514H1.70833V13.4264C1.70833 13.0368 2.02708 12.7181 2.41667 12.7181H15.1667C15.5562 12.7181 15.875 13.0368 15.875 13.4264V15.5514Z" stroke="#5B687A" stroke-width="0.9" stroke-miterlimit="10" stroke-linecap="round" stroke-linejoin="round"/>
<path d="M9.06216 5.98889C9.20169 5.98889 9.33986 5.96141 9.46877 5.90801C9.59767 5.85462 9.7148 5.77635 9.81347 5.67769C9.91213 5.57903 9.99039 5.4619 10.0438 5.33299C10.0972 5.20408 10.1247 5.06592 10.1247 4.92639C10.1247 4.78686 10.0972 4.6487 10.0438 4.51979C9.99039 4.39088 9.91213 4.27375 9.81347 4.17509C9.7148 4.07643 9.59767 3.99817 9.46877 3.94477C9.33986 3.89137 9.20169 3.86389 9.06216 3.86389C8.78037 3.86389 8.51012 3.97583 8.31086 4.17509C8.11161 4.37435 7.99966 4.6446 7.99966 4.92639C7.99966 5.20818 8.11161 5.47844 8.31086 5.67769C8.51012 5.87695 8.78037 5.98889 9.06216 5.98889Z" stroke="#5B687A" stroke-width="0.9" stroke-miterlimit="10" stroke-linecap="round" stroke-linejoin="round"/>
</svg>
