<svg width="32" height="32" viewBox="0 0 32 32" fill="none" xmlns="http://www.w3.org/2000/svg">
<path d="M30.0001 1.33337H2.00008C1.64646 1.33337 1.30732 1.47385 1.05727 1.7239C0.807224 1.97395 0.666748 2.31309 0.666748 2.66671V18.6667H31.3334V2.66671C31.3334 2.31309 31.1929 1.97395 30.9429 1.7239C30.6928 1.47385 30.3537 1.33337 30.0001 1.33337Z" fill="#FAFCFC"/>
<path d="M0.666748 22.6667C0.666748 23.0203 0.807224 23.3594 1.05727 23.6095C1.30732 23.8595 1.64646 24 2.00008 24H30.0001C30.3537 24 30.6928 23.8595 30.9429 23.6095C31.1929 23.3594 31.3334 23.0203 31.3334 22.6667V20H0.666748V22.6667ZM16.0001 21.3333C16.1769 21.3333 16.3465 21.4036 16.4715 21.5286C16.5965 21.6536 16.6667 21.8232 16.6667 22C16.6667 22.1768 16.5965 22.3464 16.4715 22.4714C16.3465 22.5964 16.1769 22.6667 16.0001 22.6667C15.8233 22.6667 15.6537 22.5964 15.5287 22.4714C15.4037 22.3464 15.3334 22.1768 15.3334 22C15.3334 21.8232 15.4037 21.6536 15.5287 21.5286C15.6537 21.4036 15.8233 21.3333 16.0001 21.3333Z" fill="#FAFCFC"/>
<path d="M21.3333 29.3334H20V25.3334H12V29.3334H10.6667C10.4899 29.3334 10.3203 29.4036 10.1953 29.5286C10.0702 29.6537 10 29.8232 10 30C10 30.1769 10.0702 30.3464 10.1953 30.4714C10.3203 30.5965 10.4899 30.6667 10.6667 30.6667H21.3333C21.5101 30.6667 21.6797 30.5965 21.8047 30.4714C21.9298 30.3464 22 30.1769 22 30C22 29.8232 21.9298 29.6537 21.8047 29.5286C21.6797 29.4036 21.5101 29.3334 21.3333 29.3334Z" fill="#FAFCFC"/>
</svg>
