<svg width="32" height="32" viewBox="0 0 32 32" fill="none" xmlns="http://www.w3.org/2000/svg">
<path d="M25.3059 9.36756L26.7108 10.7732L29.6998 7.78246C29.8891 7.59305 29.9888 7.34382 29.9888 7.07465C29.9888 6.80549 29.8792 6.55626 29.6998 6.36684L26.7108 3.3761L25.3059 4.78175L26.5912 6.06777H21.0216V8.0616H26.5912L25.3059 9.36756Z" fill="white"/>
<path d="M6.79394 22.7362L5.38908 21.3306L2.40003 24.3213C2.21072 24.5107 2.11108 24.76 2.11108 25.0291C2.11108 25.2983 2.22068 25.5475 2.40003 25.7369L5.38908 28.7277L6.79394 27.322L5.50864 26.036H11.0782V24.0422H5.49868L6.79394 22.7362Z" fill="white"/>
<path fill-rule="evenodd" clip-rule="evenodd" d="M29.4111 17.8414C28.7635 16.1367 27.6177 14.6712 26.1232 13.6444C24.6287 12.6076 22.8452 12.0593 21.0318 12.0593C20.6731 12.0593 20.3145 12.0792 19.9657 12.1191C19.9707 12.0892 19.9707 12.0568 19.9707 12.0244C19.9707 11.992 19.9707 11.9596 19.9757 11.9297C19.9807 11.8699 19.9832 11.8075 19.9857 11.7452C19.9881 11.6829 19.9906 11.6206 19.9956 11.5608C20.0155 11.2119 20.0255 10.863 20.0056 10.524C20.0056 10.5151 20.0036 10.5061 20.0014 10.4962C19.9986 10.4841 19.9956 10.4707 19.9956 10.4542C19.9159 9.15825 19.5672 7.8822 18.9495 6.72578C18.0527 5.0709 16.6678 3.73504 14.974 2.9076C13.4297 2.15991 11.696 1.86084 9.99225 2.06022C9.87721 2.06022 9.75627 2.07794 9.63851 2.09519L9.6385 2.0952C9.60328 2.10036 9.56834 2.10547 9.53393 2.11007C8.97597 2.19979 8.42798 2.34933 7.89991 2.54871C6.68436 2.98735 5.56845 3.69516 4.63188 4.62229C3.70527 5.55939 2.99786 6.67594 2.55947 7.90214C2.3602 8.43051 2.21075 8.96884 2.12107 9.52711C2.09118 9.68662 2.07126 9.83616 2.06129 9.99566C1.86202 11.7004 2.15097 13.425 2.90819 14.9703C3.73516 16.665 5.07028 18.0507 6.72422 18.948C8.37816 19.8352 10.2613 20.1941 12.1244 19.9648C11.9152 21.7692 12.254 23.6036 13.1009 25.2086C13.9478 26.8236 15.263 28.1395 16.877 28.9769C18.4911 29.8243 20.3145 30.1533 22.1278 29.934C23.9312 29.7146 25.625 28.947 26.99 27.7407C28.345 26.5345 29.3115 24.9394 29.7399 23.1649C30.1783 21.4004 30.0588 19.5461 29.4111 17.8414ZM22.028 21.0313H24.0207V23.0252H22.028V27.0128H20.0353V23.0252H18.0426V21.0313H20.0353V20.3634L17.6241 17.1533C18.1921 16.5452 18.6703 15.8573 19.0489 15.1196C18.9891 15.2393 18.9294 15.3589 18.8596 15.4785L21.0317 18.3696L23.2236 15.4486L24.8178 16.6449L22.028 20.3634V21.0313ZM11.7757 8.36091C11.5864 8.18146 11.3373 8.0718 11.0683 8.0718C10.7993 8.0718 10.5502 8.18146 10.3609 8.36091C10.1816 8.55032 10.072 8.79955 10.072 9.06872C10.072 9.33788 10.1716 9.58711 10.3609 9.77652C10.5502 9.96594 10.7993 10.0656 11.0783 10.0557C11.7757 10.0557 12.4632 10.3049 13.0012 10.7535C13.5393 11.2021 13.898 11.8302 14.0175 12.528C14.1371 13.2159 14.0076 13.9337 13.6489 14.5418C13.2902 15.1499 12.7322 15.6184 12.0647 15.8477V17.0241H10.072V15.8477C9.48413 15.6484 8.98595 15.2596 8.62727 14.7611C8.27854 14.2626 8.07927 13.6645 8.07927 13.0464H10.072C10.072 13.2458 10.1318 13.4452 10.2414 13.6047C10.351 13.7742 10.5104 13.8938 10.6897 13.9735C10.8691 14.0533 11.0783 14.0633 11.2676 14.0334C11.4569 14.0034 11.6362 13.9038 11.7757 13.7642C11.9152 13.6246 12.0049 13.4551 12.0448 13.2558C12.0846 13.0564 12.0647 12.857 11.985 12.6775C11.9053 12.4981 11.7757 12.3386 11.6163 12.2289C11.4469 12.1193 11.2576 12.0595 11.0584 12.0595C10.3609 12.0595 9.67344 11.8102 9.13541 11.3616C8.59738 10.913 8.23869 10.285 8.11913 9.58711C7.99957 8.88927 8.12909 8.17149 8.48778 7.56337C8.84646 6.95525 9.40442 6.49667 10.072 6.25741V5.08105H12.0647V6.26738C12.6525 6.46677 13.1607 6.85556 13.5094 7.35402C13.8581 7.85248 14.0574 8.45063 14.0574 9.06872H12.0647C12.0647 8.79955 11.965 8.55032 11.7757 8.36091Z" fill="white"/>
</svg>
