<svg width="32" height="32" viewBox="0 0 32 32" fill="none" xmlns="http://www.w3.org/2000/svg">
<g clip-path="url(#clip0_458_1201)">
<g clip-path="url(#clip1_458_1201)">
<path d="M19.2288 29.0769C19.2288 27.9709 18.3321 27.0743 17.2261 27.0743H14.7739C14.2428 27.0743 13.7334 27.2853 13.3578 27.6608C12.9823 28.0364 12.7712 28.5458 12.7712 29.0769C12.7712 30.1829 13.6679 31.0795 14.7739 31.0795H17.2261C18.3321 31.0795 19.2288 30.1829 19.2288 29.0769V29.0769ZM4.21006 23.913C4.54456 23.9385 4.94925 23.9532 5.35575 23.9294C5.57231 25.0277 6.11031 26.0463 6.91337 26.8494C7.9795 27.9155 9.42544 28.5144 10.9331 28.5144H11.6973C11.6636 28.6988 11.6462 28.887 11.6462 29.0769C11.6462 29.269 11.6636 29.457 11.6967 29.6394H10.9331C9.12706 29.6394 7.39494 28.922 6.11788 27.6449C5.09906 26.626 4.43638 25.3176 4.21006 23.913V23.913ZM3.63781 22.7159C2.74963 22.5662 1.92313 22.1439 1.27794 21.4987C0.459688 20.6804 0 19.5706 0 18.4134V15.7545C0 14.5973 0.459688 13.4875 1.27794 12.6692C2.09619 11.851 3.206 11.3912 4.36319 11.3912H4.65363C5.11788 5.53147 10.0205 0.920654 16 0.920654C21.9795 0.920654 26.8821 5.53147 27.3464 11.3912H27.6368C28.794 11.3912 29.9038 11.851 30.7221 12.6692C31.5403 13.4875 32 14.5973 32 15.7545V18.4134C32 19.5706 31.5403 20.6804 30.7221 21.4987C29.9038 22.317 28.794 22.7767 27.6368 22.7767H26.3493C25.8153 22.7767 25.3824 22.3437 25.3824 21.8098V12.303C25.3824 7.12128 21.1817 2.92065 16 2.92065C10.8183 2.92065 6.61763 7.12128 6.61763 12.303V21.8098C6.61763 22.1868 6.40181 22.5135 6.08694 22.6729C5.22019 22.9737 3.876 22.7561 3.63781 22.7159V22.7159Z" fill="white"/>
</g>
</g>
<defs>
<clipPath id="clip0_458_1201">
<rect width="32" height="32" fill="white"/>
</clipPath>
<clipPath id="clip1_458_1201">
<rect width="32" height="32" fill="white"/>
</clipPath>
</defs>
</svg>
