<svg width="32" height="32" viewBox="0 0 32 32" fill="none" xmlns="http://www.w3.org/2000/svg">
<path d="M29.056 8.53473C29.0427 9.08673 28.5853 9.52406 28.0333 9.51206C27.4813 9.49873 27.044 9.0414 27.056 8.4894L27.1107 6.0814L24.704 6.02673C24.152 6.0134 23.7147 5.55606 23.7267 5.00406C23.74 4.45206 24.1973 4.01473 24.7493 4.02673L28.1573 4.1054C28.7093 4.1174 29.1467 4.57473 29.1333 5.12673L29.056 8.53473Z" fill="white"/>
<path d="M7.76929 12.4613V28.6493C7.76929 29.58 7.01596 30.3333 6.08529 30.3333H3.35063C2.41996 30.3333 1.66663 29.58 1.66663 28.6493V12.4613C1.66663 11.532 2.41996 10.7773 3.35063 10.7773H6.08529C7.01596 10.7773 7.76929 11.532 7.76929 12.4613V12.4613Z" fill="white"/>
<path d="M22.812 20.6667V28.6493C22.812 29.096 22.6347 29.524 22.3187 29.84C22.0027 30.156 21.5747 30.3333 21.128 30.3333H18.3934C17.9467 30.3333 17.5187 30.156 17.2027 29.84C16.8867 29.524 16.7094 29.096 16.7094 28.6493V20.6667C16.7094 20.22 16.8867 19.792 17.2027 19.476C17.5187 19.16 17.9467 18.9827 18.3934 18.9827H21.128C21.5747 18.9827 22.0027 19.16 22.3187 19.476C22.6347 19.792 22.812 20.22 22.812 20.6667V20.6667Z" fill="white"/>
<path d="M15.2907 16.564V28.6493C15.2907 29.58 14.5373 30.3333 13.6067 30.3333H10.872C9.94132 30.3333 9.18799 29.58 9.18799 28.6493V16.564C9.18799 16.1173 9.36532 15.6893 9.68132 15.3733C9.99732 15.0573 10.4253 14.88 10.872 14.88H13.6067C14.5373 14.88 15.2907 15.6347 15.2907 16.564V16.564Z" fill="white"/>
<path d="M30.3333 16.564V28.6493C30.3333 29.58 29.5799 30.3333 28.6493 30.3333H25.9146C24.9839 30.3333 24.2306 29.58 24.2306 28.6493V16.564C24.2306 16.1173 24.4079 15.6893 24.7239 15.3733C25.0399 15.0573 25.4679 14.88 25.9146 14.88H28.6493C29.5799 14.88 30.3333 15.6347 30.3333 16.564V16.564Z" fill="white"/>
<path d="M3.26667 3.46672C2.824 3.13606 2.73467 2.50806 3.06667 2.06673C3.39733 1.62539 4.024 1.53606 4.46667 1.86673L12.404 7.82006H16.1733C16.4813 7.82006 16.7707 7.96139 16.96 8.20273L20.0093 12.0841L27.076 4.70939C27.4573 4.31073 28.0907 4.29739 28.4893 4.68006C28.888 5.06139 28.9013 5.69473 28.52 6.09339L20.656 14.2987C20.456 14.5081 20.1747 14.6201 19.8853 14.6054C19.596 14.5921 19.3267 14.4521 19.148 14.2241L15.688 9.82006H12.0707C11.8547 9.82006 11.644 9.75073 11.4707 9.62006L3.26667 3.46672Z" fill="white"/>
</svg>
