<svg width="32" height="32" viewBox="0 0 32 32" fill="none" xmlns="http://www.w3.org/2000/svg">
<path d="M5.00238 17.0652L3.01361 19.054C2.46454 19.603 2.46454 20.4934 3.01361 21.0427C3.56293 21.5918 4.45331 21.5918 5.00238 21.0427L6.99115 19.054C7.54047 18.5046 7.54047 17.6143 6.99115 17.0652C6.44208 16.5159 5.5517 16.5159 5.00238 17.0652V17.0652Z" fill="white"/>
<path d="M11.6315 23.6943L9.64276 25.6831C9.09369 26.2322 9.09369 27.1226 9.64276 27.6716C10.1918 28.2209 11.0822 28.2209 11.6315 27.6716L13.6203 25.6831C14.1694 25.1338 14.1694 24.2434 13.6203 23.6943C13.071 23.145 12.1808 23.145 11.6315 23.6943V23.6943Z" fill="white"/>
<path d="M16.2719 29.6603L16.9348 28.9975C17.4841 28.4482 17.4841 27.5578 16.9348 27.0087C16.3857 26.4597 15.4953 26.4597 14.946 27.0087L14.2831 27.6716C13.7341 28.2209 13.7341 29.1113 14.2831 29.6603C14.8322 30.2097 15.7228 30.2097 16.2719 29.6603V29.6603Z" fill="white"/>
<path d="M9.64282 19.054L6.32837 22.3684C5.77905 22.9177 5.77905 23.8081 6.32837 24.3572C6.87744 24.9062 7.76782 24.9062 8.31689 24.3572L11.6316 21.0427C12.1807 20.4934 12.1807 19.603 11.6316 19.054C11.0823 18.5046 10.1921 18.5046 9.64282 19.054Z" fill="white"/>
<path d="M11.9629 4.80127L9.55542 2.36841C9.18921 2.0022 8.5957 2.0022 8.22949 2.36841L0.274658 10.3232C-0.0915527 10.6895 -0.0915527 11.283 0.274658 11.6492L1.8999 13.2996C2.41431 13.8142 2.802 14.4414 3.03223 15.1318L3.34521 16.0708L3.67676 15.7393C4.95605 14.4602 7.03784 14.4602 8.31714 15.7393C8.72241 16.1448 8.98462 16.6343 9.13306 17.1499C10.3684 16.5105 11.9229 16.6934 12.9575 17.728C13.9922 18.7627 14.175 20.3171 13.5356 21.5527C14.0513 21.7012 14.5408 21.9629 14.9463 22.3684C15.5957 23.0178 15.9119 23.8743 15.9019 24.7273C16.7551 24.7175 17.6113 25.0337 18.2607 25.6831C18.5869 26.0093 19.5867 27.0088 19.5867 27.0088C20.1357 27.5581 21.0261 27.5581 21.5752 27.0088C22.1245 26.4597 22.1245 25.5693 21.5752 25.02L19.2551 22.7C18.8889 22.3337 18.8889 21.7402 19.2551 21.374C19.6213 21.0081 20.2148 21.0081 20.5808 21.374L22.9011 23.6943C23.4502 24.2434 24.3408 24.2434 24.8899 23.6943C25.439 23.1453 25.439 22.2546 24.8899 21.7056L22.5696 19.3853C22.2036 19.0193 22.2036 18.4258 22.5696 18.0596C22.9358 17.6934 23.5295 17.6934 23.8955 18.0596L26.2158 20.3796C26.7649 20.9287 27.6553 20.9287 28.2046 20.3796C28.7537 19.8306 28.7537 18.9402 28.2046 18.3911L22.5027 12.6892C20.6836 13.8921 18.2041 13.6938 16.6035 12.0933C16.2378 11.7275 15.6436 11.7275 15.2778 12.0933C13.4502 13.9209 10.4763 13.9209 8.64868 12.0933C7.552 10.9968 7.552 9.2124 8.64868 8.11597L11.9629 4.80127Z" fill="white"/>
<path d="M23.7704 2.27466C23.4042 1.90845 22.8107 1.90845 22.4445 2.27466L20.4616 4.25757C20.1135 4.60571 19.6413 4.80127 19.1491 4.80127H15.7795C15.0336 4.80127 14.3183 5.09766 13.791 5.625L9.9743 9.44165C9.60297 9.81299 9.60297 10.3962 9.9743 10.7676C11.0746 11.8679 12.8513 11.8679 13.9516 10.7676C14.9433 9.77588 16.4973 9.68091 17.5966 10.4827C19.0751 11.5613 21.0468 11.6272 22.341 10.333L22.5695 10.1045L29.0197 16.5547C29.1091 16.2244 29.1108 15.8748 29.0234 15.5503C28.8718 14.988 29.0917 14.189 29.5036 13.7771L31.7253 11.5554C32.0915 11.1892 32.0915 10.5957 31.7253 10.2297L23.7704 2.27466Z" fill="white"/>
</svg>
