<svg width="32" height="32" viewBox="0 0 32 32" fill="none" xmlns="http://www.w3.org/2000/svg">
<g clip-path="url(#clip0_458_1193)">
<path d="M32.0386 7.8498C21.3476 7.8498 10.7006 7.8498 0.0316103 7.8498C0.0239705 7.74761 0.0106009 7.65689 0.0106009 7.56521C0.00964591 6.50519 0.00487106 5.44517 0.0115559 4.38419C0.0239706 2.52199 1.53952 1.00454 3.4084 1.00358C11.8198 0.998806 20.2312 0.998806 28.6417 1.00358C30.5115 1.00454 32.0261 2.52104 32.0376 4.38515C32.0443 5.5273 32.0386 6.66945 32.0386 7.8498ZM25.1761 5.576C25.5457 5.576 25.9153 5.5846 26.2839 5.57409C26.9543 5.55595 27.4623 5.0565 27.4623 4.43099C27.4623 3.80548 26.9524 3.3003 26.2829 3.28979C25.5447 3.27833 24.8056 3.27738 24.0664 3.28979C23.3932 3.30125 22.8889 3.8007 22.888 4.43099C22.888 5.0565 23.397 5.55595 24.0674 5.57409C24.437 5.5846 24.8065 5.576 25.1761 5.576Z" fill="white"/>
<path d="M4.56865 10.1714C4.56865 12.4528 4.56865 14.7113 4.56865 16.9679C2.71313 17.1952 1.19663 16.7894 0.336201 15.0208C0.134701 14.6082 0.0420681 14.1097 0.0239236 13.6465C-0.0190503 12.4958 0.00959902 11.3422 0.00959902 10.1714C1.5366 10.1714 3.03305 10.1714 4.56865 10.1714Z" fill="white"/>
<path d="M31.9699 10.179C31.9699 11.5598 32.0864 12.9274 31.9393 14.2662C31.7655 15.8429 30.2671 16.9965 28.6723 17.0118C28.2818 17.0156 27.8921 17.0128 27.4834 17.0128C27.4834 14.7227 27.4834 12.4642 27.4834 10.179C28.9865 10.179 30.4916 10.179 31.9699 10.179Z" fill="white"/>
<path d="M6.87256 10.1694C12.9959 10.1694 19.0676 10.1694 25.1747 10.1694C25.1747 10.3136 25.1747 10.4416 25.1747 10.5686C25.1747 16.1075 25.1756 21.6463 25.1747 27.1861C25.1747 29.268 23.704 30.7386 21.6241 30.7396C17.871 30.7406 14.1189 30.7415 10.3659 30.7396C8.37951 30.7377 6.87542 29.2451 6.87447 27.2711C6.8716 21.6845 6.87351 16.0979 6.87351 10.5113C6.87256 10.4053 6.87256 10.3003 6.87256 10.1694ZM15.9429 13.5844C15.6087 13.6245 15.1808 13.7544 15.0806 14.1393C14.9354 14.6951 14.5171 14.8211 14.1017 15.0198C13.9002 15.1162 13.715 15.2547 13.5411 15.3979C12.377 16.3567 11.9588 18.9027 14.1275 19.8777C14.3758 19.9894 14.6308 20.0935 14.8905 20.1728C15.5265 20.3667 16.1712 20.5309 16.8024 20.7381C16.9437 20.7849 17.1538 20.975 17.1395 21.0686C17.1108 21.2529 16.9791 21.4592 16.8282 21.5766C16.6916 21.6826 16.4739 21.7094 16.2896 21.7227C15.5905 21.7733 14.9526 21.5776 14.3529 21.2223C13.7684 20.8757 13.0923 21.0361 12.7638 21.5795C12.4286 22.1334 12.5833 22.8066 13.1783 23.1514C13.586 23.3882 14.0301 23.5706 14.4742 23.731C14.7234 23.8208 14.8858 23.9001 14.9507 24.1961C15.0586 24.6917 15.4377 24.9563 15.9248 25.0078C16.3889 25.0575 16.8377 24.8703 16.981 24.4387C17.1424 23.9526 17.4499 23.7625 17.8796 23.6289C18.0343 23.5801 18.1709 23.4703 18.3113 23.3806C19.6645 22.522 20.1056 19.8137 18.0525 18.8091C17.681 18.6276 17.2847 18.492 16.8893 18.3669C16.3574 18.1979 15.8092 18.0785 15.283 17.8971C15.1255 17.8427 14.8858 17.6182 14.9087 17.5275C14.9583 17.326 15.1245 17.1274 15.2935 16.9899C15.4081 16.8972 15.6068 16.8886 15.7701 16.8791C16.4433 16.8371 17.0612 17.0099 17.6361 17.3671C18.2406 17.7424 18.9158 17.6077 19.2643 17.0615C19.6263 16.4933 19.4677 15.8114 18.8308 15.4419C18.4029 15.1936 17.9359 15.0035 17.4699 14.8345C17.2656 14.76 17.1701 14.6779 17.1175 14.4678C16.9838 13.9263 16.5254 13.5749 15.9429 13.5844Z" fill="white"/>
<path d="M25.176 5.57604C24.8064 5.57604 24.4368 5.58463 24.0682 5.57413C23.3978 5.55598 22.8888 5.05653 22.8888 4.43102C22.8888 3.80074 23.393 3.30129 24.0672 3.28983C24.8054 3.27741 25.5446 3.27741 26.2837 3.28983C26.9532 3.30033 27.4631 3.80551 27.4631 4.43102C27.4631 5.05653 26.9541 5.55598 26.2847 5.57413C25.9142 5.58463 25.5446 5.57604 25.176 5.57604Z" fill="white"/>
</g>
<defs>
<clipPath id="clip0_458_1193">
<rect width="32" height="32" fill="white"/>
</clipPath>
</defs>
</svg>
