<svg width="32" height="32" viewBox="0 0 32 32" fill="none" xmlns="http://www.w3.org/2000/svg">
<path d="M29.403 28.6593C29.1624 28.6593 28.9217 28.6593 28.6811 28.6593C28.0311 28.6593 27.3811 28.6593 26.7311 28.6593C25.7717 28.6593 24.8092 28.6593 23.8499 28.6593C22.678 28.6593 21.5061 28.6593 20.3342 28.6593C19.0499 28.6593 17.7686 28.6593 16.4842 28.6593C15.1842 28.6593 13.8811 28.6593 12.5811 28.6593C11.3717 28.6593 10.1655 28.6593 8.95611 28.6593C7.93423 28.6593 6.91236 28.6593 5.89361 28.6593C5.15611 28.6593 4.41861 28.6593 3.68423 28.6593C3.33736 28.6593 2.99048 28.6562 2.64361 28.6593C2.62798 28.6593 2.61548 28.6593 2.59986 28.6593C2.10923 28.6593 1.64048 29.0906 1.66236 29.5968C1.68423 30.1062 2.07486 30.5343 2.59986 30.5343C2.84048 30.5343 3.08111 30.5343 3.32173 30.5343C3.97173 30.5343 4.62173 30.5343 5.27173 30.5343C6.23111 30.5343 7.19361 30.5343 8.15298 30.5343C9.32486 30.5343 10.4967 30.5343 11.6686 30.5343C12.953 30.5343 14.2342 30.5343 15.5186 30.5343C16.8186 30.5343 18.1217 30.5343 19.4217 30.5343C20.6311 30.5343 21.8374 30.5343 23.0467 30.5343C24.0686 30.5343 25.0905 30.5343 26.1092 30.5343C26.8467 30.5343 27.5842 30.5343 28.3186 30.5343C28.6655 30.5343 29.0124 30.5375 29.3592 30.5343C29.3749 30.5343 29.3874 30.5343 29.403 30.5343C29.8936 30.5343 30.3624 30.1031 30.3405 29.5968C30.3186 29.0875 29.928 28.6593 29.403 28.6593Z" fill="#001E32"/>
<path d="M29.1344 11.5031C28.9 11.5031 28.6625 11.5031 28.4282 11.5031C27.7907 11.5031 27.1532 11.5031 26.5157 11.5031C25.5688 11.5031 24.6219 11.5031 23.6782 11.5031C22.5282 11.5031 21.3782 11.5031 20.2313 11.5031C18.9688 11.5031 17.7032 11.5031 16.4407 11.5031C15.1657 11.5031 13.8907 11.5031 12.6157 11.5031C11.4313 11.5031 10.25 11.5031 9.06565 11.5031C8.06253 11.5031 7.06253 11.5031 6.0594 11.5031C5.34378 11.5031 4.62815 11.5031 3.91253 11.5031C3.57503 11.5031 3.24065 11.5063 2.90315 11.5031C2.86565 11.5031 2.83128 11.5031 2.79065 11.4969C2.87503 11.5094 2.95628 11.5188 3.04065 11.5312C2.99378 11.5219 2.95315 11.5094 2.9094 11.4937C2.9844 11.525 3.0594 11.5562 3.1344 11.5875C3.1219 11.5813 3.09065 11.5562 3.07815 11.5562C3.0969 11.5562 3.27815 11.7344 3.1844 11.6313C3.14065 11.5813 3.29065 11.8094 3.27503 11.7469C3.26878 11.725 3.2469 11.6969 3.24065 11.6781C3.2719 11.7531 3.30315 11.8281 3.3344 11.9031C3.31878 11.8625 3.3094 11.825 3.30003 11.7844C3.31253 11.8688 3.3219 11.95 3.3344 12.0344C3.32815 11.9906 3.32815 11.9531 3.33128 11.9094C3.31878 11.9938 3.3094 12.075 3.2969 12.1594C3.30315 12.1156 3.31253 12.0781 3.32815 12.0375C3.2969 12.1125 3.26565 12.1875 3.2344 12.2625C3.2469 12.2375 3.26253 12.2156 3.2719 12.1906C3.3094 12.0969 3.0969 12.3875 3.20315 12.2875C2.17815 13.2563 3.03128 12.4156 3.0719 12.3875C3.07503 12.3844 3.07815 12.3813 3.0844 12.3813C3.10315 12.3688 3.1219 12.3563 3.14065 12.3438C3.2219 12.2875 3.30315 12.2313 3.3844 12.175C3.70003 11.9594 4.01878 11.7406 4.3344 11.525C5.39378 10.8 6.45628 10.075 7.51565 9.34688C8.81253 8.45938 10.1094 7.575 11.4032 6.6875C12.5375 5.9125 13.6688 5.1375 14.8032 4.3625C15.35 3.9875 15.9125 3.62813 16.4469 3.2375C16.4532 3.23125 16.4625 3.22813 16.4719 3.22188C16.1563 3.22188 15.8407 3.22188 15.525 3.22188C15.9782 3.53125 16.4313 3.84375 16.8875 4.15312C17.9657 4.89062 19.0438 5.62813 20.1219 6.36563C21.4188 7.25313 22.7157 8.14063 24.0125 9.02813C25.1313 9.78125 26.25 10.5469 27.3657 11.3125C27.8813 11.6656 28.3907 12.0344 28.9188 12.375C28.9219 12.3781 28.925 12.3781 28.9282 12.3813C28.9719 12.4094 29.5625 13.0531 28.7969 12.2812C28.8844 12.3688 28.7188 12.1687 28.7188 12.1687C28.7219 12.1906 28.7563 12.2344 28.7657 12.2563C28.7344 12.1813 28.7032 12.1063 28.6719 12.0312C28.6875 12.0719 28.6969 12.1125 28.7032 12.1531C28.6907 12.0687 28.6813 11.9875 28.6688 11.9031C28.6719 11.9469 28.6719 11.9844 28.6657 12.0281C28.6782 11.9438 28.6875 11.8625 28.7 11.7781C28.6938 11.8188 28.6813 11.8594 28.6657 11.8969C28.6969 11.8219 28.7282 11.7469 28.7594 11.6719C28.75 11.6906 28.7407 11.7094 28.7313 11.7281C28.6782 11.8438 28.8813 11.5563 28.8125 11.625C28.7063 11.7313 29.0344 11.4938 28.8594 11.5813C28.9344 11.55 29.0094 11.5188 29.0844 11.4875C29.0407 11.5063 29 11.5188 28.9532 11.525C29.0375 11.5125 29.1188 11.5031 29.2032 11.4906C29.1844 11.5 29.1594 11.5031 29.1344 11.5031C28.6438 11.5188 28.175 11.9219 28.1969 12.4406C28.2188 12.9344 28.6094 13.3969 29.1344 13.3781C29.6469 13.3594 30.1344 13.1031 30.375 12.6375C30.6063 12.1937 30.6188 11.6125 30.3157 11.1969C30.1719 10.9969 29.9969 10.85 29.8 10.7125C29.5625 10.55 29.325 10.3875 29.0875 10.225C28.0688 9.52813 27.0469 8.83125 26.0282 8.13437C24.6719 7.20625 23.3125 6.27813 21.9563 5.35C20.7375 4.51875 19.5219 3.68438 18.3032 2.85313C17.7032 2.44375 17.1094 2.01562 16.5 1.61875C16.4907 1.6125 16.4813 1.60625 16.475 1.6C16.2188 1.425 15.7844 1.425 15.5282 1.6C15.3188 1.74375 15.1094 1.8875 14.9 2.02813C14.3532 2.40313 13.8032 2.77813 13.2563 3.15313C12.4907 3.67813 11.725 4.2 10.9563 4.725C10.0969 5.3125 9.2344 5.90313 8.37503 6.49063C7.53128 7.06875 6.68753 7.64688 5.84065 8.22188C5.13753 8.70313 4.4344 9.18437 3.72815 9.66562C3.2844 9.96875 2.84065 10.2719 2.3969 10.575C2.3094 10.6344 2.2219 10.6938 2.13753 10.7531C1.92503 10.9031 1.72503 11.0719 1.61253 11.3094C1.31565 11.9313 1.45628 12.6563 2.0094 13.0844C2.3969 13.3844 2.80628 13.3781 3.25003 13.3781C3.6719 13.3781 4.09065 13.3781 4.51253 13.3781C5.16878 13.3781 5.82503 13.3781 6.48128 13.3781C7.32503 13.3781 8.16565 13.3781 9.0094 13.3781C9.97815 13.3781 10.95 13.3781 11.9188 13.3781C12.9625 13.3781 14.0032 13.3781 15.0469 13.3781C16.1063 13.3781 17.1657 13.3781 18.225 13.3781C19.2438 13.3781 20.2657 13.3781 21.2844 13.3781C22.2094 13.3781 23.1344 13.3781 24.0594 13.3781C24.8313 13.3781 25.6032 13.3781 26.375 13.3781C26.9469 13.3781 27.5157 13.3781 28.0875 13.3781C28.3969 13.3781 28.7063 13.3781 29.0157 13.3781C29.0563 13.3781 29.0938 13.3781 29.1344 13.3781C29.625 13.3781 30.0938 12.9469 30.0719 12.4406C30.05 11.9313 29.6594 11.5031 29.1344 11.5031ZM17.8282 28.6594C16.7625 28.6594 15.6969 28.6594 14.6313 28.6594C14.4782 28.6594 14.325 28.6594 14.1719 28.6594C14.4844 28.9719 14.7969 29.2844 15.1094 29.5969C15.1094 29.1313 15.1094 28.6688 15.1094 28.2031C15.1094 27.0875 15.1094 25.9719 15.1094 24.8563C15.1094 23.5 15.1094 22.1438 15.1094 20.7906C15.1094 19.6281 15.1094 18.4656 15.1094 17.3C15.1094 16.7312 15.125 16.1594 15.1094 15.5906C15.1094 15.5844 15.1094 15.575 15.1094 15.5688C14.7969 15.8813 14.4844 16.1938 14.1719 16.5063C15.2375 16.5063 16.3032 16.5063 17.3688 16.5063C17.5219 16.5063 17.675 16.5063 17.8282 16.5063C17.5157 16.1938 17.2032 15.8813 16.8907 15.5688C16.8907 16.0344 16.8907 16.4969 16.8907 16.9625C16.8907 18.0781 16.8907 19.1938 16.8907 20.3094C16.8907 21.6656 16.8907 23.0219 16.8907 24.375C16.8907 25.5375 16.8907 26.7 16.8907 27.8656C16.8907 28.4344 16.8782 29.0063 16.8907 29.575C16.8907 29.5813 16.8907 29.5906 16.8907 29.5969C16.8907 30.0875 17.3219 30.5563 17.8282 30.5344C18.3375 30.5125 18.7657 30.1219 18.7657 29.5969C18.7657 29.1313 18.7657 28.6688 18.7657 28.2031C18.7657 27.0875 18.7657 25.9719 18.7657 24.8563C18.7657 23.5 18.7657 22.1438 18.7657 20.7906C18.7657 19.6281 18.7657 18.4656 18.7657 17.3C18.7657 16.7312 18.7782 16.1594 18.7657 15.5906C18.7657 15.5844 18.7657 15.575 18.7657 15.5688C18.7657 15.0625 18.3375 14.6313 17.8282 14.6313C16.7625 14.6313 15.6969 14.6313 14.6313 14.6313C14.4782 14.6313 14.325 14.6313 14.1719 14.6313C13.6657 14.6313 13.2344 15.0594 13.2344 15.5688C13.2344 16.0344 13.2344 16.4969 13.2344 16.9625C13.2344 18.0781 13.2344 19.1938 13.2344 20.3094C13.2344 21.6656 13.2344 23.0219 13.2344 24.375C13.2344 25.5375 13.2344 26.7 13.2344 27.8656C13.2344 28.4344 13.2219 29.0063 13.2344 29.575C13.2344 29.5813 13.2344 29.5906 13.2344 29.5969C13.2344 30.1031 13.6625 30.5344 14.1719 30.5344C15.2375 30.5344 16.3032 30.5344 17.3688 30.5344C17.5219 30.5344 17.675 30.5344 17.8282 30.5344C18.3188 30.5344 18.7875 30.1031 18.7657 29.5969C18.7438 29.0875 18.3532 28.6594 17.8282 28.6594ZM8.90628 28.6594C7.84065 28.6594 6.77503 28.6594 5.7094 28.6594C5.55628 28.6594 5.40315 28.6594 5.25003 28.6594C5.56253 28.9719 5.87503 29.2844 6.18753 29.5969C6.18753 29.1313 6.18753 28.6688 6.18753 28.2031C6.18753 27.0875 6.18753 25.9719 6.18753 24.8563C6.18753 23.5 6.18753 22.1438 6.18753 20.7906C6.18753 19.6281 6.18753 18.4656 6.18753 17.3C6.18753 16.7312 6.20315 16.1594 6.18753 15.5906C6.18753 15.5844 6.18753 15.575 6.18753 15.5688C5.87503 15.8813 5.56253 16.1938 5.25003 16.5063C6.31565 16.5063 7.38128 16.5063 8.4469 16.5063C8.60003 16.5063 8.75315 16.5063 8.90628 16.5063C8.59378 16.1938 8.28128 15.8813 7.96878 15.5688C7.96878 16.0344 7.96878 16.4969 7.96878 16.9625C7.96878 18.0781 7.96878 19.1938 7.96878 20.3094C7.96878 21.6656 7.96878 23.0219 7.96878 24.375C7.96878 25.5375 7.96878 26.7 7.96878 27.8656C7.96878 28.4344 7.95628 29.0063 7.96878 29.575C7.96878 29.5813 7.96878 29.5906 7.96878 29.5969C7.96878 30.0875 8.40003 30.5563 8.90628 30.5344C9.41565 30.5125 9.84378 30.1219 9.84378 29.5969C9.84378 29.1313 9.84378 28.6688 9.84378 28.2031C9.84378 27.0875 9.84378 25.9719 9.84378 24.8563C9.84378 23.5 9.84378 22.1438 9.84378 20.7906C9.84378 19.6281 9.84378 18.4656 9.84378 17.3C9.84378 16.7312 9.85628 16.1594 9.84378 15.5906C9.84378 15.5844 9.84378 15.575 9.84378 15.5688C9.84378 15.0625 9.41565 14.6313 8.90628 14.6313C7.84065 14.6313 6.77503 14.6313 5.7094 14.6313C5.55628 14.6313 5.40315 14.6313 5.25003 14.6313C4.74378 14.6313 4.31253 15.0594 4.31253 15.5688C4.31253 16.0344 4.31253 16.4969 4.31253 16.9625C4.31253 18.0781 4.31253 19.1938 4.31253 20.3094C4.31253 21.6656 4.31253 23.0219 4.31253 24.375C4.31253 25.5375 4.31253 26.7 4.31253 27.8656C4.31253 28.4344 4.30003 29.0063 4.31253 29.575C4.31253 29.5813 4.31253 29.5906 4.31253 29.5969C4.31253 30.1031 4.74065 30.5344 5.25003 30.5344C6.31565 30.5344 7.38128 30.5344 8.4469 30.5344C8.60003 30.5344 8.75315 30.5344 8.90628 30.5344C9.3969 30.5344 9.86565 30.1031 9.84378 29.5969C9.8219 29.0875 9.43128 28.6594 8.90628 28.6594ZM26.75 28.6594C25.6844 28.6594 24.6188 28.6594 23.5532 28.6594C23.4 28.6594 23.2469 28.6594 23.0938 28.6594C23.4063 28.9719 23.7188 29.2844 24.0313 29.5969C24.0313 29.1313 24.0313 28.6688 24.0313 28.2031C24.0313 27.0875 24.0313 25.9719 24.0313 24.8563C24.0313 23.5 24.0313 22.1438 24.0313 20.7906C24.0313 19.6281 24.0313 18.4656 24.0313 17.3C24.0313 16.7312 24.0469 16.1594 24.0313 15.5906C24.0313 15.5844 24.0313 15.575 24.0313 15.5688C23.7188 15.8813 23.4063 16.1938 23.0938 16.5063C24.1594 16.5063 25.225 16.5063 26.2907 16.5063C26.4438 16.5063 26.5969 16.5063 26.75 16.5063C26.4375 16.1938 26.125 15.8813 25.8125 15.5688C25.8125 16.0344 25.8125 16.4969 25.8125 16.9625C25.8125 18.0781 25.8125 19.1938 25.8125 20.3094C25.8125 21.6656 25.8125 23.0219 25.8125 24.375C25.8125 25.5375 25.8125 26.7 25.8125 27.8656C25.8125 28.4344 25.8 29.0063 25.8125 29.575C25.8125 29.5813 25.8125 29.5906 25.8125 29.5969C25.8125 30.0875 26.2438 30.5563 26.75 30.5344C27.2594 30.5125 27.6875 30.1219 27.6875 29.5969C27.6875 29.1313 27.6875 28.6688 27.6875 28.2031C27.6875 27.0875 27.6875 25.9719 27.6875 24.8563C27.6875 23.5 27.6875 22.1438 27.6875 20.7906C27.6875 19.6281 27.6875 18.4656 27.6875 17.3C27.6875 16.7312 27.7 16.1594 27.6875 15.5906C27.6875 15.5844 27.6875 15.575 27.6875 15.5688C27.6875 15.0625 27.2594 14.6313 26.75 14.6313C25.6844 14.6313 24.6188 14.6313 23.5532 14.6313C23.4 14.6313 23.2469 14.6313 23.0938 14.6313C22.5875 14.6313 22.1563 15.0594 22.1563 15.5688C22.1563 16.0344 22.1563 16.4969 22.1563 16.9625C22.1563 18.0781 22.1563 19.1938 22.1563 20.3094C22.1563 21.6656 22.1563 23.0219 22.1563 24.375C22.1563 25.5375 22.1563 26.7 22.1563 27.8656C22.1563 28.4344 22.1438 29.0063 22.1563 29.575C22.1563 29.5813 22.1563 29.5906 22.1563 29.5969C22.1563 30.1031 22.5844 30.5344 23.0938 30.5344C24.1594 30.5344 25.225 30.5344 26.2907 30.5344C26.4438 30.5344 26.5969 30.5344 26.75 30.5344C27.2407 30.5344 27.7094 30.1031 27.6875 29.5969C27.6657 29.0875 27.2782 28.6594 26.75 28.6594Z" fill="#001E32"/>
<path d="M29.1344 11.5031C28.9 11.5031 28.6625 11.5031 28.4282 11.5031C27.7907 11.5031 27.1532 11.5031 26.5157 11.5031C25.5688 11.5031 24.6219 11.5031 23.6782 11.5031C22.5282 11.5031 21.3782 11.5031 20.2313 11.5031C18.9688 11.5031 17.7032 11.5031 16.4407 11.5031C15.1657 11.5031 13.8907 11.5031 12.6157 11.5031C11.4313 11.5031 10.25 11.5031 9.06565 11.5031C8.06253 11.5031 7.06253 11.5031 6.0594 11.5031C5.34378 11.5031 4.62815 11.5031 3.91253 11.5031C3.57503 11.5031 3.24065 11.5063 2.90315 11.5031C2.86565 11.5031 2.83128 11.5031 2.79065 11.4969C2.87503 11.5094 2.95628 11.5188 3.04065 11.5312C2.99378 11.5219 2.95315 11.5094 2.9094 11.4937C2.9844 11.525 3.0594 11.5562 3.1344 11.5875C3.1219 11.5813 3.09065 11.5562 3.07815 11.5562C3.0969 11.5562 3.27815 11.7344 3.1844 11.6313C3.14065 11.5813 3.29065 11.8094 3.27503 11.7469C3.26878 11.725 3.2469 11.6969 3.24065 11.6781C3.2719 11.7531 3.30315 11.8281 3.3344 11.9031C3.31878 11.8625 3.3094 11.825 3.30003 11.7844C3.31253 11.8688 3.3219 11.95 3.3344 12.0344C3.32815 11.9906 3.32815 11.9531 3.33128 11.9094C3.31878 11.9938 3.3094 12.075 3.2969 12.1594C3.30315 12.1156 3.31253 12.0781 3.32815 12.0375C3.2969 12.1125 3.26565 12.1875 3.2344 12.2625C3.2469 12.2375 3.26253 12.2156 3.2719 12.1906C3.3094 12.0969 3.0969 12.3875 3.20315 12.2875C2.17815 13.2563 3.03128 12.4156 3.0719 12.3875C3.07503 12.3844 3.07815 12.3813 3.0844 12.3813C3.10315 12.3688 3.1219 12.3563 3.14065 12.3438C3.2219 12.2875 3.30315 12.2313 3.3844 12.175C3.70003 11.9594 4.01878 11.7406 4.3344 11.525C5.39378 10.8 6.45628 10.075 7.51565 9.34688C8.81253 8.45938 10.1094 7.575 11.4032 6.6875C12.5375 5.9125 13.6688 5.1375 14.8032 4.3625C15.35 3.9875 15.9125 3.62813 16.4469 3.2375C16.4532 3.23125 16.4625 3.22813 16.4719 3.22188C16.1563 3.22188 15.8407 3.22188 15.525 3.22188C15.9782 3.53125 16.4313 3.84375 16.8875 4.15312C17.9657 4.89062 19.0438 5.62813 20.1219 6.36563C21.4188 7.25313 22.7157 8.14063 24.0125 9.02813C25.1313 9.78125 26.25 10.5469 27.3657 11.3125C27.8813 11.6656 28.3907 12.0344 28.9188 12.375C28.9219 12.3781 28.925 12.3781 28.9282 12.3813C28.9719 12.4094 29.5625 13.0531 28.7969 12.2812C28.8844 12.3688 28.7188 12.1687 28.7188 12.1687C28.7219 12.1906 28.7563 12.2344 28.7657 12.2563C28.7344 12.1813 28.7032 12.1063 28.6719 12.0312C28.6875 12.0719 28.6969 12.1125 28.7032 12.1531C28.6907 12.0687 28.6813 11.9875 28.6688 11.9031C28.6719 11.9469 28.6719 11.9844 28.6657 12.0281C28.6782 11.9438 28.6875 11.8625 28.7 11.7781C28.6938 11.8188 28.6813 11.8594 28.6657 11.8969C28.6969 11.8219 28.7282 11.7469 28.7594 11.6719C28.75 11.6906 28.7407 11.7094 28.7313 11.7281C28.6782 11.8438 28.8813 11.5563 28.8125 11.625C28.7063 11.7313 29.0344 11.4938 28.8594 11.5813C28.9344 11.55 29.0094 11.5188 29.0844 11.4875C29.0407 11.5063 29 11.5188 28.9532 11.525C29.0375 11.5125 29.1188 11.5031 29.2032 11.4906C29.1844 11.5 29.1594 11.5031 29.1344 11.5031C28.6438 11.5188 28.175 11.9219 28.1969 12.4406C28.2188 12.9344 28.6094 13.3969 29.1344 13.3781C29.6469 13.3594 30.1344 13.1031 30.375 12.6375C30.6063 12.1937 30.6188 11.6125 30.3157 11.1969C30.1719 10.9969 29.9969 10.85 29.8 10.7125C29.5625 10.55 29.325 10.3875 29.0875 10.225C28.0688 9.52813 27.0469 8.83125 26.0282 8.13437C24.6719 7.20625 23.3125 6.27813 21.9563 5.35C20.7375 4.51875 19.5219 3.68438 18.3032 2.85313C17.7032 2.44375 17.1094 2.01562 16.5 1.61875C16.4907 1.6125 16.4813 1.60625 16.475 1.6C16.2188 1.425 15.7844 1.425 15.5282 1.6C15.3188 1.74375 15.1094 1.8875 14.9 2.02813C14.3532 2.40313 13.8032 2.77813 13.2563 3.15313C12.4907 3.67813 11.725 4.2 10.9563 4.725C10.0969 5.3125 9.2344 5.90313 8.37503 6.49063C7.53128 7.06875 6.68753 7.64688 5.84065 8.22188C5.13753 8.70313 4.4344 9.18437 3.72815 9.66562C3.2844 9.96875 2.84065 10.2719 2.3969 10.575C2.3094 10.6344 2.2219 10.6938 2.13753 10.7531C1.92503 10.9031 1.72503 11.0719 1.61253 11.3094C1.31565 11.9313 1.45628 12.6563 2.0094 13.0844C2.3969 13.3844 2.80628 13.3781 3.25003 13.3781C3.6719 13.3781 4.09065 13.3781 4.51253 13.3781C5.16878 13.3781 5.82503 13.3781 6.48128 13.3781C7.32503 13.3781 8.16565 13.3781 9.0094 13.3781C9.97815 13.3781 10.95 13.3781 11.9188 13.3781C12.9625 13.3781 14.0032 13.3781 15.0469 13.3781C16.1063 13.3781 17.1657 13.3781 18.225 13.3781C19.2438 13.3781 20.2657 13.3781 21.2844 13.3781C22.2094 13.3781 23.1344 13.3781 24.0594 13.3781C24.8313 13.3781 25.6032 13.3781 26.375 13.3781C26.9469 13.3781 27.5157 13.3781 28.0875 13.3781C28.3969 13.3781 28.7063 13.3781 29.0157 13.3781C29.0563 13.3781 29.0938 13.3781 29.1344 13.3781C29.625 13.3781 30.0938 12.9469 30.0719 12.4406C30.05 11.9313 29.6594 11.5031 29.1344 11.5031Z" fill="#64CEB8"/>
</svg>
