<svg width="32" height="32" viewBox="0 0 32 32" fill="none" xmlns="http://www.w3.org/2000/svg">
<g clip-path="url(#clip0_188_1069)">
<path d="M12.8657 21.9813C13.1782 21.6719 13.4907 21.3594 13.8032 21.0469C11.6345 21.1969 9.45635 21.175 7.29697 20.8875C7.38135 20.9 7.4626 20.9094 7.54697 20.9219C6.30947 20.7563 5.04072 20.525 3.88135 20.0375L4.10635 20.1313C3.9126 20.05 3.72197 19.9563 3.54072 19.8532C3.45947 19.8063 3.38135 19.7563 3.30322 19.7032C3.24072 19.6594 3.0876 19.5407 3.3626 19.7532C3.15322 19.5938 2.9751 19.4782 2.7001 19.4782C2.85635 19.5219 3.01572 19.5625 3.17197 19.6063C3.11572 19.5625 2.92822 19.4282 3.1876 19.6282C2.97822 19.4688 2.8001 19.3532 2.5251 19.3532C2.79385 19.5094 3.06572 19.6625 3.33447 19.8188C3.3126 19.7844 3.06885 19.4625 3.22197 19.675C3.37822 19.8875 3.14697 19.5782 3.1251 19.5532L3.05947 19.4782C2.96885 19.3813 3.19385 19.6782 3.12197 19.5594C3.08447 19.5 3.0501 19.4438 3.02197 19.3782L3.11572 19.6032C3.0876 19.5344 3.06885 19.4688 3.05947 19.3969C3.07197 19.4813 3.08135 19.5625 3.09385 19.6469V14.8469C2.48135 14.9313 1.86572 15.0125 1.25322 15.0969C1.34385 15.6532 1.84385 16.3282 2.4501 16.3282C2.22822 16.2375 2.00947 16.1438 1.7876 16.0532C1.79385 16.0594 1.8001 16.0657 1.80947 16.0719C1.71885 15.85 1.6251 15.6313 1.53447 15.4094C1.53447 15.625 1.6126 15.8188 1.74072 15.9844C1.79697 16.0563 1.79072 16.0532 1.82197 16.0875L1.82822 16.0938C2.07197 16.2844 2.08135 16.2907 1.85322 16.1094C1.77197 15.9719 1.69385 15.8344 1.6126 15.6969C1.62822 15.75 1.68447 15.8813 1.70947 15.9313L1.61572 15.7063C1.64385 15.7875 1.68447 15.8782 1.71885 15.9563C1.85322 16.2469 2.22197 16.4219 2.52822 16.4219C2.30635 16.3313 2.0876 16.2375 1.86572 16.1469C1.9251 16.2063 2.29072 16.4813 2.1001 16.3438C2.00947 16.2782 2.02197 16.2875 2.1376 16.375C2.19697 16.4344 2.26572 16.4719 2.34385 16.4969C2.45635 16.5438 2.58135 16.5782 2.70635 16.5782C2.5501 16.5344 2.39072 16.4938 2.23447 16.45C2.77822 16.8563 3.44697 17.1063 4.0876 17.3157C4.87197 17.5688 5.68135 17.7407 6.49385 17.8688C8.33135 18.1594 10.1907 18.2594 12.047 18.2157C13.0532 18.1907 14.0563 18.1219 15.0563 17.9969C14.7876 17.5282 14.5157 17.0563 14.247 16.5875C13.2188 18.1782 12.747 20.0875 12.8657 21.9813C12.897 22.4688 13.2751 22.9438 13.8032 22.9188C14.2845 22.8969 14.772 22.5063 14.7407 21.9813C14.7063 21.4157 14.7188 20.85 14.7907 20.2875C14.7782 20.3719 14.7688 20.4532 14.7563 20.5375C14.8532 19.8344 15.0407 19.15 15.3188 18.4938L15.2251 18.7188C15.4032 18.3032 15.6126 17.9063 15.8563 17.525C16.0345 17.2438 16.022 16.8594 15.8563 16.5782C15.7063 16.3188 15.3626 16.075 15.047 16.1125C13.0095 16.3688 10.9313 16.4094 8.88447 16.2594C8.33135 16.2188 7.78135 16.1625 7.23135 16.0907C7.31572 16.1032 7.39697 16.1125 7.48135 16.125C6.26572 15.9594 5.02822 15.7219 3.89072 15.2469L4.11572 15.3407C3.92197 15.2594 3.72822 15.1688 3.54385 15.0657C3.26572 14.9094 3.04697 14.6969 2.7001 14.6969C2.92197 14.7875 3.14072 14.8813 3.3626 14.9719C3.29385 14.9063 3.2126 14.8469 3.13447 14.7907C3.1751 14.8188 3.31572 14.9344 3.20322 14.8313C3.0126 14.6594 2.78447 14.5407 2.52197 14.5407C2.79072 14.6969 3.0626 14.85 3.33135 15.0063C3.32822 15.0032 3.32822 15 3.3251 14.9938L3.41885 15.2188C3.39385 15.1438 3.35322 15.05 3.31885 14.9782L3.4126 15.2032C3.35635 15 3.23447 14.8313 3.07197 14.7063C2.82822 14.5188 3.10635 14.7282 3.1376 14.7594C3.13135 14.7532 3.28135 14.95 3.27197 14.9344C3.31572 15.0907 3.35635 15.25 3.4001 15.4063C3.4001 14.8938 2.95635 14.4469 2.44072 14.4469C2.6626 14.5375 2.88135 14.6313 3.10322 14.7219C3.07822 14.6969 3.05635 14.6688 3.03135 14.6438C3.23135 14.8438 3.13447 14.7844 3.08135 14.7C3.05635 14.6563 3.03447 14.6125 3.0126 14.5688L3.10635 14.7938C3.07822 14.7282 3.0626 14.6625 3.0501 14.5938C3.01572 14.3844 2.8001 14.1282 2.61885 14.0344C2.42822 13.9344 2.23447 13.8938 2.02197 13.9219C1.56572 13.9844 1.20947 14.3719 1.20947 14.8438V19.5063C1.20947 19.6688 1.21885 19.8282 1.25947 19.9875C1.3376 20.2907 1.50635 20.5438 1.70322 20.7813C1.7126 20.7938 1.7251 20.8063 1.7376 20.8188C1.74072 20.8219 1.74385 20.8282 1.74697 20.8313C1.85322 20.95 1.65322 20.7032 1.6501 20.7C1.70322 20.7688 1.7626 20.8375 1.8126 20.9094C1.77822 20.8625 1.74072 20.8157 1.70635 20.7688C1.75635 20.8313 1.80322 20.8938 1.85322 20.9594C2.02197 21.1282 2.27822 21.2344 2.51572 21.2344C2.29385 21.1438 2.0751 21.05 1.85322 20.9594C2.09385 21.1625 2.35947 21.3594 2.69072 21.3594C2.46885 21.2688 2.2501 21.175 2.02822 21.0844C3.18135 21.9938 4.69385 22.3438 6.1126 22.5938C7.7001 22.875 9.31572 23.0032 10.9282 23.025C11.8845 23.0375 12.8407 22.9938 13.797 22.9313C14.0376 22.9157 14.2907 22.8407 14.4595 22.6563C14.6157 22.4844 14.7595 22.2344 14.7345 21.9938V21.9907C14.7063 21.7344 14.6501 21.5157 14.4595 21.3282C14.297 21.1657 14.0313 21.0438 13.797 21.0532C13.5532 21.0625 13.3032 21.1438 13.1345 21.3282C12.9845 21.4875 12.8407 21.7375 12.8657 21.9813ZM19.4657 5.00629C19.4657 5.08754 19.4657 5.16566 19.4532 5.24691C19.4657 5.16254 19.4751 5.08129 19.4876 4.99691C19.4751 5.06566 19.4532 5.13129 19.4251 5.19691L19.5188 4.97191C19.4938 5.02504 19.4626 5.07504 19.4313 5.12504C19.3501 5.26254 19.572 4.96254 19.497 5.04066C19.472 5.06566 19.4532 5.09066 19.4282 5.11566C19.3751 5.17191 19.3157 5.21879 19.2595 5.27191C19.4688 5.07191 19.3095 5.23441 19.2345 5.28441C18.9782 5.45629 18.7032 5.59066 18.422 5.70941L18.647 5.61566C17.4845 6.10004 16.222 6.33754 14.9782 6.50629C15.0626 6.49379 15.1438 6.48441 15.2282 6.47191C13.1938 6.74066 11.1157 6.79691 9.07197 6.65004C8.51885 6.60941 7.96572 6.55316 7.4126 6.47816C7.49697 6.49066 7.57822 6.50004 7.6626 6.51254C6.39697 6.34066 5.1001 6.11254 3.91572 5.61566L4.14072 5.70941C3.94072 5.62504 3.74385 5.53129 3.55635 5.42191C3.4751 5.37504 3.39697 5.32504 3.31885 5.27191C3.3001 5.25941 3.28447 5.24379 3.26572 5.23441C3.18135 5.17816 3.45635 5.38441 3.37822 5.32191C3.17822 5.15941 2.96885 5.03754 2.70322 5.03754C2.85947 5.08129 3.01885 5.12191 3.1751 5.16566C3.35322 5.31566 3.32822 5.30004 3.1001 5.11879C3.02197 5.06254 3.05322 5.08441 3.1876 5.18754C2.98135 5.02816 2.8001 4.91254 2.5251 4.91254C2.79385 5.06879 3.06572 5.22191 3.33447 5.37816C3.2501 5.26879 3.18135 5.17191 3.07197 5.08754C2.78135 4.86254 3.17822 5.19379 3.1251 5.12504C3.10635 5.10004 3.08135 5.07504 3.05947 5.05316C2.96885 4.95941 3.19385 5.25316 3.12197 5.13441C3.08447 5.07504 3.0501 5.01879 3.02197 4.95316L3.11572 5.17816C3.0876 5.11254 3.06885 5.04691 3.05947 4.97816C3.07197 5.06254 3.08135 5.14379 3.09385 5.22816V5.02504C3.08135 5.10941 3.07197 5.19066 3.05947 5.27504C3.06885 5.20629 3.0876 5.14066 3.11572 5.07816L3.02197 5.30316C3.04385 5.25316 3.06885 5.20316 3.09697 5.15941C3.1126 5.13441 3.13135 5.11254 3.14697 5.08754C3.15322 5.07816 2.95635 5.31566 3.06885 5.19066C3.1126 5.14379 3.15635 5.09691 3.20635 5.05316C3.23135 5.03129 3.25947 5.00629 3.28447 4.98441C3.29697 4.97504 3.30947 4.96566 3.32197 4.95316C3.38135 4.89691 3.09697 5.11879 3.2001 5.04691C3.4876 4.84379 3.79385 4.68129 4.11885 4.54379L3.89385 4.63754C5.05322 4.15004 6.3126 3.91254 7.55322 3.74379C7.46885 3.75629 7.3876 3.76566 7.30322 3.77816C9.3751 3.50004 11.4876 3.45629 13.572 3.60629C14.1313 3.64691 14.6907 3.70316 15.247 3.77816C15.1626 3.76566 15.0813 3.75629 14.997 3.74379C16.2438 3.91254 17.5157 4.15004 18.6813 4.64379L18.4563 4.55004C18.7782 4.68754 19.0813 4.85004 19.3688 5.05004C19.4501 5.10629 19.1501 4.87191 19.2751 4.97816C19.3001 5.00004 19.3282 5.02191 19.3532 5.04691C19.4001 5.09066 19.447 5.13754 19.4907 5.18441C19.5032 5.19691 19.5126 5.20941 19.5251 5.22191C19.5907 5.29379 19.4032 5.05629 19.4157 5.07816C19.4282 5.10316 19.4501 5.12504 19.4657 5.15004C19.497 5.20004 19.5251 5.25004 19.547 5.30316L19.4532 5.07816C19.4782 5.13754 19.4938 5.19691 19.5063 5.25629C19.5438 5.47504 19.7532 5.70941 19.9376 5.81566C20.1376 5.93441 20.4345 5.98441 20.6595 5.90941C20.8876 5.83754 21.1063 5.69691 21.2188 5.47816C21.3438 5.24379 21.3595 5.01566 21.3126 4.75629C21.2126 4.17816 20.7501 3.74066 20.3001 3.41254C19.8095 3.05316 19.2157 2.82191 18.6438 2.62504C17.0095 2.06566 15.2501 1.84691 13.5407 1.72816C11.5407 1.58754 9.51885 1.62504 7.53135 1.87191C5.93447 2.07191 4.29072 2.35316 2.83447 3.07504C2.31572 3.33129 1.84072 3.67816 1.50947 4.15941C1.10635 4.74066 1.11885 5.57191 1.54697 6.14066C1.69697 6.34066 1.81885 6.49691 2.03135 6.63441L1.69385 6.29691C1.8001 6.43441 1.8876 6.57504 2.0501 6.65941C2.19697 6.73754 2.35635 6.78754 2.5251 6.78754C2.30322 6.69691 2.08447 6.60316 1.8626 6.51254C1.93447 6.57191 2.00947 6.63129 2.08447 6.68754C2.22822 6.79691 1.79697 6.46254 2.09385 6.69691C2.26572 6.82816 2.48135 6.91566 2.7001 6.91566C2.47822 6.82504 2.25947 6.73129 2.0376 6.64066C3.00635 7.41254 4.23135 7.77191 5.4251 8.02816C6.8251 8.32816 8.2626 8.49691 9.69072 8.56566C11.1626 8.64066 12.647 8.60629 14.1126 8.47504C15.5095 8.34691 16.922 8.15004 18.2626 7.74066C18.9126 7.54379 19.5845 7.30004 20.1563 6.92191C20.5157 6.68441 20.8407 6.40629 21.072 6.04066C21.2688 5.72504 21.3407 5.37191 21.3407 5.00629C21.3407 4.51566 20.9095 4.04691 20.4032 4.06879C19.897 4.09066 19.4657 4.48129 19.4657 5.00629Z" fill="#001E32"/>
<path d="M19.4657 5.12198V9.38135C19.4657 9.6001 19.4845 9.83135 19.4532 10.0501C19.4657 9.96573 19.4751 9.88448 19.4876 9.8001C19.4751 9.86885 19.4532 9.93448 19.4251 10.0001L19.5188 9.7751C19.4938 9.82823 19.4626 9.87823 19.4313 9.92823C19.3501 10.0657 19.572 9.76573 19.497 9.84385C19.472 9.86885 19.4532 9.89385 19.4282 9.91885C19.3751 9.9751 19.3157 10.022 19.2595 10.0751C19.4688 9.8751 19.3095 10.0376 19.2345 10.0876C18.9782 10.2595 18.7032 10.3939 18.422 10.5126L18.647 10.4189C17.4845 10.9032 16.222 11.1407 14.9782 11.3095C15.0626 11.297 15.1438 11.2876 15.2282 11.2751C13.1626 11.5501 11.0501 11.6032 8.9751 11.4532C8.40947 11.4126 7.84697 11.3564 7.28447 11.2814C7.36885 11.2939 7.4501 11.3032 7.53447 11.3157C7.31572 11.2876 7.09697 11.2532 6.88135 11.2189C6.63447 11.1782 6.35635 11.0939 6.10947 11.0939C6.19385 11.1064 6.2751 11.1157 6.35947 11.1282C5.48447 10.9501 4.60947 10.7345 3.78447 10.3876L4.00947 10.4814C3.8376 10.4064 3.66885 10.3282 3.50322 10.2376C3.24072 10.0939 3.02822 9.90635 2.70322 9.90635C2.9251 9.99698 3.14385 10.0907 3.36572 10.1814C3.3126 10.1189 3.19697 9.96885 3.39697 10.2407C3.34072 10.1626 3.29072 10.0782 3.21885 10.0126C3.03135 9.8376 2.7876 9.71885 2.5251 9.71885C2.79385 9.8751 3.06572 10.0282 3.33447 10.1845C3.25322 10.0751 3.18135 9.97823 3.07197 9.89385C2.77822 9.66885 3.18135 10.0001 3.1251 9.92823C3.10635 9.90323 3.08135 9.87823 3.05947 9.85323C2.96885 9.75948 3.19385 10.0532 3.12197 9.93448C3.08447 9.8751 3.0501 9.81885 3.02197 9.75323L3.11572 9.97823C3.0876 9.9126 3.06885 9.84698 3.05947 9.77823C3.07197 9.8626 3.08135 9.94385 3.09385 10.0282V5.22198C2.48135 5.30635 1.86572 5.3876 1.25322 5.47198C1.32197 5.91885 1.65635 6.3876 2.03447 6.63135L1.69697 6.29385C1.80322 6.43135 1.89072 6.57198 2.05322 6.65635C2.2001 6.73448 2.35947 6.78448 2.52822 6.78448C2.30635 6.69385 2.0876 6.6001 1.86572 6.50948C1.9376 6.56885 2.0126 6.62823 2.0876 6.68448C2.23135 6.79385 1.8001 6.45948 2.09697 6.69385C2.26885 6.8251 2.48447 6.9126 2.70322 6.9126C2.48135 6.82198 2.2626 6.72823 2.04072 6.6376C2.99697 7.39698 4.19697 7.75948 5.3751 8.0126C6.75322 8.3126 8.16885 8.4751 9.5751 8.5501C11.0095 8.6251 12.4532 8.60948 13.8876 8.49073C15.2782 8.3751 16.6813 8.1876 18.0251 7.80948C18.6782 7.6251 19.3376 7.39385 19.9313 7.0626C20.6657 6.6501 21.3126 6.0126 21.3438 5.1251C21.3595 4.63448 20.9001 4.16573 20.4063 4.1876C19.8813 4.20948 19.4845 4.59698 19.4657 5.12198C19.4657 5.14385 19.4626 5.16573 19.4626 5.1876C19.4751 5.10323 19.4845 5.02198 19.497 4.9376C19.4845 5.02823 19.4595 5.10948 19.4251 5.19385L19.5188 4.96885C19.4938 5.02198 19.4626 5.07198 19.4313 5.12198C19.3501 5.25948 19.572 4.95948 19.497 5.0376C19.472 5.0626 19.4532 5.0876 19.4282 5.1126C19.3751 5.16885 19.3157 5.21573 19.2595 5.26885C19.4688 5.06885 19.3095 5.23135 19.2345 5.28135C18.9782 5.45323 18.7032 5.5876 18.422 5.70635L18.647 5.6126C17.4845 6.09698 16.222 6.33448 14.9782 6.5001C15.0626 6.4876 15.1438 6.47823 15.2282 6.46573C13.1845 6.73448 11.1001 6.78135 9.04385 6.63448C8.48135 6.59385 7.91885 6.5376 7.3626 6.4626C7.44697 6.4751 7.52822 6.48448 7.6126 6.49698C6.36572 6.32823 5.0876 6.1001 3.92197 5.60948L4.14697 5.70323C3.94697 5.61885 3.7501 5.5251 3.5626 5.41573C3.48135 5.36885 3.40322 5.31885 3.3251 5.26573C3.30635 5.25323 3.29072 5.2376 3.27197 5.22823C3.1876 5.17198 3.4626 5.37823 3.38447 5.31573C3.18447 5.15323 2.9751 5.03135 2.70947 5.03135C2.86572 5.0751 3.0251 5.11573 3.18135 5.15948C3.35947 5.30948 3.33447 5.29385 3.10635 5.1126C3.02822 5.05635 3.05947 5.07823 3.19385 5.18135C2.9876 5.02198 2.80635 4.90635 2.53135 4.90635C2.8001 5.0626 3.07197 5.21573 3.34072 5.37198C3.25635 5.2626 3.1876 5.16573 3.07822 5.08135C2.7876 4.85635 3.18447 5.1876 3.13135 5.11885C3.1126 5.09385 3.0876 5.06885 3.06572 5.04385C2.9751 4.9501 3.2001 5.24385 3.12822 5.1251C3.09072 5.06573 3.05635 5.00948 3.02822 4.94385L3.12197 5.16885C3.09385 5.10323 3.0751 5.0376 3.06572 4.96885C3.03447 4.75948 2.81572 4.50323 2.63447 4.40948C2.44385 4.30948 2.2501 4.26885 2.0376 4.29698C1.58135 4.35948 1.2251 4.74698 1.2251 5.21885V9.8376C1.2251 9.99073 1.23135 10.1189 1.25947 10.2751C1.3376 10.7439 1.66572 11.1626 2.04072 11.4376L1.70322 11.1001C1.90635 11.3814 2.16572 11.5939 2.53447 11.5939C2.37822 11.5501 2.21885 11.5095 2.0626 11.4657L1.78447 11.1876C1.81572 11.2282 1.84697 11.272 1.87822 11.3095C1.92822 11.3751 1.95635 11.4095 2.00947 11.4626C2.19697 11.6532 2.43447 11.7814 2.70947 11.7814C2.55322 11.7376 2.39385 11.697 2.2376 11.6532C2.72197 11.9939 3.29697 12.2157 3.85322 12.4064C4.1751 12.5157 4.5001 12.6126 4.82822 12.697C5.00947 12.7439 5.19072 12.7876 5.3751 12.8282C5.60947 12.8814 5.87822 12.9657 6.11885 12.9657C6.03447 12.9532 5.95322 12.9439 5.86885 12.9314C7.8501 13.3001 9.8626 13.4251 11.8782 13.3907C13.8438 13.3564 15.847 13.1751 17.7532 12.6845C18.5751 12.472 19.4345 12.197 20.1501 11.7345C20.8126 11.3064 21.3501 10.697 21.3532 9.86885C21.3563 9.0751 21.3532 8.28135 21.3532 7.4876C21.3532 6.70948 21.3657 5.93448 21.3532 5.15635V5.11573C21.3532 4.6251 20.922 4.15635 20.4157 4.17823C19.897 4.20948 19.4657 4.59698 19.4657 5.12198Z" fill="#001E32"/>
<path d="M19.4657 9.99678V13.4655C19.6939 13.1655 19.9251 12.8624 20.1532 12.5624C18.3064 12.8968 16.5657 13.8562 15.2845 15.228C15.1189 15.403 14.9626 15.5874 14.8157 15.778C14.7407 15.8718 14.6689 15.9687 14.597 16.0624C14.6001 16.0562 14.5407 16.1405 14.5407 16.1405C14.5814 16.0905 14.6189 16.0405 14.6595 15.9905C14.6095 16.053 14.5626 16.1155 14.5126 16.1812C14.4189 16.3093 14.3282 16.4437 14.2407 16.578C14.5095 16.4218 14.7814 16.2687 15.0501 16.1124C13.0095 16.3687 10.9376 16.403 8.88762 16.2562C8.33449 16.2155 7.78449 16.1624 7.23449 16.0905C7.31887 16.103 7.40012 16.1124 7.48449 16.1249C6.26887 15.9624 5.03137 15.7218 3.89387 15.2468L4.11887 15.3405C3.92512 15.2593 3.73137 15.1687 3.54699 15.0655C3.26887 14.9093 3.05012 14.6968 2.70324 14.6968C2.92512 14.7874 3.14387 14.8812 3.36574 14.9718C3.29699 14.9062 3.21574 14.8468 3.13762 14.7905C3.17824 14.8187 3.31887 14.9343 3.20637 14.8312C3.01574 14.6593 2.78762 14.5405 2.52512 14.5405C2.79387 14.6968 3.06574 14.8499 3.33449 15.0062C3.33137 15.003 3.33137 14.9999 3.32824 14.9937L3.42199 15.2187C3.33449 14.953 3.20637 14.7718 2.95637 14.6187L3.29387 14.9562C3.24387 14.8905 3.19387 14.8218 3.14074 14.7593C3.08137 14.6874 3.19699 14.7937 3.27512 14.9343C3.31887 15.0905 3.35949 15.2499 3.40324 15.4062C3.40324 15.1155 3.25949 14.8749 3.06262 14.6749C2.96262 14.5718 3.19074 14.8593 3.12512 14.7593C3.08449 14.6968 3.05012 14.6374 3.01887 14.5687L3.11262 14.7937C3.08449 14.728 3.06887 14.6624 3.05637 14.5937C3.06887 14.678 3.07824 14.7593 3.09074 14.8437V10.0374C2.47824 10.1218 1.86262 10.203 1.25012 10.2874C1.28449 10.5093 1.38762 10.728 1.51574 10.9124C1.58762 11.0155 1.66262 11.1124 1.74387 11.2062C1.80637 11.278 1.88762 11.3843 1.65949 11.0874C1.80949 11.2812 1.82824 11.3062 2.03137 11.453L1.69387 11.1155C1.89699 11.3999 2.15949 11.6093 2.52512 11.6093C2.36887 11.5655 2.20949 11.5249 2.05324 11.4812L1.77512 11.203C1.80637 11.2437 1.83762 11.2874 1.86887 11.3249C1.91887 11.3905 1.94699 11.4249 2.00012 11.478C2.18762 11.6687 2.42512 11.7968 2.70012 11.7968C2.54387 11.753 2.38449 11.7124 2.22824 11.6687C2.71262 12.0093 3.28762 12.2312 3.84387 12.4218C4.16574 12.5312 4.49074 12.628 4.81887 12.7124C5.00012 12.7593 5.18137 12.803 5.36574 12.8437C5.60012 12.8968 5.86887 12.9812 6.10949 12.9812C6.02512 12.9687 5.94387 12.9593 5.85949 12.9468C8.04387 13.353 10.2689 13.4687 12.4845 13.3874C13.6189 13.3468 14.7501 13.2405 15.8751 13.0718C16.847 12.9249 17.822 12.7249 18.7501 12.3905C19.2501 12.2124 19.7626 12.003 20.2032 11.703C20.7095 11.3562 21.2001 10.8843 21.3095 10.253C21.3532 9.99991 21.3501 9.76241 21.2157 9.53116C21.1032 9.33741 20.8782 9.14991 20.6564 9.09991C20.2001 8.99678 19.5907 9.23741 19.5032 9.75616C19.4876 9.84678 19.4626 9.92803 19.4282 10.0124L19.522 9.78741C19.497 9.84053 19.4657 9.89053 19.4345 9.94053C19.3532 10.078 19.5751 9.77803 19.5001 9.85616C19.4751 9.88116 19.4564 9.90616 19.4314 9.93116C19.3782 9.98741 19.3189 10.0374 19.2626 10.0874C19.1314 10.1968 19.3657 10.0218 19.3376 10.028C19.3032 10.0405 19.2657 10.078 19.2345 10.0999C18.9814 10.2718 18.7032 10.4062 18.4189 10.5249L18.6439 10.4312C17.4814 10.9062 16.2189 11.1468 14.9751 11.3124C15.0595 11.2999 15.1407 11.2905 15.2251 11.278C13.1626 11.553 11.047 11.6062 8.97199 11.4562C8.40637 11.4155 7.84387 11.3593 7.28137 11.2843C7.36574 11.2968 7.44699 11.3062 7.53137 11.3187C7.31262 11.2905 7.09387 11.2562 6.87824 11.2218C6.63137 11.1812 6.35324 11.0968 6.10637 11.0968C6.19074 11.1093 6.27199 11.1187 6.35637 11.1312C5.48137 10.953 4.60637 10.7374 3.78137 10.3905L4.00637 10.4843C3.83449 10.4093 3.66574 10.3312 3.50012 10.2405C3.23762 10.0968 3.02512 9.90928 2.70012 9.90928C2.92199 9.99991 3.14074 10.0937 3.36262 10.1843C3.30949 10.1218 3.19387 9.97178 3.39387 10.2437C3.33762 10.1655 3.28762 10.0812 3.21574 10.0155C3.02824 9.84053 2.78449 9.72178 2.52199 9.72178C2.79074 9.87803 3.06262 10.0312 3.33137 10.1874C3.25324 10.0749 3.17824 9.97803 3.06887 9.89678C2.86574 9.73428 2.93449 9.80928 3.26887 10.1218C3.21887 10.0593 3.17199 9.99678 3.12199 9.93116L3.05637 9.85616C2.96574 9.75928 3.19074 10.0562 3.11887 9.93741C3.08137 9.87803 3.04699 9.82178 3.01887 9.75616L3.11262 9.98116C3.08762 9.91553 3.06887 9.84991 3.05637 9.78116C3.02199 9.57178 2.80637 9.31553 2.62512 9.22178C2.43449 9.12178 2.24074 9.08116 2.02824 9.10928C1.57199 9.17178 1.21574 9.55928 1.21574 10.0312V14.6374C1.21574 14.703 1.21262 14.7718 1.21574 14.8374C1.23762 15.2968 1.47199 15.7499 1.80324 16.0624C1.71262 15.8405 1.61887 15.6218 1.52824 15.3999C1.52824 15.6687 1.64074 15.8718 1.80637 16.0687C1.85949 16.1312 1.89699 16.1843 1.67512 15.8968C1.78762 16.0405 1.87199 16.1468 2.03762 16.2499L1.70012 15.9124C1.70324 15.9155 1.70324 15.9187 1.70637 15.9218L1.61262 15.6968C1.64074 15.778 1.68137 15.8687 1.71574 15.9468C1.85012 16.2374 2.21887 16.4124 2.52512 16.4124C2.30324 16.3218 2.08449 16.228 1.86262 16.1374C1.92199 16.1968 2.28762 16.4718 2.09699 16.3343C2.00637 16.2687 2.01887 16.278 2.13449 16.3655C2.19387 16.4249 2.26262 16.4624 2.34074 16.4874C2.45324 16.5343 2.57824 16.5687 2.70324 16.5687C2.54699 16.5249 2.38762 16.4843 2.23137 16.4405C2.61887 16.7312 3.06887 16.9218 3.51574 17.0999C4.02512 17.303 4.55637 17.4562 5.09387 17.5812C6.33762 17.8749 7.61574 18.0374 8.89074 18.128C10.197 18.2218 11.5126 18.2343 12.8189 18.1718C13.4564 18.1405 14.0907 18.0937 14.7251 18.0218C14.9845 17.9937 15.3064 17.9968 15.5251 17.853C15.7689 17.6968 15.922 17.4312 16.0782 17.1937C16.1751 17.0499 15.8189 17.5249 16.0595 17.2155C16.1001 17.1655 16.1376 17.1124 16.1751 17.0624C16.1939 17.0374 16.2126 17.0124 16.2345 16.9843C16.3032 16.8937 16.1032 17.1499 16.1751 17.0593C16.2595 16.953 16.347 16.8468 16.4376 16.7437C16.6282 16.5249 16.8314 16.3187 17.0407 16.1249C17.1532 16.0218 17.2689 15.9218 17.3845 15.8249C17.4407 15.778 17.497 15.7343 17.5532 15.6905C17.3126 15.8874 17.5314 15.7093 17.5939 15.6624C18.0782 15.3124 18.6032 15.0187 19.1532 14.7843L18.9282 14.878C19.4814 14.6437 20.0595 14.4749 20.6501 14.3655C21.0501 14.2937 21.3376 13.8468 21.3376 13.4624V9.99366C21.3376 9.50303 20.9064 9.03428 20.4001 9.05616C19.897 9.08116 19.4657 9.47178 19.4657 9.99678ZM15.672 25.6374C14.5814 25.7687 13.4907 25.8937 12.3907 25.9312C11.2689 25.9687 10.1439 25.9499 9.02512 25.8749C8.42824 25.8343 7.82824 25.7749 7.23449 25.6968C7.31887 25.7093 7.40012 25.7187 7.48449 25.7312C6.27824 25.5687 5.05012 25.3405 3.92199 24.8687L4.14699 24.9624C3.94699 24.878 3.75324 24.7843 3.56574 24.678C3.48762 24.6343 3.40949 24.5843 3.33449 24.5343C3.29699 24.5093 3.26262 24.4812 3.22512 24.4562C3.51887 24.6655 3.28762 24.4843 3.17199 24.4155C3.03449 24.3343 2.85324 24.2874 2.69699 24.2874C2.91887 24.378 3.13762 24.4718 3.35949 24.5624C3.29074 24.4968 3.20949 24.4374 3.13137 24.3812C3.17199 24.4093 3.31262 24.5249 3.20012 24.4218C3.00949 24.2499 2.78137 24.1312 2.51887 24.1312C2.74074 24.2218 2.95949 24.3155 3.18137 24.4062C3.12199 24.3343 3.03137 24.2905 2.96262 24.2312C2.90637 24.1843 3.15012 24.3999 3.11574 24.3499C3.10324 24.328 3.07199 24.2999 3.05324 24.2812C2.97512 24.203 3.19387 24.4905 3.10949 24.353C3.07512 24.2968 3.04074 24.2405 3.01574 24.1812L3.10949 24.4062C3.08137 24.3374 3.06262 24.2718 3.05324 24.1999C3.06574 24.2843 3.07512 24.3655 3.08762 24.4499V19.6499C2.47512 19.7343 1.85949 19.8155 1.24699 19.8999C1.28449 20.1374 1.40012 20.3749 1.54387 20.5655C1.61262 20.653 1.69074 20.7905 1.78762 20.8687C1.80949 20.8843 1.60012 20.628 1.67199 20.7187C1.83449 20.9312 1.86574 20.9718 1.76574 20.8374C1.68762 20.7343 1.69387 20.7437 1.78449 20.8624C1.95949 21.0874 2.23137 21.2312 2.52199 21.2312C2.30012 21.1405 2.08137 21.0468 1.85949 20.9562C2.10012 21.1593 2.36574 21.3562 2.69699 21.3562C2.47512 21.2655 2.25637 21.1718 2.03449 21.0812C3.18762 21.9905 4.70012 22.3405 6.11887 22.5905C7.70637 22.8718 9.32199 22.9999 10.9345 23.0187C11.8845 23.0312 12.8564 23.028 13.8032 22.9187L12.8657 21.9812C12.9751 23.7124 13.6157 25.3124 14.5939 26.728C14.5501 26.5718 14.5095 26.4124 14.4657 26.2562C14.4657 26.6562 14.7626 26.9593 15.0095 27.2468C15.3282 27.6218 16.0095 27.5999 16.3345 27.2468C16.7001 26.8499 16.6751 26.3187 16.3345 25.9218C16.2439 25.8155 16.1532 25.7062 16.0657 25.5968C16.1564 25.8187 16.2501 26.0374 16.3407 26.2593C16.3407 25.9468 16.1657 25.7249 16.0064 25.4812C15.9032 25.3218 15.8001 25.1655 15.7064 25.003C15.522 24.6905 15.3595 24.3687 15.2189 24.0374L15.3126 24.2624C15.0407 23.6155 14.8564 22.9374 14.7595 22.2405C14.772 22.3249 14.7814 22.4062 14.7939 22.4905C14.772 22.3249 14.7532 22.1562 14.7407 21.9874C14.7251 21.7499 14.6501 21.4937 14.4657 21.3249C14.2939 21.1687 14.0439 21.0218 13.8032 21.0499C13.2595 21.1124 12.7032 21.1249 12.1564 21.1405C11.5876 21.1562 11.0189 21.1562 10.447 21.1405C9.39387 21.1124 8.34074 21.0374 7.29699 20.8999C7.38137 20.9124 7.46262 20.9218 7.54699 20.9343C6.30949 20.7687 5.04074 20.5374 3.88137 20.0499L4.10637 20.1437C3.91262 20.0624 3.72199 19.9687 3.54074 19.8655C3.45949 19.8187 3.38137 19.7687 3.30324 19.7155C3.24074 19.6718 3.08762 19.553 3.36262 19.7655C3.15324 19.6062 2.97512 19.4905 2.70012 19.4905C2.85637 19.5343 3.01574 19.5749 3.17199 19.6187C3.11574 19.5749 2.92824 19.4405 3.18762 19.6405C2.97824 19.4812 2.80012 19.3655 2.52512 19.3655C2.79387 19.5218 3.06574 19.6749 3.33449 19.8312C3.31262 19.7968 3.06887 19.4749 3.22199 19.6874C3.37824 19.8999 3.14699 19.5905 3.12512 19.5655L3.05949 19.4905C2.96887 19.3937 3.19387 19.6905 3.12199 19.5718C3.08449 19.5124 3.05012 19.4562 3.02199 19.3905L3.11574 19.6155C3.08762 19.5499 3.07199 19.4843 3.05949 19.4155C3.02512 19.2062 2.80949 18.9499 2.62824 18.8562C2.43762 18.7562 2.24387 18.7155 2.03137 18.7437C1.57512 18.8062 1.21887 19.1937 1.21887 19.6655V24.3155C1.21887 24.4812 1.22824 24.6374 1.26887 24.803C1.34387 25.1093 1.51887 25.3655 1.71574 25.603C1.74387 25.6374 1.77512 25.6749 1.80637 25.7062C1.85324 25.753 1.94699 25.8124 2.00012 25.8562C2.07512 25.9187 1.84074 25.7405 1.86574 25.7562C1.97512 25.828 2.04699 25.8999 2.16887 25.9499C2.28137 25.9968 2.40637 26.0312 2.53137 26.0312C2.30949 25.9405 2.09074 25.8468 1.86887 25.7562C1.92824 25.8155 2.29387 26.0905 2.10324 25.953C2.01262 25.8874 2.02512 25.8968 2.14074 25.9843C2.20012 26.0437 2.26887 26.0812 2.34699 26.1062C2.45949 26.153 2.58449 26.1874 2.70949 26.1874C2.48762 26.0968 2.26887 26.003 2.04699 25.9124C3.20949 26.8155 4.70949 27.1843 6.13762 27.4312C8.16262 27.7812 10.2282 27.8937 12.2814 27.8374C13.4189 27.8062 14.5501 27.678 15.6814 27.5405C15.9376 27.5093 16.1532 27.4562 16.3439 27.2655C16.5064 27.103 16.6282 26.8374 16.6189 26.603C16.6095 26.3593 16.5282 26.1093 16.3439 25.9405C16.1626 25.7562 15.9126 25.6093 15.672 25.6374Z" fill="#001E32"/>
<path d="M21.8154 12.4063C19.231 12.4156 16.6873 13.5531 15.0123 15.5344C14.8841 15.6875 14.7591 15.8469 14.6373 16.0063C14.6091 16.0406 14.456 16.2438 14.5935 16.0656C14.7591 15.8531 14.5279 16.15 14.4716 16.2281C14.4435 16.2688 14.4154 16.3094 14.3841 16.35C14.2154 16.5938 14.0591 16.85 13.9185 17.1125C13.5998 17.7063 13.3404 18.3406 13.1623 18.9875C12.8498 20.1156 12.7623 21.3156 12.9154 22.4781C13.0154 23.2438 13.1873 23.9844 13.481 24.7C13.7779 25.4219 14.1466 26.0844 14.5904 26.725C14.5466 26.5688 14.506 26.4094 14.4623 26.2531C14.4623 26.6219 14.7029 26.8844 14.9279 27.15C15.0341 27.2781 15.1466 27.4031 15.2591 27.5219C15.4654 27.7406 15.681 27.9469 15.9091 28.1406C16.4123 28.5719 16.956 28.9594 17.5404 29.275C18.7404 29.9188 20.0623 30.2813 21.4216 30.3438C23.7779 30.4531 26.106 29.5813 27.8529 28.0063C29.5716 26.4531 30.5998 24.25 30.7591 21.95C30.9216 19.6125 30.106 17.2969 28.5966 15.5188C27.8904 14.6781 26.9998 13.9688 26.031 13.4563C24.9716 12.8969 23.8341 12.5688 22.6435 12.4469C22.3685 12.4188 22.0935 12.4063 21.8154 12.4063C21.3248 12.4063 20.856 12.8375 20.8779 13.3438C20.8998 13.8531 21.2904 14.2813 21.8154 14.2813C22.1779 14.2813 22.5404 14.3063 22.8998 14.3531C22.8154 14.3406 22.7341 14.3313 22.6498 14.3188C23.3466 14.4156 24.0248 14.6 24.6748 14.8688L24.4498 14.775C24.8185 14.9313 25.1716 15.1125 25.5123 15.3188C25.6873 15.425 25.8591 15.5375 26.0248 15.6594C26.0998 15.7125 26.3623 15.9281 26.0966 15.7094C26.1748 15.775 26.256 15.8375 26.3341 15.9031C26.6341 16.1594 26.9185 16.4344 27.1779 16.7313C27.2404 16.8031 27.3029 16.875 27.3623 16.95C27.3935 16.9875 27.4216 17.025 27.4529 17.0625C27.5404 17.1719 27.3779 16.9688 27.381 16.9688C27.3998 16.9781 27.4185 17.0156 27.431 17.0344C27.5529 17.1969 27.6716 17.3656 27.781 17.5406C28.0248 17.925 28.2341 18.3281 28.4123 18.7438L28.3185 18.5188C28.5873 19.1688 28.7716 19.8469 28.8685 20.5438C28.856 20.4594 28.8466 20.3781 28.8341 20.2938C28.9279 21.0125 28.9279 21.7406 28.8341 22.4594C28.8466 22.375 28.856 22.2938 28.8685 22.2094C28.7716 22.9063 28.5873 23.5844 28.3154 24.2344L28.4091 24.0094C28.2529 24.3781 28.0716 24.7344 27.8654 25.075C27.7591 25.25 27.6466 25.4219 27.5248 25.5875C27.4716 25.6625 27.256 25.925 27.4748 25.6594C27.4091 25.7375 27.3466 25.8188 27.281 25.8969C27.0248 26.2 26.7466 26.4813 26.4529 26.7438C26.381 26.8063 26.3091 26.8688 26.2341 26.9281C26.1966 26.9594 26.1591 26.9875 26.1216 27.0188C26.0123 27.1063 26.2154 26.9438 26.2154 26.9469C26.2029 26.9656 26.1685 26.9844 26.1498 26.9969C25.9873 27.1188 25.8185 27.2375 25.6435 27.3469C25.2591 27.5906 24.856 27.8 24.4373 27.9781L24.6623 27.8844C24.0123 28.1563 23.3341 28.3406 22.6373 28.4344C22.7216 28.4219 22.8029 28.4125 22.8873 28.4C22.1623 28.4969 21.431 28.4938 20.706 28.3969C20.7904 28.4094 20.8716 28.4188 20.956 28.4313C20.2685 28.3344 19.5966 28.15 18.9529 27.8844L19.1779 27.9781C18.8654 27.8438 18.5591 27.6938 18.2623 27.5219C18.1185 27.4375 17.9779 27.35 17.8404 27.2594C17.7685 27.2125 17.6966 27.1625 17.6248 27.1125C17.5841 27.0844 17.4591 26.9594 17.4154 26.9594C17.4435 26.9594 17.6091 27.1094 17.4748 27.0031C17.4435 26.9781 17.4123 26.9531 17.3841 26.9281C17.3154 26.8719 17.2498 26.8188 17.1841 26.7594C17.0591 26.65 16.9373 26.5375 16.8185 26.4219C16.5498 26.1563 16.2966 25.875 16.0654 25.5781C16.156 25.8 16.2498 26.0188 16.3404 26.2406C16.3404 25.9281 16.1654 25.7063 16.006 25.4625C15.9029 25.3031 15.7998 25.1469 15.706 24.9844C15.5216 24.6719 15.3591 24.35 15.2185 24.0188L15.3123 24.2438C15.0404 23.5969 14.856 22.9188 14.7591 22.2219C14.7716 22.3063 14.781 22.3875 14.7935 22.4719C14.6966 21.7438 14.6966 21.0063 14.7935 20.2813C14.781 20.3656 14.7716 20.4469 14.7591 20.5313C14.856 19.8281 15.0435 19.1438 15.3216 18.4875L15.2279 18.7125C15.4373 18.225 15.6904 17.7563 15.9904 17.3156C16.0404 17.2406 16.2279 17.0156 15.9841 17.3094C16.0654 17.2125 16.1404 17.1063 16.2185 17.0031C16.3154 16.8719 16.0654 17.1969 16.2216 17.0031L16.3435 16.8531C16.4998 16.6688 16.6623 16.4938 16.8341 16.3219C17.006 16.1531 17.1841 15.9906 17.3685 15.8375L17.5185 15.7156C17.6435 15.6156 17.3216 15.8625 17.5216 15.7156C17.6248 15.6406 17.731 15.5656 17.8373 15.4938C18.256 15.2156 18.6966 14.9781 19.1591 14.7781L18.9341 14.8719C19.5966 14.5938 20.2904 14.4031 21.0029 14.3063C20.9185 14.3188 20.8373 14.3281 20.7529 14.3406C21.106 14.2938 21.4623 14.2719 21.8185 14.2688C22.3091 14.2656 22.7779 13.8375 22.756 13.3313C22.731 12.8375 22.3435 12.4031 21.8154 12.4063Z" fill="#001E32"/>
<path d="M23.4437 17.325H21.8156C21.325 17.325 20.8562 17.7562 20.8781 18.2625C20.9 18.7718 21.2906 19.2 21.8156 19.2H23.4437C23.9343 19.2 24.4031 18.7687 24.3812 18.2625C24.3562 17.7531 23.9687 17.325 23.4437 17.325ZM21.8125 23.5593H20.1843C19.6937 23.5593 19.225 23.9906 19.2468 24.4968C19.2687 25.0062 19.6593 25.4343 20.1843 25.4343H21.8125C22.3031 25.4343 22.7718 25.0031 22.75 24.4968C22.7281 23.9875 22.3406 23.5593 21.8125 23.5593Z" fill="#64CEB8"/>
<path d="M21.8127 22.3156C22.022 22.3156 22.2345 22.3062 22.4439 22.3281C22.3595 22.3156 22.2783 22.3062 22.1939 22.2937C22.3252 22.3125 22.4502 22.3468 22.5752 22.3937L22.3502 22.2999C22.4408 22.3374 22.5252 22.3812 22.6064 22.4343C22.6845 22.4843 22.7377 22.5718 22.572 22.4C22.6064 22.4343 22.6439 22.4625 22.6783 22.4968C22.7064 22.525 22.7627 22.5656 22.7752 22.6031C22.747 22.5656 22.7158 22.5281 22.6877 22.4874C22.7064 22.5124 22.7252 22.5406 22.7408 22.5656C22.7939 22.6468 22.8377 22.7343 22.8752 22.8218L22.7814 22.5968C22.8283 22.7218 22.8627 22.8468 22.8814 22.9781C22.8689 22.8937 22.8595 22.8124 22.847 22.7281C22.8627 22.8687 22.8627 23.0062 22.8439 23.1437C22.8564 23.0593 22.8658 22.9781 22.8783 22.8937C22.8564 23.0312 22.8189 23.1656 22.7658 23.2937L22.8595 23.0687C22.8189 23.1562 22.7752 23.2406 22.722 23.3187C22.6689 23.4 22.597 23.425 22.772 23.2593C22.7377 23.2906 22.7095 23.3312 22.6752 23.3656C22.6658 23.375 22.5783 23.4656 22.5689 23.4625C22.572 23.4625 22.797 23.3 22.6283 23.4125C22.5502 23.4656 22.4658 23.5093 22.3783 23.5499L22.6033 23.4562C22.4752 23.5093 22.3408 23.5468 22.2033 23.5687C22.2877 23.5562 22.3689 23.5468 22.4533 23.5343C22.2408 23.5593 22.022 23.5499 21.8095 23.5499C21.3189 23.5499 20.8502 23.9812 20.872 24.4874C20.8939 24.9968 21.2845 25.4249 21.8095 25.4249C22.1783 25.4249 22.547 25.4343 22.9064 25.3343C23.5158 25.1625 24.0439 24.7531 24.3752 24.2156C25.1189 23.0125 24.6345 21.2937 23.3377 20.6937C22.9752 20.5281 22.6127 20.4343 22.2127 20.4343H21.8064C21.3158 20.4343 20.847 20.8656 20.8689 21.3718C20.9002 21.8875 21.2877 22.3156 21.8127 22.3156Z" fill="#64CEB8"/>
<path d="M22.75 25.7095V24.4939C22.75 24.0032 22.3187 23.5345 21.8125 23.5564C21.3031 23.5782 20.875 23.9689 20.875 24.4939V25.7095C20.875 26.2001 21.3062 26.6689 21.8125 26.647C22.3218 26.6251 22.75 26.2345 22.75 25.7095ZM21.8125 20.4407C21.6 20.4407 21.3812 20.4532 21.1687 20.4251C21.2531 20.4376 21.3343 20.447 21.4187 20.4595C21.2812 20.4376 21.1468 20.4001 21.0187 20.347L21.2437 20.4407C21.1562 20.4001 21.0718 20.3564 20.9937 20.3032C20.9125 20.2501 20.8875 20.1782 21.0531 20.3532C21.0218 20.3189 20.9812 20.2907 20.9468 20.2564C20.9375 20.247 20.8468 20.1595 20.85 20.1501C20.85 20.1532 21.0125 20.3782 20.9 20.2095C20.8468 20.1314 20.8031 20.047 20.7625 19.9595L20.8562 20.1845C20.8031 20.0564 20.7656 19.922 20.7437 19.7845C20.7562 19.8689 20.7656 19.9501 20.7781 20.0345C20.7593 19.8939 20.7593 19.7564 20.775 19.6189C20.7625 19.7032 20.7531 19.7845 20.7406 19.8689C20.7593 19.7376 20.7937 19.6126 20.8406 19.4876L20.7468 19.7126C20.7843 19.622 20.8281 19.5376 20.8812 19.4564C20.9312 19.3782 21.0187 19.3251 20.8468 19.4907C20.8812 19.4564 20.9093 19.4189 20.9437 19.3845C20.9718 19.3564 21.0125 19.3001 21.05 19.2876C21.0125 19.3157 20.975 19.347 20.9343 19.3751C20.9593 19.3564 20.9875 19.3376 21.0125 19.322C21.0937 19.2689 21.1812 19.2251 21.2687 19.1876L21.0437 19.2814C21.1687 19.2345 21.2937 19.2001 21.425 19.1814C21.3406 19.1939 21.2593 19.2032 21.175 19.2157C21.3843 19.1907 21.5968 19.2032 21.8062 19.2032C22.2968 19.2032 22.7656 18.772 22.7437 18.2657C22.7218 17.7564 22.3312 17.3282 21.8062 17.3282C21.4156 17.3282 21.0125 17.3157 20.6375 17.4407C19.925 17.6782 19.3687 18.1876 19.075 18.8782C18.7906 19.5564 18.8437 20.2907 19.1531 20.947C19.4281 21.5314 19.9593 21.9439 20.55 22.172C20.9531 22.3282 21.3812 22.3157 21.8062 22.3157C22.2968 22.3157 22.7656 21.8845 22.7437 21.3782C22.7281 20.872 22.3406 20.4407 21.8125 20.4407Z" fill="#64CEB8"/>
<path d="M22.75 18.2625V17.0469C22.75 16.5563 22.3188 16.0875 21.8125 16.1094C21.3031 16.1313 20.875 16.5219 20.875 17.0469V18.2625C20.875 18.7531 21.3062 19.2219 21.8125 19.2C22.3219 19.1781 22.75 18.7875 22.75 18.2625Z" fill="#64CEB8"/>
</g>
<defs>
<clipPath id="clip0_188_1069">
<rect width="32" height="32" fill="white"/>
</clipPath>
</defs>
</svg>
