<svg width="27" height="32" viewBox="0 0 27 32" fill="none" xmlns="http://www.w3.org/2000/svg">
<g clip-path="url(#clip0_188_1097)">
<path d="M13.5 32C13.338 32 13.1775 31.9686 13.0275 31.9074C9.17361 30.3391 5.87646 27.6546 3.55939 24.1987C1.23512 20.7475 -0.00440652 16.6802 1.17707e-05 12.5193V6.3362C0.000175548 6.08896 0.0736579 5.84731 0.211163 5.64184C0.348668 5.43636 0.544018 5.27627 0.772511 5.18182L13.0225 0.0955744C13.1745 0.0324793 13.3374 0 13.5019 0C13.6664 0 13.8293 0.0324793 13.9813 0.0955744L26.2313 5.18182C26.4594 5.27656 26.6544 5.43677 26.7915 5.64223C26.9287 5.84768 27.0019 6.08917 27.0019 6.3362V12.5193C27.0063 16.6802 25.7668 20.7475 23.4425 24.1987C21.1249 27.6549 17.8271 30.3394 13.9725 31.9074C13.8225 31.9686 13.662 32 13.5 32ZM2.50001 7.17057V12.5193C2.49046 16.0979 3.5264 19.6013 5.48057 22.5991C7.43474 25.597 10.222 27.9588 13.5 29.3943C16.778 27.9588 19.5653 25.597 21.5195 22.5991C23.4736 19.6013 24.5096 16.0979 24.5 12.5193V7.17057L13.5 2.6037L2.50001 7.17057Z" fill="#001E32"/>
<path d="M16.0237 9.87549H13.5133C12.7567 9.87549 12.034 10.5404 12.0677 11.3211C12.1014 12.1065 12.7037 12.7666 13.5133 12.7666H16.0237C16.7802 12.7666 17.503 12.1017 17.4693 11.3211C17.4307 10.5356 16.8332 9.87549 16.0237 9.87549ZM13.5084 19.4885H10.998C10.2415 19.4885 9.51868 20.1535 9.55241 20.9341C9.58614 21.7195 10.1885 22.3796 10.998 22.3796H13.5084C14.2649 22.3796 14.9877 21.7147 14.954 20.9341C14.9203 20.1486 14.3228 19.4885 13.5084 19.4885Z" fill="#64CEB8"/>
<path d="M13.5086 17.5707C13.8314 17.5707 14.1591 17.5562 14.4819 17.59C14.3518 17.5707 14.2265 17.5562 14.0964 17.537C14.2988 17.5659 14.4916 17.6189 14.6843 17.6911L14.3374 17.5466C14.4771 17.6044 14.6072 17.6719 14.7325 17.7538C14.853 17.8309 14.9349 17.9658 14.6795 17.7008C14.7325 17.7538 14.7903 17.7972 14.8433 17.8502C14.8867 17.8935 14.9734 17.9562 14.9927 18.014C14.9493 17.9562 14.9011 17.8983 14.8578 17.8357C14.8867 17.8743 14.9156 17.9176 14.9397 17.9562C15.0216 18.0815 15.0891 18.2164 15.1469 18.3513L15.0023 18.0044C15.0746 18.1971 15.1276 18.3898 15.1565 18.5922C15.1373 18.4621 15.1228 18.3368 15.1035 18.2067C15.1276 18.4236 15.1276 18.6356 15.0987 18.8476C15.118 18.7175 15.1324 18.5922 15.1517 18.4621C15.118 18.6741 15.0602 18.8813 14.9782 19.0789L15.1228 18.732C15.0602 18.8669 14.9927 18.997 14.9108 19.1174C14.8289 19.2427 14.718 19.2813 14.9879 19.0259C14.9349 19.0741 14.8915 19.1367 14.8385 19.1897C14.824 19.2042 14.6891 19.3439 14.6747 19.3391C14.6795 19.3391 15.0264 19.0885 14.7662 19.262C14.6458 19.3439 14.5157 19.4114 14.3807 19.474L14.7277 19.3295C14.5301 19.4114 14.3229 19.4692 14.1109 19.5029C14.241 19.4837 14.3663 19.4692 14.4964 19.4499C14.1687 19.4885 13.8314 19.474 13.5038 19.474C12.7473 19.474 12.0245 20.139 12.0582 20.9196C12.0919 21.705 12.6943 22.3651 13.5038 22.3651C14.0724 22.3651 14.6409 22.3796 15.1951 22.2254C16.1347 21.9604 16.949 21.3292 17.4598 20.5004C18.6066 18.6452 17.8597 15.995 15.86 15.0699C15.3011 14.8145 14.7421 14.6699 14.1254 14.6699H13.4989C12.7424 14.6699 12.0197 15.3349 12.0534 16.1155C12.1016 16.9105 12.6991 17.5707 13.5086 17.5707Z" fill="#64CEB8"/>
<path d="M14.9539 22.8038V20.9294C14.9539 20.1728 14.2889 19.4501 13.5083 19.4838C12.7229 19.5175 12.0627 20.1198 12.0627 20.9294V22.8038C12.0627 23.5603 12.7277 24.2831 13.5083 24.2493C14.2937 24.2156 14.9539 23.6133 14.9539 22.8038ZM13.5083 14.6797C13.1806 14.6797 12.8434 14.699 12.5157 14.6556C12.6458 14.6749 12.7711 14.6893 12.9012 14.7086C12.6892 14.6749 12.482 14.6171 12.2844 14.5351L12.6313 14.6797C12.4964 14.6171 12.3663 14.5496 12.2459 14.4677C12.1206 14.3858 12.082 14.2749 12.3374 14.5448C12.2892 14.4918 12.2266 14.4484 12.1736 14.3954C12.1591 14.3809 12.0194 14.246 12.0242 14.2316C12.0242 14.2364 12.2748 14.5833 12.1013 14.3231C12.0194 14.2027 11.9519 14.0726 11.8893 13.9376L12.0338 14.2846C11.9519 14.087 11.8941 13.8798 11.8604 13.6678C11.8796 13.7979 11.8941 13.9232 11.9134 14.0533C11.8845 13.8364 11.8845 13.6244 11.9086 13.4124C11.8893 13.5425 11.8748 13.6678 11.8555 13.7979C11.8845 13.5955 11.9375 13.4028 12.0097 13.21L11.8652 13.557C11.923 13.4172 11.9905 13.2871 12.0724 13.1618C12.1495 13.0414 12.2844 12.9595 12.0194 13.2149C12.0724 13.1619 12.1158 13.104 12.1688 13.051C12.2121 13.0077 12.2748 12.9209 12.3326 12.9016C12.2748 12.945 12.2169 12.9932 12.1543 13.0366C12.1928 13.0077 12.2362 12.9787 12.2748 12.9547C12.4 12.8727 12.535 12.8053 12.6699 12.7475L12.3229 12.892C12.5157 12.8197 12.7084 12.7667 12.9108 12.7378C12.7807 12.7571 12.6554 12.7715 12.5253 12.7908C12.8482 12.7523 13.1758 12.7715 13.4987 12.7715C14.2552 12.7715 14.978 12.1066 14.9442 11.326C14.9105 10.5406 14.3082 9.88042 13.4987 9.88042C12.8964 9.88042 12.2748 9.86114 11.6965 10.0539C10.5979 10.4201 9.74021 11.2055 9.28726 12.2704C8.84877 13.316 8.93069 14.4484 9.40773 15.4603C9.83176 16.3614 10.6509 16.9974 11.5616 17.3492C12.1832 17.5901 12.8434 17.5708 13.4987 17.5708C14.2552 17.5708 14.978 16.9059 14.9442 16.1253C14.9201 15.3447 14.3226 14.6797 13.5083 14.6797Z" fill="#64CEB8"/>
<path d="M14.9541 11.3211V9.4467C14.9541 8.69019 14.2892 7.96741 13.5086 8.00114C12.7231 8.03487 12.063 8.63718 12.063 9.4467V11.3211C12.063 12.0776 12.7279 12.8004 13.5086 12.7667C14.294 12.733 14.9541 12.1306 14.9541 11.3211Z" fill="#64CEB8"/>
</g>
<defs>
<clipPath id="clip0_188_1097">
<rect width="27" height="32" fill="white"/>
</clipPath>
</defs>
</svg>
