<svg width="32" height="32" viewBox="0 0 32 32" fill="none" xmlns="http://www.w3.org/2000/svg">
<g clip-path="url(#clip0_188_1124)">
<path d="M7.17713 28.0001H16.0001C16.7363 28.0001 17.3334 27.403 17.3334 26.6667C17.3334 25.9305 16.7363 25.3334 16.0001 25.3334H7.17713C6.26833 25.3334 5.77993 24.6699 5.61273 24.3842C5.2878 23.8309 5.11007 22.935 5.58673 22.0802L14.3693 6.32821C15.075 5.06395 16.8465 5.06581 17.5497 6.32755L24.0477 17.9825C24.4063 18.627 25.2195 18.8581 25.8615 18.4981C26.5047 18.1394 26.7359 17.3275 26.3771 16.6842L19.8791 5.02861C19.0534 3.55021 17.5886 2.66675 15.959 2.66675C14.3301 2.66675 12.8653 3.55021 12.0397 5.02941L3.25727 20.7819C2.40047 22.319 2.42193 24.2169 3.31327 25.735C4.1466 27.153 5.5906 28.0001 7.17713 28.0001Z" fill="#001E32"/>
<path d="M15.9998 18.6667C16.7361 18.6667 17.3332 18.0697 17.3332 17.3334V12.0001C17.3332 11.2638 16.7361 10.6667 15.9998 10.6667C15.2636 10.6667 14.6665 11.2638 14.6665 12.0001V17.3334C14.6665 18.0697 15.2636 18.6667 15.9998 18.6667Z" fill="#001E32"/>
<path d="M15.9998 22.6667C16.7362 22.6667 17.3332 22.0697 17.3332 21.3333C17.3332 20.597 16.7362 20 15.9998 20C15.2635 20 14.6665 20.597 14.6665 21.3333C14.6665 22.0697 15.2635 22.6667 15.9998 22.6667Z" fill="#001E32"/>
<path d="M21.3332 26.6667V25.3334C21.3332 24.5971 20.7361 24.0001 19.9998 24.0001C19.2636 24.0001 18.6665 24.5971 18.6665 25.3334V26.6667C18.6665 27.403 19.2636 28.0001 19.9998 28.0001C20.7361 28.0001 21.3332 27.403 21.3332 26.6667ZM25.3332 22.6667C25.3332 21.9305 24.7361 21.3334 23.9998 21.3334C23.2636 21.3334 22.6665 21.9305 22.6665 22.6667V26.6667C22.6665 27.403 23.2636 28.0001 23.9998 28.0001C24.7361 28.0001 25.3332 27.403 25.3332 26.6667V22.6667ZM27.9998 18.6667C27.2636 18.6667 26.6665 19.2638 26.6665 20.0001V26.6667C26.6665 27.403 27.2636 28.0001 27.9998 28.0001C28.7361 28.0001 29.3332 27.403 29.3332 26.6667V20.0001C29.3332 19.2638 28.7361 18.6667 27.9998 18.6667Z" fill="#64CEB8"/>
</g>
<defs>
<clipPath id="clip0_188_1124">
<rect width="32" height="32" fill="white"/>
</clipPath>
</defs>
</svg>
