<svg width="32" height="32" viewBox="0 0 32 32" fill="none" xmlns="http://www.w3.org/2000/svg">
<g clip-path="url(#clip0_188_1040)">
<path d="M26.6667 21.3333C25.196 21.3333 24 20.1373 24 18.6667C24 17.196 25.196 16 26.6667 16C28.1373 16 29.3333 17.196 29.3333 18.6667C29.3333 20.1373 28.1373 21.3333 26.6667 21.3333ZM26.6667 18C26.2987 18 26 18.2987 26 18.6667C26 19.0347 26.2987 19.3333 26.6667 19.3333C27.0347 19.3333 27.3333 19.0347 27.3333 18.6667C27.3333 18.2987 27.0347 18 26.6667 18Z" fill="#001E32"/>
<path d="M31 28.0001C30.448 28.0001 30 27.5521 30 27.0001V26.3334C30 25.4147 29.252 24.6667 28.3333 24.6667H25C24.448 24.6667 24 24.2187 24 23.6667C24 23.1147 24.448 22.6667 25 22.6667H28.3333C30.356 22.6667 32 24.3107 32 26.3334V27.0001C32 27.5521 31.552 28.0001 31 28.0001Z" fill="#001E32"/>
<path d="M5.33317 21.3333C3.8625 21.3333 2.6665 20.1373 2.6665 18.6667C2.6665 17.196 3.8625 16 5.33317 16C6.80384 16 7.99984 17.196 7.99984 18.6667C7.99984 20.1373 6.80384 21.3333 5.33317 21.3333ZM5.33317 18C4.96517 18 4.6665 18.2987 4.6665 18.6667C4.6665 19.0347 4.96517 19.3333 5.33317 19.3333C5.70117 19.3333 5.99984 19.0347 5.99984 18.6667C5.99984 18.2987 5.70117 18 5.33317 18Z" fill="#001E32"/>
<path d="M1 28.0001C0.448 28.0001 0 27.5521 0 27.0001V26.3334C0 24.3107 1.644 22.6667 3.66667 22.6667H7C7.552 22.6667 8 23.1147 8 23.6667C8 24.2187 7.552 24.6667 7 24.6667H3.66667C2.748 24.6667 2 25.4147 2 26.3334V27.0001C2 27.5521 1.552 28.0001 1 28.0001Z" fill="#001E32"/>
<path d="M16 22C13.7947 22 12 20.2053 12 18C12 15.7947 13.7947 14 16 14C18.2053 14 20 15.7947 20 18C20 20.2053 18.2053 22 16 22ZM16 16C14.8973 16 14 16.8973 14 18C14 19.1027 14.8973 20 16 20C17.1027 20 18 19.1027 18 18C18 16.8973 17.1027 16 16 16Z" fill="#001E32"/>
<path d="M22.3332 30.6667C21.7812 30.6667 21.3332 30.2187 21.3332 29.6667V27.6667C21.3332 26.748 20.5852 26 19.6665 26H12.3332C11.4145 26 10.6665 26.748 10.6665 27.6667V29.6667C10.6665 30.2187 10.2185 30.6667 9.6665 30.6667C9.1145 30.6667 8.6665 30.2187 8.6665 29.6667V27.6667C8.6665 25.644 10.3105 24 12.3332 24H19.6665C21.6892 24 23.3332 25.644 23.3332 27.6667V29.6667C23.3332 30.2187 22.8852 30.6667 22.3332 30.6667Z" fill="#001E32"/>
<path d="M20.6225 12H11.3772C10.8958 12 10.4838 11.6573 10.3945 11.1853L9.3505 5.6293C9.28117 5.26396 9.42117 4.89063 9.71317 4.65996C10.0052 4.43063 10.3998 4.37863 10.7398 4.53063L12.9798 5.5253L15.1372 1.83063C15.4972 1.21596 16.5052 1.21596 16.8652 1.83063L19.0225 5.5253L21.2625 4.53063C21.6025 4.37863 21.9985 4.43063 22.2892 4.65996C22.5812 4.89063 22.7198 5.26396 22.6518 5.6293L21.6078 11.1853C21.5172 11.6573 21.1038 12 20.6225 12ZM12.2065 9.99996H19.7932L20.3318 7.13063L19.0132 7.71596C18.5465 7.91996 18.0012 7.7453 17.7438 7.3053L15.9998 4.3173L14.2545 7.30663C13.9958 7.74663 13.4505 7.9213 12.9852 7.7173L11.6665 7.13063L12.2065 9.99996Z" fill="#64CEB8"/>
</g>
<defs>
<clipPath id="clip0_188_1040">
<rect width="32" height="32" fill="white"/>
</clipPath>
</defs>
</svg>
