<svg width="28" height="28" viewBox="0 0 28 28" fill="none" xmlns="http://www.w3.org/2000/svg">
<g clip-path="url(#clip0_190_1098)">
<path d="M13.7099 3.46008C13.5967 3.44744 13.482 3.45883 13.3735 3.49352C13.2649 3.52821 13.1649 3.58541 13.08 3.66139C12.9951 3.73736 12.9271 3.8304 12.8806 3.93443C12.8341 4.03845 12.8101 4.15113 12.8101 4.26508C12.8101 4.37903 12.8341 4.4917 12.8806 4.59573C12.9271 4.69975 12.9951 4.79279 13.08 4.86877C13.1649 4.94475 13.2649 5.00195 13.3735 5.03664C13.482 5.07132 13.5967 5.08272 13.7099 5.07008C14.9883 5.07008 16.2142 5.5779 17.1182 6.48182C18.0221 7.38575 18.5299 8.61174 18.5299 9.89008C18.552 10.0881 18.6464 10.2711 18.7949 10.4039C18.9434 10.5368 19.1357 10.6102 19.3349 10.6102C19.5342 10.6102 19.7265 10.5368 19.875 10.4039C20.0235 10.2711 20.1178 10.0881 20.1399 9.89008C20.1373 8.18555 19.459 6.55159 18.2537 5.3463C17.0484 4.14102 15.4144 3.46272 13.7099 3.46008Z" fill="#64CEB8"/>
<path d="M19.9598 2.21999C18.0341 0.644642 15.5854 -0.147028 13.1019 0.00283336C10.6184 0.152694 8.28269 1.23307 6.56039 3.02856C4.83809 4.82404 3.85579 7.2027 3.80934 9.69025C3.7629 12.1778 4.65572 14.5915 6.30979 16.45C7.27718 17.5357 7.81733 18.9359 7.82979 20.39V21.96C7.83131 22.4963 7.9943 23.0197 8.29752 23.462C8.60074 23.9044 9.03014 24.2452 9.52979 24.44C9.71584 25.4178 10.233 26.3016 10.9944 26.9427C11.7557 27.5838 12.7146 27.9431 13.7098 27.96C14.6967 27.958 15.6525 27.6142 16.4146 26.9871C17.1767 26.3599 17.698 25.4881 17.8898 24.52C18.4023 24.3204 18.8407 23.9673 19.145 23.5091C19.4493 23.0509 19.6046 22.5098 19.5898 21.96V20.39C19.6061 18.9113 20.1607 17.4892 21.1498 16.39C22.0231 15.3911 22.6865 14.2268 23.1005 12.9663C23.5145 11.7057 23.6706 10.3748 23.5596 9.05265C23.4485 7.73053 23.0726 6.44426 22.4542 5.27042C21.8357 4.09659 20.9874 3.05919 19.9598 2.21999ZM15.5998 24.65C15.4251 25.0019 15.1556 25.2981 14.8217 25.5052C14.4878 25.7122 14.1027 25.8219 13.7098 25.8219C13.3169 25.8219 12.9318 25.7122 12.5979 25.5052C12.2639 25.2981 11.9945 25.0019 11.8198 24.65H15.5998ZM17.4798 21.44V21.96C17.4772 22.1068 17.417 22.2467 17.3123 22.3495C17.2075 22.4524 17.0666 22.51 16.9198 22.51H10.4998C10.353 22.51 10.212 22.4524 10.1073 22.3495C10.0026 22.2467 9.94241 22.1068 9.93979 21.96V21.4L17.4798 21.44ZM21.4798 9.88999C21.4767 11.7739 20.7911 13.5928 19.5498 15.01C18.4753 16.2275 17.7802 17.7326 17.5498 19.34H9.86979C9.63703 17.7452 8.94167 16.2536 7.86979 15.05C7.05358 14.1239 6.46852 13.0175 6.16259 11.8216C5.85665 10.6257 5.83856 9.37426 6.10979 8.16999C6.42822 6.72572 7.15429 5.40311 8.20184 4.3591C9.24939 3.3151 10.5745 2.59352 12.0198 2.27999C13.169 2.0335 14.3587 2.04654 15.5022 2.31814C16.6457 2.58975 17.7142 3.11308 18.6298 3.84999C19.5288 4.57863 20.2531 5.49933 20.7498 6.54451C21.2464 7.58969 21.5027 8.73282 21.4998 9.88999H21.4798Z" fill="#001E32"/>
<path d="M2.41 9.89014H0.8C0.587827 9.89014 0.384344 9.97442 0.234315 10.1245C0.0842855 10.2745 0 10.478 0 10.6901C0 10.9023 0.0842855 11.1058 0.234315 11.2558C0.384344 11.4059 0.587827 11.4901 0.8 11.4901H2.41C2.62217 11.4901 2.82566 11.4059 2.97569 11.2558C3.12571 11.1058 3.21 10.9023 3.21 10.6901C3.21 10.478 3.12571 10.2745 2.97569 10.1245C2.82566 9.97442 2.62217 9.89014 2.41 9.89014Z" fill="#64CEB8"/>
<path d="M2.71 5.87013L1.6 4.73013C1.44882 4.58029 1.24431 4.49663 1.03146 4.49757C0.818606 4.4985 0.614843 4.58396 0.464996 4.73513C0.315149 4.88631 0.231492 5.09081 0.23243 5.30367C0.233367 5.51652 0.318822 5.72029 0.469996 5.87013L1.6 7.01013C1.66829 7.10792 1.75734 7.18941 1.86077 7.2488C1.96421 7.30818 2.07949 7.34399 2.19837 7.35366C2.31725 7.36334 2.43679 7.34664 2.54847 7.30476C2.66015 7.26288 2.7612 7.19686 2.84441 7.1114C2.92761 7.02595 2.99092 6.92317 3.02981 6.81042C3.06869 6.69766 3.0822 6.57771 3.06936 6.45913C3.05652 6.34055 3.01765 6.22627 2.95553 6.12446C2.89341 6.02264 2.80957 5.9358 2.71 5.87013Z" fill="#64CEB8"/>
<path d="M2.71 14.3798C2.63556 14.3042 2.54683 14.2442 2.44897 14.2032C2.35111 14.1622 2.24608 14.1411 2.14 14.1411C2.03391 14.1411 1.92888 14.1622 1.83102 14.2032C1.73317 14.2442 1.64444 14.3042 1.57 14.3798L0.469996 15.5098C0.318822 15.6596 0.233367 15.8634 0.23243 16.0762C0.231492 16.2891 0.315149 16.4936 0.464996 16.6448C0.614843 16.7959 0.818606 16.8814 1.03146 16.8823C1.24431 16.8833 1.44882 16.7996 1.6 16.6498L2.71 15.5098C2.85961 15.3598 2.94363 15.1566 2.94363 14.9448C2.94363 14.7329 2.85961 14.5297 2.71 14.3798Z" fill="#64CEB8"/>
<path d="M26.62 9.89014H25.01C24.7978 9.89014 24.5943 9.97442 24.4443 10.1245C24.2942 10.2745 24.21 10.478 24.21 10.6901C24.21 10.9023 24.2942 11.1058 24.4443 11.2558C24.5943 11.4059 24.7978 11.4901 25.01 11.4901H26.62C26.8321 11.4901 27.0356 11.4059 27.1856 11.2558C27.3357 11.1058 27.42 10.9023 27.42 10.6901C27.42 10.478 27.3357 10.2745 27.1856 10.1245C27.0356 9.97442 26.8321 9.89014 26.62 9.89014Z" fill="#64CEB8"/>
<path d="M26.9502 4.73021C26.8002 4.5806 26.597 4.49658 26.3852 4.49658C26.1733 4.49658 25.9702 4.5806 25.8202 4.73021L24.7102 5.87021C24.6228 5.94194 24.5514 6.03117 24.5005 6.13217C24.4497 6.23316 24.4206 6.34368 24.415 6.4566C24.4095 6.56953 24.4276 6.68237 24.4683 6.78786C24.509 6.89334 24.5714 6.98915 24.6513 7.06909C24.7313 7.14904 24.8271 7.21137 24.9325 7.25206C25.038 7.29275 25.1509 7.31091 25.2638 7.30536C25.3767 7.29982 25.4872 7.27069 25.5882 7.21986C25.6892 7.16902 25.7785 7.09761 25.8502 7.01021L26.9802 5.87021C27.0539 5.7938 27.1116 5.7035 27.15 5.60456C27.1884 5.50562 27.2068 5.40003 27.204 5.29393C27.2012 5.18783 27.1773 5.08335 27.1337 4.98657C27.0902 4.88979 27.0278 4.80264 26.9502 4.73021Z" fill="#64CEB8"/>
<path d="M26.9498 15.51L25.8198 14.38C25.7502 14.289 25.6619 14.214 25.5608 14.16C25.4597 14.1061 25.3481 14.0745 25.2338 14.0674C25.1194 14.0604 25.0048 14.0779 24.8978 14.119C24.7908 14.16 24.6939 14.2236 24.6136 14.3053C24.5333 14.3871 24.4715 14.4851 24.4323 14.5928C24.3932 14.7005 24.3777 14.8154 24.3868 14.9296C24.3959 15.0439 24.4295 15.1548 24.4852 15.255C24.541 15.3551 24.6176 15.4421 24.7098 15.51L25.8498 16.65C26.001 16.7999 26.2055 16.8835 26.4184 16.8826C26.6312 16.8817 26.835 16.7962 26.9848 16.645C27.1347 16.4939 27.2183 16.2894 27.2174 16.0765C27.2165 15.8637 27.131 15.6599 26.9798 15.51H26.9498Z" fill="#64CEB8"/>
</g>
<defs>
<clipPath id="clip0_190_1098">
<rect width="27.43" height="27.93" fill="white"/>
</clipPath>
</defs>
</svg>
