<svg width="32" height="32" viewBox="0 0 32 32" fill="none" xmlns="http://www.w3.org/2000/svg">
<g clip-path="url(#clip0_188_1150)">
<path d="M31.0916 7.63473C31.0315 7.63266 29.7956 7.59093 27.9814 7.63103V3.91137C27.9814 3.36304 27.5132 2.92816 26.9619 2.97346C23.3445 3.27545 18.7422 4.87388 16 7.78933C13.2578 4.87388 8.6555 3.27545 5.03812 2.97346C4.48784 2.92866 4.01864 3.3616 4.01864 3.91137V7.73161C2.98786 7.69271 2.01286 7.66529 0.969098 7.63461C0.442667 7.61798 0 8.04201 0 8.57534V25.7154C0 26.2107 0.383812 26.6213 0.877992 26.6545C4.62187 26.9064 10.8932 26.9348 15.6308 28.9555C16.053 29.1358 16.4321 28.9287 16.3693 28.9555C21.1068 26.9349 27.377 26.9066 31.1221 26.6545C31.6163 26.6213 32.0001 26.2107 32.0001 25.7154V8.57534C32 8.0683 31.5984 7.65243 31.0916 7.63473ZM26.099 4.96995V21.101C23.3849 21.7081 19.9453 23.0036 16.9412 25.7507C16.9412 24.9221 16.9412 10.0208 16.9412 9.57268C19.0005 7.00326 22.9005 5.45459 26.099 4.96995ZM5.90099 4.96995C9.09955 5.45459 12.9995 7.00326 15.0588 9.57268V25.7507C12.0547 23.0036 8.61509 21.7081 5.90099 21.101V4.96995ZM1.88235 24.8298V9.54463C2.5563 9.56458 3.27711 9.58711 4.01864 9.61541V21.8681C4.01864 22.3209 4.34115 22.7096 4.7862 22.7931C6.93528 23.1965 9.72995 24.072 12.3346 25.9572C8.61854 25.1238 4.72885 24.9898 1.88235 24.8298ZM30.1176 24.8298C27.2758 24.9896 23.3829 25.1234 19.6653 25.9572C22.27 24.072 25.0647 23.1965 27.2137 22.7931C27.6588 22.7096 27.9813 22.3209 27.9813 21.8681V9.51401C28.8476 9.49462 29.5854 9.49437 30.1176 9.4992V24.8298H30.1176Z" fill="#001E32"/>
<path d="M12.6184 11.7409C11.8894 11.233 10.6327 10.6097 9.29152 10.383C8.77921 10.2961 8.29331 10.6417 8.20666 11.1542C8.12007 11.6667 8.46536 12.1524 8.97792 12.239C10.0134 12.414 11.0065 12.912 11.5424 13.2854C11.9687 13.5824 12.5554 13.4777 12.8526 13.0511C13.1497 12.6247 13.0449 12.038 12.6184 11.7409Z" fill="#64CEB8"/>
<path d="M12.5241 17.0408C11.8535 16.6313 10.5417 15.9126 9.29152 15.7014C8.77921 15.6145 8.29331 15.96 8.20666 16.4726C8.12007 16.9851 8.46536 17.4708 8.97792 17.5574C9.95179 17.7219 11.0962 18.3744 11.543 18.6473C11.9872 18.9184 12.5662 18.7777 12.8368 18.3346C13.1077 17.891 12.9678 17.3118 12.5241 17.0408Z" fill="#64CEB8"/>
<path d="M20.4578 13.2854C20.9936 12.9121 21.9867 12.4141 23.0222 12.2391C23.5347 12.1525 23.88 11.6668 23.7935 11.1543C23.7069 10.6417 23.221 10.2959 22.7086 10.3831C21.3674 10.6096 20.1107 11.2331 19.3817 11.7409C18.9553 12.038 18.8504 12.6247 19.1475 13.0512C19.4448 13.4779 20.0317 13.5823 20.4578 13.2854Z" fill="#64CEB8"/>
<path d="M22.7083 15.7014C21.4582 15.9126 20.1463 16.6313 19.4757 17.0409C19.032 17.3118 18.8921 17.8911 19.163 18.3347C19.4339 18.7783 20.0131 18.9182 20.4568 18.6474C20.9036 18.3744 22.048 17.722 23.0219 17.5574C23.5344 17.4708 23.8797 16.9852 23.7931 16.4726C23.7065 15.9601 23.2207 15.6143 22.7083 15.7014Z" fill="#64CEB8"/>
</g>
<defs>
<clipPath id="clip0_188_1150">
<rect width="32" height="32" fill="white"/>
</clipPath>
</defs>
</svg>
