<svg width="32" height="32" viewBox="0 0 32 32" fill="none" xmlns="http://www.w3.org/2000/svg">
<path fill-rule="evenodd" clip-rule="evenodd" d="M22.4163 9.76221L29.5958 15.5058C29.8513 15.7102 30 16.0196 30 16.3468C30 16.6739 29.8513 16.9833 29.5958 17.1877L22.4163 22.9313L21.0708 21.2494L27.1992 16.3468L21.0708 11.4441L22.4163 9.76221Z" fill="#001E32"/>
<path fill-rule="evenodd" clip-rule="evenodd" d="M4.80086 16.3468L10.9292 11.4441L9.5837 9.76221L2.40418 15.5058C2.14871 15.7102 2 16.0196 2 16.3468C2 16.6739 2.14871 16.9833 2.40418 17.1877L9.5837 22.9313L10.9292 21.2494L4.80086 16.3468Z" fill="#001E32"/>
<path fill-rule="evenodd" clip-rule="evenodd" d="M19.9069 6.59171L14.1633 26.6944L12.0923 26.1027L17.8359 6L19.9069 6.59171Z" fill="#64CEB8"/>
</svg>
