<svg width="28" height="28" viewBox="0 0 28 28" fill="none" xmlns="http://www.w3.org/2000/svg">
<path d="M25.2206 11.36C25.1219 11.0304 24.9514 10.7268 24.7215 10.4709C24.4915 10.215 24.2078 10.0132 23.8906 9.88C23.7019 7.46501 22.61 5.20982 20.8326 3.56401C19.0553 1.91821 16.7229 1.0027 14.3006 1H13.7506C11.3281 0.999991 8.99458 1.91298 7.21531 3.55695C5.43605 5.20092 4.34173 7.45508 4.15055 9.87C3.8352 10.0061 3.55304 10.2089 3.32346 10.4643C3.09388 10.7198 2.92232 11.0219 2.82055 11.35C1.9752 11.7594 1.26226 12.3987 0.763418 13.1946C0.264576 13.9904 0 14.9107 0 15.85C0 16.7893 0.264576 17.7096 0.763418 18.5054C1.26226 19.3013 1.9752 19.9406 2.82055 20.35C2.97659 20.8984 3.3267 21.3714 3.80564 21.6808C4.28458 21.9902 4.85968 22.1149 5.42377 22.0317C5.98785 21.9485 6.50245 21.6631 6.87166 21.2286C7.24086 20.794 7.4395 20.2401 7.43055 19.67V12.03C7.4303 11.5823 7.30217 11.144 7.06124 10.7666C6.8203 10.3893 6.47659 10.0886 6.07055 9.9C6.24961 7.98836 7.1346 6.21204 8.55278 4.91775C9.97096 3.62345 11.8205 2.90407 13.7406 2.9H14.2906C16.2225 2.88931 18.0882 3.60337 19.5193 4.90119C20.9504 6.199 21.8429 7.98624 22.0205 9.91C21.6119 10.0962 21.2654 10.396 21.0225 10.7736C20.7796 11.1513 20.6504 11.5909 20.6505 12.04V19.72C20.6533 20.1595 20.7782 20.5896 21.0113 20.9622C21.2444 21.3348 21.5765 21.6353 21.9706 21.83C21.8082 22.4871 21.4283 23.07 20.8927 23.4839C20.3572 23.8978 19.6974 24.1185 19.0205 24.11H17.4506C17.2909 23.7237 17.0205 23.3933 16.6736 23.1602C16.3266 22.9271 15.9185 22.8018 15.5006 22.8H12.9606C12.6826 22.7987 12.4072 22.8523 12.15 22.9577C11.8929 23.0632 11.6591 23.2184 11.4621 23.4145C11.2651 23.6105 11.1088 23.8436 11.0021 24.1002C10.8955 24.3569 10.8405 24.6321 10.8406 24.91V25.11C10.8406 25.6723 11.0639 26.2115 11.4615 26.6091C11.8591 27.0066 12.3983 27.23 12.9606 27.23H15.5006C15.8847 27.2312 16.2618 27.1275 16.5914 26.9302C16.9209 26.7328 17.1903 26.4492 17.3706 26.11H19.0205C20.1947 26.1101 21.3303 25.6912 22.2231 24.9286C23.1159 24.1659 23.7072 23.1097 23.8906 21.95C24.2131 21.8088 24.4999 21.5972 24.73 21.3307C24.9602 21.0642 25.1278 20.7496 25.2206 20.41C26.0476 19.9847 26.7415 19.3398 27.226 18.5459C27.7105 17.752 27.9668 16.84 27.9668 15.91C27.9668 14.98 27.7105 14.068 27.226 13.2741C26.7415 12.4802 26.0476 11.8353 25.2206 11.41V11.36ZM26.1105 15.88C26.1112 16.6419 25.8338 17.3779 25.3305 17.95V13.81C25.8354 14.3811 26.113 15.1177 26.1105 15.88ZM23.4205 12.04V19.72C23.4205 19.8393 23.3731 19.9538 23.2887 20.0382C23.2044 20.1226 23.0899 20.17 22.9706 20.17C22.8503 20.17 22.7348 20.1229 22.6488 20.0388C22.5628 19.9547 22.5132 19.8403 22.5105 19.72V12.04C22.5132 11.9197 22.5628 11.8053 22.6488 11.7212C22.7348 11.6371 22.8503 11.59 22.9706 11.59C23.0899 11.59 23.2044 11.6374 23.2887 11.7218C23.3731 11.8062 23.4205 11.9207 23.4205 12.04ZM5.53055 12.04V19.71C5.53055 19.8293 5.48314 19.9438 5.39875 20.0282C5.31436 20.1126 5.1999 20.16 5.08055 20.16C4.9612 20.16 4.84674 20.1126 4.76235 20.0282C4.67796 19.9438 4.63055 19.8293 4.63055 19.71V12.03C4.63055 11.9107 4.67796 11.7962 4.76235 11.7118C4.84674 11.6274 4.9612 11.58 5.08055 11.58C5.1999 11.58 5.31436 11.6274 5.39875 11.7118C5.48314 11.7962 5.53055 11.9107 5.53055 12.03V12.04ZM2.72055 13.8V17.95C2.22128 17.3716 1.94471 16.6341 1.94055 15.87C1.9362 15.1074 2.21402 14.3701 2.72055 13.8ZM15.7206 24.95V25.11C15.7206 25.1657 15.6984 25.2191 15.659 25.2585C15.6197 25.2979 15.5662 25.32 15.5106 25.32H12.9606C12.9334 25.32 12.9066 25.3145 12.8816 25.3039C12.8567 25.2932 12.8342 25.2776 12.8155 25.2579C12.7968 25.2383 12.7822 25.215 12.7728 25.1896C12.7634 25.1642 12.7592 25.1371 12.7606 25.11V24.96C12.7606 24.907 12.7816 24.8561 12.8191 24.8186C12.8566 24.7811 12.9075 24.76 12.9606 24.76H15.5006C15.5268 24.7587 15.5531 24.7625 15.5779 24.7713C15.6027 24.7802 15.6255 24.7938 15.645 24.8114C15.6645 24.8291 15.6803 24.8504 15.6916 24.8742C15.7028 24.898 15.7093 24.9237 15.7106 24.95H15.7206Z" fill="#001E32"/>
<path d="M19.0205 14.35V10.22C19.0153 9.76023 18.8282 9.32126 18.5003 8.99898C18.1724 8.6767 17.7303 8.49729 17.2705 8.49997H10.8305C10.5907 8.48866 10.3511 8.5274 10.1271 8.61372C9.90302 8.70004 9.69939 8.83206 9.52914 9.00137C9.35889 9.17068 9.22575 9.37357 9.13818 9.59715C9.05062 9.82072 9.01056 10.0601 9.02054 10.3V14.42C9.02828 14.6498 9.08126 14.8759 9.17644 15.0853C9.27162 15.2946 9.40714 15.4832 9.57524 15.6401C9.74334 15.7971 9.94073 15.9194 10.1561 16C10.3715 16.0806 10.6007 16.118 10.8305 16.11H14.8305L16.2505 17.04C16.3794 17.1305 16.533 17.1794 16.6905 17.18C16.8041 17.1786 16.9162 17.1549 17.0205 17.11C17.1458 17.0413 17.2501 16.9399 17.3223 16.8166C17.3944 16.6933 17.4319 16.5528 17.4305 16.41V16.11C17.869 16.0721 18.2768 15.8694 18.5719 15.5429C18.8669 15.2163 19.0272 14.79 19.0205 14.35ZM17.4505 14.35C17.4635 14.3855 17.4635 14.4245 17.4505 14.46C17.415 14.473 17.3761 14.473 17.3405 14.46H16.7605C16.5512 14.4614 16.3505 14.5438 16.2005 14.69C16.144 14.7551 16.0938 14.8254 16.0505 14.9L15.5805 14.59C15.4511 14.511 15.3022 14.4694 15.1505 14.47H10.9005C10.8581 14.47 10.8174 14.4531 10.7874 14.4231C10.7574 14.3931 10.7405 14.3524 10.7405 14.31V10.19C10.7452 10.1501 10.7638 10.1132 10.7931 10.0857C10.8224 10.0583 10.8605 10.0421 10.9005 10.04H17.3505C17.3827 10.0277 17.4183 10.0277 17.4505 10.04C17.4653 10.0523 17.4774 10.0676 17.486 10.0848C17.4946 10.102 17.4995 10.1208 17.5005 10.14L17.4505 14.35Z" fill="#64CEB8"/>
<path d="M11.9506 11.9399C11.7915 11.9399 11.6388 12.0032 11.5263 12.1157C11.4138 12.2282 11.3506 12.3808 11.3506 12.5399C11.3506 12.6183 11.3662 12.6958 11.3964 12.7681C11.4267 12.8403 11.4711 12.9058 11.5269 12.9607C11.5828 13.0156 11.649 13.0589 11.7217 13.0879C11.7945 13.117 11.8723 13.1313 11.9506 13.1299C12.0289 13.1313 12.1067 13.117 12.1794 13.0879C12.2522 13.0589 12.3184 13.0156 12.3743 12.9607C12.4301 12.9058 12.4745 12.8403 12.5047 12.7681C12.535 12.6958 12.5506 12.6183 12.5506 12.5399C12.5506 12.3808 12.4874 12.2282 12.3749 12.1157C12.2623 12.0032 12.1097 11.9399 11.9506 11.9399Z" fill="#64CEB8"/>
<path d="M14.0204 11.9399C13.8613 11.9399 13.7087 12.0032 13.5961 12.1157C13.4836 12.2282 13.4204 12.3808 13.4204 12.5399C13.4256 12.6947 13.4915 12.8412 13.6037 12.9478C13.716 13.0544 13.8656 13.1127 14.0204 13.1099C14.0987 13.1113 14.1765 13.097 14.2493 13.0679C14.322 13.0389 14.3882 12.9956 14.4441 12.9407C14.4999 12.8858 14.5443 12.8203 14.5746 12.7481C14.6048 12.6758 14.6204 12.5983 14.6204 12.5199C14.6152 12.3643 14.5497 12.2168 14.4378 12.1085C14.3258 12.0003 14.1761 11.9399 14.0204 11.9399Z" fill="#64CEB8"/>
<path d="M16.0907 11.9399C15.9316 11.9399 15.779 12.0032 15.6665 12.1157C15.5539 12.2282 15.4907 12.3808 15.4907 12.5399C15.4907 12.6991 15.5539 12.8517 15.6665 12.9642C15.779 13.0767 15.9316 13.1399 16.0907 13.1399C16.2499 13.1399 16.4025 13.0767 16.515 12.9642C16.6275 12.8517 16.6907 12.6991 16.6907 12.5399C16.6907 12.4611 16.6752 12.3831 16.6451 12.3103C16.6149 12.2375 16.5707 12.1714 16.515 12.1157C16.4593 12.06 16.3931 12.0158 16.3203 11.9856C16.2475 11.9555 16.1695 11.9399 16.0907 11.9399Z" fill="#64CEB8"/>
</svg>
