<svg width="32" height="32" viewBox="0 0 32 32" fill="none" xmlns="http://www.w3.org/2000/svg">
<g clip-path="url(#clip0_184_1458)">
<path d="M22.7886 30.7657H19.0857C18.7826 30.7657 18.4919 30.6453 18.2776 30.431C18.0633 30.2167 17.9429 29.926 17.9429 29.6229V23.4515C17.9429 23.1483 18.0633 22.8577 18.2776 22.6433C18.4919 22.429 18.7826 22.3086 19.0857 22.3086H22.7886C23.0917 22.3086 23.3824 22.429 23.5967 22.6433C23.811 22.8577 23.9314 23.1483 23.9314 23.4515V29.6229C23.9314 29.926 23.811 30.2167 23.5967 30.431C23.3824 30.6453 23.0917 30.7657 22.7886 30.7657ZM20.2172 28.48H21.7143V24.5943H20.2172V28.48Z" fill="#001E32"/>
<path d="M19.0858 32.0002H13.5315C12.7954 32.0339 12.0601 31.918 11.37 31.6596C10.6799 31.4011 10.0494 31.0054 9.51651 30.4964C8.98365 29.9874 8.55952 29.3757 8.26974 28.6981C7.97997 28.0206 7.83057 27.2914 7.83057 26.5545C7.83057 25.8176 7.97997 25.0883 8.26974 24.4108C8.55952 23.7332 8.98365 23.1215 9.51651 22.6125C10.0494 22.1035 10.6799 21.7078 11.37 21.4493C12.0601 21.1909 12.7954 21.075 13.5315 21.1087H19.0858C19.3889 21.1087 19.6796 21.2292 19.8939 21.4435C20.1083 21.6578 20.2287 21.9485 20.2287 22.2516V30.8573C20.2287 31.1604 20.1083 31.4511 19.8939 31.6654C19.6796 31.8798 19.3889 32.0002 19.0858 32.0002ZM13.5315 23.3602C12.7174 23.4089 11.9526 23.7666 11.3933 24.3603C10.8341 24.954 10.5227 25.7389 10.5227 26.5545C10.5227 27.3701 10.8341 28.1549 11.3933 28.7486C11.9526 29.3423 12.7174 29.7 13.5315 29.7487H17.9544V23.3602H13.5315Z" fill="#001E32"/>
<path d="M9.21144 27.9536H4.8343C3.55506 27.9506 2.32892 27.4348 1.42329 26.5188C0.517667 25.6027 0.00604411 24.3607 1.351e-05 23.0637V12.9247C-0.00148908 12.2795 0.122362 11.6403 0.364494 11.0436C0.606627 10.447 0.962299 9.9045 1.4112 9.4472C1.86011 8.9899 2.39346 8.62673 2.98079 8.37842C3.56813 8.13011 4.19795 8.00152 4.8343 8H14.8571C15.1602 8 15.4509 8.12208 15.6653 8.33939C15.8796 8.5567 15.6653 8.90035 15.6653 9.20767C15.6653 9.51499 15.8796 9.7608 15.6653 9.97811C15.4509 10.1954 15.1602 10.3175 14.8571 10.3175H4.8343C4.15721 10.3266 3.51074 10.6049 3.03407 11.0926C2.5574 11.5802 2.28866 12.2381 2.28573 12.9247V23.0637C2.28573 23.7583 2.55785 24.4244 3.04223 24.9155C3.52661 25.4066 4.18357 25.6825 4.86858 25.6825H9.21144C9.51454 25.6825 9.80523 25.8046 10.0196 26.0219C10.2339 26.2392 10.3543 26.5339 10.3543 26.8413C10.3543 27.1486 10.2339 27.4433 10.0196 27.6606C9.80523 27.8779 9.51454 28 9.21144 28V27.9536Z" fill="#001E32"/>
<path d="M15.3829 27.6798H12.9143C12.6112 27.6798 12.3205 27.5594 12.1062 27.345C11.8919 27.1307 11.7715 26.84 11.7715 26.5369C11.7715 26.2338 11.8919 25.9431 12.1062 25.7288C12.3205 25.5145 12.6112 25.394 12.9143 25.394H15.3829C15.686 25.394 15.9767 25.5145 16.191 25.7288C16.4054 25.9431 16.5258 26.2338 16.5258 26.5369C16.5258 26.84 16.4054 27.1307 16.191 27.345C15.9767 27.5594 15.686 27.6798 15.3829 27.6798Z" fill="#001E32"/>
<path d="M29.6344 18.2857H16.0572C15.4465 18.283 14.8607 18.0431 14.4236 17.6166C13.9864 17.1901 13.7321 16.6105 13.7144 16V2.36571C13.7143 1.74223 13.9604 1.14394 14.3992 0.700931C14.8379 0.257925 15.4338 0.00602402 16.0572 0L29.6344 0C30.2618 0 30.8635 0.249244 31.3072 0.692902C31.7508 1.13656 32.0001 1.73829 32.0001 2.36571V16C31.9793 16.6135 31.7209 17.1948 31.2795 17.6213C30.8381 18.0478 30.2482 18.2861 29.6344 18.2857ZM16.0572 2.28571C16.0289 2.28856 16.0027 2.30184 15.9837 2.32297C15.9647 2.34411 15.9542 2.37157 15.9544 2.4V16C15.9544 16.0273 15.9652 16.0534 15.9845 16.0727C16.0038 16.092 16.0299 16.1029 16.0572 16.1029H29.6344C29.6566 16.0959 29.6762 16.0823 29.6905 16.0639C29.7047 16.0456 29.7131 16.0233 29.7144 16V2.36571C29.7118 2.33627 29.6989 2.30867 29.678 2.28777C29.6571 2.26687 29.6295 2.254 29.6001 2.25143L16.0572 2.28571Z" fill="#64CEB8"/>
<path d="M20.0687 13.9769C19.8773 13.9779 19.6886 13.9307 19.5202 13.8398C19.3474 13.74 19.2038 13.5969 19.1036 13.4244C19.0033 13.252 18.9499 13.0563 18.9487 12.8569V5.45119C18.953 5.2538 19.0083 5.06089 19.1093 4.89124C19.2103 4.7216 19.3535 4.58101 19.525 4.48318C19.6965 4.38535 19.8904 4.33361 20.0879 4.33301C20.2853 4.33241 20.4795 4.38297 20.6516 4.47976L26.823 8.18262C26.9859 8.28569 27.12 8.42828 27.213 8.59713C27.306 8.76597 27.3547 8.95559 27.3547 9.14833C27.3547 9.34108 27.306 9.53069 27.213 9.69954C27.12 9.86838 26.9859 10.011 26.823 10.114L20.6516 13.8169C20.4774 13.9268 20.2746 13.9824 20.0687 13.9769ZM21.2116 7.43976V10.8683L24.0002 9.14262L21.2116 7.43976Z" fill="#64CEB8"/>
</g>
<defs>
<clipPath id="clip0_184_1458">
<rect width="32" height="32" fill="white"/>
</clipPath>
</defs>
</svg>
