<svg width="28" height="28" viewBox="0 0 28 28" fill="none" xmlns="http://www.w3.org/2000/svg">
<g clip-path="url(#clip0_184_1339)">
<path d="M13.3584 0.177734H11.3838V4.37379H13.3584V0.177734Z" fill="#001E32"/>
<path d="M16.6162 0.177734H14.6416V4.37379H16.6162V0.177734Z" fill="#001E32"/>
<path d="M13.3584 23.6265H11.3838V27.8225H13.3584V23.6265Z" fill="#001E32"/>
<path d="M16.6162 23.6265H14.6416V27.8225H16.6162V23.6265Z" fill="#001E32"/>
<path d="M27.8221 13.0127H23.7544V14.9873H27.8221V13.0127Z" fill="#001E32"/>
<path d="M4.24544 13.0127H0.177734V14.9873H4.24544V13.0127Z" fill="#001E32"/>
<path d="M5.54868 8.13525H0.177734V10.1099H5.54868V8.13525Z" fill="#001E32"/>
<path d="M5.54868 17.8901H0.177734V19.8647H5.54868V17.8901Z" fill="#001E32"/>
<path d="M27.8221 8.13525H22.4512V10.1099H27.8221V8.13525Z" fill="#001E32"/>
<path d="M27.8221 17.8901H22.4512V19.8647H27.8221V17.8901Z" fill="#001E32"/>
<path d="M2.61636 5.23272C2.0989 5.23272 1.59305 5.07928 1.16279 4.79179C0.732532 4.5043 0.397186 4.09568 0.19916 3.6176C0.00113363 3.13952 -0.0506791 2.61346 0.0502738 2.10594C0.151227 1.59841 0.400411 1.13222 0.766316 0.766316C1.13222 0.400411 1.59841 0.151227 2.10594 0.0502738C2.61346 -0.0506791 3.13952 0.00113363 3.6176 0.19916C4.09568 0.397186 4.5043 0.732532 4.79179 1.16279C5.07928 1.59305 5.23272 2.0989 5.23272 2.61636C5.23272 2.95995 5.16505 3.30017 5.03356 3.6176C4.90208 3.93503 4.70936 4.22346 4.46641 4.46641C4.22346 4.70936 3.93503 4.90208 3.6176 5.03356C3.30017 5.16505 2.95995 5.23272 2.61636 5.23272ZM2.61636 1.97461C2.44616 1.97461 2.28293 2.04223 2.16258 2.16258C2.04223 2.28293 1.97461 2.44616 1.97461 2.61636C1.97461 2.78656 2.04223 2.9498 2.16258 3.07015C2.28293 3.1905 2.44616 3.25811 2.61636 3.25811C2.78577 3.25556 2.94753 3.18713 3.06733 3.06733C3.18713 2.94753 3.25556 2.78577 3.25811 2.61636C3.25556 2.44695 3.18713 2.2852 3.06733 2.1654C2.94753 2.04559 2.78577 1.97716 2.61636 1.97461Z" fill="#001E32"/>
<path d="M8.30305 6.01255L6.92082 3.60352H4.23535V1.62891H8.0661L10.0111 5.03511L8.30305 6.01255Z" fill="#001E32"/>
<path d="M25.3835 5.23272C24.866 5.23272 24.3601 5.07928 23.9299 4.79179C23.4996 4.5043 23.1643 4.09568 22.9662 3.6176C22.7682 3.13952 22.7164 2.61346 22.8174 2.10594C22.9183 1.59841 23.1675 1.13222 23.5334 0.766316C23.8993 0.400411 24.3655 0.151227 24.873 0.0502738C25.3805 -0.0506791 25.9066 0.00113363 26.3847 0.19916C26.8628 0.397186 27.2714 0.732532 27.5589 1.16279C27.8464 1.59305 27.9998 2.0989 27.9998 2.61636C27.9998 3.31026 27.7242 3.97575 27.2335 4.46641C26.9905 4.70936 26.7021 4.90208 26.3847 5.03356C26.0673 5.16505 25.727 5.23272 25.3835 5.23272ZM25.3835 1.97461C25.2565 1.97461 25.1324 2.01225 25.0269 2.08277C24.9214 2.15328 24.8391 2.25351 24.7906 2.37078C24.742 2.48804 24.7293 2.61707 24.754 2.74156C24.7788 2.86605 24.8399 2.9804 24.9297 3.07015C25.0194 3.1599 25.1338 3.22102 25.2583 3.24578C25.3827 3.27054 25.5118 3.25783 25.629 3.20926C25.7463 3.16069 25.8465 3.07843 25.917 2.9729C25.9876 2.86736 26.0252 2.74329 26.0252 2.61636C26.0252 2.44616 25.9576 2.28293 25.8372 2.16258C25.7169 2.04223 25.5537 1.97461 25.3835 1.97461Z" fill="#001E32"/>
<path d="M19.6968 6.01255L17.9888 5.03511L19.9338 1.62891H23.7546V3.60352H21.079L19.6968 6.01255Z" fill="#001E32"/>
<path d="M2.61636 27.9998C2.0989 27.9998 1.59305 27.8464 1.16279 27.5589C0.732532 27.2714 0.397186 26.8628 0.19916 26.3847C0.00113363 25.9066 -0.0506791 25.3805 0.0502738 24.873C0.151227 24.3655 0.400411 23.8993 0.766316 23.5334C1.13222 23.1675 1.59841 22.9183 2.10594 22.8174C2.61346 22.7164 3.13952 22.7682 3.6176 22.9662C4.09568 23.1643 4.5043 23.4996 4.79179 23.9299C5.07928 24.3601 5.23272 24.866 5.23272 25.3835C5.23272 25.727 5.16505 26.0673 5.03356 26.3847C4.90208 26.7021 4.70936 26.9905 4.46641 27.2335C4.22346 27.4765 3.93503 27.6692 3.6176 27.8007C3.30017 27.9321 2.95995 27.9998 2.61636 27.9998ZM2.61636 24.7417C2.48944 24.7417 2.36536 24.7793 2.25983 24.8499C2.15429 24.9204 2.07204 25.0206 2.02346 25.1379C1.97489 25.2551 1.96218 25.3842 1.98694 25.5087C2.01171 25.6331 2.07283 25.7475 2.16258 25.8372C2.25233 25.927 2.36668 25.9881 2.49116 26.0129C2.61565 26.0376 2.74468 26.0249 2.86195 25.9764C2.97921 25.9278 3.07944 25.8455 3.14996 25.74C3.22047 25.6345 3.25811 25.5104 3.25811 25.3835C3.25811 25.2132 3.1905 25.05 3.07015 24.9297C2.9498 24.8093 2.78656 24.7417 2.61636 24.7417Z" fill="#001E32"/>
<path d="M8.0661 26.3709H4.23535V24.3963H6.92082L8.30305 21.9873L10.0111 22.9647L8.0661 26.3709Z" fill="#001E32"/>
<path d="M25.3835 27.9998C24.866 27.9998 24.3601 27.8464 23.9299 27.5589C23.4996 27.2714 23.1643 26.8628 22.9662 26.3847C22.7682 25.9066 22.7164 25.3805 22.8174 24.873C22.9183 24.3655 23.1675 23.8993 23.5334 23.5334C23.8993 23.1675 24.3655 22.9183 24.873 22.8174C25.3805 22.7164 25.9066 22.7682 26.3847 22.9662C26.8628 23.1643 27.2714 23.4996 27.5589 23.9299C27.8464 24.3601 27.9998 24.866 27.9998 25.3835C27.9998 26.0774 27.7242 26.7428 27.2335 27.2335C26.7428 27.7242 26.0774 27.9998 25.3835 27.9998ZM25.3835 24.7417C25.2565 24.7417 25.1324 24.7793 25.0269 24.8499C24.9214 24.9204 24.8391 25.0206 24.7906 25.1379C24.742 25.2551 24.7293 25.3842 24.754 25.5087C24.7788 25.6331 24.8399 25.7475 24.9297 25.8372C25.0194 25.927 25.1338 25.9881 25.2583 26.0129C25.3827 26.0376 25.5118 26.0249 25.629 25.9764C25.7463 25.9278 25.8465 25.8455 25.917 25.74C25.9876 25.6345 26.0252 25.5104 26.0252 25.3835C26.0252 25.2132 25.9576 25.05 25.8372 24.9297C25.7169 24.8093 25.5537 24.7417 25.3835 24.7417Z" fill="#001E32"/>
<path d="M23.7546 26.3709H19.9338L17.9888 22.9647L19.6968 21.9873L21.079 24.3963H23.7546V26.3709Z" fill="#001E32"/>
<path d="M15.6291 10.5742H13.0127V17.2484H14.9873V15.7971H15.6291C16.2939 15.7562 16.9181 15.4632 17.3744 14.978C17.8307 14.4928 18.0848 13.8517 18.0848 13.1856C18.0848 12.5196 17.8307 11.8785 17.3744 11.3933C16.9181 10.9081 16.2939 10.6151 15.6291 10.5742ZM15.6291 13.8225H14.9873V12.5488H15.6291C15.7843 12.5682 15.9271 12.6436 16.0307 12.7609C16.1342 12.8781 16.1914 13.0292 16.1914 13.1856C16.1914 13.3421 16.1342 13.4931 16.0307 13.6104C15.9271 13.7277 15.7843 13.8031 15.6291 13.8225Z" fill="#64CEB8"/>
<path d="M9.44839 10.5742C8.7562 10.5742 8.09221 10.8485 7.60183 11.337C7.11145 11.8256 6.83464 12.4885 6.83203 13.1807V17.2484H8.80664V15.7971H10.0506V17.2484H12.0253V13.1807C12.0253 12.4945 11.7548 11.836 11.2723 11.348C10.7899 10.8601 10.1345 10.582 9.44839 10.5742ZM8.80664 13.8225V13.1807C8.82601 13.0255 8.90142 12.8826 9.01869 12.7791C9.13596 12.6756 9.28701 12.6184 9.44346 12.6184C9.5999 12.6184 9.75096 12.6756 9.86823 12.7791C9.98549 12.8826 10.0609 13.0255 10.0803 13.1807V13.8225H8.80664Z" fill="#64CEB8"/>
<path d="M20.9209 10.7417H18.9463V17.248H20.9209V10.7417Z" fill="#64CEB8"/>
<path d="M14.0002 24.7421C11.8757 24.7421 9.79882 24.1121 8.03232 22.9317C6.26583 21.7514 4.88901 20.0738 4.07598 18.1109C3.26296 16.1481 3.05023 13.9883 3.46471 11.9046C3.87919 9.82083 4.90225 7.90681 6.40453 6.40453C7.90681 4.90225 9.82083 3.87919 11.9046 3.46471C13.9883 3.05023 16.1481 3.26296 18.1109 4.07598C20.0738 4.88901 21.7514 6.26583 22.9317 8.03232C24.1121 9.79882 24.7421 11.8757 24.7421 14.0002C24.7395 16.8483 23.6069 19.579 21.593 21.593C19.579 23.6069 16.8483 24.7395 14.0002 24.7421ZM14.0002 5.23292C12.2662 5.23292 10.5711 5.74711 9.12936 6.71047C7.68758 7.67383 6.56386 9.04309 5.90029 10.6451C5.23671 12.2471 5.06309 14.0099 5.40138 15.7106C5.73967 17.4113 6.57467 18.9735 7.80079 20.1996C9.02692 21.4257 10.5891 22.2607 12.2898 22.599C13.9905 22.9373 15.7533 22.7637 17.3553 22.1001C18.9573 21.4365 20.3266 20.3128 21.2899 18.871C22.2533 17.4293 22.7675 15.7342 22.7675 14.0002C22.7649 11.6758 21.8403 9.4473 20.1967 7.80368C18.5531 6.16006 16.3246 5.23553 14.0002 5.23292Z" fill="#001E32"/>
</g>
<defs>
<clipPath id="clip0_184_1339">
<rect width="28" height="28" fill="white"/>
</clipPath>
</defs>
</svg>
