<svg width="32" height="32" viewBox="0 0 32 32" fill="none" xmlns="http://www.w3.org/2000/svg">
<g clip-path="url(#clip0_436_1142)">
<path d="M32.0388 7.8498C21.3479 7.8498 10.7008 7.8498 0.0318544 7.8498C0.0242146 7.74761 0.010845 7.65689 0.010845 7.56521C0.00989005 6.50519 0.0051152 5.44517 0.0118 4.38419C0.0242147 2.52199 1.53976 1.00454 3.40865 1.00358C11.8201 0.998806 20.2315 0.998806 28.642 1.00358C30.5118 1.00454 32.0264 2.52104 32.0378 4.38515C32.0445 5.5273 32.0388 6.66945 32.0388 7.8498ZM25.1763 5.576C25.5459 5.576 25.9155 5.5846 26.2841 5.57409C26.9545 5.55595 27.4626 5.0565 27.4626 4.43099C27.4626 3.80548 26.9526 3.3003 26.2832 3.28979C25.545 3.27833 24.8058 3.27738 24.0667 3.28979C23.3934 3.30125 22.8892 3.8007 22.8882 4.43099C22.8882 5.0565 23.3972 5.55595 24.0676 5.57409C24.4372 5.5846 24.8068 5.576 25.1763 5.576Z" fill="white"/>
<path d="M4.56841 10.1714C4.56841 12.4528 4.56841 14.7113 4.56841 16.9679C2.71289 17.1952 1.19639 16.7894 0.335956 15.0208C0.134457 14.6082 0.041824 14.1097 0.0236795 13.6465C-0.0192944 12.4958 0.00935488 11.3422 0.00935488 10.1714C1.53636 10.1714 3.03281 10.1714 4.56841 10.1714Z" fill="white"/>
<path d="M31.9699 10.179C31.9699 11.5598 32.0864 12.9274 31.9393 14.2662C31.7655 15.8429 30.2671 16.9965 28.6723 17.0118C28.2818 17.0156 27.8921 17.0128 27.4834 17.0128C27.4834 14.7227 27.4834 12.4642 27.4834 10.179C28.9865 10.179 30.4916 10.179 31.9699 10.179Z" fill="white"/>
<path fill-rule="evenodd" clip-rule="evenodd" d="M25.1747 10.1694H6.87256C6.87256 10.3003 6.87256 10.4053 6.87351 10.5113C6.87351 12.1074 6.87336 13.7035 6.8732 15.2997C6.87281 19.2901 6.87242 23.2806 6.87447 27.2711C6.87542 29.2451 8.37951 30.7377 10.3659 30.7396C14.1161 30.7415 17.8654 30.7406 21.6156 30.7396H21.6241C23.704 30.7386 25.1747 29.268 25.1747 27.1861C25.1753 23.4929 25.1751 19.8001 25.1749 16.1074C25.1748 14.2611 25.1747 12.4149 25.1747 10.5686V10.1694ZM15.0806 14.1393C15.1808 13.7544 15.6087 13.6245 15.9429 13.5844C15.943 13.5844 15.9431 13.5844 15.9432 13.5844C15.9432 13.5844 15.9432 13.5844 15.9432 13.5844C16.0352 13.5829 16.1242 13.5904 16.2093 13.6063C16.4405 13.6494 16.643 13.7542 16.8008 13.9071C16.9523 14.0538 17.0627 14.2446 17.1178 14.4678C17.1273 14.5062 17.1383 14.5404 17.1511 14.5711C17.1919 14.6678 17.2511 14.7291 17.3414 14.7782C17.3787 14.7985 17.4213 14.8168 17.4702 14.8345C17.9362 15.0035 18.4032 15.1936 18.831 15.4418C19.468 15.8114 19.6265 16.4933 19.2646 17.0615C18.9357 17.5777 18.3162 17.7268 17.7395 17.426C17.7049 17.408 17.6704 17.3884 17.6361 17.3671C17.133 17.0546 16.5971 16.8832 16.02 16.8733C15.9376 16.8719 15.8544 16.8738 15.7704 16.8791C15.7703 16.8791 15.7702 16.8791 15.7701 16.8791L15.754 16.88C15.5939 16.8893 15.4044 16.9003 15.2935 16.9899C15.1245 17.1274 14.9583 17.326 14.9087 17.5275C14.8858 17.6182 15.1255 17.8427 15.283 17.8971C15.5762 17.9982 15.8762 18.08 16.1765 18.1619C16.4151 18.227 16.6538 18.2921 16.8893 18.3669C17.2847 18.492 17.681 18.6276 18.0525 18.8091C18.4194 18.9886 18.7066 19.2226 18.9232 19.4906C19.7708 20.5394 19.5372 22.1107 18.7633 22.9898C18.6282 23.1433 18.4767 23.2757 18.3115 23.3806C18.3013 23.387 18.2911 23.3936 18.2809 23.4003C18.258 23.4154 18.2352 23.4308 18.2123 23.4463C18.1411 23.4946 18.0696 23.543 17.9947 23.581C17.9574 23.6001 17.9192 23.6165 17.8799 23.6288C17.4511 23.7625 17.1426 23.9526 16.9812 24.4387C16.8567 24.8139 16.5013 25.0044 16.1057 25.0151C16.0461 25.0168 15.9855 25.0143 15.9248 25.0078C15.4377 24.9563 15.0586 24.6917 14.9507 24.1961C14.8858 23.9001 14.7234 23.8208 14.4742 23.731C14.0301 23.5706 13.586 23.3882 13.1783 23.1514C12.5833 22.8066 12.4286 22.1334 12.7638 21.5795C12.9692 21.2398 13.3103 21.0498 13.68 21.0397C13.9019 21.0336 14.134 21.0923 14.3532 21.2223C14.8778 21.5331 15.4317 21.7218 16.0302 21.7303C16.1158 21.7315 16.2022 21.729 16.2896 21.7227C16.4739 21.7094 16.6916 21.6826 16.8282 21.5766C16.9791 21.4592 17.1108 21.2529 17.1395 21.0686C17.1538 20.975 16.9437 20.7849 16.8024 20.7381C16.5683 20.6613 16.3323 20.5903 16.0956 20.5216C16.0246 20.501 15.9536 20.4805 15.8825 20.4602C15.813 20.4404 15.7435 20.4206 15.6741 20.4009C15.5061 20.3532 15.3381 20.3054 15.1707 20.2564C15.0772 20.229 14.9837 20.2012 14.8905 20.1728C14.852 20.161 14.8135 20.1487 14.7752 20.1359C14.662 20.0982 14.55 20.0562 14.4392 20.0114C14.3343 19.9689 14.2303 19.924 14.1275 19.8777C13.9581 19.8015 13.8044 19.7158 13.6657 19.6219C13.6204 19.5913 13.5767 19.5598 13.5345 19.5275C13.3443 19.3816 13.1859 19.2193 13.0564 19.0454C13.0331 19.0142 13.0108 18.9826 12.9895 18.9507C12.2018 17.7747 12.6557 16.1272 13.5411 15.3979C13.715 15.2547 13.9002 15.1162 14.1017 15.0198C14.1477 14.9978 14.1937 14.9767 14.2394 14.9558C14.2423 14.9545 14.2451 14.9532 14.2479 14.9519C14.4491 14.8599 14.6432 14.7711 14.7983 14.6272C14.9236 14.5109 15.0233 14.3585 15.0806 14.1393Z" fill="white"/>
<path d="M25.1758 5.57604C24.8063 5.57604 24.4367 5.58463 24.0681 5.57413C23.3977 5.55598 22.8887 5.05653 22.8887 4.43102C22.8887 3.80074 23.3929 3.30129 24.0671 3.28983C24.8053 3.27741 25.5445 3.27741 26.2836 3.28983C26.953 3.30033 27.463 3.80551 27.463 4.43102C27.463 5.05653 26.954 5.55598 26.2846 5.57413C25.914 5.58463 25.5445 5.57604 25.1758 5.57604Z" fill="white"/>
</g>
<defs>
<clipPath id="clip0_436_1142">
<rect width="32" height="32" fill="white"/>
</clipPath>
</defs>
</svg>
