<svg width="32" height="32" viewBox="0 0 32 32" fill="none" xmlns="http://www.w3.org/2000/svg">
<g clip-path="url(#clip0_440_1156)">
<path d="M13.4303 7.43951H24.5656C25.695 6.1647 26.7994 4.9112 27.209 4.41989C28.4925 2.87976 28.0536 1.50139 27.2883 0.789701C26.1576 -0.260986 23.9731 -0.357736 21.9516 1.07751C20.4686 -0.340799 17.5288 -0.342736 16.0438 1.07751C14.0223 -0.357736 11.8378 -0.260924 10.7078 0.789701C9.9417 1.50139 9.50283 2.87976 10.7865 4.41989C11.1971 4.91239 12.3022 6.1672 13.4303 7.43951V7.43951Z" fill="white"/>
<path d="M31.5855 23.1864C30.4861 20.2385 26.5485 15.3823 24.5763 13.0581H13.4211C13.1483 13.3802 12.8373 13.7517 12.5015 14.1587C12.9204 14.6538 13.1732 15.2937 13.1732 15.991V20.9652C14.3981 21.3235 15.4751 22.0302 16.291 22.9692C15.9746 22.3486 16.4248 21.6076 17.1251 21.6076H19.4663C19.7241 21.6076 19.9345 21.3979 19.9345 21.14C19.9345 20.8822 19.7242 20.6719 19.4663 20.6719H18.5298C17.2387 20.6719 16.1886 19.6218 16.1886 18.3314C16.1886 17.2009 16.994 16.255 18.0615 16.0378V15.991C18.0615 15.4741 18.4805 15.0545 18.998 15.0545C19.515 15.0545 19.9339 15.4734 19.9345 15.991H20.871C21.388 15.991 21.8075 16.4099 21.8075 16.9274C21.8075 17.4443 21.388 17.8639 20.871 17.8639H18.5298C18.2714 17.8639 18.0616 18.0736 18.0616 18.3314C18.0616 18.5892 18.2713 18.799 18.5298 18.799H19.4663C20.7568 18.799 21.8075 19.849 21.8075 21.14C21.8075 22.2706 21.0015 23.2164 19.9346 23.4337V23.4805C19.9346 23.9974 19.515 24.4169 18.9981 24.4169C18.4805 24.4169 18.0616 23.998 18.0616 23.4805H17.1251C16.9053 23.4805 16.7043 23.4049 16.5451 23.2789C18.5677 25.9131 18.3065 29.6394 15.9208 31.9689H25.421C29.9039 31.9689 33.1952 27.499 31.5855 23.1864V23.1864Z" fill="white"/>
<path d="M14.9394 9.3125C14.4222 9.3125 14.0029 9.73175 14.0029 10.2489C14.0029 10.7661 14.4222 11.1854 14.9394 11.1854H23.0556C23.5727 11.1854 23.9921 10.7661 23.9921 10.2489C23.9921 9.73175 23.5728 9.3125 23.0556 9.3125H14.9394Z" fill="white"/>
<path d="M5.46394 24.3857H0V27.2562H4.792C4.79937 26.189 5.02869 25.283 5.46394 24.3857Z" fill="white"/>
<path d="M11.3001 20.7339V19.7041H0V22.5752H6.78644C8.0135 21.3893 9.59231 20.7507 11.3001 20.7339Z" fill="white"/>
<path d="M5.04238 29.0664H0V31.0323C0 31.5658 0.434125 31.9999 0.967687 31.9999H6.81869C5.957 31.1598 5.37113 30.2033 5.04238 29.0664Z" fill="white"/>
<path d="M11.3001 15.9908C11.3001 15.4573 10.866 15.0232 10.3324 15.0232H0.967687C0.434125 15.0231 0 15.4573 0 15.9908V17.8939H11.3001V15.9908Z" fill="white"/>
<path d="M11.3304 22.5752C8.74043 22.5752 6.6333 24.6821 6.6333 27.272C6.6333 29.8579 8.73568 31.9688 11.3322 31.9688C13.9221 31.9688 16.0292 29.8619 16.0292 27.272C16.0292 24.6821 13.9222 22.5752 11.3304 22.5752Z" fill="white"/>
</g>
<defs>
<clipPath id="clip0_440_1156">
<rect width="32" height="32" fill="white"/>
</clipPath>
</defs>
</svg>
