<svg width="32" height="32" viewBox="0 0 32 32" fill="none" xmlns="http://www.w3.org/2000/svg">
<g clip-path="url(#clip0_173_993)">
<path d="M26.3968 5.85781C26.8525 6.11662 27.3785 6.26531 27.9389 6.26531C29.6663 6.26531 31.0716 4.86 31.0716 3.13269C31.0716 1.40531 29.6663 0 27.9389 0C26.2116 0 24.8063 1.40531 24.8063 3.13269C24.8063 3.61381 24.9156 4.06981 25.1102 4.47756L21.7287 7.0385C21.2288 6.70087 20.6268 6.50356 19.9796 6.50356C19.3479 6.50356 18.7597 6.69212 18.2672 7.015L14.9518 4.30231C15.0814 3.959 15.1528 3.58744 15.1528 3.19931C15.1528 1.472 13.7475 0.0666875 12.0202 0.0666875C10.2929 0.0666875 8.8876 1.472 8.8876 3.19931C8.8876 3.63713 8.97822 4.05413 9.14116 4.43294L4.81016 8.98913C4.56991 8.92994 4.3191 8.89787 4.06085 8.89787C2.33354 8.89787 0.928223 10.3032 0.928223 12.0305C0.928223 13.7578 2.33354 15.1631 4.06085 15.1631C5.78816 15.1631 7.19347 13.7578 7.19347 12.0305C7.19347 11.2552 6.90972 10.5453 6.44141 9.99769L10.3726 5.86212C10.8516 6.15963 11.416 6.332 12.0202 6.332C12.678 6.332 13.2888 6.12775 13.7933 5.78L17.0749 8.465C16.9284 8.82706 16.8469 9.22219 16.8469 9.63619C16.8469 11.3635 18.2522 12.7688 19.9795 12.7688C21.7068 12.7688 23.1122 11.3635 23.1122 9.63619C23.1122 9.23769 23.0366 8.85675 22.9003 8.50587L26.3968 5.85781ZM27.9389 1.87713C28.6312 1.87713 29.1945 2.44031 29.1945 3.13269C29.1945 3.82494 28.6313 4.38812 27.9389 4.38812C27.2467 4.38812 26.6834 3.82494 26.6834 3.13269C26.6835 2.44038 27.2467 1.87713 27.9389 1.87713ZM4.06085 13.286C3.3686 13.286 2.80535 12.7228 2.80535 12.0305C2.80535 11.3382 3.36854 10.775 4.06085 10.775C4.7531 10.775 5.31635 11.3382 5.31635 12.0305C5.31635 12.7228 4.7531 13.286 4.06085 13.286ZM12.0202 4.45481C11.328 4.45481 10.7647 3.89162 10.7647 3.19931C10.7647 2.507 11.3279 1.94387 12.0202 1.94387C12.7125 1.94387 13.2757 2.50706 13.2757 3.19931C13.2757 3.89156 12.7125 4.45481 12.0202 4.45481ZM19.9796 10.8916C19.2873 10.8916 18.7241 10.3284 18.7241 9.63612C18.7241 8.94387 19.2873 8.38062 19.9796 8.38062C20.6719 8.38062 21.2351 8.94381 21.2351 9.63612C21.2351 10.3284 20.6718 10.8916 19.9796 10.8916Z" fill="#64CEB8"/>
<path d="M27.8847 12.1021C26.1964 12.1021 24.8228 13.4757 24.8228 15.164V31.9999H30.9467V15.164C30.9467 13.4757 29.5731 12.1021 27.8847 12.1021ZM29.0695 30.1227H26.6999V15.164C26.6999 14.5107 27.2314 13.9792 27.8846 13.9792C28.5379 13.9792 29.0694 14.5107 29.0694 15.164V30.1227H29.0695Z" fill="#001E32"/>
<path d="M19.9794 19.7715C18.2911 19.7715 16.9175 21.145 16.9175 22.8335V32H23.0414V22.8334C23.0414 21.145 21.6678 19.7715 19.9794 19.7715ZM21.1642 30.1229H18.7946V22.8334C18.7946 22.1801 19.3261 21.6486 19.9794 21.6486C20.6327 21.6486 21.1642 22.1801 21.1642 22.8334V30.1229H21.1642Z" fill="#001E32"/>
<path d="M11.9712 14.6052C10.2828 14.6052 8.90918 15.9788 8.90918 17.6672V32.0001H15.0332V17.6672C15.0332 15.9788 13.6596 14.6052 11.9712 14.6052ZM13.1561 30.1229H10.7864V17.6672C10.7864 17.0139 11.3179 16.4824 11.9712 16.4824C12.6245 16.4824 13.156 17.0139 13.156 17.6672V30.1229H13.1561Z" fill="#001E32"/>
<path d="M4.06639 22.583C2.37802 22.583 1.00439 23.9566 1.00439 25.6449V32.0001H7.12833V25.6449C7.12833 23.9566 5.75471 22.583 4.06639 22.583ZM5.25114 30.1229H2.88158V25.6449C2.88158 24.9916 3.41308 24.4601 4.06639 24.4601C4.71964 24.4601 5.25114 24.9916 5.25114 25.6449V30.1229Z" fill="#001E32"/>
</g>
<defs>
<clipPath id="clip0_173_993">
<rect width="32" height="32" fill="white"/>
</clipPath>
</defs>
</svg>
