<svg width="32" height="32" viewBox="0 0 32 32" fill="none" xmlns="http://www.w3.org/2000/svg">
<g clip-path="url(#clip0_173_1161)">
<path d="M27.7484 20.1144H27.6569C27.3552 20.091 27.075 19.9489 26.8779 19.7193C26.6808 19.4896 26.5828 19.1911 26.6055 18.8893C26.6055 18.5784 26.6055 18.2767 26.6055 17.975C26.6152 15.7256 25.924 13.5291 24.628 11.6907C23.3319 9.85231 21.4953 8.46329 19.3735 7.71669C19.0862 7.61848 18.8496 7.41015 18.7159 7.13753C18.5821 6.86491 18.5622 6.55032 18.6604 6.26298C18.7586 5.97563 18.9669 5.73907 19.2395 5.60533C19.5121 5.47159 19.8267 5.45163 20.1141 5.54983C22.6903 6.45 24.9223 8.13005 26.5001 10.3567C28.078 12.5833 28.9233 15.246 28.9186 17.975C28.9186 18.3407 28.9186 18.7064 28.8729 19.0721C28.85 19.3551 28.7218 19.6192 28.5136 19.8122C28.3053 20.0052 28.0323 20.113 27.7484 20.1144ZM4.05007 20.1875C3.77364 20.1879 3.50645 20.0881 3.29799 19.9065C3.08954 19.7249 2.95396 19.474 2.91636 19.2001C2.91636 18.8161 2.8615 18.4138 2.8615 18.0207C2.84737 15.2839 3.68825 12.611 5.26671 10.3753C6.84518 8.13955 9.08243 6.45254 11.6661 5.54983C11.9534 5.45041 12.2685 5.46922 12.542 5.6021C12.8154 5.73498 13.0249 5.97106 13.1244 6.2584C13.2238 6.54575 13.205 6.86082 13.0721 7.1343C12.9392 7.40778 12.7031 7.61727 12.4158 7.71669C10.2871 8.45715 8.44265 9.84355 7.13965 11.6825C5.83666 13.5214 5.14013 15.7212 5.14722 17.975C5.14722 18.295 5.14722 18.615 5.14722 18.935C5.16234 19.084 5.14779 19.2345 5.10441 19.3779C5.06102 19.5212 4.98966 19.6546 4.89445 19.7702C4.79923 19.8858 4.68206 19.9814 4.54968 20.0515C4.41731 20.1215 4.27236 20.1647 4.12322 20.1784L4.05007 20.1875ZM15.8901 31.0858C14.109 31.0981 12.345 30.7385 10.7108 30.03C9.07667 29.3216 7.60836 28.2799 6.39979 26.9715C6.28884 26.864 6.20087 26.735 6.14119 26.5924C6.08151 26.4498 6.05138 26.2966 6.0526 26.1421C6.05382 25.9875 6.08638 25.8348 6.1483 25.6932C6.21022 25.5516 6.30022 25.4241 6.41286 25.3182C6.5255 25.2124 6.65843 25.1305 6.80362 25.0775C6.9488 25.0245 7.10323 25.0016 7.25756 25.01C7.41188 25.0184 7.5629 25.058 7.70148 25.1264C7.84005 25.1949 7.96331 25.2907 8.06379 25.4081C9.06025 26.4854 10.2696 27.344 11.6152 27.9295C12.9609 28.5149 14.4135 28.8145 15.8809 28.8093C17.3651 28.8087 18.8329 28.4995 20.1912 27.9014C21.5496 27.3033 22.7687 26.4293 23.7712 25.335C23.8709 25.2181 23.9932 25.1226 24.1306 25.0541C24.2681 24.9856 24.4179 24.9454 24.5712 24.9361C24.7245 24.9268 24.8781 24.9485 25.0229 24.9999C25.1676 25.0512 25.3005 25.1313 25.4136 25.2352C25.5267 25.3391 25.6177 25.4647 25.6812 25.6046C25.7447 25.7444 25.7793 25.8956 25.7831 26.0492C25.7868 26.2027 25.7595 26.3554 25.7029 26.4982C25.6463 26.641 25.5615 26.7709 25.4535 26.8801C24.2366 28.204 22.7585 29.2612 21.1125 29.9851C19.4665 30.7089 17.6882 31.0838 15.8901 31.0858Z" fill="#001E32"/>
<path d="M15.8994 11.063C14.8921 11.0702 13.9053 10.778 13.0644 10.2235C12.2234 9.6689 11.5662 8.87699 11.1761 7.94825C10.786 7.0195 10.6806 5.99579 10.8733 5.00705C11.0661 4.01831 11.5482 3.10913 12.2586 2.3949C12.969 1.68067 13.8755 1.1936 14.8632 0.995502C15.8509 0.797408 16.8751 0.897225 17.806 1.28228C18.7368 1.66734 19.5323 2.32028 20.0914 3.15823C20.6505 3.99617 20.9481 4.98134 20.9463 5.98868C20.9463 7.32973 20.4154 8.61625 19.4698 9.56708C18.5241 10.5179 17.2404 11.0557 15.8994 11.063ZM15.8994 3.19097C15.3439 3.18007 14.7977 3.33485 14.3304 3.63557C13.8632 3.93629 13.4961 4.36933 13.2759 4.87949C13.0557 5.38965 12.9924 5.95382 13.0941 6.50008C13.1958 7.04635 13.4578 7.54997 13.8468 7.94674C14.2358 8.34352 14.7341 8.61547 15.2783 8.72795C15.8224 8.84042 16.3877 8.78831 16.9021 8.57827C17.4166 8.36822 17.8568 8.00975 18.1667 7.54856C18.4766 7.08736 18.6422 6.54433 18.6423 5.98868C18.6496 5.6239 18.584 5.26132 18.4494 4.92218C18.3149 4.58305 18.114 4.27417 17.8586 4.01363C17.6031 3.75309 17.2983 3.54614 16.9619 3.40488C16.6255 3.26362 16.2643 3.1909 15.8994 3.19097ZM26.7246 27.8675C25.7176 27.8748 24.7312 27.5828 23.8905 27.0287C23.0497 26.4745 22.3925 25.6831 22.0021 24.7549C21.6117 23.8267 21.5058 22.8035 21.6978 21.815C21.8898 20.8265 22.371 19.9173 23.0805 19.2027C23.79 18.4881 24.6957 18.0003 25.6827 17.8012C26.6698 17.6021 27.6938 17.7006 28.6248 18.0842C29.5558 18.4679 30.3519 19.1194 30.9121 19.9561C31.4723 20.7929 31.7714 21.7772 31.7714 22.7841C31.7738 24.1267 31.2441 25.4156 30.2981 26.3684C29.3522 27.3212 28.0672 27.8603 26.7246 27.8675ZM26.7246 19.9864C26.169 19.9755 25.6228 20.1303 25.1556 20.431C24.6883 20.7317 24.3212 21.1648 24.101 21.6749C23.8808 22.1851 23.8175 22.7492 23.9192 23.2955C24.0209 23.8418 24.2829 24.3454 24.6719 24.7422C25.0609 25.1389 25.5593 25.4109 26.1034 25.5234C26.6475 25.6358 27.2129 25.5837 27.7273 25.3737C28.2417 25.1637 28.6819 24.8052 28.9918 24.344C29.3017 23.8828 29.4673 23.3398 29.4674 22.7841C29.4747 22.4193 29.4092 22.0567 29.2746 21.7176C29.14 21.3785 28.9391 21.0696 28.6837 20.8091C28.4283 20.5485 28.1234 20.3416 27.787 20.2003C27.4506 20.059 27.0894 19.9863 26.7246 19.9864ZM5.27541 27.8675C4.26885 27.873 3.28334 27.5795 2.44377 27.0242C1.60421 26.4689 0.948386 25.6769 0.559424 24.7485C0.170462 23.8202 0.0658718 22.7972 0.258908 21.8093C0.451945 20.8214 0.933918 19.9131 1.64374 19.1994C2.35357 18.4857 3.25929 17.9988 4.24612 17.8005C5.23295 17.6021 6.25646 17.7011 7.18694 18.0851C8.11741 18.469 8.91296 19.1205 9.47276 19.9571C10.0326 20.7936 10.3314 21.7775 10.3314 22.7841C10.3338 24.1283 9.80281 25.4186 8.85489 26.3716C7.90696 27.3247 6.61961 27.8627 5.27541 27.8675ZM5.27541 19.9864C4.71987 19.9755 4.17366 20.1303 3.70642 20.431C3.23918 20.7317 2.87207 21.1648 2.65188 21.6749C2.43169 22.1851 2.3684 22.7492 2.47008 23.2955C2.57175 23.8418 2.83379 24.3454 3.22278 24.7422C3.61178 25.1389 4.11011 25.4109 4.65425 25.5234C5.1984 25.6358 5.76372 25.5837 6.27813 25.3737C6.79255 25.1637 7.23278 24.8052 7.54269 24.344C7.8526 23.8828 8.01816 23.3398 8.01827 22.7841C8.02557 22.4193 7.96001 22.0567 7.82544 21.7176C7.69087 21.3785 7.48999 21.0696 7.23456 20.8091C6.97913 20.5485 6.67429 20.3416 6.33788 20.2003C6.00148 20.059 5.64027 19.9863 5.27541 19.9864Z" fill="#64CEB8"/>
</g>
<defs>
<clipPath id="clip0_173_1161">
<rect width="32" height="32" fill="white"/>
</clipPath>
</defs>
</svg>
