<svg width="32" height="32" viewBox="0 0 32 32" fill="none" xmlns="http://www.w3.org/2000/svg">
<g clip-path="url(#clip0_173_1105)">
<path d="M4.00001 26.8115C3.99851 27.4923 4.13131 28.1668 4.39081 28.7962C4.65032 29.4256 5.03142 29.9977 5.51232 30.4797C5.99321 30.9616 6.56444 31.344 7.19331 31.6049C7.82217 31.8658 8.49632 32 9.17716 32H22.6972C24.0732 32 25.393 31.4534 26.366 30.4804C27.3391 29.5073 27.8857 28.1876 27.8857 26.8115V20.0572C27.8887 19.3744 27.7567 18.6978 27.4971 18.0663C27.2376 17.4348 26.8557 16.8609 26.3735 16.3776C25.8912 15.8942 25.3181 15.5111 24.6872 15.2502C24.0562 14.9892 23.3799 14.8557 22.6972 14.8572H9.17716C7.80409 14.8572 6.48727 15.4026 5.51636 16.3735C4.54546 17.3444 4.00001 18.6613 4.00001 20.0343V26.8115ZM6.28573 20.0572C6.28422 19.676 6.35782 19.2982 6.50231 18.9454C6.64681 18.5927 6.85937 18.2718 7.12787 18.0012C7.39636 17.7306 7.71553 17.5155 8.06715 17.3682C8.41876 17.221 8.79595 17.1444 9.17716 17.1429H22.6972C23.0841 17.1383 23.4681 17.2111 23.8266 17.3571C24.185 17.5031 24.5106 17.7193 24.7843 17.9929C25.0579 18.2666 25.2741 18.5922 25.4201 18.9506C25.5661 19.3091 25.6389 19.6931 25.6343 20.08V26.8343C25.6313 27.2165 25.5529 27.5943 25.4035 27.9461C25.2542 28.2979 25.0368 28.6168 24.7639 28.8844C24.491 29.152 24.168 29.363 23.8133 29.5054C23.4586 29.6479 23.0793 29.7189 22.6972 29.7143H9.17716C8.79017 29.7189 8.40617 29.6461 8.04774 29.5001C7.68931 29.3541 7.36369 29.138 7.09003 28.8643C6.81637 28.5907 6.6002 28.265 6.45422 27.9066C6.30825 27.5482 6.23541 27.1642 6.24001 26.7772L6.28573 20.0572Z" fill="#001E32"/>
<path d="M15.9429 13.0743C17.2353 13.0743 18.4988 12.6912 19.5736 11.9734C20.6483 11.2556 21.4862 10.2353 21.9813 9.04143C22.4765 7.84759 22.6066 6.53378 22.3553 5.26601C22.104 3.99824 21.4825 2.83342 20.5694 1.91873C19.6563 1.00404 18.4926 0.380535 17.2252 0.127009C15.9579 -0.126517 14.6439 0.00131038 13.4492 0.494339C12.2545 0.987368 11.2327 1.82347 10.513 2.89699C9.79334 3.97052 9.40802 5.23328 9.40576 6.52572C9.40576 8.26053 10.0941 9.92445 11.3198 11.1522C12.5454 12.38 14.2081 13.0713 15.9429 13.0743ZM15.9429 2.28572C16.5064 2.27962 17.0655 2.38593 17.5875 2.59844C18.1095 2.81094 18.5839 3.12536 18.9829 3.52334C19.3819 3.92131 19.6976 4.39484 19.9115 4.91624C20.1254 5.43764 20.2332 5.99645 20.2286 6.56C20.2309 7.40812 19.9815 8.23784 19.5119 8.94412C19.0424 9.65041 18.3738 10.2015 17.5909 10.5276C16.808 10.8538 15.9459 10.9403 15.1138 10.7762C14.2817 10.6121 13.517 10.2048 12.9165 9.60593C12.316 9.00702 11.9067 8.2434 11.7404 7.41174C11.5741 6.58009 11.6583 5.71779 11.9823 4.93401C12.3064 4.15023 12.8557 3.48022 13.5607 3.00879C14.2657 2.53736 15.0948 2.28572 15.9429 2.28572Z" fill="#64CEB8"/>
<path d="M23.063 16.2401C23.0073 16.1038 22.9258 15.9797 22.823 15.8744C22.6099 15.6684 22.3251 15.5532 22.0287 15.5532C21.7323 15.5532 21.4475 15.6684 21.2344 15.8744L15.943 21.1658L10.6515 15.8744C10.5267 15.7688 10.3833 15.6874 10.2287 15.6344C10.0983 15.5803 9.95838 15.5531 9.81726 15.5544C9.53094 15.5613 9.25767 15.6755 9.05155 15.8744C8.88833 16.037 8.77808 16.2451 8.73525 16.4715C8.69242 16.6979 8.71902 16.9319 8.81155 17.1429C8.86977 17.2778 8.95097 17.4016 9.05155 17.5086L15.143 23.6001C15.2483 23.7029 15.3725 23.7844 15.5087 23.8401C15.7869 23.9544 16.099 23.9544 16.3773 23.8401C16.5135 23.7844 16.6377 23.7029 16.743 23.6001L22.8001 17.4744C22.9007 17.3673 22.9819 17.2435 23.0401 17.1086C23.1006 16.9718 23.1318 16.8239 23.1318 16.6744C23.1318 16.5248 23.1006 16.3769 23.0401 16.2401H23.063Z" fill="#001E32"/>
<path d="M17.0857 26.8229V22.7658C17.0844 22.466 16.9654 22.1786 16.7543 21.9658C16.6525 21.8595 16.53 21.7752 16.3944 21.7182C16.2587 21.6612 16.1128 21.6326 15.9657 21.6343C15.6699 21.6386 15.3872 21.7574 15.1771 21.9658C14.966 22.1786 14.847 22.466 14.8457 22.7658V26.8229C14.8457 27.2801 15.6457 27.7601 15.9886 27.9658C16.3086 27.7372 17.0857 27.2686 17.0857 26.8229Z" fill="#001E32"/>
</g>
<defs>
<clipPath id="clip0_173_1105">
<rect width="32" height="32" fill="white"/>
</clipPath>
</defs>
</svg>
