<svg width="32" height="32" viewBox="0 0 32 32" fill="none" xmlns="http://www.w3.org/2000/svg">
<path fill-rule="evenodd" clip-rule="evenodd" d="M1 15.3C1.55228 15.3 2 15.7478 2 16.3C2 17.0431 2.58884 17.9545 4.0885 18.739C5.54253 19.4995 7.62666 20 10 20C11.0406 20 11.9664 19.9053 12.7831 19.7239C13.3222 19.6041 13.8564 19.944 13.9762 20.4831C14.096 21.0223 13.7561 21.5564 13.2169 21.6762C12.2336 21.8948 11.1594 22 10 22C7.37334 22 4.95747 21.4506 3.1615 20.5111C1.41116 19.5956 0 18.157 0 16.3C0 15.7478 0.447715 15.3 1 15.3ZM1 20C1.55228 20 2 20.4478 2 21V24.3C2 25.0431 2.58884 25.9545 4.0885 26.739C5.54253 27.4995 7.62666 28 10 28C12.5672 28 14.7816 27.4272 16.293 26.5381C16.769 26.2581 17.3819 26.417 17.6619 26.893C17.942 27.3691 17.7831 27.982 17.307 28.262C15.4184 29.3729 12.8328 30 10 30C7.37334 30 4.95747 29.4506 3.1615 28.5111C1.41116 27.5956 0 26.157 0 24.3V21C0 20.4478 0.447715 20 1 20Z" fill="#001E32"/>
<path fill-rule="evenodd" clip-rule="evenodd" d="M1 6C1.55228 6 2 6.44772 2 7V20.3C2 20.762 2.23488 21.2985 2.75079 21.7407L2.77995 21.7657L2.80711 21.7929C2.85747 21.8433 2.90815 21.8935 2.96329 21.9407C2.98998 21.9636 3.0125 21.9812 3.03031 21.9939C3.04186 22.0021 3.04839 22.006 3.04997 22.007L3.1454 22.0547L3.23059 22.1239C4.59065 23.2289 7.03509 24 10 24C11.4158 24 12.7057 23.8107 13.7838 23.4513C14.3077 23.2767 14.874 23.5598 15.0487 24.0838C15.2233 24.6077 14.9402 25.174 14.4162 25.3487C13.0943 25.7893 11.5842 26 10 26C6.80664 26 3.88565 25.1923 2.04117 23.7336C1.75051 23.5627 1.51013 23.3251 1.41718 23.2315C0.551499 22.4757 0 21.4242 0 20.3V7C0 6.44772 0.447715 6 1 6ZM19 6C19.5523 6 20 6.44772 20 7V11C20 11.5523 19.5523 12 19 12C18.4477 12 18 11.5523 18 11V7C18 6.44772 18.4477 6 19 6Z" fill="#001E32"/>
<path fill-rule="evenodd" clip-rule="evenodd" d="M1 11.3C1.55228 11.3 2 11.7478 2 12.3C2 13.0431 2.58884 13.9545 4.0885 14.739C5.54253 15.4995 7.62666 16 10 16C11.2033 16 12.4147 15.8141 13.4369 15.5353C13.9697 15.39 14.5194 15.7041 14.6648 16.2369C14.8101 16.7698 14.4959 17.3195 13.9631 17.4648C12.7853 17.786 11.3967 18 10 18C7.37334 18 4.95747 17.4506 3.1615 16.5111C1.41116 15.5956 0 14.157 0 12.3C0 11.7478 0.447715 11.3 1 11.3Z" fill="#001E32"/>
<path fill-rule="evenodd" clip-rule="evenodd" d="M22 12C17.5817 12 14 15.5817 14 20C14 24.4183 17.5817 28 22 28C26.4183 28 30 24.4183 30 20C30 15.5817 26.4183 12 22 12ZM12 20C12 14.4772 16.4772 10 22 10C27.5228 10 32 14.4772 32 20C32 25.5228 27.5228 30 22 30C16.4772 30 12 25.5228 12 20Z" fill="#001E32"/>
<path fill-rule="evenodd" clip-rule="evenodd" d="M4.1095 4.27479C2.67872 5.06723 2 6.0861 2 7.2C2 8.34813 2.71839 9.5236 4.16772 10.4601C5.60754 11.3904 7.66257 12 10 12C12.3374 12 14.3925 11.3904 15.8323 10.4601C17.2816 9.5236 18 8.34813 18 7.2C18 6.0861 17.3213 5.06723 15.8905 4.27479C14.4542 3.4793 12.3836 3 10 3C7.61637 3 5.54581 3.4793 4.1095 4.27479ZM3.1405 2.52521C4.95419 1.5207 7.38363 1 10 1C12.6164 1 15.0458 1.5207 16.8595 2.52521C18.6787 3.53277 20 5.1139 20 7.2C20 9.25187 18.7184 10.9764 16.9177 12.1399C15.1075 13.3096 12.6626 14 10 14C7.33743 14 4.89246 13.3096 3.08228 12.1399C1.28161 10.9764 0 9.25187 0 7.2C0 5.1139 1.32128 3.53277 3.1405 2.52521Z" fill="#001E32"/>
<path fill-rule="evenodd" clip-rule="evenodd" d="M22 14C22.5523 14 23 14.4477 23 15V16H24C24.5523 16 25 16.4477 25 17C25 17.5523 24.5523 18 24 18H21V19H23C23.5272 19 24.0443 19.1801 24.4321 19.5679C24.8199 19.9557 25 20.4728 25 21V22C25 22.5272 24.8199 23.0443 24.4321 23.4321C24.0443 23.8199 23.5272 24 23 24V25C23 25.5523 22.5523 26 22 26C21.4477 26 21 25.5523 21 25V24H20C19.4477 24 19 23.5523 19 23C19 22.4477 19.4477 22 20 22H23V21H21C20.4728 21 19.9557 20.8199 19.5679 20.4321C19.1801 20.0443 19 19.5272 19 19V18C19 17.4728 19.1801 16.9557 19.5679 16.5679C19.9557 16.1801 20.4728 16 21 16V15C21 14.4477 21.4477 14 22 14Z" fill="#64CEB8"/>
</svg>
