<svg width="32" height="32" viewBox="0 0 32 32" fill="none" xmlns="http://www.w3.org/2000/svg">
<path fill-rule="evenodd" clip-rule="evenodd" d="M16 5C9.92487 5 5 9.92487 5 16C5 22.0751 9.92487 27 16 27C22.0751 27 27 22.0751 27 16C27 9.92487 22.0751 5 16 5ZM3 16C3 8.8203 8.8203 3 16 3C23.1797 3 29 8.8203 29 16C29 23.1797 23.1797 29 16 29C8.8203 29 3 23.1797 3 16Z" fill="#001E32"/>
<path d="M20.0449 15.8786C21.0301 15.3233 21.5625 14.2117 21.379 13.0965C21.1509 11.3749 19.0986 10.725 17.4796 10.5882V8.79812C17.4796 8.35733 17.1222 8 16.6814 8C16.2406 8 15.8833 8.35733 15.8833 8.79812V10.5654H14.8116V8.79812C14.8116 8.35733 14.4542 8 14.0135 8C13.5727 8 13.2153 8.35733 13.2153 8.79812V10.5654H10.8266C10.3701 10.5654 10 10.9355 10 11.392C10 11.8486 10.3701 12.2187 10.8266 12.2187H11.1972C11.7331 12.2187 11.9953 12.3783 11.9953 12.8115V19.9148C11.9953 20.5077 11.6988 20.6901 11.3796 20.6901H11.0033C10.5374 20.6901 10.1596 21.0679 10.1596 21.5339C10.1596 21.9998 10.5374 22.3776 11.0033 22.3776H13.2609V24.1962C13.2609 24.6401 13.6208 25 14.0647 25C14.5087 25 14.8685 24.6401 14.8685 24.1962V22.3776H15.9403V24.219C15.9403 24.6503 16.29 25 16.7213 25C17.1527 25 17.5023 24.6503 17.5023 24.219V22.3776H17.8444C21.1281 22.3776 22.2227 20.77 22.2227 18.5808C22.1964 17.2901 21.3014 16.1796 20.0449 15.8786ZM14.8115 12.3213H15.9517C16.7498 12.3213 18.3233 12.4581 18.3233 13.7579C18.378 14.6062 17.7634 15.3496 16.9208 15.4567H14.8115V12.3213ZM16.5788 20.5305V20.5191H14.8115V17.0985H16.8638C17.3427 17.0985 19.1442 17.2582 19.1442 18.5352C19.1442 19.8121 18.2891 20.5305 16.5788 20.5305Z" fill="#64CEB8"/>
</svg>
