<svg width="32" height="32" viewBox="0 0 32 32" fill="none" xmlns="http://www.w3.org/2000/svg">
<path d="M10.3739 8.05412C10.551 8.34171 10.8584 8.50008 11.173 8.50008C11.3408 8.50008 11.5106 8.45504 11.6638 8.36068C12.1047 8.08911 12.242 7.51163 11.9704 7.07079L11.2666 5.92824C10.9951 5.48739 10.4175 5.3502 9.97672 5.62167C9.53587 5.89324 9.39863 6.47072 9.67016 6.91157L10.3739 8.05412Z" fill="#64CEB8"/>
<path d="M7.15635 20.0544L5.96688 20.7112C5.51363 20.9615 5.3491 21.5319 5.59945 21.9851C5.77041 22.2947 6.09064 22.4696 6.42097 22.4696C6.57423 22.4696 6.72965 22.432 6.87332 22.3526L8.0628 21.6957C8.51604 21.4454 8.68057 20.8751 8.43023 20.4218C8.17994 19.9686 7.60969 19.8041 7.15635 20.0544Z" fill="#64CEB8"/>
<path d="M16 7.28121C16.5178 7.28121 16.9375 6.8615 16.9375 6.34372V4.93749C16.9375 4.41971 16.5178 4 16 4C15.4822 4 15.0625 4.41971 15.0625 4.93749V6.34372C15.0625 6.86146 15.4822 7.28121 16 7.28121Z" fill="#64CEB8"/>
<path d="M7.28126 15.9999C7.28126 15.4821 6.86155 15.0624 6.34377 15.0624H4.93749C4.41971 15.0624 4 15.4821 4 15.9999C4 16.5176 4.41971 16.9374 4.93749 16.9374H6.34372C6.86155 16.9374 7.28126 16.5177 7.28126 15.9999Z" fill="#64CEB8"/>
<path d="M15.1595 21.3731C15.1058 21.3647 15.0525 21.3557 14.9994 21.3458C12.4285 20.8681 10.5625 18.6198 10.5625 16C10.5625 13.3028 12.5731 10.9878 15.2394 10.6151C15.3052 10.6059 15.3724 10.5978 15.4392 10.591C15.9543 10.5383 16.3291 10.0781 16.2765 9.56291C16.2238 9.04785 15.7635 8.67291 15.2485 8.72565C15.1587 8.73481 15.0682 8.74575 14.9797 8.75815C13.2486 9.00013 11.6578 9.86045 10.5002 11.1807C9.3312 12.5138 8.6875 14.2253 8.6875 16C8.6875 19.523 11.198 22.5466 14.6568 23.1892C14.7275 23.2023 14.7999 23.2147 14.8718 23.2259C14.9205 23.2335 14.9689 23.2371 15.0168 23.2371C15.4711 23.2371 15.8702 22.9062 15.942 22.4433C16.0214 21.9317 15.6711 21.4525 15.1595 21.3731Z" fill="#001E32"/>
<path d="M27.8502 14.3539C27.4931 13.5766 26.7297 13.0937 25.8578 13.0937H24.1725L27.91 6.87345C28.0841 6.58384 28.0888 6.22298 27.9224 5.92896C27.756 5.63494 27.4443 5.45312 27.1065 5.45312H21.5312C21.1976 5.45312 20.8891 5.63043 20.7211 5.91858L15.2539 15.3004C15.2495 15.308 15.2452 15.3155 15.2411 15.3232C14.7606 16.2034 14.7793 17.2438 15.291 18.1061C15.8028 18.9685 16.707 19.4834 17.7098 19.4834H18.627L16.2584 26.0805C16.0752 26.5161 16.1066 26.975 16.3467 27.3462C16.6117 27.756 17.0977 28.0001 17.6477 28.0001C17.6502 28.0001 17.6527 28.0001 17.6551 28.0001C18.1223 27.9982 18.5739 27.813 18.8941 27.4918C18.9224 27.4634 18.9489 27.4333 18.9734 27.4014L24.0976 20.738C24.4132 20.3275 24.3364 19.7389 23.9259 19.4234C23.5155 19.1077 22.9269 19.1845 22.6113 19.595L18.7994 24.5518L20.842 18.8627C20.9451 18.5755 20.902 18.2561 20.7264 18.0065C20.5508 17.7569 20.2648 17.6084 19.9596 17.6084H17.7096C17.2278 17.6084 16.9853 17.2874 16.9034 17.1493C16.8221 17.0124 16.6584 16.6502 16.8815 16.2314L22.0699 7.32815H25.4495L21.7119 13.5485C21.5379 13.8381 21.5332 14.1989 21.6996 14.4929C21.866 14.787 22.1777 14.9688 22.5155 14.9688H25.8578C26.0418 14.9688 26.1175 15.0739 26.1463 15.1366C26.1801 15.21 26.1973 15.324 26.0885 15.4506C26.0862 15.4534 26.0839 15.4561 26.0816 15.4588L25.6967 15.9174C25.3638 16.314 25.4155 16.9054 25.8121 17.2382C26.2087 17.5711 26.8 17.5194 27.1329 17.1228L27.5148 16.6678C28.0759 16.0111 28.2044 15.1252 27.8502 14.3539Z" fill="#001E32"/>
<path d="M8.16949 10.0773L7.02515 9.42101C6.57604 9.16349 6.00307 9.31872 5.7455 9.76787C5.48792 10.217 5.6432 10.79 6.09236 11.0475L7.23674 11.7038C7.3838 11.7881 7.5441 11.8282 7.70225 11.8282C8.02717 11.8281 8.34313 11.659 8.5164 11.3569C8.77397 10.9078 8.61865 10.3348 8.16949 10.0773Z" fill="#64CEB8"/>
<path d="M11.3628 23.4403C10.9157 23.1794 10.3416 23.3302 10.0805 23.7774L9.39553 24.951C9.13457 25.3982 9.28548 25.9723 9.73267 26.2333C9.88128 26.32 10.0439 26.3613 10.2044 26.3613C10.5268 26.3613 10.8407 26.1948 11.015 25.8962L11.6999 24.7226C11.9609 24.2754 11.81 23.7013 11.3628 23.4403Z" fill="#64CEB8"/>
</svg>
