<svg width="32" height="32" viewBox="0 0 32 32" fill="none" xmlns="http://www.w3.org/2000/svg">
<g clip-path="url(#clip0_140_999)">
<path fill-rule="evenodd" clip-rule="evenodd" d="M1.97093 19.4787C2.07983 19.0676 2.45186 18.7812 2.87717 18.7812H13.1272C13.5525 18.7812 13.9245 19.0676 14.0334 19.4787L15.9095 26.561C15.9095 26.561 15.9095 26.561 15.9095 26.5611C16.3823 28.3455 15.0368 30.0938 13.1909 30.0938H2.81354C0.96761 30.0938 -0.377891 28.3455 0.0947994 26.5611L0.0948007 26.5611L1.97093 19.4787ZM3.59866 20.6562L1.90729 27.0412C1.90729 27.0412 1.90729 27.0412 1.90729 27.0412C1.74973 27.636 2.19823 28.2188 2.81354 28.2188H13.1909C13.8062 28.2188 14.2546 27.636 14.0971 27.0412L14.0971 27.0412L12.4057 20.6562H3.59866Z" fill="#001E32"/>
<path fill-rule="evenodd" clip-rule="evenodd" d="M17.9666 19.4787C18.0755 19.0676 18.4475 18.7812 18.8728 18.7812H29.1228C29.5481 18.7812 29.9202 19.0676 30.0291 19.4787L31.9052 26.5611C32.3779 28.3455 31.0324 30.0938 29.1865 30.0938H18.8091C16.9632 30.0938 15.6177 28.3455 16.0904 26.5611L17.9666 19.4787ZM19.5943 20.6562L17.9029 27.0412C17.9029 27.0412 17.9029 27.0412 17.9029 27.0412C17.7453 27.636 18.1938 28.2188 18.8091 28.2188H29.1865C29.8018 28.2188 30.2503 27.636 30.0927 27.0412L28.4013 20.6562H19.5943Z" fill="#001E32"/>
<path fill-rule="evenodd" clip-rule="evenodd" d="M9.90666 10.1022C10.0161 9.6918 10.3878 9.40625 10.8125 9.40625H21.1875C21.6122 9.40625 21.9839 9.6918 22.0933 10.1022L23.9645 17.1191L23.9645 17.1191C24.4406 18.9046 23.095 20.6562 21.247 20.6562H10.753C8.90511 20.6562 7.55932 18.9046 8.03547 17.1191L9.90666 10.1022ZM11.5328 11.2812L9.84716 17.6022L8.94132 17.3606L9.84716 17.6022C9.68844 18.1974 10.137 18.7812 10.753 18.7812H21.247C21.8629 18.7812 22.3115 18.1974 22.1528 17.6022C22.1528 17.6022 22.1528 17.6022 22.1528 17.6021L20.4672 11.2812H11.5328Z" fill="#001E32"/>
<path fill-rule="evenodd" clip-rule="evenodd" d="M16 1.90625C16.5178 1.90625 16.9375 2.32598 16.9375 2.84375V4.71875C16.9375 5.23652 16.5178 5.65625 16 5.65625C15.4822 5.65625 15.0625 5.23652 15.0625 4.71875V2.84375C15.0625 2.32598 15.4822 1.90625 16 1.90625Z" fill="#64CEB8"/>
<path fill-rule="evenodd" clip-rule="evenodd" d="M24.0293 2.06192C24.4777 2.3208 24.6313 2.89417 24.3724 3.34257L22.4371 6.69469C22.1782 7.14309 21.6048 7.29672 21.1564 7.03783C20.708 6.77895 20.5544 6.20558 20.8133 5.75718L22.7486 2.40506C23.0075 1.95666 23.5809 1.80303 24.0293 2.06192Z" fill="#64CEB8"/>
<path fill-rule="evenodd" clip-rule="evenodd" d="M28.1785 8.93752C28.4374 9.38592 28.2837 9.95929 27.8353 10.2182L26.2116 11.1557C25.7632 11.4146 25.1898 11.2609 24.9309 10.8125C24.6721 10.3641 24.8257 9.79078 25.2741 9.53189L26.8978 8.59439C27.3462 8.3355 27.9196 8.48913 28.1785 8.93752Z" fill="#64CEB8"/>
<path fill-rule="evenodd" clip-rule="evenodd" d="M7.97086 2.06192C8.41925 1.80303 8.99262 1.95666 9.25151 2.40506L11.1869 5.75718C11.4458 6.20558 11.2921 6.77895 10.8437 7.03783C10.3953 7.29672 9.82197 7.14309 9.56309 6.69469L7.62771 3.34257C7.36883 2.89417 7.52246 2.3208 7.97086 2.06192Z" fill="#64CEB8"/>
<path fill-rule="evenodd" clip-rule="evenodd" d="M3.82156 8.93752C4.08045 8.48913 4.65382 8.3355 5.10222 8.59439L6.72597 9.53189C7.17436 9.79078 7.32799 10.3641 7.0691 10.8125C6.81021 11.2609 6.23684 11.4146 5.78845 11.1557L4.1647 10.2182C3.7163 9.95929 3.56268 9.38592 3.82156 8.93752Z" fill="#64CEB8"/>
</g>
<defs>
<clipPath id="clip0_140_999">
<rect width="32" height="32" fill="white"/>
</clipPath>
</defs>
</svg>
