<svg width="32" height="32" viewBox="0 0 32 32" fill="none" xmlns="http://www.w3.org/2000/svg">
<path fill-rule="evenodd" clip-rule="evenodd" d="M16 25.6666C16.5523 25.6666 17 26.1144 17 26.6666V29.3333C17 29.8856 16.5523 30.3333 16 30.3333C15.4477 30.3333 15 29.8856 15 29.3333V26.6666C15 26.1144 15.4477 25.6666 16 25.6666Z" fill="#64CEB8"/>
<path fill-rule="evenodd" clip-rule="evenodd" d="M6.6665 5.66663C7.21878 5.66663 7.6665 6.11435 7.6665 6.66663V13.3333C7.6665 13.8856 7.21878 14.3333 6.6665 14.3333C6.11422 14.3333 5.6665 13.8856 5.6665 13.3333V6.66663C5.6665 6.11435 6.11422 5.66663 6.6665 5.66663Z" fill="#64CEB8"/>
<path fill-rule="evenodd" clip-rule="evenodd" d="M25.3335 13C25.8858 13 26.3335 13.4477 26.3335 14V22.6667C26.3335 23.2189 25.8858 23.6667 25.3335 23.6667C24.7812 23.6667 24.3335 23.2189 24.3335 22.6667V14C24.3335 13.4477 24.7812 13 25.3335 13Z" fill="#64CEB8"/>
<path fill-rule="evenodd" clip-rule="evenodd" d="M25.3335 1.66663C25.8858 1.66663 26.3335 2.11435 26.3335 2.66663V7.99996C26.3335 8.55224 25.8858 8.99996 25.3335 8.99996C24.7812 8.99996 24.3335 8.55224 24.3335 7.99996V2.66663C24.3335 2.11435 24.7812 1.66663 25.3335 1.66663Z" fill="#64CEB8"/>
<path fill-rule="evenodd" clip-rule="evenodd" d="M3 13.3333C3 12.781 3.44772 12.3333 4 12.3333H9.33333C9.88561 12.3333 10.3333 12.781 10.3333 13.3333V22.6666C10.3333 23.2189 9.88561 23.6666 9.33333 23.6666H4C3.44772 23.6666 3 23.2189 3 22.6666V13.3333ZM5 14.3333V21.6666H8.33333V14.3333H5Z" fill="#001E32"/>
<path fill-rule="evenodd" clip-rule="evenodd" d="M12.3335 9.33325C12.3335 8.78097 12.7812 8.33325 13.3335 8.33325H18.6668C19.2191 8.33325 19.6668 8.78097 19.6668 9.33325V26.6666C19.6668 27.2189 19.2191 27.6666 18.6668 27.6666H13.3335C12.7812 27.6666 12.3335 27.2189 12.3335 26.6666V9.33325ZM14.3335 10.3333V25.6666H17.6668V10.3333H14.3335Z" fill="#001E32"/>
<path fill-rule="evenodd" clip-rule="evenodd" d="M21.6665 8C21.6665 7.44772 22.1142 7 22.6665 7H27.9998C28.5521 7 28.9998 7.44772 28.9998 8V14C28.9998 14.5523 28.5521 15 27.9998 15H22.6665C22.1142 15 21.6665 14.5523 21.6665 14V8ZM23.6665 9V13H26.9998V9H23.6665Z" fill="#001E32"/>
</svg>
