<svg width="32" height="32" viewBox="0 0 32 32" fill="none" xmlns="http://www.w3.org/2000/svg">
<path d="M21.3337 8.99996C20.787 8.99996 20.3337 8.54663 20.3337 7.99996V6.93329C20.3337 4.55996 20.3337 3.66663 17.067 3.66663H14.9337C11.667 3.66663 11.667 4.55996 11.667 6.93329V7.99996C11.667 8.54663 11.2137 8.99996 10.667 8.99996C10.1203 8.99996 9.66699 8.54663 9.66699 7.99996V6.93329C9.66699 4.58663 9.66699 1.66663 14.9337 1.66663H17.067C22.3337 1.66663 22.3337 4.58663 22.3337 6.93329V7.99996C22.3337 8.54663 21.8803 8.99996 21.3337 8.99996Z" fill="#64CEB8"/>
<path d="M18.666 19.6932C18.1727 19.6932 17.7327 19.3199 17.6793 18.8132C17.6127 18.2666 17.9993 17.7599 18.546 17.6932C22.066 17.2532 25.4393 15.9199 28.2793 13.8532C28.7193 13.5199 29.346 13.6266 29.6794 14.0799C29.9994 14.5199 29.906 15.1466 29.4527 15.4799C26.3327 17.7466 22.6527 19.1999 18.786 19.6932C18.746 19.6932 18.706 19.6932 18.666 19.6932Z" fill="#001E32"/>
<path d="M13.3343 19.7065C13.2943 19.7065 13.2543 19.7065 13.2143 19.7065C9.56096 19.2932 6.00096 17.9598 2.92096 15.8532C2.46763 15.5465 2.34763 14.9198 2.6543 14.4665C2.96096 14.0132 3.58763 13.8932 4.04096 14.1998C6.8543 16.1198 10.0943 17.3332 13.4276 17.7198C13.9743 17.7865 14.3743 18.2798 14.3076 18.8265C14.2676 19.3332 13.8409 19.7065 13.3343 19.7065Z" fill="#001E32"/>
<path d="M16.0002 22.3333C12.3335 22.3333 12.3335 20.0667 12.3335 18.7067V17.3333C12.3335 15.4533 12.7868 15 14.6668 15H17.3335C19.2135 15 19.6668 15.4533 19.6668 17.3333V18.6667C19.6668 20.0533 19.6668 22.3333 16.0002 22.3333ZM14.3335 17V17.3333V18.7067C14.3335 20.08 14.3335 20.3333 16.0002 20.3333C17.6668 20.3333 17.6668 20.12 17.6668 18.6933V17.3333C17.6668 17.2267 17.6668 17.1067 17.6668 17C17.5602 17 17.4402 17 17.3335 17H14.6668C14.5602 17 14.4402 17 14.3335 17Z" fill="#64CEB8"/>
<path d="M21.3338 30.3333H10.6671C4.50713 30.3333 3.36047 27.4666 3.06713 24.68L2.06713 14C1.92047 12.6 1.88047 10.5333 3.26713 8.98664C4.46713 7.65331 6.4538 7.01331 9.3338 7.01331H22.6671C25.5604 7.01331 27.5471 7.66664 28.7338 8.98664C30.1204 10.5333 30.0804 12.6 29.9338 14.0133L28.9338 24.6666C28.6404 27.4666 27.4938 30.3333 21.3338 30.3333ZM9.3338 8.99997C7.08047 8.99997 5.5338 9.43997 4.74713 10.32C4.0938 11.04 3.88047 12.1466 4.0538 13.8L5.0538 24.48C5.28047 26.5866 5.8538 28.3333 10.6671 28.3333H21.3338C26.1338 28.3333 26.7204 26.5866 26.9471 24.4666L27.9471 13.8133C28.1204 12.1466 27.9071 11.04 27.2538 10.32C26.4671 9.43997 24.9204 8.99997 22.6671 8.99997H9.3338Z" fill="#001E32"/>
</svg>
