<svg width="32" height="32" viewBox="0 0 32 32" fill="none" xmlns="http://www.w3.org/2000/svg">
<path d="M27.8588 1.88232H25.0353V4.70585C25.0353 5.27056 24.5647 5.64703 24.0941 5.64703C23.6235 5.64703 23.1529 5.27056 23.1529 4.70585V1.88232H8.0941V4.70585C8.0941 5.27056 7.62352 5.64703 7.15293 5.64703C6.68234 5.64703 6.21175 5.27056 6.21175 4.70585V1.88232H3.38822C1.97646 1.88232 0.941162 3.10585 0.941162 4.70585V8.09409H31.0588V4.70585C31.0588 3.10585 29.3647 1.88232 27.8588 1.88232ZM0.941162 10.0706V27.2941C0.941162 28.9882 1.97646 30.1176 3.48234 30.1176H27.9529C29.4588 30.1176 31.1529 28.8941 31.1529 27.2941V10.0706H0.941162ZM9.31763 25.8823H7.05881C6.68234 25.8823 6.30587 25.6 6.30587 25.1294V22.7764C6.30587 22.4 6.58822 22.0235 7.05881 22.0235H9.41175C9.78822 22.0235 10.1647 22.3059 10.1647 22.7764V25.1294C10.0706 25.6 9.78822 25.8823 9.31763 25.8823ZM9.31763 17.4117H7.05881C6.68234 17.4117 6.30587 17.1294 6.30587 16.6588V14.3059C6.30587 13.9294 6.58822 13.5529 7.05881 13.5529H9.41175C9.78822 13.5529 10.1647 13.8353 10.1647 14.3059V16.6588C10.0706 17.1294 9.78822 17.4117 9.31763 17.4117ZM16.847 25.8823H14.4941C14.1176 25.8823 13.7412 25.6 13.7412 25.1294V22.7764C13.7412 22.4 14.0235 22.0235 14.4941 22.0235H16.847C17.2235 22.0235 17.6 22.3059 17.6 22.7764V25.1294C17.6 25.6 17.3176 25.8823 16.847 25.8823ZM16.847 17.4117H14.4941C14.1176 17.4117 13.7412 17.1294 13.7412 16.6588V14.3059C13.7412 13.9294 14.0235 13.5529 14.4941 13.5529H16.847C17.2235 13.5529 17.6 13.8353 17.6 14.3059V16.6588C17.6 17.1294 17.3176 17.4117 16.847 17.4117ZM24.3765 25.8823H22.0235C21.647 25.8823 21.2706 25.6 21.2706 25.1294V22.7764C21.2706 22.4 21.5529 22.0235 22.0235 22.0235H24.3765C24.7529 22.0235 25.1294 22.3059 25.1294 22.7764V25.1294C25.1294 25.6 24.847 25.8823 24.3765 25.8823ZM24.3765 17.4117H22.0235C21.647 17.4117 21.2706 17.1294 21.2706 16.6588V14.3059C21.2706 13.9294 21.5529 13.5529 22.0235 13.5529H24.3765C24.7529 13.5529 25.1294 13.8353 25.1294 14.3059V16.6588C25.1294 17.1294 24.847 17.4117 24.3765 17.4117Z" fill="white"/>
</svg>
