<svg width="32" height="32" viewBox="0 0 32 32" fill="none" xmlns="http://www.w3.org/2000/svg">
<g clip-path="url(#clip0_174_1422)">
<path d="M23.0936 16.3818C22.5096 16.3818 22.0715 16.8199 22.0715 17.4039C22.0715 17.9879 22.5096 18.4259 23.0936 18.4259C23.6776 18.4259 24.1156 17.9879 24.1156 17.4039C24.1156 16.8199 23.6776 16.3818 23.0936 16.3818Z" fill="white"/>
<path d="M30.175 16.2357H28.9339V14.2646C28.9339 12.7316 27.6928 11.4905 26.1598 11.4905H16.8883L20.8305 6.23422C21.0495 6.30722 21.2685 6.38022 21.4875 6.38022C22.7286 6.38022 23.6776 5.35817 23.6776 4.19011C23.6776 2.94905 22.6556 2 21.4875 2C20.2465 2 19.2974 2.94905 19.2974 4.19011C19.2974 4.62813 19.4434 5.06616 19.6624 5.43118L15.3552 11.1255L12.216 7.54828C12.3621 7.25627 12.5081 6.89125 12.5081 6.52623C12.5081 5.28517 11.486 4.33612 10.3179 4.33612C9.07688 4.33612 8.12784 5.35817 8.12784 6.52623C8.12784 7.7673 9.14989 8.71634 10.3179 8.71634C10.61 8.71634 10.902 8.64334 11.121 8.57034L13.7491 11.6365H5.64571C4.11263 11.6365 2.87157 12.8776 2.87157 14.4106V16.3817H1.77651C0.754457 16.3817 -0.048584 17.1848 -0.048584 18.2068V22.8061C-0.048584 23.8281 0.754457 24.6312 1.77651 24.6312H2.87157V26.6023C2.87157 28.1353 4.11263 29.3764 5.64571 29.3764H26.2328C27.7658 29.3764 29.0069 28.1353 29.0069 26.6023V24.6312H30.248C31.197 24.6312 32.0001 23.8281 32.0001 22.8791V18.1338C31.9271 16.9658 31.124 16.2357 30.175 16.2357ZM6.22974 17.4038C6.22974 16.0167 7.32479 14.9217 8.71187 14.9217C10.0989 14.9217 11.194 16.0167 11.194 17.4038C11.194 18.7909 10.0989 19.8859 8.71187 19.8859C7.32479 19.8859 6.22974 18.7909 6.22974 17.4038ZM19.9544 24.7772H10.756C10.3179 24.7772 10.0259 24.4122 10.0259 24.0471C10.0259 23.6821 10.3179 23.3171 10.756 23.3171H19.9544C20.3195 23.3171 20.6845 23.6821 20.6845 24.0471C20.6845 24.4122 20.3925 24.7772 19.9544 24.7772ZM23.0936 19.8859C21.7065 19.8859 20.6115 18.7909 20.6115 17.4038C20.6115 16.0167 21.7065 14.9217 23.0936 14.9217C24.4807 14.9217 25.5757 16.0167 25.5757 17.4038C25.5757 18.7909 24.4807 19.8859 23.0936 19.8859Z" fill="white"/>
<path d="M8.71199 16.3818C8.12796 16.3818 7.68994 16.8199 7.68994 17.4039C7.68994 17.9879 8.12796 18.4259 8.71199 18.4259C9.29602 18.4259 9.73405 17.9879 9.73405 17.4039C9.80705 16.8199 9.29602 16.3818 8.71199 16.3818Z" fill="white"/>
</g>
<defs>
<clipPath id="clip0_174_1422">
<rect width="32" height="32" fill="white"/>
</clipPath>
</defs>
</svg>
