<svg width="32" height="32" viewBox="0 0 32 32" fill="none" xmlns="http://www.w3.org/2000/svg">
<path d="M14.6667 26.0001H22.2667C21.8724 26.9855 21.1914 27.83 20.3119 28.4243C19.4324 29.0185 18.3948 29.3352 17.3334 29.3334H8.00006C7.29962 29.3336 6.60601 29.1958 5.95886 28.9278C5.3117 28.6598 4.72368 28.267 4.2284 27.7717C3.73312 27.2764 3.34028 26.6884 3.07232 26.0413C2.80437 25.3941 2.66655 24.7005 2.66675 24.0001V13.3334C2.66833 12.0346 3.14294 10.7809 4.00182 9.80668C4.86071 8.83247 6.04505 8.20447 7.33337 8.04012V18.6667C7.33337 22.7067 10.6267 26.0001 14.6667 26.0001ZM26.0001 8.33337H28.8267C28.7447 8.21321 28.6509 8.10155 28.5467 8.00006L24.0001 3.45319C23.9019 3.34938 23.7897 3.25977 23.6667 3.18694V6.00006C23.6697 6.61799 23.9165 7.20977 24.3534 7.64671C24.7904 8.08366 25.3821 8.33043 26.0001 8.33337ZM26.0001 10.3334C24.8515 10.3312 23.7506 9.8739 22.9384 9.06173C22.1262 8.24956 21.669 7.14865 21.6667 6.00006V2.66675H14.6667C13.9663 2.66655 13.2727 2.80437 12.6255 3.07232C11.9784 3.34027 11.3904 3.73311 10.8951 4.2284C10.3998 4.72368 10.0069 5.3117 9.73897 5.95885C9.47101 6.60601 9.33318 7.29962 9.33337 8.00006V18.6667C9.33319 19.3672 9.47102 20.0608 9.73899 20.7079C10.0069 21.3551 10.3998 21.9431 10.8951 22.4384C11.3904 22.9337 11.9784 23.3265 12.6255 23.5945C13.2727 23.8624 13.9663 24.0002 14.6667 24.0001H24.0001C24.7005 24.0002 25.3941 23.8624 26.0413 23.5945C26.6884 23.3265 27.2764 22.9337 27.7717 22.4384C28.267 21.9431 28.6598 21.3551 28.9278 20.7079C29.1957 20.0608 29.3336 19.3672 29.3334 18.6667V10.3334H26.0001Z" fill="white"/>
</svg>
