<svg width="32" height="32" viewBox="0 0 32 32" fill="none" xmlns="http://www.w3.org/2000/svg">
<path d="M16.8181 2C12.9551 2 9.81812 5.137 9.81812 9C9.81812 12.863 12.9551 16 16.8181 16C20.6821 16 23.8181 12.863 23.8181 9C23.8181 5.137 20.6821 2 16.8181 2Z" fill="white"/>
<path d="M26.0492 28.612L23.6562 30.233C23.3492 30.44 22.9532 30.462 22.6272 30.288C22.3002 30.115 22.0952 29.775 22.0952 29.405V22.67C22.0952 22.255 22.3522 21.882 22.7402 21.735C23.1292 21.588 23.5682 21.695 23.8432 22.006C24.3842 22.615 25.1732 23 26.0502 23C26.9282 23 27.7172 22.615 28.2572 22.006C28.5332 21.695 28.9722 21.588 29.3602 21.735C29.7492 21.882 30.0052 22.255 30.0052 22.67V29.405C30.0052 29.775 29.8012 30.115 29.4742 30.288C29.1472 30.462 28.7512 30.44 28.4452 30.233L26.0492 28.612ZM24.0952 24.598V27.52L25.4892 26.577C25.8272 26.348 26.2712 26.347 26.6102 26.576L28.0052 27.521V24.598C27.4062 24.857 26.7442 25 26.0502 25C25.3562 25 24.6952 24.857 24.0952 24.598Z" fill="white"/>
<path d="M26.0501 15.1011C23.3191 15.1011 21.1011 17.3191 21.1011 20.0501C21.1011 22.7821 23.3191 25.0001 26.0501 25.0001C28.7821 25.0001 31.0001 22.7821 31.0001 20.0501C31.0001 17.3191 28.7821 15.1011 26.0501 15.1011ZM26.0501 17.1011C27.6781 17.1011 29.0001 18.4221 29.0001 20.0501C29.0001 21.6781 27.6781 23.0001 26.0501 23.0001C24.4221 23.0001 23.1011 21.6781 23.1011 20.0501C23.1011 18.4221 24.4221 17.1011 26.0501 17.1011Z" fill="white"/>
<path fill-rule="evenodd" clip-rule="evenodd" d="M21.2665 29.9641C21.2568 29.9498 21.2475 29.9352 21.2386 29.9204C21.1465 29.7675 21.0952 29.59 21.0952 29.405V23.0247C20.7052 22.507 20.4144 21.9104 20.2511 21.2632C20.1531 20.875 20.1011 20.4686 20.1011 20.0501C20.1011 19.3191 20.26 18.6248 20.5451 18H11.8181C6.84812 18 2.81812 22.029 2.81812 27V29C2.81812 29.552 3.26612 30 3.81812 30H21.0001C21.0924 30 21.1817 29.9875 21.2665 29.9641Z" fill="white"/>
</svg>
