<svg width="32" height="31" viewBox="0 0 32 31" fill="none" xmlns="http://www.w3.org/2000/svg">
<path d="M15.7656 31C24.326 31 31.2656 24.0604 31.2656 15.5C31.2656 6.93959 24.326 0 15.7656 0C7.20521 0 0.265625 6.93959 0.265625 15.5C0.265625 24.0604 7.20521 31 15.7656 31Z" fill="#F7931A"/>
<path d="M22.7302 13.5819C23.0344 11.5514 21.4873 10.4596 19.3735 9.7311L20.0594 6.97984L18.3854 6.56328L17.7169 9.24188C17.2771 9.13144 16.8257 9.02875 16.3752 8.92606L17.0485 6.23003L15.3745 5.8125L14.6886 8.56278C14.3244 8.47947 13.9659 8.39809 13.6191 8.31091L13.6211 8.30219L11.3116 7.72578L10.8659 9.5141C10.8659 9.5141 12.1088 9.79891 12.0827 9.81635C12.7608 9.98588 12.8829 10.4344 12.8625 10.7909L12.0817 13.9248C12.1282 13.9364 12.1883 13.9539 12.2561 13.98L12.0788 13.9364L10.9841 18.3268C10.9008 18.5322 10.6906 18.8412 10.2159 18.724C10.2333 18.7482 8.99916 18.4208 8.99916 18.4208L8.16797 20.337L10.3477 20.8804C10.7526 20.9822 11.1498 21.0887 11.5402 21.1885L10.8475 23.9708L12.5206 24.3873L13.2064 21.6361C13.6637 21.7591 14.1074 21.8734 14.5414 21.9819L13.8574 24.7215L15.5314 25.1381L16.2241 22.3617C19.08 22.9022 21.2267 22.6843 22.1306 20.1016C22.8591 18.0226 22.0947 16.8223 20.5922 16.0406C21.6869 15.7887 22.5103 15.0689 22.7302 13.5819ZM18.9037 18.9468C18.3873 21.0267 14.8853 19.902 13.7499 19.6201L14.6702 15.934C15.8056 16.2178 19.4452 16.7788 18.9037 18.9468ZM19.4219 13.5518C18.9502 15.4438 16.0362 14.4818 15.0916 14.2464L15.9247 10.9043C16.8693 11.1397 19.9141 11.5785 19.4219 13.5518Z" fill="white"/>
</svg>
